G04 #@! TF.FileFunction,Copper,L2,Bot,Signal*
%FSLAX46Y46*%
G04 Gerber Fmt 4.6, Leading zero omitted, Abs format (unit mm)*
G04 Created by KiCad (PCBNEW (2015-03-13 BZR 5510)-product) date ons  4 nov 2015 02:41:53*
%MOMM*%
G01*
G04 APERTURE LIST*
%ADD10C,0.100000*%
%ADD11O,4.000500X1.998980*%
%ADD12O,1.998980X4.000500*%
%ADD13O,1.998980X4.500880*%
%ADD14O,1.300000X1.800000*%
%ADD15R,0.797560X0.797560*%
%ADD16R,0.899160X1.000760*%
%ADD17R,1.000760X0.899160*%
%ADD18R,1.200000X1.750000*%
%ADD19C,3.000000*%
%ADD20R,1.300480X1.800860*%
%ADD21R,3.799840X1.800860*%
%ADD22R,2.199640X1.524000*%
%ADD23O,2.199640X1.524000*%
%ADD24C,0.600000*%
%ADD25C,1.000000*%
%ADD26C,0.300000*%
%ADD27C,1.200000*%
%ADD28C,0.800000*%
G04 APERTURE END LIST*
D10*
D11*
X123160120Y-118270980D03*
D12*
X119908920Y-112970000D03*
D13*
X125910940Y-112970000D03*
D14*
X136540000Y-87220000D03*
X141540000Y-87220000D03*
X146540000Y-87220000D03*
X128160000Y-87220000D03*
X133160000Y-87220000D03*
X138160000Y-87220000D03*
X119700000Y-87220000D03*
X124700000Y-87220000D03*
X129700000Y-87220000D03*
D15*
X127800700Y-94720000D03*
X129299300Y-94720000D03*
D16*
X131581840Y-103420000D03*
X130078160Y-103420000D03*
X136488160Y-102100000D03*
X137991840Y-102100000D03*
X130948160Y-102100000D03*
X132451840Y-102100000D03*
X134921840Y-98190000D03*
X133418160Y-98190000D03*
D17*
X139740000Y-94358160D03*
X139740000Y-95861840D03*
D16*
X133728160Y-102100000D03*
X135231840Y-102100000D03*
D17*
X135180000Y-112838160D03*
X135180000Y-114341840D03*
X135180000Y-110118160D03*
X135180000Y-111621840D03*
X135180000Y-107388160D03*
X135180000Y-108891840D03*
X140820000Y-102258160D03*
X140820000Y-103761840D03*
X140820000Y-98958160D03*
X140820000Y-100461840D03*
D16*
X144631840Y-97670000D03*
X143128160Y-97670000D03*
D18*
X146490000Y-95920000D03*
X142490000Y-95920000D03*
X146490000Y-89420000D03*
X142490000Y-89420000D03*
X123770000Y-95750000D03*
X119770000Y-95750000D03*
X123770000Y-89250000D03*
X119770000Y-89250000D03*
D19*
X146150000Y-109460000D03*
X146150000Y-119200000D03*
X133500000Y-119200000D03*
D20*
X129381240Y-108809740D03*
X127080000Y-108809740D03*
X124778760Y-108809740D03*
D21*
X127080000Y-102810260D03*
D15*
X125180700Y-89520000D03*
X126679300Y-89520000D03*
X127810700Y-93380000D03*
X129309300Y-93380000D03*
X127790700Y-96010000D03*
X129289300Y-96010000D03*
X125180700Y-91570000D03*
X126679300Y-91570000D03*
X127790700Y-97340000D03*
X129289300Y-97340000D03*
D22*
X119720000Y-105170000D03*
D23*
X119720000Y-102630000D03*
X119720000Y-100090000D03*
D22*
X123580000Y-114400000D03*
D23*
X123580000Y-111860000D03*
D24*
X143280000Y-107660000D03*
X141220000Y-112970000D03*
X124840000Y-107050000D03*
X141790000Y-104020000D03*
X125940000Y-96760000D03*
X127810000Y-99800000D03*
X129460000Y-102770000D03*
X132270000Y-101040000D03*
X135020000Y-101050000D03*
X138860000Y-102100000D03*
X141260000Y-95130000D03*
X143690000Y-95150000D03*
X130270000Y-116830000D03*
X129180000Y-101320000D03*
X129290000Y-92270000D03*
X123760000Y-94410000D03*
X130270000Y-113580000D03*
X130270000Y-110320000D03*
X137450000Y-108500000D03*
X137310000Y-111440000D03*
X137460000Y-114700000D03*
X129380000Y-107370000D03*
X132800000Y-95080000D03*
X134980000Y-96160000D03*
X145420000Y-95170000D03*
X121900000Y-98390000D03*
X130070000Y-101290000D03*
X133730000Y-103290000D03*
X136510000Y-103290000D03*
X132510000Y-103290000D03*
X125150000Y-90510000D03*
X126880000Y-93380000D03*
X126890000Y-96010000D03*
X125180000Y-92570000D03*
X126890000Y-94720000D03*
X126920000Y-96860000D03*
X133650000Y-90640000D03*
X133420000Y-98830000D03*
X135510000Y-103310000D03*
X137130000Y-92160000D03*
X137140000Y-96170000D03*
X135880000Y-96190000D03*
X135640000Y-92870000D03*
X139280000Y-90070000D03*
X131420000Y-113890000D03*
X132650000Y-112700000D03*
X133630000Y-110230000D03*
X131580000Y-110230000D03*
X136500000Y-113560000D03*
X134200000Y-105190000D03*
X136410000Y-110300000D03*
X138590000Y-108770000D03*
X136410000Y-107240000D03*
X137280000Y-98400000D03*
X141770000Y-102110000D03*
X138100000Y-98150000D03*
X141560000Y-98960000D03*
X140850000Y-95920000D03*
X142800000Y-94020000D03*
X120650000Y-93470000D03*
X122890000Y-98380000D03*
X132310000Y-99560000D03*
X132400000Y-92810000D03*
X133900000Y-99470000D03*
X127540000Y-89570000D03*
X134140000Y-89580000D03*
X130320000Y-93400000D03*
X133310000Y-92740000D03*
X133640000Y-91590000D03*
X127550000Y-91570000D03*
X141230000Y-96710000D03*
X144550000Y-95150000D03*
X138130000Y-97340000D03*
X143480000Y-92760000D03*
X138130000Y-96470000D03*
X130290000Y-114930000D03*
X123940000Y-104250000D03*
X124970000Y-98340000D03*
X128550000Y-98340000D03*
X128950000Y-112440000D03*
X127770000Y-104320000D03*
X136510000Y-89260000D03*
X136510000Y-90790000D03*
X136550000Y-98680000D03*
D25*
X141220000Y-109720000D02*
X143280000Y-107660000D01*
X141220000Y-112970000D02*
X141220000Y-109720000D01*
X124778760Y-108809740D02*
X124778760Y-107111240D01*
X124778760Y-107111240D02*
X124840000Y-107050000D01*
D26*
X130078160Y-103420000D02*
X130078160Y-103388160D01*
X130078160Y-103388160D02*
X129460000Y-102770000D01*
X129299300Y-94720000D02*
X129389300Y-94630000D01*
X146450000Y-86800000D02*
X146450000Y-87320000D01*
X132451840Y-101221840D02*
X132451840Y-102100000D01*
X132270000Y-101040000D02*
X132451840Y-101221840D01*
X138860000Y-102100000D02*
X137991840Y-102100000D01*
X143128160Y-97670000D02*
X143210000Y-97670000D01*
X143210000Y-97670000D02*
X144060000Y-96820000D01*
X144060000Y-96820000D02*
X144060000Y-96350000D01*
X144060000Y-96350000D02*
X144260000Y-96150000D01*
X139740000Y-94358160D02*
X140488160Y-94358160D01*
X140488160Y-94358160D02*
X141260000Y-95130000D01*
X143690000Y-95150000D02*
X143690000Y-95620000D01*
X145420000Y-95600000D02*
X145420000Y-95170000D01*
X144870000Y-96150000D02*
X145420000Y-95600000D01*
X144220000Y-96150000D02*
X144260000Y-96150000D01*
X144260000Y-96150000D02*
X144870000Y-96150000D01*
X143690000Y-95620000D02*
X144220000Y-96150000D01*
X123770000Y-95750000D02*
X123760000Y-95740000D01*
X123760000Y-95740000D02*
X123760000Y-94410000D01*
X129289300Y-97340000D02*
X129289300Y-96010000D01*
X129299300Y-94720000D02*
X129299300Y-96000000D01*
X129299300Y-96000000D02*
X129289300Y-96010000D01*
X129309300Y-93380000D02*
X129309300Y-94710000D01*
X129309300Y-94710000D02*
X129299300Y-94720000D01*
X129381240Y-108809740D02*
X129381240Y-107371240D01*
X129381240Y-107371240D02*
X129380000Y-107370000D01*
X134980000Y-96160000D02*
X134921840Y-96218160D01*
X134921840Y-96218160D02*
X134921840Y-98190000D01*
X145740000Y-95170000D02*
X145420000Y-95170000D01*
X146490000Y-95920000D02*
X145740000Y-95170000D01*
X131581840Y-103420000D02*
X131581840Y-102733680D01*
X131581840Y-102733680D02*
X130948160Y-102100000D01*
X133730000Y-103290000D02*
X133730000Y-103640000D01*
X136510000Y-103440000D02*
X136510000Y-103290000D01*
X135970000Y-103980000D02*
X136510000Y-103440000D01*
X134070000Y-103980000D02*
X135970000Y-103980000D01*
X133730000Y-103640000D02*
X134070000Y-103980000D01*
X127080000Y-108809740D02*
X126810000Y-108539740D01*
X126810000Y-108539740D02*
X126810000Y-103080260D01*
X126810000Y-103080260D02*
X127080000Y-102810260D01*
X127080000Y-102810260D02*
X127080000Y-100280002D01*
X123290002Y-99780002D02*
X121900000Y-98390000D01*
X126580000Y-99780002D02*
X123290002Y-99780002D01*
X127080000Y-100280002D02*
X126580000Y-99780002D01*
X130070000Y-101290000D02*
X130880000Y-102100000D01*
X130880000Y-102100000D02*
X130948160Y-102100000D01*
X133728160Y-103288160D02*
X133730000Y-103290000D01*
X133728160Y-102100000D02*
X133728160Y-103288160D01*
X136488160Y-103268160D02*
X136510000Y-103290000D01*
X136488160Y-102100000D02*
X136488160Y-103268160D01*
X130070000Y-101920000D02*
X130070000Y-101290000D01*
X129840000Y-102150000D02*
X130070000Y-101920000D01*
X127740260Y-102150000D02*
X129840000Y-102150000D01*
X127080000Y-102810260D02*
X127740260Y-102150000D01*
X132380000Y-103420000D02*
X132510000Y-103290000D01*
X131581840Y-103420000D02*
X132380000Y-103420000D01*
X125150000Y-90510000D02*
X125180700Y-90479300D01*
X125180700Y-90479300D02*
X125180700Y-89520000D01*
X127810700Y-93380000D02*
X126880000Y-93380000D01*
X127790700Y-96010000D02*
X126890000Y-96010000D01*
X125180700Y-91570000D02*
X125180700Y-92569300D01*
X125180700Y-92569300D02*
X125180000Y-92570000D01*
X127800700Y-94720000D02*
X126890000Y-94720000D01*
X126920000Y-96860000D02*
X127310700Y-96860000D01*
X127310700Y-96860000D02*
X127790700Y-97340000D01*
D27*
X123580000Y-114400000D02*
X124480940Y-114400000D01*
X124480940Y-114400000D02*
X125910940Y-112970000D01*
X123580000Y-114400000D02*
X124480940Y-114400000D01*
X123580000Y-114400000D02*
X122920000Y-114400000D01*
X122920000Y-114400000D02*
X121670000Y-113150000D01*
X121670000Y-113150000D02*
X121670000Y-109720000D01*
X121670000Y-109720000D02*
X119720000Y-107770000D01*
X119720000Y-107770000D02*
X119720000Y-105170000D01*
D26*
X134280000Y-97328160D02*
X133418160Y-98190000D01*
X134280000Y-91270000D02*
X134280000Y-97328160D01*
X133650000Y-90640000D02*
X134280000Y-91270000D01*
X133420000Y-98830000D02*
X133418160Y-98828160D01*
X133418160Y-98828160D02*
X133418160Y-98190000D01*
X135231840Y-102100000D02*
X135231840Y-103031840D01*
X135231840Y-103031840D02*
X135510000Y-103310000D01*
X137130000Y-96160000D02*
X137130000Y-92160000D01*
X137140000Y-96170000D02*
X137130000Y-96160000D01*
X135880000Y-101210000D02*
X135880000Y-96190000D01*
X135231840Y-101858160D02*
X135880000Y-101210000D01*
X135231840Y-102100000D02*
X135231840Y-101858160D01*
X135640000Y-92870000D02*
X135640000Y-90460000D01*
X135640000Y-90460000D02*
X136030000Y-90070000D01*
X136030000Y-90070000D02*
X139280000Y-90070000D01*
D28*
X131420000Y-113890000D02*
X131980000Y-113890000D01*
X131980000Y-113890000D02*
X132650000Y-113220000D01*
X132650000Y-113220000D02*
X132650000Y-112700000D01*
X131580000Y-110230000D02*
X133630000Y-110230000D01*
D26*
X135778160Y-112838160D02*
X135180000Y-112838160D01*
X136500000Y-113560000D02*
X135778160Y-112838160D01*
X134508160Y-112838160D02*
X135180000Y-112838160D01*
X134360000Y-112690000D02*
X134508160Y-112838160D01*
X134360000Y-109830000D02*
X134360000Y-112690000D01*
X134200000Y-109670000D02*
X134360000Y-109830000D01*
X134200000Y-105190000D02*
X134200000Y-109670000D01*
X136410000Y-109560000D02*
X136410000Y-110300000D01*
X138590000Y-108770000D02*
X137800000Y-109560000D01*
X137800000Y-109560000D02*
X136410000Y-109560000D01*
X136410000Y-109560000D02*
X135851840Y-110118160D01*
X135851840Y-110118160D02*
X135180000Y-110118160D01*
X136410000Y-107240000D02*
X136261840Y-107388160D01*
X136261840Y-107388160D02*
X135180000Y-107388160D01*
X136490000Y-107160000D02*
X136410000Y-107240000D01*
X136490000Y-104260000D02*
X136490000Y-107160000D01*
X137240000Y-103510000D02*
X136490000Y-104260000D01*
X137240000Y-98890000D02*
X137240000Y-103510000D01*
X137280000Y-98850000D02*
X137240000Y-98890000D01*
X137280000Y-98400000D02*
X137280000Y-98850000D01*
X141621840Y-102258160D02*
X140820000Y-102258160D01*
X141770000Y-102110000D02*
X141621840Y-102258160D01*
X140218160Y-102258160D02*
X140820000Y-102258160D01*
X139980000Y-102020000D02*
X140218160Y-102258160D01*
X139980000Y-100030000D02*
X139980000Y-102020000D01*
X138100000Y-98150000D02*
X139980000Y-100030000D01*
X141558160Y-98958160D02*
X140820000Y-98958160D01*
X141560000Y-98960000D02*
X141558160Y-98958160D01*
X139740000Y-95861840D02*
X139798160Y-95920000D01*
X139798160Y-95920000D02*
X140850000Y-95920000D01*
X142800000Y-95610000D02*
X142800000Y-94020000D01*
X142490000Y-95920000D02*
X142800000Y-95610000D01*
X120650000Y-94870000D02*
X119770000Y-95750000D01*
X120650000Y-93470000D02*
X120650000Y-94870000D01*
X123490000Y-98980000D02*
X122890000Y-98380000D01*
X131730000Y-98980000D02*
X123490000Y-98980000D01*
X132310000Y-99560000D02*
X131730000Y-98980000D01*
X132400000Y-92810000D02*
X133829998Y-94239998D01*
X133829998Y-94239998D02*
X133829998Y-97141764D01*
X133829998Y-97141764D02*
X133601762Y-97370000D01*
X133601762Y-97370000D02*
X132840000Y-97370000D01*
X132840000Y-97370000D02*
X132640000Y-97570000D01*
X132640000Y-97570000D02*
X132640000Y-98970000D01*
X132640000Y-98970000D02*
X133140000Y-99470000D01*
X133140000Y-99470000D02*
X133900000Y-99470000D01*
X134130000Y-89570000D02*
X127540000Y-89570000D01*
X134140000Y-89580000D02*
X134130000Y-89570000D01*
X130320000Y-93400000D02*
X131170000Y-92550000D01*
X131170000Y-92550000D02*
X131630000Y-92090000D01*
X131630000Y-92090000D02*
X132660000Y-92090000D01*
X132660000Y-92090000D02*
X133310000Y-92740000D01*
X133640000Y-91590000D02*
X133620000Y-91570000D01*
X133620000Y-91570000D02*
X127550000Y-91570000D01*
X144631840Y-97670000D02*
X144631840Y-97838160D01*
X144631840Y-97838160D02*
X143890000Y-98580000D01*
X143890000Y-98580000D02*
X142040000Y-98580000D01*
X142040000Y-98580000D02*
X141230000Y-97770000D01*
X141230000Y-97770000D02*
X141230000Y-96710000D01*
X138740000Y-96730000D02*
X138740000Y-93400000D01*
X138740000Y-93400000D02*
X143870000Y-93400000D01*
X143870000Y-93400000D02*
X144550000Y-94080000D01*
X144550000Y-94080000D02*
X144550000Y-95150000D01*
X138130000Y-97340000D02*
X138740000Y-96730000D01*
X138130000Y-92760000D02*
X143480000Y-92760000D01*
X138130000Y-96470000D02*
X138130000Y-92760000D01*
X128250000Y-114930000D02*
X130290000Y-114930000D01*
X127560000Y-114240000D02*
X128250000Y-114930000D01*
X127560000Y-110840000D02*
X127560000Y-114240000D01*
X126810000Y-110090000D02*
X127560000Y-110840000D01*
X123900000Y-110090000D02*
X126810000Y-110090000D01*
X123560000Y-109750000D02*
X123900000Y-110090000D01*
X123560000Y-106240000D02*
X123560000Y-109750000D01*
X123940000Y-105860000D02*
X123560000Y-106240000D01*
X123940000Y-104250000D02*
X123940000Y-105860000D01*
X128550000Y-98340000D02*
X124970000Y-98340000D01*
X128050000Y-111540000D02*
X128950000Y-112440000D01*
X128050000Y-104600000D02*
X128050000Y-111540000D01*
X127770000Y-104320000D02*
X128050000Y-104600000D01*
X136510000Y-89260000D02*
X141460000Y-89260000D01*
X136510000Y-98640000D02*
X136510000Y-90790000D01*
X136550000Y-98680000D02*
X136510000Y-98640000D01*
X141460000Y-89260000D02*
X141460000Y-87330000D01*
X141460000Y-87330000D02*
X141450000Y-87320000D01*
X141450000Y-88050000D02*
X141450000Y-87320000D01*
G36*
X142350000Y-94739123D02*
X141890000Y-94739123D01*
X141775611Y-94761317D01*
X141675074Y-94827359D01*
X141607775Y-94927060D01*
X141584123Y-95045000D01*
X141584123Y-96215471D01*
X141570317Y-96201641D01*
X141410311Y-96135201D01*
X141449896Y-96039871D01*
X141450104Y-95801176D01*
X141358952Y-95580571D01*
X141190317Y-95411641D01*
X140969871Y-95320104D01*
X140731176Y-95319896D01*
X140543390Y-95397487D01*
X140524063Y-95297871D01*
X140458021Y-95197334D01*
X140358320Y-95130035D01*
X140247146Y-95107740D01*
X140300053Y-95107740D01*
X140410316Y-95062068D01*
X140494708Y-94977677D01*
X140540380Y-94867414D01*
X140540380Y-94657950D01*
X140465380Y-94582950D01*
X139990190Y-94582950D01*
X139990190Y-94728160D01*
X139489810Y-94728160D01*
X139489810Y-94582950D01*
X139370000Y-94582950D01*
X139370000Y-94133370D01*
X139489810Y-94133370D01*
X139489810Y-93988160D01*
X139990190Y-93988160D01*
X139990190Y-94133370D01*
X140465380Y-94133370D01*
X140540380Y-94058370D01*
X140540380Y-93850000D01*
X142220919Y-93850000D01*
X142200104Y-93900129D01*
X142199896Y-94138824D01*
X142291048Y-94359429D01*
X142350000Y-94418484D01*
X142350000Y-94739123D01*
X142350000Y-94739123D01*
G37*
X142350000Y-94739123D02*
X141890000Y-94739123D01*
X141775611Y-94761317D01*
X141675074Y-94827359D01*
X141607775Y-94927060D01*
X141584123Y-95045000D01*
X141584123Y-96215471D01*
X141570317Y-96201641D01*
X141410311Y-96135201D01*
X141449896Y-96039871D01*
X141450104Y-95801176D01*
X141358952Y-95580571D01*
X141190317Y-95411641D01*
X140969871Y-95320104D01*
X140731176Y-95319896D01*
X140543390Y-95397487D01*
X140524063Y-95297871D01*
X140458021Y-95197334D01*
X140358320Y-95130035D01*
X140247146Y-95107740D01*
X140300053Y-95107740D01*
X140410316Y-95062068D01*
X140494708Y-94977677D01*
X140540380Y-94867414D01*
X140540380Y-94657950D01*
X140465380Y-94582950D01*
X139990190Y-94582950D01*
X139990190Y-94728160D01*
X139489810Y-94728160D01*
X139489810Y-94582950D01*
X139370000Y-94582950D01*
X139370000Y-94133370D01*
X139489810Y-94133370D01*
X139489810Y-93988160D01*
X139990190Y-93988160D01*
X139990190Y-94133370D01*
X140465380Y-94133370D01*
X140540380Y-94058370D01*
X140540380Y-93850000D01*
X142220919Y-93850000D01*
X142200104Y-93900129D01*
X142199896Y-94138824D01*
X142291048Y-94359429D01*
X142350000Y-94418484D01*
X142350000Y-94739123D01*
G36*
X143498160Y-97920190D02*
X143352950Y-97920190D01*
X143352950Y-98040000D01*
X142903370Y-98040000D01*
X142903370Y-97920190D01*
X142453580Y-97920190D01*
X142378580Y-97995190D01*
X142378580Y-98110706D01*
X142378580Y-98130000D01*
X142226396Y-98130000D01*
X141680000Y-97583604D01*
X141680000Y-97108574D01*
X141735873Y-97052798D01*
X141772060Y-97077225D01*
X141890000Y-97100877D01*
X142382336Y-97100877D01*
X142378580Y-97109947D01*
X142378580Y-97229294D01*
X142378580Y-97344810D01*
X142453580Y-97419810D01*
X142903370Y-97419810D01*
X142903370Y-97300000D01*
X143352950Y-97300000D01*
X143352950Y-97419810D01*
X143498160Y-97419810D01*
X143498160Y-97920190D01*
X143498160Y-97920190D01*
G37*
X143498160Y-97920190D02*
X143352950Y-97920190D01*
X143352950Y-98040000D01*
X142903370Y-98040000D01*
X142903370Y-97920190D01*
X142453580Y-97920190D01*
X142378580Y-97995190D01*
X142378580Y-98110706D01*
X142378580Y-98130000D01*
X142226396Y-98130000D01*
X141680000Y-97583604D01*
X141680000Y-97108574D01*
X141735873Y-97052798D01*
X141772060Y-97077225D01*
X141890000Y-97100877D01*
X142382336Y-97100877D01*
X142378580Y-97109947D01*
X142378580Y-97229294D01*
X142378580Y-97344810D01*
X142453580Y-97419810D01*
X142903370Y-97419810D01*
X142903370Y-97300000D01*
X143352950Y-97300000D01*
X143352950Y-97419810D01*
X143498160Y-97419810D01*
X143498160Y-97920190D01*
G36*
X148470000Y-121160000D02*
X147950312Y-121160000D01*
X147950312Y-118843529D01*
X147950312Y-109103529D01*
X147676855Y-108441714D01*
X147444298Y-108208750D01*
X147444298Y-87714473D01*
X147444298Y-86725527D01*
X147281907Y-86398077D01*
X147006567Y-86157697D01*
X147000644Y-86139153D01*
X146865000Y-86157596D01*
X146865000Y-86870000D01*
X147396409Y-86870000D01*
X147444298Y-86725527D01*
X147444298Y-87714473D01*
X147396409Y-87570000D01*
X146865000Y-87570000D01*
X146865000Y-87590000D01*
X146215000Y-87590000D01*
X146215000Y-87570000D01*
X146215000Y-86870000D01*
X146215000Y-86157596D01*
X146079356Y-86139153D01*
X146073433Y-86157697D01*
X145798093Y-86398077D01*
X145635702Y-86725527D01*
X145683591Y-86870000D01*
X146215000Y-86870000D01*
X146215000Y-87570000D01*
X145683591Y-87570000D01*
X145635702Y-87714473D01*
X145798093Y-88041923D01*
X146023973Y-88239123D01*
X145890000Y-88239123D01*
X145775611Y-88261317D01*
X145675074Y-88327359D01*
X145607775Y-88427060D01*
X145584123Y-88545000D01*
X145584123Y-90295000D01*
X145606317Y-90409389D01*
X145672359Y-90509926D01*
X145772060Y-90577225D01*
X145890000Y-90600877D01*
X147090000Y-90600877D01*
X147204389Y-90578683D01*
X147304926Y-90512641D01*
X147372225Y-90412940D01*
X147395877Y-90295000D01*
X147395877Y-88545000D01*
X147373683Y-88430611D01*
X147307641Y-88330074D01*
X147207940Y-88262775D01*
X147090000Y-88239123D01*
X147056026Y-88239123D01*
X147281907Y-88041923D01*
X147444298Y-87714473D01*
X147444298Y-108208750D01*
X147390000Y-108154357D01*
X147390000Y-96854674D01*
X147390000Y-96345000D01*
X147390000Y-95495000D01*
X147390000Y-94985326D01*
X147344328Y-94875063D01*
X147259936Y-94790672D01*
X147149673Y-94745000D01*
X147030326Y-94745000D01*
X146865000Y-94745000D01*
X146790000Y-94820000D01*
X146790000Y-95570000D01*
X147315000Y-95570000D01*
X147390000Y-95495000D01*
X147390000Y-96345000D01*
X147315000Y-96270000D01*
X146790000Y-96270000D01*
X146790000Y-97020000D01*
X146865000Y-97095000D01*
X147030326Y-97095000D01*
X147149673Y-97095000D01*
X147259936Y-97049328D01*
X147344328Y-96964937D01*
X147390000Y-96854674D01*
X147390000Y-108154357D01*
X147170949Y-107934924D01*
X146509613Y-107660313D01*
X146190000Y-107660034D01*
X146190000Y-97020000D01*
X146190000Y-96270000D01*
X146190000Y-95570000D01*
X146190000Y-94820000D01*
X146115000Y-94745000D01*
X145949674Y-94745000D01*
X145830327Y-94745000D01*
X145720064Y-94790672D01*
X145635672Y-94875063D01*
X145590000Y-94985326D01*
X145590000Y-95495000D01*
X145665000Y-95570000D01*
X146190000Y-95570000D01*
X146190000Y-96270000D01*
X145665000Y-96270000D01*
X145590000Y-96345000D01*
X145590000Y-96854674D01*
X145635672Y-96964937D01*
X145720064Y-97049328D01*
X145830327Y-97095000D01*
X145949674Y-97095000D01*
X146115000Y-97095000D01*
X146190000Y-97020000D01*
X146190000Y-107660034D01*
X145793529Y-107659688D01*
X145387297Y-107827540D01*
X145387297Y-98170380D01*
X145387297Y-97169620D01*
X145365103Y-97055231D01*
X145299061Y-96954694D01*
X145199360Y-96887395D01*
X145081420Y-96863743D01*
X144182260Y-96863743D01*
X144067871Y-96885937D01*
X143967334Y-96951979D01*
X143900035Y-97051680D01*
X143877740Y-97162853D01*
X143877740Y-97109947D01*
X143832068Y-96999684D01*
X143747677Y-96915292D01*
X143637414Y-96869620D01*
X143478162Y-96869620D01*
X143427950Y-96869620D01*
X143380912Y-96869620D01*
X143395877Y-96795000D01*
X143395877Y-95045000D01*
X143373683Y-94930611D01*
X143307641Y-94830074D01*
X143250000Y-94791165D01*
X143250000Y-94418574D01*
X143308359Y-94360317D01*
X143399896Y-94139871D01*
X143400104Y-93901176D01*
X143378958Y-93850000D01*
X143683604Y-93850000D01*
X144100000Y-94266396D01*
X144100000Y-94751425D01*
X144041641Y-94809683D01*
X143950104Y-95030129D01*
X143949896Y-95268824D01*
X144041048Y-95489429D01*
X144209683Y-95658359D01*
X144430129Y-95749896D01*
X144668824Y-95750104D01*
X144889429Y-95658952D01*
X145058359Y-95490317D01*
X145149896Y-95269871D01*
X145150104Y-95031176D01*
X145058952Y-94810571D01*
X145000000Y-94751515D01*
X145000000Y-94080000D01*
X144965746Y-93907792D01*
X144868198Y-93761802D01*
X144188198Y-93081802D01*
X144042208Y-92984254D01*
X144036983Y-92983214D01*
X144079896Y-92879871D01*
X144080104Y-92641176D01*
X143988952Y-92420571D01*
X143820317Y-92251641D01*
X143599871Y-92160104D01*
X143361176Y-92159896D01*
X143140571Y-92251048D01*
X143081515Y-92310000D01*
X138130000Y-92310000D01*
X137957792Y-92344254D01*
X137811802Y-92441802D01*
X137714254Y-92587792D01*
X137680000Y-92760000D01*
X137680000Y-95905713D01*
X137648952Y-95830571D01*
X137580000Y-95761498D01*
X137580000Y-92558574D01*
X137638359Y-92500317D01*
X137729896Y-92279871D01*
X137730104Y-92041176D01*
X137638952Y-91820571D01*
X137470317Y-91651641D01*
X137249871Y-91560104D01*
X137011176Y-91559896D01*
X136960000Y-91581041D01*
X136960000Y-91188574D01*
X137018359Y-91130317D01*
X137109896Y-90909871D01*
X137110104Y-90671176D01*
X137047639Y-90520000D01*
X138881425Y-90520000D01*
X138939683Y-90578359D01*
X139160129Y-90669896D01*
X139398824Y-90670104D01*
X139619429Y-90578952D01*
X139788359Y-90410317D01*
X139879896Y-90189871D01*
X139880104Y-89951176D01*
X139788952Y-89730571D01*
X139768416Y-89710000D01*
X141460000Y-89710000D01*
X141584123Y-89685310D01*
X141584123Y-90295000D01*
X141606317Y-90409389D01*
X141672359Y-90509926D01*
X141772060Y-90577225D01*
X141890000Y-90600877D01*
X143090000Y-90600877D01*
X143204389Y-90578683D01*
X143304926Y-90512641D01*
X143372225Y-90412940D01*
X143395877Y-90295000D01*
X143395877Y-88545000D01*
X143373683Y-88430611D01*
X143307641Y-88330074D01*
X143207940Y-88262775D01*
X143090000Y-88239123D01*
X142101207Y-88239123D01*
X142211751Y-88165260D01*
X142417686Y-87857058D01*
X142490000Y-87493509D01*
X142490000Y-86946491D01*
X142417686Y-86582942D01*
X142211751Y-86274740D01*
X141903549Y-86068805D01*
X141540000Y-85996491D01*
X141176451Y-86068805D01*
X140868249Y-86274740D01*
X140662314Y-86582942D01*
X140590000Y-86946491D01*
X140590000Y-87493509D01*
X140662314Y-87857058D01*
X140868249Y-88165260D01*
X141010000Y-88259975D01*
X141010000Y-88810000D01*
X139064298Y-88810000D01*
X139064298Y-87714473D01*
X139064298Y-86725527D01*
X138901907Y-86398077D01*
X138626567Y-86157697D01*
X138620644Y-86139153D01*
X138485000Y-86157596D01*
X138485000Y-86870000D01*
X139016409Y-86870000D01*
X139064298Y-86725527D01*
X139064298Y-87714473D01*
X139016409Y-87570000D01*
X138485000Y-87570000D01*
X138485000Y-88282404D01*
X138620644Y-88300847D01*
X138626567Y-88282303D01*
X138901907Y-88041923D01*
X139064298Y-87714473D01*
X139064298Y-88810000D01*
X137835000Y-88810000D01*
X137835000Y-88282404D01*
X137835000Y-87570000D01*
X137790000Y-87570000D01*
X137790000Y-86870000D01*
X137835000Y-86870000D01*
X137835000Y-86157596D01*
X137699356Y-86139153D01*
X137693433Y-86157697D01*
X137418093Y-86398077D01*
X137365296Y-86504536D01*
X137211751Y-86274740D01*
X136903549Y-86068805D01*
X136540000Y-85996491D01*
X136176451Y-86068805D01*
X135868249Y-86274740D01*
X135662314Y-86582942D01*
X135590000Y-86946491D01*
X135590000Y-87493509D01*
X135662314Y-87857058D01*
X135868249Y-88165260D01*
X136176451Y-88371195D01*
X136540000Y-88443509D01*
X136903549Y-88371195D01*
X137211751Y-88165260D01*
X137365296Y-87935463D01*
X137418093Y-88041923D01*
X137693433Y-88282303D01*
X137699356Y-88300847D01*
X137835000Y-88282404D01*
X137835000Y-88810000D01*
X136908574Y-88810000D01*
X136850317Y-88751641D01*
X136629871Y-88660104D01*
X136391176Y-88659896D01*
X136170571Y-88751048D01*
X136001641Y-88919683D01*
X135910104Y-89140129D01*
X135909896Y-89378824D01*
X136001048Y-89599429D01*
X136022977Y-89621396D01*
X135857792Y-89654254D01*
X135711802Y-89751802D01*
X135321802Y-90141802D01*
X135224254Y-90287792D01*
X135190000Y-90460000D01*
X135190000Y-92471425D01*
X135131641Y-92529683D01*
X135040104Y-92750129D01*
X135039896Y-92988824D01*
X135131048Y-93209429D01*
X135299683Y-93378359D01*
X135520129Y-93469896D01*
X135758824Y-93470104D01*
X135979429Y-93378952D01*
X136060000Y-93298521D01*
X136060000Y-95615071D01*
X135999871Y-95590104D01*
X135761176Y-95589896D01*
X135540571Y-95681048D01*
X135371641Y-95849683D01*
X135280104Y-96070129D01*
X135279896Y-96308824D01*
X135371048Y-96529429D01*
X135430000Y-96588484D01*
X135430000Y-97389620D01*
X135221630Y-97389620D01*
X135146630Y-97464620D01*
X135146630Y-97939810D01*
X135291840Y-97939810D01*
X135291840Y-98440190D01*
X135146630Y-98440190D01*
X135146630Y-98915380D01*
X135221630Y-98990380D01*
X135430000Y-98990380D01*
X135430000Y-101023604D01*
X135159861Y-101293743D01*
X134782260Y-101293743D01*
X134667871Y-101315937D01*
X134567334Y-101381979D01*
X134500035Y-101481680D01*
X134480059Y-101581285D01*
X134461423Y-101485231D01*
X134395381Y-101384694D01*
X134295680Y-101317395D01*
X134177740Y-101293743D01*
X133278580Y-101293743D01*
X133164191Y-101315937D01*
X133090444Y-101364380D01*
X133071357Y-101345292D01*
X132961094Y-101299620D01*
X132751630Y-101299620D01*
X132676630Y-101374620D01*
X132676630Y-101849810D01*
X132821840Y-101849810D01*
X132821840Y-102350190D01*
X132676630Y-102350190D01*
X132676630Y-102470000D01*
X132227050Y-102470000D01*
X132227050Y-102350190D01*
X132081840Y-102350190D01*
X132081840Y-101849810D01*
X132227050Y-101849810D01*
X132227050Y-101374620D01*
X132152050Y-101299620D01*
X131942586Y-101299620D01*
X131832323Y-101345292D01*
X131747932Y-101429684D01*
X131702260Y-101539947D01*
X131702260Y-101592625D01*
X131681423Y-101485231D01*
X131615381Y-101384694D01*
X131515680Y-101317395D01*
X131397740Y-101293743D01*
X130710139Y-101293743D01*
X130670032Y-101253636D01*
X130670104Y-101171176D01*
X130578952Y-100950571D01*
X130410317Y-100781641D01*
X130189871Y-100690104D01*
X129951176Y-100689896D01*
X129730571Y-100781048D01*
X129561641Y-100949683D01*
X129470104Y-101170129D01*
X129469896Y-101408824D01*
X129561048Y-101629429D01*
X129620000Y-101688484D01*
X129620000Y-101700000D01*
X129200908Y-101700000D01*
X129197561Y-101694904D01*
X129097860Y-101627605D01*
X128979920Y-101603953D01*
X127530000Y-101603953D01*
X127530000Y-100280002D01*
X127495746Y-100107795D01*
X127495746Y-100107794D01*
X127398198Y-99961804D01*
X126898198Y-99461804D01*
X126850600Y-99430000D01*
X131543604Y-99430000D01*
X131709967Y-99596363D01*
X131709896Y-99678824D01*
X131801048Y-99899429D01*
X131969683Y-100068359D01*
X132190129Y-100159896D01*
X132428824Y-100160104D01*
X132649429Y-100068952D01*
X132818359Y-99900317D01*
X132855551Y-99810748D01*
X132967792Y-99885746D01*
X132967793Y-99885746D01*
X133140000Y-99920000D01*
X133501425Y-99920000D01*
X133559683Y-99978359D01*
X133780129Y-100069896D01*
X134018824Y-100070104D01*
X134239429Y-99978952D01*
X134408359Y-99810317D01*
X134499896Y-99589871D01*
X134500104Y-99351176D01*
X134408952Y-99130571D01*
X134240317Y-98961641D01*
X134088909Y-98898771D01*
X134149965Y-98808320D01*
X134172260Y-98697146D01*
X134172260Y-98750053D01*
X134217932Y-98860316D01*
X134302323Y-98944708D01*
X134412586Y-98990380D01*
X134622050Y-98990380D01*
X134697050Y-98915380D01*
X134697050Y-98440190D01*
X134551840Y-98440190D01*
X134551840Y-97939810D01*
X134697050Y-97939810D01*
X134697050Y-97493812D01*
X134697050Y-97493811D01*
X134730000Y-97328160D01*
X134730000Y-91270000D01*
X134695747Y-91097793D01*
X134695746Y-91097792D01*
X134598198Y-90951802D01*
X134250032Y-90603636D01*
X134250104Y-90521176D01*
X134158952Y-90300571D01*
X134038503Y-90179912D01*
X134258824Y-90180104D01*
X134479429Y-90088952D01*
X134648359Y-89920317D01*
X134739896Y-89699871D01*
X134740104Y-89461176D01*
X134648952Y-89240571D01*
X134480317Y-89071641D01*
X134259871Y-88980104D01*
X134110000Y-88979973D01*
X134110000Y-87493509D01*
X134110000Y-86946491D01*
X134037686Y-86582942D01*
X133831751Y-86274740D01*
X133523549Y-86068805D01*
X133160000Y-85996491D01*
X132796451Y-86068805D01*
X132488249Y-86274740D01*
X132282314Y-86582942D01*
X132210000Y-86946491D01*
X132210000Y-87493509D01*
X132282314Y-87857058D01*
X132488249Y-88165260D01*
X132796451Y-88371195D01*
X133160000Y-88443509D01*
X133523549Y-88371195D01*
X133831751Y-88165260D01*
X134037686Y-87857058D01*
X134110000Y-87493509D01*
X134110000Y-88979973D01*
X134021176Y-88979896D01*
X133800571Y-89071048D01*
X133751533Y-89120000D01*
X130604298Y-89120000D01*
X130604298Y-87714473D01*
X130604298Y-86725527D01*
X130441907Y-86398077D01*
X130166567Y-86157697D01*
X130160644Y-86139153D01*
X130025000Y-86157596D01*
X130025000Y-86870000D01*
X130556409Y-86870000D01*
X130604298Y-86725527D01*
X130604298Y-87714473D01*
X130556409Y-87570000D01*
X130025000Y-87570000D01*
X130025000Y-88282404D01*
X130160644Y-88300847D01*
X130166567Y-88282303D01*
X130441907Y-88041923D01*
X130604298Y-87714473D01*
X130604298Y-89120000D01*
X129375000Y-89120000D01*
X129375000Y-88282404D01*
X129375000Y-87570000D01*
X129330000Y-87570000D01*
X129330000Y-86870000D01*
X129375000Y-86870000D01*
X129375000Y-86157596D01*
X129239356Y-86139153D01*
X129233433Y-86157697D01*
X128958093Y-86398077D01*
X128939378Y-86435814D01*
X128831751Y-86274740D01*
X128523549Y-86068805D01*
X128160000Y-85996491D01*
X127796451Y-86068805D01*
X127488249Y-86274740D01*
X127282314Y-86582942D01*
X127210000Y-86946491D01*
X127210000Y-87493509D01*
X127282314Y-87857058D01*
X127488249Y-88165260D01*
X127796451Y-88371195D01*
X128160000Y-88443509D01*
X128523549Y-88371195D01*
X128831751Y-88165260D01*
X128939378Y-88004185D01*
X128958093Y-88041923D01*
X129233433Y-88282303D01*
X129239356Y-88300847D01*
X129375000Y-88282404D01*
X129375000Y-89120000D01*
X127938574Y-89120000D01*
X127880317Y-89061641D01*
X127659871Y-88970104D01*
X127421176Y-88969896D01*
X127351962Y-88998494D01*
X127332408Y-88951284D01*
X127248017Y-88866892D01*
X127137754Y-88821220D01*
X126953690Y-88821220D01*
X126878690Y-88896220D01*
X126878690Y-89320610D01*
X126993884Y-89320610D01*
X126940104Y-89450129D01*
X126939896Y-89688824D01*
X126952525Y-89719390D01*
X126878690Y-89719390D01*
X126878690Y-90143780D01*
X126953690Y-90218780D01*
X127137754Y-90218780D01*
X127248017Y-90173108D01*
X127300784Y-90120339D01*
X127420129Y-90169896D01*
X127658824Y-90170104D01*
X127879429Y-90078952D01*
X127938484Y-90020000D01*
X133731443Y-90020000D01*
X133751496Y-90040087D01*
X133531176Y-90039896D01*
X133310571Y-90131048D01*
X133141641Y-90299683D01*
X133050104Y-90520129D01*
X133049896Y-90758824D01*
X133141048Y-90979429D01*
X133271479Y-91110088D01*
X133261550Y-91120000D01*
X127948574Y-91120000D01*
X127890317Y-91061641D01*
X127669871Y-90970104D01*
X127431176Y-90969896D01*
X127335740Y-91009329D01*
X127332408Y-91001284D01*
X127248017Y-90916892D01*
X127137754Y-90871220D01*
X126953690Y-90871220D01*
X126878690Y-90946220D01*
X126878690Y-91370610D01*
X126983123Y-91370610D01*
X126950104Y-91450129D01*
X126949896Y-91688824D01*
X126983185Y-91769390D01*
X126878690Y-91769390D01*
X126878690Y-92193780D01*
X126953690Y-92268780D01*
X127137754Y-92268780D01*
X127248017Y-92223108D01*
X127332408Y-92138716D01*
X127335729Y-92130697D01*
X127430129Y-92169896D01*
X127668824Y-92170104D01*
X127889429Y-92078952D01*
X127948484Y-92020000D01*
X131063604Y-92020000D01*
X130851802Y-92231802D01*
X130283636Y-92799967D01*
X130201176Y-92799896D01*
X129993273Y-92885799D01*
X129962408Y-92811284D01*
X129878017Y-92726892D01*
X129767754Y-92681220D01*
X129583690Y-92681220D01*
X129508690Y-92756220D01*
X129508690Y-93180610D01*
X129679300Y-93180610D01*
X129679300Y-93579390D01*
X129508690Y-93579390D01*
X129508690Y-94003780D01*
X129549910Y-94045000D01*
X129498690Y-94096220D01*
X129498690Y-94520610D01*
X129923080Y-94520610D01*
X129998080Y-94445610D01*
X129998080Y-94380894D01*
X129998080Y-94261547D01*
X129952408Y-94151284D01*
X129868017Y-94066892D01*
X129832235Y-94052071D01*
X129878017Y-94033108D01*
X129962408Y-93948716D01*
X129979288Y-93907963D01*
X129979683Y-93908359D01*
X130200129Y-93999896D01*
X130438824Y-94000104D01*
X130659429Y-93908952D01*
X130828359Y-93740317D01*
X130919896Y-93519871D01*
X130919968Y-93436427D01*
X131488198Y-92868198D01*
X131816396Y-92540000D01*
X131862442Y-92540000D01*
X131800104Y-92690129D01*
X131799896Y-92928824D01*
X131891048Y-93149429D01*
X132059683Y-93318359D01*
X132280129Y-93409896D01*
X132363572Y-93409968D01*
X133379998Y-94426394D01*
X133379998Y-96920000D01*
X132840000Y-96920000D01*
X132667792Y-96954254D01*
X132521802Y-97051802D01*
X132321802Y-97251802D01*
X132224254Y-97397792D01*
X132190000Y-97570000D01*
X132190000Y-98803604D01*
X132048198Y-98661802D01*
X131902208Y-98564254D01*
X131730000Y-98530000D01*
X129998080Y-98530000D01*
X129998080Y-95178453D01*
X129998080Y-95059106D01*
X129998080Y-94994390D01*
X129923080Y-94919390D01*
X129498690Y-94919390D01*
X129498690Y-95343780D01*
X129514910Y-95360000D01*
X129488690Y-95386220D01*
X129488690Y-95810610D01*
X129913080Y-95810610D01*
X129988080Y-95735610D01*
X129988080Y-95670894D01*
X129988080Y-95551547D01*
X129942408Y-95441284D01*
X129871124Y-95370000D01*
X129952408Y-95288716D01*
X129998080Y-95178453D01*
X129998080Y-98530000D01*
X129988080Y-98530000D01*
X129988080Y-97798453D01*
X129988080Y-97679106D01*
X129988080Y-97614390D01*
X129988080Y-97065610D01*
X129988080Y-97000894D01*
X129988080Y-96881547D01*
X129942408Y-96771284D01*
X129858017Y-96686892D01*
X129829306Y-96675000D01*
X129858017Y-96663108D01*
X129942408Y-96578716D01*
X129988080Y-96468453D01*
X129988080Y-96349106D01*
X129988080Y-96284390D01*
X129913080Y-96209390D01*
X129488690Y-96209390D01*
X129488690Y-96633780D01*
X129529910Y-96675000D01*
X129488690Y-96716220D01*
X129488690Y-97140610D01*
X129913080Y-97140610D01*
X129988080Y-97065610D01*
X129988080Y-97614390D01*
X129913080Y-97539390D01*
X129488690Y-97539390D01*
X129488690Y-97963780D01*
X129563690Y-98038780D01*
X129747754Y-98038780D01*
X129858017Y-97993108D01*
X129942408Y-97908716D01*
X129988080Y-97798453D01*
X129988080Y-98530000D01*
X129120775Y-98530000D01*
X129149896Y-98459871D01*
X129150104Y-98221176D01*
X129109910Y-98123898D01*
X129109910Y-94003780D01*
X129109910Y-93579390D01*
X129109910Y-93180610D01*
X129109910Y-92756220D01*
X129034910Y-92681220D01*
X128850846Y-92681220D01*
X128740583Y-92726892D01*
X128656192Y-92811284D01*
X128610520Y-92921547D01*
X128610520Y-93040894D01*
X128610520Y-93105610D01*
X128685520Y-93180610D01*
X129109910Y-93180610D01*
X129109910Y-93579390D01*
X128685520Y-93579390D01*
X128610520Y-93654390D01*
X128610520Y-93719106D01*
X128610520Y-93838453D01*
X128656192Y-93948716D01*
X128740583Y-94033108D01*
X128776364Y-94047928D01*
X128730583Y-94066892D01*
X128646192Y-94151284D01*
X128600520Y-94261547D01*
X128600520Y-94380894D01*
X128600520Y-94445610D01*
X128675520Y-94520610D01*
X129099910Y-94520610D01*
X129099910Y-94096220D01*
X129058690Y-94055000D01*
X129109910Y-94003780D01*
X129109910Y-98123898D01*
X129099910Y-98099697D01*
X129099910Y-95343780D01*
X129099910Y-94919390D01*
X128675520Y-94919390D01*
X128600520Y-94994390D01*
X128600520Y-95059106D01*
X128600520Y-95178453D01*
X128646192Y-95288716D01*
X128717475Y-95359999D01*
X128636192Y-95441284D01*
X128590520Y-95551547D01*
X128590520Y-95670894D01*
X128590520Y-95735610D01*
X128665520Y-95810610D01*
X129089910Y-95810610D01*
X129089910Y-95386220D01*
X129073690Y-95370000D01*
X129099910Y-95343780D01*
X129099910Y-98099697D01*
X129058952Y-98000571D01*
X129056038Y-97997651D01*
X129089910Y-97963780D01*
X129089910Y-97539390D01*
X129089910Y-97140610D01*
X129089910Y-96716220D01*
X129048690Y-96675000D01*
X129089910Y-96633780D01*
X129089910Y-96209390D01*
X128665520Y-96209390D01*
X128590520Y-96284390D01*
X128590520Y-96349106D01*
X128590520Y-96468453D01*
X128636192Y-96578716D01*
X128720583Y-96663108D01*
X128749293Y-96675000D01*
X128720583Y-96686892D01*
X128636192Y-96771284D01*
X128590520Y-96881547D01*
X128590520Y-97000894D01*
X128590520Y-97065610D01*
X128665520Y-97140610D01*
X129089910Y-97140610D01*
X129089910Y-97539390D01*
X128665520Y-97539390D01*
X128590520Y-97614390D01*
X128590520Y-97679106D01*
X128590520Y-97740034D01*
X128495122Y-97739951D01*
X128495357Y-97738780D01*
X128495357Y-96941220D01*
X128473163Y-96826831D01*
X128407121Y-96726294D01*
X128330796Y-96674774D01*
X128404406Y-96626421D01*
X128471705Y-96526720D01*
X128495357Y-96408780D01*
X128495357Y-95611220D01*
X128473163Y-95496831D01*
X128407121Y-95396294D01*
X128365760Y-95368375D01*
X128414406Y-95336421D01*
X128481705Y-95236720D01*
X128505357Y-95118780D01*
X128505357Y-94321220D01*
X128483163Y-94206831D01*
X128417121Y-94106294D01*
X128338220Y-94053035D01*
X128424406Y-93996421D01*
X128491705Y-93896720D01*
X128515357Y-93778780D01*
X128515357Y-92981220D01*
X128493163Y-92866831D01*
X128427121Y-92766294D01*
X128327420Y-92698995D01*
X128209480Y-92675343D01*
X127411920Y-92675343D01*
X127297531Y-92697537D01*
X127196994Y-92763579D01*
X127145126Y-92840419D01*
X126999871Y-92780104D01*
X126761176Y-92779896D01*
X126540571Y-92871048D01*
X126479910Y-92931603D01*
X126479910Y-92193780D01*
X126479910Y-91769390D01*
X126479910Y-91370610D01*
X126479910Y-90946220D01*
X126479910Y-90143780D01*
X126479910Y-89719390D01*
X126479910Y-89320610D01*
X126479910Y-88896220D01*
X126404910Y-88821220D01*
X126220846Y-88821220D01*
X126110583Y-88866892D01*
X126026192Y-88951284D01*
X125980520Y-89061547D01*
X125980520Y-89180894D01*
X125980520Y-89245610D01*
X126055520Y-89320610D01*
X126479910Y-89320610D01*
X126479910Y-89719390D01*
X126055520Y-89719390D01*
X125980520Y-89794390D01*
X125980520Y-89859106D01*
X125980520Y-89978453D01*
X126026192Y-90088716D01*
X126110583Y-90173108D01*
X126220846Y-90218780D01*
X126404910Y-90218780D01*
X126479910Y-90143780D01*
X126479910Y-90946220D01*
X126404910Y-90871220D01*
X126220846Y-90871220D01*
X126110583Y-90916892D01*
X126026192Y-91001284D01*
X125980520Y-91111547D01*
X125980520Y-91230894D01*
X125980520Y-91295610D01*
X126055520Y-91370610D01*
X126479910Y-91370610D01*
X126479910Y-91769390D01*
X126055520Y-91769390D01*
X125980520Y-91844390D01*
X125980520Y-91909106D01*
X125980520Y-92028453D01*
X126026192Y-92138716D01*
X126110583Y-92223108D01*
X126220846Y-92268780D01*
X126404910Y-92268780D01*
X126479910Y-92193780D01*
X126479910Y-92931603D01*
X126371641Y-93039683D01*
X126280104Y-93260129D01*
X126279896Y-93498824D01*
X126371048Y-93719429D01*
X126539683Y-93888359D01*
X126760129Y-93979896D01*
X126998824Y-93980104D01*
X127145525Y-93919488D01*
X127194279Y-93993706D01*
X127273179Y-94046964D01*
X127186994Y-94103579D01*
X127139504Y-94173932D01*
X127009871Y-94120104D01*
X126771176Y-94119896D01*
X126550571Y-94211048D01*
X126381641Y-94379683D01*
X126290104Y-94600129D01*
X126289896Y-94838824D01*
X126381048Y-95059429D01*
X126549683Y-95228359D01*
X126770129Y-95319896D01*
X127008824Y-95320104D01*
X127139795Y-95265987D01*
X127184279Y-95333706D01*
X127225639Y-95361624D01*
X127176994Y-95393579D01*
X127131694Y-95460689D01*
X127009871Y-95410104D01*
X126771176Y-95409896D01*
X126550571Y-95501048D01*
X126381641Y-95669683D01*
X126290104Y-95890129D01*
X126289896Y-96128824D01*
X126381048Y-96349429D01*
X126481444Y-96450001D01*
X126411641Y-96519683D01*
X126320104Y-96740129D01*
X126319896Y-96978824D01*
X126411048Y-97199429D01*
X126579683Y-97368359D01*
X126800129Y-97459896D01*
X127038824Y-97460104D01*
X127086043Y-97440593D01*
X127086043Y-97738780D01*
X127108237Y-97853169D01*
X127132431Y-97890000D01*
X125885357Y-97890000D01*
X125885357Y-91968780D01*
X125885357Y-91171220D01*
X125863163Y-91056831D01*
X125797121Y-90956294D01*
X125697420Y-90888995D01*
X125632629Y-90876001D01*
X125658359Y-90850317D01*
X125749896Y-90629871D01*
X125750104Y-90391176D01*
X125673742Y-90206367D01*
X125693869Y-90202463D01*
X125794406Y-90136421D01*
X125861705Y-90036720D01*
X125885357Y-89918780D01*
X125885357Y-89121220D01*
X125863163Y-89006831D01*
X125797121Y-88906294D01*
X125697420Y-88838995D01*
X125579480Y-88815343D01*
X124781920Y-88815343D01*
X124675877Y-88835917D01*
X124675877Y-88438710D01*
X124700000Y-88443509D01*
X125063549Y-88371195D01*
X125371751Y-88165260D01*
X125577686Y-87857058D01*
X125650000Y-87493509D01*
X125650000Y-86946491D01*
X125577686Y-86582942D01*
X125371751Y-86274740D01*
X125063549Y-86068805D01*
X124700000Y-85996491D01*
X124336451Y-86068805D01*
X124028249Y-86274740D01*
X123822314Y-86582942D01*
X123750000Y-86946491D01*
X123750000Y-87493509D01*
X123822314Y-87857058D01*
X123964011Y-88069123D01*
X123170000Y-88069123D01*
X123055611Y-88091317D01*
X122955074Y-88157359D01*
X122887775Y-88257060D01*
X122864123Y-88375000D01*
X122864123Y-90125000D01*
X122886317Y-90239389D01*
X122952359Y-90339926D01*
X123052060Y-90407225D01*
X123170000Y-90430877D01*
X124370000Y-90430877D01*
X124484389Y-90408683D01*
X124564157Y-90356283D01*
X124550104Y-90390129D01*
X124549896Y-90628824D01*
X124641048Y-90849429D01*
X124677214Y-90885658D01*
X124667531Y-90887537D01*
X124566994Y-90953579D01*
X124499695Y-91053280D01*
X124476043Y-91171220D01*
X124476043Y-91968780D01*
X124498237Y-92083169D01*
X124564279Y-92183706D01*
X124663048Y-92250376D01*
X124580104Y-92450129D01*
X124579896Y-92688824D01*
X124671048Y-92909429D01*
X124839683Y-93078359D01*
X125060129Y-93169896D01*
X125298824Y-93170104D01*
X125519429Y-93078952D01*
X125688359Y-92910317D01*
X125779896Y-92689871D01*
X125780104Y-92451176D01*
X125697116Y-92250329D01*
X125794406Y-92186421D01*
X125861705Y-92086720D01*
X125885357Y-91968780D01*
X125885357Y-97890000D01*
X125368574Y-97890000D01*
X125310317Y-97831641D01*
X125089871Y-97740104D01*
X124851176Y-97739896D01*
X124670000Y-97814756D01*
X124670000Y-96684674D01*
X124670000Y-96175000D01*
X124670000Y-95325000D01*
X124670000Y-94815326D01*
X124624328Y-94705063D01*
X124539936Y-94620672D01*
X124429673Y-94575000D01*
X124310326Y-94575000D01*
X124145000Y-94575000D01*
X124070000Y-94650000D01*
X124070000Y-95400000D01*
X124595000Y-95400000D01*
X124670000Y-95325000D01*
X124670000Y-96175000D01*
X124595000Y-96100000D01*
X124070000Y-96100000D01*
X124070000Y-96850000D01*
X124145000Y-96925000D01*
X124310326Y-96925000D01*
X124429673Y-96925000D01*
X124539936Y-96879328D01*
X124624328Y-96794937D01*
X124670000Y-96684674D01*
X124670000Y-97814756D01*
X124630571Y-97831048D01*
X124461641Y-97999683D01*
X124370104Y-98220129D01*
X124369896Y-98458824D01*
X124399305Y-98530000D01*
X123676396Y-98530000D01*
X123490032Y-98343636D01*
X123490104Y-98261176D01*
X123470000Y-98212520D01*
X123470000Y-96850000D01*
X123470000Y-96100000D01*
X123470000Y-95400000D01*
X123470000Y-94650000D01*
X123395000Y-94575000D01*
X123229674Y-94575000D01*
X123110327Y-94575000D01*
X123000064Y-94620672D01*
X122915672Y-94705063D01*
X122870000Y-94815326D01*
X122870000Y-95325000D01*
X122945000Y-95400000D01*
X123470000Y-95400000D01*
X123470000Y-96100000D01*
X122945000Y-96100000D01*
X122870000Y-96175000D01*
X122870000Y-96684674D01*
X122915672Y-96794937D01*
X123000064Y-96879328D01*
X123110327Y-96925000D01*
X123229674Y-96925000D01*
X123395000Y-96925000D01*
X123470000Y-96850000D01*
X123470000Y-98212520D01*
X123398952Y-98040571D01*
X123230317Y-97871641D01*
X123009871Y-97780104D01*
X122771176Y-97779896D01*
X122550571Y-97871048D01*
X122389876Y-98031462D01*
X122240317Y-97881641D01*
X122019871Y-97790104D01*
X121781176Y-97789896D01*
X121560571Y-97881048D01*
X121391641Y-98049683D01*
X121300104Y-98270129D01*
X121299896Y-98508824D01*
X121391048Y-98729429D01*
X121559683Y-98898359D01*
X121780129Y-98989896D01*
X121863572Y-98989968D01*
X122971804Y-100098200D01*
X123117794Y-100195748D01*
X123117795Y-100195748D01*
X123290002Y-100230002D01*
X126393604Y-100230002D01*
X126630000Y-100466398D01*
X126630000Y-101603953D01*
X125180080Y-101603953D01*
X125065691Y-101626147D01*
X124965154Y-101692189D01*
X124897855Y-101791890D01*
X124874203Y-101909830D01*
X124874203Y-103710690D01*
X124896397Y-103825079D01*
X124962439Y-103925616D01*
X125062140Y-103992915D01*
X125180080Y-104016567D01*
X126360000Y-104016567D01*
X126360000Y-107616967D01*
X126315371Y-107625627D01*
X126214834Y-107691669D01*
X126147535Y-107791370D01*
X126123883Y-107909310D01*
X126123883Y-109640000D01*
X125734877Y-109640000D01*
X125734877Y-107909310D01*
X125712683Y-107794921D01*
X125646641Y-107694384D01*
X125578760Y-107648563D01*
X125578760Y-107356661D01*
X125579104Y-107356147D01*
X125639999Y-107050000D01*
X125579104Y-106743853D01*
X125405685Y-106484315D01*
X125146147Y-106310896D01*
X124840000Y-106250001D01*
X124533853Y-106310896D01*
X124274314Y-106484315D01*
X124213075Y-106545555D01*
X124039656Y-106805093D01*
X124010000Y-106954184D01*
X124010000Y-106426396D01*
X124258198Y-106178198D01*
X124355746Y-106032208D01*
X124355746Y-106032207D01*
X124390000Y-105860000D01*
X124390000Y-104648574D01*
X124448359Y-104590317D01*
X124539896Y-104369871D01*
X124540104Y-104131176D01*
X124448952Y-103910571D01*
X124280317Y-103741641D01*
X124059871Y-103650104D01*
X123821176Y-103649896D01*
X123600571Y-103741048D01*
X123431641Y-103909683D01*
X123340104Y-104130129D01*
X123339896Y-104368824D01*
X123431048Y-104589429D01*
X123490000Y-104648484D01*
X123490000Y-105673604D01*
X123241802Y-105921802D01*
X123144254Y-106067792D01*
X123110000Y-106240000D01*
X123110000Y-109750000D01*
X123144254Y-109922208D01*
X123241802Y-110068198D01*
X123581802Y-110408198D01*
X123727792Y-110505746D01*
X123727793Y-110505747D01*
X123900000Y-110540000D01*
X125306657Y-110540000D01*
X124992062Y-110750206D01*
X124710368Y-111171791D01*
X124709237Y-111177476D01*
X124482049Y-110962572D01*
X124095669Y-110814964D01*
X123930000Y-110875008D01*
X123930000Y-111510000D01*
X123950000Y-111510000D01*
X123950000Y-112210000D01*
X123930000Y-112210000D01*
X123930000Y-112844992D01*
X124095669Y-112905036D01*
X124482049Y-112757428D01*
X124611450Y-112635023D01*
X124611450Y-112996698D01*
X124276025Y-113332123D01*
X123124915Y-113332123D01*
X122570000Y-112777208D01*
X122570000Y-112655313D01*
X122677951Y-112757428D01*
X123064331Y-112905036D01*
X123230000Y-112844992D01*
X123230000Y-112210000D01*
X123210000Y-112210000D01*
X123210000Y-111510000D01*
X123230000Y-111510000D01*
X123230000Y-110875008D01*
X123064331Y-110814964D01*
X122677951Y-110962572D01*
X122570000Y-111064686D01*
X122570000Y-109720000D01*
X122501492Y-109375585D01*
X122501491Y-109375584D01*
X122306396Y-109083604D01*
X121250104Y-108027312D01*
X121250104Y-93351176D01*
X121158952Y-93130571D01*
X120990317Y-92961641D01*
X120769871Y-92870104D01*
X120675877Y-92870022D01*
X120675877Y-90125000D01*
X120675877Y-88375000D01*
X120653683Y-88260611D01*
X120587641Y-88160074D01*
X120487940Y-88092775D01*
X120428190Y-88080792D01*
X120577686Y-87857058D01*
X120650000Y-87493509D01*
X120650000Y-86946491D01*
X120577686Y-86582942D01*
X120371751Y-86274740D01*
X120063549Y-86068805D01*
X119700000Y-85996491D01*
X119336451Y-86068805D01*
X119028249Y-86274740D01*
X118822314Y-86582942D01*
X118750000Y-86946491D01*
X118750000Y-87493509D01*
X118822314Y-87857058D01*
X119002259Y-88126363D01*
X118955074Y-88157359D01*
X118887775Y-88257060D01*
X118864123Y-88375000D01*
X118864123Y-90125000D01*
X118886317Y-90239389D01*
X118952359Y-90339926D01*
X119052060Y-90407225D01*
X119170000Y-90430877D01*
X120370000Y-90430877D01*
X120484389Y-90408683D01*
X120584926Y-90342641D01*
X120652225Y-90242940D01*
X120675877Y-90125000D01*
X120675877Y-92870022D01*
X120531176Y-92869896D01*
X120310571Y-92961048D01*
X120141641Y-93129683D01*
X120050104Y-93350129D01*
X120049896Y-93588824D01*
X120141048Y-93809429D01*
X120200000Y-93868484D01*
X120200000Y-94569123D01*
X119170000Y-94569123D01*
X119055611Y-94591317D01*
X118955074Y-94657359D01*
X118887775Y-94757060D01*
X118864123Y-94875000D01*
X118864123Y-96625000D01*
X118886317Y-96739389D01*
X118952359Y-96839926D01*
X119052060Y-96907225D01*
X119170000Y-96930877D01*
X120370000Y-96930877D01*
X120484389Y-96908683D01*
X120584926Y-96842641D01*
X120652225Y-96742940D01*
X120675877Y-96625000D01*
X120675877Y-95480519D01*
X120968198Y-95188198D01*
X121065746Y-95042208D01*
X121065746Y-95042207D01*
X121100000Y-94870000D01*
X121100000Y-93868574D01*
X121158359Y-93810317D01*
X121249896Y-93589871D01*
X121250104Y-93351176D01*
X121250104Y-108027312D01*
X121147244Y-107924452D01*
X121147244Y-102630000D01*
X121147244Y-100090000D01*
X121066404Y-99683590D01*
X120836191Y-99339053D01*
X120491654Y-99108840D01*
X120085244Y-99028000D01*
X119354756Y-99028000D01*
X118948346Y-99108840D01*
X118603809Y-99339053D01*
X118373596Y-99683590D01*
X118292756Y-100090000D01*
X118373596Y-100496410D01*
X118603809Y-100840947D01*
X118948346Y-101071160D01*
X119354756Y-101152000D01*
X120085244Y-101152000D01*
X120491654Y-101071160D01*
X120836191Y-100840947D01*
X121066404Y-100496410D01*
X121147244Y-100090000D01*
X121147244Y-102630000D01*
X121066404Y-102223590D01*
X120836191Y-101879053D01*
X120491654Y-101648840D01*
X120085244Y-101568000D01*
X119354756Y-101568000D01*
X118948346Y-101648840D01*
X118603809Y-101879053D01*
X118373596Y-102223590D01*
X118292756Y-102630000D01*
X118373596Y-103036410D01*
X118603809Y-103380947D01*
X118948346Y-103611160D01*
X119354756Y-103692000D01*
X120085244Y-103692000D01*
X120491654Y-103611160D01*
X120836191Y-103380947D01*
X121066404Y-103036410D01*
X121147244Y-102630000D01*
X121147244Y-107924452D01*
X120620000Y-107397208D01*
X120620000Y-106237877D01*
X120819820Y-106237877D01*
X120934209Y-106215683D01*
X121034746Y-106149641D01*
X121102045Y-106049940D01*
X121125697Y-105932000D01*
X121125697Y-104408000D01*
X121103503Y-104293611D01*
X121037461Y-104193074D01*
X120937760Y-104125775D01*
X120819820Y-104102123D01*
X118620180Y-104102123D01*
X118505791Y-104124317D01*
X118405254Y-104190359D01*
X118337955Y-104290060D01*
X118314303Y-104408000D01*
X118314303Y-105932000D01*
X118336497Y-106046389D01*
X118402539Y-106146926D01*
X118502240Y-106214225D01*
X118620180Y-106237877D01*
X118820000Y-106237877D01*
X118820000Y-107770000D01*
X118888508Y-108114415D01*
X119083604Y-108406396D01*
X120770000Y-110092792D01*
X120770000Y-110968793D01*
X120580311Y-110802875D01*
X120450384Y-110787931D01*
X120258920Y-110795837D01*
X120258920Y-112620000D01*
X120278920Y-112620000D01*
X120278920Y-113320000D01*
X120258920Y-113320000D01*
X120258920Y-115144163D01*
X120450384Y-115152069D01*
X120580311Y-115137125D01*
X120975553Y-114791411D01*
X121208410Y-114320760D01*
X121208410Y-113961202D01*
X122174303Y-114927095D01*
X122174303Y-115162000D01*
X122196497Y-115276389D01*
X122262539Y-115376926D01*
X122362240Y-115444225D01*
X122480180Y-115467877D01*
X124679820Y-115467877D01*
X124794209Y-115445683D01*
X124894746Y-115379641D01*
X124962045Y-115279940D01*
X124982879Y-115176050D01*
X124992062Y-115189794D01*
X125413647Y-115471488D01*
X125910940Y-115570406D01*
X126408233Y-115471488D01*
X126829818Y-115189794D01*
X127111512Y-114768209D01*
X127173591Y-114456114D01*
X127241802Y-114558198D01*
X127931802Y-115248198D01*
X128077792Y-115345746D01*
X128250000Y-115380000D01*
X129891425Y-115380000D01*
X129949683Y-115438359D01*
X130170129Y-115529896D01*
X130408824Y-115530104D01*
X130629429Y-115438952D01*
X130798359Y-115270317D01*
X130889896Y-115049871D01*
X130890104Y-114811176D01*
X130798952Y-114590571D01*
X130630317Y-114421641D01*
X130409871Y-114330104D01*
X130331480Y-114330035D01*
X130331480Y-109769843D01*
X130331480Y-109650496D01*
X130331480Y-109234740D01*
X130331480Y-108384740D01*
X130331480Y-107968984D01*
X130331480Y-107849637D01*
X130285808Y-107739374D01*
X130201417Y-107654982D01*
X130091154Y-107609310D01*
X129853370Y-107609310D01*
X129853370Y-104145380D01*
X129853370Y-103670190D01*
X129853370Y-103169810D01*
X129853370Y-102694620D01*
X129778370Y-102619620D01*
X129568906Y-102619620D01*
X129458643Y-102665292D01*
X129374252Y-102749684D01*
X129328580Y-102859947D01*
X129328580Y-102979294D01*
X129328580Y-103094810D01*
X129403580Y-103169810D01*
X129853370Y-103169810D01*
X129853370Y-103670190D01*
X129403580Y-103670190D01*
X129328580Y-103745190D01*
X129328580Y-103860706D01*
X129328580Y-103980053D01*
X129374252Y-104090316D01*
X129458643Y-104174708D01*
X129568906Y-104220380D01*
X129778370Y-104220380D01*
X129853370Y-104145380D01*
X129853370Y-107609310D01*
X129781360Y-107609310D01*
X129706360Y-107684310D01*
X129706360Y-108459740D01*
X130256480Y-108459740D01*
X130331480Y-108384740D01*
X130331480Y-109234740D01*
X130256480Y-109159740D01*
X129706360Y-109159740D01*
X129706360Y-109935170D01*
X129781360Y-110010170D01*
X130091154Y-110010170D01*
X130201417Y-109964498D01*
X130285808Y-109880106D01*
X130331480Y-109769843D01*
X130331480Y-114330035D01*
X130171176Y-114329896D01*
X129950571Y-114421048D01*
X129891515Y-114480000D01*
X128436396Y-114480000D01*
X128010000Y-114053604D01*
X128010000Y-112136396D01*
X128349967Y-112476363D01*
X128349896Y-112558824D01*
X128441048Y-112779429D01*
X128609683Y-112948359D01*
X128830129Y-113039896D01*
X129068824Y-113040104D01*
X129289429Y-112948952D01*
X129458359Y-112780317D01*
X129549896Y-112559871D01*
X129550104Y-112321176D01*
X129458952Y-112100571D01*
X129290317Y-111931641D01*
X129069871Y-111840104D01*
X128986427Y-111840031D01*
X128500000Y-111353604D01*
X128500000Y-109903434D01*
X128561063Y-109964498D01*
X128671326Y-110010170D01*
X128981120Y-110010170D01*
X129056120Y-109935170D01*
X129056120Y-109159740D01*
X129011240Y-109159740D01*
X129011240Y-108459740D01*
X129056120Y-108459740D01*
X129056120Y-107684310D01*
X128981120Y-107609310D01*
X128671326Y-107609310D01*
X128561063Y-107654982D01*
X128500000Y-107716045D01*
X128500000Y-104600000D01*
X128465746Y-104427793D01*
X128465746Y-104427792D01*
X128370031Y-104284545D01*
X128370104Y-104201176D01*
X128293825Y-104016567D01*
X128979920Y-104016567D01*
X129094309Y-103994373D01*
X129194846Y-103928331D01*
X129262145Y-103828630D01*
X129285797Y-103710690D01*
X129285797Y-102600000D01*
X129840000Y-102600000D01*
X130012207Y-102565746D01*
X130012208Y-102565746D01*
X130158198Y-102468198D01*
X130192703Y-102433693D01*
X130192703Y-102600380D01*
X130214897Y-102714769D01*
X130280939Y-102815306D01*
X130302950Y-102830163D01*
X130302950Y-103169810D01*
X130448160Y-103169810D01*
X130448160Y-103670190D01*
X130302950Y-103670190D01*
X130302950Y-104145380D01*
X130377950Y-104220380D01*
X130587414Y-104220380D01*
X130697677Y-104174708D01*
X130782068Y-104090316D01*
X130827740Y-103980053D01*
X130827740Y-103927374D01*
X130848577Y-104034769D01*
X130914619Y-104135306D01*
X131014320Y-104202605D01*
X131132260Y-104226257D01*
X132031420Y-104226257D01*
X132145809Y-104204063D01*
X132246346Y-104138021D01*
X132313645Y-104038320D01*
X132337297Y-103920380D01*
X132337297Y-103870000D01*
X132342214Y-103870000D01*
X132390129Y-103889896D01*
X132628824Y-103890104D01*
X132849429Y-103798952D01*
X133018359Y-103630317D01*
X133109896Y-103409871D01*
X133110104Y-103171176D01*
X133018952Y-102950571D01*
X132966580Y-102898107D01*
X133071357Y-102854708D01*
X133090681Y-102835382D01*
X133160640Y-102882605D01*
X133267390Y-102904013D01*
X133221641Y-102949683D01*
X133130104Y-103170129D01*
X133129896Y-103408824D01*
X133221048Y-103629429D01*
X133292043Y-103700549D01*
X133314254Y-103812208D01*
X133411802Y-103958198D01*
X133751802Y-104298198D01*
X133897792Y-104395746D01*
X133897793Y-104395747D01*
X134070000Y-104430000D01*
X135970000Y-104430000D01*
X136040000Y-104416076D01*
X136040000Y-106761565D01*
X135966205Y-106835231D01*
X135964063Y-106824191D01*
X135898021Y-106723654D01*
X135798320Y-106656355D01*
X135680380Y-106632703D01*
X134679620Y-106632703D01*
X134650000Y-106638449D01*
X134650000Y-105588574D01*
X134708359Y-105530317D01*
X134799896Y-105309871D01*
X134800104Y-105071176D01*
X134708952Y-104850571D01*
X134540317Y-104681641D01*
X134319871Y-104590104D01*
X134081176Y-104589896D01*
X133860571Y-104681048D01*
X133691641Y-104849683D01*
X133600104Y-105070129D01*
X133599896Y-105308824D01*
X133691048Y-105529429D01*
X133750000Y-105588484D01*
X133750000Y-109553869D01*
X133630000Y-109530000D01*
X131580000Y-109530000D01*
X131312122Y-109583284D01*
X131085025Y-109735025D01*
X130933284Y-109962122D01*
X130880000Y-110230000D01*
X130933284Y-110497878D01*
X131085025Y-110724975D01*
X131312122Y-110876716D01*
X131580000Y-110930000D01*
X133630000Y-110930000D01*
X133897878Y-110876716D01*
X133910000Y-110868616D01*
X133910000Y-112690000D01*
X133944254Y-112862208D01*
X134041802Y-113008198D01*
X134189962Y-113156358D01*
X134335952Y-113253906D01*
X134335953Y-113253906D01*
X134373743Y-113261423D01*
X134373743Y-113287740D01*
X134395937Y-113402129D01*
X134461979Y-113502666D01*
X134561680Y-113569965D01*
X134672853Y-113592260D01*
X134619947Y-113592260D01*
X134509684Y-113637932D01*
X134425292Y-113722323D01*
X134379620Y-113832586D01*
X134379620Y-114042050D01*
X134454620Y-114117050D01*
X134929810Y-114117050D01*
X134929810Y-113971840D01*
X135430190Y-113971840D01*
X135430190Y-114117050D01*
X135905380Y-114117050D01*
X135980380Y-114042050D01*
X135980380Y-113873610D01*
X135991048Y-113899429D01*
X136159683Y-114068359D01*
X136380129Y-114159896D01*
X136618824Y-114160104D01*
X136839429Y-114068952D01*
X137008359Y-113900317D01*
X137099896Y-113679871D01*
X137100104Y-113441176D01*
X137008952Y-113220571D01*
X136840317Y-113051641D01*
X136619871Y-112960104D01*
X136536427Y-112960031D01*
X136096358Y-112519962D01*
X135986257Y-112446394D01*
X135986257Y-112388580D01*
X135964063Y-112274191D01*
X135937719Y-112234087D01*
X135980380Y-112131094D01*
X135980380Y-111921630D01*
X135905380Y-111846630D01*
X135430190Y-111846630D01*
X135430190Y-111991840D01*
X134929810Y-111991840D01*
X134929810Y-111846630D01*
X134810000Y-111846630D01*
X134810000Y-111397050D01*
X134929810Y-111397050D01*
X134929810Y-111251840D01*
X135430190Y-111251840D01*
X135430190Y-111397050D01*
X135905380Y-111397050D01*
X135980380Y-111322050D01*
X135980380Y-111112586D01*
X135934708Y-111002323D01*
X135850316Y-110917932D01*
X135740053Y-110872260D01*
X135687374Y-110872260D01*
X135794769Y-110851423D01*
X135895306Y-110785381D01*
X135956397Y-110694875D01*
X136069683Y-110808359D01*
X136290129Y-110899896D01*
X136528824Y-110900104D01*
X136749429Y-110808952D01*
X136918359Y-110640317D01*
X137009896Y-110419871D01*
X137010104Y-110181176D01*
X136939375Y-110010000D01*
X137800000Y-110010000D01*
X137972207Y-109975746D01*
X137972208Y-109975746D01*
X138118198Y-109878198D01*
X138626363Y-109370032D01*
X138708824Y-109370104D01*
X138929429Y-109278952D01*
X139098359Y-109110317D01*
X139189896Y-108889871D01*
X139190104Y-108651176D01*
X139098952Y-108430571D01*
X138930317Y-108261641D01*
X138741420Y-108183204D01*
X138741420Y-102660053D01*
X138741420Y-102540706D01*
X138741420Y-102425190D01*
X138741420Y-101774810D01*
X138741420Y-101659294D01*
X138741420Y-101539947D01*
X138695748Y-101429684D01*
X138611357Y-101345292D01*
X138501094Y-101299620D01*
X138291630Y-101299620D01*
X138216630Y-101374620D01*
X138216630Y-101849810D01*
X138666420Y-101849810D01*
X138741420Y-101774810D01*
X138741420Y-102425190D01*
X138666420Y-102350190D01*
X138216630Y-102350190D01*
X138216630Y-102825380D01*
X138291630Y-102900380D01*
X138501094Y-102900380D01*
X138611357Y-102854708D01*
X138695748Y-102770316D01*
X138741420Y-102660053D01*
X138741420Y-108183204D01*
X138709871Y-108170104D01*
X138471176Y-108169896D01*
X138250571Y-108261048D01*
X138081641Y-108429683D01*
X137990104Y-108650129D01*
X137990031Y-108733572D01*
X137613604Y-109110000D01*
X136410000Y-109110000D01*
X136237792Y-109144254D01*
X136091802Y-109241802D01*
X135980380Y-109353224D01*
X135980380Y-109191630D01*
X135905380Y-109116630D01*
X135430190Y-109116630D01*
X135430190Y-109261840D01*
X134929810Y-109261840D01*
X134929810Y-109116630D01*
X134810000Y-109116630D01*
X134810000Y-108667050D01*
X134929810Y-108667050D01*
X134929810Y-108521840D01*
X135430190Y-108521840D01*
X135430190Y-108667050D01*
X135905380Y-108667050D01*
X135980380Y-108592050D01*
X135980380Y-108382586D01*
X135934708Y-108272323D01*
X135850316Y-108187932D01*
X135740053Y-108142260D01*
X135687374Y-108142260D01*
X135794769Y-108121423D01*
X135895306Y-108055381D01*
X135962605Y-107955680D01*
X135986172Y-107838160D01*
X136261840Y-107838160D01*
X136278139Y-107834917D01*
X136278140Y-107834917D01*
X136290129Y-107839896D01*
X136528824Y-107840104D01*
X136749429Y-107748952D01*
X136918359Y-107580317D01*
X137009896Y-107359871D01*
X137010104Y-107121176D01*
X136940000Y-106951511D01*
X136940000Y-104446396D01*
X137558198Y-103828198D01*
X137655746Y-103682208D01*
X137655746Y-103682207D01*
X137690000Y-103510000D01*
X137690000Y-102900380D01*
X137692050Y-102900380D01*
X137767050Y-102825380D01*
X137767050Y-102350190D01*
X137690000Y-102350190D01*
X137690000Y-101849810D01*
X137767050Y-101849810D01*
X137767050Y-101374620D01*
X137692050Y-101299620D01*
X137690000Y-101299620D01*
X137690000Y-99030807D01*
X137695746Y-99022208D01*
X137695747Y-99022207D01*
X137730000Y-98850000D01*
X137730000Y-98798574D01*
X137788359Y-98740317D01*
X137813168Y-98680568D01*
X137980129Y-98749896D01*
X138063572Y-98749968D01*
X139530000Y-100216396D01*
X139530000Y-102020000D01*
X139564254Y-102192208D01*
X139661802Y-102338198D01*
X139899962Y-102576358D01*
X140013743Y-102652384D01*
X140013743Y-102707740D01*
X140035937Y-102822129D01*
X140101979Y-102922666D01*
X140201680Y-102989965D01*
X140312853Y-103012260D01*
X140259947Y-103012260D01*
X140149684Y-103057932D01*
X140065292Y-103142323D01*
X140019620Y-103252586D01*
X140019620Y-103462050D01*
X140094620Y-103537050D01*
X140569810Y-103537050D01*
X140569810Y-103391840D01*
X141070190Y-103391840D01*
X141070190Y-103537050D01*
X141545380Y-103537050D01*
X141620380Y-103462050D01*
X141620380Y-103252586D01*
X141574708Y-103142323D01*
X141490316Y-103057932D01*
X141380053Y-103012260D01*
X141327374Y-103012260D01*
X141434769Y-102991423D01*
X141535306Y-102925381D01*
X141602605Y-102825680D01*
X141626257Y-102707740D01*
X141626257Y-102707281D01*
X141638139Y-102704917D01*
X141638140Y-102704917D01*
X141650129Y-102709896D01*
X141888824Y-102710104D01*
X142109429Y-102618952D01*
X142278359Y-102450317D01*
X142369896Y-102229871D01*
X142370104Y-101991176D01*
X142278952Y-101770571D01*
X142110317Y-101601641D01*
X141889871Y-101510104D01*
X141651176Y-101509896D01*
X141620380Y-101522620D01*
X141620380Y-100971094D01*
X141620380Y-100761630D01*
X141545380Y-100686630D01*
X141070190Y-100686630D01*
X141070190Y-101136420D01*
X141145190Y-101211420D01*
X141260706Y-101211420D01*
X141380053Y-101211420D01*
X141490316Y-101165748D01*
X141574708Y-101081357D01*
X141620380Y-100971094D01*
X141620380Y-101522620D01*
X141504016Y-101570700D01*
X141438320Y-101526355D01*
X141320380Y-101502703D01*
X140430000Y-101502703D01*
X140430000Y-101211420D01*
X140494810Y-101211420D01*
X140569810Y-101136420D01*
X140569810Y-100686630D01*
X140450000Y-100686630D01*
X140450000Y-100237050D01*
X140569810Y-100237050D01*
X140569810Y-100091840D01*
X141070190Y-100091840D01*
X141070190Y-100237050D01*
X141545380Y-100237050D01*
X141620380Y-100162050D01*
X141620380Y-99952586D01*
X141574708Y-99842323D01*
X141490316Y-99757932D01*
X141380053Y-99712260D01*
X141327374Y-99712260D01*
X141434769Y-99691423D01*
X141535306Y-99625381D01*
X141579426Y-99560017D01*
X141678824Y-99560104D01*
X141899429Y-99468952D01*
X142068359Y-99300317D01*
X142159896Y-99079871D01*
X142159939Y-99030000D01*
X143890000Y-99030000D01*
X144062207Y-98995746D01*
X144062208Y-98995746D01*
X144208198Y-98898198D01*
X144630139Y-98476257D01*
X145081420Y-98476257D01*
X145195809Y-98454063D01*
X145296346Y-98388021D01*
X145363645Y-98288320D01*
X145387297Y-98170380D01*
X145387297Y-107827540D01*
X145131714Y-107933145D01*
X144624924Y-108439051D01*
X144350313Y-109100387D01*
X144349688Y-109816471D01*
X144623145Y-110478286D01*
X145129051Y-110985076D01*
X145790387Y-111259687D01*
X146506471Y-111260312D01*
X147168286Y-110986855D01*
X147675076Y-110480949D01*
X147949687Y-109819613D01*
X147950312Y-109103529D01*
X147950312Y-118843529D01*
X147676855Y-118181714D01*
X147170949Y-117674924D01*
X146509613Y-117400313D01*
X145793529Y-117399688D01*
X145131714Y-117673145D01*
X144624924Y-118179051D01*
X144350313Y-118840387D01*
X144349688Y-119556471D01*
X144623145Y-120218286D01*
X145129051Y-120725076D01*
X145790387Y-120999687D01*
X146506471Y-121000312D01*
X147168286Y-120726855D01*
X147675076Y-120220949D01*
X147949687Y-119559613D01*
X147950312Y-118843529D01*
X147950312Y-121160000D01*
X144079999Y-121160000D01*
X144079999Y-107660000D01*
X144019104Y-107353853D01*
X143845685Y-107094315D01*
X143586147Y-106920896D01*
X143280000Y-106860001D01*
X142973853Y-106920896D01*
X142714315Y-107094315D01*
X141620380Y-108188250D01*
X141620380Y-104271094D01*
X141620380Y-104061630D01*
X141545380Y-103986630D01*
X141070190Y-103986630D01*
X141070190Y-104436420D01*
X141145190Y-104511420D01*
X141260706Y-104511420D01*
X141380053Y-104511420D01*
X141490316Y-104465748D01*
X141574708Y-104381357D01*
X141620380Y-104271094D01*
X141620380Y-108188250D01*
X140654315Y-109154315D01*
X140569810Y-109280784D01*
X140569810Y-104436420D01*
X140569810Y-103986630D01*
X140094620Y-103986630D01*
X140019620Y-104061630D01*
X140019620Y-104271094D01*
X140065292Y-104381357D01*
X140149684Y-104465748D01*
X140259947Y-104511420D01*
X140379294Y-104511420D01*
X140494810Y-104511420D01*
X140569810Y-104436420D01*
X140569810Y-109280784D01*
X140480896Y-109413853D01*
X140420000Y-109720000D01*
X140420000Y-112970000D01*
X140480896Y-113276147D01*
X140654315Y-113535685D01*
X140913853Y-113709104D01*
X141220000Y-113770000D01*
X141526147Y-113709104D01*
X141785685Y-113535685D01*
X141959104Y-113276147D01*
X142020000Y-112970000D01*
X142020000Y-110051370D01*
X143845685Y-108225685D01*
X144019104Y-107966147D01*
X144079999Y-107660000D01*
X144079999Y-121160000D01*
X135980380Y-121160000D01*
X135980380Y-114851094D01*
X135980380Y-114641630D01*
X135905380Y-114566630D01*
X135430190Y-114566630D01*
X135430190Y-115016420D01*
X135505190Y-115091420D01*
X135620706Y-115091420D01*
X135740053Y-115091420D01*
X135850316Y-115045748D01*
X135934708Y-114961357D01*
X135980380Y-114851094D01*
X135980380Y-121160000D01*
X135300312Y-121160000D01*
X135300312Y-118843529D01*
X135026855Y-118181714D01*
X134929810Y-118084499D01*
X134929810Y-115016420D01*
X134929810Y-114566630D01*
X134454620Y-114566630D01*
X134379620Y-114641630D01*
X134379620Y-114851094D01*
X134425292Y-114961357D01*
X134509684Y-115045748D01*
X134619947Y-115091420D01*
X134739294Y-115091420D01*
X134854810Y-115091420D01*
X134929810Y-115016420D01*
X134929810Y-118084499D01*
X134520949Y-117674924D01*
X133859613Y-117400313D01*
X133350000Y-117399868D01*
X133350000Y-113220000D01*
X133350000Y-112700000D01*
X133296716Y-112432122D01*
X133144975Y-112205025D01*
X132917878Y-112053284D01*
X132650000Y-112000000D01*
X132382122Y-112053284D01*
X132155025Y-112205025D01*
X132003284Y-112432122D01*
X131950000Y-112700000D01*
X131950000Y-112930050D01*
X131690050Y-113190000D01*
X131420000Y-113190000D01*
X131152122Y-113243284D01*
X130925025Y-113395025D01*
X130773284Y-113622122D01*
X130720000Y-113890000D01*
X130773284Y-114157878D01*
X130925025Y-114384975D01*
X131152122Y-114536716D01*
X131420000Y-114590000D01*
X131980000Y-114590000D01*
X132247878Y-114536716D01*
X132247879Y-114536716D01*
X132474975Y-114384975D01*
X133144975Y-113714975D01*
X133296716Y-113487879D01*
X133296716Y-113487878D01*
X133350000Y-113220000D01*
X133350000Y-117399868D01*
X133143529Y-117399688D01*
X132481714Y-117673145D01*
X131974924Y-118179051D01*
X131700313Y-118840387D01*
X131699688Y-119556471D01*
X131973145Y-120218286D01*
X132479051Y-120725076D01*
X133140387Y-120999687D01*
X133856471Y-121000312D01*
X134518286Y-120726855D01*
X135025076Y-120220949D01*
X135299687Y-119559613D01*
X135300312Y-118843529D01*
X135300312Y-121160000D01*
X125342189Y-121160000D01*
X125342189Y-118812444D01*
X125342189Y-117729516D01*
X125327245Y-117599589D01*
X124981531Y-117204347D01*
X124510880Y-116971490D01*
X123510120Y-116971490D01*
X123510120Y-117920980D01*
X125334283Y-117920980D01*
X125342189Y-117729516D01*
X125342189Y-118812444D01*
X125334283Y-118620980D01*
X123510120Y-118620980D01*
X123510120Y-119570470D01*
X124510880Y-119570470D01*
X124981531Y-119337613D01*
X125327245Y-118942371D01*
X125342189Y-118812444D01*
X125342189Y-121160000D01*
X122810120Y-121160000D01*
X122810120Y-119570470D01*
X122810120Y-118620980D01*
X122810120Y-117920980D01*
X122810120Y-116971490D01*
X121809360Y-116971490D01*
X121338709Y-117204347D01*
X120992995Y-117599589D01*
X120978051Y-117729516D01*
X120985957Y-117920980D01*
X122810120Y-117920980D01*
X122810120Y-118620980D01*
X120985957Y-118620980D01*
X120978051Y-118812444D01*
X120992995Y-118942371D01*
X121338709Y-119337613D01*
X121809360Y-119570470D01*
X122810120Y-119570470D01*
X122810120Y-121160000D01*
X119558920Y-121160000D01*
X119558920Y-115144163D01*
X119558920Y-113320000D01*
X119558920Y-112620000D01*
X119558920Y-110795837D01*
X119367456Y-110787931D01*
X119237529Y-110802875D01*
X118842287Y-111148589D01*
X118609430Y-111619240D01*
X118609430Y-112620000D01*
X119558920Y-112620000D01*
X119558920Y-113320000D01*
X118609430Y-113320000D01*
X118609430Y-114320760D01*
X118842287Y-114791411D01*
X119237529Y-115137125D01*
X119367456Y-115152069D01*
X119558920Y-115144163D01*
X119558920Y-121160000D01*
X118250000Y-121160000D01*
X118250000Y-85880000D01*
X148470000Y-85880000D01*
X148470000Y-121160000D01*
X148470000Y-121160000D01*
G37*
X148470000Y-121160000D02*
X147950312Y-121160000D01*
X147950312Y-118843529D01*
X147950312Y-109103529D01*
X147676855Y-108441714D01*
X147444298Y-108208750D01*
X147444298Y-87714473D01*
X147444298Y-86725527D01*
X147281907Y-86398077D01*
X147006567Y-86157697D01*
X147000644Y-86139153D01*
X146865000Y-86157596D01*
X146865000Y-86870000D01*
X147396409Y-86870000D01*
X147444298Y-86725527D01*
X147444298Y-87714473D01*
X147396409Y-87570000D01*
X146865000Y-87570000D01*
X146865000Y-87590000D01*
X146215000Y-87590000D01*
X146215000Y-87570000D01*
X146215000Y-86870000D01*
X146215000Y-86157596D01*
X146079356Y-86139153D01*
X146073433Y-86157697D01*
X145798093Y-86398077D01*
X145635702Y-86725527D01*
X145683591Y-86870000D01*
X146215000Y-86870000D01*
X146215000Y-87570000D01*
X145683591Y-87570000D01*
X145635702Y-87714473D01*
X145798093Y-88041923D01*
X146023973Y-88239123D01*
X145890000Y-88239123D01*
X145775611Y-88261317D01*
X145675074Y-88327359D01*
X145607775Y-88427060D01*
X145584123Y-88545000D01*
X145584123Y-90295000D01*
X145606317Y-90409389D01*
X145672359Y-90509926D01*
X145772060Y-90577225D01*
X145890000Y-90600877D01*
X147090000Y-90600877D01*
X147204389Y-90578683D01*
X147304926Y-90512641D01*
X147372225Y-90412940D01*
X147395877Y-90295000D01*
X147395877Y-88545000D01*
X147373683Y-88430611D01*
X147307641Y-88330074D01*
X147207940Y-88262775D01*
X147090000Y-88239123D01*
X147056026Y-88239123D01*
X147281907Y-88041923D01*
X147444298Y-87714473D01*
X147444298Y-108208750D01*
X147390000Y-108154357D01*
X147390000Y-96854674D01*
X147390000Y-96345000D01*
X147390000Y-95495000D01*
X147390000Y-94985326D01*
X147344328Y-94875063D01*
X147259936Y-94790672D01*
X147149673Y-94745000D01*
X147030326Y-94745000D01*
X146865000Y-94745000D01*
X146790000Y-94820000D01*
X146790000Y-95570000D01*
X147315000Y-95570000D01*
X147390000Y-95495000D01*
X147390000Y-96345000D01*
X147315000Y-96270000D01*
X146790000Y-96270000D01*
X146790000Y-97020000D01*
X146865000Y-97095000D01*
X147030326Y-97095000D01*
X147149673Y-97095000D01*
X147259936Y-97049328D01*
X147344328Y-96964937D01*
X147390000Y-96854674D01*
X147390000Y-108154357D01*
X147170949Y-107934924D01*
X146509613Y-107660313D01*
X146190000Y-107660034D01*
X146190000Y-97020000D01*
X146190000Y-96270000D01*
X146190000Y-95570000D01*
X146190000Y-94820000D01*
X146115000Y-94745000D01*
X145949674Y-94745000D01*
X145830327Y-94745000D01*
X145720064Y-94790672D01*
X145635672Y-94875063D01*
X145590000Y-94985326D01*
X145590000Y-95495000D01*
X145665000Y-95570000D01*
X146190000Y-95570000D01*
X146190000Y-96270000D01*
X145665000Y-96270000D01*
X145590000Y-96345000D01*
X145590000Y-96854674D01*
X145635672Y-96964937D01*
X145720064Y-97049328D01*
X145830327Y-97095000D01*
X145949674Y-97095000D01*
X146115000Y-97095000D01*
X146190000Y-97020000D01*
X146190000Y-107660034D01*
X145793529Y-107659688D01*
X145387297Y-107827540D01*
X145387297Y-98170380D01*
X145387297Y-97169620D01*
X145365103Y-97055231D01*
X145299061Y-96954694D01*
X145199360Y-96887395D01*
X145081420Y-96863743D01*
X144182260Y-96863743D01*
X144067871Y-96885937D01*
X143967334Y-96951979D01*
X143900035Y-97051680D01*
X143877740Y-97162853D01*
X143877740Y-97109947D01*
X143832068Y-96999684D01*
X143747677Y-96915292D01*
X143637414Y-96869620D01*
X143478162Y-96869620D01*
X143427950Y-96869620D01*
X143380912Y-96869620D01*
X143395877Y-96795000D01*
X143395877Y-95045000D01*
X143373683Y-94930611D01*
X143307641Y-94830074D01*
X143250000Y-94791165D01*
X143250000Y-94418574D01*
X143308359Y-94360317D01*
X143399896Y-94139871D01*
X143400104Y-93901176D01*
X143378958Y-93850000D01*
X143683604Y-93850000D01*
X144100000Y-94266396D01*
X144100000Y-94751425D01*
X144041641Y-94809683D01*
X143950104Y-95030129D01*
X143949896Y-95268824D01*
X144041048Y-95489429D01*
X144209683Y-95658359D01*
X144430129Y-95749896D01*
X144668824Y-95750104D01*
X144889429Y-95658952D01*
X145058359Y-95490317D01*
X145149896Y-95269871D01*
X145150104Y-95031176D01*
X145058952Y-94810571D01*
X145000000Y-94751515D01*
X145000000Y-94080000D01*
X144965746Y-93907792D01*
X144868198Y-93761802D01*
X144188198Y-93081802D01*
X144042208Y-92984254D01*
X144036983Y-92983214D01*
X144079896Y-92879871D01*
X144080104Y-92641176D01*
X143988952Y-92420571D01*
X143820317Y-92251641D01*
X143599871Y-92160104D01*
X143361176Y-92159896D01*
X143140571Y-92251048D01*
X143081515Y-92310000D01*
X138130000Y-92310000D01*
X137957792Y-92344254D01*
X137811802Y-92441802D01*
X137714254Y-92587792D01*
X137680000Y-92760000D01*
X137680000Y-95905713D01*
X137648952Y-95830571D01*
X137580000Y-95761498D01*
X137580000Y-92558574D01*
X137638359Y-92500317D01*
X137729896Y-92279871D01*
X137730104Y-92041176D01*
X137638952Y-91820571D01*
X137470317Y-91651641D01*
X137249871Y-91560104D01*
X137011176Y-91559896D01*
X136960000Y-91581041D01*
X136960000Y-91188574D01*
X137018359Y-91130317D01*
X137109896Y-90909871D01*
X137110104Y-90671176D01*
X137047639Y-90520000D01*
X138881425Y-90520000D01*
X138939683Y-90578359D01*
X139160129Y-90669896D01*
X139398824Y-90670104D01*
X139619429Y-90578952D01*
X139788359Y-90410317D01*
X139879896Y-90189871D01*
X139880104Y-89951176D01*
X139788952Y-89730571D01*
X139768416Y-89710000D01*
X141460000Y-89710000D01*
X141584123Y-89685310D01*
X141584123Y-90295000D01*
X141606317Y-90409389D01*
X141672359Y-90509926D01*
X141772060Y-90577225D01*
X141890000Y-90600877D01*
X143090000Y-90600877D01*
X143204389Y-90578683D01*
X143304926Y-90512641D01*
X143372225Y-90412940D01*
X143395877Y-90295000D01*
X143395877Y-88545000D01*
X143373683Y-88430611D01*
X143307641Y-88330074D01*
X143207940Y-88262775D01*
X143090000Y-88239123D01*
X142101207Y-88239123D01*
X142211751Y-88165260D01*
X142417686Y-87857058D01*
X142490000Y-87493509D01*
X142490000Y-86946491D01*
X142417686Y-86582942D01*
X142211751Y-86274740D01*
X141903549Y-86068805D01*
X141540000Y-85996491D01*
X141176451Y-86068805D01*
X140868249Y-86274740D01*
X140662314Y-86582942D01*
X140590000Y-86946491D01*
X140590000Y-87493509D01*
X140662314Y-87857058D01*
X140868249Y-88165260D01*
X141010000Y-88259975D01*
X141010000Y-88810000D01*
X139064298Y-88810000D01*
X139064298Y-87714473D01*
X139064298Y-86725527D01*
X138901907Y-86398077D01*
X138626567Y-86157697D01*
X138620644Y-86139153D01*
X138485000Y-86157596D01*
X138485000Y-86870000D01*
X139016409Y-86870000D01*
X139064298Y-86725527D01*
X139064298Y-87714473D01*
X139016409Y-87570000D01*
X138485000Y-87570000D01*
X138485000Y-88282404D01*
X138620644Y-88300847D01*
X138626567Y-88282303D01*
X138901907Y-88041923D01*
X139064298Y-87714473D01*
X139064298Y-88810000D01*
X137835000Y-88810000D01*
X137835000Y-88282404D01*
X137835000Y-87570000D01*
X137790000Y-87570000D01*
X137790000Y-86870000D01*
X137835000Y-86870000D01*
X137835000Y-86157596D01*
X137699356Y-86139153D01*
X137693433Y-86157697D01*
X137418093Y-86398077D01*
X137365296Y-86504536D01*
X137211751Y-86274740D01*
X136903549Y-86068805D01*
X136540000Y-85996491D01*
X136176451Y-86068805D01*
X135868249Y-86274740D01*
X135662314Y-86582942D01*
X135590000Y-86946491D01*
X135590000Y-87493509D01*
X135662314Y-87857058D01*
X135868249Y-88165260D01*
X136176451Y-88371195D01*
X136540000Y-88443509D01*
X136903549Y-88371195D01*
X137211751Y-88165260D01*
X137365296Y-87935463D01*
X137418093Y-88041923D01*
X137693433Y-88282303D01*
X137699356Y-88300847D01*
X137835000Y-88282404D01*
X137835000Y-88810000D01*
X136908574Y-88810000D01*
X136850317Y-88751641D01*
X136629871Y-88660104D01*
X136391176Y-88659896D01*
X136170571Y-88751048D01*
X136001641Y-88919683D01*
X135910104Y-89140129D01*
X135909896Y-89378824D01*
X136001048Y-89599429D01*
X136022977Y-89621396D01*
X135857792Y-89654254D01*
X135711802Y-89751802D01*
X135321802Y-90141802D01*
X135224254Y-90287792D01*
X135190000Y-90460000D01*
X135190000Y-92471425D01*
X135131641Y-92529683D01*
X135040104Y-92750129D01*
X135039896Y-92988824D01*
X135131048Y-93209429D01*
X135299683Y-93378359D01*
X135520129Y-93469896D01*
X135758824Y-93470104D01*
X135979429Y-93378952D01*
X136060000Y-93298521D01*
X136060000Y-95615071D01*
X135999871Y-95590104D01*
X135761176Y-95589896D01*
X135540571Y-95681048D01*
X135371641Y-95849683D01*
X135280104Y-96070129D01*
X135279896Y-96308824D01*
X135371048Y-96529429D01*
X135430000Y-96588484D01*
X135430000Y-97389620D01*
X135221630Y-97389620D01*
X135146630Y-97464620D01*
X135146630Y-97939810D01*
X135291840Y-97939810D01*
X135291840Y-98440190D01*
X135146630Y-98440190D01*
X135146630Y-98915380D01*
X135221630Y-98990380D01*
X135430000Y-98990380D01*
X135430000Y-101023604D01*
X135159861Y-101293743D01*
X134782260Y-101293743D01*
X134667871Y-101315937D01*
X134567334Y-101381979D01*
X134500035Y-101481680D01*
X134480059Y-101581285D01*
X134461423Y-101485231D01*
X134395381Y-101384694D01*
X134295680Y-101317395D01*
X134177740Y-101293743D01*
X133278580Y-101293743D01*
X133164191Y-101315937D01*
X133090444Y-101364380D01*
X133071357Y-101345292D01*
X132961094Y-101299620D01*
X132751630Y-101299620D01*
X132676630Y-101374620D01*
X132676630Y-101849810D01*
X132821840Y-101849810D01*
X132821840Y-102350190D01*
X132676630Y-102350190D01*
X132676630Y-102470000D01*
X132227050Y-102470000D01*
X132227050Y-102350190D01*
X132081840Y-102350190D01*
X132081840Y-101849810D01*
X132227050Y-101849810D01*
X132227050Y-101374620D01*
X132152050Y-101299620D01*
X131942586Y-101299620D01*
X131832323Y-101345292D01*
X131747932Y-101429684D01*
X131702260Y-101539947D01*
X131702260Y-101592625D01*
X131681423Y-101485231D01*
X131615381Y-101384694D01*
X131515680Y-101317395D01*
X131397740Y-101293743D01*
X130710139Y-101293743D01*
X130670032Y-101253636D01*
X130670104Y-101171176D01*
X130578952Y-100950571D01*
X130410317Y-100781641D01*
X130189871Y-100690104D01*
X129951176Y-100689896D01*
X129730571Y-100781048D01*
X129561641Y-100949683D01*
X129470104Y-101170129D01*
X129469896Y-101408824D01*
X129561048Y-101629429D01*
X129620000Y-101688484D01*
X129620000Y-101700000D01*
X129200908Y-101700000D01*
X129197561Y-101694904D01*
X129097860Y-101627605D01*
X128979920Y-101603953D01*
X127530000Y-101603953D01*
X127530000Y-100280002D01*
X127495746Y-100107795D01*
X127495746Y-100107794D01*
X127398198Y-99961804D01*
X126898198Y-99461804D01*
X126850600Y-99430000D01*
X131543604Y-99430000D01*
X131709967Y-99596363D01*
X131709896Y-99678824D01*
X131801048Y-99899429D01*
X131969683Y-100068359D01*
X132190129Y-100159896D01*
X132428824Y-100160104D01*
X132649429Y-100068952D01*
X132818359Y-99900317D01*
X132855551Y-99810748D01*
X132967792Y-99885746D01*
X132967793Y-99885746D01*
X133140000Y-99920000D01*
X133501425Y-99920000D01*
X133559683Y-99978359D01*
X133780129Y-100069896D01*
X134018824Y-100070104D01*
X134239429Y-99978952D01*
X134408359Y-99810317D01*
X134499896Y-99589871D01*
X134500104Y-99351176D01*
X134408952Y-99130571D01*
X134240317Y-98961641D01*
X134088909Y-98898771D01*
X134149965Y-98808320D01*
X134172260Y-98697146D01*
X134172260Y-98750053D01*
X134217932Y-98860316D01*
X134302323Y-98944708D01*
X134412586Y-98990380D01*
X134622050Y-98990380D01*
X134697050Y-98915380D01*
X134697050Y-98440190D01*
X134551840Y-98440190D01*
X134551840Y-97939810D01*
X134697050Y-97939810D01*
X134697050Y-97493812D01*
X134697050Y-97493811D01*
X134730000Y-97328160D01*
X134730000Y-91270000D01*
X134695747Y-91097793D01*
X134695746Y-91097792D01*
X134598198Y-90951802D01*
X134250032Y-90603636D01*
X134250104Y-90521176D01*
X134158952Y-90300571D01*
X134038503Y-90179912D01*
X134258824Y-90180104D01*
X134479429Y-90088952D01*
X134648359Y-89920317D01*
X134739896Y-89699871D01*
X134740104Y-89461176D01*
X134648952Y-89240571D01*
X134480317Y-89071641D01*
X134259871Y-88980104D01*
X134110000Y-88979973D01*
X134110000Y-87493509D01*
X134110000Y-86946491D01*
X134037686Y-86582942D01*
X133831751Y-86274740D01*
X133523549Y-86068805D01*
X133160000Y-85996491D01*
X132796451Y-86068805D01*
X132488249Y-86274740D01*
X132282314Y-86582942D01*
X132210000Y-86946491D01*
X132210000Y-87493509D01*
X132282314Y-87857058D01*
X132488249Y-88165260D01*
X132796451Y-88371195D01*
X133160000Y-88443509D01*
X133523549Y-88371195D01*
X133831751Y-88165260D01*
X134037686Y-87857058D01*
X134110000Y-87493509D01*
X134110000Y-88979973D01*
X134021176Y-88979896D01*
X133800571Y-89071048D01*
X133751533Y-89120000D01*
X130604298Y-89120000D01*
X130604298Y-87714473D01*
X130604298Y-86725527D01*
X130441907Y-86398077D01*
X130166567Y-86157697D01*
X130160644Y-86139153D01*
X130025000Y-86157596D01*
X130025000Y-86870000D01*
X130556409Y-86870000D01*
X130604298Y-86725527D01*
X130604298Y-87714473D01*
X130556409Y-87570000D01*
X130025000Y-87570000D01*
X130025000Y-88282404D01*
X130160644Y-88300847D01*
X130166567Y-88282303D01*
X130441907Y-88041923D01*
X130604298Y-87714473D01*
X130604298Y-89120000D01*
X129375000Y-89120000D01*
X129375000Y-88282404D01*
X129375000Y-87570000D01*
X129330000Y-87570000D01*
X129330000Y-86870000D01*
X129375000Y-86870000D01*
X129375000Y-86157596D01*
X129239356Y-86139153D01*
X129233433Y-86157697D01*
X128958093Y-86398077D01*
X128939378Y-86435814D01*
X128831751Y-86274740D01*
X128523549Y-86068805D01*
X128160000Y-85996491D01*
X127796451Y-86068805D01*
X127488249Y-86274740D01*
X127282314Y-86582942D01*
X127210000Y-86946491D01*
X127210000Y-87493509D01*
X127282314Y-87857058D01*
X127488249Y-88165260D01*
X127796451Y-88371195D01*
X128160000Y-88443509D01*
X128523549Y-88371195D01*
X128831751Y-88165260D01*
X128939378Y-88004185D01*
X128958093Y-88041923D01*
X129233433Y-88282303D01*
X129239356Y-88300847D01*
X129375000Y-88282404D01*
X129375000Y-89120000D01*
X127938574Y-89120000D01*
X127880317Y-89061641D01*
X127659871Y-88970104D01*
X127421176Y-88969896D01*
X127351962Y-88998494D01*
X127332408Y-88951284D01*
X127248017Y-88866892D01*
X127137754Y-88821220D01*
X126953690Y-88821220D01*
X126878690Y-88896220D01*
X126878690Y-89320610D01*
X126993884Y-89320610D01*
X126940104Y-89450129D01*
X126939896Y-89688824D01*
X126952525Y-89719390D01*
X126878690Y-89719390D01*
X126878690Y-90143780D01*
X126953690Y-90218780D01*
X127137754Y-90218780D01*
X127248017Y-90173108D01*
X127300784Y-90120339D01*
X127420129Y-90169896D01*
X127658824Y-90170104D01*
X127879429Y-90078952D01*
X127938484Y-90020000D01*
X133731443Y-90020000D01*
X133751496Y-90040087D01*
X133531176Y-90039896D01*
X133310571Y-90131048D01*
X133141641Y-90299683D01*
X133050104Y-90520129D01*
X133049896Y-90758824D01*
X133141048Y-90979429D01*
X133271479Y-91110088D01*
X133261550Y-91120000D01*
X127948574Y-91120000D01*
X127890317Y-91061641D01*
X127669871Y-90970104D01*
X127431176Y-90969896D01*
X127335740Y-91009329D01*
X127332408Y-91001284D01*
X127248017Y-90916892D01*
X127137754Y-90871220D01*
X126953690Y-90871220D01*
X126878690Y-90946220D01*
X126878690Y-91370610D01*
X126983123Y-91370610D01*
X126950104Y-91450129D01*
X126949896Y-91688824D01*
X126983185Y-91769390D01*
X126878690Y-91769390D01*
X126878690Y-92193780D01*
X126953690Y-92268780D01*
X127137754Y-92268780D01*
X127248017Y-92223108D01*
X127332408Y-92138716D01*
X127335729Y-92130697D01*
X127430129Y-92169896D01*
X127668824Y-92170104D01*
X127889429Y-92078952D01*
X127948484Y-92020000D01*
X131063604Y-92020000D01*
X130851802Y-92231802D01*
X130283636Y-92799967D01*
X130201176Y-92799896D01*
X129993273Y-92885799D01*
X129962408Y-92811284D01*
X129878017Y-92726892D01*
X129767754Y-92681220D01*
X129583690Y-92681220D01*
X129508690Y-92756220D01*
X129508690Y-93180610D01*
X129679300Y-93180610D01*
X129679300Y-93579390D01*
X129508690Y-93579390D01*
X129508690Y-94003780D01*
X129549910Y-94045000D01*
X129498690Y-94096220D01*
X129498690Y-94520610D01*
X129923080Y-94520610D01*
X129998080Y-94445610D01*
X129998080Y-94380894D01*
X129998080Y-94261547D01*
X129952408Y-94151284D01*
X129868017Y-94066892D01*
X129832235Y-94052071D01*
X129878017Y-94033108D01*
X129962408Y-93948716D01*
X129979288Y-93907963D01*
X129979683Y-93908359D01*
X130200129Y-93999896D01*
X130438824Y-94000104D01*
X130659429Y-93908952D01*
X130828359Y-93740317D01*
X130919896Y-93519871D01*
X130919968Y-93436427D01*
X131488198Y-92868198D01*
X131816396Y-92540000D01*
X131862442Y-92540000D01*
X131800104Y-92690129D01*
X131799896Y-92928824D01*
X131891048Y-93149429D01*
X132059683Y-93318359D01*
X132280129Y-93409896D01*
X132363572Y-93409968D01*
X133379998Y-94426394D01*
X133379998Y-96920000D01*
X132840000Y-96920000D01*
X132667792Y-96954254D01*
X132521802Y-97051802D01*
X132321802Y-97251802D01*
X132224254Y-97397792D01*
X132190000Y-97570000D01*
X132190000Y-98803604D01*
X132048198Y-98661802D01*
X131902208Y-98564254D01*
X131730000Y-98530000D01*
X129998080Y-98530000D01*
X129998080Y-95178453D01*
X129998080Y-95059106D01*
X129998080Y-94994390D01*
X129923080Y-94919390D01*
X129498690Y-94919390D01*
X129498690Y-95343780D01*
X129514910Y-95360000D01*
X129488690Y-95386220D01*
X129488690Y-95810610D01*
X129913080Y-95810610D01*
X129988080Y-95735610D01*
X129988080Y-95670894D01*
X129988080Y-95551547D01*
X129942408Y-95441284D01*
X129871124Y-95370000D01*
X129952408Y-95288716D01*
X129998080Y-95178453D01*
X129998080Y-98530000D01*
X129988080Y-98530000D01*
X129988080Y-97798453D01*
X129988080Y-97679106D01*
X129988080Y-97614390D01*
X129988080Y-97065610D01*
X129988080Y-97000894D01*
X129988080Y-96881547D01*
X129942408Y-96771284D01*
X129858017Y-96686892D01*
X129829306Y-96675000D01*
X129858017Y-96663108D01*
X129942408Y-96578716D01*
X129988080Y-96468453D01*
X129988080Y-96349106D01*
X129988080Y-96284390D01*
X129913080Y-96209390D01*
X129488690Y-96209390D01*
X129488690Y-96633780D01*
X129529910Y-96675000D01*
X129488690Y-96716220D01*
X129488690Y-97140610D01*
X129913080Y-97140610D01*
X129988080Y-97065610D01*
X129988080Y-97614390D01*
X129913080Y-97539390D01*
X129488690Y-97539390D01*
X129488690Y-97963780D01*
X129563690Y-98038780D01*
X129747754Y-98038780D01*
X129858017Y-97993108D01*
X129942408Y-97908716D01*
X129988080Y-97798453D01*
X129988080Y-98530000D01*
X129120775Y-98530000D01*
X129149896Y-98459871D01*
X129150104Y-98221176D01*
X129109910Y-98123898D01*
X129109910Y-94003780D01*
X129109910Y-93579390D01*
X129109910Y-93180610D01*
X129109910Y-92756220D01*
X129034910Y-92681220D01*
X128850846Y-92681220D01*
X128740583Y-92726892D01*
X128656192Y-92811284D01*
X128610520Y-92921547D01*
X128610520Y-93040894D01*
X128610520Y-93105610D01*
X128685520Y-93180610D01*
X129109910Y-93180610D01*
X129109910Y-93579390D01*
X128685520Y-93579390D01*
X128610520Y-93654390D01*
X128610520Y-93719106D01*
X128610520Y-93838453D01*
X128656192Y-93948716D01*
X128740583Y-94033108D01*
X128776364Y-94047928D01*
X128730583Y-94066892D01*
X128646192Y-94151284D01*
X128600520Y-94261547D01*
X128600520Y-94380894D01*
X128600520Y-94445610D01*
X128675520Y-94520610D01*
X129099910Y-94520610D01*
X129099910Y-94096220D01*
X129058690Y-94055000D01*
X129109910Y-94003780D01*
X129109910Y-98123898D01*
X129099910Y-98099697D01*
X129099910Y-95343780D01*
X129099910Y-94919390D01*
X128675520Y-94919390D01*
X128600520Y-94994390D01*
X128600520Y-95059106D01*
X128600520Y-95178453D01*
X128646192Y-95288716D01*
X128717475Y-95359999D01*
X128636192Y-95441284D01*
X128590520Y-95551547D01*
X128590520Y-95670894D01*
X128590520Y-95735610D01*
X128665520Y-95810610D01*
X129089910Y-95810610D01*
X129089910Y-95386220D01*
X129073690Y-95370000D01*
X129099910Y-95343780D01*
X129099910Y-98099697D01*
X129058952Y-98000571D01*
X129056038Y-97997651D01*
X129089910Y-97963780D01*
X129089910Y-97539390D01*
X129089910Y-97140610D01*
X129089910Y-96716220D01*
X129048690Y-96675000D01*
X129089910Y-96633780D01*
X129089910Y-96209390D01*
X128665520Y-96209390D01*
X128590520Y-96284390D01*
X128590520Y-96349106D01*
X128590520Y-96468453D01*
X128636192Y-96578716D01*
X128720583Y-96663108D01*
X128749293Y-96675000D01*
X128720583Y-96686892D01*
X128636192Y-96771284D01*
X128590520Y-96881547D01*
X128590520Y-97000894D01*
X128590520Y-97065610D01*
X128665520Y-97140610D01*
X129089910Y-97140610D01*
X129089910Y-97539390D01*
X128665520Y-97539390D01*
X128590520Y-97614390D01*
X128590520Y-97679106D01*
X128590520Y-97740034D01*
X128495122Y-97739951D01*
X128495357Y-97738780D01*
X128495357Y-96941220D01*
X128473163Y-96826831D01*
X128407121Y-96726294D01*
X128330796Y-96674774D01*
X128404406Y-96626421D01*
X128471705Y-96526720D01*
X128495357Y-96408780D01*
X128495357Y-95611220D01*
X128473163Y-95496831D01*
X128407121Y-95396294D01*
X128365760Y-95368375D01*
X128414406Y-95336421D01*
X128481705Y-95236720D01*
X128505357Y-95118780D01*
X128505357Y-94321220D01*
X128483163Y-94206831D01*
X128417121Y-94106294D01*
X128338220Y-94053035D01*
X128424406Y-93996421D01*
X128491705Y-93896720D01*
X128515357Y-93778780D01*
X128515357Y-92981220D01*
X128493163Y-92866831D01*
X128427121Y-92766294D01*
X128327420Y-92698995D01*
X128209480Y-92675343D01*
X127411920Y-92675343D01*
X127297531Y-92697537D01*
X127196994Y-92763579D01*
X127145126Y-92840419D01*
X126999871Y-92780104D01*
X126761176Y-92779896D01*
X126540571Y-92871048D01*
X126479910Y-92931603D01*
X126479910Y-92193780D01*
X126479910Y-91769390D01*
X126479910Y-91370610D01*
X126479910Y-90946220D01*
X126479910Y-90143780D01*
X126479910Y-89719390D01*
X126479910Y-89320610D01*
X126479910Y-88896220D01*
X126404910Y-88821220D01*
X126220846Y-88821220D01*
X126110583Y-88866892D01*
X126026192Y-88951284D01*
X125980520Y-89061547D01*
X125980520Y-89180894D01*
X125980520Y-89245610D01*
X126055520Y-89320610D01*
X126479910Y-89320610D01*
X126479910Y-89719390D01*
X126055520Y-89719390D01*
X125980520Y-89794390D01*
X125980520Y-89859106D01*
X125980520Y-89978453D01*
X126026192Y-90088716D01*
X126110583Y-90173108D01*
X126220846Y-90218780D01*
X126404910Y-90218780D01*
X126479910Y-90143780D01*
X126479910Y-90946220D01*
X126404910Y-90871220D01*
X126220846Y-90871220D01*
X126110583Y-90916892D01*
X126026192Y-91001284D01*
X125980520Y-91111547D01*
X125980520Y-91230894D01*
X125980520Y-91295610D01*
X126055520Y-91370610D01*
X126479910Y-91370610D01*
X126479910Y-91769390D01*
X126055520Y-91769390D01*
X125980520Y-91844390D01*
X125980520Y-91909106D01*
X125980520Y-92028453D01*
X126026192Y-92138716D01*
X126110583Y-92223108D01*
X126220846Y-92268780D01*
X126404910Y-92268780D01*
X126479910Y-92193780D01*
X126479910Y-92931603D01*
X126371641Y-93039683D01*
X126280104Y-93260129D01*
X126279896Y-93498824D01*
X126371048Y-93719429D01*
X126539683Y-93888359D01*
X126760129Y-93979896D01*
X126998824Y-93980104D01*
X127145525Y-93919488D01*
X127194279Y-93993706D01*
X127273179Y-94046964D01*
X127186994Y-94103579D01*
X127139504Y-94173932D01*
X127009871Y-94120104D01*
X126771176Y-94119896D01*
X126550571Y-94211048D01*
X126381641Y-94379683D01*
X126290104Y-94600129D01*
X126289896Y-94838824D01*
X126381048Y-95059429D01*
X126549683Y-95228359D01*
X126770129Y-95319896D01*
X127008824Y-95320104D01*
X127139795Y-95265987D01*
X127184279Y-95333706D01*
X127225639Y-95361624D01*
X127176994Y-95393579D01*
X127131694Y-95460689D01*
X127009871Y-95410104D01*
X126771176Y-95409896D01*
X126550571Y-95501048D01*
X126381641Y-95669683D01*
X126290104Y-95890129D01*
X126289896Y-96128824D01*
X126381048Y-96349429D01*
X126481444Y-96450001D01*
X126411641Y-96519683D01*
X126320104Y-96740129D01*
X126319896Y-96978824D01*
X126411048Y-97199429D01*
X126579683Y-97368359D01*
X126800129Y-97459896D01*
X127038824Y-97460104D01*
X127086043Y-97440593D01*
X127086043Y-97738780D01*
X127108237Y-97853169D01*
X127132431Y-97890000D01*
X125885357Y-97890000D01*
X125885357Y-91968780D01*
X125885357Y-91171220D01*
X125863163Y-91056831D01*
X125797121Y-90956294D01*
X125697420Y-90888995D01*
X125632629Y-90876001D01*
X125658359Y-90850317D01*
X125749896Y-90629871D01*
X125750104Y-90391176D01*
X125673742Y-90206367D01*
X125693869Y-90202463D01*
X125794406Y-90136421D01*
X125861705Y-90036720D01*
X125885357Y-89918780D01*
X125885357Y-89121220D01*
X125863163Y-89006831D01*
X125797121Y-88906294D01*
X125697420Y-88838995D01*
X125579480Y-88815343D01*
X124781920Y-88815343D01*
X124675877Y-88835917D01*
X124675877Y-88438710D01*
X124700000Y-88443509D01*
X125063549Y-88371195D01*
X125371751Y-88165260D01*
X125577686Y-87857058D01*
X125650000Y-87493509D01*
X125650000Y-86946491D01*
X125577686Y-86582942D01*
X125371751Y-86274740D01*
X125063549Y-86068805D01*
X124700000Y-85996491D01*
X124336451Y-86068805D01*
X124028249Y-86274740D01*
X123822314Y-86582942D01*
X123750000Y-86946491D01*
X123750000Y-87493509D01*
X123822314Y-87857058D01*
X123964011Y-88069123D01*
X123170000Y-88069123D01*
X123055611Y-88091317D01*
X122955074Y-88157359D01*
X122887775Y-88257060D01*
X122864123Y-88375000D01*
X122864123Y-90125000D01*
X122886317Y-90239389D01*
X122952359Y-90339926D01*
X123052060Y-90407225D01*
X123170000Y-90430877D01*
X124370000Y-90430877D01*
X124484389Y-90408683D01*
X124564157Y-90356283D01*
X124550104Y-90390129D01*
X124549896Y-90628824D01*
X124641048Y-90849429D01*
X124677214Y-90885658D01*
X124667531Y-90887537D01*
X124566994Y-90953579D01*
X124499695Y-91053280D01*
X124476043Y-91171220D01*
X124476043Y-91968780D01*
X124498237Y-92083169D01*
X124564279Y-92183706D01*
X124663048Y-92250376D01*
X124580104Y-92450129D01*
X124579896Y-92688824D01*
X124671048Y-92909429D01*
X124839683Y-93078359D01*
X125060129Y-93169896D01*
X125298824Y-93170104D01*
X125519429Y-93078952D01*
X125688359Y-92910317D01*
X125779896Y-92689871D01*
X125780104Y-92451176D01*
X125697116Y-92250329D01*
X125794406Y-92186421D01*
X125861705Y-92086720D01*
X125885357Y-91968780D01*
X125885357Y-97890000D01*
X125368574Y-97890000D01*
X125310317Y-97831641D01*
X125089871Y-97740104D01*
X124851176Y-97739896D01*
X124670000Y-97814756D01*
X124670000Y-96684674D01*
X124670000Y-96175000D01*
X124670000Y-95325000D01*
X124670000Y-94815326D01*
X124624328Y-94705063D01*
X124539936Y-94620672D01*
X124429673Y-94575000D01*
X124310326Y-94575000D01*
X124145000Y-94575000D01*
X124070000Y-94650000D01*
X124070000Y-95400000D01*
X124595000Y-95400000D01*
X124670000Y-95325000D01*
X124670000Y-96175000D01*
X124595000Y-96100000D01*
X124070000Y-96100000D01*
X124070000Y-96850000D01*
X124145000Y-96925000D01*
X124310326Y-96925000D01*
X124429673Y-96925000D01*
X124539936Y-96879328D01*
X124624328Y-96794937D01*
X124670000Y-96684674D01*
X124670000Y-97814756D01*
X124630571Y-97831048D01*
X124461641Y-97999683D01*
X124370104Y-98220129D01*
X124369896Y-98458824D01*
X124399305Y-98530000D01*
X123676396Y-98530000D01*
X123490032Y-98343636D01*
X123490104Y-98261176D01*
X123470000Y-98212520D01*
X123470000Y-96850000D01*
X123470000Y-96100000D01*
X123470000Y-95400000D01*
X123470000Y-94650000D01*
X123395000Y-94575000D01*
X123229674Y-94575000D01*
X123110327Y-94575000D01*
X123000064Y-94620672D01*
X122915672Y-94705063D01*
X122870000Y-94815326D01*
X122870000Y-95325000D01*
X122945000Y-95400000D01*
X123470000Y-95400000D01*
X123470000Y-96100000D01*
X122945000Y-96100000D01*
X122870000Y-96175000D01*
X122870000Y-96684674D01*
X122915672Y-96794937D01*
X123000064Y-96879328D01*
X123110327Y-96925000D01*
X123229674Y-96925000D01*
X123395000Y-96925000D01*
X123470000Y-96850000D01*
X123470000Y-98212520D01*
X123398952Y-98040571D01*
X123230317Y-97871641D01*
X123009871Y-97780104D01*
X122771176Y-97779896D01*
X122550571Y-97871048D01*
X122389876Y-98031462D01*
X122240317Y-97881641D01*
X122019871Y-97790104D01*
X121781176Y-97789896D01*
X121560571Y-97881048D01*
X121391641Y-98049683D01*
X121300104Y-98270129D01*
X121299896Y-98508824D01*
X121391048Y-98729429D01*
X121559683Y-98898359D01*
X121780129Y-98989896D01*
X121863572Y-98989968D01*
X122971804Y-100098200D01*
X123117794Y-100195748D01*
X123117795Y-100195748D01*
X123290002Y-100230002D01*
X126393604Y-100230002D01*
X126630000Y-100466398D01*
X126630000Y-101603953D01*
X125180080Y-101603953D01*
X125065691Y-101626147D01*
X124965154Y-101692189D01*
X124897855Y-101791890D01*
X124874203Y-101909830D01*
X124874203Y-103710690D01*
X124896397Y-103825079D01*
X124962439Y-103925616D01*
X125062140Y-103992915D01*
X125180080Y-104016567D01*
X126360000Y-104016567D01*
X126360000Y-107616967D01*
X126315371Y-107625627D01*
X126214834Y-107691669D01*
X126147535Y-107791370D01*
X126123883Y-107909310D01*
X126123883Y-109640000D01*
X125734877Y-109640000D01*
X125734877Y-107909310D01*
X125712683Y-107794921D01*
X125646641Y-107694384D01*
X125578760Y-107648563D01*
X125578760Y-107356661D01*
X125579104Y-107356147D01*
X125639999Y-107050000D01*
X125579104Y-106743853D01*
X125405685Y-106484315D01*
X125146147Y-106310896D01*
X124840000Y-106250001D01*
X124533853Y-106310896D01*
X124274314Y-106484315D01*
X124213075Y-106545555D01*
X124039656Y-106805093D01*
X124010000Y-106954184D01*
X124010000Y-106426396D01*
X124258198Y-106178198D01*
X124355746Y-106032208D01*
X124355746Y-106032207D01*
X124390000Y-105860000D01*
X124390000Y-104648574D01*
X124448359Y-104590317D01*
X124539896Y-104369871D01*
X124540104Y-104131176D01*
X124448952Y-103910571D01*
X124280317Y-103741641D01*
X124059871Y-103650104D01*
X123821176Y-103649896D01*
X123600571Y-103741048D01*
X123431641Y-103909683D01*
X123340104Y-104130129D01*
X123339896Y-104368824D01*
X123431048Y-104589429D01*
X123490000Y-104648484D01*
X123490000Y-105673604D01*
X123241802Y-105921802D01*
X123144254Y-106067792D01*
X123110000Y-106240000D01*
X123110000Y-109750000D01*
X123144254Y-109922208D01*
X123241802Y-110068198D01*
X123581802Y-110408198D01*
X123727792Y-110505746D01*
X123727793Y-110505747D01*
X123900000Y-110540000D01*
X125306657Y-110540000D01*
X124992062Y-110750206D01*
X124710368Y-111171791D01*
X124709237Y-111177476D01*
X124482049Y-110962572D01*
X124095669Y-110814964D01*
X123930000Y-110875008D01*
X123930000Y-111510000D01*
X123950000Y-111510000D01*
X123950000Y-112210000D01*
X123930000Y-112210000D01*
X123930000Y-112844992D01*
X124095669Y-112905036D01*
X124482049Y-112757428D01*
X124611450Y-112635023D01*
X124611450Y-112996698D01*
X124276025Y-113332123D01*
X123124915Y-113332123D01*
X122570000Y-112777208D01*
X122570000Y-112655313D01*
X122677951Y-112757428D01*
X123064331Y-112905036D01*
X123230000Y-112844992D01*
X123230000Y-112210000D01*
X123210000Y-112210000D01*
X123210000Y-111510000D01*
X123230000Y-111510000D01*
X123230000Y-110875008D01*
X123064331Y-110814964D01*
X122677951Y-110962572D01*
X122570000Y-111064686D01*
X122570000Y-109720000D01*
X122501492Y-109375585D01*
X122501491Y-109375584D01*
X122306396Y-109083604D01*
X121250104Y-108027312D01*
X121250104Y-93351176D01*
X121158952Y-93130571D01*
X120990317Y-92961641D01*
X120769871Y-92870104D01*
X120675877Y-92870022D01*
X120675877Y-90125000D01*
X120675877Y-88375000D01*
X120653683Y-88260611D01*
X120587641Y-88160074D01*
X120487940Y-88092775D01*
X120428190Y-88080792D01*
X120577686Y-87857058D01*
X120650000Y-87493509D01*
X120650000Y-86946491D01*
X120577686Y-86582942D01*
X120371751Y-86274740D01*
X120063549Y-86068805D01*
X119700000Y-85996491D01*
X119336451Y-86068805D01*
X119028249Y-86274740D01*
X118822314Y-86582942D01*
X118750000Y-86946491D01*
X118750000Y-87493509D01*
X118822314Y-87857058D01*
X119002259Y-88126363D01*
X118955074Y-88157359D01*
X118887775Y-88257060D01*
X118864123Y-88375000D01*
X118864123Y-90125000D01*
X118886317Y-90239389D01*
X118952359Y-90339926D01*
X119052060Y-90407225D01*
X119170000Y-90430877D01*
X120370000Y-90430877D01*
X120484389Y-90408683D01*
X120584926Y-90342641D01*
X120652225Y-90242940D01*
X120675877Y-90125000D01*
X120675877Y-92870022D01*
X120531176Y-92869896D01*
X120310571Y-92961048D01*
X120141641Y-93129683D01*
X120050104Y-93350129D01*
X120049896Y-93588824D01*
X120141048Y-93809429D01*
X120200000Y-93868484D01*
X120200000Y-94569123D01*
X119170000Y-94569123D01*
X119055611Y-94591317D01*
X118955074Y-94657359D01*
X118887775Y-94757060D01*
X118864123Y-94875000D01*
X118864123Y-96625000D01*
X118886317Y-96739389D01*
X118952359Y-96839926D01*
X119052060Y-96907225D01*
X119170000Y-96930877D01*
X120370000Y-96930877D01*
X120484389Y-96908683D01*
X120584926Y-96842641D01*
X120652225Y-96742940D01*
X120675877Y-96625000D01*
X120675877Y-95480519D01*
X120968198Y-95188198D01*
X121065746Y-95042208D01*
X121065746Y-95042207D01*
X121100000Y-94870000D01*
X121100000Y-93868574D01*
X121158359Y-93810317D01*
X121249896Y-93589871D01*
X121250104Y-93351176D01*
X121250104Y-108027312D01*
X121147244Y-107924452D01*
X121147244Y-102630000D01*
X121147244Y-100090000D01*
X121066404Y-99683590D01*
X120836191Y-99339053D01*
X120491654Y-99108840D01*
X120085244Y-99028000D01*
X119354756Y-99028000D01*
X118948346Y-99108840D01*
X118603809Y-99339053D01*
X118373596Y-99683590D01*
X118292756Y-100090000D01*
X118373596Y-100496410D01*
X118603809Y-100840947D01*
X118948346Y-101071160D01*
X119354756Y-101152000D01*
X120085244Y-101152000D01*
X120491654Y-101071160D01*
X120836191Y-100840947D01*
X121066404Y-100496410D01*
X121147244Y-100090000D01*
X121147244Y-102630000D01*
X121066404Y-102223590D01*
X120836191Y-101879053D01*
X120491654Y-101648840D01*
X120085244Y-101568000D01*
X119354756Y-101568000D01*
X118948346Y-101648840D01*
X118603809Y-101879053D01*
X118373596Y-102223590D01*
X118292756Y-102630000D01*
X118373596Y-103036410D01*
X118603809Y-103380947D01*
X118948346Y-103611160D01*
X119354756Y-103692000D01*
X120085244Y-103692000D01*
X120491654Y-103611160D01*
X120836191Y-103380947D01*
X121066404Y-103036410D01*
X121147244Y-102630000D01*
X121147244Y-107924452D01*
X120620000Y-107397208D01*
X120620000Y-106237877D01*
X120819820Y-106237877D01*
X120934209Y-106215683D01*
X121034746Y-106149641D01*
X121102045Y-106049940D01*
X121125697Y-105932000D01*
X121125697Y-104408000D01*
X121103503Y-104293611D01*
X121037461Y-104193074D01*
X120937760Y-104125775D01*
X120819820Y-104102123D01*
X118620180Y-104102123D01*
X118505791Y-104124317D01*
X118405254Y-104190359D01*
X118337955Y-104290060D01*
X118314303Y-104408000D01*
X118314303Y-105932000D01*
X118336497Y-106046389D01*
X118402539Y-106146926D01*
X118502240Y-106214225D01*
X118620180Y-106237877D01*
X118820000Y-106237877D01*
X118820000Y-107770000D01*
X118888508Y-108114415D01*
X119083604Y-108406396D01*
X120770000Y-110092792D01*
X120770000Y-110968793D01*
X120580311Y-110802875D01*
X120450384Y-110787931D01*
X120258920Y-110795837D01*
X120258920Y-112620000D01*
X120278920Y-112620000D01*
X120278920Y-113320000D01*
X120258920Y-113320000D01*
X120258920Y-115144163D01*
X120450384Y-115152069D01*
X120580311Y-115137125D01*
X120975553Y-114791411D01*
X121208410Y-114320760D01*
X121208410Y-113961202D01*
X122174303Y-114927095D01*
X122174303Y-115162000D01*
X122196497Y-115276389D01*
X122262539Y-115376926D01*
X122362240Y-115444225D01*
X122480180Y-115467877D01*
X124679820Y-115467877D01*
X124794209Y-115445683D01*
X124894746Y-115379641D01*
X124962045Y-115279940D01*
X124982879Y-115176050D01*
X124992062Y-115189794D01*
X125413647Y-115471488D01*
X125910940Y-115570406D01*
X126408233Y-115471488D01*
X126829818Y-115189794D01*
X127111512Y-114768209D01*
X127173591Y-114456114D01*
X127241802Y-114558198D01*
X127931802Y-115248198D01*
X128077792Y-115345746D01*
X128250000Y-115380000D01*
X129891425Y-115380000D01*
X129949683Y-115438359D01*
X130170129Y-115529896D01*
X130408824Y-115530104D01*
X130629429Y-115438952D01*
X130798359Y-115270317D01*
X130889896Y-115049871D01*
X130890104Y-114811176D01*
X130798952Y-114590571D01*
X130630317Y-114421641D01*
X130409871Y-114330104D01*
X130331480Y-114330035D01*
X130331480Y-109769843D01*
X130331480Y-109650496D01*
X130331480Y-109234740D01*
X130331480Y-108384740D01*
X130331480Y-107968984D01*
X130331480Y-107849637D01*
X130285808Y-107739374D01*
X130201417Y-107654982D01*
X130091154Y-107609310D01*
X129853370Y-107609310D01*
X129853370Y-104145380D01*
X129853370Y-103670190D01*
X129853370Y-103169810D01*
X129853370Y-102694620D01*
X129778370Y-102619620D01*
X129568906Y-102619620D01*
X129458643Y-102665292D01*
X129374252Y-102749684D01*
X129328580Y-102859947D01*
X129328580Y-102979294D01*
X129328580Y-103094810D01*
X129403580Y-103169810D01*
X129853370Y-103169810D01*
X129853370Y-103670190D01*
X129403580Y-103670190D01*
X129328580Y-103745190D01*
X129328580Y-103860706D01*
X129328580Y-103980053D01*
X129374252Y-104090316D01*
X129458643Y-104174708D01*
X129568906Y-104220380D01*
X129778370Y-104220380D01*
X129853370Y-104145380D01*
X129853370Y-107609310D01*
X129781360Y-107609310D01*
X129706360Y-107684310D01*
X129706360Y-108459740D01*
X130256480Y-108459740D01*
X130331480Y-108384740D01*
X130331480Y-109234740D01*
X130256480Y-109159740D01*
X129706360Y-109159740D01*
X129706360Y-109935170D01*
X129781360Y-110010170D01*
X130091154Y-110010170D01*
X130201417Y-109964498D01*
X130285808Y-109880106D01*
X130331480Y-109769843D01*
X130331480Y-114330035D01*
X130171176Y-114329896D01*
X129950571Y-114421048D01*
X129891515Y-114480000D01*
X128436396Y-114480000D01*
X128010000Y-114053604D01*
X128010000Y-112136396D01*
X128349967Y-112476363D01*
X128349896Y-112558824D01*
X128441048Y-112779429D01*
X128609683Y-112948359D01*
X128830129Y-113039896D01*
X129068824Y-113040104D01*
X129289429Y-112948952D01*
X129458359Y-112780317D01*
X129549896Y-112559871D01*
X129550104Y-112321176D01*
X129458952Y-112100571D01*
X129290317Y-111931641D01*
X129069871Y-111840104D01*
X128986427Y-111840031D01*
X128500000Y-111353604D01*
X128500000Y-109903434D01*
X128561063Y-109964498D01*
X128671326Y-110010170D01*
X128981120Y-110010170D01*
X129056120Y-109935170D01*
X129056120Y-109159740D01*
X129011240Y-109159740D01*
X129011240Y-108459740D01*
X129056120Y-108459740D01*
X129056120Y-107684310D01*
X128981120Y-107609310D01*
X128671326Y-107609310D01*
X128561063Y-107654982D01*
X128500000Y-107716045D01*
X128500000Y-104600000D01*
X128465746Y-104427793D01*
X128465746Y-104427792D01*
X128370031Y-104284545D01*
X128370104Y-104201176D01*
X128293825Y-104016567D01*
X128979920Y-104016567D01*
X129094309Y-103994373D01*
X129194846Y-103928331D01*
X129262145Y-103828630D01*
X129285797Y-103710690D01*
X129285797Y-102600000D01*
X129840000Y-102600000D01*
X130012207Y-102565746D01*
X130012208Y-102565746D01*
X130158198Y-102468198D01*
X130192703Y-102433693D01*
X130192703Y-102600380D01*
X130214897Y-102714769D01*
X130280939Y-102815306D01*
X130302950Y-102830163D01*
X130302950Y-103169810D01*
X130448160Y-103169810D01*
X130448160Y-103670190D01*
X130302950Y-103670190D01*
X130302950Y-104145380D01*
X130377950Y-104220380D01*
X130587414Y-104220380D01*
X130697677Y-104174708D01*
X130782068Y-104090316D01*
X130827740Y-103980053D01*
X130827740Y-103927374D01*
X130848577Y-104034769D01*
X130914619Y-104135306D01*
X131014320Y-104202605D01*
X131132260Y-104226257D01*
X132031420Y-104226257D01*
X132145809Y-104204063D01*
X132246346Y-104138021D01*
X132313645Y-104038320D01*
X132337297Y-103920380D01*
X132337297Y-103870000D01*
X132342214Y-103870000D01*
X132390129Y-103889896D01*
X132628824Y-103890104D01*
X132849429Y-103798952D01*
X133018359Y-103630317D01*
X133109896Y-103409871D01*
X133110104Y-103171176D01*
X133018952Y-102950571D01*
X132966580Y-102898107D01*
X133071357Y-102854708D01*
X133090681Y-102835382D01*
X133160640Y-102882605D01*
X133267390Y-102904013D01*
X133221641Y-102949683D01*
X133130104Y-103170129D01*
X133129896Y-103408824D01*
X133221048Y-103629429D01*
X133292043Y-103700549D01*
X133314254Y-103812208D01*
X133411802Y-103958198D01*
X133751802Y-104298198D01*
X133897792Y-104395746D01*
X133897793Y-104395747D01*
X134070000Y-104430000D01*
X135970000Y-104430000D01*
X136040000Y-104416076D01*
X136040000Y-106761565D01*
X135966205Y-106835231D01*
X135964063Y-106824191D01*
X135898021Y-106723654D01*
X135798320Y-106656355D01*
X135680380Y-106632703D01*
X134679620Y-106632703D01*
X134650000Y-106638449D01*
X134650000Y-105588574D01*
X134708359Y-105530317D01*
X134799896Y-105309871D01*
X134800104Y-105071176D01*
X134708952Y-104850571D01*
X134540317Y-104681641D01*
X134319871Y-104590104D01*
X134081176Y-104589896D01*
X133860571Y-104681048D01*
X133691641Y-104849683D01*
X133600104Y-105070129D01*
X133599896Y-105308824D01*
X133691048Y-105529429D01*
X133750000Y-105588484D01*
X133750000Y-109553869D01*
X133630000Y-109530000D01*
X131580000Y-109530000D01*
X131312122Y-109583284D01*
X131085025Y-109735025D01*
X130933284Y-109962122D01*
X130880000Y-110230000D01*
X130933284Y-110497878D01*
X131085025Y-110724975D01*
X131312122Y-110876716D01*
X131580000Y-110930000D01*
X133630000Y-110930000D01*
X133897878Y-110876716D01*
X133910000Y-110868616D01*
X133910000Y-112690000D01*
X133944254Y-112862208D01*
X134041802Y-113008198D01*
X134189962Y-113156358D01*
X134335952Y-113253906D01*
X134335953Y-113253906D01*
X134373743Y-113261423D01*
X134373743Y-113287740D01*
X134395937Y-113402129D01*
X134461979Y-113502666D01*
X134561680Y-113569965D01*
X134672853Y-113592260D01*
X134619947Y-113592260D01*
X134509684Y-113637932D01*
X134425292Y-113722323D01*
X134379620Y-113832586D01*
X134379620Y-114042050D01*
X134454620Y-114117050D01*
X134929810Y-114117050D01*
X134929810Y-113971840D01*
X135430190Y-113971840D01*
X135430190Y-114117050D01*
X135905380Y-114117050D01*
X135980380Y-114042050D01*
X135980380Y-113873610D01*
X135991048Y-113899429D01*
X136159683Y-114068359D01*
X136380129Y-114159896D01*
X136618824Y-114160104D01*
X136839429Y-114068952D01*
X137008359Y-113900317D01*
X137099896Y-113679871D01*
X137100104Y-113441176D01*
X137008952Y-113220571D01*
X136840317Y-113051641D01*
X136619871Y-112960104D01*
X136536427Y-112960031D01*
X136096358Y-112519962D01*
X135986257Y-112446394D01*
X135986257Y-112388580D01*
X135964063Y-112274191D01*
X135937719Y-112234087D01*
X135980380Y-112131094D01*
X135980380Y-111921630D01*
X135905380Y-111846630D01*
X135430190Y-111846630D01*
X135430190Y-111991840D01*
X134929810Y-111991840D01*
X134929810Y-111846630D01*
X134810000Y-111846630D01*
X134810000Y-111397050D01*
X134929810Y-111397050D01*
X134929810Y-111251840D01*
X135430190Y-111251840D01*
X135430190Y-111397050D01*
X135905380Y-111397050D01*
X135980380Y-111322050D01*
X135980380Y-111112586D01*
X135934708Y-111002323D01*
X135850316Y-110917932D01*
X135740053Y-110872260D01*
X135687374Y-110872260D01*
X135794769Y-110851423D01*
X135895306Y-110785381D01*
X135956397Y-110694875D01*
X136069683Y-110808359D01*
X136290129Y-110899896D01*
X136528824Y-110900104D01*
X136749429Y-110808952D01*
X136918359Y-110640317D01*
X137009896Y-110419871D01*
X137010104Y-110181176D01*
X136939375Y-110010000D01*
X137800000Y-110010000D01*
X137972207Y-109975746D01*
X137972208Y-109975746D01*
X138118198Y-109878198D01*
X138626363Y-109370032D01*
X138708824Y-109370104D01*
X138929429Y-109278952D01*
X139098359Y-109110317D01*
X139189896Y-108889871D01*
X139190104Y-108651176D01*
X139098952Y-108430571D01*
X138930317Y-108261641D01*
X138741420Y-108183204D01*
X138741420Y-102660053D01*
X138741420Y-102540706D01*
X138741420Y-102425190D01*
X138741420Y-101774810D01*
X138741420Y-101659294D01*
X138741420Y-101539947D01*
X138695748Y-101429684D01*
X138611357Y-101345292D01*
X138501094Y-101299620D01*
X138291630Y-101299620D01*
X138216630Y-101374620D01*
X138216630Y-101849810D01*
X138666420Y-101849810D01*
X138741420Y-101774810D01*
X138741420Y-102425190D01*
X138666420Y-102350190D01*
X138216630Y-102350190D01*
X138216630Y-102825380D01*
X138291630Y-102900380D01*
X138501094Y-102900380D01*
X138611357Y-102854708D01*
X138695748Y-102770316D01*
X138741420Y-102660053D01*
X138741420Y-108183204D01*
X138709871Y-108170104D01*
X138471176Y-108169896D01*
X138250571Y-108261048D01*
X138081641Y-108429683D01*
X137990104Y-108650129D01*
X137990031Y-108733572D01*
X137613604Y-109110000D01*
X136410000Y-109110000D01*
X136237792Y-109144254D01*
X136091802Y-109241802D01*
X135980380Y-109353224D01*
X135980380Y-109191630D01*
X135905380Y-109116630D01*
X135430190Y-109116630D01*
X135430190Y-109261840D01*
X134929810Y-109261840D01*
X134929810Y-109116630D01*
X134810000Y-109116630D01*
X134810000Y-108667050D01*
X134929810Y-108667050D01*
X134929810Y-108521840D01*
X135430190Y-108521840D01*
X135430190Y-108667050D01*
X135905380Y-108667050D01*
X135980380Y-108592050D01*
X135980380Y-108382586D01*
X135934708Y-108272323D01*
X135850316Y-108187932D01*
X135740053Y-108142260D01*
X135687374Y-108142260D01*
X135794769Y-108121423D01*
X135895306Y-108055381D01*
X135962605Y-107955680D01*
X135986172Y-107838160D01*
X136261840Y-107838160D01*
X136278139Y-107834917D01*
X136278140Y-107834917D01*
X136290129Y-107839896D01*
X136528824Y-107840104D01*
X136749429Y-107748952D01*
X136918359Y-107580317D01*
X137009896Y-107359871D01*
X137010104Y-107121176D01*
X136940000Y-106951511D01*
X136940000Y-104446396D01*
X137558198Y-103828198D01*
X137655746Y-103682208D01*
X137655746Y-103682207D01*
X137690000Y-103510000D01*
X137690000Y-102900380D01*
X137692050Y-102900380D01*
X137767050Y-102825380D01*
X137767050Y-102350190D01*
X137690000Y-102350190D01*
X137690000Y-101849810D01*
X137767050Y-101849810D01*
X137767050Y-101374620D01*
X137692050Y-101299620D01*
X137690000Y-101299620D01*
X137690000Y-99030807D01*
X137695746Y-99022208D01*
X137695747Y-99022207D01*
X137730000Y-98850000D01*
X137730000Y-98798574D01*
X137788359Y-98740317D01*
X137813168Y-98680568D01*
X137980129Y-98749896D01*
X138063572Y-98749968D01*
X139530000Y-100216396D01*
X139530000Y-102020000D01*
X139564254Y-102192208D01*
X139661802Y-102338198D01*
X139899962Y-102576358D01*
X140013743Y-102652384D01*
X140013743Y-102707740D01*
X140035937Y-102822129D01*
X140101979Y-102922666D01*
X140201680Y-102989965D01*
X140312853Y-103012260D01*
X140259947Y-103012260D01*
X140149684Y-103057932D01*
X140065292Y-103142323D01*
X140019620Y-103252586D01*
X140019620Y-103462050D01*
X140094620Y-103537050D01*
X140569810Y-103537050D01*
X140569810Y-103391840D01*
X141070190Y-103391840D01*
X141070190Y-103537050D01*
X141545380Y-103537050D01*
X141620380Y-103462050D01*
X141620380Y-103252586D01*
X141574708Y-103142323D01*
X141490316Y-103057932D01*
X141380053Y-103012260D01*
X141327374Y-103012260D01*
X141434769Y-102991423D01*
X141535306Y-102925381D01*
X141602605Y-102825680D01*
X141626257Y-102707740D01*
X141626257Y-102707281D01*
X141638139Y-102704917D01*
X141638140Y-102704917D01*
X141650129Y-102709896D01*
X141888824Y-102710104D01*
X142109429Y-102618952D01*
X142278359Y-102450317D01*
X142369896Y-102229871D01*
X142370104Y-101991176D01*
X142278952Y-101770571D01*
X142110317Y-101601641D01*
X141889871Y-101510104D01*
X141651176Y-101509896D01*
X141620380Y-101522620D01*
X141620380Y-100971094D01*
X141620380Y-100761630D01*
X141545380Y-100686630D01*
X141070190Y-100686630D01*
X141070190Y-101136420D01*
X141145190Y-101211420D01*
X141260706Y-101211420D01*
X141380053Y-101211420D01*
X141490316Y-101165748D01*
X141574708Y-101081357D01*
X141620380Y-100971094D01*
X141620380Y-101522620D01*
X141504016Y-101570700D01*
X141438320Y-101526355D01*
X141320380Y-101502703D01*
X140430000Y-101502703D01*
X140430000Y-101211420D01*
X140494810Y-101211420D01*
X140569810Y-101136420D01*
X140569810Y-100686630D01*
X140450000Y-100686630D01*
X140450000Y-100237050D01*
X140569810Y-100237050D01*
X140569810Y-100091840D01*
X141070190Y-100091840D01*
X141070190Y-100237050D01*
X141545380Y-100237050D01*
X141620380Y-100162050D01*
X141620380Y-99952586D01*
X141574708Y-99842323D01*
X141490316Y-99757932D01*
X141380053Y-99712260D01*
X141327374Y-99712260D01*
X141434769Y-99691423D01*
X141535306Y-99625381D01*
X141579426Y-99560017D01*
X141678824Y-99560104D01*
X141899429Y-99468952D01*
X142068359Y-99300317D01*
X142159896Y-99079871D01*
X142159939Y-99030000D01*
X143890000Y-99030000D01*
X144062207Y-98995746D01*
X144062208Y-98995746D01*
X144208198Y-98898198D01*
X144630139Y-98476257D01*
X145081420Y-98476257D01*
X145195809Y-98454063D01*
X145296346Y-98388021D01*
X145363645Y-98288320D01*
X145387297Y-98170380D01*
X145387297Y-107827540D01*
X145131714Y-107933145D01*
X144624924Y-108439051D01*
X144350313Y-109100387D01*
X144349688Y-109816471D01*
X144623145Y-110478286D01*
X145129051Y-110985076D01*
X145790387Y-111259687D01*
X146506471Y-111260312D01*
X147168286Y-110986855D01*
X147675076Y-110480949D01*
X147949687Y-109819613D01*
X147950312Y-109103529D01*
X147950312Y-118843529D01*
X147676855Y-118181714D01*
X147170949Y-117674924D01*
X146509613Y-117400313D01*
X145793529Y-117399688D01*
X145131714Y-117673145D01*
X144624924Y-118179051D01*
X144350313Y-118840387D01*
X144349688Y-119556471D01*
X144623145Y-120218286D01*
X145129051Y-120725076D01*
X145790387Y-120999687D01*
X146506471Y-121000312D01*
X147168286Y-120726855D01*
X147675076Y-120220949D01*
X147949687Y-119559613D01*
X147950312Y-118843529D01*
X147950312Y-121160000D01*
X144079999Y-121160000D01*
X144079999Y-107660000D01*
X144019104Y-107353853D01*
X143845685Y-107094315D01*
X143586147Y-106920896D01*
X143280000Y-106860001D01*
X142973853Y-106920896D01*
X142714315Y-107094315D01*
X141620380Y-108188250D01*
X141620380Y-104271094D01*
X141620380Y-104061630D01*
X141545380Y-103986630D01*
X141070190Y-103986630D01*
X141070190Y-104436420D01*
X141145190Y-104511420D01*
X141260706Y-104511420D01*
X141380053Y-104511420D01*
X141490316Y-104465748D01*
X141574708Y-104381357D01*
X141620380Y-104271094D01*
X141620380Y-108188250D01*
X140654315Y-109154315D01*
X140569810Y-109280784D01*
X140569810Y-104436420D01*
X140569810Y-103986630D01*
X140094620Y-103986630D01*
X140019620Y-104061630D01*
X140019620Y-104271094D01*
X140065292Y-104381357D01*
X140149684Y-104465748D01*
X140259947Y-104511420D01*
X140379294Y-104511420D01*
X140494810Y-104511420D01*
X140569810Y-104436420D01*
X140569810Y-109280784D01*
X140480896Y-109413853D01*
X140420000Y-109720000D01*
X140420000Y-112970000D01*
X140480896Y-113276147D01*
X140654315Y-113535685D01*
X140913853Y-113709104D01*
X141220000Y-113770000D01*
X141526147Y-113709104D01*
X141785685Y-113535685D01*
X141959104Y-113276147D01*
X142020000Y-112970000D01*
X142020000Y-110051370D01*
X143845685Y-108225685D01*
X144019104Y-107966147D01*
X144079999Y-107660000D01*
X144079999Y-121160000D01*
X135980380Y-121160000D01*
X135980380Y-114851094D01*
X135980380Y-114641630D01*
X135905380Y-114566630D01*
X135430190Y-114566630D01*
X135430190Y-115016420D01*
X135505190Y-115091420D01*
X135620706Y-115091420D01*
X135740053Y-115091420D01*
X135850316Y-115045748D01*
X135934708Y-114961357D01*
X135980380Y-114851094D01*
X135980380Y-121160000D01*
X135300312Y-121160000D01*
X135300312Y-118843529D01*
X135026855Y-118181714D01*
X134929810Y-118084499D01*
X134929810Y-115016420D01*
X134929810Y-114566630D01*
X134454620Y-114566630D01*
X134379620Y-114641630D01*
X134379620Y-114851094D01*
X134425292Y-114961357D01*
X134509684Y-115045748D01*
X134619947Y-115091420D01*
X134739294Y-115091420D01*
X134854810Y-115091420D01*
X134929810Y-115016420D01*
X134929810Y-118084499D01*
X134520949Y-117674924D01*
X133859613Y-117400313D01*
X133350000Y-117399868D01*
X133350000Y-113220000D01*
X133350000Y-112700000D01*
X133296716Y-112432122D01*
X133144975Y-112205025D01*
X132917878Y-112053284D01*
X132650000Y-112000000D01*
X132382122Y-112053284D01*
X132155025Y-112205025D01*
X132003284Y-112432122D01*
X131950000Y-112700000D01*
X131950000Y-112930050D01*
X131690050Y-113190000D01*
X131420000Y-113190000D01*
X131152122Y-113243284D01*
X130925025Y-113395025D01*
X130773284Y-113622122D01*
X130720000Y-113890000D01*
X130773284Y-114157878D01*
X130925025Y-114384975D01*
X131152122Y-114536716D01*
X131420000Y-114590000D01*
X131980000Y-114590000D01*
X132247878Y-114536716D01*
X132247879Y-114536716D01*
X132474975Y-114384975D01*
X133144975Y-113714975D01*
X133296716Y-113487879D01*
X133296716Y-113487878D01*
X133350000Y-113220000D01*
X133350000Y-117399868D01*
X133143529Y-117399688D01*
X132481714Y-117673145D01*
X131974924Y-118179051D01*
X131700313Y-118840387D01*
X131699688Y-119556471D01*
X131973145Y-120218286D01*
X132479051Y-120725076D01*
X133140387Y-120999687D01*
X133856471Y-121000312D01*
X134518286Y-120726855D01*
X135025076Y-120220949D01*
X135299687Y-119559613D01*
X135300312Y-118843529D01*
X135300312Y-121160000D01*
X125342189Y-121160000D01*
X125342189Y-118812444D01*
X125342189Y-117729516D01*
X125327245Y-117599589D01*
X124981531Y-117204347D01*
X124510880Y-116971490D01*
X123510120Y-116971490D01*
X123510120Y-117920980D01*
X125334283Y-117920980D01*
X125342189Y-117729516D01*
X125342189Y-118812444D01*
X125334283Y-118620980D01*
X123510120Y-118620980D01*
X123510120Y-119570470D01*
X124510880Y-119570470D01*
X124981531Y-119337613D01*
X125327245Y-118942371D01*
X125342189Y-118812444D01*
X125342189Y-121160000D01*
X122810120Y-121160000D01*
X122810120Y-119570470D01*
X122810120Y-118620980D01*
X122810120Y-117920980D01*
X122810120Y-116971490D01*
X121809360Y-116971490D01*
X121338709Y-117204347D01*
X120992995Y-117599589D01*
X120978051Y-117729516D01*
X120985957Y-117920980D01*
X122810120Y-117920980D01*
X122810120Y-118620980D01*
X120985957Y-118620980D01*
X120978051Y-118812444D01*
X120992995Y-118942371D01*
X121338709Y-119337613D01*
X121809360Y-119570470D01*
X122810120Y-119570470D01*
X122810120Y-121160000D01*
X119558920Y-121160000D01*
X119558920Y-115144163D01*
X119558920Y-113320000D01*
X119558920Y-112620000D01*
X119558920Y-110795837D01*
X119367456Y-110787931D01*
X119237529Y-110802875D01*
X118842287Y-111148589D01*
X118609430Y-111619240D01*
X118609430Y-112620000D01*
X119558920Y-112620000D01*
X119558920Y-113320000D01*
X118609430Y-113320000D01*
X118609430Y-114320760D01*
X118842287Y-114791411D01*
X119237529Y-115137125D01*
X119367456Y-115152069D01*
X119558920Y-115144163D01*
X119558920Y-121160000D01*
X118250000Y-121160000D01*
X118250000Y-85880000D01*
X148470000Y-85880000D01*
X148470000Y-121160000D01*
M02*
