G04 #@! TF.FileFunction,Legend,Bot*
%FSLAX46Y46*%
G04 Gerber Fmt 4.6, Leading zero omitted, Abs format (unit mm)*
G04 Created by KiCad (PCBNEW (2015-03-13 BZR 5510)-product) date ons  4 nov 2015 02:41:53*
%MOMM*%
G01*
G04 APERTURE LIST*
%ADD10C,0.100000*%
%ADD11C,0.275000*%
%ADD12C,1.000000*%
%ADD13C,0.200000*%
%ADD14C,0.300000*%
%ADD15C,0.127000*%
%ADD16C,0.119380*%
%ADD17O,4.100500X2.098980*%
%ADD18O,2.098980X4.100500*%
%ADD19O,2.098980X4.600880*%
%ADD20O,1.400000X1.900000*%
%ADD21R,0.897560X0.897560*%
%ADD22R,0.999160X1.100760*%
%ADD23R,1.100760X0.999160*%
%ADD24R,1.300000X1.850000*%
%ADD25C,3.100000*%
%ADD26R,1.400480X1.900860*%
%ADD27R,3.899840X1.900860*%
%ADD28R,2.299640X1.624000*%
%ADD29O,2.299640X1.624000*%
G04 APERTURE END LIST*
D10*
D11*
X138537142Y-104597619D02*
X138170475Y-105697619D01*
X137803809Y-104597619D01*
X137018095Y-105645238D02*
X137122857Y-105697619D01*
X137332380Y-105697619D01*
X137437142Y-105645238D01*
X137489523Y-105540476D01*
X137489523Y-105121429D01*
X137437142Y-105016667D01*
X137332380Y-104964286D01*
X137122857Y-104964286D01*
X137018095Y-105016667D01*
X136965714Y-105121429D01*
X136965714Y-105226190D01*
X137489523Y-105330952D01*
X136494285Y-105697619D02*
X136494285Y-104964286D01*
X136494285Y-105173810D02*
X136441904Y-105069048D01*
X136389523Y-105016667D01*
X136284761Y-104964286D01*
X136180000Y-104964286D01*
X134399048Y-105697619D02*
X135027619Y-105697619D01*
X134713333Y-105697619D02*
X134713333Y-104597619D01*
X134818095Y-104754762D01*
X134922857Y-104859524D01*
X135027619Y-104911905D01*
X133927619Y-105592857D02*
X133875238Y-105645238D01*
X133927619Y-105697619D01*
X133980000Y-105645238D01*
X133927619Y-105592857D01*
X133927619Y-105697619D01*
X133194285Y-104597619D02*
X133089524Y-104597619D01*
X132984762Y-104650000D01*
X132932381Y-104702381D01*
X132880000Y-104807143D01*
X132827619Y-105016667D01*
X132827619Y-105278571D01*
X132880000Y-105488095D01*
X132932381Y-105592857D01*
X132984762Y-105645238D01*
X133089524Y-105697619D01*
X133194285Y-105697619D01*
X133299047Y-105645238D01*
X133351428Y-105592857D01*
X133403809Y-105488095D01*
X133456190Y-105278571D01*
X133456190Y-105016667D01*
X133403809Y-104807143D01*
X133351428Y-104702381D01*
X133299047Y-104650000D01*
X133194285Y-104597619D01*
D12*
X143470000Y-99700000D02*
X142230000Y-99700000D01*
D11*
X146277618Y-113770119D02*
X146068095Y-113770119D01*
X145963333Y-113822500D01*
X145858571Y-113927262D01*
X145806190Y-114136786D01*
X145806190Y-114503452D01*
X145858571Y-114712976D01*
X145963333Y-114817738D01*
X146068095Y-114870119D01*
X146277618Y-114870119D01*
X146382380Y-114817738D01*
X146487142Y-114712976D01*
X146539523Y-114503452D01*
X146539523Y-114136786D01*
X146487142Y-113927262D01*
X146382380Y-113822500D01*
X146277618Y-113770119D01*
X144863333Y-114817738D02*
X144968095Y-114870119D01*
X145177618Y-114870119D01*
X145282380Y-114817738D01*
X145334761Y-114765357D01*
X145387142Y-114660595D01*
X145387142Y-114346310D01*
X145334761Y-114241548D01*
X145282380Y-114189167D01*
X145177618Y-114136786D01*
X144968095Y-114136786D01*
X144863333Y-114189167D01*
X144549047Y-114136786D02*
X144129999Y-114136786D01*
X144391904Y-113770119D02*
X144391904Y-114712976D01*
X144339523Y-114817738D01*
X144234761Y-114870119D01*
X144129999Y-114870119D01*
X143606190Y-114870119D02*
X143710952Y-114817738D01*
X143763333Y-114765357D01*
X143815714Y-114660595D01*
X143815714Y-114346310D01*
X143763333Y-114241548D01*
X143710952Y-114189167D01*
X143606190Y-114136786D01*
X143449048Y-114136786D01*
X143344286Y-114189167D01*
X143291905Y-114241548D01*
X143239524Y-114346310D01*
X143239524Y-114660595D01*
X143291905Y-114765357D01*
X143344286Y-114817738D01*
X143449048Y-114870119D01*
X143606190Y-114870119D01*
X142768095Y-114870119D02*
X142768095Y-113770119D01*
X142768095Y-114189167D02*
X142663333Y-114136786D01*
X142453810Y-114136786D01*
X142349048Y-114189167D01*
X142296667Y-114241548D01*
X142244286Y-114346310D01*
X142244286Y-114660595D01*
X142296667Y-114765357D01*
X142349048Y-114817738D01*
X142453810Y-114870119D01*
X142663333Y-114870119D01*
X142768095Y-114817738D01*
X141353810Y-114817738D02*
X141458572Y-114870119D01*
X141668095Y-114870119D01*
X141772857Y-114817738D01*
X141825238Y-114712976D01*
X141825238Y-114293929D01*
X141772857Y-114189167D01*
X141668095Y-114136786D01*
X141458572Y-114136786D01*
X141353810Y-114189167D01*
X141301429Y-114293929D01*
X141301429Y-114398690D01*
X141825238Y-114503452D01*
X140830000Y-114870119D02*
X140830000Y-114136786D01*
X140830000Y-114346310D02*
X140777619Y-114241548D01*
X140725238Y-114189167D01*
X140620476Y-114136786D01*
X140515715Y-114136786D01*
X145465714Y-115689881D02*
X145413333Y-115637500D01*
X145308571Y-115585119D01*
X145046667Y-115585119D01*
X144941905Y-115637500D01*
X144889524Y-115689881D01*
X144837143Y-115794643D01*
X144837143Y-115899405D01*
X144889524Y-116056548D01*
X145518095Y-116685119D01*
X144837143Y-116685119D01*
X144156190Y-115585119D02*
X144051429Y-115585119D01*
X143946667Y-115637500D01*
X143894286Y-115689881D01*
X143841905Y-115794643D01*
X143789524Y-116004167D01*
X143789524Y-116266071D01*
X143841905Y-116475595D01*
X143894286Y-116580357D01*
X143946667Y-116632738D01*
X144051429Y-116685119D01*
X144156190Y-116685119D01*
X144260952Y-116632738D01*
X144313333Y-116580357D01*
X144365714Y-116475595D01*
X144418095Y-116266071D01*
X144418095Y-116004167D01*
X144365714Y-115794643D01*
X144313333Y-115689881D01*
X144260952Y-115637500D01*
X144156190Y-115585119D01*
X142741905Y-116685119D02*
X143370476Y-116685119D01*
X143056190Y-116685119D02*
X143056190Y-115585119D01*
X143160952Y-115742262D01*
X143265714Y-115847024D01*
X143370476Y-115899405D01*
X141746667Y-115585119D02*
X142270476Y-115585119D01*
X142322857Y-116108929D01*
X142270476Y-116056548D01*
X142165714Y-116004167D01*
X141903810Y-116004167D01*
X141799048Y-116056548D01*
X141746667Y-116108929D01*
X141694286Y-116213690D01*
X141694286Y-116475595D01*
X141746667Y-116580357D01*
X141799048Y-116632738D01*
X141903810Y-116685119D01*
X142165714Y-116685119D01*
X142270476Y-116632738D01*
X142322857Y-116580357D01*
X146267995Y-104740889D02*
X146527267Y-104481616D01*
X146934695Y-104889044D02*
X146156878Y-104111227D01*
X145786489Y-104481616D01*
X146267995Y-105555745D02*
X145749450Y-105037200D01*
X145897606Y-105185356D02*
X145786489Y-105148317D01*
X145712411Y-105148317D01*
X145601294Y-105185356D01*
X145527217Y-105259433D01*
X145453139Y-106296523D02*
X145564256Y-106259484D01*
X145712411Y-106111329D01*
X145749450Y-106000212D01*
X145712411Y-105889095D01*
X145416100Y-105592784D01*
X145304983Y-105555745D01*
X145193866Y-105592784D01*
X145045711Y-105740939D01*
X145008672Y-105852056D01*
X145045711Y-105963173D01*
X145119788Y-106037250D01*
X145564255Y-105740939D01*
X144786438Y-107037301D02*
X144008621Y-106259484D01*
X144749399Y-107000262D02*
X144860516Y-106963223D01*
X145008671Y-106815068D01*
X145045710Y-106703951D01*
X145045710Y-106629873D01*
X145008671Y-106518756D01*
X144786438Y-106296523D01*
X144675321Y-106259484D01*
X144601244Y-106259484D01*
X144490127Y-106296523D01*
X144341972Y-106444679D01*
X144304933Y-106555795D01*
X144416049Y-107407691D02*
X143897504Y-106889146D01*
X144045660Y-107037302D02*
X143934543Y-107000263D01*
X143860465Y-107000263D01*
X143749348Y-107037302D01*
X143675271Y-107111379D01*
X143934543Y-107889197D02*
X143415998Y-107370652D01*
X143156725Y-107111379D02*
X143230803Y-107111379D01*
X143230803Y-107185457D01*
X143156725Y-107185457D01*
X143156725Y-107111379D01*
X143230803Y-107185457D01*
X143564153Y-108259586D02*
X142786336Y-107481769D01*
X143193764Y-108037352D02*
X143267842Y-108555897D01*
X142749298Y-108037352D02*
X143341920Y-108037352D01*
X142156674Y-109222598D02*
X141786285Y-109592987D01*
X142452986Y-109370754D02*
X141415896Y-108852209D01*
X141934441Y-109889298D01*
X141415896Y-108852209D02*
X141452935Y-108741092D01*
X141415896Y-108629975D01*
X141304779Y-108592936D01*
X141193662Y-108629975D01*
X141156624Y-108741091D01*
X141193663Y-108852208D01*
X141304780Y-108889247D01*
X141415896Y-108852209D01*
X141675168Y-110148571D02*
X140897351Y-109370754D01*
X141304779Y-109926337D02*
X141378858Y-110444882D01*
X140860313Y-109926337D02*
X141452935Y-109926337D01*
X140712157Y-111037505D02*
X140823274Y-111000466D01*
X140971429Y-110852311D01*
X141008468Y-110741194D01*
X140971429Y-110630077D01*
X140675118Y-110333766D01*
X140564001Y-110296727D01*
X140452884Y-110333766D01*
X140304729Y-110481921D01*
X140267690Y-110593038D01*
X140304729Y-110704155D01*
X140378806Y-110778232D01*
X140823273Y-110481921D01*
X140378806Y-111444933D02*
X139860262Y-110926389D01*
X140008417Y-111074544D02*
X139897301Y-111037505D01*
X139823223Y-111037505D01*
X139712106Y-111074544D01*
X139638028Y-111148622D01*
X139786184Y-112037556D02*
X139823223Y-111926439D01*
X139786184Y-111815322D01*
X139119483Y-111148622D01*
X138637978Y-112148672D02*
X139156523Y-112667217D01*
X138971328Y-111815322D02*
X139378756Y-112222750D01*
X139415795Y-112333867D01*
X139378756Y-112444984D01*
X139267640Y-112556100D01*
X139156523Y-112593139D01*
X139082445Y-112593139D01*
X138267588Y-112519062D02*
X138786133Y-113037606D01*
X138341666Y-112593140D02*
X138267588Y-112593140D01*
X138156471Y-112630179D01*
X138045355Y-112741295D01*
X138008316Y-112852412D01*
X138045355Y-112963529D01*
X138452783Y-113370956D01*
X137749044Y-114074696D02*
X136971226Y-113296878D01*
X137712005Y-114037657D02*
X137823122Y-114000618D01*
X137971277Y-113852463D01*
X138008316Y-113741346D01*
X138008316Y-113667268D01*
X137971277Y-113556151D01*
X137749044Y-113333918D01*
X137637927Y-113296879D01*
X137563849Y-113296879D01*
X137452732Y-113333918D01*
X137304577Y-113482073D01*
X137267538Y-113593190D01*
D12*
X128510000Y-99710000D02*
G75*
G03X148300000Y-119480000I19780000J10000D01*
G01*
X130720000Y-117240000D02*
X133040000Y-114920000D01*
X148290000Y-99670000D02*
X130720000Y-117240000D01*
X148320000Y-121010000D02*
X148320000Y-86020000D01*
X128520000Y-98190000D02*
X127050000Y-99660000D01*
X128550000Y-98250000D02*
X129990000Y-99690000D01*
X128560000Y-98310000D02*
X128560000Y-99680000D01*
X124230000Y-99700000D02*
X124200000Y-99700000D01*
X139400000Y-99700000D02*
X124200000Y-99700000D01*
X142560000Y-99700000D02*
X148320000Y-99700000D01*
X125880000Y-93590000D02*
X125880000Y-96660000D01*
X127190000Y-94360000D02*
X126170000Y-93340000D01*
X127180000Y-94370000D02*
X127190000Y-94360000D01*
X127170000Y-94360000D02*
X127180000Y-94370000D01*
X127140000Y-94360000D02*
X127170000Y-94360000D01*
X126780000Y-94360000D02*
X127140000Y-94360000D01*
X126790000Y-94350000D02*
X126780000Y-94360000D01*
X125730000Y-94350000D02*
X126790000Y-94350000D01*
X125950000Y-93120000D02*
X126630000Y-93800000D01*
X124610000Y-94350000D02*
X124560000Y-94350000D01*
X125860000Y-93100000D02*
X124610000Y-94350000D01*
X119750000Y-94350000D02*
X119750000Y-90550000D01*
X125910000Y-94350000D02*
X119750000Y-94350000D01*
X125910000Y-93410000D02*
X125910000Y-94350000D01*
X118400000Y-86020000D02*
X118400000Y-89100000D01*
X148320000Y-86020000D02*
X118400000Y-86020000D01*
X118400000Y-121010000D02*
X148320000Y-121010000D01*
X118400000Y-120590000D02*
X118400000Y-121010000D01*
X118400000Y-88880000D02*
X118400000Y-120590000D01*
D13*
X127970000Y-88570000D02*
X124640000Y-88570000D01*
X122190000Y-88570000D02*
X122190000Y-89800000D01*
X122910000Y-88570000D02*
X122190000Y-88570000D01*
X122190000Y-90560000D02*
X122190000Y-89800000D01*
X124520000Y-92620000D02*
X123940000Y-92620000D01*
X123940000Y-92620000D02*
X122420000Y-92620000D01*
X122190000Y-92450000D02*
X122190000Y-92620000D01*
X122190000Y-92260000D02*
X122190000Y-92450000D01*
X122190000Y-91580000D02*
X122190000Y-92260000D01*
X122420000Y-92620000D02*
X122200000Y-92620000D01*
X127100000Y-92620000D02*
X124520000Y-92620000D01*
X127860000Y-88570000D02*
X127860000Y-92630000D01*
D14*
X131957142Y-90068571D02*
X132014285Y-90125714D01*
X132185714Y-90182857D01*
X132300000Y-90182857D01*
X132471428Y-90125714D01*
X132585714Y-90011429D01*
X132642857Y-89897143D01*
X132700000Y-89668571D01*
X132700000Y-89497143D01*
X132642857Y-89268571D01*
X132585714Y-89154286D01*
X132471428Y-89040000D01*
X132300000Y-88982857D01*
X132185714Y-88982857D01*
X132014285Y-89040000D01*
X131957142Y-89097143D01*
X130871428Y-90182857D02*
X131442857Y-90182857D01*
X131442857Y-88982857D01*
X129785713Y-90182857D02*
X130185713Y-89611429D01*
X130471428Y-90182857D02*
X130471428Y-88982857D01*
X130014285Y-88982857D01*
X129899999Y-89040000D01*
X129842856Y-89097143D01*
X129785713Y-89211429D01*
X129785713Y-89382857D01*
X129842856Y-89497143D01*
X129899999Y-89554286D01*
X130014285Y-89611429D01*
X130471428Y-89611429D01*
X128357142Y-89382857D02*
X129271428Y-89725714D01*
X128357142Y-90068571D01*
X132757143Y-91820000D02*
X132185714Y-91820000D01*
X132871428Y-92162857D02*
X132471428Y-90962857D01*
X132071428Y-92162857D01*
X131671429Y-92162857D02*
X131671429Y-90962857D01*
X130985714Y-92162857D01*
X130985714Y-90962857D01*
X129785714Y-91020000D02*
X129900000Y-90962857D01*
X130071429Y-90962857D01*
X130242857Y-91020000D01*
X130357143Y-91134286D01*
X130414286Y-91248571D01*
X130471429Y-91477143D01*
X130471429Y-91648571D01*
X130414286Y-91877143D01*
X130357143Y-91991429D01*
X130242857Y-92105714D01*
X130071429Y-92162857D01*
X129957143Y-92162857D01*
X129785714Y-92105714D01*
X129728571Y-92048571D01*
X129728571Y-91648571D01*
X129957143Y-91648571D01*
X128300000Y-91362857D02*
X129214286Y-91705714D01*
X128300000Y-92048571D01*
D13*
X128360000Y-88570000D02*
X127940000Y-88570000D01*
X133670000Y-92620000D02*
X127100000Y-92620000D01*
X137920000Y-90370000D02*
X137920000Y-88590000D01*
X137920000Y-90560000D02*
X137920000Y-90370000D01*
X137930000Y-92610000D02*
X137970000Y-92610000D01*
X137930000Y-91390000D02*
X137930000Y-92610000D01*
X137930000Y-90560000D02*
X137940000Y-90560000D01*
X137930000Y-91400000D02*
X137930000Y-90560000D01*
X143960000Y-90550000D02*
X143950000Y-90550000D01*
X143960000Y-92620000D02*
X143960000Y-90550000D01*
X143960000Y-92620000D02*
X143960000Y-92610000D01*
X133430000Y-92620000D02*
X143960000Y-92620000D01*
X133370000Y-92620000D02*
X133430000Y-92620000D01*
X133370000Y-92360000D02*
X133370000Y-92620000D01*
X133370000Y-92350000D02*
X133370000Y-92510000D01*
X133370000Y-91310000D02*
X133370000Y-92560000D01*
X133380000Y-90560000D02*
X133380000Y-88640000D01*
X133370000Y-90550000D02*
X133380000Y-90550000D01*
X133370000Y-91510000D02*
X133370000Y-90550000D01*
X143960000Y-88570000D02*
X128350000Y-88570000D01*
X143960000Y-88750000D02*
X143960000Y-88570000D01*
X143960000Y-90560000D02*
X143960000Y-88750000D01*
X122190000Y-90560000D02*
X122190000Y-91720000D01*
X141320000Y-90560000D02*
X122190000Y-90560000D01*
X141320000Y-90560000D02*
X143940000Y-90560000D01*
D14*
X137044286Y-90125714D02*
X136872857Y-90182857D01*
X136587143Y-90182857D01*
X136472857Y-90125714D01*
X136415714Y-90068571D01*
X136358571Y-89954286D01*
X136358571Y-89840000D01*
X136415714Y-89725714D01*
X136472857Y-89668571D01*
X136587143Y-89611429D01*
X136815714Y-89554286D01*
X136930000Y-89497143D01*
X136987143Y-89440000D01*
X137044286Y-89325714D01*
X137044286Y-89211429D01*
X136987143Y-89097143D01*
X136930000Y-89040000D01*
X136815714Y-88982857D01*
X136530000Y-88982857D01*
X136358571Y-89040000D01*
X135901429Y-89840000D02*
X135330000Y-89840000D01*
X136015714Y-90182857D02*
X135615714Y-88982857D01*
X135215714Y-90182857D01*
X134987143Y-88982857D02*
X134301429Y-88982857D01*
X134644286Y-90182857D02*
X134644286Y-88982857D01*
X137272857Y-92105714D02*
X137101428Y-92162857D01*
X136815714Y-92162857D01*
X136701428Y-92105714D01*
X136644285Y-92048571D01*
X136587142Y-91934286D01*
X136587142Y-91820000D01*
X136644285Y-91705714D01*
X136701428Y-91648571D01*
X136815714Y-91591429D01*
X137044285Y-91534286D01*
X137158571Y-91477143D01*
X137215714Y-91420000D01*
X137272857Y-91305714D01*
X137272857Y-91191429D01*
X137215714Y-91077143D01*
X137158571Y-91020000D01*
X137044285Y-90962857D01*
X136758571Y-90962857D01*
X136587142Y-91020000D01*
X136072857Y-92162857D02*
X136072857Y-90962857D01*
X135615714Y-90962857D01*
X135501428Y-91020000D01*
X135444285Y-91077143D01*
X135387142Y-91191429D01*
X135387142Y-91362857D01*
X135444285Y-91477143D01*
X135501428Y-91534286D01*
X135615714Y-91591429D01*
X136072857Y-91591429D01*
X134872857Y-92162857D02*
X134872857Y-90962857D01*
X134587142Y-90962857D01*
X134415714Y-91020000D01*
X134301428Y-91134286D01*
X134244285Y-91248571D01*
X134187142Y-91477143D01*
X134187142Y-91648571D01*
X134244285Y-91877143D01*
X134301428Y-91991429D01*
X134415714Y-92105714D01*
X134587142Y-92162857D01*
X134872857Y-92162857D01*
X141065715Y-90192857D02*
X141065715Y-88992857D01*
X140494286Y-90192857D02*
X140494286Y-88992857D01*
X139808571Y-90192857D01*
X139808571Y-88992857D01*
X139408571Y-88992857D02*
X138722857Y-88992857D01*
X139065714Y-90192857D02*
X139065714Y-88992857D01*
X140665713Y-92172857D02*
X141065713Y-91601429D01*
X141351428Y-92172857D02*
X141351428Y-90972857D01*
X140894285Y-90972857D01*
X140779999Y-91030000D01*
X140722856Y-91087143D01*
X140665713Y-91201429D01*
X140665713Y-91372857D01*
X140722856Y-91487143D01*
X140779999Y-91544286D01*
X140894285Y-91601429D01*
X141351428Y-91601429D01*
X140151428Y-91544286D02*
X139751428Y-91544286D01*
X139579999Y-92172857D02*
X140151428Y-92172857D01*
X140151428Y-90972857D01*
X139579999Y-90972857D01*
X139237142Y-90972857D02*
X138837142Y-92172857D01*
X138437142Y-90972857D01*
D15*
X128849720Y-94219620D02*
X128849720Y-95220380D01*
X128250280Y-95220380D02*
X128250280Y-94219620D01*
X128550000Y-94620940D02*
X128550000Y-94819060D01*
X128450940Y-94920660D02*
X128450940Y-94519340D01*
X128450940Y-94519340D02*
X128649060Y-94720000D01*
X128649060Y-94720000D02*
X128450940Y-94920660D01*
X131388800Y-103013600D02*
X131388800Y-103826400D01*
X130271200Y-103801000D02*
X130271200Y-103013600D01*
X130017200Y-103826400D02*
X131642800Y-103826400D01*
X131642800Y-103826400D02*
X131642800Y-103013600D01*
X131642800Y-103013600D02*
X130017200Y-103013600D01*
X130017200Y-103013600D02*
X130017200Y-103826400D01*
X136681200Y-102506400D02*
X136681200Y-101693600D01*
X137798800Y-101719000D02*
X137798800Y-102506400D01*
X138052800Y-101693600D02*
X136427200Y-101693600D01*
X136427200Y-101693600D02*
X136427200Y-102506400D01*
X136427200Y-102506400D02*
X138052800Y-102506400D01*
X138052800Y-102506400D02*
X138052800Y-101693600D01*
X131141200Y-102506400D02*
X131141200Y-101693600D01*
X132258800Y-101719000D02*
X132258800Y-102506400D01*
X132512800Y-101693600D02*
X130887200Y-101693600D01*
X130887200Y-101693600D02*
X130887200Y-102506400D01*
X130887200Y-102506400D02*
X132512800Y-102506400D01*
X132512800Y-102506400D02*
X132512800Y-101693600D01*
X134728800Y-97783600D02*
X134728800Y-98596400D01*
X133611200Y-98571000D02*
X133611200Y-97783600D01*
X133357200Y-98596400D02*
X134982800Y-98596400D01*
X134982800Y-98596400D02*
X134982800Y-97783600D01*
X134982800Y-97783600D02*
X133357200Y-97783600D01*
X133357200Y-97783600D02*
X133357200Y-98596400D01*
X139333600Y-94551200D02*
X140146400Y-94551200D01*
X140121000Y-95668800D02*
X139333600Y-95668800D01*
X140146400Y-95922800D02*
X140146400Y-94297200D01*
X140146400Y-94297200D02*
X139333600Y-94297200D01*
X139333600Y-94297200D02*
X139333600Y-95922800D01*
X139333600Y-95922800D02*
X140146400Y-95922800D01*
X133921200Y-102506400D02*
X133921200Y-101693600D01*
X135038800Y-101719000D02*
X135038800Y-102506400D01*
X135292800Y-101693600D02*
X133667200Y-101693600D01*
X133667200Y-101693600D02*
X133667200Y-102506400D01*
X133667200Y-102506400D02*
X135292800Y-102506400D01*
X135292800Y-102506400D02*
X135292800Y-101693600D01*
X134773600Y-113031200D02*
X135586400Y-113031200D01*
X135561000Y-114148800D02*
X134773600Y-114148800D01*
X135586400Y-114402800D02*
X135586400Y-112777200D01*
X135586400Y-112777200D02*
X134773600Y-112777200D01*
X134773600Y-112777200D02*
X134773600Y-114402800D01*
X134773600Y-114402800D02*
X135586400Y-114402800D01*
X134773600Y-110311200D02*
X135586400Y-110311200D01*
X135561000Y-111428800D02*
X134773600Y-111428800D01*
X135586400Y-111682800D02*
X135586400Y-110057200D01*
X135586400Y-110057200D02*
X134773600Y-110057200D01*
X134773600Y-110057200D02*
X134773600Y-111682800D01*
X134773600Y-111682800D02*
X135586400Y-111682800D01*
X134773600Y-107581200D02*
X135586400Y-107581200D01*
X135561000Y-108698800D02*
X134773600Y-108698800D01*
X135586400Y-108952800D02*
X135586400Y-107327200D01*
X135586400Y-107327200D02*
X134773600Y-107327200D01*
X134773600Y-107327200D02*
X134773600Y-108952800D01*
X134773600Y-108952800D02*
X135586400Y-108952800D01*
X140413600Y-102451200D02*
X141226400Y-102451200D01*
X141201000Y-103568800D02*
X140413600Y-103568800D01*
X141226400Y-103822800D02*
X141226400Y-102197200D01*
X141226400Y-102197200D02*
X140413600Y-102197200D01*
X140413600Y-102197200D02*
X140413600Y-103822800D01*
X140413600Y-103822800D02*
X141226400Y-103822800D01*
X140413600Y-99151200D02*
X141226400Y-99151200D01*
X141201000Y-100268800D02*
X140413600Y-100268800D01*
X141226400Y-100522800D02*
X141226400Y-98897200D01*
X141226400Y-98897200D02*
X140413600Y-98897200D01*
X140413600Y-98897200D02*
X140413600Y-100522800D01*
X140413600Y-100522800D02*
X141226400Y-100522800D01*
X144438800Y-97263600D02*
X144438800Y-98076400D01*
X143321200Y-98051000D02*
X143321200Y-97263600D01*
X143067200Y-98076400D02*
X144692800Y-98076400D01*
X144692800Y-98076400D02*
X144692800Y-97263600D01*
X144692800Y-97263600D02*
X143067200Y-97263600D01*
X143067200Y-97263600D02*
X143067200Y-98076400D01*
X128629400Y-102165100D02*
X125530600Y-102165100D01*
X125530600Y-102165100D02*
X125530600Y-103955800D01*
X128629400Y-102165100D02*
X128629400Y-103955800D01*
X125187700Y-109454900D02*
X124374900Y-109454900D01*
X124374900Y-109454900D02*
X124374900Y-107664200D01*
X125187700Y-109454900D02*
X125187700Y-107664200D01*
X127486400Y-109454900D02*
X127486400Y-107664200D01*
X126673600Y-109454900D02*
X126673600Y-107664200D01*
X127486400Y-109454900D02*
X126673600Y-109454900D01*
X129785100Y-109454900D02*
X128972300Y-109454900D01*
X128972300Y-109454900D02*
X128972300Y-107664200D01*
X129785100Y-109454900D02*
X129785100Y-107664200D01*
X123727200Y-107664200D02*
X130432800Y-107664200D01*
X130432800Y-107664200D02*
X130432800Y-103955800D01*
X130432800Y-103955800D02*
X123727200Y-103955800D01*
X123727200Y-103955800D02*
X123727200Y-107664200D01*
X126229720Y-89019620D02*
X126229720Y-90020380D01*
X125630280Y-90020380D02*
X125630280Y-89019620D01*
X125930000Y-89420940D02*
X125930000Y-89619060D01*
X125830940Y-89720660D02*
X125830940Y-89319340D01*
X125830940Y-89319340D02*
X126029060Y-89520000D01*
X126029060Y-89520000D02*
X125830940Y-89720660D01*
X125129900Y-90020380D02*
X126730100Y-90020380D01*
X126730100Y-90020380D02*
X126730100Y-89019620D01*
X126730100Y-89019620D02*
X125129900Y-89019620D01*
X125129900Y-89019620D02*
X125129900Y-90020380D01*
X128859720Y-92879620D02*
X128859720Y-93880380D01*
X128260280Y-93880380D02*
X128260280Y-92879620D01*
X128560000Y-93280940D02*
X128560000Y-93479060D01*
X128460940Y-93580660D02*
X128460940Y-93179340D01*
X128460940Y-93179340D02*
X128659060Y-93380000D01*
X128659060Y-93380000D02*
X128460940Y-93580660D01*
X127759900Y-93880380D02*
X129360100Y-93880380D01*
X129360100Y-93880380D02*
X129360100Y-92879620D01*
X129360100Y-92879620D02*
X127759900Y-92879620D01*
X127759900Y-92879620D02*
X127759900Y-93880380D01*
X128839720Y-95509620D02*
X128839720Y-96510380D01*
X128240280Y-96510380D02*
X128240280Y-95509620D01*
X128540000Y-95910940D02*
X128540000Y-96109060D01*
X128440940Y-96210660D02*
X128440940Y-95809340D01*
X128440940Y-95809340D02*
X128639060Y-96010000D01*
X128639060Y-96010000D02*
X128440940Y-96210660D01*
X127739900Y-96510380D02*
X129340100Y-96510380D01*
X129340100Y-96510380D02*
X129340100Y-95509620D01*
X129340100Y-95509620D02*
X127739900Y-95509620D01*
X127739900Y-95509620D02*
X127739900Y-96510380D01*
X126229720Y-91069620D02*
X126229720Y-92070380D01*
X125630280Y-92070380D02*
X125630280Y-91069620D01*
X125930000Y-91470940D02*
X125930000Y-91669060D01*
X125830940Y-91770660D02*
X125830940Y-91369340D01*
X125830940Y-91369340D02*
X126029060Y-91570000D01*
X126029060Y-91570000D02*
X125830940Y-91770660D01*
X125129900Y-92070380D02*
X126730100Y-92070380D01*
X126730100Y-92070380D02*
X126730100Y-91069620D01*
X126730100Y-91069620D02*
X125129900Y-91069620D01*
X125129900Y-91069620D02*
X125129900Y-92070380D01*
X128839720Y-96839620D02*
X128839720Y-97840380D01*
X128240280Y-97840380D02*
X128240280Y-96839620D01*
X128540000Y-97240940D02*
X128540000Y-97439060D01*
X128440940Y-97540660D02*
X128440940Y-97139340D01*
X128440940Y-97139340D02*
X128639060Y-97340000D01*
X128639060Y-97340000D02*
X128440940Y-97540660D01*
X127739900Y-97840380D02*
X129340100Y-97840380D01*
X129340100Y-97840380D02*
X129340100Y-96839620D01*
X129340100Y-96839620D02*
X127739900Y-96839620D01*
X127739900Y-96839620D02*
X127739900Y-97840380D01*
D16*
X130901268Y-94438825D02*
X130872723Y-94410280D01*
X130815634Y-94381735D01*
X130672910Y-94381735D01*
X130615820Y-94410280D01*
X130587276Y-94438825D01*
X130558731Y-94495914D01*
X130558731Y-94553004D01*
X130587276Y-94638638D01*
X130929813Y-94981175D01*
X130558731Y-94981175D01*
D14*
X145060000Y-87364286D02*
X144888571Y-87421429D01*
X144831428Y-87478571D01*
X144774285Y-87592857D01*
X144774285Y-87764286D01*
X144831428Y-87878571D01*
X144888571Y-87935714D01*
X145002857Y-87992857D01*
X145460000Y-87992857D01*
X145460000Y-86792857D01*
X145060000Y-86792857D01*
X144945714Y-86850000D01*
X144888571Y-86907143D01*
X144831428Y-87021429D01*
X144831428Y-87135714D01*
X144888571Y-87250000D01*
X144945714Y-87307143D01*
X145060000Y-87364286D01*
X145460000Y-87364286D01*
X144431428Y-86792857D02*
X143745714Y-86792857D01*
X144088571Y-87992857D02*
X144088571Y-86792857D01*
X143345714Y-87992857D02*
X143345714Y-86792857D01*
X142659999Y-87992857D01*
X142659999Y-86792857D01*
X123588571Y-86862857D02*
X122902857Y-86862857D01*
X123245714Y-88062857D02*
X123245714Y-86862857D01*
X121874285Y-86920000D02*
X121988571Y-86862857D01*
X122160000Y-86862857D01*
X122331428Y-86920000D01*
X122445714Y-87034286D01*
X122502857Y-87148571D01*
X122560000Y-87377143D01*
X122560000Y-87548571D01*
X122502857Y-87777143D01*
X122445714Y-87891429D01*
X122331428Y-88005714D01*
X122160000Y-88062857D01*
X122045714Y-88062857D01*
X121874285Y-88005714D01*
X121817142Y-87948571D01*
X121817142Y-87548571D01*
X122045714Y-87548571D01*
X120731428Y-88062857D02*
X121302857Y-88062857D01*
X121302857Y-86862857D01*
D16*
X130568731Y-93681175D02*
X130911268Y-93681175D01*
X130739999Y-93681175D02*
X130739999Y-93081735D01*
X130797089Y-93167370D01*
X130854178Y-93224459D01*
X130911268Y-93253004D01*
X130939813Y-95681735D02*
X130568731Y-95681735D01*
X130768544Y-95910093D01*
X130682910Y-95910093D01*
X130625820Y-95938638D01*
X130597276Y-95967183D01*
X130568731Y-96024272D01*
X130568731Y-96166996D01*
X130597276Y-96224086D01*
X130625820Y-96252630D01*
X130682910Y-96281175D01*
X130854178Y-96281175D01*
X130911268Y-96252630D01*
X130939813Y-96224086D01*
X128982443Y-98710995D02*
X128982443Y-98111555D01*
X128839719Y-98111555D01*
X128754085Y-98140100D01*
X128696996Y-98197190D01*
X128668451Y-98254279D01*
X128639906Y-98368458D01*
X128639906Y-98454092D01*
X128668451Y-98568271D01*
X128696996Y-98625361D01*
X128754085Y-98682450D01*
X128839719Y-98710995D01*
X128982443Y-98710995D01*
X128126100Y-98111555D02*
X128240279Y-98111555D01*
X128297369Y-98140100D01*
X128325914Y-98168645D01*
X128383003Y-98254279D01*
X128411548Y-98368458D01*
X128411548Y-98596816D01*
X128383003Y-98653906D01*
X128354458Y-98682450D01*
X128297369Y-98710995D01*
X128183190Y-98710995D01*
X128126100Y-98682450D01*
X128097556Y-98653906D01*
X128069011Y-98596816D01*
X128069011Y-98454092D01*
X128097556Y-98397003D01*
X128126100Y-98368458D01*
X128183190Y-98339913D01*
X128297369Y-98339913D01*
X128354458Y-98368458D01*
X128383003Y-98397003D01*
X128411548Y-98454092D01*
X130625820Y-97221549D02*
X130625820Y-97621175D01*
X130768544Y-96993190D02*
X130911268Y-97421362D01*
X130540186Y-97421362D01*
D14*
X121872857Y-99611429D02*
X121872857Y-99840000D01*
X121930000Y-99954286D01*
X122044286Y-100068572D01*
X122272857Y-100125714D01*
X122672857Y-100125714D01*
X122901429Y-100068572D01*
X123015714Y-99954286D01*
X123072857Y-99840000D01*
X123072857Y-99611429D01*
X123015714Y-99497143D01*
X122901429Y-99382857D01*
X122672857Y-99325714D01*
X122272857Y-99325714D01*
X122044286Y-99382857D01*
X121930000Y-99497143D01*
X121872857Y-99611429D01*
X123072857Y-100640000D02*
X121872857Y-100640000D01*
X123072857Y-101325715D01*
X121872857Y-101325715D01*
X121815714Y-102754286D02*
X123358571Y-101725715D01*
X121872857Y-103382858D02*
X121872857Y-103611429D01*
X121930000Y-103725715D01*
X122044286Y-103840001D01*
X122272857Y-103897143D01*
X122672857Y-103897143D01*
X122901429Y-103840001D01*
X123015714Y-103725715D01*
X123072857Y-103611429D01*
X123072857Y-103382858D01*
X123015714Y-103268572D01*
X122901429Y-103154286D01*
X122672857Y-103097143D01*
X122272857Y-103097143D01*
X122044286Y-103154286D01*
X121930000Y-103268572D01*
X121872857Y-103382858D01*
X122444286Y-104811429D02*
X122444286Y-104411429D01*
X123072857Y-104411429D02*
X121872857Y-104411429D01*
X121872857Y-104982858D01*
X122444286Y-105840000D02*
X122444286Y-105440000D01*
X123072857Y-105440000D02*
X121872857Y-105440000D01*
X121872857Y-106011429D01*
%LPC*%
D17*
X123160120Y-118270980D03*
D18*
X119908920Y-112970000D03*
D19*
X125910940Y-112970000D03*
D20*
X136540000Y-87220000D03*
X141540000Y-87220000D03*
X146540000Y-87220000D03*
X128160000Y-87220000D03*
X133160000Y-87220000D03*
X138160000Y-87220000D03*
X119700000Y-87220000D03*
X124700000Y-87220000D03*
X129700000Y-87220000D03*
D21*
X127800700Y-94720000D03*
X129299300Y-94720000D03*
D22*
X131581840Y-103420000D03*
X130078160Y-103420000D03*
X136488160Y-102100000D03*
X137991840Y-102100000D03*
X130948160Y-102100000D03*
X132451840Y-102100000D03*
X134921840Y-98190000D03*
X133418160Y-98190000D03*
D23*
X139740000Y-94358160D03*
X139740000Y-95861840D03*
D22*
X133728160Y-102100000D03*
X135231840Y-102100000D03*
D23*
X135180000Y-112838160D03*
X135180000Y-114341840D03*
X135180000Y-110118160D03*
X135180000Y-111621840D03*
X135180000Y-107388160D03*
X135180000Y-108891840D03*
X140820000Y-102258160D03*
X140820000Y-103761840D03*
X140820000Y-98958160D03*
X140820000Y-100461840D03*
D22*
X144631840Y-97670000D03*
X143128160Y-97670000D03*
D24*
X146490000Y-95920000D03*
X142490000Y-95920000D03*
X146490000Y-89420000D03*
X142490000Y-89420000D03*
X123770000Y-95750000D03*
X119770000Y-95750000D03*
X123770000Y-89250000D03*
X119770000Y-89250000D03*
D25*
X146150000Y-109460000D03*
X146150000Y-119200000D03*
X133500000Y-119200000D03*
D26*
X129381240Y-108809740D03*
X127080000Y-108809740D03*
X124778760Y-108809740D03*
D27*
X127080000Y-102810260D03*
D21*
X125180700Y-89520000D03*
X126679300Y-89520000D03*
X127810700Y-93380000D03*
X129309300Y-93380000D03*
X127790700Y-96010000D03*
X129289300Y-96010000D03*
X125180700Y-91570000D03*
X126679300Y-91570000D03*
X127790700Y-97340000D03*
X129289300Y-97340000D03*
D28*
X119720000Y-105170000D03*
D29*
X119720000Y-102630000D03*
X119720000Y-100090000D03*
D28*
X123580000Y-114400000D03*
D29*
X123580000Y-111860000D03*
M02*
