M48
;DRILL file {kicad (2015-03-13 BZR 5510)-product} date tor 12 nov 2015 00:16:13
;FORMAT={-:-/ absolute / metric / decimal}
FMAT,2
METRIC,TZ
T1C0.300
T2C0.400
T3C0.800
T4C1.001
T5C2.000
%
G90
G05
M71
T1
X136.5Y-113.56
X137.31Y-111.44
X137.46Y-114.7
X138.13Y-96.47
X141.22Y-112.97
T2
X120.65Y-93.47
X121.9Y-98.39
X122.89Y-98.38
X123.76Y-94.41
X123.94Y-104.25
X124.84Y-107.05
X124.97Y-98.34
X125.15Y-90.51
X125.18Y-92.57
X125.94Y-96.76
X126.88Y-93.38
X126.89Y-94.72
X126.89Y-96.01
X126.92Y-96.86
X127.54Y-89.57
X127.55Y-91.57
X127.77Y-104.32
X127.81Y-99.8
X128.55Y-98.34
X128.95Y-112.44
X129.18Y-101.32
X129.29Y-92.27
X129.38Y-107.37
X129.46Y-102.77
X130.07Y-101.29
X130.27Y-110.32
X130.27Y-113.58
X130.27Y-116.83
X130.29Y-114.93
X130.32Y-93.4
X131.42Y-113.89
X131.58Y-110.23
X132.27Y-101.04
X132.31Y-99.56
X132.4Y-92.81
X132.51Y-103.29
X132.65Y-112.7
X132.8Y-95.08
X133.31Y-92.74
X133.42Y-98.83
X133.63Y-110.23
X133.64Y-91.59
X133.65Y-90.64
X133.73Y-103.29
X133.9Y-99.47
X134.14Y-89.58
X134.2Y-105.19
X134.98Y-96.16
X135.02Y-101.05
X135.51Y-103.31
X135.64Y-92.87
X135.88Y-96.19
X136.41Y-107.24
X136.41Y-110.3
X136.51Y-89.26
X136.51Y-90.79
X136.51Y-103.29
X136.55Y-98.68
X137.13Y-92.16
X137.14Y-96.17
X137.28Y-98.4
X137.45Y-108.5
X138.1Y-98.15
X138.13Y-97.34
X138.59Y-108.77
X138.86Y-102.1
X139.28Y-90.07
X140.85Y-95.92
X141.23Y-96.71
X141.26Y-95.13
X141.56Y-98.96
X141.77Y-102.11
X141.79Y-104.02
X142.8Y-94.02
X143.28Y-107.66
X143.48Y-92.76
X143.69Y-95.15
X144.55Y-95.15
X145.42Y-95.17
T3
X119.7Y-87.22
X124.7Y-87.22
X128.16Y-87.22
X129.7Y-87.22
X133.16Y-87.22
X136.54Y-87.22
X138.16Y-87.22
X141.54Y-87.22
X146.54Y-87.22
T4
X119.72Y-100.09
X119.72Y-102.63
X119.72Y-105.17
X123.58Y-111.86
X123.58Y-114.4
T5
X133.5Y-119.2
X146.15Y-109.46
X146.15Y-119.2
T4
X119.909Y-111.971G85X119.909Y-113.969
G05
X124.16Y-118.271G85X122.161Y-118.271
G05
X125.911Y-111.72G85X125.911Y-114.22
G05
T0
M30
