G04 #@! TF.FileFunction,Legend,Bot*
%FSLAX46Y46*%
G04 Gerber Fmt 4.6, Leading zero omitted, Abs format (unit mm)*
G04 Created by KiCad (PCBNEW 4.1.0-alpha+201608281547+7098~46~ubuntu16.04.1-product) date Sun Sep  4 14:55:36 2016*
%MOMM*%
%LPD*%
G01*
G04 APERTURE LIST*
%ADD10C,0.100000*%
%ADD11C,0.250000*%
%ADD12C,0.300000*%
%ADD13C,0.127000*%
%ADD14C,0.200660*%
%ADD15R,1.900860X1.400480*%
%ADD16R,1.900860X3.899840*%
%ADD17O,2.300000X1.624000*%
%ADD18R,0.999160X1.100760*%
%ADD19R,2.299640X1.624000*%
%ADD20O,2.299640X1.624000*%
%ADD21R,1.100760X0.999160*%
%ADD22R,1.624000X2.299640*%
%ADD23O,1.624000X2.299640*%
%ADD24O,2.098980X4.100500*%
%ADD25O,4.100500X2.098980*%
%ADD26O,4.600880X2.098980*%
%ADD27C,3.100000*%
%ADD28C,0.999160*%
%ADD29C,1.850060*%
G04 APERTURE END LIST*
D10*
D11*
X144161904Y-105607142D02*
X144161904Y-106807142D01*
X144542857Y-106807142D01*
X144638095Y-106750000D01*
X144685714Y-106692857D01*
X144733333Y-106578571D01*
X144733333Y-106407142D01*
X144685714Y-106292857D01*
X144638095Y-106235714D01*
X144542857Y-106178571D01*
X144161904Y-106178571D01*
X145495238Y-106235714D02*
X145638095Y-106178571D01*
X145685714Y-106121428D01*
X145733333Y-106007142D01*
X145733333Y-105835714D01*
X145685714Y-105721428D01*
X145638095Y-105664285D01*
X145542857Y-105607142D01*
X145161904Y-105607142D01*
X145161904Y-106807142D01*
X145495238Y-106807142D01*
X145590476Y-106750000D01*
X145638095Y-106692857D01*
X145685714Y-106578571D01*
X145685714Y-106464285D01*
X145638095Y-106350000D01*
X145590476Y-106292857D01*
X145495238Y-106235714D01*
X145161904Y-106235714D01*
X146638095Y-106807142D02*
X146161904Y-106807142D01*
X146114285Y-106235714D01*
X146161904Y-106292857D01*
X146257142Y-106350000D01*
X146495238Y-106350000D01*
X146590476Y-106292857D01*
X146638095Y-106235714D01*
X146685714Y-106121428D01*
X146685714Y-105835714D01*
X146638095Y-105721428D01*
X146590476Y-105664285D01*
X146495238Y-105607142D01*
X146257142Y-105607142D01*
X146161904Y-105664285D01*
X146114285Y-105721428D01*
X144161904Y-103107142D02*
X144161904Y-104307142D01*
X144542857Y-104307142D01*
X144638095Y-104250000D01*
X144685714Y-104192857D01*
X144733333Y-104078571D01*
X144733333Y-103907142D01*
X144685714Y-103792857D01*
X144638095Y-103735714D01*
X144542857Y-103678571D01*
X144161904Y-103678571D01*
X145495238Y-103735714D02*
X145638095Y-103678571D01*
X145685714Y-103621428D01*
X145733333Y-103507142D01*
X145733333Y-103335714D01*
X145685714Y-103221428D01*
X145638095Y-103164285D01*
X145542857Y-103107142D01*
X145161904Y-103107142D01*
X145161904Y-104307142D01*
X145495238Y-104307142D01*
X145590476Y-104250000D01*
X145638095Y-104192857D01*
X145685714Y-104078571D01*
X145685714Y-103964285D01*
X145638095Y-103850000D01*
X145590476Y-103792857D01*
X145495238Y-103735714D01*
X145161904Y-103735714D01*
X146590476Y-103907142D02*
X146590476Y-103107142D01*
X146352380Y-104364285D02*
X146114285Y-103507142D01*
X146733333Y-103507142D01*
X133850000Y-118310714D02*
X133850000Y-118786904D01*
X134192857Y-118215476D02*
X132992857Y-118548809D01*
X134192857Y-118882142D01*
X134192857Y-119215476D02*
X132992857Y-119215476D01*
X132992857Y-119453571D01*
X133050000Y-119596428D01*
X133164285Y-119691666D01*
X133278571Y-119739285D01*
X133507142Y-119786904D01*
X133678571Y-119786904D01*
X133907142Y-119739285D01*
X134021428Y-119691666D01*
X134135714Y-119596428D01*
X134192857Y-119453571D01*
X134192857Y-119215476D01*
X134078571Y-120786904D02*
X134135714Y-120739285D01*
X134192857Y-120596428D01*
X134192857Y-120501190D01*
X134135714Y-120358333D01*
X134021428Y-120263095D01*
X133907142Y-120215476D01*
X133678571Y-120167857D01*
X133507142Y-120167857D01*
X133278571Y-120215476D01*
X133164285Y-120263095D01*
X133050000Y-120358333D01*
X132992857Y-120501190D01*
X132992857Y-120596428D01*
X133050000Y-120739285D01*
X133107142Y-120786904D01*
X132992857Y-121405952D02*
X132992857Y-121501190D01*
X133050000Y-121596428D01*
X133107142Y-121644047D01*
X133221428Y-121691666D01*
X133450000Y-121739285D01*
X133735714Y-121739285D01*
X133964285Y-121691666D01*
X134078571Y-121644047D01*
X134135714Y-121596428D01*
X134192857Y-121501190D01*
X134192857Y-121405952D01*
X134135714Y-121310714D01*
X134078571Y-121263095D01*
X133964285Y-121215476D01*
X133735714Y-121167857D01*
X133450000Y-121167857D01*
X133221428Y-121215476D01*
X133107142Y-121263095D01*
X133050000Y-121310714D01*
X132992857Y-121405952D01*
D12*
X133428474Y-126348048D02*
X133145631Y-126630891D01*
X132590047Y-126075307D02*
X133650707Y-127135967D01*
X134054768Y-126731906D01*
X133317357Y-125347997D02*
X134024464Y-126055104D01*
X133822433Y-125853073D02*
X133963855Y-125913682D01*
X134054768Y-125923784D01*
X134186088Y-125893479D01*
X134266900Y-125812667D01*
X134216393Y-124549977D02*
X134085073Y-124580281D01*
X133923449Y-124741906D01*
X133893144Y-124873225D01*
X133953753Y-125014647D01*
X134357814Y-125418708D01*
X134499235Y-125479317D01*
X134630555Y-125449012D01*
X134792180Y-125287388D01*
X134822484Y-125156068D01*
X134761875Y-125014647D01*
X134660860Y-124913631D01*
X134155784Y-125216677D01*
X134933601Y-123731753D02*
X135994261Y-124792413D01*
X134984109Y-123782261D02*
X134852789Y-123812565D01*
X134691164Y-123974190D01*
X134660860Y-124105509D01*
X134670961Y-124196423D01*
X134731571Y-124337845D01*
X135034616Y-124640890D01*
X135176038Y-124701499D01*
X135266951Y-124711601D01*
X135398271Y-124681296D01*
X135559896Y-124519672D01*
X135590200Y-124388352D01*
X135337662Y-123327692D02*
X136044769Y-124034799D01*
X135842738Y-123832768D02*
X135984160Y-123893377D01*
X136075073Y-123903479D01*
X136206393Y-123873174D01*
X136287205Y-123792362D01*
X135862941Y-122802413D02*
X136570048Y-123509519D01*
X136923602Y-123863073D02*
X136832688Y-123852971D01*
X136822586Y-123762058D01*
X136913500Y-123772159D01*
X136923602Y-123863073D01*
X136822586Y-123762058D01*
X136267002Y-122398352D02*
X137327663Y-123459012D01*
X136751876Y-122721600D02*
X136590251Y-122075103D01*
X137297358Y-122782210D02*
X136570048Y-122701397D01*
X137863043Y-121408402D02*
X138267104Y-121004341D01*
X137479186Y-121186169D02*
X138822688Y-121963986D01*
X138044871Y-120620483D01*
X138822688Y-121963986D02*
X138792384Y-122095306D01*
X138852993Y-122236727D01*
X138994414Y-122297336D01*
X139125734Y-122267032D01*
X139156039Y-122135712D01*
X139095430Y-121994291D01*
X138954008Y-121933681D01*
X138822688Y-121963986D01*
X138327714Y-120337640D02*
X139388374Y-121398301D01*
X138812587Y-120660889D02*
X138650962Y-120014392D01*
X139358069Y-120721498D02*
X138630759Y-120640686D01*
X139388374Y-119377996D02*
X139257054Y-119408300D01*
X139095430Y-119569925D01*
X139065125Y-119701244D01*
X139125734Y-119842666D01*
X139529795Y-120246727D01*
X139671217Y-120307336D01*
X139802536Y-120277031D01*
X139964161Y-120115407D01*
X139994465Y-119984087D01*
X139933856Y-119842666D01*
X139832841Y-119741650D01*
X139327765Y-120044696D01*
X139741927Y-118923427D02*
X140449034Y-119630534D01*
X140247003Y-119428503D02*
X140388425Y-119489112D01*
X140479339Y-119499214D01*
X140610658Y-119468909D01*
X140691471Y-119388097D01*
X140388425Y-118276929D02*
X140358120Y-118408249D01*
X140418729Y-118549670D01*
X141327867Y-119458808D01*
X141782435Y-118297132D02*
X141075329Y-117590026D01*
X141418780Y-118660787D02*
X140863197Y-118105203D01*
X140802587Y-117963782D01*
X140832892Y-117832462D01*
X140954110Y-117711244D01*
X141085430Y-117680939D01*
X141176344Y-117691041D01*
X142186496Y-117893071D02*
X141479390Y-117185965D01*
X142085481Y-117792056D02*
X142176395Y-117802158D01*
X142307715Y-117771853D01*
X142428933Y-117650635D01*
X142459238Y-117519315D01*
X142398628Y-117377893D01*
X141843044Y-116822310D01*
X142610760Y-116054594D02*
X143671421Y-117115254D01*
X142661268Y-116105101D02*
X142529948Y-116135406D01*
X142368324Y-116297030D01*
X142338019Y-116428350D01*
X142348121Y-116519264D01*
X142408730Y-116660685D01*
X142711776Y-116963731D01*
X142853197Y-117024340D01*
X142944111Y-117034442D01*
X143075431Y-117004137D01*
X143237055Y-116842513D01*
X143267360Y-116711193D01*
X144065380Y-115408096D02*
X144711878Y-114761598D01*
X145368477Y-113397892D02*
X145439188Y-113226167D01*
X145641218Y-113024136D01*
X145772538Y-112993831D01*
X145863452Y-113003933D01*
X146004873Y-113064542D01*
X146105888Y-113165557D01*
X146166497Y-113306979D01*
X146176599Y-113397892D01*
X146146294Y-113529212D01*
X146035178Y-113741344D01*
X146004873Y-113872664D01*
X146014975Y-113963578D01*
X146075584Y-114104999D01*
X146176599Y-114206014D01*
X146318020Y-114266624D01*
X146408934Y-114276725D01*
X146540254Y-114246421D01*
X146742284Y-114044390D01*
X146812995Y-113872664D01*
X146540254Y-112226116D02*
X146408934Y-112256420D01*
X146247310Y-112418044D01*
X146217005Y-112549364D01*
X146277614Y-112690786D01*
X146681675Y-113094847D01*
X146823097Y-113155456D01*
X146954416Y-113125151D01*
X147116041Y-112963527D01*
X147146345Y-112832207D01*
X147085736Y-112690786D01*
X146984721Y-112589770D01*
X146479645Y-112892816D01*
X147600914Y-112478654D02*
X146540254Y-111417993D01*
X147550406Y-112428146D02*
X147681726Y-112397841D01*
X147843351Y-112236217D01*
X147873655Y-112104897D01*
X147863554Y-112013983D01*
X147802945Y-111872562D01*
X147499899Y-111569516D01*
X147358477Y-111508907D01*
X147267564Y-111498806D01*
X147136244Y-111529110D01*
X146974619Y-111690735D01*
X146944315Y-111822054D01*
X148247412Y-111832156D02*
X148570660Y-111508907D01*
X148722183Y-112064491D02*
X147813046Y-111155354D01*
X147752437Y-111013932D01*
X147782741Y-110882613D01*
X147863554Y-110801800D01*
X148520153Y-110246217D02*
X148388833Y-110276521D01*
X148227209Y-110438146D01*
X148196904Y-110569465D01*
X148257513Y-110710887D01*
X148661574Y-111114948D01*
X148802996Y-111175557D01*
X148934315Y-111145252D01*
X149095940Y-110983628D01*
X149126244Y-110852308D01*
X149065635Y-110710887D01*
X148964620Y-110609871D01*
X148459544Y-110912917D01*
X148873706Y-109791648D02*
X149580813Y-110498755D01*
X149479798Y-110397739D02*
X149570711Y-110407841D01*
X149702031Y-110377536D01*
X149823250Y-110256318D01*
X149853554Y-110124998D01*
X149792945Y-109983577D01*
X149237361Y-109427993D01*
X149792945Y-109983577D02*
X149934366Y-110044186D01*
X150065686Y-110013881D01*
X150186905Y-109892663D01*
X150217209Y-109761343D01*
X150156600Y-109619922D01*
X149601016Y-109064338D01*
X150005077Y-108660277D02*
X151065737Y-109720937D01*
X150661676Y-109316876D02*
X150792996Y-109286572D01*
X150954620Y-109124947D01*
X150984925Y-108993627D01*
X150974823Y-108902714D01*
X150914214Y-108761292D01*
X150611169Y-108458247D01*
X150469747Y-108397637D01*
X150378833Y-108387536D01*
X150247514Y-108417840D01*
X150085889Y-108579465D01*
X150055585Y-108710785D01*
X151146549Y-107619820D02*
X151015230Y-107650124D01*
X150853605Y-107811749D01*
X150823301Y-107943069D01*
X150883910Y-108084490D01*
X151287971Y-108488551D01*
X151429392Y-108549160D01*
X151560712Y-108518856D01*
X151722336Y-108357231D01*
X151752641Y-108225911D01*
X151692032Y-108084490D01*
X151591017Y-107983475D01*
X151085940Y-108286521D01*
X151500103Y-107165251D02*
X152207210Y-107872358D01*
X152005179Y-107670328D02*
X152146600Y-107730937D01*
X152237514Y-107741038D01*
X152368834Y-107710734D01*
X152449646Y-107629921D01*
X153591119Y-106993525D02*
X153682032Y-107003627D01*
X153813352Y-106973322D01*
X154015383Y-106771292D01*
X154045687Y-106639972D01*
X154035586Y-106549058D01*
X153974977Y-106407637D01*
X153873961Y-106306622D01*
X153682032Y-106195505D01*
X152591068Y-106074287D01*
X153116347Y-105549007D01*
X154702286Y-106084388D02*
X154783099Y-106003576D01*
X154813403Y-105872256D01*
X154803302Y-105781342D01*
X154742692Y-105639921D01*
X154581068Y-105397484D01*
X154328530Y-105144946D01*
X154086093Y-104983322D01*
X153944672Y-104922713D01*
X153853758Y-104912611D01*
X153722438Y-104942916D01*
X153641626Y-105023728D01*
X153611322Y-105155048D01*
X153621423Y-105245961D01*
X153682032Y-105387383D01*
X153843657Y-105629819D01*
X154096195Y-105882358D01*
X154338631Y-106043982D01*
X154480053Y-106104591D01*
X154570967Y-106114693D01*
X154702286Y-106084388D01*
X154732591Y-103932763D02*
X154247718Y-104417636D01*
X154490154Y-104175200D02*
X155550815Y-105235860D01*
X155318479Y-105165149D01*
X155136652Y-105144946D01*
X155005332Y-105175251D01*
X156520561Y-104266113D02*
X156358937Y-104427738D01*
X156227617Y-104458042D01*
X156136703Y-104447941D01*
X155904368Y-104377230D01*
X155661931Y-104215606D01*
X155257870Y-103811545D01*
X155197261Y-103670123D01*
X155187160Y-103579210D01*
X155217464Y-103447890D01*
X155379089Y-103286265D01*
X155510408Y-103255961D01*
X155601322Y-103266062D01*
X155742744Y-103326672D01*
X155995282Y-103579210D01*
X156055891Y-103720631D01*
X156065992Y-103811545D01*
X156035688Y-103942865D01*
X155874063Y-104104489D01*
X155742744Y-104134794D01*
X155651830Y-104124692D01*
X155510408Y-104064083D01*
D11*
X135923809Y-114557142D02*
X136542857Y-114557142D01*
X136209523Y-114100000D01*
X136352380Y-114100000D01*
X136447619Y-114042857D01*
X136495238Y-113985714D01*
X136542857Y-113871428D01*
X136542857Y-113585714D01*
X136495238Y-113471428D01*
X136447619Y-113414285D01*
X136352380Y-113357142D01*
X136066666Y-113357142D01*
X135971428Y-113414285D01*
X135923809Y-113471428D01*
X136971428Y-113471428D02*
X137019047Y-113414285D01*
X136971428Y-113357142D01*
X136923809Y-113414285D01*
X136971428Y-113471428D01*
X136971428Y-113357142D01*
X137352380Y-114557142D02*
X137971428Y-114557142D01*
X137638095Y-114100000D01*
X137780952Y-114100000D01*
X137876190Y-114042857D01*
X137923809Y-113985714D01*
X137971428Y-113871428D01*
X137971428Y-113585714D01*
X137923809Y-113471428D01*
X137876190Y-113414285D01*
X137780952Y-113357142D01*
X137495238Y-113357142D01*
X137400000Y-113414285D01*
X137352380Y-113471428D01*
X138257142Y-114557142D02*
X138590476Y-113357142D01*
X138923809Y-114557142D01*
X136538095Y-112000000D02*
X136442857Y-112057142D01*
X136300000Y-112057142D01*
X136157142Y-112000000D01*
X136061904Y-111885714D01*
X136014285Y-111771428D01*
X135966666Y-111542857D01*
X135966666Y-111371428D01*
X136014285Y-111142857D01*
X136061904Y-111028571D01*
X136157142Y-110914285D01*
X136300000Y-110857142D01*
X136395238Y-110857142D01*
X136538095Y-110914285D01*
X136585714Y-110971428D01*
X136585714Y-111371428D01*
X136395238Y-111371428D01*
X137014285Y-110857142D02*
X137014285Y-112057142D01*
X137585714Y-110857142D01*
X137585714Y-112057142D01*
X138061904Y-110857142D02*
X138061904Y-112057142D01*
X138300000Y-112057142D01*
X138442857Y-112000000D01*
X138538095Y-111885714D01*
X138585714Y-111771428D01*
X138633333Y-111542857D01*
X138633333Y-111371428D01*
X138585714Y-111142857D01*
X138538095Y-111028571D01*
X138442857Y-110914285D01*
X138300000Y-110857142D01*
X138061904Y-110857142D01*
X135957142Y-109457142D02*
X136528571Y-109457142D01*
X136242857Y-108257142D02*
X136242857Y-109457142D01*
X136766666Y-109457142D02*
X137433333Y-108257142D01*
X137433333Y-109457142D02*
X136766666Y-108257142D01*
X136552380Y-105757142D02*
X136219047Y-106328571D01*
X135980952Y-105757142D02*
X135980952Y-106957142D01*
X136361904Y-106957142D01*
X136457142Y-106900000D01*
X136504761Y-106842857D01*
X136552380Y-106728571D01*
X136552380Y-106557142D01*
X136504761Y-106442857D01*
X136457142Y-106385714D01*
X136361904Y-106328571D01*
X135980952Y-106328571D01*
X136885714Y-106957142D02*
X137552380Y-105757142D01*
X137552380Y-106957142D02*
X136885714Y-105757142D01*
X136547619Y-103157142D02*
X136214285Y-103728571D01*
X135976190Y-103157142D02*
X135976190Y-104357142D01*
X136357142Y-104357142D01*
X136452380Y-104300000D01*
X136500000Y-104242857D01*
X136547619Y-104128571D01*
X136547619Y-103957142D01*
X136500000Y-103842857D01*
X136452380Y-103785714D01*
X136357142Y-103728571D01*
X135976190Y-103728571D01*
X136976190Y-103785714D02*
X137309523Y-103785714D01*
X137452380Y-103157142D02*
X136976190Y-103157142D01*
X136976190Y-104357142D01*
X137452380Y-104357142D01*
X137833333Y-103214285D02*
X137976190Y-103157142D01*
X138214285Y-103157142D01*
X138309523Y-103214285D01*
X138357142Y-103271428D01*
X138404761Y-103385714D01*
X138404761Y-103500000D01*
X138357142Y-103614285D01*
X138309523Y-103671428D01*
X138214285Y-103728571D01*
X138023809Y-103785714D01*
X137928571Y-103842857D01*
X137880952Y-103900000D01*
X137833333Y-104014285D01*
X137833333Y-104128571D01*
X137880952Y-104242857D01*
X137928571Y-104300000D01*
X138023809Y-104357142D01*
X138261904Y-104357142D01*
X138404761Y-104300000D01*
X138833333Y-103785714D02*
X139166666Y-103785714D01*
X139309523Y-103157142D02*
X138833333Y-103157142D01*
X138833333Y-104357142D01*
X139309523Y-104357142D01*
X139595238Y-104357142D02*
X140166666Y-104357142D01*
X139880952Y-103157142D02*
X139880952Y-104357142D01*
X143264285Y-91969047D02*
X143321428Y-92111904D01*
X143378571Y-92159523D01*
X143492857Y-92207142D01*
X143664285Y-92207142D01*
X143778571Y-92159523D01*
X143835714Y-92111904D01*
X143892857Y-92016666D01*
X143892857Y-91635714D01*
X142692857Y-91635714D01*
X142692857Y-91969047D01*
X142750000Y-92064285D01*
X142807142Y-92111904D01*
X142921428Y-92159523D01*
X143035714Y-92159523D01*
X143150000Y-92111904D01*
X143207142Y-92064285D01*
X143264285Y-91969047D01*
X143264285Y-91635714D01*
X143892857Y-93159523D02*
X143892857Y-92588095D01*
X143892857Y-92873809D02*
X142692857Y-92873809D01*
X142864285Y-92778571D01*
X142978571Y-92683333D01*
X143035714Y-92588095D01*
X142807142Y-93540476D02*
X142750000Y-93588095D01*
X142692857Y-93683333D01*
X142692857Y-93921428D01*
X142750000Y-94016666D01*
X142807142Y-94064285D01*
X142921428Y-94111904D01*
X143035714Y-94111904D01*
X143207142Y-94064285D01*
X143892857Y-93492857D01*
X143892857Y-94111904D01*
X146385714Y-91659523D02*
X146442857Y-91802380D01*
X146442857Y-92040476D01*
X146385714Y-92135714D01*
X146328571Y-92183333D01*
X146214285Y-92230952D01*
X146100000Y-92230952D01*
X145985714Y-92183333D01*
X145928571Y-92135714D01*
X145871428Y-92040476D01*
X145814285Y-91850000D01*
X145757142Y-91754761D01*
X145700000Y-91707142D01*
X145585714Y-91659523D01*
X145471428Y-91659523D01*
X145357142Y-91707142D01*
X145300000Y-91754761D01*
X145242857Y-91850000D01*
X145242857Y-92088095D01*
X145300000Y-92230952D01*
X146442857Y-92659523D02*
X145242857Y-92659523D01*
X145242857Y-92897619D01*
X145300000Y-93040476D01*
X145414285Y-93135714D01*
X145528571Y-93183333D01*
X145757142Y-93230952D01*
X145928571Y-93230952D01*
X146157142Y-93183333D01*
X146271428Y-93135714D01*
X146385714Y-93040476D01*
X146442857Y-92897619D01*
X146442857Y-92659523D01*
X146100000Y-93611904D02*
X146100000Y-94088095D01*
X146442857Y-93516666D02*
X145242857Y-93850000D01*
X146442857Y-94183333D01*
X145185714Y-95230952D02*
X146728571Y-94373809D01*
X146442857Y-95564285D02*
X145242857Y-95564285D01*
X145242857Y-95945238D01*
X145300000Y-96040476D01*
X145357142Y-96088095D01*
X145471428Y-96135714D01*
X145642857Y-96135714D01*
X145757142Y-96088095D01*
X145814285Y-96040476D01*
X145871428Y-95945238D01*
X145871428Y-95564285D01*
X145814285Y-96897619D02*
X145871428Y-97040476D01*
X145928571Y-97088095D01*
X146042857Y-97135714D01*
X146214285Y-97135714D01*
X146328571Y-97088095D01*
X146385714Y-97040476D01*
X146442857Y-96945238D01*
X146442857Y-96564285D01*
X145242857Y-96564285D01*
X145242857Y-96897619D01*
X145300000Y-96992857D01*
X145357142Y-97040476D01*
X145471428Y-97088095D01*
X145585714Y-97088095D01*
X145700000Y-97040476D01*
X145757142Y-96992857D01*
X145814285Y-96897619D01*
X145814285Y-96564285D01*
X146442857Y-98088095D02*
X146442857Y-97516666D01*
X146442857Y-97802380D02*
X145242857Y-97802380D01*
X145414285Y-97707142D01*
X145528571Y-97611904D01*
X145585714Y-97516666D01*
X146442857Y-99040476D02*
X146442857Y-98469047D01*
X146442857Y-98754761D02*
X145242857Y-98754761D01*
X145414285Y-98659523D01*
X145528571Y-98564285D01*
X145585714Y-98469047D01*
X150300000Y-92188095D02*
X150242857Y-92092857D01*
X150242857Y-91950000D01*
X150300000Y-91807142D01*
X150414285Y-91711904D01*
X150528571Y-91664285D01*
X150757142Y-91616666D01*
X150928571Y-91616666D01*
X151157142Y-91664285D01*
X151271428Y-91711904D01*
X151385714Y-91807142D01*
X151442857Y-91950000D01*
X151442857Y-92045238D01*
X151385714Y-92188095D01*
X151328571Y-92235714D01*
X150928571Y-92235714D01*
X150928571Y-92045238D01*
X151442857Y-92664285D02*
X150242857Y-92664285D01*
X151442857Y-93235714D01*
X150242857Y-93235714D01*
X151442857Y-93711904D02*
X150242857Y-93711904D01*
X150242857Y-93950000D01*
X150300000Y-94092857D01*
X150414285Y-94188095D01*
X150528571Y-94235714D01*
X150757142Y-94283333D01*
X150928571Y-94283333D01*
X151157142Y-94235714D01*
X151271428Y-94188095D01*
X151385714Y-94092857D01*
X151442857Y-93950000D01*
X151442857Y-93711904D01*
X154042857Y-92204761D02*
X153471428Y-91871428D01*
X154042857Y-91633333D02*
X152842857Y-91633333D01*
X152842857Y-92014285D01*
X152900000Y-92109523D01*
X152957142Y-92157142D01*
X153071428Y-92204761D01*
X153242857Y-92204761D01*
X153357142Y-92157142D01*
X153414285Y-92109523D01*
X153471428Y-92014285D01*
X153471428Y-91633333D01*
X152842857Y-92538095D02*
X154042857Y-93204761D01*
X152842857Y-93204761D02*
X154042857Y-92538095D01*
X152785714Y-94300000D02*
X154328571Y-93442857D01*
X154042857Y-94633333D02*
X152842857Y-94633333D01*
X152842857Y-95014285D01*
X152900000Y-95109523D01*
X152957142Y-95157142D01*
X153071428Y-95204761D01*
X153242857Y-95204761D01*
X153357142Y-95157142D01*
X153414285Y-95109523D01*
X153471428Y-95014285D01*
X153471428Y-94633333D01*
X153700000Y-95585714D02*
X153700000Y-96061904D01*
X154042857Y-95490476D02*
X152842857Y-95823809D01*
X154042857Y-96157142D01*
X152842857Y-96395238D02*
X152842857Y-97014285D01*
X153300000Y-96680952D01*
X153300000Y-96823809D01*
X153357142Y-96919047D01*
X153414285Y-96966666D01*
X153528571Y-97014285D01*
X153814285Y-97014285D01*
X153928571Y-96966666D01*
X153985714Y-96919047D01*
X154042857Y-96823809D01*
X154042857Y-96538095D01*
X153985714Y-96442857D01*
X153928571Y-96395238D01*
X166583333Y-98557142D02*
X166583333Y-99757142D01*
X166964285Y-99757142D01*
X167059523Y-99700000D01*
X167107142Y-99642857D01*
X167154761Y-99528571D01*
X167154761Y-99357142D01*
X167107142Y-99242857D01*
X167059523Y-99185714D01*
X166964285Y-99128571D01*
X166583333Y-99128571D01*
X167535714Y-98900000D02*
X168011904Y-98900000D01*
X167440476Y-98557142D02*
X167773809Y-99757142D01*
X168107142Y-98557142D01*
X168583333Y-99242857D02*
X168488095Y-99300000D01*
X168440476Y-99357142D01*
X168392857Y-99471428D01*
X168392857Y-99528571D01*
X168440476Y-99642857D01*
X168488095Y-99700000D01*
X168583333Y-99757142D01*
X168773809Y-99757142D01*
X168869047Y-99700000D01*
X168916666Y-99642857D01*
X168964285Y-99528571D01*
X168964285Y-99471428D01*
X168916666Y-99357142D01*
X168869047Y-99300000D01*
X168773809Y-99242857D01*
X168583333Y-99242857D01*
X168488095Y-99185714D01*
X168440476Y-99128571D01*
X168392857Y-99014285D01*
X168392857Y-98785714D01*
X168440476Y-98671428D01*
X168488095Y-98614285D01*
X168583333Y-98557142D01*
X168773809Y-98557142D01*
X168869047Y-98614285D01*
X168916666Y-98671428D01*
X168964285Y-98785714D01*
X168964285Y-99014285D01*
X168916666Y-99128571D01*
X168869047Y-99185714D01*
X168773809Y-99242857D01*
X166611904Y-101157142D02*
X166611904Y-102357142D01*
X166992857Y-102357142D01*
X167088095Y-102300000D01*
X167135714Y-102242857D01*
X167183333Y-102128571D01*
X167183333Y-101957142D01*
X167135714Y-101842857D01*
X167088095Y-101785714D01*
X166992857Y-101728571D01*
X166611904Y-101728571D01*
X167945238Y-101785714D02*
X168088095Y-101728571D01*
X168135714Y-101671428D01*
X168183333Y-101557142D01*
X168183333Y-101385714D01*
X168135714Y-101271428D01*
X168088095Y-101214285D01*
X167992857Y-101157142D01*
X167611904Y-101157142D01*
X167611904Y-102357142D01*
X167945238Y-102357142D01*
X168040476Y-102300000D01*
X168088095Y-102242857D01*
X168135714Y-102128571D01*
X168135714Y-102014285D01*
X168088095Y-101900000D01*
X168040476Y-101842857D01*
X167945238Y-101785714D01*
X167611904Y-101785714D01*
X169135714Y-101157142D02*
X168564285Y-101157142D01*
X168850000Y-101157142D02*
X168850000Y-102357142D01*
X168754761Y-102185714D01*
X168659523Y-102071428D01*
X168564285Y-102014285D01*
X166611904Y-103757142D02*
X166611904Y-104957142D01*
X166992857Y-104957142D01*
X167088095Y-104900000D01*
X167135714Y-104842857D01*
X167183333Y-104728571D01*
X167183333Y-104557142D01*
X167135714Y-104442857D01*
X167088095Y-104385714D01*
X166992857Y-104328571D01*
X166611904Y-104328571D01*
X167945238Y-104385714D02*
X168088095Y-104328571D01*
X168135714Y-104271428D01*
X168183333Y-104157142D01*
X168183333Y-103985714D01*
X168135714Y-103871428D01*
X168088095Y-103814285D01*
X167992857Y-103757142D01*
X167611904Y-103757142D01*
X167611904Y-104957142D01*
X167945238Y-104957142D01*
X168040476Y-104900000D01*
X168088095Y-104842857D01*
X168135714Y-104728571D01*
X168135714Y-104614285D01*
X168088095Y-104500000D01*
X168040476Y-104442857D01*
X167945238Y-104385714D01*
X167611904Y-104385714D01*
X168802380Y-104957142D02*
X168897619Y-104957142D01*
X168992857Y-104900000D01*
X169040476Y-104842857D01*
X169088095Y-104728571D01*
X169135714Y-104500000D01*
X169135714Y-104214285D01*
X169088095Y-103985714D01*
X169040476Y-103871428D01*
X168992857Y-103814285D01*
X168897619Y-103757142D01*
X168802380Y-103757142D01*
X168707142Y-103814285D01*
X168659523Y-103871428D01*
X168611904Y-103985714D01*
X168564285Y-104214285D01*
X168564285Y-104500000D01*
X168611904Y-104728571D01*
X168659523Y-104842857D01*
X168707142Y-104900000D01*
X168802380Y-104957142D01*
X166611904Y-115657142D02*
X166611904Y-116857142D01*
X166992857Y-116857142D01*
X167088095Y-116800000D01*
X167135714Y-116742857D01*
X167183333Y-116628571D01*
X167183333Y-116457142D01*
X167135714Y-116342857D01*
X167088095Y-116285714D01*
X166992857Y-116228571D01*
X166611904Y-116228571D01*
X167945238Y-116285714D02*
X168088095Y-116228571D01*
X168135714Y-116171428D01*
X168183333Y-116057142D01*
X168183333Y-115885714D01*
X168135714Y-115771428D01*
X168088095Y-115714285D01*
X167992857Y-115657142D01*
X167611904Y-115657142D01*
X167611904Y-116857142D01*
X167945238Y-116857142D01*
X168040476Y-116800000D01*
X168088095Y-116742857D01*
X168135714Y-116628571D01*
X168135714Y-116514285D01*
X168088095Y-116400000D01*
X168040476Y-116342857D01*
X167945238Y-116285714D01*
X167611904Y-116285714D01*
X168659523Y-115657142D02*
X168850000Y-115657142D01*
X168945238Y-115714285D01*
X168992857Y-115771428D01*
X169088095Y-115942857D01*
X169135714Y-116171428D01*
X169135714Y-116628571D01*
X169088095Y-116742857D01*
X169040476Y-116800000D01*
X168945238Y-116857142D01*
X168754761Y-116857142D01*
X168659523Y-116800000D01*
X168611904Y-116742857D01*
X168564285Y-116628571D01*
X168564285Y-116342857D01*
X168611904Y-116228571D01*
X168659523Y-116171428D01*
X168754761Y-116114285D01*
X168945238Y-116114285D01*
X169040476Y-116171428D01*
X169088095Y-116228571D01*
X169135714Y-116342857D01*
X166583333Y-113057142D02*
X166583333Y-114257142D01*
X166964285Y-114257142D01*
X167059523Y-114200000D01*
X167107142Y-114142857D01*
X167154761Y-114028571D01*
X167154761Y-113857142D01*
X167107142Y-113742857D01*
X167059523Y-113685714D01*
X166964285Y-113628571D01*
X166583333Y-113628571D01*
X167535714Y-113400000D02*
X168011904Y-113400000D01*
X167440476Y-113057142D02*
X167773809Y-114257142D01*
X168107142Y-113057142D01*
X168964285Y-113057142D02*
X168392857Y-113057142D01*
X168678571Y-113057142D02*
X168678571Y-114257142D01*
X168583333Y-114085714D01*
X168488095Y-113971428D01*
X168392857Y-113914285D01*
X166583333Y-110557142D02*
X166583333Y-111757142D01*
X166964285Y-111757142D01*
X167059523Y-111700000D01*
X167107142Y-111642857D01*
X167154761Y-111528571D01*
X167154761Y-111357142D01*
X167107142Y-111242857D01*
X167059523Y-111185714D01*
X166964285Y-111128571D01*
X166583333Y-111128571D01*
X167535714Y-110900000D02*
X168011904Y-110900000D01*
X167440476Y-110557142D02*
X167773809Y-111757142D01*
X168107142Y-110557142D01*
X168345238Y-111757142D02*
X169011904Y-111757142D01*
X168583333Y-110557142D01*
X166611904Y-122557142D02*
X166611904Y-123757142D01*
X166992857Y-123757142D01*
X167088095Y-123700000D01*
X167135714Y-123642857D01*
X167183333Y-123528571D01*
X167183333Y-123357142D01*
X167135714Y-123242857D01*
X167088095Y-123185714D01*
X166992857Y-123128571D01*
X166611904Y-123128571D01*
X167945238Y-123185714D02*
X168088095Y-123128571D01*
X168135714Y-123071428D01*
X168183333Y-122957142D01*
X168183333Y-122785714D01*
X168135714Y-122671428D01*
X168088095Y-122614285D01*
X167992857Y-122557142D01*
X167611904Y-122557142D01*
X167611904Y-123757142D01*
X167945238Y-123757142D01*
X168040476Y-123700000D01*
X168088095Y-123642857D01*
X168135714Y-123528571D01*
X168135714Y-123414285D01*
X168088095Y-123300000D01*
X168040476Y-123242857D01*
X167945238Y-123185714D01*
X167611904Y-123185714D01*
X168754761Y-123242857D02*
X168659523Y-123300000D01*
X168611904Y-123357142D01*
X168564285Y-123471428D01*
X168564285Y-123528571D01*
X168611904Y-123642857D01*
X168659523Y-123700000D01*
X168754761Y-123757142D01*
X168945238Y-123757142D01*
X169040476Y-123700000D01*
X169088095Y-123642857D01*
X169135714Y-123528571D01*
X169135714Y-123471428D01*
X169088095Y-123357142D01*
X169040476Y-123300000D01*
X168945238Y-123242857D01*
X168754761Y-123242857D01*
X168659523Y-123185714D01*
X168611904Y-123128571D01*
X168564285Y-123014285D01*
X168564285Y-122785714D01*
X168611904Y-122671428D01*
X168659523Y-122614285D01*
X168754761Y-122557142D01*
X168945238Y-122557142D01*
X169040476Y-122614285D01*
X169088095Y-122671428D01*
X169135714Y-122785714D01*
X169135714Y-123014285D01*
X169088095Y-123128571D01*
X169040476Y-123185714D01*
X168945238Y-123242857D01*
X166611904Y-125057142D02*
X166611904Y-126257142D01*
X166992857Y-126257142D01*
X167088095Y-126200000D01*
X167135714Y-126142857D01*
X167183333Y-126028571D01*
X167183333Y-125857142D01*
X167135714Y-125742857D01*
X167088095Y-125685714D01*
X166992857Y-125628571D01*
X166611904Y-125628571D01*
X167945238Y-125685714D02*
X168088095Y-125628571D01*
X168135714Y-125571428D01*
X168183333Y-125457142D01*
X168183333Y-125285714D01*
X168135714Y-125171428D01*
X168088095Y-125114285D01*
X167992857Y-125057142D01*
X167611904Y-125057142D01*
X167611904Y-126257142D01*
X167945238Y-126257142D01*
X168040476Y-126200000D01*
X168088095Y-126142857D01*
X168135714Y-126028571D01*
X168135714Y-125914285D01*
X168088095Y-125800000D01*
X168040476Y-125742857D01*
X167945238Y-125685714D01*
X167611904Y-125685714D01*
X168516666Y-126257142D02*
X169183333Y-126257142D01*
X168754761Y-125057142D01*
X166611904Y-127657142D02*
X166611904Y-128857142D01*
X166992857Y-128857142D01*
X167088095Y-128800000D01*
X167135714Y-128742857D01*
X167183333Y-128628571D01*
X167183333Y-128457142D01*
X167135714Y-128342857D01*
X167088095Y-128285714D01*
X166992857Y-128228571D01*
X166611904Y-128228571D01*
X167945238Y-128285714D02*
X168088095Y-128228571D01*
X168135714Y-128171428D01*
X168183333Y-128057142D01*
X168183333Y-127885714D01*
X168135714Y-127771428D01*
X168088095Y-127714285D01*
X167992857Y-127657142D01*
X167611904Y-127657142D01*
X167611904Y-128857142D01*
X167945238Y-128857142D01*
X168040476Y-128800000D01*
X168088095Y-128742857D01*
X168135714Y-128628571D01*
X168135714Y-128514285D01*
X168088095Y-128400000D01*
X168040476Y-128342857D01*
X167945238Y-128285714D01*
X167611904Y-128285714D01*
X169040476Y-128857142D02*
X168850000Y-128857142D01*
X168754761Y-128800000D01*
X168707142Y-128742857D01*
X168611904Y-128571428D01*
X168564285Y-128342857D01*
X168564285Y-127885714D01*
X168611904Y-127771428D01*
X168659523Y-127714285D01*
X168754761Y-127657142D01*
X168945238Y-127657142D01*
X169040476Y-127714285D01*
X169088095Y-127771428D01*
X169135714Y-127885714D01*
X169135714Y-128171428D01*
X169088095Y-128285714D01*
X169040476Y-128342857D01*
X168945238Y-128400000D01*
X168754761Y-128400000D01*
X168659523Y-128342857D01*
X168611904Y-128285714D01*
X168564285Y-128171428D01*
X136266666Y-101185714D02*
X136409523Y-101128571D01*
X136457142Y-101071428D01*
X136504761Y-100957142D01*
X136504761Y-100785714D01*
X136457142Y-100671428D01*
X136409523Y-100614285D01*
X136314285Y-100557142D01*
X135933333Y-100557142D01*
X135933333Y-101757142D01*
X136266666Y-101757142D01*
X136361904Y-101700000D01*
X136409523Y-101642857D01*
X136457142Y-101528571D01*
X136457142Y-101414285D01*
X136409523Y-101300000D01*
X136361904Y-101242857D01*
X136266666Y-101185714D01*
X135933333Y-101185714D01*
X137123809Y-101757142D02*
X137314285Y-101757142D01*
X137409523Y-101700000D01*
X137504761Y-101585714D01*
X137552380Y-101357142D01*
X137552380Y-100957142D01*
X137504761Y-100728571D01*
X137409523Y-100614285D01*
X137314285Y-100557142D01*
X137123809Y-100557142D01*
X137028571Y-100614285D01*
X136933333Y-100728571D01*
X136885714Y-100957142D01*
X136885714Y-101357142D01*
X136933333Y-101585714D01*
X137028571Y-101700000D01*
X137123809Y-101757142D01*
X138171428Y-101757142D02*
X138361904Y-101757142D01*
X138457142Y-101700000D01*
X138552380Y-101585714D01*
X138600000Y-101357142D01*
X138600000Y-100957142D01*
X138552380Y-100728571D01*
X138457142Y-100614285D01*
X138361904Y-100557142D01*
X138171428Y-100557142D01*
X138076190Y-100614285D01*
X137980952Y-100728571D01*
X137933333Y-100957142D01*
X137933333Y-101357142D01*
X137980952Y-101585714D01*
X138076190Y-101700000D01*
X138171428Y-101757142D01*
X138885714Y-101757142D02*
X139457142Y-101757142D01*
X139171428Y-100557142D02*
X139171428Y-101757142D01*
X139980952Y-101757142D02*
X140076190Y-101757142D01*
X140171428Y-101700000D01*
X140219047Y-101642857D01*
X140266666Y-101528571D01*
X140314285Y-101300000D01*
X140314285Y-101014285D01*
X140266666Y-100785714D01*
X140219047Y-100671428D01*
X140171428Y-100614285D01*
X140076190Y-100557142D01*
X139980952Y-100557142D01*
X139885714Y-100614285D01*
X139838095Y-100671428D01*
X139790476Y-100785714D01*
X139742857Y-101014285D01*
X139742857Y-101300000D01*
X139790476Y-101528571D01*
X139838095Y-101642857D01*
X139885714Y-101700000D01*
X139980952Y-101757142D01*
X148885714Y-91633333D02*
X148942857Y-91776190D01*
X148942857Y-92014285D01*
X148885714Y-92109523D01*
X148828571Y-92157142D01*
X148714285Y-92204761D01*
X148600000Y-92204761D01*
X148485714Y-92157142D01*
X148428571Y-92109523D01*
X148371428Y-92014285D01*
X148314285Y-91823809D01*
X148257142Y-91728571D01*
X148200000Y-91680952D01*
X148085714Y-91633333D01*
X147971428Y-91633333D01*
X147857142Y-91680952D01*
X147800000Y-91728571D01*
X147742857Y-91823809D01*
X147742857Y-92061904D01*
X147800000Y-92204761D01*
X148828571Y-93204761D02*
X148885714Y-93157142D01*
X148942857Y-93014285D01*
X148942857Y-92919047D01*
X148885714Y-92776190D01*
X148771428Y-92680952D01*
X148657142Y-92633333D01*
X148428571Y-92585714D01*
X148257142Y-92585714D01*
X148028571Y-92633333D01*
X147914285Y-92680952D01*
X147800000Y-92776190D01*
X147742857Y-92919047D01*
X147742857Y-93014285D01*
X147800000Y-93157142D01*
X147857142Y-93204761D01*
X148942857Y-94109523D02*
X148942857Y-93633333D01*
X147742857Y-93633333D01*
X147685714Y-95157142D02*
X149228571Y-94300000D01*
X148942857Y-95490476D02*
X147742857Y-95490476D01*
X147742857Y-95871428D01*
X147800000Y-95966666D01*
X147857142Y-96014285D01*
X147971428Y-96061904D01*
X148142857Y-96061904D01*
X148257142Y-96014285D01*
X148314285Y-95966666D01*
X148371428Y-95871428D01*
X148371428Y-95490476D01*
X148314285Y-96823809D02*
X148371428Y-96966666D01*
X148428571Y-97014285D01*
X148542857Y-97061904D01*
X148714285Y-97061904D01*
X148828571Y-97014285D01*
X148885714Y-96966666D01*
X148942857Y-96871428D01*
X148942857Y-96490476D01*
X147742857Y-96490476D01*
X147742857Y-96823809D01*
X147800000Y-96919047D01*
X147857142Y-96966666D01*
X147971428Y-97014285D01*
X148085714Y-97014285D01*
X148200000Y-96966666D01*
X148257142Y-96919047D01*
X148314285Y-96823809D01*
X148314285Y-96490476D01*
X148942857Y-98014285D02*
X148942857Y-97442857D01*
X148942857Y-97728571D02*
X147742857Y-97728571D01*
X147914285Y-97633333D01*
X148028571Y-97538095D01*
X148085714Y-97442857D01*
X147742857Y-98633333D02*
X147742857Y-98728571D01*
X147800000Y-98823809D01*
X147857142Y-98871428D01*
X147971428Y-98919047D01*
X148200000Y-98966666D01*
X148485714Y-98966666D01*
X148714285Y-98919047D01*
X148828571Y-98871428D01*
X148885714Y-98823809D01*
X148942857Y-98728571D01*
X148942857Y-98633333D01*
X148885714Y-98538095D01*
X148828571Y-98490476D01*
X148714285Y-98442857D01*
X148485714Y-98395238D01*
X148200000Y-98395238D01*
X147971428Y-98442857D01*
X147857142Y-98490476D01*
X147800000Y-98538095D01*
X147742857Y-98633333D01*
X167180952Y-118157142D02*
X166609523Y-118157142D01*
X166895238Y-118157142D02*
X166895238Y-119357142D01*
X166800000Y-119185714D01*
X166704761Y-119071428D01*
X166609523Y-119014285D01*
X167561904Y-119242857D02*
X167609523Y-119300000D01*
X167704761Y-119357142D01*
X167942857Y-119357142D01*
X168038095Y-119300000D01*
X168085714Y-119242857D01*
X168133333Y-119128571D01*
X168133333Y-119014285D01*
X168085714Y-118842857D01*
X167514285Y-118157142D01*
X168133333Y-118157142D01*
X168419047Y-119357142D02*
X168752380Y-118157142D01*
X169085714Y-119357142D01*
X167180952Y-106257142D02*
X166609523Y-106257142D01*
X166895238Y-106257142D02*
X166895238Y-107457142D01*
X166800000Y-107285714D01*
X166704761Y-107171428D01*
X166609523Y-107114285D01*
X167561904Y-107342857D02*
X167609523Y-107400000D01*
X167704761Y-107457142D01*
X167942857Y-107457142D01*
X168038095Y-107400000D01*
X168085714Y-107342857D01*
X168133333Y-107228571D01*
X168133333Y-107114285D01*
X168085714Y-106942857D01*
X167514285Y-106257142D01*
X168133333Y-106257142D01*
X168419047Y-107457142D02*
X168752380Y-106257142D01*
X169085714Y-107457142D01*
X167180952Y-130157142D02*
X166609523Y-130157142D01*
X166895238Y-130157142D02*
X166895238Y-131357142D01*
X166800000Y-131185714D01*
X166704761Y-131071428D01*
X166609523Y-131014285D01*
X167561904Y-131242857D02*
X167609523Y-131300000D01*
X167704761Y-131357142D01*
X167942857Y-131357142D01*
X168038095Y-131300000D01*
X168085714Y-131242857D01*
X168133333Y-131128571D01*
X168133333Y-131014285D01*
X168085714Y-130842857D01*
X167514285Y-130157142D01*
X168133333Y-130157142D01*
X168419047Y-131357142D02*
X168752380Y-130157142D01*
X169085714Y-131357142D01*
X155342857Y-91609523D02*
X155342857Y-92180952D01*
X156542857Y-91895238D02*
X155342857Y-91895238D01*
X155342857Y-92419047D02*
X156542857Y-93085714D01*
X155342857Y-93085714D02*
X156542857Y-92419047D01*
X155285714Y-94180952D02*
X156828571Y-93323809D01*
X156542857Y-94514285D02*
X155342857Y-94514285D01*
X155342857Y-94895238D01*
X155400000Y-94990476D01*
X155457142Y-95038095D01*
X155571428Y-95085714D01*
X155742857Y-95085714D01*
X155857142Y-95038095D01*
X155914285Y-94990476D01*
X155971428Y-94895238D01*
X155971428Y-94514285D01*
X156200000Y-95466666D02*
X156200000Y-95942857D01*
X156542857Y-95371428D02*
X155342857Y-95704761D01*
X156542857Y-96038095D01*
X155457142Y-96323809D02*
X155400000Y-96371428D01*
X155342857Y-96466666D01*
X155342857Y-96704761D01*
X155400000Y-96800000D01*
X155457142Y-96847619D01*
X155571428Y-96895238D01*
X155685714Y-96895238D01*
X155857142Y-96847619D01*
X156542857Y-96276190D01*
X156542857Y-96895238D01*
X126522619Y-96582142D02*
X126522619Y-97782142D01*
X126855952Y-96925000D01*
X127189285Y-97782142D01*
X127189285Y-96582142D01*
X127855952Y-97782142D02*
X128046428Y-97782142D01*
X128141666Y-97725000D01*
X128236904Y-97610714D01*
X128284523Y-97382142D01*
X128284523Y-96982142D01*
X128236904Y-96753571D01*
X128141666Y-96639285D01*
X128046428Y-96582142D01*
X127855952Y-96582142D01*
X127760714Y-96639285D01*
X127665476Y-96753571D01*
X127617857Y-96982142D01*
X127617857Y-97382142D01*
X127665476Y-97610714D01*
X127760714Y-97725000D01*
X127855952Y-97782142D01*
X128665476Y-96639285D02*
X128808333Y-96582142D01*
X129046428Y-96582142D01*
X129141666Y-96639285D01*
X129189285Y-96696428D01*
X129236904Y-96810714D01*
X129236904Y-96925000D01*
X129189285Y-97039285D01*
X129141666Y-97096428D01*
X129046428Y-97153571D01*
X128855952Y-97210714D01*
X128760714Y-97267857D01*
X128713095Y-97325000D01*
X128665476Y-97439285D01*
X128665476Y-97553571D01*
X128713095Y-97667857D01*
X128760714Y-97725000D01*
X128855952Y-97782142D01*
X129094047Y-97782142D01*
X129236904Y-97725000D01*
X129665476Y-96582142D02*
X129665476Y-97782142D01*
X127284523Y-94532142D02*
X127284523Y-95732142D01*
X127617857Y-94875000D01*
X127951190Y-95732142D01*
X127951190Y-94532142D01*
X128427380Y-94532142D02*
X128427380Y-95732142D01*
X128855952Y-94589285D02*
X128998809Y-94532142D01*
X129236904Y-94532142D01*
X129332142Y-94589285D01*
X129379761Y-94646428D01*
X129427380Y-94760714D01*
X129427380Y-94875000D01*
X129379761Y-94989285D01*
X129332142Y-95046428D01*
X129236904Y-95103571D01*
X129046428Y-95160714D01*
X128951190Y-95217857D01*
X128903571Y-95275000D01*
X128855952Y-95389285D01*
X128855952Y-95503571D01*
X128903571Y-95617857D01*
X128951190Y-95675000D01*
X129046428Y-95732142D01*
X129284523Y-95732142D01*
X129427380Y-95675000D01*
X130046428Y-95732142D02*
X130236904Y-95732142D01*
X130332142Y-95675000D01*
X130427380Y-95560714D01*
X130475000Y-95332142D01*
X130475000Y-94932142D01*
X130427380Y-94703571D01*
X130332142Y-94589285D01*
X130236904Y-94532142D01*
X130046428Y-94532142D01*
X129951190Y-94589285D01*
X129855952Y-94703571D01*
X129808333Y-94932142D01*
X129808333Y-95332142D01*
X129855952Y-95560714D01*
X129951190Y-95675000D01*
X130046428Y-95732142D01*
X126808333Y-92539285D02*
X126951190Y-92482142D01*
X127189285Y-92482142D01*
X127284523Y-92539285D01*
X127332142Y-92596428D01*
X127379761Y-92710714D01*
X127379761Y-92825000D01*
X127332142Y-92939285D01*
X127284523Y-92996428D01*
X127189285Y-93053571D01*
X126998809Y-93110714D01*
X126903571Y-93167857D01*
X126855952Y-93225000D01*
X126808333Y-93339285D01*
X126808333Y-93453571D01*
X126855952Y-93567857D01*
X126903571Y-93625000D01*
X126998809Y-93682142D01*
X127236904Y-93682142D01*
X127379761Y-93625000D01*
X128379761Y-92596428D02*
X128332142Y-92539285D01*
X128189285Y-92482142D01*
X128094047Y-92482142D01*
X127951190Y-92539285D01*
X127855952Y-92653571D01*
X127808333Y-92767857D01*
X127760714Y-92996428D01*
X127760714Y-93167857D01*
X127808333Y-93396428D01*
X127855952Y-93510714D01*
X127951190Y-93625000D01*
X128094047Y-93682142D01*
X128189285Y-93682142D01*
X128332142Y-93625000D01*
X128379761Y-93567857D01*
X128808333Y-92482142D02*
X128808333Y-93682142D01*
X129379761Y-92482142D02*
X128951190Y-93167857D01*
X129379761Y-93682142D02*
X128808333Y-92996428D01*
X128094047Y-91575000D02*
X127998809Y-91632142D01*
X127855952Y-91632142D01*
X127713095Y-91575000D01*
X127617857Y-91460714D01*
X127570238Y-91346428D01*
X127522619Y-91117857D01*
X127522619Y-90946428D01*
X127570238Y-90717857D01*
X127617857Y-90603571D01*
X127713095Y-90489285D01*
X127855952Y-90432142D01*
X127951190Y-90432142D01*
X128094047Y-90489285D01*
X128141666Y-90546428D01*
X128141666Y-90946428D01*
X127951190Y-90946428D01*
X128570238Y-90432142D02*
X128570238Y-91632142D01*
X129141666Y-90432142D01*
X129141666Y-91632142D01*
X129617857Y-90432142D02*
X129617857Y-91632142D01*
X129855952Y-91632142D01*
X129998809Y-91575000D01*
X130094047Y-91460714D01*
X130141666Y-91346428D01*
X130189285Y-91117857D01*
X130189285Y-90946428D01*
X130141666Y-90717857D01*
X130094047Y-90603571D01*
X129998809Y-90489285D01*
X129855952Y-90432142D01*
X129617857Y-90432142D01*
X126617857Y-89582142D02*
X127236904Y-89582142D01*
X126903571Y-89125000D01*
X127046428Y-89125000D01*
X127141666Y-89067857D01*
X127189285Y-89010714D01*
X127236904Y-88896428D01*
X127236904Y-88610714D01*
X127189285Y-88496428D01*
X127141666Y-88439285D01*
X127046428Y-88382142D01*
X126760714Y-88382142D01*
X126665476Y-88439285D01*
X126617857Y-88496428D01*
X127665476Y-88496428D02*
X127713095Y-88439285D01*
X127665476Y-88382142D01*
X127617857Y-88439285D01*
X127665476Y-88496428D01*
X127665476Y-88382142D01*
X128046428Y-89582142D02*
X128665476Y-89582142D01*
X128332142Y-89125000D01*
X128475000Y-89125000D01*
X128570238Y-89067857D01*
X128617857Y-89010714D01*
X128665476Y-88896428D01*
X128665476Y-88610714D01*
X128617857Y-88496428D01*
X128570238Y-88439285D01*
X128475000Y-88382142D01*
X128189285Y-88382142D01*
X128094047Y-88439285D01*
X128046428Y-88496428D01*
X128951190Y-89582142D02*
X129284523Y-88382142D01*
X129617857Y-89582142D01*
D13*
X158644900Y-120799400D02*
X158644900Y-117700600D01*
X158644900Y-117700600D02*
X156854200Y-117700600D01*
X158644900Y-120799400D02*
X156854200Y-120799400D01*
X151355100Y-117357700D02*
X151355100Y-116544900D01*
X151355100Y-116544900D02*
X153145800Y-116544900D01*
X151355100Y-117357700D02*
X153145800Y-117357700D01*
X151355100Y-119656400D02*
X153145800Y-119656400D01*
X151355100Y-118843600D02*
X153145800Y-118843600D01*
X151355100Y-119656400D02*
X151355100Y-118843600D01*
X151355100Y-121955100D02*
X151355100Y-121142300D01*
X151355100Y-121142300D02*
X153145800Y-121142300D01*
X151355100Y-121955100D02*
X153145800Y-121955100D01*
X153145800Y-115897200D02*
X153145800Y-122602800D01*
X153145800Y-122602800D02*
X156854200Y-122602800D01*
X156854200Y-122602800D02*
X156854200Y-115897200D01*
X156854200Y-115897200D02*
X153145800Y-115897200D01*
X139558800Y-87893600D02*
X139558800Y-88706400D01*
X138441200Y-88681000D02*
X138441200Y-87893600D01*
X138187200Y-88706400D02*
X139812800Y-88706400D01*
X139812800Y-88706400D02*
X139812800Y-87893600D01*
X139812800Y-87893600D02*
X138187200Y-87893600D01*
X138187200Y-87893600D02*
X138187200Y-88706400D01*
X142206400Y-97608800D02*
X141393600Y-97608800D01*
X141419000Y-96491200D02*
X142206400Y-96491200D01*
X141393600Y-96237200D02*
X141393600Y-97862800D01*
X141393600Y-97862800D02*
X142206400Y-97862800D01*
X142206400Y-97862800D02*
X142206400Y-96237200D01*
X142206400Y-96237200D02*
X141393600Y-96237200D01*
X148858800Y-100393600D02*
X148858800Y-101206400D01*
X147741200Y-101181000D02*
X147741200Y-100393600D01*
X147487200Y-101206400D02*
X149112800Y-101206400D01*
X149112800Y-101206400D02*
X149112800Y-100393600D01*
X149112800Y-100393600D02*
X147487200Y-100393600D01*
X147487200Y-100393600D02*
X147487200Y-101206400D01*
X160118600Y-129316200D02*
X160931400Y-129316200D01*
X160906000Y-130433800D02*
X160118600Y-130433800D01*
X160931400Y-130687800D02*
X160931400Y-129062200D01*
X160931400Y-129062200D02*
X160118600Y-129062200D01*
X160118600Y-129062200D02*
X160118600Y-130687800D01*
X160118600Y-130687800D02*
X160931400Y-130687800D01*
X160118600Y-125316200D02*
X160931400Y-125316200D01*
X160906000Y-126433800D02*
X160118600Y-126433800D01*
X160931400Y-126687800D02*
X160931400Y-125062200D01*
X160931400Y-125062200D02*
X160118600Y-125062200D01*
X160118600Y-125062200D02*
X160118600Y-126687800D01*
X160118600Y-126687800D02*
X160931400Y-126687800D01*
X160118600Y-121316200D02*
X160931400Y-121316200D01*
X160906000Y-122433800D02*
X160118600Y-122433800D01*
X160931400Y-122687800D02*
X160931400Y-121062200D01*
X160931400Y-121062200D02*
X160118600Y-121062200D01*
X160118600Y-121062200D02*
X160118600Y-122687800D01*
X160118600Y-122687800D02*
X160931400Y-122687800D01*
X160118600Y-117316200D02*
X160931400Y-117316200D01*
X160906000Y-118433800D02*
X160118600Y-118433800D01*
X160931400Y-118687800D02*
X160931400Y-117062200D01*
X160931400Y-117062200D02*
X160118600Y-117062200D01*
X160118600Y-117062200D02*
X160118600Y-118687800D01*
X160118600Y-118687800D02*
X160931400Y-118687800D01*
X160118600Y-113316200D02*
X160931400Y-113316200D01*
X160906000Y-114433800D02*
X160118600Y-114433800D01*
X160931400Y-114687800D02*
X160931400Y-113062200D01*
X160931400Y-113062200D02*
X160118600Y-113062200D01*
X160118600Y-113062200D02*
X160118600Y-114687800D01*
X160118600Y-114687800D02*
X160931400Y-114687800D01*
X160118600Y-109316200D02*
X160931400Y-109316200D01*
X160906000Y-110433800D02*
X160118600Y-110433800D01*
X160931400Y-110687800D02*
X160931400Y-109062200D01*
X160931400Y-109062200D02*
X160118600Y-109062200D01*
X160118600Y-109062200D02*
X160118600Y-110687800D01*
X160118600Y-110687800D02*
X160931400Y-110687800D01*
X160118600Y-105316200D02*
X160931400Y-105316200D01*
X160906000Y-106433800D02*
X160118600Y-106433800D01*
X160931400Y-106687800D02*
X160931400Y-105062200D01*
X160931400Y-105062200D02*
X160118600Y-105062200D01*
X160118600Y-105062200D02*
X160118600Y-106687800D01*
X160118600Y-106687800D02*
X160931400Y-106687800D01*
X160118600Y-101316200D02*
X160931400Y-101316200D01*
X160906000Y-102433800D02*
X160118600Y-102433800D01*
X160931400Y-102687800D02*
X160931400Y-101062200D01*
X160931400Y-101062200D02*
X160118600Y-101062200D01*
X160118600Y-101062200D02*
X160118600Y-102687800D01*
X160118600Y-102687800D02*
X160931400Y-102687800D01*
X160118600Y-97316200D02*
X160931400Y-97316200D01*
X160906000Y-98433800D02*
X160118600Y-98433800D01*
X160931400Y-98687800D02*
X160931400Y-97062200D01*
X160931400Y-97062200D02*
X160118600Y-97062200D01*
X160118600Y-97062200D02*
X160118600Y-98687800D01*
X160118600Y-98687800D02*
X160931400Y-98687800D01*
X139558800Y-91193600D02*
X139558800Y-92006400D01*
X138441200Y-91981000D02*
X138441200Y-91193600D01*
X138187200Y-92006400D02*
X139812800Y-92006400D01*
X139812800Y-92006400D02*
X139812800Y-91193600D01*
X139812800Y-91193600D02*
X138187200Y-91193600D01*
X138187200Y-91193600D02*
X138187200Y-92006400D01*
X139458800Y-94493600D02*
X139458800Y-95306400D01*
X138341200Y-95281000D02*
X138341200Y-94493600D01*
X138087200Y-95306400D02*
X139712800Y-95306400D01*
X139712800Y-95306400D02*
X139712800Y-94493600D01*
X139712800Y-94493600D02*
X138087200Y-94493600D01*
X138087200Y-94493600D02*
X138087200Y-95306400D01*
X139458800Y-97793600D02*
X139458800Y-98606400D01*
X138341200Y-98581000D02*
X138341200Y-97793600D01*
X138087200Y-98606400D02*
X139712800Y-98606400D01*
X139712800Y-98606400D02*
X139712800Y-97793600D01*
X139712800Y-97793600D02*
X138087200Y-97793600D01*
X138087200Y-97793600D02*
X138087200Y-98606400D01*
X144993600Y-120241200D02*
X145806400Y-120241200D01*
X145781000Y-121358800D02*
X144993600Y-121358800D01*
X145806400Y-121612800D02*
X145806400Y-119987200D01*
X145806400Y-119987200D02*
X144993600Y-119987200D01*
X144993600Y-119987200D02*
X144993600Y-121612800D01*
X144993600Y-121612800D02*
X145806400Y-121612800D01*
X144993600Y-123991200D02*
X145806400Y-123991200D01*
X145781000Y-125108800D02*
X144993600Y-125108800D01*
X145806400Y-125362800D02*
X145806400Y-123737200D01*
X145806400Y-123737200D02*
X144993600Y-123737200D01*
X144993600Y-123737200D02*
X144993600Y-125362800D01*
X144993600Y-125362800D02*
X145806400Y-125362800D01*
X142558800Y-112193600D02*
X142558800Y-113006400D01*
X141441200Y-112981000D02*
X141441200Y-112193600D01*
X141187200Y-113006400D02*
X142812800Y-113006400D01*
X142812800Y-113006400D02*
X142812800Y-112193600D01*
X142812800Y-112193600D02*
X141187200Y-112193600D01*
X141187200Y-112193600D02*
X141187200Y-113006400D01*
X154441200Y-115156400D02*
X154441200Y-114343600D01*
X155558800Y-114369000D02*
X155558800Y-115156400D01*
X155812800Y-114343600D02*
X154187200Y-114343600D01*
X154187200Y-114343600D02*
X154187200Y-115156400D01*
X154187200Y-115156400D02*
X155812800Y-115156400D01*
X155812800Y-115156400D02*
X155812800Y-114343600D01*
X154441200Y-113156400D02*
X154441200Y-112343600D01*
X155558800Y-112369000D02*
X155558800Y-113156400D01*
X155812800Y-112343600D02*
X154187200Y-112343600D01*
X154187200Y-112343600D02*
X154187200Y-113156400D01*
X154187200Y-113156400D02*
X155812800Y-113156400D01*
X155812800Y-113156400D02*
X155812800Y-112343600D01*
D14*
X155290164Y-118436716D02*
X156100303Y-118436716D01*
X156195614Y-118484371D01*
X156243269Y-118532026D01*
X156290924Y-118627337D01*
X156290924Y-118817958D01*
X156243269Y-118913268D01*
X156195614Y-118960923D01*
X156100303Y-119008579D01*
X155290164Y-119008579D01*
X155623751Y-119914028D02*
X156290924Y-119914028D01*
X155242509Y-119675752D02*
X155957338Y-119437476D01*
X155957338Y-120056994D01*
D11*
X123325000Y-127185714D02*
X123325000Y-127661904D01*
X123667857Y-127090476D02*
X122467857Y-127423809D01*
X123667857Y-127757142D01*
X123667857Y-128090476D02*
X122467857Y-128090476D01*
X122467857Y-128328571D01*
X122525000Y-128471428D01*
X122639285Y-128566666D01*
X122753571Y-128614285D01*
X122982142Y-128661904D01*
X123153571Y-128661904D01*
X123382142Y-128614285D01*
X123496428Y-128566666D01*
X123610714Y-128471428D01*
X123667857Y-128328571D01*
X123667857Y-128090476D01*
X123553571Y-129661904D02*
X123610714Y-129614285D01*
X123667857Y-129471428D01*
X123667857Y-129376190D01*
X123610714Y-129233333D01*
X123496428Y-129138095D01*
X123382142Y-129090476D01*
X123153571Y-129042857D01*
X122982142Y-129042857D01*
X122753571Y-129090476D01*
X122639285Y-129138095D01*
X122525000Y-129233333D01*
X122467857Y-129376190D01*
X122467857Y-129471428D01*
X122525000Y-129614285D01*
X122582142Y-129661904D01*
X122867857Y-130519047D02*
X123667857Y-130519047D01*
X122410714Y-130280952D02*
X123267857Y-130042857D01*
X123267857Y-130661904D01*
X123250000Y-109285714D02*
X123250000Y-109761904D01*
X123592857Y-109190476D02*
X122392857Y-109523809D01*
X123592857Y-109857142D01*
X123592857Y-110190476D02*
X122392857Y-110190476D01*
X122392857Y-110428571D01*
X122450000Y-110571428D01*
X122564285Y-110666666D01*
X122678571Y-110714285D01*
X122907142Y-110761904D01*
X123078571Y-110761904D01*
X123307142Y-110714285D01*
X123421428Y-110666666D01*
X123535714Y-110571428D01*
X123592857Y-110428571D01*
X123592857Y-110190476D01*
X123478571Y-111761904D02*
X123535714Y-111714285D01*
X123592857Y-111571428D01*
X123592857Y-111476190D01*
X123535714Y-111333333D01*
X123421428Y-111238095D01*
X123307142Y-111190476D01*
X123078571Y-111142857D01*
X122907142Y-111142857D01*
X122678571Y-111190476D01*
X122564285Y-111238095D01*
X122450000Y-111333333D01*
X122392857Y-111476190D01*
X122392857Y-111571428D01*
X122450000Y-111714285D01*
X122507142Y-111761904D01*
X122392857Y-112666666D02*
X122392857Y-112190476D01*
X122964285Y-112142857D01*
X122907142Y-112190476D01*
X122850000Y-112285714D01*
X122850000Y-112523809D01*
X122907142Y-112619047D01*
X122964285Y-112666666D01*
X123078571Y-112714285D01*
X123364285Y-112714285D01*
X123478571Y-112666666D01*
X123535714Y-112619047D01*
X123592857Y-112523809D01*
X123592857Y-112285714D01*
X123535714Y-112190476D01*
X123478571Y-112142857D01*
X123275000Y-91335714D02*
X123275000Y-91811904D01*
X123617857Y-91240476D02*
X122417857Y-91573809D01*
X123617857Y-91907142D01*
X123617857Y-92240476D02*
X122417857Y-92240476D01*
X122417857Y-92478571D01*
X122475000Y-92621428D01*
X122589285Y-92716666D01*
X122703571Y-92764285D01*
X122932142Y-92811904D01*
X123103571Y-92811904D01*
X123332142Y-92764285D01*
X123446428Y-92716666D01*
X123560714Y-92621428D01*
X123617857Y-92478571D01*
X123617857Y-92240476D01*
X123503571Y-93811904D02*
X123560714Y-93764285D01*
X123617857Y-93621428D01*
X123617857Y-93526190D01*
X123560714Y-93383333D01*
X123446428Y-93288095D01*
X123332142Y-93240476D01*
X123103571Y-93192857D01*
X122932142Y-93192857D01*
X122703571Y-93240476D01*
X122589285Y-93288095D01*
X122475000Y-93383333D01*
X122417857Y-93526190D01*
X122417857Y-93621428D01*
X122475000Y-93764285D01*
X122532142Y-93811904D01*
X122417857Y-94669047D02*
X122417857Y-94478571D01*
X122475000Y-94383333D01*
X122532142Y-94335714D01*
X122703571Y-94240476D01*
X122932142Y-94192857D01*
X123389285Y-94192857D01*
X123503571Y-94240476D01*
X123560714Y-94288095D01*
X123617857Y-94383333D01*
X123617857Y-94573809D01*
X123560714Y-94669047D01*
X123503571Y-94716666D01*
X123389285Y-94764285D01*
X123103571Y-94764285D01*
X122989285Y-94716666D01*
X122932142Y-94669047D01*
X122875000Y-94573809D01*
X122875000Y-94383333D01*
X122932142Y-94288095D01*
X122989285Y-94240476D01*
X123103571Y-94192857D01*
%LPC*%
D15*
X152000260Y-121551240D03*
X152000260Y-119250000D03*
X152000260Y-116948760D03*
D16*
X157999740Y-119250000D03*
D17*
X131100000Y-132900000D03*
X131100000Y-128900000D03*
X131100000Y-124900000D03*
X121100000Y-134400000D03*
X121100000Y-123400000D03*
X131100000Y-115000000D03*
X131100000Y-111000000D03*
X131100000Y-107000000D03*
X121100000Y-116500000D03*
X121100000Y-105500000D03*
X131100000Y-97050000D03*
X131100000Y-93050000D03*
X131100000Y-89050000D03*
X121100000Y-98550000D03*
X121100000Y-87550000D03*
D18*
X139751840Y-88300000D03*
X138248160Y-88300000D03*
D19*
X134100000Y-101220000D03*
D20*
X134100000Y-103760000D03*
X134100000Y-106300000D03*
X134100000Y-108840000D03*
X134100000Y-111380000D03*
X134100000Y-113920000D03*
D21*
X141800000Y-97801840D03*
X141800000Y-96298160D03*
D22*
X155980000Y-90100000D03*
D23*
X153440000Y-90100000D03*
X150900000Y-90100000D03*
D19*
X165210000Y-130780000D03*
D20*
X165210000Y-128240000D03*
X165210000Y-125700000D03*
X165210000Y-123160000D03*
D19*
X165210000Y-118780000D03*
D20*
X165210000Y-116240000D03*
X165210000Y-113700000D03*
X165210000Y-111160000D03*
D19*
X165210000Y-106780000D03*
D20*
X165210000Y-104240000D03*
X165210000Y-101700000D03*
X165210000Y-99160000D03*
D22*
X151170000Y-133600000D03*
D23*
X148630000Y-133600000D03*
D24*
X155200980Y-126899880D03*
D25*
X149900000Y-130151080D03*
D26*
X149900000Y-124149060D03*
D19*
X134100000Y-98040000D03*
D20*
X134100000Y-95500000D03*
X134100000Y-92960000D03*
X134100000Y-90420000D03*
X134100000Y-87880000D03*
D18*
X149051840Y-100800000D03*
X147548160Y-100800000D03*
D21*
X160525000Y-129123160D03*
X160525000Y-130626840D03*
X160525000Y-125123160D03*
X160525000Y-126626840D03*
X160525000Y-121123160D03*
X160525000Y-122626840D03*
X160525000Y-117123160D03*
X160525000Y-118626840D03*
X160525000Y-113123160D03*
X160525000Y-114626840D03*
X160525000Y-109123160D03*
X160525000Y-110626840D03*
X160525000Y-105123160D03*
X160525000Y-106626840D03*
X160525000Y-101123160D03*
X160525000Y-102626840D03*
X160525000Y-97123160D03*
X160525000Y-98626840D03*
D18*
X139751840Y-91600000D03*
X138248160Y-91600000D03*
X139651840Y-94900000D03*
X138148160Y-94900000D03*
X139651840Y-98200000D03*
X138148160Y-98200000D03*
D27*
X167300000Y-133900000D03*
X128150000Y-119900000D03*
X128150000Y-102000000D03*
X167400000Y-95600000D03*
D21*
X145400000Y-120048160D03*
X145400000Y-121551840D03*
X145400000Y-123798160D03*
X145400000Y-125301840D03*
D28*
X136602900Y-131328400D03*
X140999640Y-131328400D03*
D18*
X142751840Y-112600000D03*
X141248160Y-112600000D03*
D19*
X158200000Y-127780000D03*
D20*
X158200000Y-125240000D03*
X158200000Y-122700000D03*
D19*
X158200000Y-115740000D03*
D20*
X158200000Y-113200000D03*
X158200000Y-110660000D03*
D19*
X158200000Y-104080000D03*
D20*
X158200000Y-101540000D03*
X158200000Y-99000000D03*
D22*
X148380000Y-90100000D03*
D23*
X145840000Y-90100000D03*
X143300000Y-90100000D03*
D19*
X142300000Y-103630000D03*
D20*
X142300000Y-106170000D03*
D19*
X131100000Y-122490000D03*
D20*
X131100000Y-119950000D03*
X131100000Y-117410000D03*
D29*
X125899360Y-131399360D03*
X120900640Y-128900000D03*
X125899360Y-126400640D03*
X125899360Y-113499360D03*
X120900640Y-111000000D03*
X125899360Y-108500640D03*
X125899360Y-95549360D03*
X120900640Y-93050000D03*
X125899360Y-90550640D03*
D18*
X154248160Y-114750000D03*
X155751840Y-114750000D03*
X154248160Y-112750000D03*
X155751840Y-112750000D03*
D22*
X161170000Y-134270000D03*
D23*
X163710000Y-134270000D03*
M02*
