M48
;DRILL file {KiCad 4.1.0-alpha+201608281547+7098~46~ubuntu16.04.1-product} date Sun Sep  4 14:55:48 2016
;FORMAT={-:-/ absolute / inch / decimal}
FMAT,2
INCH,TZ
T1C0.012
T2C0.035
T3C0.039
T4C0.039
T5C0.079
%
G90
G05
M72
T1
X4.9311Y-4.6476
X5.0886Y-4.3976
X5.1083Y-4.0827
X5.1437Y-3.9035
X5.2795Y-4.563
X5.315Y-4.7864
X5.315Y-4.8189
X5.3219Y-4.646
X5.3219Y-4.6952
X5.3366Y-4.439
X5.3445Y-4.0945
X5.3711Y-4.646
X5.3711Y-4.6952
X5.376Y-4.0866
X5.378Y-3.4862
X5.378Y-3.5925
X5.3819Y-3.75
X5.3819Y-3.8031
X5.3819Y-3.872
X5.3976Y-4.8189
X5.3976Y-4.8533
X5.4055Y-4.5
X5.4134Y-4.7835
X5.437Y-4.2618
X5.4528Y-4.5709
X5.4528Y-4.7008
X5.4921Y-4.4921
X5.5079Y-4.9803
X5.5197Y-4.4331
X5.5394Y-3.8445
X5.5571Y-3.4941
X5.5571Y-3.748
X5.5669Y-3.6181
X5.5984Y-4.3937
X5.622Y-3.8819
X5.622Y-4.9213
X5.624Y-3.8504
X5.626Y-3.6535
X5.626Y-3.689
X5.626Y-3.7402
X5.6496Y-4.752
X5.6535Y-3.7657
X5.6811Y-4.7854
X5.6811Y-4.874
X5.6823Y-4.2878
X5.685Y-3.7657
X5.6909Y-3.498
X5.7047Y-4.3465
X5.7354Y-4.3087
X5.752Y-3.9843
X5.7559Y-4.1791
X5.7756Y-4.0079
X5.7913Y-3.498
X5.7913Y-4.0492
X5.8071Y-4.3819
X5.8071Y-4.4882
X5.8406Y-3.8681
X5.8504Y-4.1575
X5.8563Y-3.7323
X5.8661Y-3.8937
X5.8661Y-3.9272
X5.8661Y-4.0394
X5.8701Y-3.7992
X5.8701Y-4.0748
X5.8976Y-4.2106
X5.9016Y-3.8425
X5.9134Y-3.6614
X5.937Y-3.9646
X5.9866Y-3.9744
X6.0138Y-4.8327
X6.065Y-3.8563
X6.1004Y-3.8563
X6.1437Y-4.7677
X6.1811Y-4.9744
X6.248Y-3.4213
X6.2677Y-3.5236
X6.2764Y-3.8189
X6.3228Y-3.5787
X6.3799Y-4.2783
X6.3799Y-5.0693
X6.3803Y-4.1228
X6.3803Y-4.4378
X6.3803Y-4.5953
X6.3803Y-4.7528
X6.3803Y-4.9102
X6.3807Y-3.8831
X6.3807Y-3.9654
X6.3819Y-4.0402
X6.3819Y-4.5126
X6.3823Y-4.1976
X6.3823Y-4.3535
X6.3823Y-4.6701
X6.3823Y-4.8276
X6.3823Y-4.985
X6.3823Y-5.1445
T2
X4.7599Y-3.6634
X4.7599Y-4.3701
X4.7599Y-5.0748
X4.9567Y-3.565
X4.9567Y-3.7618
X4.9567Y-4.2717
X4.9567Y-4.4685
X4.9567Y-4.9764
X4.9567Y-5.1732
T3
X5.1614Y-3.5059
X5.1614Y-3.6634
X5.1614Y-3.8209
X5.1614Y-4.2126
X5.1614Y-4.3701
X5.1614Y-4.5276
X5.1614Y-4.9173
X5.1614Y-5.0748
X5.1614Y-5.2323
T4
X5.1614Y-4.6224
X5.1614Y-4.7224
X5.1614Y-4.8224
X5.2795Y-3.4598
X5.2795Y-3.5598
X5.2795Y-3.6598
X5.2795Y-3.7598
X5.2795Y-3.8598
X5.2795Y-3.985
X5.2795Y-4.085
X5.2795Y-4.185
X5.2795Y-4.285
X5.2795Y-4.385
X5.2795Y-4.485
X5.6024Y-4.0799
X5.6024Y-4.1799
X5.6417Y-3.5472
X5.7417Y-3.5472
X5.8417Y-3.5472
X5.8516Y-5.2598
X5.9409Y-3.5472
X5.9516Y-5.2598
X6.0409Y-3.5472
X6.1409Y-3.5472
X6.2283Y-3.8976
X6.2283Y-3.9976
X6.2283Y-4.0976
X6.2283Y-4.3567
X6.2283Y-4.4567
X6.2283Y-4.5567
X6.2283Y-4.8307
X6.2283Y-4.9307
X6.2283Y-5.0307
X6.3453Y-5.2862
X6.4453Y-5.2862
X6.5043Y-3.9039
X6.5043Y-4.0039
X6.5043Y-4.1039
X6.5043Y-4.2039
X6.5043Y-4.3764
X6.5043Y-4.4764
X6.5043Y-4.5764
X6.5043Y-4.6764
X6.5043Y-4.8488
X6.5043Y-4.9488
X6.5043Y-5.0488
X6.5043Y-5.1488
T5
X5.0453Y-4.0157
X5.0453Y-4.7205
X6.5866Y-5.2717
X6.5906Y-3.7638
T4
X5.8524Y-4.8878G85X5.9508Y-4.8878
G05
X5.8622Y-5.1241G85X5.9409Y-5.1241
G05
X6.1103Y-4.9567G85X6.1103Y-5.0354
G05
T0
M30
