G04 #@! TF.FileFunction,Legend,Top*
%FSLAX46Y46*%
G04 Gerber Fmt 4.6, Leading zero omitted, Abs format (unit mm)*
G04 Created by KiCad (PCBNEW 4.1.0-alpha+201608281547+7098~46~ubuntu16.04.1-product) date Sun Sep  4 14:55:36 2016*
%MOMM*%
%LPD*%
G01*
G04 APERTURE LIST*
%ADD10C,0.100000*%
%ADD11C,0.254000*%
%ADD12C,0.127000*%
%ADD13C,0.304800*%
%ADD14C,0.149860*%
%ADD15C,0.381000*%
%ADD16C,0.350520*%
%ADD17C,0.250000*%
%ADD18C,0.200000*%
%ADD19C,0.200660*%
%ADD20C,0.040640*%
%ADD21O,2.300000X1.624000*%
%ADD22R,1.100760X1.100760*%
%ADD23R,1.100760X0.999160*%
%ADD24R,2.299640X1.624000*%
%ADD25O,2.299640X1.624000*%
%ADD26R,1.624000X2.299640*%
%ADD27O,1.624000X2.299640*%
%ADD28O,2.098980X4.100500*%
%ADD29O,4.100500X2.098980*%
%ADD30O,4.600880X2.098980*%
%ADD31R,1.298880X1.298880*%
%ADD32R,1.100760X0.699440*%
%ADD33R,0.999160X1.100760*%
%ADD34R,1.900860X1.400480*%
%ADD35R,1.900860X3.899840*%
%ADD36C,3.100000*%
%ADD37R,1.700200X3.099740*%
%ADD38R,0.950900X0.950900*%
%ADD39R,0.871220X0.441960*%
%ADD40R,0.441960X0.871220*%
%ADD41R,1.391920X1.391920*%
%ADD42R,2.297100X2.297100*%
%ADD43R,0.597840X2.297100*%
%ADD44C,0.999160*%
%ADD45C,1.850060*%
G04 APERTURE END LIST*
D10*
D11*
X164898960Y-89099520D02*
X164200460Y-87799040D01*
X166301040Y-89099520D02*
X166999540Y-87799040D01*
X166301040Y-91700480D02*
X166999540Y-93000960D01*
X164200460Y-93000960D02*
X164898960Y-91700480D01*
X164200460Y-93000960D02*
X164200460Y-87799040D01*
X164200460Y-87799040D02*
X166999540Y-87799040D01*
X166999540Y-87799040D02*
X166999540Y-93000960D01*
X166999540Y-93000960D02*
X164200460Y-93000960D01*
X164898960Y-91700480D02*
X164898960Y-89099520D01*
X164898960Y-89099520D02*
X166301040Y-89099520D01*
X166301040Y-89099520D02*
X166301040Y-91700480D01*
X166301040Y-91700480D02*
X164898960Y-91700480D01*
X163799140Y-93399740D02*
X163799140Y-87400260D01*
X163799140Y-87400260D02*
X167400860Y-87400260D01*
X167400860Y-87400260D02*
X167400860Y-93399740D01*
X167400860Y-93399740D02*
X163799140Y-93399740D01*
D12*
X137343600Y-110658800D02*
X138156400Y-110658800D01*
X138131000Y-109541200D02*
X137343600Y-109541200D01*
X138156400Y-109287200D02*
X138156400Y-110912800D01*
X138156400Y-110912800D02*
X137343600Y-110912800D01*
X137343600Y-110912800D02*
X137343600Y-109287200D01*
X137343600Y-109287200D02*
X138156400Y-109287200D01*
D13*
X135370000Y-102490000D02*
X132830000Y-102490000D01*
X132830000Y-99950000D02*
X135370000Y-99950000D01*
X135370000Y-99950000D02*
X135370000Y-115190000D01*
X135370000Y-115190000D02*
X132830000Y-115190000D01*
X132830000Y-115190000D02*
X132830000Y-99950000D01*
D14*
X148508112Y-105905765D02*
X148791888Y-105905765D01*
X148931980Y-105765673D02*
X148368020Y-105765673D01*
X148226132Y-105623785D02*
X149073868Y-105623785D01*
X149215756Y-105481897D02*
X148084244Y-105481897D01*
X149357644Y-105340009D02*
X148650000Y-106047653D01*
X148650000Y-106047653D02*
X147942356Y-105340009D01*
X147942356Y-105340009D02*
X149357644Y-105340009D01*
X153740009Y-99542356D02*
X154447653Y-100250000D01*
X154447653Y-100250000D02*
X153740009Y-100957644D01*
X147942356Y-95159991D02*
X148650000Y-94452347D01*
X148650000Y-94452347D02*
X149357644Y-95159991D01*
X143559991Y-100957644D02*
X142852347Y-100250000D01*
X142852347Y-100250000D02*
X143559991Y-99542356D01*
D12*
X148933981Y-103662497D02*
G75*
G03X148933981Y-103662497I-283981J0D01*
G01*
X153409536Y-99980592D02*
X153409536Y-100519408D01*
X153409536Y-100519408D02*
X148919408Y-105009536D01*
X148919408Y-105009536D02*
X148380592Y-105009536D01*
X148380592Y-105009536D02*
X143890464Y-100519408D01*
X143890464Y-100519408D02*
X143890464Y-99980592D01*
X143890464Y-99980592D02*
X148380592Y-95490464D01*
X148380592Y-95490464D02*
X148919408Y-95490464D01*
X148919408Y-95490464D02*
X153409536Y-99980592D01*
X154192237Y-103317501D02*
X153617501Y-103892237D01*
X154425724Y-104664539D02*
X154982499Y-104107763D01*
X154587368Y-104862105D02*
X153437895Y-103712632D01*
X153437895Y-103712632D02*
X154012632Y-103137895D01*
X154012632Y-103137895D02*
X155162105Y-104287368D01*
X155162105Y-104287368D02*
X154587368Y-104862105D01*
X149207763Y-94082499D02*
X149782499Y-93507763D01*
X148974276Y-92735461D02*
X148417501Y-93292237D01*
X148812632Y-92537895D02*
X149962105Y-93687368D01*
X149962105Y-93687368D02*
X149387368Y-94262105D01*
X149387368Y-94262105D02*
X148237895Y-93112632D01*
X148237895Y-93112632D02*
X148812632Y-92537895D01*
X148692237Y-106617501D02*
X148117501Y-107192237D01*
X148925724Y-107964539D02*
X149482499Y-107407763D01*
X149087368Y-108162105D02*
X147937895Y-107012632D01*
X147937895Y-107012632D02*
X148512632Y-106437895D01*
X148512632Y-106437895D02*
X149662105Y-107587368D01*
X149662105Y-107587368D02*
X149087368Y-108162105D01*
X151882499Y-106892237D02*
X151307763Y-106317501D01*
X150535461Y-107125724D02*
X151092237Y-107682499D01*
X150337895Y-107287368D02*
X151487368Y-106137895D01*
X151487368Y-106137895D02*
X152062105Y-106712632D01*
X152062105Y-106712632D02*
X150912632Y-107862105D01*
X150912632Y-107862105D02*
X150337895Y-107287368D01*
D13*
X154710000Y-88830000D02*
X154710000Y-91370000D01*
X157250000Y-91370000D02*
X149630000Y-91370000D01*
X149630000Y-91370000D02*
X149630000Y-88830000D01*
X149630000Y-88830000D02*
X157250000Y-88830000D01*
X157250000Y-88830000D02*
X157250000Y-91370000D01*
X163940000Y-129510000D02*
X166480000Y-129510000D01*
X166480000Y-121890000D02*
X166480000Y-132050000D01*
X163940000Y-132050000D02*
X163940000Y-121890000D01*
X166480000Y-132050000D02*
X163940000Y-132050000D01*
X163940000Y-121890000D02*
X166480000Y-121890000D01*
X163940000Y-117510000D02*
X166480000Y-117510000D01*
X166480000Y-109890000D02*
X166480000Y-120050000D01*
X163940000Y-120050000D02*
X163940000Y-109890000D01*
X166480000Y-120050000D02*
X163940000Y-120050000D01*
X163940000Y-109890000D02*
X166480000Y-109890000D01*
X163940000Y-105510000D02*
X166480000Y-105510000D01*
X166480000Y-97890000D02*
X166480000Y-108050000D01*
X163940000Y-108050000D02*
X163940000Y-97890000D01*
X166480000Y-108050000D02*
X163940000Y-108050000D01*
X163940000Y-97890000D02*
X166480000Y-97890000D01*
X149900000Y-134870000D02*
X149900000Y-132330000D01*
X149900000Y-132330000D02*
X152440000Y-134870000D01*
X152440000Y-132330000D02*
X149900000Y-134870000D01*
X147360000Y-132330000D02*
X152440000Y-132330000D01*
X152440000Y-134870000D02*
X147360000Y-134870000D01*
X152440000Y-132330000D02*
X152440000Y-134870000D01*
X147360000Y-134870000D02*
X147360000Y-132330000D01*
D15*
X145399120Y-133199080D02*
X154400880Y-133199080D01*
X145399120Y-137699960D02*
X154400880Y-137699960D01*
X154400880Y-137699960D02*
X154400880Y-123100040D01*
X154400880Y-123100040D02*
X145399120Y-123100040D01*
X145399120Y-123100040D02*
X145399120Y-137699960D01*
D13*
X132830000Y-96770000D02*
X135370000Y-96770000D01*
X135370000Y-86610000D02*
X135370000Y-99310000D01*
X132830000Y-99310000D02*
X132830000Y-86610000D01*
X135370000Y-99310000D02*
X132830000Y-99310000D01*
X132830000Y-86610000D02*
X135370000Y-86610000D01*
D12*
X139100660Y-88900000D02*
X138800940Y-88600280D01*
X138800940Y-88600280D02*
X138800940Y-89199720D01*
X138800940Y-89199720D02*
X139100660Y-88900000D01*
X138999060Y-88999060D02*
X138999060Y-88800940D01*
X138900000Y-88699340D02*
X138900000Y-89100660D01*
X139199720Y-89700100D02*
X139199720Y-88099900D01*
X138600280Y-88099900D02*
X138600280Y-89700100D01*
X137899240Y-88099900D02*
X139900760Y-88099900D01*
X139900760Y-88099900D02*
X139900760Y-89700100D01*
X139900760Y-89700100D02*
X137899240Y-89700100D01*
X137899240Y-89700100D02*
X137899240Y-88099900D01*
X139100660Y-92200000D02*
X138800940Y-91900280D01*
X138800940Y-91900280D02*
X138800940Y-92499720D01*
X138800940Y-92499720D02*
X139100660Y-92200000D01*
X138999060Y-92299060D02*
X138999060Y-92100940D01*
X138900000Y-91999340D02*
X138900000Y-92400660D01*
X139199720Y-93000100D02*
X139199720Y-91399900D01*
X138600280Y-91399900D02*
X138600280Y-93000100D01*
X137899240Y-91399900D02*
X139900760Y-91399900D01*
X139900760Y-91399900D02*
X139900760Y-93000100D01*
X139900760Y-93000100D02*
X137899240Y-93000100D01*
X137899240Y-93000100D02*
X137899240Y-91399900D01*
X139100660Y-95500000D02*
X138800940Y-95200280D01*
X138800940Y-95200280D02*
X138800940Y-95799720D01*
X138800940Y-95799720D02*
X139100660Y-95500000D01*
X138999060Y-95599060D02*
X138999060Y-95400940D01*
X138900000Y-95299340D02*
X138900000Y-95700660D01*
X139199720Y-96300100D02*
X139199720Y-94699900D01*
X138600280Y-94699900D02*
X138600280Y-96300100D01*
X137899240Y-94699900D02*
X139900760Y-94699900D01*
X139900760Y-94699900D02*
X139900760Y-96300100D01*
X139900760Y-96300100D02*
X137899240Y-96300100D01*
X137899240Y-96300100D02*
X137899240Y-94699900D01*
X139100660Y-98800000D02*
X138800940Y-98500280D01*
X138800940Y-98500280D02*
X138800940Y-99099720D01*
X138800940Y-99099720D02*
X139100660Y-98800000D01*
X138999060Y-98899060D02*
X138999060Y-98700940D01*
X138900000Y-98599340D02*
X138900000Y-99000660D01*
X139199720Y-99600100D02*
X139199720Y-97999900D01*
X138600280Y-97999900D02*
X138600280Y-99600100D01*
X137899240Y-97999900D02*
X139900760Y-97999900D01*
X139900760Y-97999900D02*
X139900760Y-99600100D01*
X139900760Y-99600100D02*
X137899240Y-99600100D01*
X137899240Y-99600100D02*
X137899240Y-97999900D01*
X161361500Y-130670000D02*
X160701100Y-130670000D01*
X161361500Y-128765000D02*
X160701100Y-128765000D01*
X162758500Y-129717500D02*
X163418900Y-129717500D01*
X162758500Y-128218900D02*
X162758500Y-131216100D01*
X162758500Y-131216100D02*
X161361500Y-131216100D01*
X161361500Y-131216100D02*
X161361500Y-128218900D01*
X161361500Y-128218900D02*
X162758500Y-128218900D01*
X161361500Y-126622500D02*
X160701100Y-126622500D01*
X161361500Y-124717500D02*
X160701100Y-124717500D01*
X162758500Y-125670000D02*
X163418900Y-125670000D01*
X162758500Y-124171400D02*
X162758500Y-127168600D01*
X162758500Y-127168600D02*
X161361500Y-127168600D01*
X161361500Y-127168600D02*
X161361500Y-124171400D01*
X161361500Y-124171400D02*
X162758500Y-124171400D01*
X161361500Y-122622500D02*
X160701100Y-122622500D01*
X161361500Y-120717500D02*
X160701100Y-120717500D01*
X162758500Y-121670000D02*
X163418900Y-121670000D01*
X162758500Y-120171400D02*
X162758500Y-123168600D01*
X162758500Y-123168600D02*
X161361500Y-123168600D01*
X161361500Y-123168600D02*
X161361500Y-120171400D01*
X161361500Y-120171400D02*
X162758500Y-120171400D01*
X161361500Y-118622500D02*
X160701100Y-118622500D01*
X161361500Y-116717500D02*
X160701100Y-116717500D01*
X162758500Y-117670000D02*
X163418900Y-117670000D01*
X162758500Y-116171400D02*
X162758500Y-119168600D01*
X162758500Y-119168600D02*
X161361500Y-119168600D01*
X161361500Y-119168600D02*
X161361500Y-116171400D01*
X161361500Y-116171400D02*
X162758500Y-116171400D01*
X161361500Y-114622500D02*
X160701100Y-114622500D01*
X161361500Y-112717500D02*
X160701100Y-112717500D01*
X162758500Y-113670000D02*
X163418900Y-113670000D01*
X162758500Y-112171400D02*
X162758500Y-115168600D01*
X162758500Y-115168600D02*
X161361500Y-115168600D01*
X161361500Y-115168600D02*
X161361500Y-112171400D01*
X161361500Y-112171400D02*
X162758500Y-112171400D01*
X161361500Y-110575000D02*
X160701100Y-110575000D01*
X161361500Y-108670000D02*
X160701100Y-108670000D01*
X162758500Y-109622500D02*
X163418900Y-109622500D01*
X162758500Y-108123900D02*
X162758500Y-111121100D01*
X162758500Y-111121100D02*
X161361500Y-111121100D01*
X161361500Y-111121100D02*
X161361500Y-108123900D01*
X161361500Y-108123900D02*
X162758500Y-108123900D01*
X161361500Y-106622500D02*
X160701100Y-106622500D01*
X161361500Y-104717500D02*
X160701100Y-104717500D01*
X162758500Y-105670000D02*
X163418900Y-105670000D01*
X162758500Y-104171400D02*
X162758500Y-107168600D01*
X162758500Y-107168600D02*
X161361500Y-107168600D01*
X161361500Y-107168600D02*
X161361500Y-104171400D01*
X161361500Y-104171400D02*
X162758500Y-104171400D01*
X161361500Y-102622500D02*
X160701100Y-102622500D01*
X161361500Y-100717500D02*
X160701100Y-100717500D01*
X162758500Y-101670000D02*
X163418900Y-101670000D01*
X162758500Y-100171400D02*
X162758500Y-103168600D01*
X162758500Y-103168600D02*
X161361500Y-103168600D01*
X161361500Y-103168600D02*
X161361500Y-100171400D01*
X161361500Y-100171400D02*
X162758500Y-100171400D01*
X161361500Y-98622500D02*
X160701100Y-98622500D01*
X161361500Y-96717500D02*
X160701100Y-96717500D01*
X162758500Y-97670000D02*
X163418900Y-97670000D01*
X162758500Y-96171400D02*
X162758500Y-99168600D01*
X162758500Y-99168600D02*
X161361500Y-99168600D01*
X161361500Y-99168600D02*
X161361500Y-96171400D01*
X161361500Y-96171400D02*
X162758500Y-96171400D01*
X153307763Y-105782499D02*
X153882499Y-105207763D01*
X153074276Y-104435461D02*
X152517501Y-104992237D01*
X152912632Y-104237895D02*
X154062105Y-105387368D01*
X154062105Y-105387368D02*
X153487368Y-105962105D01*
X153487368Y-105962105D02*
X152337895Y-104812632D01*
X152337895Y-104812632D02*
X152912632Y-104237895D01*
X154658800Y-95406400D02*
X154658800Y-94593600D01*
X153541200Y-94619000D02*
X153541200Y-95406400D01*
X153287200Y-94593600D02*
X154912800Y-94593600D01*
X154912800Y-94593600D02*
X154912800Y-95406400D01*
X154912800Y-95406400D02*
X153287200Y-95406400D01*
X153287200Y-95406400D02*
X153287200Y-94593600D01*
X157658800Y-95406400D02*
X157658800Y-94593600D01*
X156541200Y-94619000D02*
X156541200Y-95406400D01*
X156287200Y-94593600D02*
X157912800Y-94593600D01*
X157912800Y-94593600D02*
X157912800Y-95406400D01*
X157912800Y-95406400D02*
X156287200Y-95406400D01*
X156287200Y-95406400D02*
X156287200Y-94593600D01*
D11*
X160601040Y-91801300D02*
X161299540Y-93101780D01*
X159198960Y-91801300D02*
X158500460Y-93101780D01*
X159198960Y-89200340D02*
X158500460Y-87899860D01*
X161299540Y-87899860D02*
X160601040Y-89200340D01*
X161299540Y-87899860D02*
X161299540Y-93101780D01*
X161299540Y-93101780D02*
X158500460Y-93101780D01*
X158500460Y-93101780D02*
X158500460Y-87899860D01*
X158500460Y-87899860D02*
X161299540Y-87899860D01*
X160601040Y-89200340D02*
X160601040Y-91801300D01*
X160601040Y-91801300D02*
X159198960Y-91801300D01*
X159198960Y-91801300D02*
X159198960Y-89200340D01*
X159198960Y-89200340D02*
X160601040Y-89200340D01*
X161700860Y-87501080D02*
X161700860Y-93500560D01*
X161700860Y-93500560D02*
X158099140Y-93500560D01*
X158099140Y-93500560D02*
X158099140Y-87501080D01*
X158099140Y-87501080D02*
X161700860Y-87501080D01*
D12*
X149844900Y-111149360D02*
X149844900Y-114248160D01*
X149844900Y-114248160D02*
X148054200Y-114248160D01*
X149844900Y-111149360D02*
X148054200Y-111149360D01*
X142555100Y-114591060D02*
X142555100Y-115403860D01*
X142555100Y-115403860D02*
X144345800Y-115403860D01*
X142555100Y-114591060D02*
X144345800Y-114591060D01*
X142555100Y-112292360D02*
X144345800Y-112292360D01*
X142555100Y-113105160D02*
X144345800Y-113105160D01*
X142555100Y-112292360D02*
X142555100Y-113105160D01*
X142555100Y-109993660D02*
X142555100Y-110806460D01*
X142555100Y-110806460D02*
X144345800Y-110806460D01*
X142555100Y-109993660D02*
X144345800Y-109993660D01*
X144345800Y-116051560D02*
X144345800Y-109345960D01*
X144345800Y-109345960D02*
X148054200Y-109345960D01*
X148054200Y-109345960D02*
X148054200Y-116051560D01*
X148054200Y-116051560D02*
X144345800Y-116051560D01*
X152925000Y-115914000D02*
X151528000Y-115914000D01*
X153179000Y-116041000D02*
X151401000Y-116041000D01*
X153560000Y-116168000D02*
X151020000Y-116168000D01*
X150893000Y-116295000D02*
X153687000Y-116295000D01*
X153814000Y-116422000D02*
X150766000Y-116422000D01*
X150639000Y-116549000D02*
X153941000Y-116549000D01*
X154068000Y-116676000D02*
X150512000Y-116676000D01*
X154703000Y-118200000D02*
G75*
G03X154703000Y-118200000I-2413000J0D01*
G01*
X154957000Y-115533000D02*
X154957000Y-120105000D01*
X154957000Y-120105000D02*
X154195000Y-120867000D01*
X154195000Y-120867000D02*
X150385000Y-120867000D01*
X150385000Y-120867000D02*
X149623000Y-120105000D01*
X149623000Y-120105000D02*
X149623000Y-115533000D01*
X149623000Y-115533000D02*
X154957000Y-115533000D01*
X152290000Y-120359000D02*
X152290000Y-119597000D01*
X152671000Y-119978000D02*
X151909000Y-119978000D01*
X163358800Y-95406400D02*
X163358800Y-94593600D01*
X162241200Y-94619000D02*
X162241200Y-95406400D01*
X161987200Y-94593600D02*
X163612800Y-94593600D01*
X163612800Y-94593600D02*
X163612800Y-95406400D01*
X163612800Y-95406400D02*
X161987200Y-95406400D01*
X161987200Y-95406400D02*
X161987200Y-94593600D01*
X144000100Y-117300840D02*
X142399900Y-117300840D01*
X142399900Y-117199240D02*
X144000100Y-117199240D01*
X142399900Y-119599540D02*
X142399900Y-116800460D01*
X142399900Y-116800460D02*
X144000100Y-116800460D01*
X144000100Y-116800460D02*
X144000100Y-119599540D01*
X144000100Y-119599540D02*
X142399900Y-119599540D01*
X141199340Y-121550000D02*
X141499060Y-121849720D01*
X141499060Y-121849720D02*
X141499060Y-121250280D01*
X141499060Y-121250280D02*
X141199340Y-121550000D01*
X141300940Y-121450940D02*
X141300940Y-121649060D01*
X141400000Y-121750660D02*
X141400000Y-121349340D01*
X141100280Y-120749900D02*
X141100280Y-122350100D01*
X141699720Y-122350100D02*
X141699720Y-120749900D01*
X142400760Y-122350100D02*
X140399240Y-122350100D01*
X140399240Y-122350100D02*
X140399240Y-120749900D01*
X140399240Y-120749900D02*
X142400760Y-120749900D01*
X142400760Y-120749900D02*
X142400760Y-122350100D01*
X141199340Y-123800000D02*
X141499060Y-124099720D01*
X141499060Y-124099720D02*
X141499060Y-123500280D01*
X141499060Y-123500280D02*
X141199340Y-123800000D01*
X141300940Y-123700940D02*
X141300940Y-123899060D01*
X141400000Y-124000660D02*
X141400000Y-123599340D01*
X141100280Y-122999900D02*
X141100280Y-124600100D01*
X141699720Y-124600100D02*
X141699720Y-122999900D01*
X142400760Y-124600100D02*
X140399240Y-124600100D01*
X140399240Y-124600100D02*
X140399240Y-122999900D01*
X140399240Y-122999900D02*
X142400760Y-122999900D01*
X142400760Y-122999900D02*
X142400760Y-124600100D01*
X133593600Y-123758800D02*
X134406400Y-123758800D01*
X134381000Y-122641200D02*
X133593600Y-122641200D01*
X134406400Y-122387200D02*
X134406400Y-124012800D01*
X134406400Y-124012800D02*
X133593600Y-124012800D01*
X133593600Y-124012800D02*
X133593600Y-122387200D01*
X133593600Y-122387200D02*
X134406400Y-122387200D01*
X136406400Y-122641200D02*
X135593600Y-122641200D01*
X135619000Y-123758800D02*
X136406400Y-123758800D01*
X135593600Y-124012800D02*
X135593600Y-122387200D01*
X135593600Y-122387200D02*
X136406400Y-122387200D01*
X136406400Y-122387200D02*
X136406400Y-124012800D01*
X136406400Y-124012800D02*
X135593600Y-124012800D01*
X134400760Y-116334040D02*
X133500760Y-116334040D01*
X133500760Y-116334040D02*
X133500760Y-117234040D01*
X133600760Y-117134040D02*
X133400760Y-117334040D01*
X133400760Y-117334040D02*
X133400760Y-116234040D01*
X133400760Y-116234040D02*
X134500760Y-116234040D01*
X134500760Y-116234040D02*
X134300760Y-116434040D01*
X134300760Y-116434040D02*
X133600760Y-116434040D01*
X133600760Y-116434040D02*
X133600760Y-117134040D01*
X133801780Y-117033840D02*
X133801780Y-116934780D01*
X134101500Y-116635060D02*
X133999900Y-116635060D01*
X134299620Y-116635060D02*
X134101500Y-116635060D01*
X134401220Y-116635060D02*
X134200560Y-116635060D01*
X133801780Y-116635060D02*
X137799740Y-116635060D01*
X137799740Y-116635060D02*
X137799740Y-120633020D01*
X137799740Y-120633020D02*
X133801780Y-120633020D01*
X133801780Y-120633020D02*
X133801780Y-116635060D01*
D13*
X134901100Y-128295640D02*
X133798740Y-128295640D01*
X133798740Y-128295640D02*
X133798740Y-129796780D01*
X133798740Y-129796780D02*
X134901100Y-129796780D01*
X143801260Y-129799320D02*
X142698900Y-129799320D01*
X143801260Y-128298180D02*
X143801260Y-129799320D01*
X142698900Y-128298180D02*
X143801260Y-128298180D01*
X142698900Y-133799820D02*
X143801260Y-133799820D01*
X143801260Y-133799820D02*
X143801260Y-135300960D01*
X143801260Y-135300960D02*
X142698900Y-135300960D01*
X134901100Y-133799820D02*
X133798740Y-133799820D01*
X133798740Y-133799820D02*
X133798740Y-135300960D01*
X133798740Y-135300960D02*
X134901100Y-135300960D01*
X134901100Y-137701260D02*
X142698900Y-137701260D01*
X142698900Y-137701260D02*
X142698900Y-127698740D01*
X142698900Y-127698740D02*
X134901100Y-127698740D01*
X134901100Y-127698740D02*
X134901100Y-137701260D01*
D12*
X145800840Y-116899900D02*
X145800840Y-118500100D01*
X145699240Y-118500100D02*
X145699240Y-116899900D01*
X148099540Y-118500100D02*
X145300460Y-118500100D01*
X145300460Y-118500100D02*
X145300460Y-116899900D01*
X145300460Y-116899900D02*
X148099540Y-116899900D01*
X148099540Y-116899900D02*
X148099540Y-118500100D01*
X140406400Y-115241200D02*
X139593600Y-115241200D01*
X139619000Y-116358800D02*
X140406400Y-116358800D01*
X139593600Y-116612800D02*
X139593600Y-114987200D01*
X139593600Y-114987200D02*
X140406400Y-114987200D01*
X140406400Y-114987200D02*
X140406400Y-116612800D01*
X140406400Y-116612800D02*
X139593600Y-116612800D01*
X141906400Y-115241200D02*
X141093600Y-115241200D01*
X141119000Y-116358800D02*
X141906400Y-116358800D01*
X141093600Y-116612800D02*
X141093600Y-114987200D01*
X141093600Y-114987200D02*
X141906400Y-114987200D01*
X141906400Y-114987200D02*
X141906400Y-116612800D01*
X141906400Y-116612800D02*
X141093600Y-116612800D01*
X139093600Y-110658800D02*
X139906400Y-110658800D01*
X139881000Y-109541200D02*
X139093600Y-109541200D01*
X139906400Y-109287200D02*
X139906400Y-110912800D01*
X139906400Y-110912800D02*
X139093600Y-110912800D01*
X139093600Y-110912800D02*
X139093600Y-109287200D01*
X139093600Y-109287200D02*
X139906400Y-109287200D01*
X140843600Y-110658800D02*
X141656400Y-110658800D01*
X141631000Y-109541200D02*
X140843600Y-109541200D01*
X141656400Y-109287200D02*
X141656400Y-110912800D01*
X141656400Y-110912800D02*
X140843600Y-110912800D01*
X140843600Y-110912800D02*
X140843600Y-109287200D01*
X140843600Y-109287200D02*
X141656400Y-109287200D01*
X140350660Y-112600000D02*
X140050940Y-112300280D01*
X140050940Y-112300280D02*
X140050940Y-112899720D01*
X140050940Y-112899720D02*
X140350660Y-112600000D01*
X140249060Y-112699060D02*
X140249060Y-112500940D01*
X140150000Y-112399340D02*
X140150000Y-112800660D01*
X140449720Y-113400100D02*
X140449720Y-111799900D01*
X139850280Y-111799900D02*
X139850280Y-113400100D01*
X139149240Y-111799900D02*
X141150760Y-111799900D01*
X141150760Y-111799900D02*
X141150760Y-113400100D01*
X141150760Y-113400100D02*
X139149240Y-113400100D01*
X139149240Y-113400100D02*
X139149240Y-111799900D01*
D13*
X159470000Y-126510000D02*
X156930000Y-126510000D01*
X156930000Y-129050000D02*
X156930000Y-121430000D01*
X156930000Y-121430000D02*
X159470000Y-121430000D01*
X159470000Y-121430000D02*
X159470000Y-129050000D01*
X159470000Y-129050000D02*
X156930000Y-129050000D01*
X159470000Y-114470000D02*
X156930000Y-114470000D01*
X156930000Y-117010000D02*
X156930000Y-109390000D01*
X156930000Y-109390000D02*
X159470000Y-109390000D01*
X159470000Y-109390000D02*
X159470000Y-117010000D01*
X159470000Y-117010000D02*
X156930000Y-117010000D01*
X159470000Y-102810000D02*
X156930000Y-102810000D01*
X156930000Y-105350000D02*
X156930000Y-97730000D01*
X156930000Y-97730000D02*
X159470000Y-97730000D01*
X159470000Y-97730000D02*
X159470000Y-105350000D01*
X159470000Y-105350000D02*
X156930000Y-105350000D01*
X147110000Y-88830000D02*
X147110000Y-91370000D01*
X149650000Y-91370000D02*
X142030000Y-91370000D01*
X142030000Y-91370000D02*
X142030000Y-88830000D01*
X142030000Y-88830000D02*
X149650000Y-88830000D01*
X149650000Y-88830000D02*
X149650000Y-91370000D01*
X141030000Y-102360000D02*
X143570000Y-104900000D01*
X141030000Y-107440000D02*
X141030000Y-102360000D01*
X143570000Y-102360000D02*
X143570000Y-107440000D01*
X141030000Y-102360000D02*
X143570000Y-102360000D01*
X143570000Y-107440000D02*
X141030000Y-107440000D01*
D12*
X140858800Y-120206400D02*
X140858800Y-119393600D01*
X139741200Y-119419000D02*
X139741200Y-120206400D01*
X139487200Y-119393600D02*
X141112800Y-119393600D01*
X141112800Y-119393600D02*
X141112800Y-120206400D01*
X141112800Y-120206400D02*
X139487200Y-120206400D01*
X139487200Y-120206400D02*
X139487200Y-119393600D01*
D13*
X132370000Y-121220000D02*
X129830000Y-121220000D01*
X129830000Y-123760000D02*
X129830000Y-116140000D01*
X129830000Y-116140000D02*
X132370000Y-116140000D01*
X132370000Y-116140000D02*
X132370000Y-123760000D01*
X132370000Y-123760000D02*
X129830000Y-123760000D01*
D16*
X121070820Y-126680040D02*
G75*
G03X121180040Y-131229180I2329180J-2219960D01*
G01*
X126600400Y-131699080D02*
X125000200Y-131699080D01*
X126600400Y-126100920D02*
X125000200Y-126100920D01*
X125000200Y-126100920D02*
G75*
G03X120600920Y-127299800I-1600200J-2799080D01*
G01*
X120600920Y-130500200D02*
G75*
G03X125000200Y-131699080I2799080J1600200D01*
G01*
X126600400Y-131699080D02*
X126600400Y-126100920D01*
X122201120Y-128800940D02*
X124499820Y-128800940D01*
X124499820Y-128800940D02*
X124499820Y-128999060D01*
X124499820Y-128999060D02*
X122201120Y-128999060D01*
X123499060Y-130098880D02*
X123499060Y-127800180D01*
X123499060Y-127800180D02*
X123300940Y-127800180D01*
X123300940Y-127800180D02*
X123300940Y-130098880D01*
X124704247Y-128900000D02*
G75*
G03X124704247Y-128900000I-1304247J0D01*
G01*
X121070820Y-108780040D02*
G75*
G03X121180040Y-113329180I2329180J-2219960D01*
G01*
X126600400Y-113799080D02*
X125000200Y-113799080D01*
X126600400Y-108200920D02*
X125000200Y-108200920D01*
X125000200Y-108200920D02*
G75*
G03X120600920Y-109399800I-1600200J-2799080D01*
G01*
X120600920Y-112600200D02*
G75*
G03X125000200Y-113799080I2799080J1600200D01*
G01*
X126600400Y-113799080D02*
X126600400Y-108200920D01*
X122201120Y-110900940D02*
X124499820Y-110900940D01*
X124499820Y-110900940D02*
X124499820Y-111099060D01*
X124499820Y-111099060D02*
X122201120Y-111099060D01*
X123499060Y-112198880D02*
X123499060Y-109900180D01*
X123499060Y-109900180D02*
X123300940Y-109900180D01*
X123300940Y-109900180D02*
X123300940Y-112198880D01*
X124704247Y-111000000D02*
G75*
G03X124704247Y-111000000I-1304247J0D01*
G01*
X121070820Y-90830040D02*
G75*
G03X121180040Y-95379180I2329180J-2219960D01*
G01*
X126600400Y-95849080D02*
X125000200Y-95849080D01*
X126600400Y-90250920D02*
X125000200Y-90250920D01*
X125000200Y-90250920D02*
G75*
G03X120600920Y-91449800I-1600200J-2799080D01*
G01*
X120600920Y-94650200D02*
G75*
G03X125000200Y-95849080I2799080J1600200D01*
G01*
X126600400Y-95849080D02*
X126600400Y-90250920D01*
X122201120Y-92950940D02*
X124499820Y-92950940D01*
X124499820Y-92950940D02*
X124499820Y-93149060D01*
X124499820Y-93149060D02*
X122201120Y-93149060D01*
X123499060Y-94248880D02*
X123499060Y-91950180D01*
X123499060Y-91950180D02*
X123300940Y-91950180D01*
X123300940Y-91950180D02*
X123300940Y-94248880D01*
X124704247Y-93050000D02*
G75*
G03X124704247Y-93050000I-1304247J0D01*
G01*
D13*
X159900000Y-135540000D02*
X162440000Y-133000000D01*
X164980000Y-135540000D02*
X159900000Y-135540000D01*
X159900000Y-133000000D02*
X164980000Y-133000000D01*
X159900000Y-135540000D02*
X159900000Y-133000000D01*
X164980000Y-133000000D02*
X164980000Y-135540000D01*
D17*
X168985714Y-91733333D02*
X169042857Y-91590476D01*
X169042857Y-91352380D01*
X168985714Y-91257142D01*
X168928571Y-91209523D01*
X168814285Y-91161904D01*
X168700000Y-91161904D01*
X168585714Y-91209523D01*
X168528571Y-91257142D01*
X168471428Y-91352380D01*
X168414285Y-91542857D01*
X168357142Y-91638095D01*
X168300000Y-91685714D01*
X168185714Y-91733333D01*
X168071428Y-91733333D01*
X167957142Y-91685714D01*
X167900000Y-91638095D01*
X167842857Y-91542857D01*
X167842857Y-91304761D01*
X167900000Y-91161904D01*
X167842857Y-90828571D02*
X169042857Y-90590476D01*
X168185714Y-90400000D01*
X169042857Y-90209523D01*
X167842857Y-89971428D01*
X169042857Y-89066666D02*
X169042857Y-89638095D01*
X169042857Y-89352380D02*
X167842857Y-89352380D01*
X168014285Y-89447619D01*
X168128571Y-89542857D01*
X168185714Y-89638095D01*
X137172857Y-108505714D02*
X135972857Y-108505714D01*
X135972857Y-108124761D01*
X136030000Y-108029523D01*
X136087142Y-107981904D01*
X136201428Y-107934285D01*
X136372857Y-107934285D01*
X136487142Y-107981904D01*
X136544285Y-108029523D01*
X136601428Y-108124761D01*
X136601428Y-108505714D01*
X137172857Y-106934285D02*
X136601428Y-107267619D01*
X137172857Y-107505714D02*
X135972857Y-107505714D01*
X135972857Y-107124761D01*
X136030000Y-107029523D01*
X136087142Y-106981904D01*
X136201428Y-106934285D01*
X136372857Y-106934285D01*
X136487142Y-106981904D01*
X136544285Y-107029523D01*
X136601428Y-107124761D01*
X136601428Y-107505714D01*
X135972857Y-106315238D02*
X135972857Y-106124761D01*
X136030000Y-106029523D01*
X136144285Y-105934285D01*
X136372857Y-105886666D01*
X136772857Y-105886666D01*
X137001428Y-105934285D01*
X137115714Y-106029523D01*
X137172857Y-106124761D01*
X137172857Y-106315238D01*
X137115714Y-106410476D01*
X137001428Y-106505714D01*
X136772857Y-106553333D01*
X136372857Y-106553333D01*
X136144285Y-106505714D01*
X136030000Y-106410476D01*
X135972857Y-106315238D01*
X136030000Y-104934285D02*
X135972857Y-105029523D01*
X135972857Y-105172380D01*
X136030000Y-105315238D01*
X136144285Y-105410476D01*
X136258571Y-105458095D01*
X136487142Y-105505714D01*
X136658571Y-105505714D01*
X136887142Y-105458095D01*
X137001428Y-105410476D01*
X137115714Y-105315238D01*
X137172857Y-105172380D01*
X137172857Y-105077142D01*
X137115714Y-104934285D01*
X137058571Y-104886666D01*
X136658571Y-104886666D01*
X136658571Y-105077142D01*
X137172857Y-103886666D02*
X136601428Y-104220000D01*
X137172857Y-104458095D02*
X135972857Y-104458095D01*
X135972857Y-104077142D01*
X136030000Y-103981904D01*
X136087142Y-103934285D01*
X136201428Y-103886666D01*
X136372857Y-103886666D01*
X136487142Y-103934285D01*
X136544285Y-103981904D01*
X136601428Y-104077142D01*
X136601428Y-104458095D01*
X136830000Y-103505714D02*
X136830000Y-103029523D01*
X137172857Y-103600952D02*
X135972857Y-103267619D01*
X137172857Y-102934285D01*
X137172857Y-102600952D02*
X135972857Y-102600952D01*
X136830000Y-102267619D01*
X135972857Y-101934285D01*
X137172857Y-101934285D01*
X147646581Y-100324077D02*
X148333485Y-101010981D01*
X148447969Y-101058122D01*
X148522047Y-101064856D01*
X148629796Y-101037918D01*
X148764483Y-100903231D01*
X148791421Y-100795482D01*
X148784687Y-100721404D01*
X148737546Y-100606920D01*
X148050642Y-99920016D01*
X149606277Y-100061438D02*
X149202216Y-100465499D01*
X149404247Y-100263468D02*
X148555719Y-99414940D01*
X148609593Y-99603502D01*
X148623062Y-99751658D01*
X148596125Y-99859407D01*
X150852380Y-91942857D02*
X150852380Y-92914285D01*
X150900000Y-93028571D01*
X150947619Y-93085714D01*
X151042857Y-93142857D01*
X151233333Y-93142857D01*
X151328571Y-93085714D01*
X151376190Y-93028571D01*
X151423809Y-92914285D01*
X151423809Y-91942857D01*
X151852380Y-93085714D02*
X151995238Y-93142857D01*
X152233333Y-93142857D01*
X152328571Y-93085714D01*
X152376190Y-93028571D01*
X152423809Y-92914285D01*
X152423809Y-92800000D01*
X152376190Y-92685714D01*
X152328571Y-92628571D01*
X152233333Y-92571428D01*
X152042857Y-92514285D01*
X151947619Y-92457142D01*
X151900000Y-92400000D01*
X151852380Y-92285714D01*
X151852380Y-92171428D01*
X151900000Y-92057142D01*
X151947619Y-92000000D01*
X152042857Y-91942857D01*
X152280952Y-91942857D01*
X152423809Y-92000000D01*
X152804761Y-92800000D02*
X153280952Y-92800000D01*
X152709523Y-93142857D02*
X153042857Y-91942857D01*
X153376190Y-93142857D01*
X154280952Y-93142857D02*
X153947619Y-92571428D01*
X153709523Y-93142857D02*
X153709523Y-91942857D01*
X154090476Y-91942857D01*
X154185714Y-92000000D01*
X154233333Y-92057142D01*
X154280952Y-92171428D01*
X154280952Y-92342857D01*
X154233333Y-92457142D01*
X154185714Y-92514285D01*
X154090476Y-92571428D01*
X153709523Y-92571428D01*
X154566666Y-91942857D02*
X155138095Y-91942857D01*
X154852380Y-93142857D02*
X154852380Y-91942857D01*
X155423809Y-92057142D02*
X155471428Y-92000000D01*
X155566666Y-91942857D01*
X155804761Y-91942857D01*
X155900000Y-92000000D01*
X155947619Y-92057142D01*
X155995238Y-92171428D01*
X155995238Y-92285714D01*
X155947619Y-92457142D01*
X155376190Y-93142857D01*
X155995238Y-93142857D01*
X136885714Y-94750000D02*
X136942857Y-94607142D01*
X136942857Y-94369047D01*
X136885714Y-94273809D01*
X136828571Y-94226190D01*
X136714285Y-94178571D01*
X136600000Y-94178571D01*
X136485714Y-94226190D01*
X136428571Y-94273809D01*
X136371428Y-94369047D01*
X136314285Y-94559523D01*
X136257142Y-94654761D01*
X136200000Y-94702380D01*
X136085714Y-94750000D01*
X135971428Y-94750000D01*
X135857142Y-94702380D01*
X135800000Y-94654761D01*
X135742857Y-94559523D01*
X135742857Y-94321428D01*
X135800000Y-94178571D01*
X136942857Y-93750000D02*
X135742857Y-93750000D01*
X135742857Y-93369047D01*
X135800000Y-93273809D01*
X135857142Y-93226190D01*
X135971428Y-93178571D01*
X136142857Y-93178571D01*
X136257142Y-93226190D01*
X136314285Y-93273809D01*
X136371428Y-93369047D01*
X136371428Y-93750000D01*
X136942857Y-92750000D02*
X135742857Y-92750000D01*
X136942857Y-91750000D02*
X136942857Y-92321428D01*
X136942857Y-92035714D02*
X135742857Y-92035714D01*
X135914285Y-92130952D01*
X136028571Y-92226190D01*
X136085714Y-92321428D01*
D18*
X138104761Y-91052380D02*
X137723809Y-91052380D01*
X137723809Y-90052380D01*
X138371428Y-90528571D02*
X138638095Y-90528571D01*
X138752380Y-91052380D02*
X138371428Y-91052380D01*
X138371428Y-90052380D01*
X138752380Y-90052380D01*
X139095238Y-91052380D02*
X139095238Y-90052380D01*
X139285714Y-90052380D01*
X139400000Y-90100000D01*
X139476190Y-90195238D01*
X139514285Y-90290476D01*
X139552380Y-90480952D01*
X139552380Y-90623809D01*
X139514285Y-90814285D01*
X139476190Y-90909523D01*
X139400000Y-91004761D01*
X139285714Y-91052380D01*
X139095238Y-91052380D01*
X140314285Y-91052380D02*
X139857142Y-91052380D01*
X140085714Y-91052380D02*
X140085714Y-90052380D01*
X140009523Y-90195238D01*
X139933333Y-90290476D01*
X139857142Y-90338095D01*
X138004761Y-94352380D02*
X137623809Y-94352380D01*
X137623809Y-93352380D01*
X138271428Y-93828571D02*
X138538095Y-93828571D01*
X138652380Y-94352380D02*
X138271428Y-94352380D01*
X138271428Y-93352380D01*
X138652380Y-93352380D01*
X138995238Y-94352380D02*
X138995238Y-93352380D01*
X139185714Y-93352380D01*
X139300000Y-93400000D01*
X139376190Y-93495238D01*
X139414285Y-93590476D01*
X139452380Y-93780952D01*
X139452380Y-93923809D01*
X139414285Y-94114285D01*
X139376190Y-94209523D01*
X139300000Y-94304761D01*
X139185714Y-94352380D01*
X138995238Y-94352380D01*
X139757142Y-93447619D02*
X139795238Y-93400000D01*
X139871428Y-93352380D01*
X140061904Y-93352380D01*
X140138095Y-93400000D01*
X140176190Y-93447619D01*
X140214285Y-93542857D01*
X140214285Y-93638095D01*
X140176190Y-93780952D01*
X139719047Y-94352380D01*
X140214285Y-94352380D01*
X138004761Y-97652380D02*
X137623809Y-97652380D01*
X137623809Y-96652380D01*
X138271428Y-97128571D02*
X138538095Y-97128571D01*
X138652380Y-97652380D02*
X138271428Y-97652380D01*
X138271428Y-96652380D01*
X138652380Y-96652380D01*
X138995238Y-97652380D02*
X138995238Y-96652380D01*
X139185714Y-96652380D01*
X139300000Y-96700000D01*
X139376190Y-96795238D01*
X139414285Y-96890476D01*
X139452380Y-97080952D01*
X139452380Y-97223809D01*
X139414285Y-97414285D01*
X139376190Y-97509523D01*
X139300000Y-97604761D01*
X139185714Y-97652380D01*
X138995238Y-97652380D01*
X139719047Y-96652380D02*
X140214285Y-96652380D01*
X139947619Y-97033333D01*
X140061904Y-97033333D01*
X140138095Y-97080952D01*
X140176190Y-97128571D01*
X140214285Y-97223809D01*
X140214285Y-97461904D01*
X140176190Y-97557142D01*
X140138095Y-97604761D01*
X140061904Y-97652380D01*
X139833333Y-97652380D01*
X139757142Y-97604761D01*
X139719047Y-97557142D01*
X138004761Y-100952380D02*
X137623809Y-100952380D01*
X137623809Y-99952380D01*
X138271428Y-100428571D02*
X138538095Y-100428571D01*
X138652380Y-100952380D02*
X138271428Y-100952380D01*
X138271428Y-99952380D01*
X138652380Y-99952380D01*
X138995238Y-100952380D02*
X138995238Y-99952380D01*
X139185714Y-99952380D01*
X139300000Y-100000000D01*
X139376190Y-100095238D01*
X139414285Y-100190476D01*
X139452380Y-100380952D01*
X139452380Y-100523809D01*
X139414285Y-100714285D01*
X139376190Y-100809523D01*
X139300000Y-100904761D01*
X139185714Y-100952380D01*
X138995238Y-100952380D01*
X140138095Y-100285714D02*
X140138095Y-100952380D01*
X139947619Y-99904761D02*
X139757142Y-100619047D01*
X140252380Y-100619047D01*
D17*
X163285714Y-91783333D02*
X163342857Y-91640476D01*
X163342857Y-91402380D01*
X163285714Y-91307142D01*
X163228571Y-91259523D01*
X163114285Y-91211904D01*
X163000000Y-91211904D01*
X162885714Y-91259523D01*
X162828571Y-91307142D01*
X162771428Y-91402380D01*
X162714285Y-91592857D01*
X162657142Y-91688095D01*
X162600000Y-91735714D01*
X162485714Y-91783333D01*
X162371428Y-91783333D01*
X162257142Y-91735714D01*
X162200000Y-91688095D01*
X162142857Y-91592857D01*
X162142857Y-91354761D01*
X162200000Y-91211904D01*
X162142857Y-90878571D02*
X163342857Y-90640476D01*
X162485714Y-90450000D01*
X163342857Y-90259523D01*
X162142857Y-90021428D01*
X162257142Y-89688095D02*
X162200000Y-89640476D01*
X162142857Y-89545238D01*
X162142857Y-89307142D01*
X162200000Y-89211904D01*
X162257142Y-89164285D01*
X162371428Y-89116666D01*
X162485714Y-89116666D01*
X162657142Y-89164285D01*
X163342857Y-89735714D01*
X163342857Y-89116666D01*
D19*
X145437516Y-113750724D02*
X145437516Y-114560863D01*
X145485171Y-114656174D01*
X145532826Y-114703829D01*
X145628137Y-114751484D01*
X145818758Y-114751484D01*
X145914068Y-114703829D01*
X145961723Y-114656174D01*
X146009379Y-114560863D01*
X146009379Y-113750724D01*
X146914828Y-113750724D02*
X146724207Y-113750724D01*
X146628897Y-113798380D01*
X146581241Y-113846035D01*
X146485931Y-113989000D01*
X146438276Y-114179621D01*
X146438276Y-114560863D01*
X146485931Y-114656174D01*
X146533586Y-114703829D01*
X146628897Y-114751484D01*
X146819518Y-114751484D01*
X146914828Y-114703829D01*
X146962483Y-114656174D01*
X147010139Y-114560863D01*
X147010139Y-114322587D01*
X146962483Y-114227277D01*
X146914828Y-114179621D01*
X146819518Y-114131966D01*
X146628897Y-114131966D01*
X146533586Y-114179621D01*
X146485931Y-114227277D01*
X146438276Y-114322587D01*
D20*
X162890774Y-95128995D02*
X162795222Y-95195882D01*
X162890774Y-95243658D02*
X162690114Y-95243658D01*
X162690114Y-95167216D01*
X162699670Y-95148106D01*
X162709225Y-95138550D01*
X162728335Y-95128995D01*
X162757001Y-95128995D01*
X162776111Y-95138550D01*
X162785667Y-95148106D01*
X162795222Y-95167216D01*
X162795222Y-95243658D01*
X162890774Y-94937890D02*
X162890774Y-95052553D01*
X162890774Y-94995222D02*
X162690114Y-94995222D01*
X162718780Y-95014332D01*
X162737890Y-95033443D01*
X162747446Y-95052553D01*
X162690114Y-94871004D02*
X162690114Y-94746786D01*
X162766556Y-94813672D01*
X162766556Y-94785007D01*
X162776111Y-94765896D01*
X162785667Y-94756341D01*
X162804777Y-94746786D01*
X162852553Y-94746786D01*
X162871664Y-94756341D01*
X162881219Y-94765896D01*
X162890774Y-94785007D01*
X162890774Y-94842338D01*
X162881219Y-94861449D01*
X162871664Y-94871004D01*
D17*
X138353333Y-122132857D02*
X138020000Y-121561428D01*
X137781904Y-122132857D02*
X137781904Y-120932857D01*
X138162857Y-120932857D01*
X138258095Y-120990000D01*
X138305714Y-121047142D01*
X138353333Y-121161428D01*
X138353333Y-121332857D01*
X138305714Y-121447142D01*
X138258095Y-121504285D01*
X138162857Y-121561428D01*
X137781904Y-121561428D01*
X138686666Y-120932857D02*
X139353333Y-122132857D01*
X139353333Y-120932857D02*
X138686666Y-122132857D01*
X137868095Y-123162857D02*
X138439523Y-123162857D01*
X138153809Y-124362857D02*
X138153809Y-123162857D01*
X138677619Y-123162857D02*
X139344285Y-124362857D01*
X139344285Y-123162857D02*
X138677619Y-124362857D01*
D20*
X133871004Y-123290774D02*
X133804117Y-123195222D01*
X133756341Y-123290774D02*
X133756341Y-123090114D01*
X133832783Y-123090114D01*
X133851893Y-123099670D01*
X133861449Y-123109225D01*
X133871004Y-123128335D01*
X133871004Y-123157001D01*
X133861449Y-123176111D01*
X133851893Y-123185667D01*
X133832783Y-123195222D01*
X133756341Y-123195222D01*
X133947446Y-123109225D02*
X133957001Y-123099670D01*
X133976111Y-123090114D01*
X134023888Y-123090114D01*
X134042998Y-123099670D01*
X134052553Y-123109225D01*
X134062109Y-123128335D01*
X134062109Y-123147446D01*
X134052553Y-123176111D01*
X133937890Y-123290774D01*
X134062109Y-123290774D01*
X134138550Y-123109225D02*
X134148106Y-123099670D01*
X134167216Y-123090114D01*
X134214992Y-123090114D01*
X134234103Y-123099670D01*
X134243658Y-123109225D01*
X134253213Y-123128335D01*
X134253213Y-123147446D01*
X134243658Y-123176111D01*
X134128995Y-123290774D01*
X134253213Y-123290774D01*
X135871004Y-123290774D02*
X135804117Y-123195222D01*
X135756341Y-123290774D02*
X135756341Y-123090114D01*
X135832783Y-123090114D01*
X135851893Y-123099670D01*
X135861449Y-123109225D01*
X135871004Y-123128335D01*
X135871004Y-123157001D01*
X135861449Y-123176111D01*
X135851893Y-123185667D01*
X135832783Y-123195222D01*
X135756341Y-123195222D01*
X135947446Y-123109225D02*
X135957001Y-123099670D01*
X135976111Y-123090114D01*
X136023888Y-123090114D01*
X136042998Y-123099670D01*
X136052553Y-123109225D01*
X136062109Y-123128335D01*
X136062109Y-123147446D01*
X136052553Y-123176111D01*
X135937890Y-123290774D01*
X136062109Y-123290774D01*
X136128995Y-123090114D02*
X136253213Y-123090114D01*
X136186327Y-123166556D01*
X136214992Y-123166556D01*
X136234103Y-123176111D01*
X136243658Y-123185667D01*
X136253213Y-123204777D01*
X136253213Y-123252553D01*
X136243658Y-123271664D01*
X136234103Y-123281219D01*
X136214992Y-123290774D01*
X136157661Y-123290774D01*
X136138550Y-123281219D01*
X136128995Y-123271664D01*
D17*
X136660952Y-111942857D02*
X136851428Y-111942857D01*
X136946666Y-112000000D01*
X137041904Y-112114285D01*
X137089523Y-112342857D01*
X137089523Y-112742857D01*
X137041904Y-112971428D01*
X136946666Y-113085714D01*
X136851428Y-113142857D01*
X136660952Y-113142857D01*
X136565714Y-113085714D01*
X136470476Y-112971428D01*
X136422857Y-112742857D01*
X136422857Y-112342857D01*
X136470476Y-112114285D01*
X136565714Y-112000000D01*
X136660952Y-111942857D01*
X137518095Y-113142857D02*
X137518095Y-111942857D01*
X138089523Y-113142857D01*
X138089523Y-111942857D01*
X144447619Y-93142857D02*
X144447619Y-91942857D01*
X144876190Y-92057142D02*
X144923809Y-92000000D01*
X145019047Y-91942857D01*
X145257142Y-91942857D01*
X145352380Y-92000000D01*
X145400000Y-92057142D01*
X145447619Y-92171428D01*
X145447619Y-92285714D01*
X145400000Y-92457142D01*
X144828571Y-93142857D01*
X145447619Y-93142857D01*
X146447619Y-93028571D02*
X146400000Y-93085714D01*
X146257142Y-93142857D01*
X146161904Y-93142857D01*
X146019047Y-93085714D01*
X145923809Y-92971428D01*
X145876190Y-92857142D01*
X145828571Y-92628571D01*
X145828571Y-92457142D01*
X145876190Y-92228571D01*
X145923809Y-92114285D01*
X146019047Y-92000000D01*
X146161904Y-91942857D01*
X146257142Y-91942857D01*
X146400000Y-92000000D01*
X146447619Y-92057142D01*
X146828571Y-92057142D02*
X146876190Y-92000000D01*
X146971428Y-91942857D01*
X147209523Y-91942857D01*
X147304761Y-92000000D01*
X147352380Y-92057142D01*
X147400000Y-92171428D01*
X147400000Y-92285714D01*
X147352380Y-92457142D01*
X146780952Y-93142857D01*
X147400000Y-93142857D01*
D20*
X140371664Y-119928995D02*
X140381219Y-119938550D01*
X140390774Y-119967216D01*
X140390774Y-119986327D01*
X140381219Y-120014992D01*
X140362109Y-120034103D01*
X140342998Y-120043658D01*
X140304777Y-120053213D01*
X140276111Y-120053213D01*
X140237890Y-120043658D01*
X140218780Y-120034103D01*
X140199670Y-120014992D01*
X140190114Y-119986327D01*
X140190114Y-119967216D01*
X140199670Y-119938550D01*
X140209225Y-119928995D01*
X140390774Y-119737890D02*
X140390774Y-119852553D01*
X140390774Y-119795222D02*
X140190114Y-119795222D01*
X140218780Y-119814332D01*
X140237890Y-119833443D01*
X140247446Y-119852553D01*
X140209225Y-119661449D02*
X140199670Y-119651893D01*
X140190114Y-119632783D01*
X140190114Y-119585007D01*
X140199670Y-119565896D01*
X140209225Y-119556341D01*
X140228335Y-119546786D01*
X140247446Y-119546786D01*
X140276111Y-119556341D01*
X140390774Y-119671004D01*
X140390774Y-119546786D01*
D17*
X158309523Y-133602857D02*
X157833333Y-133602857D01*
X157785714Y-134174285D01*
X157833333Y-134117142D01*
X157928571Y-134060000D01*
X158166666Y-134060000D01*
X158261904Y-134117142D01*
X158309523Y-134174285D01*
X158357142Y-134288571D01*
X158357142Y-134574285D01*
X158309523Y-134688571D01*
X158261904Y-134745714D01*
X158166666Y-134802857D01*
X157928571Y-134802857D01*
X157833333Y-134745714D01*
X157785714Y-134688571D01*
X158642857Y-133602857D02*
X158976190Y-134802857D01*
X159309523Y-133602857D01*
%LPC*%
D21*
X131100000Y-132900000D03*
X131100000Y-128900000D03*
X131100000Y-124900000D03*
X121100000Y-134400000D03*
X121100000Y-123400000D03*
X131100000Y-115000000D03*
X131100000Y-111000000D03*
X131100000Y-107000000D03*
X121100000Y-116500000D03*
X121100000Y-105500000D03*
X131100000Y-97050000D03*
X131100000Y-93050000D03*
X131100000Y-89050000D03*
X121100000Y-98550000D03*
X121100000Y-87550000D03*
D22*
X165600000Y-93999180D03*
X165600000Y-86800820D03*
D23*
X137750000Y-110851840D03*
X137750000Y-109348160D03*
D24*
X134100000Y-101220000D03*
D25*
X134100000Y-103760000D03*
X134100000Y-106300000D03*
X134100000Y-108840000D03*
X134100000Y-111380000D03*
X134100000Y-113920000D03*
D10*
G36*
X151018765Y-104669177D02*
X150028476Y-103678888D01*
X150311121Y-103396243D01*
X151301410Y-104386532D01*
X151018765Y-104669177D01*
X151018765Y-104669177D01*
G37*
G36*
X151372319Y-104315624D02*
X150382030Y-103325335D01*
X150664675Y-103042690D01*
X151654964Y-104032979D01*
X151372319Y-104315624D01*
X151372319Y-104315624D01*
G37*
G36*
X151725872Y-103962070D02*
X150735583Y-102971781D01*
X151018228Y-102689136D01*
X152008517Y-103679425D01*
X151725872Y-103962070D01*
X151725872Y-103962070D01*
G37*
G36*
X152079425Y-103608517D02*
X151089136Y-102618228D01*
X151371781Y-102335583D01*
X152362070Y-103325872D01*
X152079425Y-103608517D01*
X152079425Y-103608517D01*
G37*
G36*
X152432979Y-103254964D02*
X151442690Y-102264675D01*
X151725335Y-101982030D01*
X152715624Y-102972319D01*
X152432979Y-103254964D01*
X152432979Y-103254964D01*
G37*
G36*
X149958105Y-105729837D02*
X148967816Y-104739548D01*
X149250461Y-104456903D01*
X150240750Y-105447192D01*
X149958105Y-105729837D01*
X149958105Y-105729837D01*
G37*
G36*
X150311658Y-105376284D02*
X149321369Y-104385995D01*
X149604014Y-104103350D01*
X150594303Y-105093639D01*
X150311658Y-105376284D01*
X150311658Y-105376284D01*
G37*
G36*
X150665212Y-105022731D02*
X149674923Y-104032442D01*
X149957568Y-103749797D01*
X150947857Y-104740086D01*
X150665212Y-105022731D01*
X150665212Y-105022731D01*
G37*
G36*
X153139548Y-99932184D02*
X152856903Y-99649539D01*
X153847192Y-98659250D01*
X154129837Y-98941895D01*
X153139548Y-99932184D01*
X153139548Y-99932184D01*
G37*
G36*
X152785995Y-99578631D02*
X152503350Y-99295986D01*
X153493639Y-98305697D01*
X153776284Y-98588342D01*
X152785995Y-99578631D01*
X152785995Y-99578631D01*
G37*
G36*
X152432442Y-99225077D02*
X152149797Y-98942432D01*
X153140086Y-97952143D01*
X153422731Y-98234788D01*
X152432442Y-99225077D01*
X152432442Y-99225077D01*
G37*
G36*
X152078888Y-98871524D02*
X151796243Y-98588879D01*
X152786532Y-97598590D01*
X153069177Y-97881235D01*
X152078888Y-98871524D01*
X152078888Y-98871524D01*
G37*
G36*
X151725335Y-98517970D02*
X151442690Y-98235325D01*
X152432979Y-97245036D01*
X152715624Y-97527681D01*
X151725335Y-98517970D01*
X151725335Y-98517970D01*
G37*
G36*
X151371781Y-98164417D02*
X151089136Y-97881772D01*
X152079425Y-96891483D01*
X152362070Y-97174128D01*
X151371781Y-98164417D01*
X151371781Y-98164417D01*
G37*
G36*
X151018228Y-97810864D02*
X150735583Y-97528219D01*
X151725872Y-96537930D01*
X152008517Y-96820575D01*
X151018228Y-97810864D01*
X151018228Y-97810864D01*
G37*
G36*
X150664675Y-97457310D02*
X150382030Y-97174665D01*
X151372319Y-96184376D01*
X151654964Y-96467021D01*
X150664675Y-97457310D01*
X150664675Y-97457310D01*
G37*
G36*
X148049539Y-96043097D02*
X147059250Y-95052808D01*
X147341895Y-94770163D01*
X148332184Y-95760452D01*
X148049539Y-96043097D01*
X148049539Y-96043097D01*
G37*
G36*
X147695986Y-96396650D02*
X146705697Y-95406361D01*
X146988342Y-95123716D01*
X147978631Y-96114005D01*
X147695986Y-96396650D01*
X147695986Y-96396650D01*
G37*
G36*
X147342432Y-96750203D02*
X146352143Y-95759914D01*
X146634788Y-95477269D01*
X147625077Y-96467558D01*
X147342432Y-96750203D01*
X147342432Y-96750203D01*
G37*
G36*
X146988879Y-97103757D02*
X145998590Y-96113468D01*
X146281235Y-95830823D01*
X147271524Y-96821112D01*
X146988879Y-97103757D01*
X146988879Y-97103757D01*
G37*
G36*
X146635325Y-97457310D02*
X145645036Y-96467021D01*
X145927681Y-96184376D01*
X146917970Y-97174665D01*
X146635325Y-97457310D01*
X146635325Y-97457310D01*
G37*
G36*
X146281772Y-97810864D02*
X145291483Y-96820575D01*
X145574128Y-96537930D01*
X146564417Y-97528219D01*
X146281772Y-97810864D01*
X146281772Y-97810864D01*
G37*
G36*
X145928219Y-98164417D02*
X144937930Y-97174128D01*
X145220575Y-96891483D01*
X146210864Y-97881772D01*
X145928219Y-98164417D01*
X145928219Y-98164417D01*
G37*
G36*
X145574665Y-98517970D02*
X144584376Y-97527681D01*
X144867021Y-97245036D01*
X145857310Y-98235325D01*
X145574665Y-98517970D01*
X145574665Y-98517970D01*
G37*
G36*
X143452808Y-101840750D02*
X143170163Y-101558105D01*
X144160452Y-100567816D01*
X144443097Y-100850461D01*
X143452808Y-101840750D01*
X143452808Y-101840750D01*
G37*
G36*
X143806361Y-102194303D02*
X143523716Y-101911658D01*
X144514005Y-100921369D01*
X144796650Y-101204014D01*
X143806361Y-102194303D01*
X143806361Y-102194303D01*
G37*
G36*
X144159914Y-102547857D02*
X143877269Y-102265212D01*
X144867558Y-101274923D01*
X145150203Y-101557568D01*
X144159914Y-102547857D01*
X144159914Y-102547857D01*
G37*
G36*
X144513468Y-102901410D02*
X144230823Y-102618765D01*
X145221112Y-101628476D01*
X145503757Y-101911121D01*
X144513468Y-102901410D01*
X144513468Y-102901410D01*
G37*
G36*
X144867021Y-103254964D02*
X144584376Y-102972319D01*
X145574665Y-101982030D01*
X145857310Y-102264675D01*
X144867021Y-103254964D01*
X144867021Y-103254964D01*
G37*
G36*
X145220575Y-103608517D02*
X144937930Y-103325872D01*
X145928219Y-102335583D01*
X146210864Y-102618228D01*
X145220575Y-103608517D01*
X145220575Y-103608517D01*
G37*
G36*
X145574128Y-103962070D02*
X145291483Y-103679425D01*
X146281772Y-102689136D01*
X146564417Y-102971781D01*
X145574128Y-103962070D01*
X145574128Y-103962070D01*
G37*
G36*
X145927681Y-104315624D02*
X145645036Y-104032979D01*
X146635325Y-103042690D01*
X146917970Y-103325335D01*
X145927681Y-104315624D01*
X145927681Y-104315624D01*
G37*
G36*
X152786532Y-102901410D02*
X151796243Y-101911121D01*
X152078888Y-101628476D01*
X153069177Y-102618765D01*
X152786532Y-102901410D01*
X152786532Y-102901410D01*
G37*
G36*
X153140086Y-102547857D02*
X152149797Y-101557568D01*
X152432442Y-101274923D01*
X153422731Y-102265212D01*
X153140086Y-102547857D01*
X153140086Y-102547857D01*
G37*
G36*
X153493639Y-102194303D02*
X152503350Y-101204014D01*
X152785995Y-100921369D01*
X153776284Y-101911658D01*
X153493639Y-102194303D01*
X153493639Y-102194303D01*
G37*
G36*
X153847192Y-101840750D02*
X152856903Y-100850461D01*
X153139548Y-100567816D01*
X154129837Y-101558105D01*
X153847192Y-101840750D01*
X153847192Y-101840750D01*
G37*
G36*
X150311121Y-97103757D02*
X150028476Y-96821112D01*
X151018765Y-95830823D01*
X151301410Y-96113468D01*
X150311121Y-97103757D01*
X150311121Y-97103757D01*
G37*
G36*
X149957568Y-96750203D02*
X149674923Y-96467558D01*
X150665212Y-95477269D01*
X150947857Y-95759914D01*
X149957568Y-96750203D01*
X149957568Y-96750203D01*
G37*
G36*
X149604014Y-96396650D02*
X149321369Y-96114005D01*
X150311658Y-95123716D01*
X150594303Y-95406361D01*
X149604014Y-96396650D01*
X149604014Y-96396650D01*
G37*
G36*
X149250461Y-96043097D02*
X148967816Y-95760452D01*
X149958105Y-94770163D01*
X150240750Y-95052808D01*
X149250461Y-96043097D01*
X149250461Y-96043097D01*
G37*
G36*
X145221112Y-98871524D02*
X144230823Y-97881235D01*
X144513468Y-97598590D01*
X145503757Y-98588879D01*
X145221112Y-98871524D01*
X145221112Y-98871524D01*
G37*
G36*
X144867558Y-99225077D02*
X143877269Y-98234788D01*
X144159914Y-97952143D01*
X145150203Y-98942432D01*
X144867558Y-99225077D01*
X144867558Y-99225077D01*
G37*
G36*
X144514005Y-99578631D02*
X143523716Y-98588342D01*
X143806361Y-98305697D01*
X144796650Y-99295986D01*
X144514005Y-99578631D01*
X144514005Y-99578631D01*
G37*
G36*
X144160452Y-99932184D02*
X143170163Y-98941895D01*
X143452808Y-98659250D01*
X144443097Y-99649539D01*
X144160452Y-99932184D01*
X144160452Y-99932184D01*
G37*
G36*
X146281235Y-104669177D02*
X145998590Y-104386532D01*
X146988879Y-103396243D01*
X147271524Y-103678888D01*
X146281235Y-104669177D01*
X146281235Y-104669177D01*
G37*
G36*
X146634788Y-105022731D02*
X146352143Y-104740086D01*
X147342432Y-103749797D01*
X147625077Y-104032442D01*
X146634788Y-105022731D01*
X146634788Y-105022731D01*
G37*
G36*
X146988342Y-105376284D02*
X146705697Y-105093639D01*
X147695986Y-104103350D01*
X147978631Y-104385995D01*
X146988342Y-105376284D01*
X146988342Y-105376284D01*
G37*
G36*
X147341895Y-105729837D02*
X147059250Y-105447192D01*
X148049539Y-104456903D01*
X148332184Y-104739548D01*
X147341895Y-105729837D01*
X147341895Y-105729837D01*
G37*
G36*
X154510803Y-103432448D02*
X153732448Y-104210803D01*
X153025935Y-103504290D01*
X153804290Y-102725935D01*
X154510803Y-103432448D01*
X154510803Y-103432448D01*
G37*
G36*
X155574065Y-104495710D02*
X154795710Y-105274065D01*
X154089197Y-104567552D01*
X154867552Y-103789197D01*
X155574065Y-104495710D01*
X155574065Y-104495710D01*
G37*
G36*
X148889197Y-93967552D02*
X149667552Y-93189197D01*
X150374065Y-93895710D01*
X149595710Y-94674065D01*
X148889197Y-93967552D01*
X148889197Y-93967552D01*
G37*
G36*
X147825935Y-92904290D02*
X148604290Y-92125935D01*
X149310803Y-92832448D01*
X148532448Y-93610803D01*
X147825935Y-92904290D01*
X147825935Y-92904290D01*
G37*
G36*
X149010803Y-106732448D02*
X148232448Y-107510803D01*
X147525935Y-106804290D01*
X148304290Y-106025935D01*
X149010803Y-106732448D01*
X149010803Y-106732448D01*
G37*
G36*
X150074065Y-107795710D02*
X149295710Y-108574065D01*
X148589197Y-107867552D01*
X149367552Y-107089197D01*
X150074065Y-107795710D01*
X150074065Y-107795710D01*
G37*
G36*
X151767552Y-107210803D02*
X150989197Y-106432448D01*
X151695710Y-105725935D01*
X152474065Y-106504290D01*
X151767552Y-107210803D01*
X151767552Y-107210803D01*
G37*
G36*
X150704290Y-108274065D02*
X149925935Y-107495710D01*
X150632448Y-106789197D01*
X151410803Y-107567552D01*
X150704290Y-108274065D01*
X150704290Y-108274065D01*
G37*
D26*
X155980000Y-90100000D03*
D27*
X153440000Y-90100000D03*
X150900000Y-90100000D03*
D24*
X165210000Y-130780000D03*
D25*
X165210000Y-128240000D03*
X165210000Y-125700000D03*
X165210000Y-123160000D03*
D24*
X165210000Y-118780000D03*
D25*
X165210000Y-116240000D03*
X165210000Y-113700000D03*
X165210000Y-111160000D03*
D24*
X165210000Y-106780000D03*
D25*
X165210000Y-104240000D03*
X165210000Y-101700000D03*
X165210000Y-99160000D03*
D26*
X151170000Y-133600000D03*
D27*
X148630000Y-133600000D03*
D28*
X155200980Y-126899880D03*
D29*
X149900000Y-130151080D03*
D30*
X149900000Y-124149060D03*
D24*
X134100000Y-98040000D03*
D25*
X134100000Y-95500000D03*
X134100000Y-92960000D03*
X134100000Y-90420000D03*
X134100000Y-87880000D03*
D31*
X137850980Y-88900000D03*
X139949020Y-88900000D03*
X137850980Y-92200000D03*
X139949020Y-92200000D03*
X137850980Y-95500000D03*
X139949020Y-95500000D03*
X137850980Y-98800000D03*
X139949020Y-98800000D03*
D32*
X161003360Y-128765000D03*
X163116640Y-129717500D03*
X161003360Y-130670000D03*
X161003360Y-124717500D03*
X163116640Y-125670000D03*
X161003360Y-126622500D03*
X161003360Y-120717500D03*
X163116640Y-121670000D03*
X161003360Y-122622500D03*
X161003360Y-116717500D03*
X163116640Y-117670000D03*
X161003360Y-118622500D03*
X161003360Y-112717500D03*
X163116640Y-113670000D03*
X161003360Y-114622500D03*
X161003360Y-108670000D03*
X163116640Y-109622500D03*
X161003360Y-110575000D03*
X161003360Y-104717500D03*
X163116640Y-105670000D03*
X161003360Y-106622500D03*
X161003360Y-100717500D03*
X163116640Y-101670000D03*
X161003360Y-102622500D03*
X161003360Y-96717500D03*
X163116640Y-97670000D03*
X161003360Y-98622500D03*
D10*
G36*
X152989197Y-105667552D02*
X153767552Y-104889197D01*
X154474065Y-105595710D01*
X153695710Y-106374065D01*
X152989197Y-105667552D01*
X152989197Y-105667552D01*
G37*
G36*
X151925935Y-104604290D02*
X152704290Y-103825935D01*
X153410803Y-104532448D01*
X152632448Y-105310803D01*
X151925935Y-104604290D01*
X151925935Y-104604290D01*
G37*
D33*
X154851840Y-95000000D03*
X153348160Y-95000000D03*
X157851840Y-95000000D03*
X156348160Y-95000000D03*
D22*
X159900000Y-86901640D03*
X159900000Y-94100000D03*
D34*
X143200260Y-110397520D03*
X143200260Y-112698760D03*
X143200260Y-115000000D03*
D35*
X149199740Y-112698760D03*
D36*
X167300000Y-133900000D03*
X128150000Y-119900000D03*
X128150000Y-102000000D03*
X167400000Y-95600000D03*
D37*
X152290000Y-120399640D03*
X152290000Y-116000360D03*
D33*
X163551840Y-95000000D03*
X162048160Y-95000000D03*
D38*
X143200000Y-116526140D03*
X143200000Y-119873860D03*
D31*
X142449020Y-121550000D03*
X140350980Y-121550000D03*
X142449020Y-123800000D03*
X140350980Y-123800000D03*
D23*
X134000000Y-123951840D03*
X134000000Y-122448160D03*
X136000000Y-122448160D03*
X136000000Y-123951840D03*
D39*
X133834800Y-117633280D03*
X133834800Y-118133660D03*
X133834800Y-118634040D03*
X133834800Y-119134420D03*
D40*
X134800000Y-120600000D03*
X135300380Y-120600000D03*
X135800760Y-120600000D03*
X136301140Y-120600000D03*
X136801520Y-120600000D03*
D41*
X135175920Y-119258880D03*
X135175920Y-118009200D03*
X136425600Y-118009200D03*
X136425600Y-119258880D03*
D39*
X137766720Y-119634800D03*
X137766720Y-119134420D03*
X137766720Y-118634040D03*
X137766720Y-118133660D03*
X137766720Y-117633280D03*
D40*
X136801520Y-116668080D03*
X136301140Y-116668080D03*
X135800760Y-116668080D03*
X135300380Y-116668080D03*
X134800000Y-116668080D03*
D39*
X133834800Y-119634800D03*
D42*
X143229760Y-129080500D03*
D43*
X137202340Y-128801100D03*
X138002440Y-128801100D03*
X138800000Y-128801100D03*
X139597560Y-128801100D03*
X140397660Y-128801100D03*
D44*
X136602900Y-131328400D03*
X140999640Y-131328400D03*
D42*
X134370240Y-129080500D03*
X134370240Y-134579600D03*
X143229760Y-134579600D03*
D38*
X145026140Y-117700000D03*
X148373860Y-117700000D03*
D23*
X140000000Y-115048160D03*
X140000000Y-116551840D03*
X141500000Y-115048160D03*
X141500000Y-116551840D03*
X139500000Y-110851840D03*
X139500000Y-109348160D03*
X141250000Y-110851840D03*
X141250000Y-109348160D03*
D31*
X139100980Y-112600000D03*
X141199020Y-112600000D03*
D24*
X158200000Y-127780000D03*
D25*
X158200000Y-125240000D03*
X158200000Y-122700000D03*
D24*
X158200000Y-115740000D03*
D25*
X158200000Y-113200000D03*
X158200000Y-110660000D03*
D24*
X158200000Y-104080000D03*
D25*
X158200000Y-101540000D03*
X158200000Y-99000000D03*
D26*
X148380000Y-90100000D03*
D27*
X145840000Y-90100000D03*
X143300000Y-90100000D03*
D24*
X142300000Y-103630000D03*
D25*
X142300000Y-106170000D03*
D33*
X141051840Y-119800000D03*
X139548160Y-119800000D03*
D24*
X131100000Y-122490000D03*
D25*
X131100000Y-119950000D03*
X131100000Y-117410000D03*
D45*
X125899360Y-131399360D03*
X120900640Y-128900000D03*
X125899360Y-126400640D03*
X125899360Y-113499360D03*
X120900640Y-111000000D03*
X125899360Y-108500640D03*
X125899360Y-95549360D03*
X120900640Y-93050000D03*
X125899360Y-90550640D03*
D26*
X161170000Y-134270000D03*
D27*
X163710000Y-134270000D03*
M02*
