G04 #@! TF.FileFunction,Legend,Top*
%FSLAX46Y46*%
G04 Gerber Fmt 4.6, Leading zero omitted, Abs format (unit mm)*
G04 Created by KiCad (PCBNEW (2015-03-13 BZR 5510)-product) date tis  3 nov 2015 15:17:31*
%MOMM*%
G01*
G04 APERTURE LIST*
%ADD10C,0.100000*%
%ADD11C,1.000000*%
%ADD12C,0.150000*%
%ADD13C,0.200000*%
%ADD14C,0.198120*%
%ADD15C,0.127000*%
%ADD16C,0.149860*%
%ADD17C,0.304800*%
%ADD18R,3.550000X1.120000*%
%ADD19O,4.100500X2.098980*%
%ADD20O,2.098980X4.100500*%
%ADD21O,2.098980X4.600880*%
%ADD22O,1.400000X1.900000*%
%ADD23R,1.120000X3.550000*%
%ADD24R,1.700200X4.100500*%
%ADD25R,0.999160X1.100760*%
%ADD26R,1.100760X0.699440*%
%ADD27R,0.699440X1.100760*%
%ADD28R,1.100760X0.999160*%
%ADD29C,3.100000*%
%ADD30R,0.399720X1.400480*%
%ADD31R,1.400480X0.399720*%
%ADD32R,2.299640X1.624000*%
%ADD33O,2.299640X1.624000*%
G04 APERTURE END LIST*
D10*
D11*
X148320000Y-110240000D02*
X148320000Y-107210000D01*
X148320000Y-97440000D02*
X148320000Y-98560000D01*
X122260000Y-118260000D02*
X122810000Y-118260000D01*
X148320000Y-97670000D02*
X148320000Y-96580000D01*
X148320000Y-120990000D02*
X148320000Y-109560000D01*
X148320000Y-97490000D02*
X148320000Y-96980000D01*
X148320000Y-86020000D02*
X148320000Y-90450000D01*
X118400000Y-86020000D02*
X148320000Y-86020000D01*
X118400000Y-121010000D02*
X118400000Y-86020000D01*
X148320000Y-121010000D02*
X118400000Y-121010000D01*
X148320000Y-120880000D02*
X148320000Y-121010000D01*
D12*
X131512857Y-91837619D02*
X131550952Y-91723333D01*
X131589048Y-91685238D01*
X131665238Y-91647143D01*
X131779524Y-91647143D01*
X131855714Y-91685238D01*
X131893810Y-91723333D01*
X131931905Y-91799524D01*
X131931905Y-92104286D01*
X131131905Y-92104286D01*
X131131905Y-91837619D01*
X131170000Y-91761429D01*
X131208095Y-91723333D01*
X131284286Y-91685238D01*
X131360476Y-91685238D01*
X131436667Y-91723333D01*
X131474762Y-91761429D01*
X131512857Y-91837619D01*
X131512857Y-92104286D01*
X131131905Y-91418572D02*
X131131905Y-90961429D01*
X131931905Y-91190000D02*
X131131905Y-91190000D01*
X137011905Y-92138095D02*
X136630952Y-92404762D01*
X137011905Y-92595238D02*
X136211905Y-92595238D01*
X136211905Y-92290476D01*
X136250000Y-92214285D01*
X136288095Y-92176190D01*
X136364286Y-92138095D01*
X136478571Y-92138095D01*
X136554762Y-92176190D01*
X136592857Y-92214285D01*
X136630952Y-92290476D01*
X136630952Y-92595238D01*
X136973810Y-91833333D02*
X137011905Y-91719047D01*
X137011905Y-91528571D01*
X136973810Y-91452381D01*
X136935714Y-91414285D01*
X136859524Y-91376190D01*
X136783333Y-91376190D01*
X136707143Y-91414285D01*
X136669048Y-91452381D01*
X136630952Y-91528571D01*
X136592857Y-91680952D01*
X136554762Y-91757143D01*
X136516667Y-91795238D01*
X136440476Y-91833333D01*
X136364286Y-91833333D01*
X136288095Y-91795238D01*
X136250000Y-91757143D01*
X136211905Y-91680952D01*
X136211905Y-91490476D01*
X136250000Y-91376190D01*
X136211905Y-91147619D02*
X136211905Y-90690476D01*
X137011905Y-90919047D02*
X136211905Y-90919047D01*
X134471905Y-92123333D02*
X134090952Y-92390000D01*
X134471905Y-92580476D02*
X133671905Y-92580476D01*
X133671905Y-92275714D01*
X133710000Y-92199523D01*
X133748095Y-92161428D01*
X133824286Y-92123333D01*
X133938571Y-92123333D01*
X134014762Y-92161428D01*
X134052857Y-92199523D01*
X134090952Y-92275714D01*
X134090952Y-92580476D01*
X133671905Y-91856666D02*
X134471905Y-91323333D01*
X133671905Y-91323333D02*
X134471905Y-91856666D01*
X138731905Y-92419524D02*
X138731905Y-91962381D01*
X139531905Y-92190952D02*
X138731905Y-92190952D01*
X138731905Y-91771904D02*
X139531905Y-91238571D01*
X138731905Y-91238571D02*
X139531905Y-91771904D01*
X140910000Y-91769523D02*
X140871905Y-91845714D01*
X140871905Y-91959999D01*
X140910000Y-92074285D01*
X140986190Y-92150476D01*
X141062381Y-92188571D01*
X141214762Y-92226666D01*
X141329048Y-92226666D01*
X141481429Y-92188571D01*
X141557619Y-92150476D01*
X141633810Y-92074285D01*
X141671905Y-91959999D01*
X141671905Y-91883809D01*
X141633810Y-91769523D01*
X141595714Y-91731428D01*
X141329048Y-91731428D01*
X141329048Y-91883809D01*
X141671905Y-91388571D02*
X140871905Y-91388571D01*
X141671905Y-90931428D01*
X140871905Y-90931428D01*
X141671905Y-90550476D02*
X140871905Y-90550476D01*
X140871905Y-90360000D01*
X140910000Y-90245714D01*
X140986190Y-90169523D01*
X141062381Y-90131428D01*
X141214762Y-90093333D01*
X141329048Y-90093333D01*
X141481429Y-90131428D01*
X141557619Y-90169523D01*
X141633810Y-90245714D01*
X141671905Y-90360000D01*
X141671905Y-90550476D01*
X145850476Y-94761905D02*
X146307619Y-94761905D01*
X146079048Y-95561905D02*
X146079048Y-94761905D01*
X146498096Y-94761905D02*
X147031429Y-95561905D01*
X147031429Y-94761905D02*
X146498096Y-95561905D01*
X146236667Y-93001905D02*
X145970000Y-92620952D01*
X145779524Y-93001905D02*
X145779524Y-92201905D01*
X146084286Y-92201905D01*
X146160477Y-92240000D01*
X146198572Y-92278095D01*
X146236667Y-92354286D01*
X146236667Y-92468571D01*
X146198572Y-92544762D01*
X146160477Y-92582857D01*
X146084286Y-92620952D01*
X145779524Y-92620952D01*
X146503334Y-92201905D02*
X147036667Y-93001905D01*
X147036667Y-92201905D02*
X146503334Y-93001905D01*
X145380477Y-89700000D02*
X145304286Y-89661905D01*
X145190001Y-89661905D01*
X145075715Y-89700000D01*
X144999524Y-89776190D01*
X144961429Y-89852381D01*
X144923334Y-90004762D01*
X144923334Y-90119048D01*
X144961429Y-90271429D01*
X144999524Y-90347619D01*
X145075715Y-90423810D01*
X145190001Y-90461905D01*
X145266191Y-90461905D01*
X145380477Y-90423810D01*
X145418572Y-90385714D01*
X145418572Y-90119048D01*
X145266191Y-90119048D01*
X145761429Y-90461905D02*
X145761429Y-89661905D01*
X146218572Y-90461905D01*
X146218572Y-89661905D01*
X146599524Y-90461905D02*
X146599524Y-89661905D01*
X146790000Y-89661905D01*
X146904286Y-89700000D01*
X146980477Y-89776190D01*
X147018572Y-89852381D01*
X147056667Y-90004762D01*
X147056667Y-90119048D01*
X147018572Y-90271429D01*
X146980477Y-90347619D01*
X146904286Y-90423810D01*
X146790000Y-90461905D01*
X146599524Y-90461905D01*
D13*
X144100000Y-89880000D02*
X144100000Y-90920000D01*
X144100000Y-90920000D02*
X143960000Y-90920000D01*
X131400000Y-90920000D02*
X143980000Y-90920000D01*
X131400000Y-88380000D02*
X131400000Y-90920000D01*
D14*
X131400000Y-88380000D02*
X144100000Y-88380000D01*
X144100000Y-89880000D02*
X144100000Y-88380000D01*
X131400000Y-88380000D02*
X131400000Y-89880000D01*
D15*
X127376000Y-98560000D02*
X125344000Y-98560000D01*
X124963000Y-98687000D02*
X127757000Y-98687000D01*
X128011000Y-98814000D02*
X124709000Y-98814000D01*
X124455000Y-98941000D02*
X128265000Y-98941000D01*
X124328000Y-99068000D02*
X128392000Y-99068000D01*
X128646000Y-99195000D02*
X124074000Y-99195000D01*
X130297000Y-102370000D02*
G75*
G03X130297000Y-102370000I-3937000J0D01*
G01*
X130551000Y-98179000D02*
X122169000Y-98179000D01*
X122169000Y-98179000D02*
X122169000Y-105799000D01*
X122169000Y-105799000D02*
X122931000Y-106561000D01*
X122931000Y-106561000D02*
X129789000Y-106561000D01*
X129789000Y-106561000D02*
X130551000Y-105799000D01*
X130551000Y-105799000D02*
X130551000Y-98179000D01*
X126360000Y-106053000D02*
X126360000Y-105291000D01*
X126741000Y-105672000D02*
X125979000Y-105672000D01*
X140411200Y-93763600D02*
X140411200Y-94576400D01*
X141528800Y-94551000D02*
X141528800Y-93763600D01*
X141782800Y-94576400D02*
X140157200Y-94576400D01*
X140157200Y-94576400D02*
X140157200Y-93763600D01*
X140157200Y-93763600D02*
X141782800Y-93763600D01*
X141782800Y-93763600D02*
X141782800Y-94576400D01*
X131077763Y-93452499D02*
X131652499Y-92877763D01*
X130844276Y-92105461D02*
X130287501Y-92662237D01*
X130682632Y-91907895D02*
X131832105Y-93057368D01*
X131832105Y-93057368D02*
X131257368Y-93632105D01*
X131257368Y-93632105D02*
X130107895Y-92482632D01*
X130107895Y-92482632D02*
X130682632Y-91907895D01*
X129671500Y-116832500D02*
X129011100Y-116832500D01*
X129671500Y-114927500D02*
X129011100Y-114927500D01*
X131068500Y-115880000D02*
X131728900Y-115880000D01*
X131068500Y-114381400D02*
X131068500Y-117378600D01*
X131068500Y-117378600D02*
X129671500Y-117378600D01*
X129671500Y-117378600D02*
X129671500Y-114381400D01*
X129671500Y-114381400D02*
X131068500Y-114381400D01*
X129671500Y-113572500D02*
X129011100Y-113572500D01*
X129671500Y-111667500D02*
X129011100Y-111667500D01*
X131068500Y-112620000D02*
X131728900Y-112620000D01*
X131068500Y-111121400D02*
X131068500Y-114118600D01*
X131068500Y-114118600D02*
X129671500Y-114118600D01*
X129671500Y-114118600D02*
X129671500Y-111121400D01*
X129671500Y-111121400D02*
X131068500Y-111121400D01*
X129671500Y-110322500D02*
X129011100Y-110322500D01*
X129671500Y-108417500D02*
X129011100Y-108417500D01*
X131068500Y-109370000D02*
X131728900Y-109370000D01*
X131068500Y-107871400D02*
X131068500Y-110868600D01*
X131068500Y-110868600D02*
X129671500Y-110868600D01*
X129671500Y-110868600D02*
X129671500Y-107871400D01*
X129671500Y-107871400D02*
X131068500Y-107871400D01*
X136861500Y-114702500D02*
X136201100Y-114702500D01*
X136861500Y-112797500D02*
X136201100Y-112797500D01*
X138258500Y-113750000D02*
X138918900Y-113750000D01*
X138258500Y-112251400D02*
X138258500Y-115248600D01*
X138258500Y-115248600D02*
X136861500Y-115248600D01*
X136861500Y-115248600D02*
X136861500Y-112251400D01*
X136861500Y-112251400D02*
X138258500Y-112251400D01*
X136861500Y-111442500D02*
X136201100Y-111442500D01*
X136861500Y-109537500D02*
X136201100Y-109537500D01*
X138258500Y-110490000D02*
X138918900Y-110490000D01*
X138258500Y-108991400D02*
X138258500Y-111988600D01*
X138258500Y-111988600D02*
X136861500Y-111988600D01*
X136861500Y-111988600D02*
X136861500Y-108991400D01*
X136861500Y-108991400D02*
X138258500Y-108991400D01*
X136851500Y-108182500D02*
X136191100Y-108182500D01*
X136851500Y-106277500D02*
X136191100Y-106277500D01*
X138248500Y-107230000D02*
X138908900Y-107230000D01*
X138248500Y-105731400D02*
X138248500Y-108728600D01*
X138248500Y-108728600D02*
X136851500Y-108728600D01*
X136851500Y-108728600D02*
X136851500Y-105731400D01*
X136851500Y-105731400D02*
X138248500Y-105731400D01*
X141191500Y-104012500D02*
X140531100Y-104012500D01*
X141191500Y-102107500D02*
X140531100Y-102107500D01*
X142588500Y-103060000D02*
X143248900Y-103060000D01*
X142588500Y-101561400D02*
X142588500Y-104558600D01*
X142588500Y-104558600D02*
X141191500Y-104558600D01*
X141191500Y-104558600D02*
X141191500Y-101561400D01*
X141191500Y-101561400D02*
X142588500Y-101561400D01*
X141181500Y-100712500D02*
X140521100Y-100712500D01*
X141181500Y-98807500D02*
X140521100Y-98807500D01*
X142578500Y-99760000D02*
X143238900Y-99760000D01*
X142578500Y-98261400D02*
X142578500Y-101258600D01*
X142578500Y-101258600D02*
X141181500Y-101258600D01*
X141181500Y-101258600D02*
X141181500Y-98261400D01*
X141181500Y-98261400D02*
X142578500Y-98261400D01*
X142972500Y-97228500D02*
X142972500Y-97888900D01*
X141067500Y-97228500D02*
X141067500Y-97888900D01*
X142020000Y-95831500D02*
X142020000Y-95171100D01*
X140521400Y-95831500D02*
X143518600Y-95831500D01*
X143518600Y-95831500D02*
X143518600Y-97228500D01*
X143518600Y-97228500D02*
X140521400Y-97228500D01*
X140521400Y-97228500D02*
X140521400Y-95831500D01*
X140411200Y-92433600D02*
X140411200Y-93246400D01*
X141528800Y-93221000D02*
X141528800Y-92433600D01*
X141782800Y-93246400D02*
X140157200Y-93246400D01*
X140157200Y-93246400D02*
X140157200Y-92433600D01*
X140157200Y-92433600D02*
X141782800Y-92433600D01*
X141782800Y-92433600D02*
X141782800Y-93246400D01*
X119263600Y-93898800D02*
X120076400Y-93898800D01*
X120051000Y-92781200D02*
X119263600Y-92781200D01*
X120076400Y-92527200D02*
X120076400Y-94152800D01*
X120076400Y-94152800D02*
X119263600Y-94152800D01*
X119263600Y-94152800D02*
X119263600Y-92527200D01*
X119263600Y-92527200D02*
X120076400Y-92527200D01*
X126458800Y-89976400D02*
X126458800Y-89163600D01*
X125341200Y-89189000D02*
X125341200Y-89976400D01*
X125087200Y-89163600D02*
X126712800Y-89163600D01*
X126712800Y-89163600D02*
X126712800Y-89976400D01*
X126712800Y-89976400D02*
X125087200Y-89976400D01*
X125087200Y-89976400D02*
X125087200Y-89163600D01*
X129108800Y-93806400D02*
X129108800Y-92993600D01*
X127991200Y-93019000D02*
X127991200Y-93806400D01*
X127737200Y-92993600D02*
X129362800Y-92993600D01*
X129362800Y-92993600D02*
X129362800Y-93806400D01*
X129362800Y-93806400D02*
X127737200Y-93806400D01*
X127737200Y-93806400D02*
X127737200Y-92993600D01*
X129108800Y-96426400D02*
X129108800Y-95613600D01*
X127991200Y-95639000D02*
X127991200Y-96426400D01*
X127737200Y-95613600D02*
X129362800Y-95613600D01*
X129362800Y-95613600D02*
X129362800Y-96426400D01*
X129362800Y-96426400D02*
X127737200Y-96426400D01*
X127737200Y-96426400D02*
X127737200Y-95613600D01*
X126418800Y-91996400D02*
X126418800Y-91183600D01*
X125301200Y-91209000D02*
X125301200Y-91996400D01*
X125047200Y-91183600D02*
X126672800Y-91183600D01*
X126672800Y-91183600D02*
X126672800Y-91996400D01*
X126672800Y-91996400D02*
X125047200Y-91996400D01*
X125047200Y-91996400D02*
X125047200Y-91183600D01*
X129108800Y-95116400D02*
X129108800Y-94303600D01*
X127991200Y-94329000D02*
X127991200Y-95116400D01*
X127737200Y-94303600D02*
X129362800Y-94303600D01*
X129362800Y-94303600D02*
X129362800Y-95116400D01*
X129362800Y-95116400D02*
X127737200Y-95116400D01*
X127737200Y-95116400D02*
X127737200Y-94303600D01*
X129108800Y-97746400D02*
X129108800Y-96933600D01*
X127991200Y-96959000D02*
X127991200Y-97746400D01*
X127737200Y-96933600D02*
X129362800Y-96933600D01*
X129362800Y-96933600D02*
X129362800Y-97746400D01*
X129362800Y-97746400D02*
X127737200Y-97746400D01*
X127737200Y-97746400D02*
X127737200Y-96933600D01*
X128396400Y-115271200D02*
X127583600Y-115271200D01*
X127609000Y-116388800D02*
X128396400Y-116388800D01*
X127583600Y-116642800D02*
X127583600Y-115017200D01*
X127583600Y-115017200D02*
X128396400Y-115017200D01*
X128396400Y-115017200D02*
X128396400Y-116642800D01*
X128396400Y-116642800D02*
X127583600Y-116642800D01*
X128396400Y-112011200D02*
X127583600Y-112011200D01*
X127609000Y-113128800D02*
X128396400Y-113128800D01*
X127583600Y-113382800D02*
X127583600Y-111757200D01*
X127583600Y-111757200D02*
X128396400Y-111757200D01*
X128396400Y-111757200D02*
X128396400Y-113382800D01*
X128396400Y-113382800D02*
X127583600Y-113382800D01*
X128396400Y-108761200D02*
X127583600Y-108761200D01*
X127609000Y-109878800D02*
X128396400Y-109878800D01*
X127583600Y-110132800D02*
X127583600Y-108507200D01*
X127583600Y-108507200D02*
X128396400Y-108507200D01*
X128396400Y-108507200D02*
X128396400Y-110132800D01*
X128396400Y-110132800D02*
X127583600Y-110132800D01*
D16*
X131160440Y-101988900D02*
X131361100Y-102189560D01*
X131559220Y-102189560D02*
X131160440Y-101790780D01*
X131160440Y-101590120D02*
X131759880Y-102189560D01*
X131960540Y-102189560D02*
X131160440Y-101389460D01*
X132161200Y-102189560D02*
X131160440Y-102189560D01*
X131160440Y-102189560D02*
X131160440Y-101188800D01*
X131160440Y-101188800D02*
X132161200Y-102189560D01*
X139359560Y-101188800D02*
X139359560Y-102189560D01*
X139359560Y-102189560D02*
X138358800Y-102189560D01*
X138358800Y-93990440D02*
X139359560Y-93990440D01*
X139359560Y-93990440D02*
X139359560Y-94991200D01*
X131160440Y-94991200D02*
X131160440Y-93990440D01*
X131160440Y-93990440D02*
X132161200Y-93990440D01*
D15*
X133130981Y-100503000D02*
G75*
G03X133130981Y-100503000I-283981J0D01*
G01*
X138816000Y-101265000D02*
X138435000Y-101646000D01*
X138435000Y-101646000D02*
X132085000Y-101646000D01*
X132085000Y-101646000D02*
X131704000Y-101265000D01*
X131704000Y-101265000D02*
X131704000Y-94915000D01*
X131704000Y-94915000D02*
X132085000Y-94534000D01*
X132085000Y-94534000D02*
X138435000Y-94534000D01*
X138435000Y-94534000D02*
X138816000Y-94915000D01*
X138816000Y-94915000D02*
X138816000Y-101265000D01*
D14*
X134890000Y-104960000D02*
X134890000Y-115120000D01*
X132370000Y-115120000D02*
X132370000Y-104960000D01*
X132380000Y-104960000D02*
X134880000Y-104960000D01*
X132370000Y-115120000D02*
X134870000Y-115120000D01*
X142080000Y-105060000D02*
X142080000Y-115220000D01*
X139560000Y-115220000D02*
X139560000Y-105060000D01*
X139570000Y-105060000D02*
X142070000Y-105060000D01*
X139560000Y-115220000D02*
X142060000Y-115220000D01*
X146230000Y-97480000D02*
X146230000Y-107640000D01*
X143710000Y-107640000D02*
X143710000Y-97480000D01*
X143720000Y-97480000D02*
X146220000Y-97480000D01*
X143710000Y-107640000D02*
X146210000Y-107640000D01*
D17*
X120990000Y-103900000D02*
X118450000Y-103900000D01*
X118450000Y-106440000D02*
X118450000Y-98820000D01*
X118450000Y-98820000D02*
X120990000Y-98820000D01*
X120990000Y-98820000D02*
X120990000Y-106440000D01*
X120990000Y-106440000D02*
X118450000Y-106440000D01*
X124850000Y-115670000D02*
X122310000Y-113130000D01*
X124850000Y-110590000D02*
X124850000Y-115670000D01*
X122310000Y-115670000D02*
X122310000Y-110590000D01*
X124850000Y-115670000D02*
X122310000Y-115670000D01*
X122310000Y-110590000D02*
X124850000Y-110590000D01*
D12*
X128213333Y-89031905D02*
X128480000Y-89831905D01*
X128746667Y-89031905D01*
X129013333Y-89831905D02*
X129013333Y-89031905D01*
X129203809Y-89031905D01*
X129318095Y-89070000D01*
X129394286Y-89146190D01*
X129432381Y-89222381D01*
X129470476Y-89374762D01*
X129470476Y-89489048D01*
X129432381Y-89641429D01*
X129394286Y-89717619D01*
X129318095Y-89793810D01*
X129203809Y-89831905D01*
X129013333Y-89831905D01*
X129813333Y-89831905D02*
X129813333Y-89031905D01*
X130003809Y-89031905D01*
X130118095Y-89070000D01*
X130194286Y-89146190D01*
X130232381Y-89222381D01*
X130270476Y-89374762D01*
X130270476Y-89489048D01*
X130232381Y-89641429D01*
X130194286Y-89717619D01*
X130118095Y-89793810D01*
X130003809Y-89831905D01*
X129813333Y-89831905D01*
D13*
X142622858Y-87308571D02*
X142765715Y-87356190D01*
X142813334Y-87403810D01*
X142860953Y-87499048D01*
X142860953Y-87641905D01*
X142813334Y-87737143D01*
X142765715Y-87784762D01*
X142670477Y-87832381D01*
X142289524Y-87832381D01*
X142289524Y-86832381D01*
X142622858Y-86832381D01*
X142718096Y-86880000D01*
X142765715Y-86927619D01*
X142813334Y-87022857D01*
X142813334Y-87118095D01*
X142765715Y-87213333D01*
X142718096Y-87260952D01*
X142622858Y-87308571D01*
X142289524Y-87308571D01*
X143480000Y-86832381D02*
X143670477Y-86832381D01*
X143765715Y-86880000D01*
X143860953Y-86975238D01*
X143908572Y-87165714D01*
X143908572Y-87499048D01*
X143860953Y-87689524D01*
X143765715Y-87784762D01*
X143670477Y-87832381D01*
X143480000Y-87832381D01*
X143384762Y-87784762D01*
X143289524Y-87689524D01*
X143241905Y-87499048D01*
X143241905Y-87165714D01*
X143289524Y-86975238D01*
X143384762Y-86880000D01*
X143480000Y-86832381D01*
X144527619Y-86832381D02*
X144718096Y-86832381D01*
X144813334Y-86880000D01*
X144908572Y-86975238D01*
X144956191Y-87165714D01*
X144956191Y-87499048D01*
X144908572Y-87689524D01*
X144813334Y-87784762D01*
X144718096Y-87832381D01*
X144527619Y-87832381D01*
X144432381Y-87784762D01*
X144337143Y-87689524D01*
X144289524Y-87499048D01*
X144289524Y-87165714D01*
X144337143Y-86975238D01*
X144432381Y-86880000D01*
X144527619Y-86832381D01*
X145241905Y-86832381D02*
X145813334Y-86832381D01*
X145527619Y-87832381D02*
X145527619Y-86832381D01*
X147372381Y-95591429D02*
X148181905Y-95591429D01*
X148277143Y-95543810D01*
X148324762Y-95496191D01*
X148372381Y-95400953D01*
X148372381Y-95210476D01*
X148324762Y-95115238D01*
X148277143Y-95067619D01*
X148181905Y-95020000D01*
X147372381Y-95020000D01*
X148324762Y-94591429D02*
X148372381Y-94448572D01*
X148372381Y-94210476D01*
X148324762Y-94115238D01*
X148277143Y-94067619D01*
X148181905Y-94020000D01*
X148086667Y-94020000D01*
X147991429Y-94067619D01*
X147943810Y-94115238D01*
X147896190Y-94210476D01*
X147848571Y-94400953D01*
X147800952Y-94496191D01*
X147753333Y-94543810D01*
X147658095Y-94591429D01*
X147562857Y-94591429D01*
X147467619Y-94543810D01*
X147420000Y-94496191D01*
X147372381Y-94400953D01*
X147372381Y-94162857D01*
X147420000Y-94020000D01*
X148086667Y-93639048D02*
X148086667Y-93162857D01*
X148372381Y-93734286D02*
X147372381Y-93400953D01*
X148372381Y-93067619D01*
X148372381Y-92162857D02*
X147896190Y-92496191D01*
X148372381Y-92734286D02*
X147372381Y-92734286D01*
X147372381Y-92353333D01*
X147420000Y-92258095D01*
X147467619Y-92210476D01*
X147562857Y-92162857D01*
X147705714Y-92162857D01*
X147800952Y-92210476D01*
X147848571Y-92258095D01*
X147896190Y-92353333D01*
X147896190Y-92734286D01*
X147372381Y-91877143D02*
X147372381Y-91305714D01*
X148372381Y-91591429D02*
X147372381Y-91591429D01*
X132164762Y-115532381D02*
X132498095Y-116532381D01*
X132831429Y-115532381D01*
X133164762Y-116532381D02*
X133164762Y-115532381D01*
X133640952Y-116532381D02*
X133640952Y-115532381D01*
X134212381Y-116532381D01*
X134212381Y-115532381D01*
X135402857Y-115484762D02*
X134545714Y-116770476D01*
X136260000Y-115580000D02*
X136164762Y-115532381D01*
X136021905Y-115532381D01*
X135879047Y-115580000D01*
X135783809Y-115675238D01*
X135736190Y-115770476D01*
X135688571Y-115960952D01*
X135688571Y-116103810D01*
X135736190Y-116294286D01*
X135783809Y-116389524D01*
X135879047Y-116484762D01*
X136021905Y-116532381D01*
X136117143Y-116532381D01*
X136260000Y-116484762D01*
X136307619Y-116437143D01*
X136307619Y-116103810D01*
X136117143Y-116103810D01*
X137307619Y-116532381D02*
X136974285Y-116056190D01*
X136736190Y-116532381D02*
X136736190Y-115532381D01*
X137117143Y-115532381D01*
X137212381Y-115580000D01*
X137260000Y-115627619D01*
X137307619Y-115722857D01*
X137307619Y-115865714D01*
X137260000Y-115960952D01*
X137212381Y-116008571D01*
X137117143Y-116056190D01*
X136736190Y-116056190D01*
X138069524Y-116008571D02*
X138212381Y-116056190D01*
X138260000Y-116103810D01*
X138307619Y-116199048D01*
X138307619Y-116341905D01*
X138260000Y-116437143D01*
X138212381Y-116484762D01*
X138117143Y-116532381D01*
X137736190Y-116532381D01*
X137736190Y-115532381D01*
X138069524Y-115532381D01*
X138164762Y-115580000D01*
X138212381Y-115627619D01*
X138260000Y-115722857D01*
X138260000Y-115818095D01*
X138212381Y-115913333D01*
X138164762Y-115960952D01*
X138069524Y-116008571D01*
X137736190Y-116008571D01*
X138926666Y-115532381D02*
X139021905Y-115532381D01*
X139117143Y-115580000D01*
X139164762Y-115627619D01*
X139212381Y-115722857D01*
X139260000Y-115913333D01*
X139260000Y-116151429D01*
X139212381Y-116341905D01*
X139164762Y-116437143D01*
X139117143Y-116484762D01*
X139021905Y-116532381D01*
X138926666Y-116532381D01*
X138831428Y-116484762D01*
X138783809Y-116437143D01*
X138736190Y-116341905D01*
X138688571Y-116151429D01*
X138688571Y-115913333D01*
X138736190Y-115722857D01*
X138783809Y-115627619D01*
X138831428Y-115580000D01*
X138926666Y-115532381D01*
X143232381Y-115155238D02*
X144232381Y-114821905D01*
X143232381Y-114488571D01*
X144232381Y-114155238D02*
X143232381Y-114155238D01*
X144232381Y-113679048D02*
X143232381Y-113679048D01*
X144232381Y-113107619D01*
X143232381Y-113107619D01*
X143184762Y-111917143D02*
X144470476Y-112774286D01*
X143280000Y-111060000D02*
X143232381Y-111155238D01*
X143232381Y-111298095D01*
X143280000Y-111440953D01*
X143375238Y-111536191D01*
X143470476Y-111583810D01*
X143660952Y-111631429D01*
X143803810Y-111631429D01*
X143994286Y-111583810D01*
X144089524Y-111536191D01*
X144184762Y-111440953D01*
X144232381Y-111298095D01*
X144232381Y-111202857D01*
X144184762Y-111060000D01*
X144137143Y-111012381D01*
X143803810Y-111012381D01*
X143803810Y-111202857D01*
X144232381Y-110012381D02*
X143756190Y-110345715D01*
X144232381Y-110583810D02*
X143232381Y-110583810D01*
X143232381Y-110202857D01*
X143280000Y-110107619D01*
X143327619Y-110060000D01*
X143422857Y-110012381D01*
X143565714Y-110012381D01*
X143660952Y-110060000D01*
X143708571Y-110107619D01*
X143756190Y-110202857D01*
X143756190Y-110583810D01*
X143708571Y-109250476D02*
X143756190Y-109107619D01*
X143803810Y-109060000D01*
X143899048Y-109012381D01*
X144041905Y-109012381D01*
X144137143Y-109060000D01*
X144184762Y-109107619D01*
X144232381Y-109202857D01*
X144232381Y-109583810D01*
X143232381Y-109583810D01*
X143232381Y-109250476D01*
X143280000Y-109155238D01*
X143327619Y-109107619D01*
X143422857Y-109060000D01*
X143518095Y-109060000D01*
X143613333Y-109107619D01*
X143660952Y-109155238D01*
X143708571Y-109250476D01*
X143708571Y-109583810D01*
X144232381Y-108060000D02*
X144232381Y-108631429D01*
X144232381Y-108345715D02*
X143232381Y-108345715D01*
X143375238Y-108440953D01*
X143470476Y-108536191D01*
X143518095Y-108631429D01*
X147362381Y-106525238D02*
X148362381Y-106191905D01*
X147362381Y-105858571D01*
X148362381Y-105525238D02*
X147362381Y-105525238D01*
X148362381Y-105049048D02*
X147362381Y-105049048D01*
X148362381Y-104477619D01*
X147362381Y-104477619D01*
X147314762Y-103287143D02*
X148600476Y-104144286D01*
X148362381Y-102382381D02*
X147886190Y-102715715D01*
X148362381Y-102953810D02*
X147362381Y-102953810D01*
X147362381Y-102572857D01*
X147410000Y-102477619D01*
X147457619Y-102430000D01*
X147552857Y-102382381D01*
X147695714Y-102382381D01*
X147790952Y-102430000D01*
X147838571Y-102477619D01*
X147886190Y-102572857D01*
X147886190Y-102953810D01*
X147410000Y-101430000D02*
X147362381Y-101525238D01*
X147362381Y-101668095D01*
X147410000Y-101810953D01*
X147505238Y-101906191D01*
X147600476Y-101953810D01*
X147790952Y-102001429D01*
X147933810Y-102001429D01*
X148124286Y-101953810D01*
X148219524Y-101906191D01*
X148314762Y-101810953D01*
X148362381Y-101668095D01*
X148362381Y-101572857D01*
X148314762Y-101430000D01*
X148267143Y-101382381D01*
X147933810Y-101382381D01*
X147933810Y-101572857D01*
X147838571Y-100620476D02*
X147886190Y-100477619D01*
X147933810Y-100430000D01*
X148029048Y-100382381D01*
X148171905Y-100382381D01*
X148267143Y-100430000D01*
X148314762Y-100477619D01*
X148362381Y-100572857D01*
X148362381Y-100953810D01*
X147362381Y-100953810D01*
X147362381Y-100620476D01*
X147410000Y-100525238D01*
X147457619Y-100477619D01*
X147552857Y-100430000D01*
X147648095Y-100430000D01*
X147743333Y-100477619D01*
X147790952Y-100525238D01*
X147838571Y-100620476D01*
X147838571Y-100953810D01*
X147457619Y-100001429D02*
X147410000Y-99953810D01*
X147362381Y-99858572D01*
X147362381Y-99620476D01*
X147410000Y-99525238D01*
X147457619Y-99477619D01*
X147552857Y-99430000D01*
X147648095Y-99430000D01*
X147790952Y-99477619D01*
X148362381Y-100049048D01*
X148362381Y-99430000D01*
D10*
X123068572Y-112651905D02*
X123068572Y-113223333D01*
X123030476Y-113337619D01*
X122954286Y-113413810D01*
X122840000Y-113451905D01*
X122763810Y-113451905D01*
X123411429Y-113413810D02*
X123525715Y-113451905D01*
X123716191Y-113451905D01*
X123792381Y-113413810D01*
X123830477Y-113375714D01*
X123868572Y-113299524D01*
X123868572Y-113223333D01*
X123830477Y-113147143D01*
X123792381Y-113109048D01*
X123716191Y-113070952D01*
X123563810Y-113032857D01*
X123487619Y-112994762D01*
X123449524Y-112956667D01*
X123411429Y-112880476D01*
X123411429Y-112804286D01*
X123449524Y-112728095D01*
X123487619Y-112690000D01*
X123563810Y-112651905D01*
X123754286Y-112651905D01*
X123868572Y-112690000D01*
X124097143Y-112651905D02*
X124554286Y-112651905D01*
X124325715Y-113451905D02*
X124325715Y-112651905D01*
%LPC*%
D18*
X129260000Y-90590000D03*
D19*
X123160120Y-118270980D03*
D20*
X119908920Y-112970000D03*
D21*
X125910940Y-112970000D03*
D22*
X136540000Y-87220000D03*
X141540000Y-87220000D03*
X146540000Y-87220000D03*
X128160000Y-87220000D03*
X133160000Y-87220000D03*
X138160000Y-87220000D03*
X119700000Y-87220000D03*
X124700000Y-87220000D03*
X129700000Y-87220000D03*
D23*
X142830000Y-90005000D03*
X132670000Y-90005000D03*
X137750000Y-90005000D03*
X135210000Y-90005000D03*
X140290000Y-90005000D03*
D24*
X126360000Y-105420540D03*
X126360000Y-99319460D03*
D25*
X140218160Y-94170000D03*
X141721840Y-94170000D03*
D10*
G36*
X130759197Y-93337552D02*
X131537552Y-92559197D01*
X132244065Y-93265710D01*
X131465710Y-94044065D01*
X130759197Y-93337552D01*
X130759197Y-93337552D01*
G37*
G36*
X129695935Y-92274290D02*
X130474290Y-91495935D01*
X131180803Y-92202448D01*
X130402448Y-92980803D01*
X129695935Y-92274290D01*
X129695935Y-92274290D01*
G37*
D26*
X129313360Y-114927500D03*
X131426640Y-115880000D03*
X129313360Y-116832500D03*
X129313360Y-111667500D03*
X131426640Y-112620000D03*
X129313360Y-113572500D03*
X129313360Y-108417500D03*
X131426640Y-109370000D03*
X129313360Y-110322500D03*
X136503360Y-112797500D03*
X138616640Y-113750000D03*
X136503360Y-114702500D03*
X136503360Y-109537500D03*
X138616640Y-110490000D03*
X136503360Y-111442500D03*
X136493360Y-106277500D03*
X138606640Y-107230000D03*
X136493360Y-108182500D03*
X140833360Y-102107500D03*
X142946640Y-103060000D03*
X140833360Y-104012500D03*
X140823360Y-98807500D03*
X142936640Y-99760000D03*
X140823360Y-100712500D03*
D27*
X141067500Y-97586640D03*
X142020000Y-95473360D03*
X142972500Y-97586640D03*
D25*
X140218160Y-92840000D03*
X141721840Y-92840000D03*
D28*
X119670000Y-94091840D03*
X119670000Y-92588160D03*
D25*
X126651840Y-89570000D03*
X125148160Y-89570000D03*
X129301840Y-93400000D03*
X127798160Y-93400000D03*
X129301840Y-96020000D03*
X127798160Y-96020000D03*
X126611840Y-91590000D03*
X125108160Y-91590000D03*
X129301840Y-94710000D03*
X127798160Y-94710000D03*
X129301840Y-97340000D03*
X127798160Y-97340000D03*
D28*
X127990000Y-115078160D03*
X127990000Y-116581840D03*
X127990000Y-111818160D03*
X127990000Y-113321840D03*
X127990000Y-108568160D03*
X127990000Y-110071840D03*
D29*
X146150000Y-109460000D03*
X146150000Y-119200000D03*
X133500000Y-119200000D03*
D30*
X134010320Y-102189560D03*
X134510700Y-102189560D03*
X135011080Y-102189560D03*
X135508920Y-102189560D03*
X136009300Y-102189560D03*
X132509180Y-102189560D03*
X133009560Y-102189560D03*
X133509940Y-102189560D03*
D31*
X139359560Y-100840820D03*
X139359560Y-100340440D03*
X139359560Y-99840060D03*
X139359560Y-99339680D03*
X139359560Y-98839300D03*
X139359560Y-98338920D03*
X139359560Y-97841080D03*
X139359560Y-97340700D03*
D30*
X138010820Y-93990440D03*
X137510440Y-93990440D03*
X137010060Y-93990440D03*
X136509680Y-93990440D03*
X136009300Y-93990440D03*
X135508920Y-93990440D03*
X135011080Y-93990440D03*
X134510700Y-93990440D03*
D31*
X131160440Y-95339180D03*
X131160440Y-95839560D03*
X131160440Y-96339940D03*
X131160440Y-96840320D03*
X131160440Y-97340700D03*
X131160440Y-97841080D03*
X131160440Y-98338920D03*
X131160440Y-98839300D03*
D30*
X136509680Y-102189560D03*
X137010060Y-102189560D03*
X137510440Y-102189560D03*
X138010820Y-102189560D03*
D31*
X139359560Y-96840320D03*
X139359560Y-96339940D03*
X139359560Y-95839560D03*
X139359560Y-95339180D03*
D30*
X134010320Y-93990440D03*
X133509940Y-93990440D03*
X133009560Y-93990440D03*
X132509180Y-93990440D03*
D31*
X131160440Y-99339680D03*
X131160440Y-99840060D03*
X131160440Y-100340440D03*
X131160440Y-100840820D03*
D18*
X145390000Y-96290000D03*
X145390000Y-93750000D03*
X145390000Y-91210000D03*
X133995000Y-113850000D03*
X133995000Y-111310000D03*
X133995000Y-108770000D03*
X133995000Y-106230000D03*
X141185000Y-113950000D03*
X141185000Y-111410000D03*
X141185000Y-108870000D03*
X141185000Y-106330000D03*
X145335000Y-106370000D03*
X145335000Y-103830000D03*
X145335000Y-101290000D03*
X145335000Y-98750000D03*
D32*
X119720000Y-105170000D03*
D33*
X119720000Y-102630000D03*
X119720000Y-100090000D03*
D32*
X123580000Y-114400000D03*
D33*
X123580000Y-111860000D03*
M02*
