<?xml version="1.0" standalone="no"?>
 <!DOCTYPE svg PUBLIC "-//W3C//DTD SVG 1.1//EN" 
 "http://www.w3.org/Graphics/SVG/1.1/DTD/svg11.dtd"> 
<svg xmlns="http://www.w3.org/2000/svg" version="1.1" 
    width="5.01904cm" height="5.90804cm" viewBox="0 0 19760 23260 ">
<title>SVG Picture created as framePCB-B_Cu.svg date 2015/11/03 11:51:01 </title>
  <desc>Picture generated by PCBNEW </desc>
<g style="fill:#000000; fill-opacity:1;stroke:#000000; stroke-opacity:1;
stroke-linecap:round; stroke-linejoin:round; "
 transform="translate(0 0) scale(1 1)">
</g>
<g style="fill:#000000; fill-opacity:0.0; 
stroke:#000000; stroke-width:39.3701; stroke-opacity:1; 
stroke-linecap:round; stroke-linejoin:round;">
<path d="M4007 5578
L4007 19744
" />
<path d="M16181 5578
L4007 5578
" />
<path d="M16181 19744
L16181 5578
" />
<path d="M4007 19744
L16181 19744
" />
</g>
<g style="fill:#000000; fill-opacity:0.0; 
stroke:#000000; stroke-width:787; stroke-opacity:1; 
stroke-linecap:round; stroke-linejoin:round;">
<path d="M6472 18468
L5684 18468
" />
<path d="M4798 15987
L4798 16775
" />
<path d="M7161 15889
L7161 16874
" />
</g>
<g style="fill:#000000; fill-opacity:0.0; 
stroke:#000000; stroke-width:511.811; stroke-opacity:1; 
stroke-linecap:round; stroke-linejoin:round;">
<path d="M11346 6342
L11346 6145
" />
<path d="M13314 6145
L13314 6342
" />
<path d="M15283 6145
L15283 6342
" />
<path d="M8047 6342
L8047 6145
" />
<path d="M10015 6145
L10015 6342
" />
<path d="M11984 6145
L11984 6342
" />
<path d="M4716 6342
L4716 6145
" />
<path d="M6685 6145
L6685 6342
" />
<path d="M8653 6145
L8653 6342
" />
</g>
<g style="fill:#000000; fill-opacity:0.0; 
stroke:#000000; stroke-width:39.3701; stroke-opacity:1; 
stroke-linecap:round; stroke-linejoin:round;">
</g>
<g style="fill:#000000; fill-opacity:1.0; 
stroke:#000000; stroke-width:39.3701; stroke-opacity:1; 
stroke-linecap:round; stroke-linejoin:round;">
<polyline style="fill-rule:evenodd;"
points="7768,9334
7768,9059
8043,9059
8043,9334
7768,9334
" /> 
<polyline style="fill-rule:evenodd;"
points="8358,9334
8358,9059
8633,9059
8633,9334
8358,9334
" /> 
<polyline style="fill-rule:evenodd;"
points="9237,12799
9237,12444
9551,12444
9551,12799
9237,12799
" /> 
<polyline style="fill-rule:evenodd;"
points="8645,12799
8645,12444
8959,12444
8959,12799
8645,12799
" /> 
<polyline style="fill-rule:evenodd;"
points="11483,11925
11483,12279
11168,12279
11168,11925
11483,11925
" /> 
<polyline style="fill-rule:evenodd;"
points="12075,11925
12075,12279
11760,12279
11760,11925
12075,11925
" /> 
<polyline style="fill-rule:evenodd;"
points="9302,11925
9302,12279
8987,12279
8987,11925
9302,11925
" /> 
<polyline style="fill-rule:evenodd;"
points="9894,11925
9894,12279
9579,12279
9579,11925
9894,11925
" /> 
<polyline style="fill-rule:evenodd;"
points="10552,10740
10552,10385
10866,10385
10866,10740
10552,10740
" /> 
<polyline style="fill-rule:evenodd;"
points="9960,10740
9960,10385
10274,10385
10274,10740
9960,10740
" /> 
<polyline style="fill-rule:evenodd;"
points="12783,9211
12428,9211
12428,8897
12783,8897
12783,9211
" /> 
<polyline style="fill-rule:evenodd;"
points="12783,9803
12428,9803
12428,9489
12783,9489
12783,9803
" /> 
<polyline style="fill-rule:evenodd;"
points="10396,11925
10396,12279
10082,12279
10082,11925
10396,11925
" /> 
<polyline style="fill-rule:evenodd;"
points="10988,11925
10988,12279
10674,12279
10674,11925
10988,11925
" /> 
<polyline style="fill-rule:evenodd;"
points="10988,16487
10633,16487
10633,16172
10988,16172
10988,16487
" /> 
<polyline style="fill-rule:evenodd;"
points="10988,17079
10633,17079
10633,16764
10988,16764
10988,17079
" /> 
<polyline style="fill-rule:evenodd;"
points="10988,15416
10633,15416
10633,15101
10988,15101
10988,15416
" /> 
<polyline style="fill-rule:evenodd;"
points="10988,16008
10633,16008
10633,15693
10988,15693
10988,16008
" /> 
<polyline style="fill-rule:evenodd;"
points="10988,14341
10633,14341
10633,14027
10988,14027
10988,14341
" /> 
<polyline style="fill-rule:evenodd;"
points="10988,14933
10633,14933
10633,14619
10988,14619
10988,14933
" /> 
<polyline style="fill-rule:evenodd;"
points="13208,12321
12854,12321
12854,12007
13208,12007
13208,12321
" /> 
<polyline style="fill-rule:evenodd;"
points="13208,12913
12854,12913
12854,12599
13208,12599
13208,12913
" /> 
<polyline style="fill-rule:evenodd;"
points="13208,11022
12854,11022
12854,10708
13208,10708
13208,11022
" /> 
<polyline style="fill-rule:evenodd;"
points="13208,11614
12854,11614
12854,11300
13208,11300
13208,11614
" /> 
<polyline style="fill-rule:evenodd;"
points="14374,10535
14374,10180
14689,10180
14689,10535
14374,10535
" /> 
<polyline style="fill-rule:evenodd;"
points="13782,10535
13782,10180
14097,10180
14097,10535
13782,10535
" /> 
<polyline style="fill-rule:evenodd;"
points="15480,9994
15047,9994
15047,9344
15480,9344
15480,9994
" /> 
<polyline style="fill-rule:evenodd;"
points="13905,9994
13472,9994
13472,9344
13905,9344
13905,9994
" /> 
<polyline style="fill-rule:evenodd;"
points="15480,7435
15047,7435
15047,6785
15480,6785
15480,7435
" /> 
<polyline style="fill-rule:evenodd;"
points="13905,7435
13472,7435
13472,6785
13905,6785
13905,7435
" /> 
<polyline style="fill-rule:evenodd;"
points="6535,9927
6102,9927
6102,9277
6535,9277
6535,9927
" /> 
<polyline style="fill-rule:evenodd;"
points="4960,9927
4527,9927
4527,9277
4960,9277
4960,9927
" /> 
<polyline style="fill-rule:evenodd;"
points="6535,7368
6102,7368
6102,6718
6535,6718
6535,7368
" /> 
<polyline style="fill-rule:evenodd;"
points="4960,7368
4527,7368
4527,6718
4960,6718
4960,7368
" /> 
<circle cx="15129.9" cy="15000" r="570.866" /> 
<circle cx="15129.9" cy="18834.6" r="570.866" /> 
<circle cx="10149.6" cy="18834.6" r="570.866" /> 
<polyline style="fill-rule:evenodd;"
points="8764,14409
8764,15078
8291,15078
8291,14409
8764,14409
" /> 
<polyline style="fill-rule:evenodd;"
points="7858,14409
7858,15078
7385,15078
7385,14409
7858,14409
" /> 
<polyline style="fill-rule:evenodd;"
points="6952,14409
6952,15078
6479,15078
6479,14409
6952,14409
" /> 
<polyline style="fill-rule:evenodd;"
points="8350,12047
8350,12716
6893,12716
6893,12047
8350,12047
" /> 
<polyline style="fill-rule:evenodd;"
points="6736,7286
6736,7012
7011,7012
7011,7286
6736,7286
" /> 
<polyline style="fill-rule:evenodd;"
points="7326,7286
7326,7012
7601,7012
7601,7286
7326,7286
" /> 
<polyline style="fill-rule:evenodd;"
points="7772,8806
7772,8531
8047,8531
8047,8806
7772,8806
" /> 
<polyline style="fill-rule:evenodd;"
points="8362,8806
8362,8531
8637,8531
8637,8806
8362,8806
" /> 
<polyline style="fill-rule:evenodd;"
points="7764,9842
7764,9567
8039,9567
8039,9842
7764,9842
" /> 
<polyline style="fill-rule:evenodd;"
points="8354,9842
8354,9567
8629,9567
8629,9842
8354,9842
" /> 
<polyline style="fill-rule:evenodd;"
points="6736,8094
6736,7819
7011,7819
7011,8094
6736,8094
" /> 
<polyline style="fill-rule:evenodd;"
points="7326,8094
7326,7819
7601,7819
7601,8094
7326,8094
" /> 
<polyline style="fill-rule:evenodd;"
points="7764,10365
7764,10091
8039,10091
8039,10365
7764,10365
" /> 
<polyline style="fill-rule:evenodd;"
points="8354,10365
8354,10091
8629,10091
8629,10365
8354,10365
" /> 
<polyline style="fill-rule:evenodd;"
points="5137,13591
4311,13591
4311,13030
5137,13030
5137,13591
" /> 
</g>
<g style="fill:#000000; fill-opacity:1.0; 
stroke:#000000; stroke-width:600; stroke-opacity:1; 
stroke-linecap:round; stroke-linejoin:round;">
</g>
<g style="fill:#000000; fill-opacity:0.0; 
stroke:#000000; stroke-width:600; stroke-opacity:1; 
stroke-linecap:round; stroke-linejoin:round;">
<path d="M4591 12311
L4857 12311
" />
<path d="M4591 11311
L4857 11311
" />
</g>
<g style="fill:#000000; fill-opacity:0.0; 
stroke:#000000; stroke-width:39.3701; stroke-opacity:1; 
stroke-linecap:round; stroke-linejoin:round;">
</g>
<g style="fill:#000000; fill-opacity:1.0; 
stroke:#000000; stroke-width:39.3701; stroke-opacity:1; 
stroke-linecap:round; stroke-linejoin:round;">
<circle cx="6740.16" cy="14051.2" r="98.4252" /> 
<circle cx="13189" cy="16381.9" r="98.4252" /> 
<circle cx="14000" cy="14291.3" r="98.4252" /> 
<circle cx="14842.5" cy="9374.02" r="98.4252" /> 
<circle cx="10732.3" cy="9763.78" r="98.4252" /> 
<circle cx="9874.02" cy="9338.58" r="98.4252" /> 
<circle cx="8527.56" cy="14177.2" r="98.4252" /> 
<circle cx="11708.7" cy="17063" r="98.4252" /> 
<circle cx="11649.6" cy="15779.5" r="98.4252" /> 
<circle cx="11704.7" cy="14622" r="98.4252" /> 
<circle cx="8877.95" cy="15338.6" r="98.4252" /> 
<circle cx="8877.95" cy="16622" r="98.4252" /> 
<circle cx="6314.96" cy="9074.8" r="98.4252" /> 
<circle cx="8492.13" cy="8232.28" r="98.4252" /> 
<circle cx="8448.82" cy="11795.3" r="98.4252" /> 
<circle cx="8877.95" cy="17901.6" r="98.4252" /> 
<circle cx="14161.4" cy="9366.14" r="98.4252" /> 
<circle cx="13204.7" cy="9358.27" r="98.4252" /> 
<circle cx="12259.8" cy="12102.4" r="98.4252" /> 
<circle cx="10748" cy="11689" r="98.4252" /> 
<circle cx="9665.35" cy="11685" r="98.4252" /> 
<circle cx="8559.05" cy="12366.1" r="98.4252" /> 
<circle cx="7909.45" cy="11196.9" r="98.4252" /> 
<circle cx="7173.23" cy="10000" r="98.4252" /> 
<circle cx="13413.4" cy="12858.3" r="98.4252" /> 
<circle cx="9759.84" cy="12570.9" r="98.4252" /> 
<circle cx="11334.6" cy="12570.9" r="98.4252" /> 
<circle cx="10240.2" cy="12570.9" r="98.4252" /> 
<circle cx="8799.21" cy="11783.5" r="98.4252" /> 
<circle cx="5582.68" cy="10641.7" r="98.4252" /> 
<circle cx="6862.2" cy="7539.37" r="98.4252" /> 
<circle cx="7543.31" cy="8669.29" r="98.4252" /> 
<circle cx="7547.24" cy="9704.72" r="98.4252" /> 
<circle cx="6874.02" cy="8350.39" r="98.4252" /> 
<circle cx="7547.24" cy="9196.85" r="98.4252" /> 
<circle cx="7559.05" cy="10039.4" r="98.4252" /> 
<circle cx="10118.1" cy="10815" r="98.4252" /> 
<circle cx="10208.7" cy="7590.55" r="98.4252" /> 
<circle cx="11086.6" cy="9775.59" r="98.4252" /> 
<circle cx="11582.7" cy="9767.72" r="98.4252" /> 
<circle cx="11578.7" cy="8188.98" r="98.4252" /> 
<circle cx="10940.9" cy="12578.7" r="98.4252" /> 
<circle cx="12425.2" cy="7366.14" r="98.4252" /> 
<circle cx="10992.1" cy="8468.5" r="98.4252" /> 
<circle cx="9814.96" cy="16275.6" r="98.4252" /> 
<circle cx="9330.71" cy="16744.1" r="98.4252" /> 
<circle cx="9393.7" cy="15303.1" r="98.4252" /> 
<circle cx="10200.8" cy="15303.1" r="98.4252" /> 
<circle cx="10425.2" cy="13318.9" r="98.4252" /> 
<circle cx="11330.7" cy="16614.2" r="98.4252" /> 
<circle cx="12153.5" cy="14728.3" r="98.4252" /> 
<circle cx="11295.3" cy="15330.7" r="98.4252" /> 
<circle cx="11637.8" cy="10645.7" r="98.4252" /> 
<circle cx="11295.3" cy="14126" r="98.4252" /> 
<circle cx="11960.6" cy="10547.2" r="98.4252" /> 
<circle cx="13405.5" cy="12106.3" r="98.4252" /> 
<circle cx="13322.8" cy="10866.1" r="98.4252" /> 
<circle cx="13043.3" cy="9669.29" r="98.4252" /> 
<circle cx="13811" cy="8921.26" r="98.4252" /> 
<circle cx="5090.55" cy="8704.72" r="98.4252" /> 
<circle cx="9681.1" cy="11102.4" r="98.4252" /> 
<circle cx="5972.44" cy="10637.8" r="98.4252" /> 
<circle cx="10307.1" cy="11066.9" r="98.4252" /> 
<circle cx="9716.54" cy="8444.88" r="98.4252" /> 
<circle cx="10401.6" cy="7173.23" r="98.4252" /> 
<circle cx="7803.15" cy="7169.29" r="98.4252" /> 
<circle cx="10074.8" cy="8417.32" r="98.4252" /> 
<circle cx="8897.64" cy="8677.17" r="98.4252" /> 
<circle cx="7807.09" cy="7956.69" r="98.4252" /> 
<circle cx="10204.7" cy="7964.57" r="98.4252" /> 
<circle cx="13192.9" cy="9980.32" r="98.4252" /> 
<circle cx="11972.4" cy="10228.3" r="98.4252" /> 
<circle cx="14500" cy="9366.14" r="98.4252" /> 
<circle cx="11972.4" cy="9885.83" r="98.4252" /> 
<circle cx="14078.7" cy="8425.2" r="98.4252" /> 
<circle cx="7870.08" cy="10633.9" r="98.4252" /> 
<circle cx="6389.76" cy="10622" r="98.4252" /> 
<circle cx="5618.11" cy="12169.3" r="98.4252" /> 
<circle cx="6228.35" cy="14842.5" r="98.4252" /> 
<circle cx="7893.7" cy="12976.4" r="98.4252" /> 
<circle cx="8358.27" cy="16173.2" r="98.4252" /> 
<circle cx="11350.4" cy="10755.9" r="98.4252" /> 
<circle cx="11334.6" cy="7649.61" r="98.4252" /> 
<circle cx="11334.6" cy="7047.24" r="98.4252" /> 
</g>
<g style="fill:#000000; fill-opacity:1.0; 
stroke:#000000; stroke-width:393.701; stroke-opacity:1; 
stroke-linecap:round; stroke-linejoin:round;">
</g>
<g style="fill:#000000; fill-opacity:0.0; 
stroke:#000000; stroke-width:393.701; stroke-opacity:1; 
stroke-linecap:round; stroke-linejoin:round;">
<path d="M6716 14075
L6740 14051
" />
<path d="M6716 14743
L6716 14075
" />
<path d="M13188 16381
L13188 15102
" />
<path d="M13188 15102
L13999 14291
" />
</g>
<g style="fill:#000000; fill-opacity:0.0; 
stroke:#000000; stroke-width:118.11; stroke-opacity:1; 
stroke-linecap:round; stroke-linejoin:round;">
<path d="M15263 9669
L14968 9374
" />
<path d="M14968 9374
L14842 9374
" />
<path d="M10709 9786
L10709 10562
" />
<path d="M10732 9763
L10709 9786
" />
<path d="M8528 14177
L8527 14177
" />
<path d="M8528 14743
L8528 14177
" />
<path d="M8499 9192
L8495 9196
" />
<path d="M8499 8669
L8499 9192
" />
<path d="M8495 9700
L8491 9704
" />
<path d="M8495 9196
L8495 9700
" />
<path d="M8491 10228
L8491 9704
" />
<path d="M6314 9598
L6314 9074
" />
<path d="M6318 9602
L6314 9598
" />
<path d="M14161 9551
L14370 9759
" />
<path d="M14385 9759
L14625 9759
" />
<path d="M14370 9759
L14385 9759
" />
<path d="M14625 9759
L14842 9543
" />
<path d="M14842 9543
L14842 9374
" />
<path d="M14161 9366
L14161 9551
" />
<path d="M12900 9054
L13204 9358
" />
<path d="M12606 9054
L12900 9054
" />
<path d="M14307 9838
L14385 9759
" />
<path d="M14307 10023
L14307 9838
" />
<path d="M13972 10358
L14307 10023
" />
<path d="M13940 10358
L13972 10358
" />
<path d="M12259 12102
L11918 12102
" />
<path d="M9665 11685
L9736 11756
" />
<path d="M9736 11756
L9736 12102
" />
<path d="M15248 6078
L15248 6283
" />
<path d="M8495 9196
L8531 9161
" />
<path d="M8802 12609
L8559 12366
" />
<path d="M8802 12622
L8802 12609
" />
<path d="M9394 12622
L9708 12622
" />
<path d="M9708 12622
L9759 12570
" />
<path d="M7622 12381
L7881 12122
" />
<path d="M7881 12122
L8708 12122
" />
<path d="M8708 12122
L8799 12031
" />
<path d="M8799 12031
L8799 11783
" />
<path d="M11326 12102
L11326 12562
" />
<path d="M11326 12562
L11334 12570
" />
<path d="M10239 12102
L10239 12570
" />
<path d="M10239 12570
L10240 12570
" />
<path d="M9118 12102
L9144 12102
" />
<path d="M8799 11783
L9118 12102
" />
<path d="M7622 11385
L7425 11188
" />
<path d="M7425 11188
L6129 11188
" />
<path d="M6129 11188
L5582 10641
" />
<path d="M7622 12381
L7622 11385
" />
<path d="M7515 12488
L7622 12381
" />
<path d="M7515 14637
L7515 12488
" />
<path d="M7622 14743
L7515 14637
" />
<path d="M10240 12708
L10374 12842
" />
<path d="M10374 12842
L11122 12842
" />
<path d="M11122 12842
L11334 12629
" />
<path d="M11334 12629
L11334 12570
" />
<path d="M10240 12570
L10240 12708
" />
<path d="M9394 12351
L9144 12102
" />
<path d="M9394 12622
L9394 12351
" />
<path d="M6874 7527
L6874 7149
" />
<path d="M6862 7539
L6874 7527
" />
<path d="M7909 8669
L7543 8669
" />
<path d="M7901 9704
L7547 9704
" />
<path d="M6874 8350
L6874 8350
" />
<path d="M6874 7956
L6874 8350
" />
<path d="M7905 9196
L7547 9196
" />
<path d="M7712 10039
L7901 10228
" />
<path d="M7559 10039
L7712 10039
" />
</g>
<g style="fill:#000000; fill-opacity:0.0; 
stroke:#000000; stroke-width:472.441; stroke-opacity:1; 
stroke-linecap:round; stroke-linejoin:round;">
<path d="M4724 13311
L4724 14393
" />
<path d="M6712 16381
L7161 16381
" />
<path d="M4724 14393
L6712 16381
" />
</g>
<g style="fill:#000000; fill-opacity:0.0; 
stroke:#000000; stroke-width:118.11; stroke-opacity:1; 
stroke-linecap:round; stroke-linejoin:round;">
<path d="M10117 10814
L10117 10562
" />
<path d="M10118 10814
L10117 10814
" />
<path d="M10208 7590
L10456 7838
" />
<path d="M10456 7838
L10456 10223
" />
<path d="M10456 10223
L10117 10562
" />
<path d="M10831 12102
L10831 12007
" />
<path d="M10831 12007
L11086 11751
" />
<path d="M11086 11751
L11086 9775
" />
<path d="M11582 9767
L11578 9763
" />
<path d="M11578 9763
L11578 8188
" />
<path d="M10831 12469
L10940 12578
" />
<path d="M10831 12102
L10831 12469
" />
<path d="M11145 7366
L12425 7366
" />
<path d="M10992 7519
L11145 7366
" />
<path d="M10992 8468
L10992 7519
" />
</g>
<g style="fill:#000000; fill-opacity:0.0; 
stroke:#000000; stroke-width:314.961; stroke-opacity:1; 
stroke-linecap:round; stroke-linejoin:round;">
<path d="M9814 16480
L9814 16275
" />
<path d="M9551 16744
L9814 16480
" />
<path d="M9330 16744
L9551 16744
" />
<path d="M9393 15303
L10200 15303
" />
</g>
<g style="fill:#000000; fill-opacity:0.0; 
stroke:#000000; stroke-width:118.11; stroke-opacity:1; 
stroke-linecap:round; stroke-linejoin:round;">
<path d="M10425 13318
L10425 15082
" />
<path d="M10425 15082
L10488 15145
" />
<path d="M10488 15145
L10488 16271
" />
<path d="M10488 16271
L10546 16329
" />
<path d="M10546 16329
L10811 16329
" />
<path d="M11330 16614
L11046 16329
" />
<path d="M11046 16329
L10811 16329
" />
<path d="M11075 15259
L10811 15259
" />
<path d="M11295 15039
L11075 15259
" />
<path d="M11842 15039
L11295 15039
" />
<path d="M12153 14728
L11842 15039
" />
<path d="M11295 15039
L11295 15330
" />
<path d="M11637 10645
L11637 10822
" />
<path d="M11637 10822
L11622 10838
" />
<path d="M11622 10838
L11622 12657
" />
<path d="M11622 12657
L11326 12952
" />
<path d="M11326 12952
L11326 14094
" />
<path d="M11326 14094
L11295 14125
" />
<path d="M11236 14184
L10811 14184
" />
<path d="M11295 14125
L11236 14184
" />
<path d="M11960 10547
L12700 11287
" />
<path d="M12700 11287
L12700 12070
" />
<path d="M12700 12070
L12794 12164
" />
<path d="M12794 12164
L13031 12164
" />
<path d="M13405 12106
L13347 12164
" />
<path d="M13347 12164
L13031 12164
" />
<path d="M13322 10866
L13322 10865
" />
<path d="M13322 10865
L13031 10865
" />
<path d="M12629 9669
L13043 9669
" />
<path d="M12606 9646
L12629 9669
" />
<path d="M13688 9669
L13811 9547
" />
<path d="M13811 9547
L13811 8921
" />
<path d="M5090 8704
L5090 9255
" />
<path d="M5090 9255
L4744 9602
" />
<path d="M9681 11102
L9452 10874
" />
<path d="M9452 10874
L6208 10874
" />
<path d="M6208 10874
L5972 10637
" />
<path d="M10007 11066
L10307 11066
" />
<path d="M9811 10870
L10007 11066
" />
<path d="M9811 10318
L9811 10870
" />
<path d="M9889 10240
L9811 10318
" />
<path d="M10189 10240
L9889 10240
" />
<path d="M10279 10150
L10189 10240
" />
<path d="M10279 9007
L10279 10150
" />
<path d="M9716 8444
L10279 9007
" />
<path d="M10401 7173
L10397 7169
" />
<path d="M10397 7169
L7803 7169
" />
<path d="M9818 8161
L10074 8417
" />
<path d="M9413 8161
L9818 8161
" />
<path d="M9232 8342
L9413 8161
" />
<path d="M8897 8677
L9232 8342
" />
<path d="M10196 7956
L7807 7956
" />
<path d="M10204 7964
L10196 7956
" />
<path d="M13192 10397
L13192 9980
" />
<path d="M13511 10716
L13192 10397
" />
<path d="M14240 10716
L13511 10716
" />
<path d="M14532 10424
L14240 10716
" />
<path d="M14532 10358
L14532 10424
" />
<path d="M11972 10228
L12212 9988
" />
<path d="M14499 8944
L14499 9366
" />
<path d="M14232 8677
L14499 8944
" />
<path d="M12212 8677
L14232 8677
" />
<path d="M12212 9988
L12212 8677
" />
<path d="M11972 9885
L11972 8425
" />
<path d="M11972 8425
L14078 8425
" />
<path d="M7858 10622
L7870 10633
" />
<path d="M6389 10622
L7858 10622
" />
<path d="M6228 14842
L5956 14570
" />
<path d="M5956 14570
L5956 12507
" />
<path d="M5956 12507
L5618 12169
" />
<path d="M7893 12976
L8003 13086
" />
<path d="M8003 13086
L8003 15818
" />
<path d="M8003 15818
L8358 16173
" />
<path d="M13279 6570
L13279 6283
" />
<path d="M13283 6287
L13279 6283
" />
<path d="M13283 7047
L13283 6287
" />
<path d="M11350 10755
L11334 10740
" />
<path d="M11334 10740
L11334 7649
" />
<path d="M11334 7047
L13283 7047
" />
</g>
<g style="fill:#000000; fill-opacity:1.0; 
stroke:#000000; stroke-width:118.11; stroke-opacity:1; 
stroke-linecap:round; stroke-linejoin:round;">
<polyline style="fill-rule:evenodd;"
points="13614,9184
13452,9184
13400,9194
13354,9224
13323,9270
13312,9324
13312,9752
13289,9743
13299,9720
13299,9618
13260,9524
13188,9452
13094,9413
12992,9413
12937,9436
12933,9416
12903,9370
12857,9339
12852,9338
12870,9331
12903,9298
12921,9254
12921,9172
12891,9142
12704,9142
12704,9200
12507,9200
12507,9142
12460,9142
12460,8965
12507,8965
12507,8908
12704,8908
12704,8965
12891,8965
12921,8936
12921,8874
13555,8874
13555,8971
13593,9066
13614,9086
13614,9184
" /> 
<polyline style="fill-rule:evenodd;"
points="14085,10456
14028,10456
14028,10503
13851,10503
13851,10456
13674,10456
13645,10486
13645,10519
13593,10519
13389,10316
13389,10145
13394,10140
13398,10143
13452,10154
13645,10154
13645,10184
13645,10230
13674,10259
13851,10259
13851,10212
14028,10212
14028,10259
14085,10259
14085,10456
" /> 
<polyline style="fill-rule:evenodd;"
points="16023,19586
15858,19586
15858,18690
15858,14855
15747,14587
15640,14480
15640,7454
15640,6765
15630,6713
15599,6667
15554,6636
15507,6626
15575,6567
15639,6438
15639,6049
15575,5920
15467,5825
15464,5818
15411,5825
15411,6106
15620,6106
15639,6049
15639,6438
15620,6381
15411,6381
15411,6389
15155,6389
15155,6381
15155,6106
15155,5825
15102,5818
15099,5825
14991,5920
14927,6049
14946,6106
15155,6106
15155,6381
14946,6381
14927,6438
14991,6567
15057,6625
15027,6625
14975,6635
14928,6665
14897,6711
14887,6765
14887,7454
14897,7507
14927,7553
14973,7584
15027,7595
15499,7595
15552,7585
15598,7554
15629,7508
15640,7454
15640,14480
15618,14458
15618,10037
15618,9836
15618,9501
15618,9301
15600,9257
15566,9224
15523,9206
15476,9206
15411,9206
15381,9236
15381,9531
15588,9531
15618,9501
15618,9836
15588,9807
15381,9807
15381,10102
15411,10131
15476,10131
15523,10131
15566,10113
15600,10080
15618,10037
15618,14458
15543,14382
15275,14271
15145,14271
15145,10102
15145,9807
15145,9531
15145,9236
15116,9206
15051,9206
15004,9206
14960,9224
14927,9257
14909,9301
14909,9501
14938,9531
15145,9531
15145,9807
14938,9807
14909,9836
14909,10037
14927,10080
14960,10113
15004,10131
15051,10131
15116,10131
15145,10102
15145,14271
14985,14271
14849,14327
14849,10555
14849,10161
14839,10108
14809,10062
14763,10031
14709,10020
14355,10020
14302,10030
14256,10061
14225,10107
14224,10111
14217,10094
14184,10061
14140,10043
14078,10043
14059,10043
14065,10013
14065,9324
14055,9272
14025,9226
14007,9214
14007,9086
14027,9066
14066,8972
14066,8874
14150,8874
14303,9026
14303,9201
14283,9220
14244,9315
14244,9416
14282,9510
14354,9582
14448,9622
14550,9622
14644,9583
14716,9511
14755,9417
14755,9315
14717,9221
14696,9201
14696,8944
14681,8869
14639,8805
14639,8805
14371,8537
14322,8505
14334,8476
14334,8374
14295,8280
14223,8208
14129,8169
14028,8169
13933,8208
13913,8228
11972,8228
11897,8243
11833,8286
11790,8349
11775,8425
11775,8354
11795,8334
11834,8240
11834,8138
11795,8044
11723,7972
11629,7933
11531,7933
11531,7814
11551,7794
11590,7700
11590,7598
11575,7562
12260,7562
12280,7582
12374,7622
12475,7622
12569,7583
12642,7511
12681,7417
12681,7315
12651,7244
13283,7244
13312,7238
13312,7454
13322,7507
13352,7553
13398,7584
13452,7595
13925,7595
13977,7585
14023,7554
14054,7508
14065,7454
14065,6765
14055,6713
14025,6667
13979,6636
13925,6625
13596,6625
13678,6502
13708,6352
13708,6136
13678,5985
13593,5857
13465,5772
13314,5742
13164,5772
13036,5857
12951,5985
12921,6136
12921,6352
12951,6502
13036,6630
13086,6663
13086,6850
12340,6850
12340,6438
12340,6049
12276,5920
12167,5825
12165,5818
12112,5825
12112,6106
12321,6106
12340,6049
12340,6438
12321,6381
12112,6381
12112,6662
12165,6669
12167,6662
12276,6567
12340,6438
12340,6850
11856,6850
11856,6662
11856,6381
11838,6381
11838,6106
11856,6106
11856,5825
11802,5818
11800,5825
11692,5920
11681,5942
11624,5857
11497,5772
11346,5742
11195,5772
11068,5857
10982,5985
10952,6136
10952,6352
10982,6502
11068,6630
11195,6715
11346,6745
11497,6715
11624,6630
11681,6545
11692,6567
11800,6662
11802,6669
11856,6662
11856,6850
11499,6850
11479,6830
11385,6791
11283,6791
11189,6830
11117,6902
11078,6996
11078,7097
11111,7176
11070,7184
11006,7226
10852,7380
10810,7444
10795,7519
10795,8303
10775,8323
10736,8417
10736,8519
10775,8613
10846,8685
10940,8724
11042,8724
11136,8685
11137,8684
11137,9519
11137,9519
11035,9519
10941,9558
10869,9630
10830,9724
10830,9826
10869,9920
10889,9940
10889,10247
10827,10247
10797,10277
10797,10464
10855,10464
10855,10661
10797,10661
10797,10848
10827,10878
10889,10878
10889,11670
10795,11764
10654,11764
10601,11775
10555,11805
10535,11835
10516,11806
10470,11775
10416,11764
10062,11764
10009,11775
9970,11800
9937,11787
9854,11787
9825,11816
9825,12003
9882,12003
9882,12200
9825,12200
9825,12248
9648,12248
9648,12200
9591,12200
9591,12003
9648,12003
9648,11816
9618,11787
9536,11787
9493,11805
9459,11838
9452,11855
9452,11852
9421,11806
9376,11775
9321,11764
9059,11764
9055,11761
9055,11732
9016,11638
8944,11566
8850,11527
8748,11527
8654,11566
8582,11638
8543,11732
8543,11834
8580,11925
8464,11925
8424,11897
8370,11886
7818,11886
7818,11385
7803,11310
7761,11246
7585,11070
9371,11070
9425,11124
9425,11153
9464,11247
9535,11319
9629,11358
9731,11358
9825,11319
9897,11247
9905,11230
9932,11248
10007,11263
10142,11263
10161,11283
10255,11322
10357,11322
10451,11284
10523,11212
10562,11118
10563,11016
10524,10922
10452,10850
10411,10833
10424,10814
10424,10809
10432,10826
10465,10860
10508,10878
10591,10878
10620,10848
10620,10661
10563,10661
10563,10464
10620,10464
10620,10325
10620,10325
10638,10299
10653,10223
10653,7838
10638,7763
10638,7763
10621,7737
10595,7699
10464,7568
10464,7539
10425,7445
10409,7429
10452,7429
10546,7390
10618,7318
10657,7224
10657,7122
10618,7028
10546,6956
10452,6917
10409,6917
10409,6352
10409,6136
10379,5985
10294,5857
10166,5772
10015,5742
9865,5772
9737,5857
9652,5985
9622,6136
9622,6352
9652,6502
9737,6630
9865,6715
10015,6745
10166,6715
10294,6630
10379,6502
10409,6352
10409,6917
10350,6917
10256,6956
10240,6972
9009,6972
9009,6438
9009,6049
8945,5920
8837,5825
8834,5818
8781,5825
8781,6106
8990,6106
9009,6049
9009,6438
8990,6381
8781,6381
8781,6662
8834,6669
8837,6662
8945,6567
9009,6438
9009,6972
8525,6972
8525,6662
8525,6381
8507,6381
8507,6106
8525,6106
8525,5825
8472,5818
8469,5825
8365,5917
8325,5857
8197,5772
8047,5742
7896,5772
7768,5857
7683,5985
7653,6136
7653,6352
7683,6502
7768,6630
7896,6715
8047,6745
8197,6715
8325,6630
8365,6571
8469,6662
8472,6669
8525,6662
8525,6972
7968,6972
7948,6952
7854,6913
7752,6913
7721,6926
7721,6925
7688,6892
7644,6874
7572,6874
7542,6904
7542,7071
7566,7071
7547,7118
7547,7219
7550,7228
7542,7228
7542,7395
7572,7424
7644,7424
7688,7406
7693,7401
7752,7425
7853,7425
7947,7386
7968,7366
10081,7366
10063,7373
9991,7445
9952,7539
9952,7641
9991,7735
10016,7759
7972,7759
7952,7739
7858,7700
7756,7700
7708,7720
7688,7699
7644,7681
7572,7681
7542,7711
7542,7878
7562,7878
7551,7905
7551,8007
7562,8035
7542,8035
7542,8202
7572,8231
7644,8231
7688,8213
7708,8193
7755,8212
7857,8212
7951,8173
7972,8153
9142,8153
9093,8203
9093,8203
8875,8421
8846,8421
8761,8456
8756,8445
8723,8412
8680,8394
8607,8394
8578,8423
8578,8590
8645,8590
8645,8617
8641,8626
8641,8727
8645,8736
8645,8747
8578,8747
8578,8914
8594,8931
8574,8951
8574,9118
8741,9118
8770,9088
8770,9063
8770,9016
8752,8972
8719,8939
8705,8933
8723,8926
8755,8895
8846,8933
8948,8933
9042,8894
9114,8822
9153,8728
9153,8699
9371,8481
9371,8481
9371,8481
9461,8391
9460,8393
9460,8495
9499,8589
9571,8661
9665,8700
9694,8700
10082,9089
10082,10043
9889,10043
9814,10058
9788,10075
9750,10100
9671,10179
9629,10243
9614,10318
9614,10757
9591,10734
9528,10692
9452,10677
8770,10677
8770,9377
8770,9330
8770,9304
8741,9275
8574,9275
8574,9442
8580,9448
8570,9459
8570,9626
8737,9626
8766,9596
8766,9571
8766,9524
8748,9480
8720,9452
8752,9420
8770,9377
8770,10677
8766,10677
8766,10408
8766,10361
8766,10336
8766,10120
8766,10094
8766,10047
8748,10004
8715,9971
8704,9966
8715,9961
8748,9928
8766,9885
8766,9838
8766,9812
8737,9783
8570,9783
8570,9950
8586,9966
8570,9982
8570,10149
8737,10149
8766,10120
8766,10336
8737,10306
8570,10306
8570,10473
8599,10503
8672,10503
8715,10485
8748,10452
8766,10408
8766,10677
8421,10677
8421,8914
8421,8747
8421,8590
8421,8423
8391,8394
8319,8394
8275,8412
8242,8445
8224,8488
8224,8535
8224,8561
8254,8590
8421,8590
8421,8747
8254,8747
8224,8777
8224,8802
8224,8849
8242,8893
8275,8926
8289,8932
8271,8939
8238,8972
8220,9016
8220,9063
8220,9088
8250,9118
8417,9118
8417,8951
8401,8935
8421,8914
8421,10677
8417,10677
8417,9442
8417,9275
8250,9275
8220,9304
8220,9330
8220,9377
8238,9420
8266,9448
8234,9480
8216,9524
8216,9571
8216,9596
8246,9626
8413,9626
8413,9459
8406,9452
8417,9442
8417,10677
8413,10677
8413,10473
8413,10306
8413,10149
8413,9982
8397,9966
8413,9950
8413,9783
8246,9783
8216,9812
8216,9838
8216,9885
8234,9928
8267,9961
8279,9966
8267,9971
8234,10004
8216,10047
8216,10094
8216,10120
8246,10149
8413,10149
8413,10306
8246,10306
8216,10336
8216,10361
8216,10408
8234,10452
8267,10485
8311,10503
8383,10503
8413,10473
8413,10677
8125,10677
8126,10583
8099,10518
8111,10515
8157,10485
8188,10439
8199,10385
8199,10071
8189,10018
8158,9972
8149,9966
8157,9961
8188,9915
8199,9861
8199,9547
8189,9495
8161,9453
8192,9408
8203,9353
8203,9039
8193,8987
8162,8941
8152,8934
8165,8926
8196,8880
8207,8826
8207,8512
8197,8459
8166,8413
8120,8382
8066,8371
7752,8371
7700,8381
7654,8412
7640,8432
7594,8413
7492,8413
7398,8452
7385,8464
7385,8202
7385,8035
7385,7878
7385,7711
7385,7395
7385,7228
7385,7071
7385,6904
7356,6874
7283,6874
7240,6892
7207,6925
7189,6969
7189,7016
7189,7041
7218,7071
7385,7071
7385,7228
7218,7228
7189,7257
7189,7283
7189,7330
7207,7373
7240,7406
7283,7424
7356,7424
7385,7395
7385,7711
7356,7681
7283,7681
7240,7699
7207,7732
7189,7776
7189,7823
7189,7848
7218,7878
7385,7878
7385,8035
7218,8035
7189,8064
7189,8090
7189,8137
7207,8180
7240,8213
7283,8231
7356,8231
7385,8202
7385,8464
7326,8524
7287,8618
7287,8719
7326,8814
7398,8886
7492,8925
7593,8925
7640,8906
7652,8925
7662,8931
7650,8939
7638,8957
7598,8940
7496,8940
7402,8979
7330,9051
7291,9145
7291,9247
7330,9341
7402,9413
7491,9450
7402,9487
7330,9559
7291,9653
7291,9755
7330,9849
7358,9877
7342,9894
7303,9988
7303,10090
7341,10184
7413,10256
7507,10295
7604,10295
7604,10385
7612,10425
7171,10425
7171,8113
7171,7799
7161,7747
7131,7700
7085,7670
7085,7669
7118,7590
7118,7488
7093,7430
7130,7406
7160,7360
7171,7306
7171,6992
7161,6940
7131,6893
7085,6862
7031,6852
6717,6852
6695,6856
6695,6743
6835,6715
6963,6630
7048,6502
7078,6352
7078,6136
7048,5985
6963,5857
6835,5772
6685,5742
6534,5772
6406,5857
6321,5985
6291,6136
6291,6352
6321,6502
6358,6558
6082,6558
6030,6568
5983,6598
5953,6644
5942,6698
5942,7387
5952,7440
5982,7486
6028,7517
6082,7528
6555,7528
6606,7518
6606,7590
6644,7682
6618,7699
6587,7745
6576,7799
6576,8113
6586,8166
6617,8212
6646,8231
6618,8299
6618,8401
6656,8495
6728,8567
6822,8606
6924,8606
7018,8567
7090,8495
7129,8401
7129,8299
7102,8232
7130,8213
7160,8167
7171,8113
7171,10425
6673,10425
6673,9970
6673,9769
6673,9435
6673,9234
6655,9190
6622,9157
6578,9139
6531,9139
6466,9139
6437,9169
6437,9464
6643,9464
6673,9435
6673,9769
6643,9740
6437,9740
6437,10035
6466,10064
6531,10064
6578,10064
6622,10046
6655,10013
6673,9970
6673,10425
6554,10425
6534,10405
6440,10366
6339,10366
6244,10404
6200,10449
6200,10035
6200,9740
6200,9464
6200,9169
6171,9139
6106,9139
6059,9139
6015,9157
5982,9190
5964,9234
5964,9435
5994,9464
6200,9464
6200,9740
5994,9740
5964,9769
5964,9970
5982,10013
6015,10046
6059,10064
6106,10064
6171,10064
6200,10035
6200,10449
6173,10476
6117,10420
6023,10381
5921,10381
5827,10420
5775,10472
5727,10424
5633,10385
5531,10385
5437,10424
5365,10496
5346,10543
5346,8654
5307,8559
5235,8487
5141,8448
5120,8448
5120,7387
5120,6698
5110,6646
5080,6600
5035,6569
5080,6502
5110,6352
5110,6136
5080,5985
4994,5857
4867,5772
4716,5742
4565,5772
4438,5857
4352,5985
4322,6136
4322,6352
4352,6502
4414,6595
4409,6598
4378,6644
4367,6698
4367,7387
4377,7440
4407,7486
4453,7517
4507,7528
4980,7528
5032,7518
5079,7487
5109,7441
5120,7387
5120,8448
5039,8448
4945,8487
4873,8559
4834,8653
4834,8755
4873,8849
4893,8869
4893,9117
4507,9117
4455,9127
4409,9157
4378,9203
4367,9257
4367,9946
4377,9999
4407,10045
4453,10076
4507,10087
4980,10087
5032,10077
5079,10046
5109,10001
5120,9946
5120,9504
5229,9395
5272,9331
5287,9255
5287,9255
5287,8869
5307,8849
5346,8755
5346,8654
5346,10543
5326,10590
5326,10692
5365,10786
5437,10858
5531,10897
5560,10897
5990,11328
6029,11353
6054,11370
6054,11370
6129,11385
7343,11385
7425,11467
7425,11886
6874,11886
6821,11897
6775,11927
6744,11973
6733,12027
6733,12736
6743,12789
6774,12835
6819,12866
6874,12876
7318,12876
7318,14258
7313,14259
7267,14289
7236,14335
7225,14389
7225,15098
7235,15151
7266,15197
7311,15228
7366,15238
7807,15238
7807,15818
7822,15894
7864,15958
8102,16195
8102,16223
8141,16317
8213,16390
8307,16429
8408,16429
8503,16390
8575,16318
8614,16224
8614,16122
8575,16028
8503,15956
8409,15917
8380,15917
8200,15737
8200,15194
8205,15198
8248,15216
8370,15216
8400,15187
8400,14881
8382,14881
8382,14606
8400,14606
8400,14300
8370,14271
8248,14271
8205,14289
8200,14293
8200,13086
8185,13011
8149,12957
8149,12925
8129,12876
8370,12876
8422,12866
8468,12836
8499,12790
8507,12752
8507,12759
8507,12795
8507,12842
8525,12885
8558,12919
8601,12937
8684,12937
8713,12907
8713,12720
8656,12720
8656,12523
8713,12523
8713,12336
8696,12318
8708,12318
8708,12318
8783,12303
8827,12274
8827,12299
8837,12351
8867,12398
8890,12413
8890,12523
8948,12523
8948,12720
8890,12720
8890,12907
8920,12937
9002,12937
9046,12919
9079,12885
9086,12868
9087,12871
9117,12917
9163,12948
9217,12959
9571,12959
9623,12949
9670,12919
9701,12873
9710,12826
9810,12826
9904,12787
9976,12716
10000,12659
10023,12715
10050,12742
10050,12742
10058,12783
10100,12847
10234,12981
10273,13007
10298,13024
10298,13024
10374,13039
11122,13039
11122,13039
11129,13037
11129,13929
11124,13934
11107,13908
11062,13877
11008,13866
10622,13866
10622,13483
10642,13464
10681,13370
10681,13268
10642,13174
10570,13102
10476,13063
10374,13062
10280,13101
10208,13173
10169,13267
10169,13369
10208,13463
10228,13483
10228,15013
10200,15007
9393,15007
9280,15030
9184,15094
9120,15190
9098,15303
9120,15416
9184,15511
9280,15575
9393,15598
10200,15598
10291,15580
10291,16271
10306,16346
10348,16410
10407,16469
10471,16511
10474,16512
10483,16559
10514,16605
10559,16636
10564,16637
10547,16644
10513,16678
10495,16721
10495,16803
10525,16833
10712,16833
10712,16776
10909,16776
10909,16833
11096,16833
11126,16803
11126,16771
11185,16830
11279,16870
11381,16870
11475,16831
11547,16759
11586,16665
11586,16563
11547,16469
11475,16397
11381,16358
11353,16358
11185,16190
11148,16165
11148,16152
11138,16100
11118,16070
11126,16051
11126,15969
11096,15939
10909,15939
10909,15996
10712,15996
10712,15939
10685,15939
10685,15762
10712,15762
10712,15705
10909,15705
10909,15762
11096,15762
11126,15733
11126,15650
11108,15607
11074,15573
11057,15566
11060,15566
11106,15536
11119,15516
11150,15547
11244,15586
11345,15586
11440,15547
11512,15475
11551,15381
11551,15280
11533,15236
11842,15236
11842,15236
11917,15221
11981,15178
12176,14984
12204,14984
12298,14945
12370,14873
12409,14779
12409,14677
12370,14583
12298,14511
12213,14476
12213,12322
12213,12275
12213,12230
12213,11974
12213,11928
12213,11881
12195,11838
12161,11805
12118,11787
12036,11787
12006,11816
12006,12003
12183,12003
12213,11974
12213,12230
12183,12200
12006,12200
12006,12387
12036,12417
12118,12417
12161,12399
12195,12366
12213,12322
12213,14476
12204,14472
12102,14472
12008,14511
11936,14583
11897,14677
11897,14705
11760,14842
11295,14842
11219,14857
11156,14900
11126,14930
11126,14894
11096,14864
10909,14864
10909,14921
10712,14921
10712,14864
10665,14864
10665,14687
10712,14687
10712,14630
10909,14630
10909,14687
11096,14687
11126,14658
11126,14575
11108,14532
11074,14499
11057,14492
11060,14491
11106,14461
11137,14415
11144,14381
11236,14381
11236,14381
11240,14380
11244,14381
11345,14381
11440,14343
11512,14271
11551,14177
11551,14075
11523,14008
11523,13034
11761,12796
11761,12796
11803,12732
11818,12657
11818,12657
11818,12398
11829,12387
11829,12200
11818,12200
11818,12003
11829,12003
11829,11816
11818,11806
11818,10899
11818,10899
11819,10898
11819,10898
11834,10822
11834,10810
11854,10790
11858,10781
11909,10803
11938,10803
12503,11368
12503,12070
12518,12146
12561,12210
12655,12303
12694,12329
12694,12341
12704,12394
12734,12440
12780,12471
12785,12472
12767,12479
12734,12512
12716,12556
12716,12638
12745,12668
12932,12668
12932,12610
13129,12610
13129,12668
13317,12668
13346,12638
13346,12556
13328,12512
13295,12479
13278,12472
13281,12471
13327,12441
13358,12395
13364,12362
13456,12362
13550,12323
13622,12251
13661,12157
13661,12055
13622,11961
13550,11889
13456,11850
13354,11850
13346,11853
13346,11657
13346,11575
13317,11545
13129,11545
13129,11723
13159,11752
13205,11752
13251,11752
13295,11734
13328,11701
13346,11657
13346,11853
13303,11871
13282,11857
13228,11847
12897,11847
12897,11752
12903,11752
12932,11723
12932,11545
12897,11545
12897,11368
12932,11368
12932,11311
13129,11311
13129,11368
13317,11368
13346,11339
13346,11256
13328,11213
13295,11180
13278,11173
13281,11172
13327,11142
13340,11122
13373,11122
13467,11083
13539,11011
13578,10917
13578,10913
14240,10913
14240,10913
14315,10898
14379,10855
14539,10695
14709,10695
14761,10685
14807,10655
14838,10609
14849,10555
14849,14327
14717,14382
14512,14586
14401,14854
14401,15144
14512,15412
14716,15617
14984,15728
15274,15728
15541,15617
15747,15413
15858,15145
15858,14855
15858,18690
15747,18422
15543,18217
15275,18106
14985,18106
14717,18216
14512,18421
14401,18689
14401,18978
14512,19246
14716,19451
14984,19562
15274,19563
15541,19452
15747,19247
15858,18980
15858,18690
15858,19586
14334,19586
14334,14291
14309,14163
14236,14054
14128,13982
13999,13956
13871,13982
13763,14054
13346,14471
13346,12957
13346,12874
13317,12845
13129,12845
13129,13022
13159,13051
13205,13051
13251,13051
13295,13033
13328,13000
13346,12957
13346,14471
12952,14865
12932,14894
12932,13022
12932,12845
12745,12845
12716,12874
12716,12957
12734,13000
12767,13033
12811,13051
12857,13051
12903,13051
12932,13022
12932,14894
12879,14974
12854,15102
12854,16381
12879,16509
12952,16618
13060,16691
13188,16716
13317,16691
13425,16618
13498,16509
13523,16381
13523,15240
14236,14527
14309,14419
14334,14291
14334,19586
11126,19586
11126,17122
11126,17040
11096,17010
10909,17010
10909,17187
10939,17217
10984,17217
11031,17217
11074,17199
11108,17165
11126,17122
11126,19586
10878,19586
10878,18690
10767,18422
10712,18367
10712,17187
10712,17010
10525,17010
10495,17040
10495,17122
10513,17165
10547,17199
10590,17217
10637,17217
10682,17217
10712,17187
10712,18367
10562,18217
10295,18106
10110,18106
10110,16480
10110,16275
10087,16162
10023,16066
9927,16002
9814,15980
9701,16002
9606,16066
9542,16162
9519,16275
9519,16358
9428,16448
9330,16448
9217,16471
9121,16535
9057,16631
9035,16744
9057,16857
9121,16952
9217,17016
9330,17039
9551,17039
9664,17016
9759,16952
10023,16689
10087,16593
10110,16480
10110,18106
10005,18106
9737,18216
9532,18421
9421,18689
9421,18978
9531,19246
9736,19451
10004,19562
10293,19563
10561,19452
10766,19247
10877,18980
10878,18690
10878,19586
8902,19586
8902,15121
8902,15074
8902,14911
8902,14576
8902,14412
8902,14365
8884,14322
8850,14289
8807,14271
8685,14271
8656,14300
8656,14606
8872,14606
8902,14576
8902,14911
8872,14881
8656,14881
8656,15187
8685,15216
8807,15216
8850,15198
8884,15165
8902,15121
8902,19586
6937,19586
6937,18682
6937,18255
6931,18204
6795,18048
6610,17957
6216,17957
6216,18331
6934,18331
6937,18255
6937,18682
6934,18606
6216,18606
6216,18980
6610,18980
6795,18888
6931,18733
6937,18682
6937,19586
5940,19586
5940,18980
5940,18606
5940,18331
5940,17957
5546,17957
5361,18048
5310,18107
5310,16913
5310,16519
5310,16244
5310,15850
5218,15664
5063,15528
5011,15522
4936,15525
4936,16244
5310,16244
5310,16519
4936,16519
4936,17237
5011,17240
5063,17235
5218,17098
5310,16913
5310,18107
5225,18204
5219,18255
5222,18331
5940,18331
5940,18606
5222,18606
5219,18682
5225,18733
5361,18888
5546,18980
5940,18980
5940,19586
4660,19586
4660,17237
4660,16519
4660,16244
4660,15525
4585,15522
4534,15528
4378,15664
4287,15850
4287,16244
4660,16244
4660,16519
4287,16519
4287,16913
4378,17098
4534,17235
4585,17240
4660,17237
4660,19586
4165,19586
4165,13670
4191,13709
4237,13740
4291,13751
4350,13751
4350,14393
4374,14513
4378,14536
4459,14658
6448,16646
6448,16646
6529,16700
6569,16727
6569,16727
6630,16739
6630,16894
6670,17097
6786,17270
6958,17385
7161,17425
7365,17385
7537,17270
7652,17097
7693,16894
7693,15869
7652,15666
7537,15493
7365,15378
7161,15338
7112,15347
7112,15098
7112,14389
7102,14336
7072,14290
7050,14276
7050,14172
7074,14051
7049,13923
6976,13814
6868,13742
6740,13716
6612,13742
6503,13814
6479,13838
6406,13947
6381,14075
6381,14276
6361,14289
6330,14335
6319,14389
6319,14603
6279,14586
6250,14586
6153,14489
6153,12507
6138,12432
6138,12432
6121,12406
6095,12368
5874,12146
5874,12118
5835,12024
5763,11952
5669,11913
5567,11913
5473,11952
5401,12024
5362,12118
5362,12219
5401,12314
5472,12386
5566,12425
5595,12425
5759,12589
5759,14570
5774,14646
5817,14710
5972,14864
5972,14893
6011,14987
6083,15059
6177,15098
6279,15098
6319,15081
6319,15098
6329,15151
6360,15197
6405,15228
6460,15238
6972,15238
7024,15228
7070,15198
7101,15152
7112,15098
7112,15347
6958,15378
6786,15493
6670,15666
6646,15787
5098,14238
5098,13751
5157,13751
5209,13741
5256,13710
5287,13665
5297,13611
5297,13011
5287,12958
5257,12912
5211,12881
5157,12870
4291,12870
4238,12880
4192,12911
4165,12951
4165,12426
4175,12478
4270,12620
4412,12715
4580,12748
4868,12748
5036,12715
5178,12620
5273,12478
5306,12311
5273,12143
5178,12001
5036,11906
4868,11873
4580,11873
4412,11906
4270,12001
4175,12143
4165,12195
4165,11426
4175,11478
4270,11620
4412,11715
4580,11748
4868,11748
5036,11715
5178,11620
5273,11478
5306,11311
5273,11143
5178,11001
5036,10906
4868,10873
4580,10873
4412,10906
4270,11001
4175,11143
4165,11195
4165,5736
16023,5736
16023,19586
" /> 
</g>
<g style="fill:#FFFFFF; fill-opacity:1.0; 
stroke:#FFFFFF; stroke-width:39.3701; stroke-opacity:1; 
stroke-linecap:round; stroke-linejoin:round;">
<circle cx="6740.16" cy="14051.2" r="59.0551" /> 
<circle cx="13189" cy="16381.9" r="59.0551" /> 
<circle cx="14000" cy="14291.3" r="59.0551" /> 
<circle cx="14842.5" cy="9374.02" r="59.0551" /> 
<circle cx="10732.3" cy="9763.78" r="59.0551" /> 
<circle cx="9874.02" cy="9338.58" r="59.0551" /> 
<circle cx="8527.56" cy="14177.2" r="59.0551" /> 
<circle cx="11708.7" cy="17063" r="59.0551" /> 
<circle cx="11649.6" cy="15779.5" r="59.0551" /> 
<circle cx="11704.7" cy="14622" r="59.0551" /> 
<circle cx="8877.95" cy="15338.6" r="59.0551" /> 
<circle cx="8877.95" cy="16622" r="59.0551" /> 
<circle cx="6314.96" cy="9074.8" r="59.0551" /> 
<circle cx="8492.13" cy="8232.28" r="59.0551" /> 
<circle cx="8448.82" cy="11795.3" r="59.0551" /> 
<circle cx="8877.95" cy="17901.6" r="59.0551" /> 
<circle cx="14161.4" cy="9366.14" r="59.0551" /> 
<circle cx="13204.7" cy="9358.27" r="59.0551" /> 
<circle cx="12259.8" cy="12102.4" r="59.0551" /> 
<circle cx="10748" cy="11689" r="59.0551" /> 
<circle cx="9665.35" cy="11685" r="59.0551" /> 
<circle cx="8559.05" cy="12366.1" r="59.0551" /> 
<circle cx="7909.45" cy="11196.9" r="59.0551" /> 
<circle cx="7173.23" cy="10000" r="59.0551" /> 
<circle cx="13413.4" cy="12858.3" r="59.0551" /> 
<circle cx="9759.84" cy="12570.9" r="59.0551" /> 
<circle cx="11334.6" cy="12570.9" r="59.0551" /> 
<circle cx="10240.2" cy="12570.9" r="59.0551" /> 
<circle cx="8799.21" cy="11783.5" r="59.0551" /> 
<circle cx="5582.68" cy="10641.7" r="59.0551" /> 
<circle cx="6862.2" cy="7539.37" r="59.0551" /> 
<circle cx="7543.31" cy="8669.29" r="59.0551" /> 
<circle cx="7547.24" cy="9704.72" r="59.0551" /> 
<circle cx="6874.02" cy="8350.39" r="59.0551" /> 
<circle cx="7547.24" cy="9196.85" r="59.0551" /> 
<circle cx="7559.05" cy="10039.4" r="59.0551" /> 
<circle cx="10118.1" cy="10815" r="59.0551" /> 
<circle cx="10208.7" cy="7590.55" r="59.0551" /> 
<circle cx="11086.6" cy="9775.59" r="59.0551" /> 
<circle cx="11582.7" cy="9767.72" r="59.0551" /> 
<circle cx="11578.7" cy="8188.98" r="59.0551" /> 
<circle cx="10940.9" cy="12578.7" r="59.0551" /> 
<circle cx="12425.2" cy="7366.14" r="59.0551" /> 
<circle cx="10992.1" cy="8468.5" r="59.0551" /> 
<circle cx="9814.96" cy="16275.6" r="59.0551" /> 
<circle cx="9330.71" cy="16744.1" r="59.0551" /> 
<circle cx="9393.7" cy="15303.1" r="59.0551" /> 
<circle cx="10200.8" cy="15303.1" r="59.0551" /> 
<circle cx="10425.2" cy="13318.9" r="59.0551" /> 
<circle cx="11330.7" cy="16614.2" r="59.0551" /> 
<circle cx="12153.5" cy="14728.3" r="59.0551" /> 
<circle cx="11295.3" cy="15330.7" r="59.0551" /> 
<circle cx="11637.8" cy="10645.7" r="59.0551" /> 
<circle cx="11295.3" cy="14126" r="59.0551" /> 
<circle cx="11960.6" cy="10547.2" r="59.0551" /> 
<circle cx="13405.5" cy="12106.3" r="59.0551" /> 
<circle cx="13322.8" cy="10866.1" r="59.0551" /> 
<circle cx="13043.3" cy="9669.29" r="59.0551" /> 
<circle cx="13811" cy="8921.26" r="59.0551" /> 
<circle cx="5090.55" cy="8704.72" r="59.0551" /> 
<circle cx="9681.1" cy="11102.4" r="59.0551" /> 
<circle cx="5972.44" cy="10637.8" r="59.0551" /> 
<circle cx="10307.1" cy="11066.9" r="59.0551" /> 
<circle cx="9716.54" cy="8444.88" r="59.0551" /> 
<circle cx="10401.6" cy="7173.23" r="59.0551" /> 
<circle cx="7803.15" cy="7169.29" r="59.0551" /> 
<circle cx="10074.8" cy="8417.32" r="59.0551" /> 
<circle cx="8897.64" cy="8677.17" r="59.0551" /> 
<circle cx="7807.09" cy="7956.69" r="59.0551" /> 
<circle cx="10204.7" cy="7964.57" r="59.0551" /> 
<circle cx="13192.9" cy="9980.32" r="59.0551" /> 
<circle cx="11972.4" cy="10228.3" r="59.0551" /> 
<circle cx="14500" cy="9366.14" r="59.0551" /> 
<circle cx="11972.4" cy="9885.83" r="59.0551" /> 
<circle cx="14078.7" cy="8425.2" r="59.0551" /> 
<circle cx="7870.08" cy="10633.9" r="59.0551" /> 
<circle cx="6389.76" cy="10622" r="59.0551" /> 
<circle cx="5618.11" cy="12169.3" r="59.0551" /> 
<circle cx="6228.35" cy="14842.5" r="59.0551" /> 
<circle cx="7893.7" cy="12976.4" r="59.0551" /> 
<circle cx="8358.27" cy="16173.2" r="59.0551" /> 
<circle cx="11350.4" cy="10755.9" r="59.0551" /> 
<circle cx="11334.6" cy="7649.61" r="59.0551" /> 
<circle cx="11334.6" cy="7047.24" r="59.0551" /> 
</g>
<g style="fill:#FFFFFF; fill-opacity:1.0; 
stroke:#FFFFFF; stroke-width:394; stroke-opacity:1; 
stroke-linecap:round; stroke-linejoin:round;">
</g>
<g style="fill:#FFFFFF; fill-opacity:0.0; 
stroke:#FFFFFF; stroke-width:394; stroke-opacity:1; 
stroke-linecap:round; stroke-linejoin:round;">
<path d="M6472 18468
L5685 18468
" />
<path d="M4798 15988
L4798 16775
" />
<path d="M7161 15889
L7161 16873
" />
</g>
<g style="fill:#FFFFFF; fill-opacity:0.0; 
stroke:#FFFFFF; stroke-width:39.3701; stroke-opacity:1; 
stroke-linecap:round; stroke-linejoin:round;">
</g>
<g style="fill:#FFFFFF; fill-opacity:1.0; 
stroke:#FFFFFF; stroke-width:39.3701; stroke-opacity:1; 
stroke-linecap:round; stroke-linejoin:round;">
<circle cx="11346.5" cy="6244.09" r="137.795" /> 
<circle cx="13315" cy="6244.09" r="137.795" /> 
<circle cx="15283.5" cy="6244.09" r="137.795" /> 
<circle cx="8047.24" cy="6244.09" r="137.795" /> 
<circle cx="10015.7" cy="6244.09" r="137.795" /> 
<circle cx="11984.3" cy="6244.09" r="137.795" /> 
<circle cx="4716.54" cy="6244.09" r="137.795" /> 
<circle cx="6685.04" cy="6244.09" r="137.795" /> 
<circle cx="8653.54" cy="6244.09" r="137.795" /> 
<circle cx="15129.9" cy="15000" r="374.016" /> 
<circle cx="15129.9" cy="18834.6" r="374.016" /> 
<circle cx="10149.6" cy="18834.6" r="374.016" /> 
<circle cx="4724.41" cy="13311" r="177.315" /> 
<circle cx="4724.41" cy="12311" r="177.315" /> 
<circle cx="4724.41" cy="11311" r="177.315" /> 
</g> 
</svg>
