G04 #@! TF.FileFunction,Copper,L2,Bot,Signal*
%FSLAX46Y46*%
G04 Gerber Fmt 4.6, Leading zero omitted, Abs format (unit mm)*
G04 Created by KiCad (PCBNEW (2015-03-13 BZR 5510)-product) date tis  3 nov 2015 15:17:31*
%MOMM*%
G01*
G04 APERTURE LIST*
%ADD10C,0.100000*%
%ADD11O,4.000500X1.998980*%
%ADD12O,1.998980X4.000500*%
%ADD13O,1.998980X4.500880*%
%ADD14O,1.300000X1.800000*%
%ADD15R,0.797560X0.797560*%
%ADD16R,0.899160X1.000760*%
%ADD17R,1.000760X0.899160*%
%ADD18R,1.200000X1.750000*%
%ADD19C,3.000000*%
%ADD20R,1.300480X1.800860*%
%ADD21R,3.799840X1.800860*%
%ADD22R,2.199640X1.524000*%
%ADD23O,2.199640X1.524000*%
%ADD24C,0.600000*%
%ADD25C,1.000000*%
%ADD26C,0.300000*%
%ADD27C,1.200000*%
%ADD28C,0.800000*%
G04 APERTURE END LIST*
D10*
D11*
X123160120Y-118270980D03*
D12*
X119908920Y-112970000D03*
D13*
X125910940Y-112970000D03*
D14*
X136540000Y-87220000D03*
X141540000Y-87220000D03*
X146540000Y-87220000D03*
X128160000Y-87220000D03*
X133160000Y-87220000D03*
X138160000Y-87220000D03*
X119700000Y-87220000D03*
X124700000Y-87220000D03*
X129700000Y-87220000D03*
D15*
X127800700Y-94720000D03*
X129299300Y-94720000D03*
D16*
X131581840Y-103420000D03*
X130078160Y-103420000D03*
X136488160Y-102100000D03*
X137991840Y-102100000D03*
X130948160Y-102100000D03*
X132451840Y-102100000D03*
X134921840Y-98190000D03*
X133418160Y-98190000D03*
D17*
X139740000Y-94358160D03*
X139740000Y-95861840D03*
D16*
X133728160Y-102100000D03*
X135231840Y-102100000D03*
D17*
X135180000Y-112838160D03*
X135180000Y-114341840D03*
X135180000Y-110118160D03*
X135180000Y-111621840D03*
X135180000Y-107388160D03*
X135180000Y-108891840D03*
X140820000Y-102258160D03*
X140820000Y-103761840D03*
X140820000Y-98958160D03*
X140820000Y-100461840D03*
D16*
X144631840Y-97670000D03*
X143128160Y-97670000D03*
D18*
X146490000Y-95920000D03*
X142490000Y-95920000D03*
X146490000Y-89420000D03*
X142490000Y-89420000D03*
X123770000Y-95750000D03*
X119770000Y-95750000D03*
X123770000Y-89250000D03*
X119770000Y-89250000D03*
D19*
X146150000Y-109460000D03*
X146150000Y-119200000D03*
X133500000Y-119200000D03*
D20*
X129381240Y-108809740D03*
X127080000Y-108809740D03*
X124778760Y-108809740D03*
D21*
X127080000Y-102810260D03*
D15*
X125180700Y-89520000D03*
X126679300Y-89520000D03*
X127810700Y-93380000D03*
X129309300Y-93380000D03*
X127790700Y-96010000D03*
X129289300Y-96010000D03*
X125180700Y-91570000D03*
X126679300Y-91570000D03*
X127790700Y-97340000D03*
X129289300Y-97340000D03*
D22*
X119720000Y-105170000D03*
D23*
X119720000Y-102630000D03*
X119720000Y-100090000D03*
D22*
X123580000Y-114400000D03*
D23*
X123580000Y-111860000D03*
D24*
X143280000Y-107660000D03*
X141220000Y-112970000D03*
X124840000Y-107050000D03*
X141790000Y-104020000D03*
X125940000Y-96760000D03*
X127810000Y-99800000D03*
X129460000Y-102770000D03*
X132270000Y-101040000D03*
X135020000Y-101050000D03*
X138860000Y-102100000D03*
X141260000Y-95130000D03*
X143690000Y-95150000D03*
X130270000Y-116830000D03*
X129180000Y-101320000D03*
X129290000Y-92270000D03*
X123760000Y-94410000D03*
X130270000Y-113580000D03*
X130270000Y-110320000D03*
X137450000Y-108500000D03*
X137310000Y-111440000D03*
X137460000Y-114700000D03*
X129380000Y-107370000D03*
X132800000Y-95080000D03*
X134980000Y-96160000D03*
X145420000Y-95170000D03*
X121900000Y-98390000D03*
X130070000Y-101290000D03*
X133730000Y-103290000D03*
X136510000Y-103290000D03*
X132510000Y-103290000D03*
X125150000Y-90510000D03*
X126880000Y-93380000D03*
X126890000Y-96010000D03*
X125180000Y-92570000D03*
X126890000Y-94720000D03*
X126920000Y-96860000D03*
X133650000Y-90640000D03*
X133420000Y-98830000D03*
X135510000Y-103310000D03*
X137130000Y-92160000D03*
X137140000Y-96170000D03*
X135880000Y-96190000D03*
X135640000Y-92870000D03*
X139280000Y-90070000D03*
X131420000Y-113890000D03*
X132650000Y-112700000D03*
X133630000Y-110230000D03*
X131580000Y-110230000D03*
X136500000Y-113560000D03*
X134200000Y-105190000D03*
X136410000Y-110300000D03*
X138590000Y-108770000D03*
X136410000Y-107240000D03*
X137280000Y-98400000D03*
X141770000Y-102110000D03*
X138100000Y-98150000D03*
X141560000Y-98960000D03*
X140850000Y-95920000D03*
X142800000Y-94020000D03*
X120650000Y-93470000D03*
X122890000Y-98380000D03*
X132310000Y-99560000D03*
X132400000Y-92810000D03*
X133900000Y-99470000D03*
X127540000Y-89570000D03*
X134140000Y-89580000D03*
X130320000Y-93400000D03*
X133310000Y-92740000D03*
X133640000Y-91590000D03*
X127550000Y-91570000D03*
X141230000Y-96710000D03*
X144550000Y-95150000D03*
X138130000Y-97340000D03*
X143480000Y-92760000D03*
X138130000Y-96470000D03*
X130290000Y-114930000D03*
X123940000Y-104250000D03*
X124970000Y-98340000D03*
X128550000Y-98340000D03*
X128950000Y-112440000D03*
X127770000Y-104320000D03*
X136510000Y-89260000D03*
X136510000Y-90790000D03*
X136550000Y-98680000D03*
D25*
X141220000Y-109720000D02*
X143280000Y-107660000D01*
X141220000Y-112970000D02*
X141220000Y-109720000D01*
X124778760Y-108809740D02*
X124778760Y-107111240D01*
X124778760Y-107111240D02*
X124840000Y-107050000D01*
D26*
X130078160Y-103420000D02*
X130078160Y-103388160D01*
X130078160Y-103388160D02*
X129460000Y-102770000D01*
X129299300Y-94720000D02*
X129389300Y-94630000D01*
X146450000Y-86800000D02*
X146450000Y-87320000D01*
X132451840Y-101221840D02*
X132451840Y-102100000D01*
X132270000Y-101040000D02*
X132451840Y-101221840D01*
X138860000Y-102100000D02*
X137991840Y-102100000D01*
X143128160Y-97670000D02*
X143210000Y-97670000D01*
X143210000Y-97670000D02*
X144060000Y-96820000D01*
X144060000Y-96820000D02*
X144060000Y-96350000D01*
X144060000Y-96350000D02*
X144260000Y-96150000D01*
X139740000Y-94358160D02*
X140488160Y-94358160D01*
X140488160Y-94358160D02*
X141260000Y-95130000D01*
X143690000Y-95150000D02*
X143690000Y-95620000D01*
X145420000Y-95600000D02*
X145420000Y-95170000D01*
X144870000Y-96150000D02*
X145420000Y-95600000D01*
X144220000Y-96150000D02*
X144260000Y-96150000D01*
X144260000Y-96150000D02*
X144870000Y-96150000D01*
X143690000Y-95620000D02*
X144220000Y-96150000D01*
X123770000Y-95750000D02*
X123760000Y-95740000D01*
X123760000Y-95740000D02*
X123760000Y-94410000D01*
X129289300Y-97340000D02*
X129289300Y-96010000D01*
X129299300Y-94720000D02*
X129299300Y-96000000D01*
X129299300Y-96000000D02*
X129289300Y-96010000D01*
X129309300Y-93380000D02*
X129309300Y-94710000D01*
X129309300Y-94710000D02*
X129299300Y-94720000D01*
X129381240Y-108809740D02*
X129381240Y-107371240D01*
X129381240Y-107371240D02*
X129380000Y-107370000D01*
X134980000Y-96160000D02*
X134921840Y-96218160D01*
X134921840Y-96218160D02*
X134921840Y-98190000D01*
X145740000Y-95170000D02*
X145420000Y-95170000D01*
X146490000Y-95920000D02*
X145740000Y-95170000D01*
X131581840Y-103420000D02*
X131581840Y-102733680D01*
X131581840Y-102733680D02*
X130948160Y-102100000D01*
X133730000Y-103290000D02*
X133730000Y-103640000D01*
X136510000Y-103440000D02*
X136510000Y-103290000D01*
X135970000Y-103980000D02*
X136510000Y-103440000D01*
X134070000Y-103980000D02*
X135970000Y-103980000D01*
X133730000Y-103640000D02*
X134070000Y-103980000D01*
X127080000Y-108809740D02*
X126810000Y-108539740D01*
X126810000Y-108539740D02*
X126810000Y-103080260D01*
X126810000Y-103080260D02*
X127080000Y-102810260D01*
X127080000Y-102810260D02*
X127080000Y-100280002D01*
X123290002Y-99780002D02*
X121900000Y-98390000D01*
X126580000Y-99780002D02*
X123290002Y-99780002D01*
X127080000Y-100280002D02*
X126580000Y-99780002D01*
X130070000Y-101290000D02*
X130880000Y-102100000D01*
X130880000Y-102100000D02*
X130948160Y-102100000D01*
X133728160Y-103288160D02*
X133730000Y-103290000D01*
X133728160Y-102100000D02*
X133728160Y-103288160D01*
X136488160Y-103268160D02*
X136510000Y-103290000D01*
X136488160Y-102100000D02*
X136488160Y-103268160D01*
X130070000Y-101920000D02*
X130070000Y-101290000D01*
X129840000Y-102150000D02*
X130070000Y-101920000D01*
X127740260Y-102150000D02*
X129840000Y-102150000D01*
X127080000Y-102810260D02*
X127740260Y-102150000D01*
X132380000Y-103420000D02*
X132510000Y-103290000D01*
X131581840Y-103420000D02*
X132380000Y-103420000D01*
X125150000Y-90510000D02*
X125180700Y-90479300D01*
X125180700Y-90479300D02*
X125180700Y-89520000D01*
X127810700Y-93380000D02*
X126880000Y-93380000D01*
X127790700Y-96010000D02*
X126890000Y-96010000D01*
X125180700Y-91570000D02*
X125180700Y-92569300D01*
X125180700Y-92569300D02*
X125180000Y-92570000D01*
X127800700Y-94720000D02*
X126890000Y-94720000D01*
X126920000Y-96860000D02*
X127310700Y-96860000D01*
X127310700Y-96860000D02*
X127790700Y-97340000D01*
D27*
X123580000Y-114400000D02*
X124480940Y-114400000D01*
X124480940Y-114400000D02*
X125910940Y-112970000D01*
X123580000Y-114400000D02*
X124480940Y-114400000D01*
X123580000Y-114400000D02*
X122920000Y-114400000D01*
X122920000Y-114400000D02*
X121670000Y-113150000D01*
X121670000Y-113150000D02*
X121670000Y-109720000D01*
X121670000Y-109720000D02*
X119720000Y-107770000D01*
X119720000Y-107770000D02*
X119720000Y-105170000D01*
D26*
X134280000Y-97328160D02*
X133418160Y-98190000D01*
X134280000Y-91270000D02*
X134280000Y-97328160D01*
X133650000Y-90640000D02*
X134280000Y-91270000D01*
X133420000Y-98830000D02*
X133418160Y-98828160D01*
X133418160Y-98828160D02*
X133418160Y-98190000D01*
X135231840Y-102100000D02*
X135231840Y-103031840D01*
X135231840Y-103031840D02*
X135510000Y-103310000D01*
X137130000Y-96160000D02*
X137130000Y-92160000D01*
X137140000Y-96170000D02*
X137130000Y-96160000D01*
X135880000Y-101210000D02*
X135880000Y-96190000D01*
X135231840Y-101858160D02*
X135880000Y-101210000D01*
X135231840Y-102100000D02*
X135231840Y-101858160D01*
X135640000Y-92870000D02*
X135640000Y-90460000D01*
X135640000Y-90460000D02*
X136030000Y-90070000D01*
X136030000Y-90070000D02*
X139280000Y-90070000D01*
D28*
X131420000Y-113890000D02*
X131980000Y-113890000D01*
X131980000Y-113890000D02*
X132650000Y-113220000D01*
X132650000Y-113220000D02*
X132650000Y-112700000D01*
X131580000Y-110230000D02*
X133630000Y-110230000D01*
D26*
X135778160Y-112838160D02*
X135180000Y-112838160D01*
X136500000Y-113560000D02*
X135778160Y-112838160D01*
X134508160Y-112838160D02*
X135180000Y-112838160D01*
X134360000Y-112690000D02*
X134508160Y-112838160D01*
X134360000Y-109830000D02*
X134360000Y-112690000D01*
X134200000Y-109670000D02*
X134360000Y-109830000D01*
X134200000Y-105190000D02*
X134200000Y-109670000D01*
X136410000Y-109560000D02*
X136410000Y-110300000D01*
X138590000Y-108770000D02*
X137800000Y-109560000D01*
X137800000Y-109560000D02*
X136410000Y-109560000D01*
X136410000Y-109560000D02*
X135851840Y-110118160D01*
X135851840Y-110118160D02*
X135180000Y-110118160D01*
X136410000Y-107240000D02*
X136261840Y-107388160D01*
X136261840Y-107388160D02*
X135180000Y-107388160D01*
X136490000Y-107160000D02*
X136410000Y-107240000D01*
X136490000Y-104260000D02*
X136490000Y-107160000D01*
X137240000Y-103510000D02*
X136490000Y-104260000D01*
X137240000Y-98890000D02*
X137240000Y-103510000D01*
X137280000Y-98850000D02*
X137240000Y-98890000D01*
X137280000Y-98400000D02*
X137280000Y-98850000D01*
X141621840Y-102258160D02*
X140820000Y-102258160D01*
X141770000Y-102110000D02*
X141621840Y-102258160D01*
X140218160Y-102258160D02*
X140820000Y-102258160D01*
X139980000Y-102020000D02*
X140218160Y-102258160D01*
X139980000Y-100030000D02*
X139980000Y-102020000D01*
X138100000Y-98150000D02*
X139980000Y-100030000D01*
X141558160Y-98958160D02*
X140820000Y-98958160D01*
X141560000Y-98960000D02*
X141558160Y-98958160D01*
X139740000Y-95861840D02*
X139798160Y-95920000D01*
X139798160Y-95920000D02*
X140850000Y-95920000D01*
X142800000Y-95610000D02*
X142800000Y-94020000D01*
X142490000Y-95920000D02*
X142800000Y-95610000D01*
X120650000Y-94870000D02*
X119770000Y-95750000D01*
X120650000Y-93470000D02*
X120650000Y-94870000D01*
X123490000Y-98980000D02*
X122890000Y-98380000D01*
X131730000Y-98980000D02*
X123490000Y-98980000D01*
X132310000Y-99560000D02*
X131730000Y-98980000D01*
X132400000Y-92810000D02*
X133829998Y-94239998D01*
X133829998Y-94239998D02*
X133829998Y-97141764D01*
X133829998Y-97141764D02*
X133601762Y-97370000D01*
X133601762Y-97370000D02*
X132840000Y-97370000D01*
X132840000Y-97370000D02*
X132640000Y-97570000D01*
X132640000Y-97570000D02*
X132640000Y-98970000D01*
X132640000Y-98970000D02*
X133140000Y-99470000D01*
X133140000Y-99470000D02*
X133900000Y-99470000D01*
X134130000Y-89570000D02*
X127540000Y-89570000D01*
X134140000Y-89580000D02*
X134130000Y-89570000D01*
X130320000Y-93400000D02*
X131170000Y-92550000D01*
X131170000Y-92550000D02*
X131630000Y-92090000D01*
X131630000Y-92090000D02*
X132660000Y-92090000D01*
X132660000Y-92090000D02*
X133310000Y-92740000D01*
X133640000Y-91590000D02*
X133620000Y-91570000D01*
X133620000Y-91570000D02*
X127550000Y-91570000D01*
X144631840Y-97670000D02*
X144631840Y-97838160D01*
X144631840Y-97838160D02*
X143890000Y-98580000D01*
X143890000Y-98580000D02*
X142040000Y-98580000D01*
X142040000Y-98580000D02*
X141230000Y-97770000D01*
X141230000Y-97770000D02*
X141230000Y-96710000D01*
X138740000Y-96730000D02*
X138740000Y-93400000D01*
X138740000Y-93400000D02*
X143870000Y-93400000D01*
X143870000Y-93400000D02*
X144550000Y-94080000D01*
X144550000Y-94080000D02*
X144550000Y-95150000D01*
X138130000Y-97340000D02*
X138740000Y-96730000D01*
X138130000Y-92760000D02*
X143480000Y-92760000D01*
X138130000Y-96470000D02*
X138130000Y-92760000D01*
X128250000Y-114930000D02*
X130290000Y-114930000D01*
X127560000Y-114240000D02*
X128250000Y-114930000D01*
X127560000Y-110840000D02*
X127560000Y-114240000D01*
X126810000Y-110090000D02*
X127560000Y-110840000D01*
X123900000Y-110090000D02*
X126810000Y-110090000D01*
X123560000Y-109750000D02*
X123900000Y-110090000D01*
X123560000Y-106240000D02*
X123560000Y-109750000D01*
X123940000Y-105860000D02*
X123560000Y-106240000D01*
X123940000Y-104250000D02*
X123940000Y-105860000D01*
X128550000Y-98340000D02*
X124970000Y-98340000D01*
X128050000Y-111540000D02*
X128950000Y-112440000D01*
X128050000Y-104600000D02*
X128050000Y-111540000D01*
X127770000Y-104320000D02*
X128050000Y-104600000D01*
X136510000Y-89260000D02*
X141460000Y-89260000D01*
X136510000Y-98640000D02*
X136510000Y-90790000D01*
X136550000Y-98680000D02*
X136510000Y-98640000D01*
X141460000Y-89260000D02*
X141460000Y-87330000D01*
X141460000Y-87330000D02*
X141450000Y-87320000D01*
X141450000Y-88050000D02*
X141450000Y-87320000D01*
G36*
X142300000Y-94688143D02*
X141890000Y-94688143D01*
X141756546Y-94714036D01*
X141639253Y-94791086D01*
X141560737Y-94907403D01*
X141533143Y-95045000D01*
X141533143Y-96132066D01*
X141475662Y-96108198D01*
X141499887Y-96049860D01*
X141500112Y-95791274D01*
X141401364Y-95552286D01*
X141218676Y-95369278D01*
X140979860Y-95270113D01*
X140721274Y-95269888D01*
X140580869Y-95327901D01*
X140571344Y-95278806D01*
X140494294Y-95161513D01*
X140377977Y-95082997D01*
X140365721Y-95080539D01*
X140410316Y-95062068D01*
X140494708Y-94977677D01*
X140540380Y-94867414D01*
X140540380Y-94657950D01*
X140465380Y-94582950D01*
X139990190Y-94582950D01*
X139990190Y-94728160D01*
X139489810Y-94728160D01*
X139489810Y-94582950D01*
X139370000Y-94582950D01*
X139370000Y-94133370D01*
X139489810Y-94133370D01*
X139489810Y-93988160D01*
X139990190Y-93988160D01*
X139990190Y-94133370D01*
X140465380Y-94133370D01*
X140540380Y-94058370D01*
X140540380Y-93900000D01*
X142150104Y-93900000D01*
X142149888Y-94148726D01*
X142248636Y-94387714D01*
X142300000Y-94439167D01*
X142300000Y-94688143D01*
X142300000Y-94688143D01*
G37*
X142300000Y-94688143D02*
X141890000Y-94688143D01*
X141756546Y-94714036D01*
X141639253Y-94791086D01*
X141560737Y-94907403D01*
X141533143Y-95045000D01*
X141533143Y-96132066D01*
X141475662Y-96108198D01*
X141499887Y-96049860D01*
X141500112Y-95791274D01*
X141401364Y-95552286D01*
X141218676Y-95369278D01*
X140979860Y-95270113D01*
X140721274Y-95269888D01*
X140580869Y-95327901D01*
X140571344Y-95278806D01*
X140494294Y-95161513D01*
X140377977Y-95082997D01*
X140365721Y-95080539D01*
X140410316Y-95062068D01*
X140494708Y-94977677D01*
X140540380Y-94867414D01*
X140540380Y-94657950D01*
X140465380Y-94582950D01*
X139990190Y-94582950D01*
X139990190Y-94728160D01*
X139489810Y-94728160D01*
X139489810Y-94582950D01*
X139370000Y-94582950D01*
X139370000Y-94133370D01*
X139489810Y-94133370D01*
X139489810Y-93988160D01*
X139990190Y-93988160D01*
X139990190Y-94133370D01*
X140465380Y-94133370D01*
X140540380Y-94058370D01*
X140540380Y-93900000D01*
X142150104Y-93900000D01*
X142149888Y-94148726D01*
X142248636Y-94387714D01*
X142300000Y-94439167D01*
X142300000Y-94688143D01*
G36*
X143498160Y-97920190D02*
X143352950Y-97920190D01*
X143352950Y-98040000D01*
X142903370Y-98040000D01*
X142903370Y-97920190D01*
X142453580Y-97920190D01*
X142378580Y-97995190D01*
X142378580Y-98080000D01*
X142247106Y-98080000D01*
X141730000Y-97562894D01*
X141730000Y-97129309D01*
X141742053Y-97117276D01*
X141752403Y-97124263D01*
X141890000Y-97151857D01*
X142378580Y-97151857D01*
X142378580Y-97229294D01*
X142378580Y-97344810D01*
X142453580Y-97419810D01*
X142903370Y-97419810D01*
X142903370Y-97300000D01*
X143352950Y-97300000D01*
X143352950Y-97419810D01*
X143498160Y-97419810D01*
X143498160Y-97920190D01*
X143498160Y-97920190D01*
G37*
X143498160Y-97920190D02*
X143352950Y-97920190D01*
X143352950Y-98040000D01*
X142903370Y-98040000D01*
X142903370Y-97920190D01*
X142453580Y-97920190D01*
X142378580Y-97995190D01*
X142378580Y-98080000D01*
X142247106Y-98080000D01*
X141730000Y-97562894D01*
X141730000Y-97129309D01*
X141742053Y-97117276D01*
X141752403Y-97124263D01*
X141890000Y-97151857D01*
X142378580Y-97151857D01*
X142378580Y-97229294D01*
X142378580Y-97344810D01*
X142453580Y-97419810D01*
X142903370Y-97419810D01*
X142903370Y-97300000D01*
X143352950Y-97300000D01*
X143352950Y-97419810D01*
X143498160Y-97419810D01*
X143498160Y-97920190D01*
G36*
X148420000Y-121110000D02*
X148000321Y-121110000D01*
X148000321Y-118833627D01*
X148000321Y-109093627D01*
X147719268Y-108413428D01*
X147446857Y-108140541D01*
X147446857Y-90295000D01*
X147446857Y-88545000D01*
X147420964Y-88411546D01*
X147343914Y-88294253D01*
X147227597Y-88215737D01*
X147109859Y-88192125D01*
X147281907Y-88041923D01*
X147444298Y-87714473D01*
X147444298Y-86725527D01*
X147281907Y-86398077D01*
X147006567Y-86157697D01*
X147000644Y-86139153D01*
X146865000Y-86157596D01*
X146865000Y-86870000D01*
X147396409Y-86870000D01*
X147444298Y-86725527D01*
X147444298Y-87714473D01*
X147396409Y-87570000D01*
X146865000Y-87570000D01*
X146865000Y-87590000D01*
X146215000Y-87590000D01*
X146215000Y-87570000D01*
X146215000Y-86870000D01*
X146215000Y-86157596D01*
X146079356Y-86139153D01*
X146073433Y-86157697D01*
X145798093Y-86398077D01*
X145635702Y-86725527D01*
X145683591Y-86870000D01*
X146215000Y-86870000D01*
X146215000Y-87570000D01*
X145683591Y-87570000D01*
X145635702Y-87714473D01*
X145798093Y-88041923D01*
X145965578Y-88188143D01*
X145890000Y-88188143D01*
X145756546Y-88214036D01*
X145639253Y-88291086D01*
X145560737Y-88407403D01*
X145533143Y-88545000D01*
X145533143Y-90295000D01*
X145559036Y-90428454D01*
X145636086Y-90545747D01*
X145752403Y-90624263D01*
X145890000Y-90651857D01*
X147090000Y-90651857D01*
X147223454Y-90625964D01*
X147340747Y-90548914D01*
X147419263Y-90432597D01*
X147446857Y-90295000D01*
X147446857Y-108140541D01*
X147390000Y-108083585D01*
X147390000Y-96854674D01*
X147390000Y-96345000D01*
X147390000Y-95495000D01*
X147390000Y-94985326D01*
X147344328Y-94875063D01*
X147259936Y-94790672D01*
X147149673Y-94745000D01*
X147030326Y-94745000D01*
X146865000Y-94745000D01*
X146790000Y-94820000D01*
X146790000Y-95570000D01*
X147315000Y-95570000D01*
X147390000Y-95495000D01*
X147390000Y-96345000D01*
X147315000Y-96270000D01*
X146790000Y-96270000D01*
X146790000Y-97020000D01*
X146865000Y-97095000D01*
X147030326Y-97095000D01*
X147149673Y-97095000D01*
X147259936Y-97049328D01*
X147344328Y-96964937D01*
X147390000Y-96854674D01*
X147390000Y-108083585D01*
X147199309Y-107892561D01*
X146519602Y-107610321D01*
X146190000Y-107610033D01*
X146190000Y-97020000D01*
X146190000Y-96270000D01*
X146190000Y-95570000D01*
X146190000Y-94820000D01*
X146115000Y-94745000D01*
X145949674Y-94745000D01*
X145830327Y-94745000D01*
X145720064Y-94790672D01*
X145635672Y-94875063D01*
X145590000Y-94985326D01*
X145590000Y-95495000D01*
X145665000Y-95570000D01*
X146190000Y-95570000D01*
X146190000Y-96270000D01*
X145665000Y-96270000D01*
X145590000Y-96345000D01*
X145590000Y-96854674D01*
X145635672Y-96964937D01*
X145720064Y-97049328D01*
X145830327Y-97095000D01*
X145949674Y-97095000D01*
X146115000Y-97095000D01*
X146190000Y-97020000D01*
X146190000Y-107610033D01*
X145783627Y-107609679D01*
X145103428Y-107890732D01*
X144582561Y-108410691D01*
X144300321Y-109090398D01*
X144299679Y-109826373D01*
X144580732Y-110506572D01*
X145100691Y-111027439D01*
X145780398Y-111309679D01*
X146516373Y-111310321D01*
X147196572Y-111029268D01*
X147717439Y-110509309D01*
X147999679Y-109829602D01*
X148000321Y-109093627D01*
X148000321Y-118833627D01*
X147719268Y-118153428D01*
X147199309Y-117632561D01*
X146519602Y-117350321D01*
X145783627Y-117349679D01*
X145103428Y-117630732D01*
X144582561Y-118150691D01*
X144300321Y-118830398D01*
X144299679Y-119566373D01*
X144580732Y-120246572D01*
X145100691Y-120767439D01*
X145780398Y-121049679D01*
X146516373Y-121050321D01*
X147196572Y-120769268D01*
X147717439Y-120249309D01*
X147999679Y-119569602D01*
X148000321Y-118833627D01*
X148000321Y-121110000D01*
X144130000Y-121110000D01*
X144130000Y-107660000D01*
X144065298Y-107334719D01*
X143881041Y-107058959D01*
X143605281Y-106874702D01*
X143280000Y-106810000D01*
X142954719Y-106874702D01*
X142678959Y-107058959D01*
X141620380Y-108117538D01*
X141620380Y-104271094D01*
X141620380Y-104061630D01*
X141545380Y-103986630D01*
X141070190Y-103986630D01*
X141070190Y-104436420D01*
X141145190Y-104511420D01*
X141260706Y-104511420D01*
X141380053Y-104511420D01*
X141490316Y-104465748D01*
X141574708Y-104381357D01*
X141620380Y-104271094D01*
X141620380Y-108117538D01*
X140618959Y-109118959D01*
X140569810Y-109192515D01*
X140569810Y-104436420D01*
X140569810Y-103986630D01*
X140094620Y-103986630D01*
X140019620Y-104061630D01*
X140019620Y-104271094D01*
X140065292Y-104381357D01*
X140149684Y-104465748D01*
X140259947Y-104511420D01*
X140379294Y-104511420D01*
X140494810Y-104511420D01*
X140569810Y-104436420D01*
X140569810Y-109192515D01*
X140434702Y-109394719D01*
X140370000Y-109720000D01*
X140370000Y-112970000D01*
X140434702Y-113295281D01*
X140618959Y-113571041D01*
X140894719Y-113755298D01*
X141220000Y-113820000D01*
X141545281Y-113755298D01*
X141821041Y-113571041D01*
X142005298Y-113295281D01*
X142070000Y-112970000D01*
X142070000Y-110072082D01*
X143881041Y-108261041D01*
X144065298Y-107985281D01*
X144130000Y-107660000D01*
X144130000Y-121110000D01*
X135980380Y-121110000D01*
X135980380Y-114851094D01*
X135980380Y-114641630D01*
X135905380Y-114566630D01*
X135430190Y-114566630D01*
X135430190Y-115016420D01*
X135505190Y-115091420D01*
X135620706Y-115091420D01*
X135740053Y-115091420D01*
X135850316Y-115045748D01*
X135934708Y-114961357D01*
X135980380Y-114851094D01*
X135980380Y-121110000D01*
X135350321Y-121110000D01*
X135350321Y-118833627D01*
X135069268Y-118153428D01*
X134929810Y-118013726D01*
X134929810Y-115016420D01*
X134929810Y-114566630D01*
X134454620Y-114566630D01*
X134379620Y-114641630D01*
X134379620Y-114851094D01*
X134425292Y-114961357D01*
X134509684Y-115045748D01*
X134619947Y-115091420D01*
X134739294Y-115091420D01*
X134854810Y-115091420D01*
X134929810Y-115016420D01*
X134929810Y-118013726D01*
X134549309Y-117632561D01*
X133869602Y-117350321D01*
X133400000Y-117349911D01*
X133400000Y-113220000D01*
X133400000Y-112700000D01*
X133342910Y-112412987D01*
X133180330Y-112169670D01*
X132937013Y-112007090D01*
X132650000Y-111950000D01*
X132362987Y-112007090D01*
X132119670Y-112169670D01*
X131957090Y-112412987D01*
X131900000Y-112700000D01*
X131900000Y-112909340D01*
X131669340Y-113140000D01*
X131420000Y-113140000D01*
X131132987Y-113197090D01*
X130889670Y-113359670D01*
X130727090Y-113602987D01*
X130670000Y-113890000D01*
X130727090Y-114177013D01*
X130889670Y-114420330D01*
X131132987Y-114582910D01*
X131420000Y-114640000D01*
X131980000Y-114640000D01*
X132267013Y-114582910D01*
X132510330Y-114420330D01*
X133180330Y-113750330D01*
X133342910Y-113507013D01*
X133400000Y-113220000D01*
X133400000Y-117349911D01*
X133133627Y-117349679D01*
X132453428Y-117630732D01*
X131932561Y-118150691D01*
X131650321Y-118830398D01*
X131649679Y-119566373D01*
X131930732Y-120246572D01*
X132450691Y-120767439D01*
X133130398Y-121049679D01*
X133866373Y-121050321D01*
X134546572Y-120769268D01*
X135067439Y-120249309D01*
X135349679Y-119569602D01*
X135350321Y-118833627D01*
X135350321Y-121110000D01*
X125342189Y-121110000D01*
X125342189Y-118812444D01*
X125342189Y-117729516D01*
X125327245Y-117599589D01*
X124981531Y-117204347D01*
X124510880Y-116971490D01*
X123510120Y-116971490D01*
X123510120Y-117920980D01*
X125334283Y-117920980D01*
X125342189Y-117729516D01*
X125342189Y-118812444D01*
X125334283Y-118620980D01*
X123510120Y-118620980D01*
X123510120Y-119570470D01*
X124510880Y-119570470D01*
X124981531Y-119337613D01*
X125327245Y-118942371D01*
X125342189Y-118812444D01*
X125342189Y-121110000D01*
X122810120Y-121110000D01*
X122810120Y-119570470D01*
X122810120Y-118620980D01*
X122810120Y-117920980D01*
X122810120Y-116971490D01*
X121809360Y-116971490D01*
X121338709Y-117204347D01*
X120992995Y-117599589D01*
X120978051Y-117729516D01*
X120985957Y-117920980D01*
X122810120Y-117920980D01*
X122810120Y-118620980D01*
X120985957Y-118620980D01*
X120978051Y-118812444D01*
X120992995Y-118942371D01*
X121338709Y-119337613D01*
X121809360Y-119570470D01*
X122810120Y-119570470D01*
X122810120Y-121110000D01*
X119558920Y-121110000D01*
X119558920Y-115144163D01*
X119558920Y-113320000D01*
X119558920Y-112620000D01*
X119558920Y-110795837D01*
X119367456Y-110787931D01*
X119237529Y-110802875D01*
X118842287Y-111148589D01*
X118609430Y-111619240D01*
X118609430Y-112620000D01*
X119558920Y-112620000D01*
X119558920Y-113320000D01*
X118609430Y-113320000D01*
X118609430Y-114320760D01*
X118842287Y-114791411D01*
X119237529Y-115137125D01*
X119367456Y-115152069D01*
X119558920Y-115144163D01*
X119558920Y-121110000D01*
X118300000Y-121110000D01*
X118300000Y-106081870D01*
X118366266Y-106182747D01*
X118482583Y-106261263D01*
X118620180Y-106288857D01*
X118770000Y-106288857D01*
X118770000Y-107770000D01*
X118830316Y-108073233D01*
X118842314Y-108133550D01*
X119048249Y-108441751D01*
X120720000Y-110113502D01*
X120720000Y-110925059D01*
X120580311Y-110802875D01*
X120450384Y-110787931D01*
X120258920Y-110795837D01*
X120258920Y-112620000D01*
X120278920Y-112620000D01*
X120278920Y-113320000D01*
X120258920Y-113320000D01*
X120258920Y-115144163D01*
X120450384Y-115152069D01*
X120580311Y-115137125D01*
X120975553Y-114791411D01*
X121208410Y-114320760D01*
X121208410Y-114031912D01*
X122123323Y-114946825D01*
X122123323Y-115162000D01*
X122149216Y-115295454D01*
X122226266Y-115412747D01*
X122342583Y-115491263D01*
X122480180Y-115518857D01*
X124679820Y-115518857D01*
X124813274Y-115492964D01*
X124930567Y-115415914D01*
X125009083Y-115299597D01*
X125015886Y-115265672D01*
X125394513Y-115518662D01*
X125910940Y-115621386D01*
X126427367Y-115518662D01*
X126865174Y-115226130D01*
X127157706Y-114788323D01*
X127198741Y-114582021D01*
X127206447Y-114593553D01*
X127896446Y-115283553D01*
X127896447Y-115283553D01*
X128058658Y-115391940D01*
X128250000Y-115430000D01*
X129870690Y-115430000D01*
X129921324Y-115480722D01*
X130160140Y-115579887D01*
X130418726Y-115580112D01*
X130657714Y-115481364D01*
X130840722Y-115298676D01*
X130939887Y-115059860D01*
X130940112Y-114801274D01*
X130841364Y-114562286D01*
X130658676Y-114379278D01*
X130419860Y-114280113D01*
X130331480Y-114280036D01*
X130331480Y-109769843D01*
X130331480Y-109650496D01*
X130331480Y-109234740D01*
X130331480Y-108384740D01*
X130331480Y-107968984D01*
X130331480Y-107849637D01*
X130285808Y-107739374D01*
X130201417Y-107654982D01*
X130091154Y-107609310D01*
X129781360Y-107609310D01*
X129706360Y-107684310D01*
X129706360Y-108459740D01*
X130256480Y-108459740D01*
X130331480Y-108384740D01*
X130331480Y-109234740D01*
X130256480Y-109159740D01*
X129706360Y-109159740D01*
X129706360Y-109935170D01*
X129781360Y-110010170D01*
X130091154Y-110010170D01*
X130201417Y-109964498D01*
X130285808Y-109880106D01*
X130331480Y-109769843D01*
X130331480Y-114280036D01*
X130161274Y-114279888D01*
X129922286Y-114378636D01*
X129870832Y-114430000D01*
X128457106Y-114430000D01*
X128060000Y-114032893D01*
X128060000Y-112257106D01*
X128299950Y-112497057D01*
X128299888Y-112568726D01*
X128398636Y-112807714D01*
X128581324Y-112990722D01*
X128820140Y-113089887D01*
X129078726Y-113090112D01*
X129317714Y-112991364D01*
X129500722Y-112808676D01*
X129599887Y-112569860D01*
X129600112Y-112311274D01*
X129501364Y-112072286D01*
X129318676Y-111889278D01*
X129079860Y-111790113D01*
X129007156Y-111790049D01*
X128550000Y-111332893D01*
X128550000Y-109953434D01*
X128561063Y-109964498D01*
X128671326Y-110010170D01*
X128981120Y-110010170D01*
X129056120Y-109935170D01*
X129056120Y-109159740D01*
X129011240Y-109159740D01*
X129011240Y-108459740D01*
X129056120Y-108459740D01*
X129056120Y-107684310D01*
X128981120Y-107609310D01*
X128671326Y-107609310D01*
X128561063Y-107654982D01*
X128550000Y-107666045D01*
X128550000Y-104600000D01*
X128511940Y-104408658D01*
X128420042Y-104271123D01*
X128420112Y-104191274D01*
X128368988Y-104067547D01*
X128979920Y-104067547D01*
X129113374Y-104041654D01*
X129230667Y-103964604D01*
X129309183Y-103848287D01*
X129328580Y-103751564D01*
X129328580Y-103770002D01*
X129328580Y-103860706D01*
X129328580Y-103980053D01*
X129374252Y-104090316D01*
X129458643Y-104174708D01*
X129568906Y-104220380D01*
X129778370Y-104220380D01*
X129853370Y-104145380D01*
X129853370Y-103670190D01*
X129708160Y-103670190D01*
X129708160Y-103169810D01*
X129853370Y-103169810D01*
X129853370Y-102694620D01*
X129808750Y-102650000D01*
X129840000Y-102650000D01*
X129840000Y-102649999D01*
X130031342Y-102611940D01*
X130141723Y-102538185D01*
X130141723Y-102600380D01*
X130167616Y-102733834D01*
X130244666Y-102851127D01*
X130302950Y-102890469D01*
X130302950Y-103169810D01*
X130448160Y-103169810D01*
X130448160Y-103670190D01*
X130302950Y-103670190D01*
X130302950Y-104145380D01*
X130377950Y-104220380D01*
X130587414Y-104220380D01*
X130697677Y-104174708D01*
X130782068Y-104090316D01*
X130799982Y-104047065D01*
X130801296Y-104053834D01*
X130878346Y-104171127D01*
X130994663Y-104249643D01*
X131132260Y-104277237D01*
X132031420Y-104277237D01*
X132164874Y-104251344D01*
X132282167Y-104174294D01*
X132360683Y-104057977D01*
X132384364Y-103939890D01*
X132638726Y-103940112D01*
X132877714Y-103841364D01*
X133060722Y-103658676D01*
X133120023Y-103515861D01*
X133178636Y-103657714D01*
X133247181Y-103726379D01*
X133247182Y-103726380D01*
X133268060Y-103831342D01*
X133376447Y-103993553D01*
X133716447Y-104333554D01*
X133813685Y-104398526D01*
X133878658Y-104441940D01*
X133878659Y-104441940D01*
X134070000Y-104480000D01*
X135970000Y-104480000D01*
X135970000Y-104479999D01*
X135990000Y-104476021D01*
X135990000Y-106740830D01*
X135977382Y-106753426D01*
X135934294Y-106687833D01*
X135817977Y-106609317D01*
X135680380Y-106581723D01*
X134700000Y-106581723D01*
X134700000Y-105609309D01*
X134750722Y-105558676D01*
X134849887Y-105319860D01*
X134850112Y-105061274D01*
X134751364Y-104822286D01*
X134568676Y-104639278D01*
X134329860Y-104540113D01*
X134071274Y-104539888D01*
X133832286Y-104638636D01*
X133649278Y-104821324D01*
X133550113Y-105060140D01*
X133549888Y-105318726D01*
X133648636Y-105557714D01*
X133700000Y-105609167D01*
X133700000Y-109493923D01*
X133630000Y-109480000D01*
X131580000Y-109480000D01*
X131292987Y-109537090D01*
X131049670Y-109699670D01*
X130887090Y-109942987D01*
X130830000Y-110230000D01*
X130887090Y-110517013D01*
X131049670Y-110760330D01*
X131292987Y-110922910D01*
X131580000Y-110980000D01*
X133630000Y-110980000D01*
X133860000Y-110934250D01*
X133860000Y-112690000D01*
X133898060Y-112881342D01*
X134006447Y-113043553D01*
X134154607Y-113191713D01*
X134316818Y-113300100D01*
X134325496Y-113301826D01*
X134348656Y-113421194D01*
X134425706Y-113538487D01*
X134542023Y-113617003D01*
X134554278Y-113619460D01*
X134509684Y-113637932D01*
X134425292Y-113722323D01*
X134379620Y-113832586D01*
X134379620Y-114042050D01*
X134454620Y-114117050D01*
X134929810Y-114117050D01*
X134929810Y-113971840D01*
X135430190Y-113971840D01*
X135430190Y-114117050D01*
X135905380Y-114117050D01*
X135980380Y-114042050D01*
X135980380Y-113959513D01*
X136131324Y-114110722D01*
X136370140Y-114209887D01*
X136628726Y-114210112D01*
X136867714Y-114111364D01*
X137050722Y-113928676D01*
X137149887Y-113689860D01*
X137150112Y-113431274D01*
X137051364Y-113192286D01*
X136868676Y-113009278D01*
X136629860Y-112910113D01*
X136557155Y-112910049D01*
X136131713Y-112484607D01*
X136037237Y-112421479D01*
X136037237Y-112388580D01*
X136011344Y-112255126D01*
X135960846Y-112178253D01*
X135980380Y-112131094D01*
X135980380Y-111921630D01*
X135905380Y-111846630D01*
X135430190Y-111846630D01*
X135430190Y-111991840D01*
X134929810Y-111991840D01*
X134929810Y-111846630D01*
X134860000Y-111846630D01*
X134860000Y-111397050D01*
X134929810Y-111397050D01*
X134929810Y-111251840D01*
X135430190Y-111251840D01*
X135430190Y-111397050D01*
X135905380Y-111397050D01*
X135980380Y-111322050D01*
X135980380Y-111112586D01*
X135934708Y-111002323D01*
X135850316Y-110917932D01*
X135807065Y-110900017D01*
X135813834Y-110898704D01*
X135931127Y-110821654D01*
X135963875Y-110773138D01*
X136041324Y-110850722D01*
X136280140Y-110949887D01*
X136538726Y-110950112D01*
X136777714Y-110851364D01*
X136960722Y-110668676D01*
X137059887Y-110429860D01*
X137060112Y-110171274D01*
X137014134Y-110060000D01*
X137800000Y-110060000D01*
X137800000Y-110059999D01*
X137991342Y-110021940D01*
X138153553Y-109913553D01*
X138647056Y-109420049D01*
X138718726Y-109420112D01*
X138957714Y-109321364D01*
X139140722Y-109138676D01*
X139239887Y-108899860D01*
X139240112Y-108641274D01*
X139141364Y-108402286D01*
X138958676Y-108219278D01*
X138741420Y-108129065D01*
X138741420Y-102660053D01*
X138741420Y-102540706D01*
X138741420Y-102425190D01*
X138741420Y-101774810D01*
X138741420Y-101659294D01*
X138741420Y-101539947D01*
X138695748Y-101429684D01*
X138611357Y-101345292D01*
X138501094Y-101299620D01*
X138291630Y-101299620D01*
X138216630Y-101374620D01*
X138216630Y-101849810D01*
X138666420Y-101849810D01*
X138741420Y-101774810D01*
X138741420Y-102425190D01*
X138666420Y-102350190D01*
X138216630Y-102350190D01*
X138216630Y-102825380D01*
X138291630Y-102900380D01*
X138501094Y-102900380D01*
X138611357Y-102854708D01*
X138695748Y-102770316D01*
X138741420Y-102660053D01*
X138741420Y-108129065D01*
X138719860Y-108120113D01*
X138461274Y-108119888D01*
X138222286Y-108218636D01*
X138039278Y-108401324D01*
X137940113Y-108640140D01*
X137940049Y-108712843D01*
X137592893Y-109060000D01*
X136410000Y-109060000D01*
X136218658Y-109098060D01*
X136056446Y-109206447D01*
X135980380Y-109282513D01*
X135980380Y-109191630D01*
X135905380Y-109116630D01*
X135430190Y-109116630D01*
X135430190Y-109261840D01*
X134929810Y-109261840D01*
X134929810Y-109116630D01*
X134810000Y-109116630D01*
X134810000Y-108667050D01*
X134929810Y-108667050D01*
X134929810Y-108521840D01*
X135430190Y-108521840D01*
X135430190Y-108667050D01*
X135905380Y-108667050D01*
X135980380Y-108592050D01*
X135980380Y-108382586D01*
X135934708Y-108272323D01*
X135850316Y-108187932D01*
X135807065Y-108170017D01*
X135813834Y-108168704D01*
X135931127Y-108091654D01*
X136009643Y-107975337D01*
X136027125Y-107888160D01*
X136261840Y-107888160D01*
X136261840Y-107888159D01*
X136271400Y-107886258D01*
X136280140Y-107889887D01*
X136538726Y-107890112D01*
X136777714Y-107791364D01*
X136960722Y-107608676D01*
X137059887Y-107369860D01*
X137060112Y-107111274D01*
X136990000Y-106941590D01*
X136990000Y-104467106D01*
X137593553Y-103863554D01*
X137593553Y-103863553D01*
X137701940Y-103701342D01*
X137739999Y-103510000D01*
X137740000Y-103510000D01*
X137740000Y-102852430D01*
X137767050Y-102825380D01*
X137767050Y-102350190D01*
X137740000Y-102350190D01*
X137740000Y-101849810D01*
X137767050Y-101849810D01*
X137767050Y-101374620D01*
X137740000Y-101347570D01*
X137740000Y-99044245D01*
X137740000Y-99044244D01*
X137741940Y-99041342D01*
X137741940Y-99041341D01*
X137780000Y-98850000D01*
X137780000Y-98819309D01*
X137830722Y-98768676D01*
X137840171Y-98745919D01*
X137970140Y-98799887D01*
X138042844Y-98799950D01*
X139480000Y-100237106D01*
X139480000Y-102020000D01*
X139518060Y-102211342D01*
X139626447Y-102373553D01*
X139864607Y-102611713D01*
X139962763Y-102677299D01*
X139962763Y-102707740D01*
X139988656Y-102841194D01*
X140065706Y-102958487D01*
X140182023Y-103037003D01*
X140194278Y-103039460D01*
X140149684Y-103057932D01*
X140065292Y-103142323D01*
X140019620Y-103252586D01*
X140019620Y-103462050D01*
X140094620Y-103537050D01*
X140569810Y-103537050D01*
X140569810Y-103391840D01*
X141070190Y-103391840D01*
X141070190Y-103537050D01*
X141545380Y-103537050D01*
X141620380Y-103462050D01*
X141620380Y-103252586D01*
X141574708Y-103142323D01*
X141490316Y-103057932D01*
X141447065Y-103040017D01*
X141453834Y-103038704D01*
X141571127Y-102961654D01*
X141649643Y-102845337D01*
X141666774Y-102759910D01*
X141898726Y-102760112D01*
X142137714Y-102661364D01*
X142320722Y-102478676D01*
X142419887Y-102239860D01*
X142420112Y-101981274D01*
X142321364Y-101742286D01*
X142138676Y-101559278D01*
X141899860Y-101460113D01*
X141641274Y-101459888D01*
X141620380Y-101468521D01*
X141620380Y-100971094D01*
X141620380Y-100761630D01*
X141545380Y-100686630D01*
X141070190Y-100686630D01*
X141070190Y-101136420D01*
X141145190Y-101211420D01*
X141260706Y-101211420D01*
X141380053Y-101211420D01*
X141490316Y-101165748D01*
X141574708Y-101081357D01*
X141620380Y-100971094D01*
X141620380Y-101468521D01*
X141509720Y-101514244D01*
X141457977Y-101479317D01*
X141320380Y-101451723D01*
X140480000Y-101451723D01*
X140480000Y-101211420D01*
X140494810Y-101211420D01*
X140569810Y-101136420D01*
X140569810Y-100686630D01*
X140480000Y-100686630D01*
X140480000Y-100237050D01*
X140569810Y-100237050D01*
X140569810Y-100091840D01*
X141070190Y-100091840D01*
X141070190Y-100237050D01*
X141545380Y-100237050D01*
X141620380Y-100162050D01*
X141620380Y-99952586D01*
X141574708Y-99842323D01*
X141490316Y-99757932D01*
X141447065Y-99740017D01*
X141453834Y-99738704D01*
X141571127Y-99661654D01*
X141605967Y-99610039D01*
X141688726Y-99610112D01*
X141927714Y-99511364D01*
X142110722Y-99328676D01*
X142209887Y-99089860D01*
X142209895Y-99080000D01*
X143890000Y-99080000D01*
X143890000Y-99079999D01*
X144081342Y-99041940D01*
X144243553Y-98933553D01*
X144649869Y-98527237D01*
X145081420Y-98527237D01*
X145214874Y-98501344D01*
X145332167Y-98424294D01*
X145410683Y-98307977D01*
X145438277Y-98170380D01*
X145438277Y-97169620D01*
X145412384Y-97036166D01*
X145335334Y-96918873D01*
X145219017Y-96840357D01*
X145081420Y-96812763D01*
X144182260Y-96812763D01*
X144048806Y-96838656D01*
X143931513Y-96915706D01*
X143852997Y-97032023D01*
X143850539Y-97044278D01*
X143832068Y-96999684D01*
X143747677Y-96915292D01*
X143637414Y-96869620D01*
X143478162Y-96869620D01*
X143431892Y-96869620D01*
X143446857Y-96795000D01*
X143446857Y-95045000D01*
X143420964Y-94911546D01*
X143343914Y-94794253D01*
X143300000Y-94764610D01*
X143300000Y-94439309D01*
X143350722Y-94388676D01*
X143449887Y-94149860D01*
X143450104Y-93900000D01*
X143662893Y-93900000D01*
X144050000Y-94287106D01*
X144050000Y-94730690D01*
X143999278Y-94781324D01*
X143900113Y-95020140D01*
X143899888Y-95278726D01*
X143998636Y-95517714D01*
X144181324Y-95700722D01*
X144420140Y-95799887D01*
X144678726Y-95800112D01*
X144917714Y-95701364D01*
X145100722Y-95518676D01*
X145199887Y-95279860D01*
X145200112Y-95021274D01*
X145101364Y-94782286D01*
X145050000Y-94730832D01*
X145050000Y-94080000D01*
X145011940Y-93888658D01*
X144903553Y-93726447D01*
X144903553Y-93726446D01*
X144223553Y-93046447D01*
X144099332Y-92963444D01*
X144129887Y-92889860D01*
X144130112Y-92631274D01*
X144031364Y-92392286D01*
X143848676Y-92209278D01*
X143609860Y-92110113D01*
X143351274Y-92109888D01*
X143112286Y-92208636D01*
X143060832Y-92260000D01*
X138130000Y-92260000D01*
X137938658Y-92298060D01*
X137776447Y-92406447D01*
X137668060Y-92568658D01*
X137630000Y-92760000D01*
X137630000Y-92579309D01*
X137680722Y-92528676D01*
X137779887Y-92289860D01*
X137780112Y-92031274D01*
X137681364Y-91792286D01*
X137498676Y-91609278D01*
X137259860Y-91510113D01*
X137010000Y-91509895D01*
X137010000Y-91209309D01*
X137060722Y-91158676D01*
X137159887Y-90919860D01*
X137160112Y-90661274D01*
X137122398Y-90570000D01*
X138860690Y-90570000D01*
X138911324Y-90620722D01*
X139150140Y-90719887D01*
X139408726Y-90720112D01*
X139647714Y-90621364D01*
X139830722Y-90438676D01*
X139929887Y-90199860D01*
X139930112Y-89941274D01*
X139855210Y-89760000D01*
X141460000Y-89760000D01*
X141533143Y-89745451D01*
X141533143Y-90295000D01*
X141559036Y-90428454D01*
X141636086Y-90545747D01*
X141752403Y-90624263D01*
X141890000Y-90651857D01*
X143090000Y-90651857D01*
X143223454Y-90625964D01*
X143340747Y-90548914D01*
X143419263Y-90432597D01*
X143446857Y-90295000D01*
X143446857Y-88545000D01*
X143420964Y-88411546D01*
X143343914Y-88294253D01*
X143227597Y-88215737D01*
X143090000Y-88188143D01*
X142256095Y-88188143D01*
X142463880Y-87877172D01*
X142540000Y-87494489D01*
X142540000Y-86945511D01*
X142463880Y-86562828D01*
X142247107Y-86238404D01*
X141922683Y-86021631D01*
X141540000Y-85945511D01*
X141157317Y-86021631D01*
X140832893Y-86238404D01*
X140616120Y-86562828D01*
X140540000Y-86945511D01*
X140540000Y-87494489D01*
X140616120Y-87877172D01*
X140832893Y-88201596D01*
X140960000Y-88286526D01*
X140960000Y-88760000D01*
X139064298Y-88760000D01*
X139064298Y-87714473D01*
X139064298Y-86725527D01*
X138901907Y-86398077D01*
X138626567Y-86157697D01*
X138620644Y-86139153D01*
X138485000Y-86157596D01*
X138485000Y-86870000D01*
X139016409Y-86870000D01*
X139064298Y-86725527D01*
X139064298Y-87714473D01*
X139016409Y-87570000D01*
X138485000Y-87570000D01*
X138485000Y-88282404D01*
X138620644Y-88300847D01*
X138626567Y-88282303D01*
X138901907Y-88041923D01*
X139064298Y-87714473D01*
X139064298Y-88760000D01*
X137835000Y-88760000D01*
X137835000Y-88282404D01*
X137835000Y-87570000D01*
X137790000Y-87570000D01*
X137790000Y-86870000D01*
X137835000Y-86870000D01*
X137835000Y-86157596D01*
X137699356Y-86139153D01*
X137693433Y-86157697D01*
X137418093Y-86398077D01*
X137390701Y-86453309D01*
X137247107Y-86238404D01*
X136922683Y-86021631D01*
X136540000Y-85945511D01*
X136157317Y-86021631D01*
X135832893Y-86238404D01*
X135616120Y-86562828D01*
X135540000Y-86945511D01*
X135540000Y-87494489D01*
X135616120Y-87877172D01*
X135832893Y-88201596D01*
X136157317Y-88418369D01*
X136540000Y-88494489D01*
X136922683Y-88418369D01*
X137247107Y-88201596D01*
X137390701Y-87986690D01*
X137418093Y-88041923D01*
X137693433Y-88282303D01*
X137699356Y-88300847D01*
X137835000Y-88282404D01*
X137835000Y-88760000D01*
X136929309Y-88760000D01*
X136878676Y-88709278D01*
X136639860Y-88610113D01*
X136381274Y-88609888D01*
X136142286Y-88708636D01*
X135959278Y-88891324D01*
X135860113Y-89130140D01*
X135859888Y-89388726D01*
X135942019Y-89587500D01*
X135838658Y-89608060D01*
X135676446Y-89716447D01*
X135286447Y-90106447D01*
X135178060Y-90268658D01*
X135140000Y-90460000D01*
X135140000Y-92450690D01*
X135089278Y-92501324D01*
X134990113Y-92740140D01*
X134989888Y-92998726D01*
X135088636Y-93237714D01*
X135271324Y-93420722D01*
X135510140Y-93519887D01*
X135768726Y-93520112D01*
X136007714Y-93421364D01*
X136010000Y-93419081D01*
X136010000Y-95540171D01*
X136009860Y-95540113D01*
X135751274Y-95539888D01*
X135512286Y-95638636D01*
X135329278Y-95821324D01*
X135230113Y-96060140D01*
X135229888Y-96318726D01*
X135328636Y-96557714D01*
X135380000Y-96609167D01*
X135380000Y-97389620D01*
X135221630Y-97389620D01*
X135146630Y-97464620D01*
X135146630Y-97939810D01*
X135291840Y-97939810D01*
X135291840Y-98440190D01*
X135146630Y-98440190D01*
X135146630Y-98915380D01*
X135221630Y-98990380D01*
X135380000Y-98990380D01*
X135380000Y-101002893D01*
X135140130Y-101242763D01*
X134782260Y-101242763D01*
X134648806Y-101268656D01*
X134531513Y-101345706D01*
X134479850Y-101422241D01*
X134431654Y-101348873D01*
X134315337Y-101270357D01*
X134177740Y-101242763D01*
X133278580Y-101242763D01*
X133145126Y-101268656D01*
X133045050Y-101334395D01*
X132961094Y-101299620D01*
X132751630Y-101299620D01*
X132676630Y-101374620D01*
X132676630Y-101849810D01*
X132821840Y-101849810D01*
X132821840Y-102350190D01*
X132676630Y-102350190D01*
X132676630Y-102470000D01*
X132227050Y-102470000D01*
X132227050Y-102350190D01*
X132081840Y-102350190D01*
X132081840Y-101849810D01*
X132227050Y-101849810D01*
X132227050Y-101374620D01*
X132152050Y-101299620D01*
X131942586Y-101299620D01*
X131832323Y-101345292D01*
X131747932Y-101429684D01*
X131730017Y-101472934D01*
X131728704Y-101466166D01*
X131651654Y-101348873D01*
X131535337Y-101270357D01*
X131397740Y-101242763D01*
X130729869Y-101242763D01*
X130720049Y-101232943D01*
X130720112Y-101161274D01*
X130621364Y-100922286D01*
X130438676Y-100739278D01*
X130199860Y-100640113D01*
X129941274Y-100639888D01*
X129702286Y-100738636D01*
X129519278Y-100921324D01*
X129420113Y-101160140D01*
X129419888Y-101418726D01*
X129515448Y-101650000D01*
X129220378Y-101650000D01*
X129117517Y-101580567D01*
X128979920Y-101552973D01*
X127580000Y-101552973D01*
X127580000Y-100280002D01*
X127541940Y-100088660D01*
X127433554Y-99926449D01*
X126987104Y-99480000D01*
X131522894Y-99480000D01*
X131659950Y-99617056D01*
X131659888Y-99688726D01*
X131758636Y-99927714D01*
X131941324Y-100110722D01*
X132180140Y-100209887D01*
X132438726Y-100210112D01*
X132677714Y-100111364D01*
X132860722Y-99928676D01*
X132878760Y-99885235D01*
X132948658Y-99931940D01*
X133140000Y-99970000D01*
X133480690Y-99970000D01*
X133531324Y-100020722D01*
X133770140Y-100119887D01*
X134028726Y-100120112D01*
X134267714Y-100021364D01*
X134450722Y-99838676D01*
X134549887Y-99599860D01*
X134550112Y-99341274D01*
X134451364Y-99102286D01*
X134268676Y-98919278D01*
X134164556Y-98876044D01*
X134197003Y-98827977D01*
X134199460Y-98815721D01*
X134217932Y-98860316D01*
X134302323Y-98944708D01*
X134412586Y-98990380D01*
X134622050Y-98990380D01*
X134697050Y-98915380D01*
X134697050Y-98440190D01*
X134551840Y-98440190D01*
X134551840Y-97939810D01*
X134697050Y-97939810D01*
X134697050Y-97586684D01*
X134697050Y-97586683D01*
X134741940Y-97519502D01*
X134780000Y-97328160D01*
X134780000Y-91270000D01*
X134741940Y-91078659D01*
X134741940Y-91078658D01*
X134698526Y-91013685D01*
X134633554Y-90916447D01*
X134300049Y-90582943D01*
X134300112Y-90511274D01*
X134201364Y-90272286D01*
X134159168Y-90230016D01*
X134268726Y-90230112D01*
X134507714Y-90131364D01*
X134690722Y-89948676D01*
X134789887Y-89709860D01*
X134790112Y-89451274D01*
X134691364Y-89212286D01*
X134508676Y-89029278D01*
X134269860Y-88930113D01*
X134160000Y-88930017D01*
X134160000Y-87494489D01*
X134160000Y-86945511D01*
X134083880Y-86562828D01*
X133867107Y-86238404D01*
X133542683Y-86021631D01*
X133160000Y-85945511D01*
X132777317Y-86021631D01*
X132452893Y-86238404D01*
X132236120Y-86562828D01*
X132160000Y-86945511D01*
X132160000Y-87494489D01*
X132236120Y-87877172D01*
X132452893Y-88201596D01*
X132777317Y-88418369D01*
X133160000Y-88494489D01*
X133542683Y-88418369D01*
X133867107Y-88201596D01*
X134083880Y-87877172D01*
X134160000Y-87494489D01*
X134160000Y-88930017D01*
X134011274Y-88929888D01*
X133772286Y-89028636D01*
X133730849Y-89070000D01*
X130604298Y-89070000D01*
X130604298Y-87714473D01*
X130604298Y-86725527D01*
X130441907Y-86398077D01*
X130166567Y-86157697D01*
X130160644Y-86139153D01*
X130025000Y-86157596D01*
X130025000Y-86870000D01*
X130556409Y-86870000D01*
X130604298Y-86725527D01*
X130604298Y-87714473D01*
X130556409Y-87570000D01*
X130025000Y-87570000D01*
X130025000Y-88282404D01*
X130160644Y-88300847D01*
X130166567Y-88282303D01*
X130441907Y-88041923D01*
X130604298Y-87714473D01*
X130604298Y-89070000D01*
X129375000Y-89070000D01*
X129375000Y-88282404D01*
X129375000Y-87570000D01*
X129330000Y-87570000D01*
X129330000Y-86870000D01*
X129375000Y-86870000D01*
X129375000Y-86157596D01*
X129239356Y-86139153D01*
X129233433Y-86157697D01*
X128968011Y-86389418D01*
X128867107Y-86238404D01*
X128542683Y-86021631D01*
X128160000Y-85945511D01*
X127777317Y-86021631D01*
X127452893Y-86238404D01*
X127236120Y-86562828D01*
X127160000Y-86945511D01*
X127160000Y-87494489D01*
X127236120Y-87877172D01*
X127452893Y-88201596D01*
X127777317Y-88418369D01*
X128160000Y-88494489D01*
X128542683Y-88418369D01*
X128867107Y-88201596D01*
X128968011Y-88050581D01*
X129233433Y-88282303D01*
X129239356Y-88300847D01*
X129375000Y-88282404D01*
X129375000Y-89070000D01*
X127959309Y-89070000D01*
X127908676Y-89019278D01*
X127669860Y-88920113D01*
X127411274Y-88919888D01*
X127332829Y-88952300D01*
X127332408Y-88951284D01*
X127248017Y-88866892D01*
X127137754Y-88821220D01*
X126953690Y-88821220D01*
X126878690Y-88896220D01*
X126878690Y-89320610D01*
X126939746Y-89320610D01*
X126890113Y-89440140D01*
X126889888Y-89698726D01*
X126898426Y-89719390D01*
X126878690Y-89719390D01*
X126878690Y-90143780D01*
X126953690Y-90218780D01*
X127137754Y-90218780D01*
X127248017Y-90173108D01*
X127262530Y-90158594D01*
X127410140Y-90219887D01*
X127668726Y-90220112D01*
X127907714Y-90121364D01*
X127959167Y-90070000D01*
X133327388Y-90070000D01*
X133282286Y-90088636D01*
X133099278Y-90271324D01*
X133000113Y-90510140D01*
X132999888Y-90768726D01*
X133098636Y-91007714D01*
X133160813Y-91070000D01*
X127969309Y-91070000D01*
X127918676Y-91019278D01*
X127679860Y-90920113D01*
X127421274Y-90919888D01*
X127300793Y-90969669D01*
X127248017Y-90916892D01*
X127137754Y-90871220D01*
X126953690Y-90871220D01*
X126878690Y-90946220D01*
X126878690Y-91370610D01*
X126928984Y-91370610D01*
X126900113Y-91440140D01*
X126899888Y-91698726D01*
X126929085Y-91769390D01*
X126878690Y-91769390D01*
X126878690Y-92193780D01*
X126953690Y-92268780D01*
X127137754Y-92268780D01*
X127248017Y-92223108D01*
X127300794Y-92170330D01*
X127420140Y-92219887D01*
X127678726Y-92220112D01*
X127917714Y-92121364D01*
X127969167Y-92070000D01*
X130942893Y-92070000D01*
X130816450Y-92196443D01*
X130816447Y-92196446D01*
X130262943Y-92749950D01*
X130191274Y-92749888D01*
X129974139Y-92839606D01*
X129962408Y-92811284D01*
X129878017Y-92726892D01*
X129767754Y-92681220D01*
X129583690Y-92681220D01*
X129508690Y-92756220D01*
X129508690Y-93180610D01*
X129679300Y-93180610D01*
X129679300Y-93248015D01*
X129670113Y-93270140D01*
X129669888Y-93528726D01*
X129679300Y-93551505D01*
X129679300Y-93579390D01*
X129508690Y-93579390D01*
X129508690Y-94003780D01*
X129549910Y-94045000D01*
X129498690Y-94096220D01*
X129498690Y-94520610D01*
X129923080Y-94520610D01*
X129998080Y-94445610D01*
X129998080Y-94380894D01*
X129998080Y-94261547D01*
X129952408Y-94151284D01*
X129868017Y-94066892D01*
X129832235Y-94052071D01*
X129878017Y-94033108D01*
X129957738Y-93953385D01*
X130190140Y-94049887D01*
X130448726Y-94050112D01*
X130687714Y-93951364D01*
X130870722Y-93768676D01*
X130969887Y-93529860D01*
X130969950Y-93457156D01*
X131523553Y-92903553D01*
X131523554Y-92903553D01*
X131523556Y-92903549D01*
X131752347Y-92674759D01*
X131750113Y-92680140D01*
X131749888Y-92938726D01*
X131848636Y-93177714D01*
X132031324Y-93360722D01*
X132270140Y-93459887D01*
X132342844Y-93459950D01*
X133329998Y-94447104D01*
X133329998Y-96870000D01*
X132840000Y-96870000D01*
X132648658Y-96908060D01*
X132583685Y-96951473D01*
X132486447Y-97016446D01*
X132286447Y-97216447D01*
X132178060Y-97378658D01*
X132140000Y-97570000D01*
X132140000Y-98682894D01*
X132083553Y-98626447D01*
X131921342Y-98518060D01*
X131730000Y-98480000D01*
X129998080Y-98480000D01*
X129998080Y-95178453D01*
X129998080Y-95059106D01*
X129998080Y-94994390D01*
X129923080Y-94919390D01*
X129498690Y-94919390D01*
X129498690Y-95343780D01*
X129514910Y-95360000D01*
X129488690Y-95386220D01*
X129488690Y-95810610D01*
X129913080Y-95810610D01*
X129988080Y-95735610D01*
X129988080Y-95670894D01*
X129988080Y-95551547D01*
X129942408Y-95441284D01*
X129871124Y-95370000D01*
X129952408Y-95288716D01*
X129998080Y-95178453D01*
X129998080Y-98480000D01*
X129988080Y-98480000D01*
X129988080Y-97798453D01*
X129988080Y-97679106D01*
X129988080Y-97614390D01*
X129988080Y-97065610D01*
X129988080Y-97000894D01*
X129988080Y-96881547D01*
X129942408Y-96771284D01*
X129858017Y-96686892D01*
X129829306Y-96675000D01*
X129858017Y-96663108D01*
X129942408Y-96578716D01*
X129988080Y-96468453D01*
X129988080Y-96349106D01*
X129988080Y-96284390D01*
X129913080Y-96209390D01*
X129488690Y-96209390D01*
X129488690Y-96633780D01*
X129529910Y-96675000D01*
X129488690Y-96716220D01*
X129488690Y-97140610D01*
X129913080Y-97140610D01*
X129988080Y-97065610D01*
X129988080Y-97614390D01*
X129913080Y-97539390D01*
X129488690Y-97539390D01*
X129488690Y-97963780D01*
X129563690Y-98038780D01*
X129747754Y-98038780D01*
X129858017Y-97993108D01*
X129942408Y-97908716D01*
X129988080Y-97798453D01*
X129988080Y-98480000D01*
X129195676Y-98480000D01*
X129199887Y-98469860D01*
X129200112Y-98211274D01*
X129109910Y-97992968D01*
X129109910Y-94003780D01*
X129109910Y-93579390D01*
X129109910Y-93180610D01*
X129109910Y-92756220D01*
X129034910Y-92681220D01*
X128850846Y-92681220D01*
X128740583Y-92726892D01*
X128656192Y-92811284D01*
X128610520Y-92921547D01*
X128610520Y-93040894D01*
X128610520Y-93105610D01*
X128685520Y-93180610D01*
X129109910Y-93180610D01*
X129109910Y-93579390D01*
X128685520Y-93579390D01*
X128610520Y-93654390D01*
X128610520Y-93719106D01*
X128610520Y-93838453D01*
X128656192Y-93948716D01*
X128740583Y-94033108D01*
X128776364Y-94047928D01*
X128730583Y-94066892D01*
X128646192Y-94151284D01*
X128600520Y-94261547D01*
X128600520Y-94380894D01*
X128600520Y-94445610D01*
X128675520Y-94520610D01*
X129099910Y-94520610D01*
X129099910Y-94096220D01*
X129058690Y-94055000D01*
X129109910Y-94003780D01*
X129109910Y-97992968D01*
X129101364Y-97972286D01*
X129099910Y-97970829D01*
X129099910Y-95343780D01*
X129099910Y-94919390D01*
X128675520Y-94919390D01*
X128600520Y-94994390D01*
X128600520Y-95059106D01*
X128600520Y-95178453D01*
X128646192Y-95288716D01*
X128717475Y-95359999D01*
X128636192Y-95441284D01*
X128590520Y-95551547D01*
X128590520Y-95670894D01*
X128590520Y-95735610D01*
X128665520Y-95810610D01*
X129089910Y-95810610D01*
X129089910Y-95386220D01*
X129073690Y-95370000D01*
X129099910Y-95343780D01*
X129099910Y-97970829D01*
X129089910Y-97960811D01*
X129089910Y-97539390D01*
X129089910Y-97140610D01*
X129089910Y-96716220D01*
X129048690Y-96675000D01*
X129089910Y-96633780D01*
X129089910Y-96209390D01*
X128665520Y-96209390D01*
X128590520Y-96284390D01*
X128590520Y-96349106D01*
X128590520Y-96468453D01*
X128636192Y-96578716D01*
X128720583Y-96663108D01*
X128749293Y-96675000D01*
X128720583Y-96686892D01*
X128636192Y-96771284D01*
X128590520Y-96881547D01*
X128590520Y-97000894D01*
X128590520Y-97065610D01*
X128665520Y-97140610D01*
X129089910Y-97140610D01*
X129089910Y-97539390D01*
X128665520Y-97539390D01*
X128590520Y-97614390D01*
X128590520Y-97679106D01*
X128590520Y-97690035D01*
X128546337Y-97689996D01*
X128546337Y-96941220D01*
X128520444Y-96807766D01*
X128443394Y-96690473D01*
X128420975Y-96675340D01*
X128440227Y-96662694D01*
X128518743Y-96546377D01*
X128546337Y-96408780D01*
X128546337Y-95611220D01*
X128520444Y-95477766D01*
X128450832Y-95371796D01*
X128528743Y-95256377D01*
X128556337Y-95118780D01*
X128556337Y-94321220D01*
X128530444Y-94187766D01*
X128453394Y-94070473D01*
X128428399Y-94053601D01*
X128460227Y-94032694D01*
X128538743Y-93916377D01*
X128566337Y-93778780D01*
X128566337Y-92981220D01*
X128540444Y-92847766D01*
X128463394Y-92730473D01*
X128347077Y-92651957D01*
X128209480Y-92624363D01*
X127411920Y-92624363D01*
X127278466Y-92650256D01*
X127161173Y-92727306D01*
X127126566Y-92778573D01*
X127009860Y-92730113D01*
X126751274Y-92729888D01*
X126512286Y-92828636D01*
X126479910Y-92860955D01*
X126479910Y-92193780D01*
X126479910Y-91769390D01*
X126479910Y-91370610D01*
X126479910Y-90946220D01*
X126479910Y-90143780D01*
X126479910Y-89719390D01*
X126479910Y-89320610D01*
X126479910Y-88896220D01*
X126404910Y-88821220D01*
X126220846Y-88821220D01*
X126110583Y-88866892D01*
X126026192Y-88951284D01*
X125980520Y-89061547D01*
X125980520Y-89180894D01*
X125980520Y-89245610D01*
X126055520Y-89320610D01*
X126479910Y-89320610D01*
X126479910Y-89719390D01*
X126055520Y-89719390D01*
X125980520Y-89794390D01*
X125980520Y-89859106D01*
X125980520Y-89978453D01*
X126026192Y-90088716D01*
X126110583Y-90173108D01*
X126220846Y-90218780D01*
X126404910Y-90218780D01*
X126479910Y-90143780D01*
X126479910Y-90946220D01*
X126404910Y-90871220D01*
X126220846Y-90871220D01*
X126110583Y-90916892D01*
X126026192Y-91001284D01*
X125980520Y-91111547D01*
X125980520Y-91230894D01*
X125980520Y-91295610D01*
X126055520Y-91370610D01*
X126479910Y-91370610D01*
X126479910Y-91769390D01*
X126055520Y-91769390D01*
X125980520Y-91844390D01*
X125980520Y-91909106D01*
X125980520Y-92028453D01*
X126026192Y-92138716D01*
X126110583Y-92223108D01*
X126220846Y-92268780D01*
X126404910Y-92268780D01*
X126479910Y-92193780D01*
X126479910Y-92860955D01*
X126329278Y-93011324D01*
X126230113Y-93250140D01*
X126229888Y-93508726D01*
X126328636Y-93747714D01*
X126511324Y-93930722D01*
X126750140Y-94029887D01*
X127008726Y-94030112D01*
X127126439Y-93981473D01*
X127158006Y-94029527D01*
X127183000Y-94046398D01*
X127151173Y-94067306D01*
X127120944Y-94112087D01*
X127019860Y-94070113D01*
X126761274Y-94069888D01*
X126522286Y-94168636D01*
X126339278Y-94351324D01*
X126240113Y-94590140D01*
X126239888Y-94848726D01*
X126338636Y-95087714D01*
X126521324Y-95270722D01*
X126748635Y-95365110D01*
X126522286Y-95458636D01*
X126339278Y-95641324D01*
X126240113Y-95880140D01*
X126239888Y-96138726D01*
X126338636Y-96377714D01*
X126410735Y-96449939D01*
X126369278Y-96491324D01*
X126270113Y-96730140D01*
X126269888Y-96988726D01*
X126368636Y-97227714D01*
X126551324Y-97410722D01*
X126790140Y-97509887D01*
X127035063Y-97510100D01*
X127035063Y-97738780D01*
X127054701Y-97840000D01*
X125936337Y-97840000D01*
X125936337Y-91968780D01*
X125936337Y-91171220D01*
X125910444Y-91037766D01*
X125833394Y-90920473D01*
X125717077Y-90841957D01*
X125716054Y-90841751D01*
X125799887Y-90639860D01*
X125800112Y-90381274D01*
X125738756Y-90232781D01*
X125830227Y-90172694D01*
X125908743Y-90056377D01*
X125936337Y-89918780D01*
X125936337Y-89121220D01*
X125910444Y-88987766D01*
X125833394Y-88870473D01*
X125717077Y-88791957D01*
X125579480Y-88764363D01*
X124781920Y-88764363D01*
X124726857Y-88775046D01*
X124726857Y-88489146D01*
X125082683Y-88418369D01*
X125407107Y-88201596D01*
X125623880Y-87877172D01*
X125700000Y-87494489D01*
X125700000Y-86945511D01*
X125623880Y-86562828D01*
X125407107Y-86238404D01*
X125082683Y-86021631D01*
X124700000Y-85945511D01*
X124317317Y-86021631D01*
X123992893Y-86238404D01*
X123776120Y-86562828D01*
X123700000Y-86945511D01*
X123700000Y-87494489D01*
X123776120Y-87877172D01*
X123870313Y-88018143D01*
X123170000Y-88018143D01*
X123036546Y-88044036D01*
X122919253Y-88121086D01*
X122840737Y-88237403D01*
X122813143Y-88375000D01*
X122813143Y-90125000D01*
X122839036Y-90258454D01*
X122916086Y-90375747D01*
X123032403Y-90454263D01*
X123170000Y-90481857D01*
X124370000Y-90481857D01*
X124500046Y-90456625D01*
X124499888Y-90638726D01*
X124597100Y-90873998D01*
X124531173Y-90917306D01*
X124452657Y-91033623D01*
X124425063Y-91171220D01*
X124425063Y-91968780D01*
X124450956Y-92102234D01*
X124528006Y-92219527D01*
X124601202Y-92268936D01*
X124530113Y-92440140D01*
X124529888Y-92698726D01*
X124628636Y-92937714D01*
X124811324Y-93120722D01*
X125050140Y-93219887D01*
X125308726Y-93220112D01*
X125547714Y-93121364D01*
X125730722Y-92938676D01*
X125829887Y-92699860D01*
X125830112Y-92441274D01*
X125759101Y-92269416D01*
X125830227Y-92222694D01*
X125908743Y-92106377D01*
X125936337Y-91968780D01*
X125936337Y-97840000D01*
X125389309Y-97840000D01*
X125338676Y-97789278D01*
X125099860Y-97690113D01*
X124841274Y-97689888D01*
X124670000Y-97760657D01*
X124670000Y-96684674D01*
X124670000Y-96175000D01*
X124670000Y-95325000D01*
X124670000Y-94815326D01*
X124624328Y-94705063D01*
X124539936Y-94620672D01*
X124429673Y-94575000D01*
X124310326Y-94575000D01*
X124145000Y-94575000D01*
X124070000Y-94650000D01*
X124070000Y-95400000D01*
X124595000Y-95400000D01*
X124670000Y-95325000D01*
X124670000Y-96175000D01*
X124595000Y-96100000D01*
X124070000Y-96100000D01*
X124070000Y-96850000D01*
X124145000Y-96925000D01*
X124310326Y-96925000D01*
X124429673Y-96925000D01*
X124539936Y-96879328D01*
X124624328Y-96794937D01*
X124670000Y-96684674D01*
X124670000Y-97760657D01*
X124602286Y-97788636D01*
X124419278Y-97971324D01*
X124320113Y-98210140D01*
X124319888Y-98468726D01*
X124324546Y-98480000D01*
X123697106Y-98480000D01*
X123540049Y-98322943D01*
X123540112Y-98251274D01*
X123470000Y-98081590D01*
X123470000Y-96850000D01*
X123470000Y-96100000D01*
X123470000Y-95400000D01*
X123470000Y-94650000D01*
X123395000Y-94575000D01*
X123229674Y-94575000D01*
X123110327Y-94575000D01*
X123000064Y-94620672D01*
X122915672Y-94705063D01*
X122870000Y-94815326D01*
X122870000Y-95325000D01*
X122945000Y-95400000D01*
X123470000Y-95400000D01*
X123470000Y-96100000D01*
X122945000Y-96100000D01*
X122870000Y-96175000D01*
X122870000Y-96684674D01*
X122915672Y-96794937D01*
X123000064Y-96879328D01*
X123110327Y-96925000D01*
X123229674Y-96925000D01*
X123395000Y-96925000D01*
X123470000Y-96850000D01*
X123470000Y-98081590D01*
X123441364Y-98012286D01*
X123258676Y-97829278D01*
X123019860Y-97730113D01*
X122761274Y-97729888D01*
X122522286Y-97828636D01*
X122389938Y-97960752D01*
X122268676Y-97839278D01*
X122029860Y-97740113D01*
X121771274Y-97739888D01*
X121532286Y-97838636D01*
X121349278Y-98021324D01*
X121300112Y-98139728D01*
X121300112Y-93341274D01*
X121201364Y-93102286D01*
X121018676Y-92919278D01*
X120779860Y-92820113D01*
X120726857Y-92820066D01*
X120726857Y-90125000D01*
X120726857Y-88375000D01*
X120700964Y-88241546D01*
X120623914Y-88124253D01*
X120510113Y-88047435D01*
X120623880Y-87877172D01*
X120700000Y-87494489D01*
X120700000Y-86945511D01*
X120623880Y-86562828D01*
X120407107Y-86238404D01*
X120082683Y-86021631D01*
X119700000Y-85945511D01*
X119317317Y-86021631D01*
X118992893Y-86238404D01*
X118776120Y-86562828D01*
X118700000Y-86945511D01*
X118700000Y-87494489D01*
X118776120Y-87877172D01*
X118933044Y-88112026D01*
X118919253Y-88121086D01*
X118840737Y-88237403D01*
X118813143Y-88375000D01*
X118813143Y-90125000D01*
X118839036Y-90258454D01*
X118916086Y-90375747D01*
X119032403Y-90454263D01*
X119170000Y-90481857D01*
X120370000Y-90481857D01*
X120503454Y-90455964D01*
X120620747Y-90378914D01*
X120699263Y-90262597D01*
X120726857Y-90125000D01*
X120726857Y-92820066D01*
X120521274Y-92819888D01*
X120282286Y-92918636D01*
X120099278Y-93101324D01*
X120000113Y-93340140D01*
X119999888Y-93598726D01*
X120098636Y-93837714D01*
X120150000Y-93889167D01*
X120150000Y-94518143D01*
X119170000Y-94518143D01*
X119036546Y-94544036D01*
X118919253Y-94621086D01*
X118840737Y-94737403D01*
X118813143Y-94875000D01*
X118813143Y-96625000D01*
X118839036Y-96758454D01*
X118916086Y-96875747D01*
X119032403Y-96954263D01*
X119170000Y-96981857D01*
X120370000Y-96981857D01*
X120503454Y-96955964D01*
X120620747Y-96878914D01*
X120699263Y-96762597D01*
X120726857Y-96625000D01*
X120726857Y-95500249D01*
X121003553Y-95223553D01*
X121111940Y-95061342D01*
X121149999Y-94870000D01*
X121150000Y-94870000D01*
X121150000Y-93889309D01*
X121200722Y-93838676D01*
X121299887Y-93599860D01*
X121300112Y-93341274D01*
X121300112Y-98139728D01*
X121250113Y-98260140D01*
X121249888Y-98518726D01*
X121348636Y-98757714D01*
X121531324Y-98940722D01*
X121770140Y-99039887D01*
X121842844Y-99039950D01*
X122936449Y-100133556D01*
X123033687Y-100198528D01*
X123098660Y-100241942D01*
X123098661Y-100241942D01*
X123290002Y-100280002D01*
X126372893Y-100280002D01*
X126580000Y-100487108D01*
X126580000Y-101552973D01*
X125180080Y-101552973D01*
X125046626Y-101578866D01*
X124929333Y-101655916D01*
X124850817Y-101772233D01*
X124823223Y-101909830D01*
X124823223Y-103710690D01*
X124849116Y-103844144D01*
X124926166Y-103961437D01*
X125042483Y-104039953D01*
X125180080Y-104067547D01*
X126310000Y-104067547D01*
X126310000Y-107575689D01*
X126296306Y-107578346D01*
X126179013Y-107655396D01*
X126100497Y-107771713D01*
X126072903Y-107909310D01*
X126072903Y-109590000D01*
X125785857Y-109590000D01*
X125785857Y-107909310D01*
X125759964Y-107775856D01*
X125682914Y-107658563D01*
X125628760Y-107622008D01*
X125628760Y-107357876D01*
X125690000Y-107050000D01*
X125625298Y-106724719D01*
X125441040Y-106448960D01*
X125165281Y-106264702D01*
X124840000Y-106200000D01*
X124514719Y-106264702D01*
X124238959Y-106448960D01*
X124177719Y-106510199D01*
X124060000Y-106686377D01*
X124060000Y-106447106D01*
X124293553Y-106213553D01*
X124401940Y-106051342D01*
X124439999Y-105860000D01*
X124440000Y-105860000D01*
X124440000Y-104669309D01*
X124490722Y-104618676D01*
X124589887Y-104379860D01*
X124590112Y-104121274D01*
X124491364Y-103882286D01*
X124308676Y-103699278D01*
X124069860Y-103600113D01*
X123811274Y-103599888D01*
X123572286Y-103698636D01*
X123389278Y-103881324D01*
X123290113Y-104120140D01*
X123289888Y-104378726D01*
X123388636Y-104617714D01*
X123440000Y-104669167D01*
X123440000Y-105652894D01*
X123206447Y-105886447D01*
X123098060Y-106048658D01*
X123060000Y-106240000D01*
X123060000Y-109750000D01*
X123098060Y-109941342D01*
X123206447Y-110103553D01*
X123546447Y-110443554D01*
X123643685Y-110508526D01*
X123708658Y-110551940D01*
X123708659Y-110551940D01*
X123900000Y-110590000D01*
X125142091Y-110590000D01*
X124956706Y-110713870D01*
X124671063Y-111141366D01*
X124482049Y-110962572D01*
X124095669Y-110814964D01*
X123930000Y-110875008D01*
X123930000Y-111510000D01*
X123950000Y-111510000D01*
X123950000Y-112210000D01*
X123930000Y-112210000D01*
X123930000Y-112844992D01*
X124095669Y-112905036D01*
X124482049Y-112757428D01*
X124561450Y-112682320D01*
X124561450Y-112975987D01*
X124256294Y-113281143D01*
X123144645Y-113281143D01*
X122620000Y-112756498D01*
X122620000Y-112702610D01*
X122677951Y-112757428D01*
X123064331Y-112905036D01*
X123230000Y-112844992D01*
X123230000Y-112210000D01*
X123210000Y-112210000D01*
X123210000Y-111510000D01*
X123230000Y-111510000D01*
X123230000Y-110875008D01*
X123064331Y-110814964D01*
X122677951Y-110962572D01*
X122620000Y-111017389D01*
X122620000Y-109720000D01*
X122547686Y-109356451D01*
X122547685Y-109356450D01*
X122479352Y-109254183D01*
X122341751Y-109048249D01*
X122341751Y-109048248D01*
X120670000Y-107376497D01*
X120670000Y-106288857D01*
X120819820Y-106288857D01*
X120953274Y-106262964D01*
X121070567Y-106185914D01*
X121149083Y-106069597D01*
X121176677Y-105932000D01*
X121176677Y-104408000D01*
X121150784Y-104274546D01*
X121073734Y-104157253D01*
X120957417Y-104078737D01*
X120819820Y-104051143D01*
X118620180Y-104051143D01*
X118486726Y-104077036D01*
X118369433Y-104154086D01*
X118300000Y-104256947D01*
X118300000Y-102922711D01*
X118326422Y-103055544D01*
X118567473Y-103416303D01*
X118928232Y-103657354D01*
X119353776Y-103742000D01*
X120086224Y-103742000D01*
X120511768Y-103657354D01*
X120872527Y-103416303D01*
X121113578Y-103055544D01*
X121198224Y-102630000D01*
X121113578Y-102204456D01*
X120872527Y-101843697D01*
X120511768Y-101602646D01*
X120086224Y-101518000D01*
X119353776Y-101518000D01*
X118928232Y-101602646D01*
X118567473Y-101843697D01*
X118326422Y-102204456D01*
X118300000Y-102337288D01*
X118300000Y-100382711D01*
X118326422Y-100515544D01*
X118567473Y-100876303D01*
X118928232Y-101117354D01*
X119353776Y-101202000D01*
X120086224Y-101202000D01*
X120511768Y-101117354D01*
X120872527Y-100876303D01*
X121113578Y-100515544D01*
X121198224Y-100090000D01*
X121113578Y-99664456D01*
X120872527Y-99303697D01*
X120511768Y-99062646D01*
X120086224Y-98978000D01*
X119353776Y-98978000D01*
X118928232Y-99062646D01*
X118567473Y-99303697D01*
X118326422Y-99664456D01*
X118300000Y-99797288D01*
X118300000Y-85930000D01*
X148420000Y-85930000D01*
X148420000Y-121110000D01*
X148420000Y-121110000D01*
G37*
X148420000Y-121110000D02*
X148000321Y-121110000D01*
X148000321Y-118833627D01*
X148000321Y-109093627D01*
X147719268Y-108413428D01*
X147446857Y-108140541D01*
X147446857Y-90295000D01*
X147446857Y-88545000D01*
X147420964Y-88411546D01*
X147343914Y-88294253D01*
X147227597Y-88215737D01*
X147109859Y-88192125D01*
X147281907Y-88041923D01*
X147444298Y-87714473D01*
X147444298Y-86725527D01*
X147281907Y-86398077D01*
X147006567Y-86157697D01*
X147000644Y-86139153D01*
X146865000Y-86157596D01*
X146865000Y-86870000D01*
X147396409Y-86870000D01*
X147444298Y-86725527D01*
X147444298Y-87714473D01*
X147396409Y-87570000D01*
X146865000Y-87570000D01*
X146865000Y-87590000D01*
X146215000Y-87590000D01*
X146215000Y-87570000D01*
X146215000Y-86870000D01*
X146215000Y-86157596D01*
X146079356Y-86139153D01*
X146073433Y-86157697D01*
X145798093Y-86398077D01*
X145635702Y-86725527D01*
X145683591Y-86870000D01*
X146215000Y-86870000D01*
X146215000Y-87570000D01*
X145683591Y-87570000D01*
X145635702Y-87714473D01*
X145798093Y-88041923D01*
X145965578Y-88188143D01*
X145890000Y-88188143D01*
X145756546Y-88214036D01*
X145639253Y-88291086D01*
X145560737Y-88407403D01*
X145533143Y-88545000D01*
X145533143Y-90295000D01*
X145559036Y-90428454D01*
X145636086Y-90545747D01*
X145752403Y-90624263D01*
X145890000Y-90651857D01*
X147090000Y-90651857D01*
X147223454Y-90625964D01*
X147340747Y-90548914D01*
X147419263Y-90432597D01*
X147446857Y-90295000D01*
X147446857Y-108140541D01*
X147390000Y-108083585D01*
X147390000Y-96854674D01*
X147390000Y-96345000D01*
X147390000Y-95495000D01*
X147390000Y-94985326D01*
X147344328Y-94875063D01*
X147259936Y-94790672D01*
X147149673Y-94745000D01*
X147030326Y-94745000D01*
X146865000Y-94745000D01*
X146790000Y-94820000D01*
X146790000Y-95570000D01*
X147315000Y-95570000D01*
X147390000Y-95495000D01*
X147390000Y-96345000D01*
X147315000Y-96270000D01*
X146790000Y-96270000D01*
X146790000Y-97020000D01*
X146865000Y-97095000D01*
X147030326Y-97095000D01*
X147149673Y-97095000D01*
X147259936Y-97049328D01*
X147344328Y-96964937D01*
X147390000Y-96854674D01*
X147390000Y-108083585D01*
X147199309Y-107892561D01*
X146519602Y-107610321D01*
X146190000Y-107610033D01*
X146190000Y-97020000D01*
X146190000Y-96270000D01*
X146190000Y-95570000D01*
X146190000Y-94820000D01*
X146115000Y-94745000D01*
X145949674Y-94745000D01*
X145830327Y-94745000D01*
X145720064Y-94790672D01*
X145635672Y-94875063D01*
X145590000Y-94985326D01*
X145590000Y-95495000D01*
X145665000Y-95570000D01*
X146190000Y-95570000D01*
X146190000Y-96270000D01*
X145665000Y-96270000D01*
X145590000Y-96345000D01*
X145590000Y-96854674D01*
X145635672Y-96964937D01*
X145720064Y-97049328D01*
X145830327Y-97095000D01*
X145949674Y-97095000D01*
X146115000Y-97095000D01*
X146190000Y-97020000D01*
X146190000Y-107610033D01*
X145783627Y-107609679D01*
X145103428Y-107890732D01*
X144582561Y-108410691D01*
X144300321Y-109090398D01*
X144299679Y-109826373D01*
X144580732Y-110506572D01*
X145100691Y-111027439D01*
X145780398Y-111309679D01*
X146516373Y-111310321D01*
X147196572Y-111029268D01*
X147717439Y-110509309D01*
X147999679Y-109829602D01*
X148000321Y-109093627D01*
X148000321Y-118833627D01*
X147719268Y-118153428D01*
X147199309Y-117632561D01*
X146519602Y-117350321D01*
X145783627Y-117349679D01*
X145103428Y-117630732D01*
X144582561Y-118150691D01*
X144300321Y-118830398D01*
X144299679Y-119566373D01*
X144580732Y-120246572D01*
X145100691Y-120767439D01*
X145780398Y-121049679D01*
X146516373Y-121050321D01*
X147196572Y-120769268D01*
X147717439Y-120249309D01*
X147999679Y-119569602D01*
X148000321Y-118833627D01*
X148000321Y-121110000D01*
X144130000Y-121110000D01*
X144130000Y-107660000D01*
X144065298Y-107334719D01*
X143881041Y-107058959D01*
X143605281Y-106874702D01*
X143280000Y-106810000D01*
X142954719Y-106874702D01*
X142678959Y-107058959D01*
X141620380Y-108117538D01*
X141620380Y-104271094D01*
X141620380Y-104061630D01*
X141545380Y-103986630D01*
X141070190Y-103986630D01*
X141070190Y-104436420D01*
X141145190Y-104511420D01*
X141260706Y-104511420D01*
X141380053Y-104511420D01*
X141490316Y-104465748D01*
X141574708Y-104381357D01*
X141620380Y-104271094D01*
X141620380Y-108117538D01*
X140618959Y-109118959D01*
X140569810Y-109192515D01*
X140569810Y-104436420D01*
X140569810Y-103986630D01*
X140094620Y-103986630D01*
X140019620Y-104061630D01*
X140019620Y-104271094D01*
X140065292Y-104381357D01*
X140149684Y-104465748D01*
X140259947Y-104511420D01*
X140379294Y-104511420D01*
X140494810Y-104511420D01*
X140569810Y-104436420D01*
X140569810Y-109192515D01*
X140434702Y-109394719D01*
X140370000Y-109720000D01*
X140370000Y-112970000D01*
X140434702Y-113295281D01*
X140618959Y-113571041D01*
X140894719Y-113755298D01*
X141220000Y-113820000D01*
X141545281Y-113755298D01*
X141821041Y-113571041D01*
X142005298Y-113295281D01*
X142070000Y-112970000D01*
X142070000Y-110072082D01*
X143881041Y-108261041D01*
X144065298Y-107985281D01*
X144130000Y-107660000D01*
X144130000Y-121110000D01*
X135980380Y-121110000D01*
X135980380Y-114851094D01*
X135980380Y-114641630D01*
X135905380Y-114566630D01*
X135430190Y-114566630D01*
X135430190Y-115016420D01*
X135505190Y-115091420D01*
X135620706Y-115091420D01*
X135740053Y-115091420D01*
X135850316Y-115045748D01*
X135934708Y-114961357D01*
X135980380Y-114851094D01*
X135980380Y-121110000D01*
X135350321Y-121110000D01*
X135350321Y-118833627D01*
X135069268Y-118153428D01*
X134929810Y-118013726D01*
X134929810Y-115016420D01*
X134929810Y-114566630D01*
X134454620Y-114566630D01*
X134379620Y-114641630D01*
X134379620Y-114851094D01*
X134425292Y-114961357D01*
X134509684Y-115045748D01*
X134619947Y-115091420D01*
X134739294Y-115091420D01*
X134854810Y-115091420D01*
X134929810Y-115016420D01*
X134929810Y-118013726D01*
X134549309Y-117632561D01*
X133869602Y-117350321D01*
X133400000Y-117349911D01*
X133400000Y-113220000D01*
X133400000Y-112700000D01*
X133342910Y-112412987D01*
X133180330Y-112169670D01*
X132937013Y-112007090D01*
X132650000Y-111950000D01*
X132362987Y-112007090D01*
X132119670Y-112169670D01*
X131957090Y-112412987D01*
X131900000Y-112700000D01*
X131900000Y-112909340D01*
X131669340Y-113140000D01*
X131420000Y-113140000D01*
X131132987Y-113197090D01*
X130889670Y-113359670D01*
X130727090Y-113602987D01*
X130670000Y-113890000D01*
X130727090Y-114177013D01*
X130889670Y-114420330D01*
X131132987Y-114582910D01*
X131420000Y-114640000D01*
X131980000Y-114640000D01*
X132267013Y-114582910D01*
X132510330Y-114420330D01*
X133180330Y-113750330D01*
X133342910Y-113507013D01*
X133400000Y-113220000D01*
X133400000Y-117349911D01*
X133133627Y-117349679D01*
X132453428Y-117630732D01*
X131932561Y-118150691D01*
X131650321Y-118830398D01*
X131649679Y-119566373D01*
X131930732Y-120246572D01*
X132450691Y-120767439D01*
X133130398Y-121049679D01*
X133866373Y-121050321D01*
X134546572Y-120769268D01*
X135067439Y-120249309D01*
X135349679Y-119569602D01*
X135350321Y-118833627D01*
X135350321Y-121110000D01*
X125342189Y-121110000D01*
X125342189Y-118812444D01*
X125342189Y-117729516D01*
X125327245Y-117599589D01*
X124981531Y-117204347D01*
X124510880Y-116971490D01*
X123510120Y-116971490D01*
X123510120Y-117920980D01*
X125334283Y-117920980D01*
X125342189Y-117729516D01*
X125342189Y-118812444D01*
X125334283Y-118620980D01*
X123510120Y-118620980D01*
X123510120Y-119570470D01*
X124510880Y-119570470D01*
X124981531Y-119337613D01*
X125327245Y-118942371D01*
X125342189Y-118812444D01*
X125342189Y-121110000D01*
X122810120Y-121110000D01*
X122810120Y-119570470D01*
X122810120Y-118620980D01*
X122810120Y-117920980D01*
X122810120Y-116971490D01*
X121809360Y-116971490D01*
X121338709Y-117204347D01*
X120992995Y-117599589D01*
X120978051Y-117729516D01*
X120985957Y-117920980D01*
X122810120Y-117920980D01*
X122810120Y-118620980D01*
X120985957Y-118620980D01*
X120978051Y-118812444D01*
X120992995Y-118942371D01*
X121338709Y-119337613D01*
X121809360Y-119570470D01*
X122810120Y-119570470D01*
X122810120Y-121110000D01*
X119558920Y-121110000D01*
X119558920Y-115144163D01*
X119558920Y-113320000D01*
X119558920Y-112620000D01*
X119558920Y-110795837D01*
X119367456Y-110787931D01*
X119237529Y-110802875D01*
X118842287Y-111148589D01*
X118609430Y-111619240D01*
X118609430Y-112620000D01*
X119558920Y-112620000D01*
X119558920Y-113320000D01*
X118609430Y-113320000D01*
X118609430Y-114320760D01*
X118842287Y-114791411D01*
X119237529Y-115137125D01*
X119367456Y-115152069D01*
X119558920Y-115144163D01*
X119558920Y-121110000D01*
X118300000Y-121110000D01*
X118300000Y-106081870D01*
X118366266Y-106182747D01*
X118482583Y-106261263D01*
X118620180Y-106288857D01*
X118770000Y-106288857D01*
X118770000Y-107770000D01*
X118830316Y-108073233D01*
X118842314Y-108133550D01*
X119048249Y-108441751D01*
X120720000Y-110113502D01*
X120720000Y-110925059D01*
X120580311Y-110802875D01*
X120450384Y-110787931D01*
X120258920Y-110795837D01*
X120258920Y-112620000D01*
X120278920Y-112620000D01*
X120278920Y-113320000D01*
X120258920Y-113320000D01*
X120258920Y-115144163D01*
X120450384Y-115152069D01*
X120580311Y-115137125D01*
X120975553Y-114791411D01*
X121208410Y-114320760D01*
X121208410Y-114031912D01*
X122123323Y-114946825D01*
X122123323Y-115162000D01*
X122149216Y-115295454D01*
X122226266Y-115412747D01*
X122342583Y-115491263D01*
X122480180Y-115518857D01*
X124679820Y-115518857D01*
X124813274Y-115492964D01*
X124930567Y-115415914D01*
X125009083Y-115299597D01*
X125015886Y-115265672D01*
X125394513Y-115518662D01*
X125910940Y-115621386D01*
X126427367Y-115518662D01*
X126865174Y-115226130D01*
X127157706Y-114788323D01*
X127198741Y-114582021D01*
X127206447Y-114593553D01*
X127896446Y-115283553D01*
X127896447Y-115283553D01*
X128058658Y-115391940D01*
X128250000Y-115430000D01*
X129870690Y-115430000D01*
X129921324Y-115480722D01*
X130160140Y-115579887D01*
X130418726Y-115580112D01*
X130657714Y-115481364D01*
X130840722Y-115298676D01*
X130939887Y-115059860D01*
X130940112Y-114801274D01*
X130841364Y-114562286D01*
X130658676Y-114379278D01*
X130419860Y-114280113D01*
X130331480Y-114280036D01*
X130331480Y-109769843D01*
X130331480Y-109650496D01*
X130331480Y-109234740D01*
X130331480Y-108384740D01*
X130331480Y-107968984D01*
X130331480Y-107849637D01*
X130285808Y-107739374D01*
X130201417Y-107654982D01*
X130091154Y-107609310D01*
X129781360Y-107609310D01*
X129706360Y-107684310D01*
X129706360Y-108459740D01*
X130256480Y-108459740D01*
X130331480Y-108384740D01*
X130331480Y-109234740D01*
X130256480Y-109159740D01*
X129706360Y-109159740D01*
X129706360Y-109935170D01*
X129781360Y-110010170D01*
X130091154Y-110010170D01*
X130201417Y-109964498D01*
X130285808Y-109880106D01*
X130331480Y-109769843D01*
X130331480Y-114280036D01*
X130161274Y-114279888D01*
X129922286Y-114378636D01*
X129870832Y-114430000D01*
X128457106Y-114430000D01*
X128060000Y-114032893D01*
X128060000Y-112257106D01*
X128299950Y-112497057D01*
X128299888Y-112568726D01*
X128398636Y-112807714D01*
X128581324Y-112990722D01*
X128820140Y-113089887D01*
X129078726Y-113090112D01*
X129317714Y-112991364D01*
X129500722Y-112808676D01*
X129599887Y-112569860D01*
X129600112Y-112311274D01*
X129501364Y-112072286D01*
X129318676Y-111889278D01*
X129079860Y-111790113D01*
X129007156Y-111790049D01*
X128550000Y-111332893D01*
X128550000Y-109953434D01*
X128561063Y-109964498D01*
X128671326Y-110010170D01*
X128981120Y-110010170D01*
X129056120Y-109935170D01*
X129056120Y-109159740D01*
X129011240Y-109159740D01*
X129011240Y-108459740D01*
X129056120Y-108459740D01*
X129056120Y-107684310D01*
X128981120Y-107609310D01*
X128671326Y-107609310D01*
X128561063Y-107654982D01*
X128550000Y-107666045D01*
X128550000Y-104600000D01*
X128511940Y-104408658D01*
X128420042Y-104271123D01*
X128420112Y-104191274D01*
X128368988Y-104067547D01*
X128979920Y-104067547D01*
X129113374Y-104041654D01*
X129230667Y-103964604D01*
X129309183Y-103848287D01*
X129328580Y-103751564D01*
X129328580Y-103770002D01*
X129328580Y-103860706D01*
X129328580Y-103980053D01*
X129374252Y-104090316D01*
X129458643Y-104174708D01*
X129568906Y-104220380D01*
X129778370Y-104220380D01*
X129853370Y-104145380D01*
X129853370Y-103670190D01*
X129708160Y-103670190D01*
X129708160Y-103169810D01*
X129853370Y-103169810D01*
X129853370Y-102694620D01*
X129808750Y-102650000D01*
X129840000Y-102650000D01*
X129840000Y-102649999D01*
X130031342Y-102611940D01*
X130141723Y-102538185D01*
X130141723Y-102600380D01*
X130167616Y-102733834D01*
X130244666Y-102851127D01*
X130302950Y-102890469D01*
X130302950Y-103169810D01*
X130448160Y-103169810D01*
X130448160Y-103670190D01*
X130302950Y-103670190D01*
X130302950Y-104145380D01*
X130377950Y-104220380D01*
X130587414Y-104220380D01*
X130697677Y-104174708D01*
X130782068Y-104090316D01*
X130799982Y-104047065D01*
X130801296Y-104053834D01*
X130878346Y-104171127D01*
X130994663Y-104249643D01*
X131132260Y-104277237D01*
X132031420Y-104277237D01*
X132164874Y-104251344D01*
X132282167Y-104174294D01*
X132360683Y-104057977D01*
X132384364Y-103939890D01*
X132638726Y-103940112D01*
X132877714Y-103841364D01*
X133060722Y-103658676D01*
X133120023Y-103515861D01*
X133178636Y-103657714D01*
X133247181Y-103726379D01*
X133247182Y-103726380D01*
X133268060Y-103831342D01*
X133376447Y-103993553D01*
X133716447Y-104333554D01*
X133813685Y-104398526D01*
X133878658Y-104441940D01*
X133878659Y-104441940D01*
X134070000Y-104480000D01*
X135970000Y-104480000D01*
X135970000Y-104479999D01*
X135990000Y-104476021D01*
X135990000Y-106740830D01*
X135977382Y-106753426D01*
X135934294Y-106687833D01*
X135817977Y-106609317D01*
X135680380Y-106581723D01*
X134700000Y-106581723D01*
X134700000Y-105609309D01*
X134750722Y-105558676D01*
X134849887Y-105319860D01*
X134850112Y-105061274D01*
X134751364Y-104822286D01*
X134568676Y-104639278D01*
X134329860Y-104540113D01*
X134071274Y-104539888D01*
X133832286Y-104638636D01*
X133649278Y-104821324D01*
X133550113Y-105060140D01*
X133549888Y-105318726D01*
X133648636Y-105557714D01*
X133700000Y-105609167D01*
X133700000Y-109493923D01*
X133630000Y-109480000D01*
X131580000Y-109480000D01*
X131292987Y-109537090D01*
X131049670Y-109699670D01*
X130887090Y-109942987D01*
X130830000Y-110230000D01*
X130887090Y-110517013D01*
X131049670Y-110760330D01*
X131292987Y-110922910D01*
X131580000Y-110980000D01*
X133630000Y-110980000D01*
X133860000Y-110934250D01*
X133860000Y-112690000D01*
X133898060Y-112881342D01*
X134006447Y-113043553D01*
X134154607Y-113191713D01*
X134316818Y-113300100D01*
X134325496Y-113301826D01*
X134348656Y-113421194D01*
X134425706Y-113538487D01*
X134542023Y-113617003D01*
X134554278Y-113619460D01*
X134509684Y-113637932D01*
X134425292Y-113722323D01*
X134379620Y-113832586D01*
X134379620Y-114042050D01*
X134454620Y-114117050D01*
X134929810Y-114117050D01*
X134929810Y-113971840D01*
X135430190Y-113971840D01*
X135430190Y-114117050D01*
X135905380Y-114117050D01*
X135980380Y-114042050D01*
X135980380Y-113959513D01*
X136131324Y-114110722D01*
X136370140Y-114209887D01*
X136628726Y-114210112D01*
X136867714Y-114111364D01*
X137050722Y-113928676D01*
X137149887Y-113689860D01*
X137150112Y-113431274D01*
X137051364Y-113192286D01*
X136868676Y-113009278D01*
X136629860Y-112910113D01*
X136557155Y-112910049D01*
X136131713Y-112484607D01*
X136037237Y-112421479D01*
X136037237Y-112388580D01*
X136011344Y-112255126D01*
X135960846Y-112178253D01*
X135980380Y-112131094D01*
X135980380Y-111921630D01*
X135905380Y-111846630D01*
X135430190Y-111846630D01*
X135430190Y-111991840D01*
X134929810Y-111991840D01*
X134929810Y-111846630D01*
X134860000Y-111846630D01*
X134860000Y-111397050D01*
X134929810Y-111397050D01*
X134929810Y-111251840D01*
X135430190Y-111251840D01*
X135430190Y-111397050D01*
X135905380Y-111397050D01*
X135980380Y-111322050D01*
X135980380Y-111112586D01*
X135934708Y-111002323D01*
X135850316Y-110917932D01*
X135807065Y-110900017D01*
X135813834Y-110898704D01*
X135931127Y-110821654D01*
X135963875Y-110773138D01*
X136041324Y-110850722D01*
X136280140Y-110949887D01*
X136538726Y-110950112D01*
X136777714Y-110851364D01*
X136960722Y-110668676D01*
X137059887Y-110429860D01*
X137060112Y-110171274D01*
X137014134Y-110060000D01*
X137800000Y-110060000D01*
X137800000Y-110059999D01*
X137991342Y-110021940D01*
X138153553Y-109913553D01*
X138647056Y-109420049D01*
X138718726Y-109420112D01*
X138957714Y-109321364D01*
X139140722Y-109138676D01*
X139239887Y-108899860D01*
X139240112Y-108641274D01*
X139141364Y-108402286D01*
X138958676Y-108219278D01*
X138741420Y-108129065D01*
X138741420Y-102660053D01*
X138741420Y-102540706D01*
X138741420Y-102425190D01*
X138741420Y-101774810D01*
X138741420Y-101659294D01*
X138741420Y-101539947D01*
X138695748Y-101429684D01*
X138611357Y-101345292D01*
X138501094Y-101299620D01*
X138291630Y-101299620D01*
X138216630Y-101374620D01*
X138216630Y-101849810D01*
X138666420Y-101849810D01*
X138741420Y-101774810D01*
X138741420Y-102425190D01*
X138666420Y-102350190D01*
X138216630Y-102350190D01*
X138216630Y-102825380D01*
X138291630Y-102900380D01*
X138501094Y-102900380D01*
X138611357Y-102854708D01*
X138695748Y-102770316D01*
X138741420Y-102660053D01*
X138741420Y-108129065D01*
X138719860Y-108120113D01*
X138461274Y-108119888D01*
X138222286Y-108218636D01*
X138039278Y-108401324D01*
X137940113Y-108640140D01*
X137940049Y-108712843D01*
X137592893Y-109060000D01*
X136410000Y-109060000D01*
X136218658Y-109098060D01*
X136056446Y-109206447D01*
X135980380Y-109282513D01*
X135980380Y-109191630D01*
X135905380Y-109116630D01*
X135430190Y-109116630D01*
X135430190Y-109261840D01*
X134929810Y-109261840D01*
X134929810Y-109116630D01*
X134810000Y-109116630D01*
X134810000Y-108667050D01*
X134929810Y-108667050D01*
X134929810Y-108521840D01*
X135430190Y-108521840D01*
X135430190Y-108667050D01*
X135905380Y-108667050D01*
X135980380Y-108592050D01*
X135980380Y-108382586D01*
X135934708Y-108272323D01*
X135850316Y-108187932D01*
X135807065Y-108170017D01*
X135813834Y-108168704D01*
X135931127Y-108091654D01*
X136009643Y-107975337D01*
X136027125Y-107888160D01*
X136261840Y-107888160D01*
X136261840Y-107888159D01*
X136271400Y-107886258D01*
X136280140Y-107889887D01*
X136538726Y-107890112D01*
X136777714Y-107791364D01*
X136960722Y-107608676D01*
X137059887Y-107369860D01*
X137060112Y-107111274D01*
X136990000Y-106941590D01*
X136990000Y-104467106D01*
X137593553Y-103863554D01*
X137593553Y-103863553D01*
X137701940Y-103701342D01*
X137739999Y-103510000D01*
X137740000Y-103510000D01*
X137740000Y-102852430D01*
X137767050Y-102825380D01*
X137767050Y-102350190D01*
X137740000Y-102350190D01*
X137740000Y-101849810D01*
X137767050Y-101849810D01*
X137767050Y-101374620D01*
X137740000Y-101347570D01*
X137740000Y-99044245D01*
X137740000Y-99044244D01*
X137741940Y-99041342D01*
X137741940Y-99041341D01*
X137780000Y-98850000D01*
X137780000Y-98819309D01*
X137830722Y-98768676D01*
X137840171Y-98745919D01*
X137970140Y-98799887D01*
X138042844Y-98799950D01*
X139480000Y-100237106D01*
X139480000Y-102020000D01*
X139518060Y-102211342D01*
X139626447Y-102373553D01*
X139864607Y-102611713D01*
X139962763Y-102677299D01*
X139962763Y-102707740D01*
X139988656Y-102841194D01*
X140065706Y-102958487D01*
X140182023Y-103037003D01*
X140194278Y-103039460D01*
X140149684Y-103057932D01*
X140065292Y-103142323D01*
X140019620Y-103252586D01*
X140019620Y-103462050D01*
X140094620Y-103537050D01*
X140569810Y-103537050D01*
X140569810Y-103391840D01*
X141070190Y-103391840D01*
X141070190Y-103537050D01*
X141545380Y-103537050D01*
X141620380Y-103462050D01*
X141620380Y-103252586D01*
X141574708Y-103142323D01*
X141490316Y-103057932D01*
X141447065Y-103040017D01*
X141453834Y-103038704D01*
X141571127Y-102961654D01*
X141649643Y-102845337D01*
X141666774Y-102759910D01*
X141898726Y-102760112D01*
X142137714Y-102661364D01*
X142320722Y-102478676D01*
X142419887Y-102239860D01*
X142420112Y-101981274D01*
X142321364Y-101742286D01*
X142138676Y-101559278D01*
X141899860Y-101460113D01*
X141641274Y-101459888D01*
X141620380Y-101468521D01*
X141620380Y-100971094D01*
X141620380Y-100761630D01*
X141545380Y-100686630D01*
X141070190Y-100686630D01*
X141070190Y-101136420D01*
X141145190Y-101211420D01*
X141260706Y-101211420D01*
X141380053Y-101211420D01*
X141490316Y-101165748D01*
X141574708Y-101081357D01*
X141620380Y-100971094D01*
X141620380Y-101468521D01*
X141509720Y-101514244D01*
X141457977Y-101479317D01*
X141320380Y-101451723D01*
X140480000Y-101451723D01*
X140480000Y-101211420D01*
X140494810Y-101211420D01*
X140569810Y-101136420D01*
X140569810Y-100686630D01*
X140480000Y-100686630D01*
X140480000Y-100237050D01*
X140569810Y-100237050D01*
X140569810Y-100091840D01*
X141070190Y-100091840D01*
X141070190Y-100237050D01*
X141545380Y-100237050D01*
X141620380Y-100162050D01*
X141620380Y-99952586D01*
X141574708Y-99842323D01*
X141490316Y-99757932D01*
X141447065Y-99740017D01*
X141453834Y-99738704D01*
X141571127Y-99661654D01*
X141605967Y-99610039D01*
X141688726Y-99610112D01*
X141927714Y-99511364D01*
X142110722Y-99328676D01*
X142209887Y-99089860D01*
X142209895Y-99080000D01*
X143890000Y-99080000D01*
X143890000Y-99079999D01*
X144081342Y-99041940D01*
X144243553Y-98933553D01*
X144649869Y-98527237D01*
X145081420Y-98527237D01*
X145214874Y-98501344D01*
X145332167Y-98424294D01*
X145410683Y-98307977D01*
X145438277Y-98170380D01*
X145438277Y-97169620D01*
X145412384Y-97036166D01*
X145335334Y-96918873D01*
X145219017Y-96840357D01*
X145081420Y-96812763D01*
X144182260Y-96812763D01*
X144048806Y-96838656D01*
X143931513Y-96915706D01*
X143852997Y-97032023D01*
X143850539Y-97044278D01*
X143832068Y-96999684D01*
X143747677Y-96915292D01*
X143637414Y-96869620D01*
X143478162Y-96869620D01*
X143431892Y-96869620D01*
X143446857Y-96795000D01*
X143446857Y-95045000D01*
X143420964Y-94911546D01*
X143343914Y-94794253D01*
X143300000Y-94764610D01*
X143300000Y-94439309D01*
X143350722Y-94388676D01*
X143449887Y-94149860D01*
X143450104Y-93900000D01*
X143662893Y-93900000D01*
X144050000Y-94287106D01*
X144050000Y-94730690D01*
X143999278Y-94781324D01*
X143900113Y-95020140D01*
X143899888Y-95278726D01*
X143998636Y-95517714D01*
X144181324Y-95700722D01*
X144420140Y-95799887D01*
X144678726Y-95800112D01*
X144917714Y-95701364D01*
X145100722Y-95518676D01*
X145199887Y-95279860D01*
X145200112Y-95021274D01*
X145101364Y-94782286D01*
X145050000Y-94730832D01*
X145050000Y-94080000D01*
X145011940Y-93888658D01*
X144903553Y-93726447D01*
X144903553Y-93726446D01*
X144223553Y-93046447D01*
X144099332Y-92963444D01*
X144129887Y-92889860D01*
X144130112Y-92631274D01*
X144031364Y-92392286D01*
X143848676Y-92209278D01*
X143609860Y-92110113D01*
X143351274Y-92109888D01*
X143112286Y-92208636D01*
X143060832Y-92260000D01*
X138130000Y-92260000D01*
X137938658Y-92298060D01*
X137776447Y-92406447D01*
X137668060Y-92568658D01*
X137630000Y-92760000D01*
X137630000Y-92579309D01*
X137680722Y-92528676D01*
X137779887Y-92289860D01*
X137780112Y-92031274D01*
X137681364Y-91792286D01*
X137498676Y-91609278D01*
X137259860Y-91510113D01*
X137010000Y-91509895D01*
X137010000Y-91209309D01*
X137060722Y-91158676D01*
X137159887Y-90919860D01*
X137160112Y-90661274D01*
X137122398Y-90570000D01*
X138860690Y-90570000D01*
X138911324Y-90620722D01*
X139150140Y-90719887D01*
X139408726Y-90720112D01*
X139647714Y-90621364D01*
X139830722Y-90438676D01*
X139929887Y-90199860D01*
X139930112Y-89941274D01*
X139855210Y-89760000D01*
X141460000Y-89760000D01*
X141533143Y-89745451D01*
X141533143Y-90295000D01*
X141559036Y-90428454D01*
X141636086Y-90545747D01*
X141752403Y-90624263D01*
X141890000Y-90651857D01*
X143090000Y-90651857D01*
X143223454Y-90625964D01*
X143340747Y-90548914D01*
X143419263Y-90432597D01*
X143446857Y-90295000D01*
X143446857Y-88545000D01*
X143420964Y-88411546D01*
X143343914Y-88294253D01*
X143227597Y-88215737D01*
X143090000Y-88188143D01*
X142256095Y-88188143D01*
X142463880Y-87877172D01*
X142540000Y-87494489D01*
X142540000Y-86945511D01*
X142463880Y-86562828D01*
X142247107Y-86238404D01*
X141922683Y-86021631D01*
X141540000Y-85945511D01*
X141157317Y-86021631D01*
X140832893Y-86238404D01*
X140616120Y-86562828D01*
X140540000Y-86945511D01*
X140540000Y-87494489D01*
X140616120Y-87877172D01*
X140832893Y-88201596D01*
X140960000Y-88286526D01*
X140960000Y-88760000D01*
X139064298Y-88760000D01*
X139064298Y-87714473D01*
X139064298Y-86725527D01*
X138901907Y-86398077D01*
X138626567Y-86157697D01*
X138620644Y-86139153D01*
X138485000Y-86157596D01*
X138485000Y-86870000D01*
X139016409Y-86870000D01*
X139064298Y-86725527D01*
X139064298Y-87714473D01*
X139016409Y-87570000D01*
X138485000Y-87570000D01*
X138485000Y-88282404D01*
X138620644Y-88300847D01*
X138626567Y-88282303D01*
X138901907Y-88041923D01*
X139064298Y-87714473D01*
X139064298Y-88760000D01*
X137835000Y-88760000D01*
X137835000Y-88282404D01*
X137835000Y-87570000D01*
X137790000Y-87570000D01*
X137790000Y-86870000D01*
X137835000Y-86870000D01*
X137835000Y-86157596D01*
X137699356Y-86139153D01*
X137693433Y-86157697D01*
X137418093Y-86398077D01*
X137390701Y-86453309D01*
X137247107Y-86238404D01*
X136922683Y-86021631D01*
X136540000Y-85945511D01*
X136157317Y-86021631D01*
X135832893Y-86238404D01*
X135616120Y-86562828D01*
X135540000Y-86945511D01*
X135540000Y-87494489D01*
X135616120Y-87877172D01*
X135832893Y-88201596D01*
X136157317Y-88418369D01*
X136540000Y-88494489D01*
X136922683Y-88418369D01*
X137247107Y-88201596D01*
X137390701Y-87986690D01*
X137418093Y-88041923D01*
X137693433Y-88282303D01*
X137699356Y-88300847D01*
X137835000Y-88282404D01*
X137835000Y-88760000D01*
X136929309Y-88760000D01*
X136878676Y-88709278D01*
X136639860Y-88610113D01*
X136381274Y-88609888D01*
X136142286Y-88708636D01*
X135959278Y-88891324D01*
X135860113Y-89130140D01*
X135859888Y-89388726D01*
X135942019Y-89587500D01*
X135838658Y-89608060D01*
X135676446Y-89716447D01*
X135286447Y-90106447D01*
X135178060Y-90268658D01*
X135140000Y-90460000D01*
X135140000Y-92450690D01*
X135089278Y-92501324D01*
X134990113Y-92740140D01*
X134989888Y-92998726D01*
X135088636Y-93237714D01*
X135271324Y-93420722D01*
X135510140Y-93519887D01*
X135768726Y-93520112D01*
X136007714Y-93421364D01*
X136010000Y-93419081D01*
X136010000Y-95540171D01*
X136009860Y-95540113D01*
X135751274Y-95539888D01*
X135512286Y-95638636D01*
X135329278Y-95821324D01*
X135230113Y-96060140D01*
X135229888Y-96318726D01*
X135328636Y-96557714D01*
X135380000Y-96609167D01*
X135380000Y-97389620D01*
X135221630Y-97389620D01*
X135146630Y-97464620D01*
X135146630Y-97939810D01*
X135291840Y-97939810D01*
X135291840Y-98440190D01*
X135146630Y-98440190D01*
X135146630Y-98915380D01*
X135221630Y-98990380D01*
X135380000Y-98990380D01*
X135380000Y-101002893D01*
X135140130Y-101242763D01*
X134782260Y-101242763D01*
X134648806Y-101268656D01*
X134531513Y-101345706D01*
X134479850Y-101422241D01*
X134431654Y-101348873D01*
X134315337Y-101270357D01*
X134177740Y-101242763D01*
X133278580Y-101242763D01*
X133145126Y-101268656D01*
X133045050Y-101334395D01*
X132961094Y-101299620D01*
X132751630Y-101299620D01*
X132676630Y-101374620D01*
X132676630Y-101849810D01*
X132821840Y-101849810D01*
X132821840Y-102350190D01*
X132676630Y-102350190D01*
X132676630Y-102470000D01*
X132227050Y-102470000D01*
X132227050Y-102350190D01*
X132081840Y-102350190D01*
X132081840Y-101849810D01*
X132227050Y-101849810D01*
X132227050Y-101374620D01*
X132152050Y-101299620D01*
X131942586Y-101299620D01*
X131832323Y-101345292D01*
X131747932Y-101429684D01*
X131730017Y-101472934D01*
X131728704Y-101466166D01*
X131651654Y-101348873D01*
X131535337Y-101270357D01*
X131397740Y-101242763D01*
X130729869Y-101242763D01*
X130720049Y-101232943D01*
X130720112Y-101161274D01*
X130621364Y-100922286D01*
X130438676Y-100739278D01*
X130199860Y-100640113D01*
X129941274Y-100639888D01*
X129702286Y-100738636D01*
X129519278Y-100921324D01*
X129420113Y-101160140D01*
X129419888Y-101418726D01*
X129515448Y-101650000D01*
X129220378Y-101650000D01*
X129117517Y-101580567D01*
X128979920Y-101552973D01*
X127580000Y-101552973D01*
X127580000Y-100280002D01*
X127541940Y-100088660D01*
X127433554Y-99926449D01*
X126987104Y-99480000D01*
X131522894Y-99480000D01*
X131659950Y-99617056D01*
X131659888Y-99688726D01*
X131758636Y-99927714D01*
X131941324Y-100110722D01*
X132180140Y-100209887D01*
X132438726Y-100210112D01*
X132677714Y-100111364D01*
X132860722Y-99928676D01*
X132878760Y-99885235D01*
X132948658Y-99931940D01*
X133140000Y-99970000D01*
X133480690Y-99970000D01*
X133531324Y-100020722D01*
X133770140Y-100119887D01*
X134028726Y-100120112D01*
X134267714Y-100021364D01*
X134450722Y-99838676D01*
X134549887Y-99599860D01*
X134550112Y-99341274D01*
X134451364Y-99102286D01*
X134268676Y-98919278D01*
X134164556Y-98876044D01*
X134197003Y-98827977D01*
X134199460Y-98815721D01*
X134217932Y-98860316D01*
X134302323Y-98944708D01*
X134412586Y-98990380D01*
X134622050Y-98990380D01*
X134697050Y-98915380D01*
X134697050Y-98440190D01*
X134551840Y-98440190D01*
X134551840Y-97939810D01*
X134697050Y-97939810D01*
X134697050Y-97586684D01*
X134697050Y-97586683D01*
X134741940Y-97519502D01*
X134780000Y-97328160D01*
X134780000Y-91270000D01*
X134741940Y-91078659D01*
X134741940Y-91078658D01*
X134698526Y-91013685D01*
X134633554Y-90916447D01*
X134300049Y-90582943D01*
X134300112Y-90511274D01*
X134201364Y-90272286D01*
X134159168Y-90230016D01*
X134268726Y-90230112D01*
X134507714Y-90131364D01*
X134690722Y-89948676D01*
X134789887Y-89709860D01*
X134790112Y-89451274D01*
X134691364Y-89212286D01*
X134508676Y-89029278D01*
X134269860Y-88930113D01*
X134160000Y-88930017D01*
X134160000Y-87494489D01*
X134160000Y-86945511D01*
X134083880Y-86562828D01*
X133867107Y-86238404D01*
X133542683Y-86021631D01*
X133160000Y-85945511D01*
X132777317Y-86021631D01*
X132452893Y-86238404D01*
X132236120Y-86562828D01*
X132160000Y-86945511D01*
X132160000Y-87494489D01*
X132236120Y-87877172D01*
X132452893Y-88201596D01*
X132777317Y-88418369D01*
X133160000Y-88494489D01*
X133542683Y-88418369D01*
X133867107Y-88201596D01*
X134083880Y-87877172D01*
X134160000Y-87494489D01*
X134160000Y-88930017D01*
X134011274Y-88929888D01*
X133772286Y-89028636D01*
X133730849Y-89070000D01*
X130604298Y-89070000D01*
X130604298Y-87714473D01*
X130604298Y-86725527D01*
X130441907Y-86398077D01*
X130166567Y-86157697D01*
X130160644Y-86139153D01*
X130025000Y-86157596D01*
X130025000Y-86870000D01*
X130556409Y-86870000D01*
X130604298Y-86725527D01*
X130604298Y-87714473D01*
X130556409Y-87570000D01*
X130025000Y-87570000D01*
X130025000Y-88282404D01*
X130160644Y-88300847D01*
X130166567Y-88282303D01*
X130441907Y-88041923D01*
X130604298Y-87714473D01*
X130604298Y-89070000D01*
X129375000Y-89070000D01*
X129375000Y-88282404D01*
X129375000Y-87570000D01*
X129330000Y-87570000D01*
X129330000Y-86870000D01*
X129375000Y-86870000D01*
X129375000Y-86157596D01*
X129239356Y-86139153D01*
X129233433Y-86157697D01*
X128968011Y-86389418D01*
X128867107Y-86238404D01*
X128542683Y-86021631D01*
X128160000Y-85945511D01*
X127777317Y-86021631D01*
X127452893Y-86238404D01*
X127236120Y-86562828D01*
X127160000Y-86945511D01*
X127160000Y-87494489D01*
X127236120Y-87877172D01*
X127452893Y-88201596D01*
X127777317Y-88418369D01*
X128160000Y-88494489D01*
X128542683Y-88418369D01*
X128867107Y-88201596D01*
X128968011Y-88050581D01*
X129233433Y-88282303D01*
X129239356Y-88300847D01*
X129375000Y-88282404D01*
X129375000Y-89070000D01*
X127959309Y-89070000D01*
X127908676Y-89019278D01*
X127669860Y-88920113D01*
X127411274Y-88919888D01*
X127332829Y-88952300D01*
X127332408Y-88951284D01*
X127248017Y-88866892D01*
X127137754Y-88821220D01*
X126953690Y-88821220D01*
X126878690Y-88896220D01*
X126878690Y-89320610D01*
X126939746Y-89320610D01*
X126890113Y-89440140D01*
X126889888Y-89698726D01*
X126898426Y-89719390D01*
X126878690Y-89719390D01*
X126878690Y-90143780D01*
X126953690Y-90218780D01*
X127137754Y-90218780D01*
X127248017Y-90173108D01*
X127262530Y-90158594D01*
X127410140Y-90219887D01*
X127668726Y-90220112D01*
X127907714Y-90121364D01*
X127959167Y-90070000D01*
X133327388Y-90070000D01*
X133282286Y-90088636D01*
X133099278Y-90271324D01*
X133000113Y-90510140D01*
X132999888Y-90768726D01*
X133098636Y-91007714D01*
X133160813Y-91070000D01*
X127969309Y-91070000D01*
X127918676Y-91019278D01*
X127679860Y-90920113D01*
X127421274Y-90919888D01*
X127300793Y-90969669D01*
X127248017Y-90916892D01*
X127137754Y-90871220D01*
X126953690Y-90871220D01*
X126878690Y-90946220D01*
X126878690Y-91370610D01*
X126928984Y-91370610D01*
X126900113Y-91440140D01*
X126899888Y-91698726D01*
X126929085Y-91769390D01*
X126878690Y-91769390D01*
X126878690Y-92193780D01*
X126953690Y-92268780D01*
X127137754Y-92268780D01*
X127248017Y-92223108D01*
X127300794Y-92170330D01*
X127420140Y-92219887D01*
X127678726Y-92220112D01*
X127917714Y-92121364D01*
X127969167Y-92070000D01*
X130942893Y-92070000D01*
X130816450Y-92196443D01*
X130816447Y-92196446D01*
X130262943Y-92749950D01*
X130191274Y-92749888D01*
X129974139Y-92839606D01*
X129962408Y-92811284D01*
X129878017Y-92726892D01*
X129767754Y-92681220D01*
X129583690Y-92681220D01*
X129508690Y-92756220D01*
X129508690Y-93180610D01*
X129679300Y-93180610D01*
X129679300Y-93248015D01*
X129670113Y-93270140D01*
X129669888Y-93528726D01*
X129679300Y-93551505D01*
X129679300Y-93579390D01*
X129508690Y-93579390D01*
X129508690Y-94003780D01*
X129549910Y-94045000D01*
X129498690Y-94096220D01*
X129498690Y-94520610D01*
X129923080Y-94520610D01*
X129998080Y-94445610D01*
X129998080Y-94380894D01*
X129998080Y-94261547D01*
X129952408Y-94151284D01*
X129868017Y-94066892D01*
X129832235Y-94052071D01*
X129878017Y-94033108D01*
X129957738Y-93953385D01*
X130190140Y-94049887D01*
X130448726Y-94050112D01*
X130687714Y-93951364D01*
X130870722Y-93768676D01*
X130969887Y-93529860D01*
X130969950Y-93457156D01*
X131523553Y-92903553D01*
X131523554Y-92903553D01*
X131523556Y-92903549D01*
X131752347Y-92674759D01*
X131750113Y-92680140D01*
X131749888Y-92938726D01*
X131848636Y-93177714D01*
X132031324Y-93360722D01*
X132270140Y-93459887D01*
X132342844Y-93459950D01*
X133329998Y-94447104D01*
X133329998Y-96870000D01*
X132840000Y-96870000D01*
X132648658Y-96908060D01*
X132583685Y-96951473D01*
X132486447Y-97016446D01*
X132286447Y-97216447D01*
X132178060Y-97378658D01*
X132140000Y-97570000D01*
X132140000Y-98682894D01*
X132083553Y-98626447D01*
X131921342Y-98518060D01*
X131730000Y-98480000D01*
X129998080Y-98480000D01*
X129998080Y-95178453D01*
X129998080Y-95059106D01*
X129998080Y-94994390D01*
X129923080Y-94919390D01*
X129498690Y-94919390D01*
X129498690Y-95343780D01*
X129514910Y-95360000D01*
X129488690Y-95386220D01*
X129488690Y-95810610D01*
X129913080Y-95810610D01*
X129988080Y-95735610D01*
X129988080Y-95670894D01*
X129988080Y-95551547D01*
X129942408Y-95441284D01*
X129871124Y-95370000D01*
X129952408Y-95288716D01*
X129998080Y-95178453D01*
X129998080Y-98480000D01*
X129988080Y-98480000D01*
X129988080Y-97798453D01*
X129988080Y-97679106D01*
X129988080Y-97614390D01*
X129988080Y-97065610D01*
X129988080Y-97000894D01*
X129988080Y-96881547D01*
X129942408Y-96771284D01*
X129858017Y-96686892D01*
X129829306Y-96675000D01*
X129858017Y-96663108D01*
X129942408Y-96578716D01*
X129988080Y-96468453D01*
X129988080Y-96349106D01*
X129988080Y-96284390D01*
X129913080Y-96209390D01*
X129488690Y-96209390D01*
X129488690Y-96633780D01*
X129529910Y-96675000D01*
X129488690Y-96716220D01*
X129488690Y-97140610D01*
X129913080Y-97140610D01*
X129988080Y-97065610D01*
X129988080Y-97614390D01*
X129913080Y-97539390D01*
X129488690Y-97539390D01*
X129488690Y-97963780D01*
X129563690Y-98038780D01*
X129747754Y-98038780D01*
X129858017Y-97993108D01*
X129942408Y-97908716D01*
X129988080Y-97798453D01*
X129988080Y-98480000D01*
X129195676Y-98480000D01*
X129199887Y-98469860D01*
X129200112Y-98211274D01*
X129109910Y-97992968D01*
X129109910Y-94003780D01*
X129109910Y-93579390D01*
X129109910Y-93180610D01*
X129109910Y-92756220D01*
X129034910Y-92681220D01*
X128850846Y-92681220D01*
X128740583Y-92726892D01*
X128656192Y-92811284D01*
X128610520Y-92921547D01*
X128610520Y-93040894D01*
X128610520Y-93105610D01*
X128685520Y-93180610D01*
X129109910Y-93180610D01*
X129109910Y-93579390D01*
X128685520Y-93579390D01*
X128610520Y-93654390D01*
X128610520Y-93719106D01*
X128610520Y-93838453D01*
X128656192Y-93948716D01*
X128740583Y-94033108D01*
X128776364Y-94047928D01*
X128730583Y-94066892D01*
X128646192Y-94151284D01*
X128600520Y-94261547D01*
X128600520Y-94380894D01*
X128600520Y-94445610D01*
X128675520Y-94520610D01*
X129099910Y-94520610D01*
X129099910Y-94096220D01*
X129058690Y-94055000D01*
X129109910Y-94003780D01*
X129109910Y-97992968D01*
X129101364Y-97972286D01*
X129099910Y-97970829D01*
X129099910Y-95343780D01*
X129099910Y-94919390D01*
X128675520Y-94919390D01*
X128600520Y-94994390D01*
X128600520Y-95059106D01*
X128600520Y-95178453D01*
X128646192Y-95288716D01*
X128717475Y-95359999D01*
X128636192Y-95441284D01*
X128590520Y-95551547D01*
X128590520Y-95670894D01*
X128590520Y-95735610D01*
X128665520Y-95810610D01*
X129089910Y-95810610D01*
X129089910Y-95386220D01*
X129073690Y-95370000D01*
X129099910Y-95343780D01*
X129099910Y-97970829D01*
X129089910Y-97960811D01*
X129089910Y-97539390D01*
X129089910Y-97140610D01*
X129089910Y-96716220D01*
X129048690Y-96675000D01*
X129089910Y-96633780D01*
X129089910Y-96209390D01*
X128665520Y-96209390D01*
X128590520Y-96284390D01*
X128590520Y-96349106D01*
X128590520Y-96468453D01*
X128636192Y-96578716D01*
X128720583Y-96663108D01*
X128749293Y-96675000D01*
X128720583Y-96686892D01*
X128636192Y-96771284D01*
X128590520Y-96881547D01*
X128590520Y-97000894D01*
X128590520Y-97065610D01*
X128665520Y-97140610D01*
X129089910Y-97140610D01*
X129089910Y-97539390D01*
X128665520Y-97539390D01*
X128590520Y-97614390D01*
X128590520Y-97679106D01*
X128590520Y-97690035D01*
X128546337Y-97689996D01*
X128546337Y-96941220D01*
X128520444Y-96807766D01*
X128443394Y-96690473D01*
X128420975Y-96675340D01*
X128440227Y-96662694D01*
X128518743Y-96546377D01*
X128546337Y-96408780D01*
X128546337Y-95611220D01*
X128520444Y-95477766D01*
X128450832Y-95371796D01*
X128528743Y-95256377D01*
X128556337Y-95118780D01*
X128556337Y-94321220D01*
X128530444Y-94187766D01*
X128453394Y-94070473D01*
X128428399Y-94053601D01*
X128460227Y-94032694D01*
X128538743Y-93916377D01*
X128566337Y-93778780D01*
X128566337Y-92981220D01*
X128540444Y-92847766D01*
X128463394Y-92730473D01*
X128347077Y-92651957D01*
X128209480Y-92624363D01*
X127411920Y-92624363D01*
X127278466Y-92650256D01*
X127161173Y-92727306D01*
X127126566Y-92778573D01*
X127009860Y-92730113D01*
X126751274Y-92729888D01*
X126512286Y-92828636D01*
X126479910Y-92860955D01*
X126479910Y-92193780D01*
X126479910Y-91769390D01*
X126479910Y-91370610D01*
X126479910Y-90946220D01*
X126479910Y-90143780D01*
X126479910Y-89719390D01*
X126479910Y-89320610D01*
X126479910Y-88896220D01*
X126404910Y-88821220D01*
X126220846Y-88821220D01*
X126110583Y-88866892D01*
X126026192Y-88951284D01*
X125980520Y-89061547D01*
X125980520Y-89180894D01*
X125980520Y-89245610D01*
X126055520Y-89320610D01*
X126479910Y-89320610D01*
X126479910Y-89719390D01*
X126055520Y-89719390D01*
X125980520Y-89794390D01*
X125980520Y-89859106D01*
X125980520Y-89978453D01*
X126026192Y-90088716D01*
X126110583Y-90173108D01*
X126220846Y-90218780D01*
X126404910Y-90218780D01*
X126479910Y-90143780D01*
X126479910Y-90946220D01*
X126404910Y-90871220D01*
X126220846Y-90871220D01*
X126110583Y-90916892D01*
X126026192Y-91001284D01*
X125980520Y-91111547D01*
X125980520Y-91230894D01*
X125980520Y-91295610D01*
X126055520Y-91370610D01*
X126479910Y-91370610D01*
X126479910Y-91769390D01*
X126055520Y-91769390D01*
X125980520Y-91844390D01*
X125980520Y-91909106D01*
X125980520Y-92028453D01*
X126026192Y-92138716D01*
X126110583Y-92223108D01*
X126220846Y-92268780D01*
X126404910Y-92268780D01*
X126479910Y-92193780D01*
X126479910Y-92860955D01*
X126329278Y-93011324D01*
X126230113Y-93250140D01*
X126229888Y-93508726D01*
X126328636Y-93747714D01*
X126511324Y-93930722D01*
X126750140Y-94029887D01*
X127008726Y-94030112D01*
X127126439Y-93981473D01*
X127158006Y-94029527D01*
X127183000Y-94046398D01*
X127151173Y-94067306D01*
X127120944Y-94112087D01*
X127019860Y-94070113D01*
X126761274Y-94069888D01*
X126522286Y-94168636D01*
X126339278Y-94351324D01*
X126240113Y-94590140D01*
X126239888Y-94848726D01*
X126338636Y-95087714D01*
X126521324Y-95270722D01*
X126748635Y-95365110D01*
X126522286Y-95458636D01*
X126339278Y-95641324D01*
X126240113Y-95880140D01*
X126239888Y-96138726D01*
X126338636Y-96377714D01*
X126410735Y-96449939D01*
X126369278Y-96491324D01*
X126270113Y-96730140D01*
X126269888Y-96988726D01*
X126368636Y-97227714D01*
X126551324Y-97410722D01*
X126790140Y-97509887D01*
X127035063Y-97510100D01*
X127035063Y-97738780D01*
X127054701Y-97840000D01*
X125936337Y-97840000D01*
X125936337Y-91968780D01*
X125936337Y-91171220D01*
X125910444Y-91037766D01*
X125833394Y-90920473D01*
X125717077Y-90841957D01*
X125716054Y-90841751D01*
X125799887Y-90639860D01*
X125800112Y-90381274D01*
X125738756Y-90232781D01*
X125830227Y-90172694D01*
X125908743Y-90056377D01*
X125936337Y-89918780D01*
X125936337Y-89121220D01*
X125910444Y-88987766D01*
X125833394Y-88870473D01*
X125717077Y-88791957D01*
X125579480Y-88764363D01*
X124781920Y-88764363D01*
X124726857Y-88775046D01*
X124726857Y-88489146D01*
X125082683Y-88418369D01*
X125407107Y-88201596D01*
X125623880Y-87877172D01*
X125700000Y-87494489D01*
X125700000Y-86945511D01*
X125623880Y-86562828D01*
X125407107Y-86238404D01*
X125082683Y-86021631D01*
X124700000Y-85945511D01*
X124317317Y-86021631D01*
X123992893Y-86238404D01*
X123776120Y-86562828D01*
X123700000Y-86945511D01*
X123700000Y-87494489D01*
X123776120Y-87877172D01*
X123870313Y-88018143D01*
X123170000Y-88018143D01*
X123036546Y-88044036D01*
X122919253Y-88121086D01*
X122840737Y-88237403D01*
X122813143Y-88375000D01*
X122813143Y-90125000D01*
X122839036Y-90258454D01*
X122916086Y-90375747D01*
X123032403Y-90454263D01*
X123170000Y-90481857D01*
X124370000Y-90481857D01*
X124500046Y-90456625D01*
X124499888Y-90638726D01*
X124597100Y-90873998D01*
X124531173Y-90917306D01*
X124452657Y-91033623D01*
X124425063Y-91171220D01*
X124425063Y-91968780D01*
X124450956Y-92102234D01*
X124528006Y-92219527D01*
X124601202Y-92268936D01*
X124530113Y-92440140D01*
X124529888Y-92698726D01*
X124628636Y-92937714D01*
X124811324Y-93120722D01*
X125050140Y-93219887D01*
X125308726Y-93220112D01*
X125547714Y-93121364D01*
X125730722Y-92938676D01*
X125829887Y-92699860D01*
X125830112Y-92441274D01*
X125759101Y-92269416D01*
X125830227Y-92222694D01*
X125908743Y-92106377D01*
X125936337Y-91968780D01*
X125936337Y-97840000D01*
X125389309Y-97840000D01*
X125338676Y-97789278D01*
X125099860Y-97690113D01*
X124841274Y-97689888D01*
X124670000Y-97760657D01*
X124670000Y-96684674D01*
X124670000Y-96175000D01*
X124670000Y-95325000D01*
X124670000Y-94815326D01*
X124624328Y-94705063D01*
X124539936Y-94620672D01*
X124429673Y-94575000D01*
X124310326Y-94575000D01*
X124145000Y-94575000D01*
X124070000Y-94650000D01*
X124070000Y-95400000D01*
X124595000Y-95400000D01*
X124670000Y-95325000D01*
X124670000Y-96175000D01*
X124595000Y-96100000D01*
X124070000Y-96100000D01*
X124070000Y-96850000D01*
X124145000Y-96925000D01*
X124310326Y-96925000D01*
X124429673Y-96925000D01*
X124539936Y-96879328D01*
X124624328Y-96794937D01*
X124670000Y-96684674D01*
X124670000Y-97760657D01*
X124602286Y-97788636D01*
X124419278Y-97971324D01*
X124320113Y-98210140D01*
X124319888Y-98468726D01*
X124324546Y-98480000D01*
X123697106Y-98480000D01*
X123540049Y-98322943D01*
X123540112Y-98251274D01*
X123470000Y-98081590D01*
X123470000Y-96850000D01*
X123470000Y-96100000D01*
X123470000Y-95400000D01*
X123470000Y-94650000D01*
X123395000Y-94575000D01*
X123229674Y-94575000D01*
X123110327Y-94575000D01*
X123000064Y-94620672D01*
X122915672Y-94705063D01*
X122870000Y-94815326D01*
X122870000Y-95325000D01*
X122945000Y-95400000D01*
X123470000Y-95400000D01*
X123470000Y-96100000D01*
X122945000Y-96100000D01*
X122870000Y-96175000D01*
X122870000Y-96684674D01*
X122915672Y-96794937D01*
X123000064Y-96879328D01*
X123110327Y-96925000D01*
X123229674Y-96925000D01*
X123395000Y-96925000D01*
X123470000Y-96850000D01*
X123470000Y-98081590D01*
X123441364Y-98012286D01*
X123258676Y-97829278D01*
X123019860Y-97730113D01*
X122761274Y-97729888D01*
X122522286Y-97828636D01*
X122389938Y-97960752D01*
X122268676Y-97839278D01*
X122029860Y-97740113D01*
X121771274Y-97739888D01*
X121532286Y-97838636D01*
X121349278Y-98021324D01*
X121300112Y-98139728D01*
X121300112Y-93341274D01*
X121201364Y-93102286D01*
X121018676Y-92919278D01*
X120779860Y-92820113D01*
X120726857Y-92820066D01*
X120726857Y-90125000D01*
X120726857Y-88375000D01*
X120700964Y-88241546D01*
X120623914Y-88124253D01*
X120510113Y-88047435D01*
X120623880Y-87877172D01*
X120700000Y-87494489D01*
X120700000Y-86945511D01*
X120623880Y-86562828D01*
X120407107Y-86238404D01*
X120082683Y-86021631D01*
X119700000Y-85945511D01*
X119317317Y-86021631D01*
X118992893Y-86238404D01*
X118776120Y-86562828D01*
X118700000Y-86945511D01*
X118700000Y-87494489D01*
X118776120Y-87877172D01*
X118933044Y-88112026D01*
X118919253Y-88121086D01*
X118840737Y-88237403D01*
X118813143Y-88375000D01*
X118813143Y-90125000D01*
X118839036Y-90258454D01*
X118916086Y-90375747D01*
X119032403Y-90454263D01*
X119170000Y-90481857D01*
X120370000Y-90481857D01*
X120503454Y-90455964D01*
X120620747Y-90378914D01*
X120699263Y-90262597D01*
X120726857Y-90125000D01*
X120726857Y-92820066D01*
X120521274Y-92819888D01*
X120282286Y-92918636D01*
X120099278Y-93101324D01*
X120000113Y-93340140D01*
X119999888Y-93598726D01*
X120098636Y-93837714D01*
X120150000Y-93889167D01*
X120150000Y-94518143D01*
X119170000Y-94518143D01*
X119036546Y-94544036D01*
X118919253Y-94621086D01*
X118840737Y-94737403D01*
X118813143Y-94875000D01*
X118813143Y-96625000D01*
X118839036Y-96758454D01*
X118916086Y-96875747D01*
X119032403Y-96954263D01*
X119170000Y-96981857D01*
X120370000Y-96981857D01*
X120503454Y-96955964D01*
X120620747Y-96878914D01*
X120699263Y-96762597D01*
X120726857Y-96625000D01*
X120726857Y-95500249D01*
X121003553Y-95223553D01*
X121111940Y-95061342D01*
X121149999Y-94870000D01*
X121150000Y-94870000D01*
X121150000Y-93889309D01*
X121200722Y-93838676D01*
X121299887Y-93599860D01*
X121300112Y-93341274D01*
X121300112Y-98139728D01*
X121250113Y-98260140D01*
X121249888Y-98518726D01*
X121348636Y-98757714D01*
X121531324Y-98940722D01*
X121770140Y-99039887D01*
X121842844Y-99039950D01*
X122936449Y-100133556D01*
X123033687Y-100198528D01*
X123098660Y-100241942D01*
X123098661Y-100241942D01*
X123290002Y-100280002D01*
X126372893Y-100280002D01*
X126580000Y-100487108D01*
X126580000Y-101552973D01*
X125180080Y-101552973D01*
X125046626Y-101578866D01*
X124929333Y-101655916D01*
X124850817Y-101772233D01*
X124823223Y-101909830D01*
X124823223Y-103710690D01*
X124849116Y-103844144D01*
X124926166Y-103961437D01*
X125042483Y-104039953D01*
X125180080Y-104067547D01*
X126310000Y-104067547D01*
X126310000Y-107575689D01*
X126296306Y-107578346D01*
X126179013Y-107655396D01*
X126100497Y-107771713D01*
X126072903Y-107909310D01*
X126072903Y-109590000D01*
X125785857Y-109590000D01*
X125785857Y-107909310D01*
X125759964Y-107775856D01*
X125682914Y-107658563D01*
X125628760Y-107622008D01*
X125628760Y-107357876D01*
X125690000Y-107050000D01*
X125625298Y-106724719D01*
X125441040Y-106448960D01*
X125165281Y-106264702D01*
X124840000Y-106200000D01*
X124514719Y-106264702D01*
X124238959Y-106448960D01*
X124177719Y-106510199D01*
X124060000Y-106686377D01*
X124060000Y-106447106D01*
X124293553Y-106213553D01*
X124401940Y-106051342D01*
X124439999Y-105860000D01*
X124440000Y-105860000D01*
X124440000Y-104669309D01*
X124490722Y-104618676D01*
X124589887Y-104379860D01*
X124590112Y-104121274D01*
X124491364Y-103882286D01*
X124308676Y-103699278D01*
X124069860Y-103600113D01*
X123811274Y-103599888D01*
X123572286Y-103698636D01*
X123389278Y-103881324D01*
X123290113Y-104120140D01*
X123289888Y-104378726D01*
X123388636Y-104617714D01*
X123440000Y-104669167D01*
X123440000Y-105652894D01*
X123206447Y-105886447D01*
X123098060Y-106048658D01*
X123060000Y-106240000D01*
X123060000Y-109750000D01*
X123098060Y-109941342D01*
X123206447Y-110103553D01*
X123546447Y-110443554D01*
X123643685Y-110508526D01*
X123708658Y-110551940D01*
X123708659Y-110551940D01*
X123900000Y-110590000D01*
X125142091Y-110590000D01*
X124956706Y-110713870D01*
X124671063Y-111141366D01*
X124482049Y-110962572D01*
X124095669Y-110814964D01*
X123930000Y-110875008D01*
X123930000Y-111510000D01*
X123950000Y-111510000D01*
X123950000Y-112210000D01*
X123930000Y-112210000D01*
X123930000Y-112844992D01*
X124095669Y-112905036D01*
X124482049Y-112757428D01*
X124561450Y-112682320D01*
X124561450Y-112975987D01*
X124256294Y-113281143D01*
X123144645Y-113281143D01*
X122620000Y-112756498D01*
X122620000Y-112702610D01*
X122677951Y-112757428D01*
X123064331Y-112905036D01*
X123230000Y-112844992D01*
X123230000Y-112210000D01*
X123210000Y-112210000D01*
X123210000Y-111510000D01*
X123230000Y-111510000D01*
X123230000Y-110875008D01*
X123064331Y-110814964D01*
X122677951Y-110962572D01*
X122620000Y-111017389D01*
X122620000Y-109720000D01*
X122547686Y-109356451D01*
X122547685Y-109356450D01*
X122479352Y-109254183D01*
X122341751Y-109048249D01*
X122341751Y-109048248D01*
X120670000Y-107376497D01*
X120670000Y-106288857D01*
X120819820Y-106288857D01*
X120953274Y-106262964D01*
X121070567Y-106185914D01*
X121149083Y-106069597D01*
X121176677Y-105932000D01*
X121176677Y-104408000D01*
X121150784Y-104274546D01*
X121073734Y-104157253D01*
X120957417Y-104078737D01*
X120819820Y-104051143D01*
X118620180Y-104051143D01*
X118486726Y-104077036D01*
X118369433Y-104154086D01*
X118300000Y-104256947D01*
X118300000Y-102922711D01*
X118326422Y-103055544D01*
X118567473Y-103416303D01*
X118928232Y-103657354D01*
X119353776Y-103742000D01*
X120086224Y-103742000D01*
X120511768Y-103657354D01*
X120872527Y-103416303D01*
X121113578Y-103055544D01*
X121198224Y-102630000D01*
X121113578Y-102204456D01*
X120872527Y-101843697D01*
X120511768Y-101602646D01*
X120086224Y-101518000D01*
X119353776Y-101518000D01*
X118928232Y-101602646D01*
X118567473Y-101843697D01*
X118326422Y-102204456D01*
X118300000Y-102337288D01*
X118300000Y-100382711D01*
X118326422Y-100515544D01*
X118567473Y-100876303D01*
X118928232Y-101117354D01*
X119353776Y-101202000D01*
X120086224Y-101202000D01*
X120511768Y-101117354D01*
X120872527Y-100876303D01*
X121113578Y-100515544D01*
X121198224Y-100090000D01*
X121113578Y-99664456D01*
X120872527Y-99303697D01*
X120511768Y-99062646D01*
X120086224Y-98978000D01*
X119353776Y-98978000D01*
X118928232Y-99062646D01*
X118567473Y-99303697D01*
X118326422Y-99664456D01*
X118300000Y-99797288D01*
X118300000Y-85930000D01*
X148420000Y-85930000D01*
X148420000Y-121110000D01*
M02*
