G04 #@! TF.FileFunction,Copper,L1,Top,Signal*
%FSLAX46Y46*%
G04 Gerber Fmt 4.6, Leading zero omitted, Abs format (unit mm)*
G04 Created by KiCad (PCBNEW (2015-03-13 BZR 5510)-product) date tis  3 nov 2015 15:17:31*
%MOMM*%
G01*
G04 APERTURE LIST*
%ADD10C,0.100000*%
%ADD11R,3.450000X1.020000*%
%ADD12O,4.000500X1.998980*%
%ADD13O,1.998980X4.000500*%
%ADD14O,1.998980X4.500880*%
%ADD15O,1.300000X1.800000*%
%ADD16R,1.020000X3.450000*%
%ADD17R,1.600200X4.000500*%
%ADD18R,0.899160X1.000760*%
%ADD19R,1.000760X0.599440*%
%ADD20R,0.599440X1.000760*%
%ADD21R,1.000760X0.899160*%
%ADD22C,3.000000*%
%ADD23R,0.299720X1.300480*%
%ADD24R,1.300480X0.299720*%
%ADD25R,2.199640X1.524000*%
%ADD26O,2.199640X1.524000*%
%ADD27C,0.600000*%
%ADD28C,1.200000*%
%ADD29C,1.000000*%
%ADD30C,0.300000*%
%ADD31C,0.600000*%
%ADD32C,0.800000*%
G04 APERTURE END LIST*
D10*
D11*
X129260000Y-90590000D03*
D12*
X123160120Y-118270980D03*
D13*
X119908920Y-112970000D03*
D14*
X125910940Y-112970000D03*
D15*
X136540000Y-87220000D03*
X141540000Y-87220000D03*
X146540000Y-87220000D03*
X128160000Y-87220000D03*
X133160000Y-87220000D03*
X138160000Y-87220000D03*
X119700000Y-87220000D03*
X124700000Y-87220000D03*
X129700000Y-87220000D03*
D16*
X142830000Y-90005000D03*
X132670000Y-90005000D03*
X137750000Y-90005000D03*
X135210000Y-90005000D03*
X140290000Y-90005000D03*
D17*
X126360000Y-105420540D03*
X126360000Y-99319460D03*
D18*
X140218160Y-94170000D03*
X141721840Y-94170000D03*
D10*
G36*
X130829908Y-93337552D02*
X131537552Y-92629908D01*
X132173354Y-93265710D01*
X131465710Y-93973354D01*
X130829908Y-93337552D01*
X130829908Y-93337552D01*
G37*
G36*
X129766646Y-92274290D02*
X130474290Y-91566646D01*
X131110092Y-92202448D01*
X130402448Y-92910092D01*
X129766646Y-92274290D01*
X129766646Y-92274290D01*
G37*
D19*
X129313360Y-114927500D03*
X131426640Y-115880000D03*
X129313360Y-116832500D03*
X129313360Y-111667500D03*
X131426640Y-112620000D03*
X129313360Y-113572500D03*
X129313360Y-108417500D03*
X131426640Y-109370000D03*
X129313360Y-110322500D03*
X136503360Y-112797500D03*
X138616640Y-113750000D03*
X136503360Y-114702500D03*
X136503360Y-109537500D03*
X138616640Y-110490000D03*
X136503360Y-111442500D03*
X136493360Y-106277500D03*
X138606640Y-107230000D03*
X136493360Y-108182500D03*
X140833360Y-102107500D03*
X142946640Y-103060000D03*
X140833360Y-104012500D03*
X140823360Y-98807500D03*
X142936640Y-99760000D03*
X140823360Y-100712500D03*
D20*
X141067500Y-97586640D03*
X142020000Y-95473360D03*
X142972500Y-97586640D03*
D18*
X140218160Y-92840000D03*
X141721840Y-92840000D03*
D21*
X119670000Y-94091840D03*
X119670000Y-92588160D03*
D18*
X126651840Y-89570000D03*
X125148160Y-89570000D03*
X129301840Y-93400000D03*
X127798160Y-93400000D03*
X129301840Y-96020000D03*
X127798160Y-96020000D03*
X126611840Y-91590000D03*
X125108160Y-91590000D03*
X129301840Y-94710000D03*
X127798160Y-94710000D03*
X129301840Y-97340000D03*
X127798160Y-97340000D03*
D21*
X127990000Y-115078160D03*
X127990000Y-116581840D03*
X127990000Y-111818160D03*
X127990000Y-113321840D03*
X127990000Y-108568160D03*
X127990000Y-110071840D03*
D22*
X146150000Y-109460000D03*
X146150000Y-119200000D03*
X133500000Y-119200000D03*
D23*
X134010320Y-102189560D03*
X134510700Y-102189560D03*
X135011080Y-102189560D03*
X135508920Y-102189560D03*
X136009300Y-102189560D03*
X132509180Y-102189560D03*
X133009560Y-102189560D03*
X133509940Y-102189560D03*
D24*
X139359560Y-100840820D03*
X139359560Y-100340440D03*
X139359560Y-99840060D03*
X139359560Y-99339680D03*
X139359560Y-98839300D03*
X139359560Y-98338920D03*
X139359560Y-97841080D03*
X139359560Y-97340700D03*
D23*
X138010820Y-93990440D03*
X137510440Y-93990440D03*
X137010060Y-93990440D03*
X136509680Y-93990440D03*
X136009300Y-93990440D03*
X135508920Y-93990440D03*
X135011080Y-93990440D03*
X134510700Y-93990440D03*
D24*
X131160440Y-95339180D03*
X131160440Y-95839560D03*
X131160440Y-96339940D03*
X131160440Y-96840320D03*
X131160440Y-97340700D03*
X131160440Y-97841080D03*
X131160440Y-98338920D03*
X131160440Y-98839300D03*
D23*
X136509680Y-102189560D03*
X137010060Y-102189560D03*
X137510440Y-102189560D03*
X138010820Y-102189560D03*
D24*
X139359560Y-96840320D03*
X139359560Y-96339940D03*
X139359560Y-95839560D03*
X139359560Y-95339180D03*
D23*
X134010320Y-93990440D03*
X133509940Y-93990440D03*
X133009560Y-93990440D03*
X132509180Y-93990440D03*
D24*
X131160440Y-99339680D03*
X131160440Y-99840060D03*
X131160440Y-100340440D03*
X131160440Y-100840820D03*
D11*
X145390000Y-96290000D03*
X145390000Y-93750000D03*
X145390000Y-91210000D03*
X133995000Y-113850000D03*
X133995000Y-111310000D03*
X133995000Y-108770000D03*
X133995000Y-106230000D03*
X141185000Y-113950000D03*
X141185000Y-111410000D03*
X141185000Y-108870000D03*
X141185000Y-106330000D03*
X145335000Y-106370000D03*
X145335000Y-103830000D03*
X145335000Y-101290000D03*
X145335000Y-98750000D03*
D25*
X119720000Y-105170000D03*
D26*
X119720000Y-102630000D03*
X119720000Y-100090000D03*
D25*
X123580000Y-114400000D03*
D26*
X123580000Y-111860000D03*
D27*
X143280000Y-107660000D03*
X141220000Y-112970000D03*
X124840000Y-107050000D03*
X141790000Y-104020000D03*
X125940000Y-96760000D03*
X127810000Y-99800000D03*
X129460000Y-102770000D03*
X132270000Y-101040000D03*
X135020000Y-101050000D03*
X138860000Y-102100000D03*
X141260000Y-95130000D03*
X143690000Y-95150000D03*
X130270000Y-116830000D03*
X129180000Y-101320000D03*
X129290000Y-92270000D03*
X123760000Y-94410000D03*
X130270000Y-113580000D03*
X130270000Y-110320000D03*
X137450000Y-108500000D03*
X137310000Y-111440000D03*
X137460000Y-114700000D03*
X129380000Y-107370000D03*
X132800000Y-95080000D03*
X134980000Y-96160000D03*
X145420000Y-95170000D03*
X121900000Y-98390000D03*
X130070000Y-101290000D03*
X133730000Y-103290000D03*
X136510000Y-103290000D03*
X132510000Y-103290000D03*
X125150000Y-90510000D03*
X126880000Y-93380000D03*
X126890000Y-96010000D03*
X125180000Y-92570000D03*
X126890000Y-94720000D03*
X126920000Y-96860000D03*
X133650000Y-90640000D03*
X133420000Y-98830000D03*
X135510000Y-103310000D03*
X137130000Y-92160000D03*
X137140000Y-96170000D03*
X135880000Y-96190000D03*
X135640000Y-92870000D03*
X139280000Y-90070000D03*
X131420000Y-113890000D03*
X132650000Y-112700000D03*
X133630000Y-110230000D03*
X131580000Y-110230000D03*
X136500000Y-113560000D03*
X134200000Y-105190000D03*
X136410000Y-110300000D03*
X138590000Y-108770000D03*
X136410000Y-107240000D03*
X137280000Y-98400000D03*
X141770000Y-102110000D03*
X138100000Y-98150000D03*
X141560000Y-98960000D03*
X140850000Y-95920000D03*
X142800000Y-94020000D03*
X120650000Y-93470000D03*
X122890000Y-98380000D03*
X132310000Y-99560000D03*
X132400000Y-92810000D03*
X133900000Y-99470000D03*
X127540000Y-89570000D03*
X134140000Y-89580000D03*
X130320000Y-93400000D03*
X133310000Y-92740000D03*
X133640000Y-91590000D03*
X127550000Y-91570000D03*
X141230000Y-96710000D03*
X144550000Y-95150000D03*
X138130000Y-97340000D03*
X143480000Y-92760000D03*
X138130000Y-96470000D03*
X130290000Y-114930000D03*
X123940000Y-104250000D03*
X124970000Y-98340000D03*
X128550000Y-98340000D03*
X128950000Y-112440000D03*
X127770000Y-104320000D03*
X136510000Y-89260000D03*
X136510000Y-90790000D03*
X136550000Y-98680000D03*
D28*
X133995000Y-113850000D02*
X133995000Y-115485000D01*
X133995000Y-115485000D02*
X131380000Y-118100000D01*
D29*
X141185000Y-113950000D02*
X141185000Y-113005000D01*
X143280000Y-107660000D02*
X144570000Y-106370000D01*
X141185000Y-113005000D02*
X141220000Y-112970000D01*
X144570000Y-106370000D02*
X145335000Y-106370000D01*
X138730000Y-115670000D02*
X140450000Y-113950000D01*
X135710000Y-115670000D02*
X138730000Y-115670000D01*
X134900000Y-114410000D02*
X135220000Y-114730000D01*
X135220000Y-114730000D02*
X135220000Y-115180000D01*
X135220000Y-115180000D02*
X135710000Y-115670000D01*
X133995000Y-113850000D02*
X134555000Y-114410000D01*
X134555000Y-114410000D02*
X134900000Y-114410000D01*
X140450000Y-113950000D02*
X141185000Y-113950000D01*
X124840000Y-107050000D02*
X126360000Y-105530000D01*
X126360000Y-105530000D02*
X126360000Y-105420540D01*
D28*
X120650000Y-102630000D02*
X119720000Y-102630000D01*
X123440540Y-105420540D02*
X120650000Y-102630000D01*
X126360000Y-105420540D02*
X123440540Y-105420540D01*
X121660000Y-107201080D02*
X123440540Y-105420540D01*
X121660000Y-115480000D02*
X121660000Y-107201080D01*
X122610000Y-116430000D02*
X121660000Y-115480000D01*
X124930000Y-116430000D02*
X122610000Y-116430000D01*
X126600000Y-118100000D02*
X124930000Y-116430000D01*
X131380000Y-118100000D02*
X126600000Y-118100000D01*
D30*
X140833360Y-104012500D02*
X141782500Y-104012500D01*
X141782500Y-104012500D02*
X141790000Y-104020000D01*
X126360000Y-99319460D02*
X125940000Y-98899460D01*
X125940000Y-98899460D02*
X125940000Y-96760000D01*
X126360000Y-99319460D02*
X126840540Y-99800000D01*
X126840540Y-99800000D02*
X127810000Y-99800000D01*
X131160440Y-100340440D02*
X131910440Y-100340440D01*
X132270000Y-100700000D02*
X132270000Y-101040000D01*
X131910440Y-100340440D02*
X132270000Y-100700000D01*
X136009300Y-102189560D02*
X136009300Y-101429300D01*
X135190000Y-101220000D02*
X135020000Y-101050000D01*
X135800000Y-101220000D02*
X135190000Y-101220000D01*
X136009300Y-101429300D02*
X135800000Y-101220000D01*
X141260000Y-94631840D02*
X141721840Y-94170000D01*
X141260000Y-95130000D02*
X141260000Y-94631840D01*
X141721840Y-94170000D02*
X142201840Y-94650000D01*
X143190000Y-94650000D02*
X143690000Y-95150000D01*
X142201840Y-94650000D02*
X143190000Y-94650000D01*
X127990000Y-116581840D02*
X127990000Y-116410000D01*
X127990000Y-116410000D02*
X128510000Y-115890000D01*
X130267500Y-116832500D02*
X130270000Y-116830000D01*
X129313360Y-116832500D02*
X130267500Y-116832500D01*
X130270000Y-116110000D02*
X130270000Y-116830000D01*
X130050000Y-115890000D02*
X130270000Y-116110000D01*
X128510000Y-115890000D02*
X130050000Y-115890000D01*
X131160440Y-100340440D02*
X130159560Y-100340440D01*
X130159560Y-100340440D02*
X129180000Y-101320000D01*
X130438369Y-92238369D02*
X130406738Y-92270000D01*
X130406738Y-92270000D02*
X129290000Y-92270000D01*
X129313360Y-113572500D02*
X130262500Y-113572500D01*
X130262500Y-113572500D02*
X130270000Y-113580000D01*
X129313360Y-110322500D02*
X130267500Y-110322500D01*
X130267500Y-110322500D02*
X130270000Y-110320000D01*
X136493360Y-108182500D02*
X137132500Y-108182500D01*
X137132500Y-108182500D02*
X137450000Y-108500000D01*
X136503360Y-111442500D02*
X137307500Y-111442500D01*
X137307500Y-111442500D02*
X137310000Y-111440000D01*
X136503360Y-114702500D02*
X137457500Y-114702500D01*
X137457500Y-114702500D02*
X137460000Y-114700000D01*
X129313360Y-116832500D02*
X128240660Y-116832500D01*
X128240660Y-116832500D02*
X127990000Y-116581840D01*
X129313360Y-113572500D02*
X128240660Y-113572500D01*
X128240660Y-113572500D02*
X127990000Y-113321840D01*
X127990000Y-110071840D02*
X128240660Y-110322500D01*
X128240660Y-110322500D02*
X129313360Y-110322500D01*
X133009560Y-93990440D02*
X133009560Y-94810440D01*
X132800000Y-95020000D02*
X132800000Y-95080000D01*
X133009560Y-94810440D02*
X132800000Y-95020000D01*
X137729560Y-95839560D02*
X137440000Y-95550000D01*
X137440000Y-95550000D02*
X135590000Y-95550000D01*
X135590000Y-95550000D02*
X134980000Y-96160000D01*
X139359560Y-95839560D02*
X137729560Y-95839560D01*
X145420000Y-95170000D02*
X145410000Y-95160000D01*
X144400000Y-91210000D02*
X145390000Y-91210000D01*
X136540000Y-87220000D02*
X136540000Y-86260000D01*
X139040000Y-92840000D02*
X140218160Y-92840000D01*
X138600000Y-92400000D02*
X139040000Y-92840000D01*
X138600000Y-89800000D02*
X138600000Y-92400000D01*
X139120000Y-89280000D02*
X138600000Y-89800000D01*
X139120000Y-86570000D02*
X139120000Y-89280000D01*
X138550000Y-86000000D02*
X139120000Y-86570000D01*
X136800000Y-86000000D02*
X138550000Y-86000000D01*
X136540000Y-86260000D02*
X136800000Y-86000000D01*
X132509180Y-93990440D02*
X132509180Y-94420820D01*
X132509180Y-94420820D02*
X132140000Y-94790000D01*
X137865578Y-95339180D02*
X139359560Y-95339180D01*
X137626396Y-95099998D02*
X137865578Y-95339180D01*
X133750002Y-95099998D02*
X137626396Y-95099998D01*
X133110000Y-95740000D02*
X133750002Y-95099998D01*
X132550000Y-95740000D02*
X133110000Y-95740000D01*
X132140000Y-95330000D02*
X132550000Y-95740000D01*
X132140000Y-94790000D02*
X132140000Y-95330000D01*
X131501631Y-93301631D02*
X132190440Y-93990440D01*
X132190440Y-93990440D02*
X132509180Y-93990440D01*
X119670000Y-94091840D02*
X119698160Y-94120000D01*
X119698160Y-94120000D02*
X121900000Y-94120000D01*
X121900000Y-87670000D02*
X122350000Y-87220000D01*
X121900000Y-98390000D02*
X121900000Y-94120000D01*
X121900000Y-94120000D02*
X121900000Y-87670000D01*
X140218160Y-94170000D02*
X140218160Y-92840000D01*
X128070000Y-86280000D02*
X128360000Y-85990000D01*
X136450000Y-86280000D02*
X136450000Y-87320000D01*
X136160000Y-85990000D02*
X136450000Y-86280000D01*
X128360000Y-85990000D02*
X136160000Y-85990000D01*
X119690000Y-87220000D02*
X122350000Y-87220000D01*
X128070000Y-86280000D02*
X128070000Y-87260000D01*
X127780000Y-85990000D02*
X128070000Y-86280000D01*
X122350000Y-87220000D02*
X123580000Y-85990000D01*
X123580000Y-85990000D02*
X127780000Y-85990000D01*
X140218160Y-94170000D02*
X140218160Y-94480580D01*
X140218160Y-94480580D02*
X139359560Y-95339180D01*
X131160440Y-100840820D02*
X130519180Y-100840820D01*
X130519180Y-100840820D02*
X130070000Y-101290000D01*
X136500000Y-103290000D02*
X136509680Y-103280320D01*
X136509680Y-103280320D02*
X136509680Y-102189560D01*
X136510000Y-103290000D02*
X136500000Y-103290000D01*
X132510000Y-103290000D02*
X132509180Y-103289180D01*
X132509180Y-103289180D02*
X132509180Y-102189560D01*
X132510000Y-103290000D02*
X133730000Y-103290000D01*
X129260000Y-89370000D02*
X128160000Y-88270000D01*
X128160000Y-88270000D02*
X128160000Y-87220000D01*
X129260000Y-90590000D02*
X129260000Y-89370000D01*
X125148160Y-90508160D02*
X125150000Y-90510000D01*
X125148160Y-89570000D02*
X125148160Y-90508160D01*
X126900000Y-93400000D02*
X127798160Y-93400000D01*
X126880000Y-93380000D02*
X126900000Y-93400000D01*
X126890000Y-96010000D02*
X127788160Y-96010000D01*
X127788160Y-96010000D02*
X127798160Y-96020000D01*
X125108160Y-92498160D02*
X125108160Y-91590000D01*
X125180000Y-92570000D02*
X125108160Y-92498160D01*
X126900000Y-94710000D02*
X127798160Y-94710000D01*
X126890000Y-94720000D02*
X126900000Y-94710000D01*
X127798160Y-97340000D02*
X127630000Y-97340000D01*
X127630000Y-97340000D02*
X127150000Y-96860000D01*
X127150000Y-96860000D02*
X126920000Y-96860000D01*
D28*
X125910940Y-112970000D02*
X124480940Y-114400000D01*
D30*
X132630000Y-90145000D02*
X133155000Y-90145000D01*
X133155000Y-90145000D02*
X133650000Y-90640000D01*
X133410700Y-98839300D02*
X133420000Y-98830000D01*
X131160440Y-98839300D02*
X133410700Y-98839300D01*
X135508920Y-103308920D02*
X135508920Y-102189560D01*
X135510000Y-103310000D02*
X135508920Y-103308920D01*
X137710000Y-91580000D02*
X137710000Y-90145000D01*
X137130000Y-92160000D02*
X137710000Y-91580000D01*
X135900000Y-96170000D02*
X137140000Y-96170000D01*
X135880000Y-96190000D02*
X135900000Y-96170000D01*
X135011080Y-90303920D02*
X135170000Y-90145000D01*
X135011080Y-93990440D02*
X135011080Y-90303920D01*
X135508920Y-93001080D02*
X135640000Y-92870000D01*
X139280000Y-90070000D02*
X139355000Y-90145000D01*
X139355000Y-90145000D02*
X140250000Y-90145000D01*
X135508920Y-93990440D02*
X135508920Y-93001080D01*
D31*
X131426640Y-109370000D02*
X131426640Y-106663360D01*
X131860000Y-106230000D02*
X133995000Y-106230000D01*
X131426640Y-106663360D02*
X131860000Y-106230000D01*
D32*
X133510000Y-111310000D02*
X133995000Y-111310000D01*
X131426640Y-113896640D02*
X131420000Y-113890000D01*
X132650000Y-112700000D02*
X132650000Y-112170000D01*
X132650000Y-112170000D02*
X133510000Y-111310000D01*
X131426640Y-115880000D02*
X131426640Y-113896640D01*
X133995000Y-109865000D02*
X133995000Y-108770000D01*
X131426640Y-112620000D02*
X131426640Y-110383360D01*
X131426640Y-110383360D02*
X131580000Y-110230000D01*
X133630000Y-110230000D02*
X133995000Y-109865000D01*
D31*
X138606640Y-107230000D02*
X138606640Y-106723360D01*
X139000000Y-106330000D02*
X141185000Y-106330000D01*
X138606640Y-106723360D02*
X139000000Y-106330000D01*
X138616640Y-113750000D02*
X138616640Y-111853360D01*
X139060000Y-111410000D02*
X141185000Y-111410000D01*
X138616640Y-111853360D02*
X139060000Y-111410000D01*
X138616640Y-110490000D02*
X138616640Y-109953360D01*
X138616640Y-109953360D02*
X139700000Y-108870000D01*
X139700000Y-108870000D02*
X141185000Y-108870000D01*
X142020000Y-95473360D02*
X142020000Y-98280000D01*
X142490000Y-98750000D02*
X145335000Y-98750000D01*
X142020000Y-98280000D02*
X142490000Y-98750000D01*
X142946640Y-103060000D02*
X143716640Y-103830000D01*
X143716640Y-103830000D02*
X145335000Y-103830000D01*
X142936640Y-99760000D02*
X142936640Y-101006640D01*
X143220000Y-101290000D02*
X145335000Y-101290000D01*
X142936640Y-101006640D02*
X143220000Y-101290000D01*
D30*
X127990000Y-108568160D02*
X128140660Y-108417500D01*
X128140660Y-108417500D02*
X129313360Y-108417500D01*
X137510440Y-102189560D02*
X137510440Y-103209560D01*
X128290000Y-104690000D02*
X128290000Y-108268160D01*
X129000000Y-103980000D02*
X128290000Y-104690000D01*
X136740000Y-103980000D02*
X129000000Y-103980000D01*
X137510440Y-103209560D02*
X136740000Y-103980000D01*
X128290000Y-108268160D02*
X127990000Y-108568160D01*
X136503360Y-112797500D02*
X136503360Y-113556640D01*
X136503360Y-113556640D02*
X136500000Y-113560000D01*
X138010820Y-102189560D02*
X138010820Y-103345578D01*
X134959998Y-104430002D02*
X134200000Y-105190000D01*
X136926396Y-104430002D02*
X134959998Y-104430002D01*
X138010820Y-103345578D02*
X136926396Y-104430002D01*
X136503360Y-110206640D02*
X136503360Y-109537500D01*
X136410000Y-110300000D02*
X136503360Y-110206640D01*
X139359560Y-100840820D02*
X139750820Y-100840820D01*
X139750820Y-100840820D02*
X139870000Y-100960000D01*
X139870000Y-100960000D02*
X139870000Y-102122796D01*
X139870000Y-102122796D02*
X137770000Y-104222796D01*
X137770000Y-104222796D02*
X137770000Y-107950000D01*
X137770000Y-107950000D02*
X138590000Y-108770000D01*
X139359560Y-99339680D02*
X138272476Y-99339680D01*
X136493360Y-107156640D02*
X136493360Y-106277500D01*
X136410000Y-107240000D02*
X136493360Y-107156640D01*
X137332796Y-98400000D02*
X137280000Y-98400000D01*
X138272476Y-99339680D02*
X137332796Y-98400000D01*
X139359560Y-99339680D02*
X140119680Y-99339680D01*
X140119680Y-99339680D02*
X140510000Y-99730000D01*
X140833360Y-102107500D02*
X141767500Y-102107500D01*
X141767500Y-102107500D02*
X141770000Y-102110000D01*
X139359560Y-98839300D02*
X138408494Y-98839300D01*
X138100000Y-98530806D02*
X138100000Y-98150000D01*
X138408494Y-98839300D02*
X138100000Y-98530806D01*
X139359560Y-98839678D02*
X139359560Y-98839300D01*
X140823360Y-98807500D02*
X141407500Y-98807500D01*
X141407500Y-98807500D02*
X141560000Y-98960000D01*
X139359560Y-98338920D02*
X140354780Y-98338920D01*
X140354780Y-98338920D02*
X140823360Y-98807500D01*
X140850000Y-95920000D02*
X140850000Y-96160000D01*
X140850000Y-96160000D02*
X140340000Y-96670000D01*
X140340000Y-96670000D02*
X140340000Y-97200000D01*
X140340000Y-97200000D02*
X140199300Y-97340700D01*
X140199300Y-97340700D02*
X139359560Y-97340700D01*
X142600000Y-92840000D02*
X141721840Y-92840000D01*
X142800000Y-93040000D02*
X142600000Y-92840000D01*
X142800000Y-94020000D02*
X142800000Y-93040000D01*
X119670000Y-92588160D02*
X120551840Y-93470000D01*
X120551840Y-93470000D02*
X120650000Y-93470000D01*
X137010060Y-102189560D02*
X137010060Y-100470062D01*
X122986398Y-87220000D02*
X124690000Y-87220000D01*
X122360000Y-87846398D02*
X122986398Y-87220000D01*
X122360000Y-97850000D02*
X122360000Y-87846398D01*
X122890000Y-98380000D02*
X122360000Y-97850000D01*
X132890000Y-100140000D02*
X132310000Y-99560000D01*
X134210000Y-100140000D02*
X132890000Y-100140000D01*
X134429998Y-99920002D02*
X134210000Y-100140000D01*
X136460000Y-99920002D02*
X134429998Y-99920002D01*
X137010060Y-100470062D02*
X136460000Y-99920002D01*
X133070000Y-87260000D02*
X132560000Y-87260000D01*
X132560000Y-87260000D02*
X131730000Y-88090000D01*
X131730000Y-88090000D02*
X131730000Y-92140000D01*
X131730000Y-92140000D02*
X132400000Y-92810000D01*
X133900000Y-99470000D02*
X137130000Y-99470000D01*
X137130000Y-99470000D02*
X138000440Y-100340440D01*
X138000440Y-100340440D02*
X139359560Y-100340440D01*
X134510700Y-93990440D02*
X134510700Y-92340700D01*
X127540000Y-89570000D02*
X126651840Y-89570000D01*
X134280000Y-89720000D02*
X134140000Y-89580000D01*
X134280000Y-92110000D02*
X134280000Y-89720000D01*
X134510700Y-92340700D02*
X134280000Y-92110000D01*
X133509940Y-93990440D02*
X133509940Y-92939940D01*
X133509940Y-92939940D02*
X133310000Y-92740000D01*
X129301840Y-93400000D02*
X130320000Y-93400000D01*
X131160440Y-95839560D02*
X130294042Y-95839560D01*
X130113602Y-96020000D02*
X129301840Y-96020000D01*
X130294042Y-95839560D02*
X130113602Y-96020000D01*
X134010320Y-93990440D02*
X134010320Y-92476718D01*
X134010320Y-92476718D02*
X133640000Y-92106398D01*
X133640000Y-92106398D02*
X133640000Y-91590000D01*
X127550000Y-91570000D02*
X127530000Y-91590000D01*
X127530000Y-91590000D02*
X126611840Y-91590000D01*
X131160440Y-95339180D02*
X130239180Y-95339180D01*
X129970000Y-94710000D02*
X129301840Y-94710000D01*
X130080000Y-94820000D02*
X129970000Y-94710000D01*
X130080000Y-95180000D02*
X130080000Y-94820000D01*
X130239180Y-95339180D02*
X130080000Y-95180000D01*
X131160440Y-96339940D02*
X130430060Y-96339940D01*
X129970000Y-97340000D02*
X129301840Y-97340000D01*
X130200000Y-97110000D02*
X129970000Y-97340000D01*
X130200000Y-96570000D02*
X130200000Y-97110000D01*
X130430060Y-96339940D02*
X130200000Y-96570000D01*
X141230000Y-96710000D02*
X141067500Y-96872500D01*
X141067500Y-96872500D02*
X141067500Y-97586640D01*
X139359560Y-97841080D02*
X140813060Y-97841080D01*
X140813060Y-97841080D02*
X141067500Y-97586640D01*
X144550000Y-95150000D02*
X144550000Y-95450000D01*
X144550000Y-95450000D02*
X145390000Y-96290000D01*
X138629680Y-96840320D02*
X138130000Y-97340000D01*
X139359560Y-96840320D02*
X138629680Y-96840320D01*
X143480000Y-92760000D02*
X143480000Y-93670000D01*
X143480000Y-93670000D02*
X143560000Y-93750000D01*
X143560000Y-93750000D02*
X145390000Y-93750000D01*
X138260060Y-96339940D02*
X138130000Y-96470000D01*
X139359560Y-96339940D02*
X138260060Y-96339940D01*
X131160440Y-98338920D02*
X128551080Y-98338920D01*
X130287500Y-114927500D02*
X129313360Y-114927500D01*
X130290000Y-114930000D02*
X130287500Y-114927500D01*
X124970000Y-103220000D02*
X123940000Y-104250000D01*
X124970000Y-98340000D02*
X124970000Y-103220000D01*
X128551080Y-98338920D02*
X128550000Y-98340000D01*
X127990000Y-115078160D02*
X127711840Y-115078160D01*
X127971838Y-115059998D02*
X127990000Y-115078160D01*
X129313360Y-114927500D02*
X128140660Y-114927500D01*
X128140660Y-114927500D02*
X127990000Y-115078160D01*
X127968160Y-115100000D02*
X127990000Y-115078160D01*
X131160440Y-99339680D02*
X129280320Y-99339680D01*
X129313360Y-112076640D02*
X129313360Y-111667500D01*
X128950000Y-112440000D02*
X129313360Y-112076640D01*
X127770000Y-100850000D02*
X127770000Y-104320000D01*
X129280320Y-99339680D02*
X127770000Y-100850000D01*
X129313360Y-111667500D02*
X128140660Y-111667500D01*
X128140660Y-111667500D02*
X127990000Y-111818160D01*
X136510000Y-90790000D02*
X136510000Y-89260000D01*
X138136458Y-99840060D02*
X137316396Y-99019998D01*
X137316396Y-99019998D02*
X136789998Y-99019998D01*
X136789998Y-99019998D02*
X136550000Y-98780000D01*
X136550000Y-98780000D02*
X136550000Y-98680000D01*
X139359560Y-99840060D02*
X138136458Y-99840060D01*
G36*
X128360000Y-116806630D02*
X128240190Y-116806630D01*
X128240190Y-116951840D01*
X127739810Y-116951840D01*
X127739810Y-116806630D01*
X127264620Y-116806630D01*
X127189620Y-116881630D01*
X127189620Y-117091094D01*
X127214019Y-117150000D01*
X126993502Y-117150000D01*
X125601751Y-115758249D01*
X125293550Y-115552314D01*
X125233233Y-115540316D01*
X124930000Y-115480000D01*
X124833009Y-115480000D01*
X124930567Y-115415914D01*
X125009083Y-115299597D01*
X125015886Y-115265672D01*
X125394513Y-115518662D01*
X125910940Y-115621386D01*
X126427367Y-115518662D01*
X126865174Y-115226130D01*
X127132763Y-114825653D01*
X127132763Y-115527740D01*
X127158656Y-115661194D01*
X127235706Y-115778487D01*
X127352023Y-115857003D01*
X127364278Y-115859460D01*
X127319684Y-115877932D01*
X127235292Y-115962323D01*
X127189620Y-116072586D01*
X127189620Y-116282050D01*
X127264620Y-116357050D01*
X127739810Y-116357050D01*
X127739810Y-116211840D01*
X128240190Y-116211840D01*
X128240190Y-116357050D01*
X128360000Y-116357050D01*
X128360000Y-116806630D01*
X128360000Y-116806630D01*
G37*
X128360000Y-116806630D02*
X128240190Y-116806630D01*
X128240190Y-116951840D01*
X127739810Y-116951840D01*
X127739810Y-116806630D01*
X127264620Y-116806630D01*
X127189620Y-116881630D01*
X127189620Y-117091094D01*
X127214019Y-117150000D01*
X126993502Y-117150000D01*
X125601751Y-115758249D01*
X125293550Y-115552314D01*
X125233233Y-115540316D01*
X124930000Y-115480000D01*
X124833009Y-115480000D01*
X124930567Y-115415914D01*
X125009083Y-115299597D01*
X125015886Y-115265672D01*
X125394513Y-115518662D01*
X125910940Y-115621386D01*
X126427367Y-115518662D01*
X126865174Y-115226130D01*
X127132763Y-114825653D01*
X127132763Y-115527740D01*
X127158656Y-115661194D01*
X127235706Y-115778487D01*
X127352023Y-115857003D01*
X127364278Y-115859460D01*
X127319684Y-115877932D01*
X127235292Y-115962323D01*
X127189620Y-116072586D01*
X127189620Y-116282050D01*
X127264620Y-116357050D01*
X127739810Y-116357050D01*
X127739810Y-116211840D01*
X128240190Y-116211840D01*
X128240190Y-116357050D01*
X128360000Y-116357050D01*
X128360000Y-116806630D01*
G36*
X130153343Y-98839680D02*
X129280320Y-98839680D01*
X129088978Y-98877740D01*
X128926767Y-98986127D01*
X127460100Y-100452794D01*
X127460100Y-99744460D01*
X127385100Y-99669460D01*
X126710000Y-99669460D01*
X126710000Y-101544710D01*
X126785000Y-101619710D01*
X127100426Y-101619710D01*
X127219773Y-101619710D01*
X127270000Y-101598905D01*
X127270000Y-103085472D01*
X127160100Y-103063433D01*
X125559900Y-103063433D01*
X125470000Y-103080875D01*
X125470000Y-101607189D01*
X125500227Y-101619710D01*
X125619574Y-101619710D01*
X125935000Y-101619710D01*
X126010000Y-101544710D01*
X126010000Y-99669460D01*
X125990000Y-99669460D01*
X125990000Y-98969460D01*
X126010000Y-98969460D01*
X126010000Y-98949460D01*
X126710000Y-98949460D01*
X126710000Y-98969460D01*
X127385100Y-98969460D01*
X127460100Y-98894460D01*
X127460100Y-98197237D01*
X127905470Y-98197237D01*
X127900113Y-98210140D01*
X127899888Y-98468726D01*
X127998636Y-98707714D01*
X128181324Y-98890722D01*
X128420140Y-98989887D01*
X128678726Y-98990112D01*
X128917714Y-98891364D01*
X128970249Y-98838920D01*
X130153343Y-98838920D01*
X130153343Y-98839680D01*
X130153343Y-98839680D01*
G37*
X130153343Y-98839680D02*
X129280320Y-98839680D01*
X129088978Y-98877740D01*
X128926767Y-98986127D01*
X127460100Y-100452794D01*
X127460100Y-99744460D01*
X127385100Y-99669460D01*
X126710000Y-99669460D01*
X126710000Y-101544710D01*
X126785000Y-101619710D01*
X127100426Y-101619710D01*
X127219773Y-101619710D01*
X127270000Y-101598905D01*
X127270000Y-103085472D01*
X127160100Y-103063433D01*
X125559900Y-103063433D01*
X125470000Y-103080875D01*
X125470000Y-101607189D01*
X125500227Y-101619710D01*
X125619574Y-101619710D01*
X125935000Y-101619710D01*
X126010000Y-101544710D01*
X126010000Y-99669460D01*
X125990000Y-99669460D01*
X125990000Y-98969460D01*
X126010000Y-98969460D01*
X126010000Y-98949460D01*
X126710000Y-98949460D01*
X126710000Y-98969460D01*
X127385100Y-98969460D01*
X127460100Y-98894460D01*
X127460100Y-98197237D01*
X127905470Y-98197237D01*
X127900113Y-98210140D01*
X127899888Y-98468726D01*
X127998636Y-98707714D01*
X128181324Y-98890722D01*
X128420140Y-98989887D01*
X128678726Y-98990112D01*
X128917714Y-98891364D01*
X128970249Y-98838920D01*
X130153343Y-98838920D01*
X130153343Y-98839680D01*
G36*
X131230000Y-91898091D02*
X131216307Y-91884398D01*
X131110241Y-91884398D01*
X130774231Y-92220408D01*
X130876909Y-92323087D01*
X130523087Y-92676909D01*
X130420408Y-92574231D01*
X130335689Y-92658948D01*
X130017788Y-92341047D01*
X130102507Y-92256330D01*
X129784458Y-91938280D01*
X129678392Y-91938280D01*
X129596710Y-92019962D01*
X129512319Y-92104353D01*
X129466646Y-92214616D01*
X129466645Y-92333963D01*
X129512318Y-92444226D01*
X129610854Y-92542763D01*
X128852260Y-92542763D01*
X128718806Y-92568656D01*
X128601513Y-92645706D01*
X128549850Y-92722241D01*
X128501654Y-92648873D01*
X128385337Y-92570357D01*
X128247740Y-92542763D01*
X127348580Y-92542763D01*
X127215126Y-92568656D01*
X127097833Y-92645706D01*
X127034070Y-92740166D01*
X127009860Y-92730113D01*
X126751274Y-92729888D01*
X126512286Y-92828636D01*
X126329278Y-93011324D01*
X126230113Y-93250140D01*
X126229888Y-93508726D01*
X126328636Y-93747714D01*
X126511324Y-93930722D01*
X126750140Y-94029887D01*
X127008726Y-94030112D01*
X127016287Y-94026987D01*
X127017616Y-94033834D01*
X127031168Y-94054465D01*
X127020442Y-94070355D01*
X127019860Y-94070113D01*
X126761274Y-94069888D01*
X126522286Y-94168636D01*
X126339278Y-94351324D01*
X126240113Y-94590140D01*
X126239888Y-94848726D01*
X126338636Y-95087714D01*
X126521324Y-95270722D01*
X126748635Y-95365110D01*
X126522286Y-95458636D01*
X126339278Y-95641324D01*
X126240113Y-95880140D01*
X126239888Y-96138726D01*
X126338636Y-96377714D01*
X126410735Y-96449939D01*
X126369278Y-96491324D01*
X126270113Y-96730140D01*
X126269888Y-96988726D01*
X126282483Y-97019210D01*
X126009998Y-97019210D01*
X126009998Y-97094208D01*
X125935000Y-97019210D01*
X125619574Y-97019210D01*
X125500227Y-97019210D01*
X125389964Y-97064882D01*
X125305572Y-97149273D01*
X125259900Y-97259536D01*
X125259900Y-97756567D01*
X125099860Y-97690113D01*
X124841274Y-97689888D01*
X124602286Y-97788636D01*
X124419278Y-97971324D01*
X124320113Y-98210140D01*
X124319888Y-98468726D01*
X124418636Y-98707714D01*
X124470000Y-98759167D01*
X124470000Y-103012894D01*
X123882943Y-103599950D01*
X123811274Y-103599888D01*
X123572286Y-103698636D01*
X123389278Y-103881324D01*
X123346895Y-103983392D01*
X121321751Y-101958249D01*
X121013550Y-101752314D01*
X120953233Y-101740316D01*
X120650000Y-101680000D01*
X120627536Y-101680000D01*
X120511768Y-101602646D01*
X120086224Y-101518000D01*
X119353776Y-101518000D01*
X118928232Y-101602646D01*
X118567473Y-101843697D01*
X118326422Y-102204456D01*
X118300000Y-102337288D01*
X118300000Y-100382711D01*
X118326422Y-100515544D01*
X118567473Y-100876303D01*
X118928232Y-101117354D01*
X119353776Y-101202000D01*
X120086224Y-101202000D01*
X120511768Y-101117354D01*
X120872527Y-100876303D01*
X121113578Y-100515544D01*
X121198224Y-100090000D01*
X121113578Y-99664456D01*
X120872527Y-99303697D01*
X120511768Y-99062646D01*
X120086224Y-98978000D01*
X119353776Y-98978000D01*
X118928232Y-99062646D01*
X118567473Y-99303697D01*
X118326422Y-99664456D01*
X118300000Y-99797288D01*
X118300000Y-85930000D01*
X122932893Y-85930000D01*
X122142893Y-86720000D01*
X120655143Y-86720000D01*
X120623880Y-86562828D01*
X120407107Y-86238404D01*
X120082683Y-86021631D01*
X119700000Y-85945511D01*
X119317317Y-86021631D01*
X118992893Y-86238404D01*
X118776120Y-86562828D01*
X118700000Y-86945511D01*
X118700000Y-87494489D01*
X118776120Y-87877172D01*
X118992893Y-88201596D01*
X119317317Y-88418369D01*
X119700000Y-88494489D01*
X120082683Y-88418369D01*
X120407107Y-88201596D01*
X120623880Y-87877172D01*
X120655143Y-87720000D01*
X121400000Y-87720000D01*
X121400000Y-93620000D01*
X121291524Y-93620000D01*
X121299887Y-93599860D01*
X121300112Y-93341274D01*
X121201364Y-93102286D01*
X121018676Y-92919278D01*
X120779860Y-92820113D01*
X120608910Y-92819964D01*
X120527237Y-92738291D01*
X120527237Y-92138580D01*
X120501344Y-92005126D01*
X120424294Y-91887833D01*
X120307977Y-91809317D01*
X120170380Y-91781723D01*
X119169620Y-91781723D01*
X119036166Y-91807616D01*
X118918873Y-91884666D01*
X118840357Y-92000983D01*
X118812763Y-92138580D01*
X118812763Y-93037740D01*
X118838656Y-93171194D01*
X118915706Y-93288487D01*
X118992241Y-93340149D01*
X118918873Y-93388346D01*
X118840357Y-93504663D01*
X118812763Y-93642260D01*
X118812763Y-94541420D01*
X118838656Y-94674874D01*
X118915706Y-94792167D01*
X119032023Y-94870683D01*
X119169620Y-94898277D01*
X120170380Y-94898277D01*
X120303834Y-94872384D01*
X120421127Y-94795334D01*
X120499643Y-94679017D01*
X120511478Y-94620000D01*
X121400000Y-94620000D01*
X121400000Y-97970690D01*
X121349278Y-98021324D01*
X121250113Y-98260140D01*
X121249888Y-98518726D01*
X121348636Y-98757714D01*
X121531324Y-98940722D01*
X121770140Y-99039887D01*
X122028726Y-99040112D01*
X122267714Y-98941364D01*
X122400061Y-98809247D01*
X122521324Y-98930722D01*
X122760140Y-99029887D01*
X123018726Y-99030112D01*
X123257714Y-98931364D01*
X123440722Y-98748676D01*
X123539887Y-98509860D01*
X123540112Y-98251274D01*
X123441364Y-98012286D01*
X123258676Y-97829278D01*
X123019860Y-97730113D01*
X122947156Y-97730049D01*
X122860000Y-97642893D01*
X122860000Y-88053504D01*
X123193504Y-87720000D01*
X123744856Y-87720000D01*
X123776120Y-87877172D01*
X123992893Y-88201596D01*
X124317317Y-88418369D01*
X124700000Y-88494489D01*
X125082683Y-88418369D01*
X125407107Y-88201596D01*
X125623880Y-87877172D01*
X125700000Y-87494489D01*
X125700000Y-86945511D01*
X125623880Y-86562828D01*
X125575217Y-86490000D01*
X127284782Y-86490000D01*
X127236120Y-86562828D01*
X127160000Y-86945511D01*
X127160000Y-87494489D01*
X127236120Y-87877172D01*
X127452893Y-88201596D01*
X127676053Y-88350706D01*
X127698060Y-88461342D01*
X127806447Y-88623553D01*
X128760000Y-89577106D01*
X128760000Y-89723143D01*
X128180219Y-89723143D01*
X128189887Y-89699860D01*
X128190112Y-89441274D01*
X128091364Y-89202286D01*
X127908676Y-89019278D01*
X127669860Y-88920113D01*
X127421696Y-88919897D01*
X127355334Y-88818873D01*
X127239017Y-88740357D01*
X127101420Y-88712763D01*
X126202260Y-88712763D01*
X126068806Y-88738656D01*
X125951513Y-88815706D01*
X125899850Y-88892241D01*
X125851654Y-88818873D01*
X125735337Y-88740357D01*
X125597740Y-88712763D01*
X124698580Y-88712763D01*
X124565126Y-88738656D01*
X124447833Y-88815706D01*
X124369317Y-88932023D01*
X124341723Y-89069620D01*
X124341723Y-90070380D01*
X124367616Y-90203834D01*
X124444666Y-90321127D01*
X124507113Y-90363280D01*
X124500113Y-90380140D01*
X124499888Y-90638726D01*
X124547637Y-90754288D01*
X124525126Y-90758656D01*
X124407833Y-90835706D01*
X124329317Y-90952023D01*
X124301723Y-91089620D01*
X124301723Y-92090380D01*
X124327616Y-92223834D01*
X124404666Y-92341127D01*
X124520983Y-92419643D01*
X124537268Y-92422908D01*
X124530113Y-92440140D01*
X124529888Y-92698726D01*
X124628636Y-92937714D01*
X124811324Y-93120722D01*
X125050140Y-93219887D01*
X125308726Y-93220112D01*
X125547714Y-93121364D01*
X125730722Y-92938676D01*
X125829887Y-92699860D01*
X125830112Y-92441274D01*
X125793978Y-92353824D01*
X125808487Y-92344294D01*
X125860149Y-92267758D01*
X125908346Y-92341127D01*
X126024663Y-92419643D01*
X126162260Y-92447237D01*
X127061420Y-92447237D01*
X127194874Y-92421344D01*
X127312167Y-92344294D01*
X127390683Y-92227977D01*
X127394445Y-92209217D01*
X127420140Y-92219887D01*
X127678726Y-92220112D01*
X127917714Y-92121364D01*
X128100722Y-91938676D01*
X128199887Y-91699860D01*
X128200098Y-91456857D01*
X130159815Y-91456857D01*
X130138280Y-91478392D01*
X130138280Y-91584458D01*
X130456330Y-91902507D01*
X130792340Y-91566497D01*
X130792340Y-91460431D01*
X130788765Y-91456857D01*
X130985000Y-91456857D01*
X131118454Y-91430964D01*
X131230000Y-91357689D01*
X131230000Y-91898091D01*
X131230000Y-91898091D01*
G37*
X131230000Y-91898091D02*
X131216307Y-91884398D01*
X131110241Y-91884398D01*
X130774231Y-92220408D01*
X130876909Y-92323087D01*
X130523087Y-92676909D01*
X130420408Y-92574231D01*
X130335689Y-92658948D01*
X130017788Y-92341047D01*
X130102507Y-92256330D01*
X129784458Y-91938280D01*
X129678392Y-91938280D01*
X129596710Y-92019962D01*
X129512319Y-92104353D01*
X129466646Y-92214616D01*
X129466645Y-92333963D01*
X129512318Y-92444226D01*
X129610854Y-92542763D01*
X128852260Y-92542763D01*
X128718806Y-92568656D01*
X128601513Y-92645706D01*
X128549850Y-92722241D01*
X128501654Y-92648873D01*
X128385337Y-92570357D01*
X128247740Y-92542763D01*
X127348580Y-92542763D01*
X127215126Y-92568656D01*
X127097833Y-92645706D01*
X127034070Y-92740166D01*
X127009860Y-92730113D01*
X126751274Y-92729888D01*
X126512286Y-92828636D01*
X126329278Y-93011324D01*
X126230113Y-93250140D01*
X126229888Y-93508726D01*
X126328636Y-93747714D01*
X126511324Y-93930722D01*
X126750140Y-94029887D01*
X127008726Y-94030112D01*
X127016287Y-94026987D01*
X127017616Y-94033834D01*
X127031168Y-94054465D01*
X127020442Y-94070355D01*
X127019860Y-94070113D01*
X126761274Y-94069888D01*
X126522286Y-94168636D01*
X126339278Y-94351324D01*
X126240113Y-94590140D01*
X126239888Y-94848726D01*
X126338636Y-95087714D01*
X126521324Y-95270722D01*
X126748635Y-95365110D01*
X126522286Y-95458636D01*
X126339278Y-95641324D01*
X126240113Y-95880140D01*
X126239888Y-96138726D01*
X126338636Y-96377714D01*
X126410735Y-96449939D01*
X126369278Y-96491324D01*
X126270113Y-96730140D01*
X126269888Y-96988726D01*
X126282483Y-97019210D01*
X126009998Y-97019210D01*
X126009998Y-97094208D01*
X125935000Y-97019210D01*
X125619574Y-97019210D01*
X125500227Y-97019210D01*
X125389964Y-97064882D01*
X125305572Y-97149273D01*
X125259900Y-97259536D01*
X125259900Y-97756567D01*
X125099860Y-97690113D01*
X124841274Y-97689888D01*
X124602286Y-97788636D01*
X124419278Y-97971324D01*
X124320113Y-98210140D01*
X124319888Y-98468726D01*
X124418636Y-98707714D01*
X124470000Y-98759167D01*
X124470000Y-103012894D01*
X123882943Y-103599950D01*
X123811274Y-103599888D01*
X123572286Y-103698636D01*
X123389278Y-103881324D01*
X123346895Y-103983392D01*
X121321751Y-101958249D01*
X121013550Y-101752314D01*
X120953233Y-101740316D01*
X120650000Y-101680000D01*
X120627536Y-101680000D01*
X120511768Y-101602646D01*
X120086224Y-101518000D01*
X119353776Y-101518000D01*
X118928232Y-101602646D01*
X118567473Y-101843697D01*
X118326422Y-102204456D01*
X118300000Y-102337288D01*
X118300000Y-100382711D01*
X118326422Y-100515544D01*
X118567473Y-100876303D01*
X118928232Y-101117354D01*
X119353776Y-101202000D01*
X120086224Y-101202000D01*
X120511768Y-101117354D01*
X120872527Y-100876303D01*
X121113578Y-100515544D01*
X121198224Y-100090000D01*
X121113578Y-99664456D01*
X120872527Y-99303697D01*
X120511768Y-99062646D01*
X120086224Y-98978000D01*
X119353776Y-98978000D01*
X118928232Y-99062646D01*
X118567473Y-99303697D01*
X118326422Y-99664456D01*
X118300000Y-99797288D01*
X118300000Y-85930000D01*
X122932893Y-85930000D01*
X122142893Y-86720000D01*
X120655143Y-86720000D01*
X120623880Y-86562828D01*
X120407107Y-86238404D01*
X120082683Y-86021631D01*
X119700000Y-85945511D01*
X119317317Y-86021631D01*
X118992893Y-86238404D01*
X118776120Y-86562828D01*
X118700000Y-86945511D01*
X118700000Y-87494489D01*
X118776120Y-87877172D01*
X118992893Y-88201596D01*
X119317317Y-88418369D01*
X119700000Y-88494489D01*
X120082683Y-88418369D01*
X120407107Y-88201596D01*
X120623880Y-87877172D01*
X120655143Y-87720000D01*
X121400000Y-87720000D01*
X121400000Y-93620000D01*
X121291524Y-93620000D01*
X121299887Y-93599860D01*
X121300112Y-93341274D01*
X121201364Y-93102286D01*
X121018676Y-92919278D01*
X120779860Y-92820113D01*
X120608910Y-92819964D01*
X120527237Y-92738291D01*
X120527237Y-92138580D01*
X120501344Y-92005126D01*
X120424294Y-91887833D01*
X120307977Y-91809317D01*
X120170380Y-91781723D01*
X119169620Y-91781723D01*
X119036166Y-91807616D01*
X118918873Y-91884666D01*
X118840357Y-92000983D01*
X118812763Y-92138580D01*
X118812763Y-93037740D01*
X118838656Y-93171194D01*
X118915706Y-93288487D01*
X118992241Y-93340149D01*
X118918873Y-93388346D01*
X118840357Y-93504663D01*
X118812763Y-93642260D01*
X118812763Y-94541420D01*
X118838656Y-94674874D01*
X118915706Y-94792167D01*
X119032023Y-94870683D01*
X119169620Y-94898277D01*
X120170380Y-94898277D01*
X120303834Y-94872384D01*
X120421127Y-94795334D01*
X120499643Y-94679017D01*
X120511478Y-94620000D01*
X121400000Y-94620000D01*
X121400000Y-97970690D01*
X121349278Y-98021324D01*
X121250113Y-98260140D01*
X121249888Y-98518726D01*
X121348636Y-98757714D01*
X121531324Y-98940722D01*
X121770140Y-99039887D01*
X122028726Y-99040112D01*
X122267714Y-98941364D01*
X122400061Y-98809247D01*
X122521324Y-98930722D01*
X122760140Y-99029887D01*
X123018726Y-99030112D01*
X123257714Y-98931364D01*
X123440722Y-98748676D01*
X123539887Y-98509860D01*
X123540112Y-98251274D01*
X123441364Y-98012286D01*
X123258676Y-97829278D01*
X123019860Y-97730113D01*
X122947156Y-97730049D01*
X122860000Y-97642893D01*
X122860000Y-88053504D01*
X123193504Y-87720000D01*
X123744856Y-87720000D01*
X123776120Y-87877172D01*
X123992893Y-88201596D01*
X124317317Y-88418369D01*
X124700000Y-88494489D01*
X125082683Y-88418369D01*
X125407107Y-88201596D01*
X125623880Y-87877172D01*
X125700000Y-87494489D01*
X125700000Y-86945511D01*
X125623880Y-86562828D01*
X125575217Y-86490000D01*
X127284782Y-86490000D01*
X127236120Y-86562828D01*
X127160000Y-86945511D01*
X127160000Y-87494489D01*
X127236120Y-87877172D01*
X127452893Y-88201596D01*
X127676053Y-88350706D01*
X127698060Y-88461342D01*
X127806447Y-88623553D01*
X128760000Y-89577106D01*
X128760000Y-89723143D01*
X128180219Y-89723143D01*
X128189887Y-89699860D01*
X128190112Y-89441274D01*
X128091364Y-89202286D01*
X127908676Y-89019278D01*
X127669860Y-88920113D01*
X127421696Y-88919897D01*
X127355334Y-88818873D01*
X127239017Y-88740357D01*
X127101420Y-88712763D01*
X126202260Y-88712763D01*
X126068806Y-88738656D01*
X125951513Y-88815706D01*
X125899850Y-88892241D01*
X125851654Y-88818873D01*
X125735337Y-88740357D01*
X125597740Y-88712763D01*
X124698580Y-88712763D01*
X124565126Y-88738656D01*
X124447833Y-88815706D01*
X124369317Y-88932023D01*
X124341723Y-89069620D01*
X124341723Y-90070380D01*
X124367616Y-90203834D01*
X124444666Y-90321127D01*
X124507113Y-90363280D01*
X124500113Y-90380140D01*
X124499888Y-90638726D01*
X124547637Y-90754288D01*
X124525126Y-90758656D01*
X124407833Y-90835706D01*
X124329317Y-90952023D01*
X124301723Y-91089620D01*
X124301723Y-92090380D01*
X124327616Y-92223834D01*
X124404666Y-92341127D01*
X124520983Y-92419643D01*
X124537268Y-92422908D01*
X124530113Y-92440140D01*
X124529888Y-92698726D01*
X124628636Y-92937714D01*
X124811324Y-93120722D01*
X125050140Y-93219887D01*
X125308726Y-93220112D01*
X125547714Y-93121364D01*
X125730722Y-92938676D01*
X125829887Y-92699860D01*
X125830112Y-92441274D01*
X125793978Y-92353824D01*
X125808487Y-92344294D01*
X125860149Y-92267758D01*
X125908346Y-92341127D01*
X126024663Y-92419643D01*
X126162260Y-92447237D01*
X127061420Y-92447237D01*
X127194874Y-92421344D01*
X127312167Y-92344294D01*
X127390683Y-92227977D01*
X127394445Y-92209217D01*
X127420140Y-92219887D01*
X127678726Y-92220112D01*
X127917714Y-92121364D01*
X128100722Y-91938676D01*
X128199887Y-91699860D01*
X128200098Y-91456857D01*
X130159815Y-91456857D01*
X130138280Y-91478392D01*
X130138280Y-91584458D01*
X130456330Y-91902507D01*
X130792340Y-91566497D01*
X130792340Y-91460431D01*
X130788765Y-91456857D01*
X130985000Y-91456857D01*
X131118454Y-91430964D01*
X131230000Y-91357689D01*
X131230000Y-91898091D01*
G36*
X131526326Y-116610171D02*
X130986497Y-117150000D01*
X130113740Y-117150000D01*
X130113740Y-117057360D01*
X130113740Y-116607640D01*
X130113740Y-116473106D01*
X130068068Y-116362843D01*
X129983676Y-116278452D01*
X129873413Y-116232780D01*
X129754066Y-116232780D01*
X129638550Y-116232780D01*
X129563550Y-116307780D01*
X129563550Y-116682640D01*
X130038740Y-116682640D01*
X130113740Y-116607640D01*
X130113740Y-117057360D01*
X130038740Y-116982360D01*
X129563550Y-116982360D01*
X129563550Y-117132220D01*
X129063170Y-117132220D01*
X129063170Y-116982360D01*
X128943360Y-116982360D01*
X128943360Y-116682640D01*
X129063170Y-116682640D01*
X129063170Y-116307780D01*
X128988170Y-116232780D01*
X128872654Y-116232780D01*
X128790380Y-116232780D01*
X128790380Y-116231838D01*
X128790380Y-116072586D01*
X128744708Y-115962323D01*
X128660316Y-115877932D01*
X128617065Y-115860017D01*
X128623834Y-115858704D01*
X128741127Y-115781654D01*
X128819643Y-115665337D01*
X128835939Y-115584077D01*
X129813740Y-115584077D01*
X129947194Y-115558184D01*
X130009424Y-115517304D01*
X130160140Y-115579887D01*
X130418726Y-115580112D01*
X130583053Y-115512213D01*
X130569403Y-115580280D01*
X130569403Y-116179720D01*
X130595296Y-116313174D01*
X130672346Y-116430467D01*
X130788663Y-116508983D01*
X130926260Y-116536577D01*
X131085251Y-116536577D01*
X131139627Y-116572910D01*
X131426640Y-116630000D01*
X131526326Y-116610171D01*
X131526326Y-116610171D01*
G37*
X131526326Y-116610171D02*
X130986497Y-117150000D01*
X130113740Y-117150000D01*
X130113740Y-117057360D01*
X130113740Y-116607640D01*
X130113740Y-116473106D01*
X130068068Y-116362843D01*
X129983676Y-116278452D01*
X129873413Y-116232780D01*
X129754066Y-116232780D01*
X129638550Y-116232780D01*
X129563550Y-116307780D01*
X129563550Y-116682640D01*
X130038740Y-116682640D01*
X130113740Y-116607640D01*
X130113740Y-117057360D01*
X130038740Y-116982360D01*
X129563550Y-116982360D01*
X129563550Y-117132220D01*
X129063170Y-117132220D01*
X129063170Y-116982360D01*
X128943360Y-116982360D01*
X128943360Y-116682640D01*
X129063170Y-116682640D01*
X129063170Y-116307780D01*
X128988170Y-116232780D01*
X128872654Y-116232780D01*
X128790380Y-116232780D01*
X128790380Y-116231838D01*
X128790380Y-116072586D01*
X128744708Y-115962323D01*
X128660316Y-115877932D01*
X128617065Y-115860017D01*
X128623834Y-115858704D01*
X128741127Y-115781654D01*
X128819643Y-115665337D01*
X128835939Y-115584077D01*
X129813740Y-115584077D01*
X129947194Y-115558184D01*
X130009424Y-115517304D01*
X130160140Y-115579887D01*
X130418726Y-115580112D01*
X130583053Y-115512213D01*
X130569403Y-115580280D01*
X130569403Y-116179720D01*
X130595296Y-116313174D01*
X130672346Y-116430467D01*
X130788663Y-116508983D01*
X130926260Y-116536577D01*
X131085251Y-116536577D01*
X131139627Y-116572910D01*
X131426640Y-116630000D01*
X131526326Y-116610171D01*
G36*
X132284782Y-86490000D02*
X132236120Y-86562828D01*
X132160000Y-86945511D01*
X132160000Y-86952893D01*
X131376447Y-87736447D01*
X131268060Y-87898658D01*
X131230000Y-88090000D01*
X131230000Y-89823235D01*
X131122597Y-89750737D01*
X130985000Y-89723143D01*
X130604298Y-89723143D01*
X130604298Y-87714473D01*
X130556409Y-87570000D01*
X130025000Y-87570000D01*
X130025000Y-88282404D01*
X130160644Y-88300847D01*
X130166567Y-88282303D01*
X130441907Y-88041923D01*
X130604298Y-87714473D01*
X130604298Y-89723143D01*
X129760000Y-89723143D01*
X129760000Y-89370000D01*
X129721940Y-89178658D01*
X129613553Y-89016447D01*
X128826101Y-88228995D01*
X128867107Y-88201596D01*
X128968011Y-88050581D01*
X129233433Y-88282303D01*
X129239356Y-88300847D01*
X129375000Y-88282404D01*
X129375000Y-87570000D01*
X129330000Y-87570000D01*
X129330000Y-86870000D01*
X129375000Y-86870000D01*
X129375000Y-86850000D01*
X130025000Y-86850000D01*
X130025000Y-86870000D01*
X130556409Y-86870000D01*
X130604298Y-86725527D01*
X130487494Y-86490000D01*
X132284782Y-86490000D01*
X132284782Y-86490000D01*
G37*
X132284782Y-86490000D02*
X132236120Y-86562828D01*
X132160000Y-86945511D01*
X132160000Y-86952893D01*
X131376447Y-87736447D01*
X131268060Y-87898658D01*
X131230000Y-88090000D01*
X131230000Y-89823235D01*
X131122597Y-89750737D01*
X130985000Y-89723143D01*
X130604298Y-89723143D01*
X130604298Y-87714473D01*
X130556409Y-87570000D01*
X130025000Y-87570000D01*
X130025000Y-88282404D01*
X130160644Y-88300847D01*
X130166567Y-88282303D01*
X130441907Y-88041923D01*
X130604298Y-87714473D01*
X130604298Y-89723143D01*
X129760000Y-89723143D01*
X129760000Y-89370000D01*
X129721940Y-89178658D01*
X129613553Y-89016447D01*
X128826101Y-88228995D01*
X128867107Y-88201596D01*
X128968011Y-88050581D01*
X129233433Y-88282303D01*
X129239356Y-88300847D01*
X129375000Y-88282404D01*
X129375000Y-87570000D01*
X129330000Y-87570000D01*
X129330000Y-86870000D01*
X129375000Y-86870000D01*
X129375000Y-86850000D01*
X130025000Y-86850000D01*
X130025000Y-86870000D01*
X130556409Y-86870000D01*
X130604298Y-86725527D01*
X130487494Y-86490000D01*
X132284782Y-86490000D01*
G36*
X133192911Y-94949981D02*
X132902893Y-95240000D01*
X132757106Y-95240000D01*
X132640000Y-95122893D01*
X132640000Y-94997537D01*
X132659040Y-94997537D01*
X132792494Y-94971644D01*
X132839630Y-94940680D01*
X132859630Y-94940680D01*
X132897921Y-94902388D01*
X132909787Y-94894594D01*
X132918242Y-94882067D01*
X132934630Y-94865680D01*
X132934630Y-94857790D01*
X132988303Y-94778277D01*
X133009455Y-94672801D01*
X133029116Y-94774134D01*
X133084490Y-94858429D01*
X133084490Y-94865680D01*
X133098371Y-94879561D01*
X133106166Y-94891427D01*
X133118692Y-94899882D01*
X133159490Y-94940680D01*
X133179131Y-94940680D01*
X133192911Y-94949981D01*
X133192911Y-94949981D01*
G37*
X133192911Y-94949981D02*
X132902893Y-95240000D01*
X132757106Y-95240000D01*
X132640000Y-95122893D01*
X132640000Y-94997537D01*
X132659040Y-94997537D01*
X132792494Y-94971644D01*
X132839630Y-94940680D01*
X132859630Y-94940680D01*
X132897921Y-94902388D01*
X132909787Y-94894594D01*
X132918242Y-94882067D01*
X132934630Y-94865680D01*
X132934630Y-94857790D01*
X132988303Y-94778277D01*
X133009455Y-94672801D01*
X133029116Y-94774134D01*
X133084490Y-94858429D01*
X133084490Y-94865680D01*
X133098371Y-94879561D01*
X133106166Y-94891427D01*
X133118692Y-94899882D01*
X133159490Y-94940680D01*
X133179131Y-94940680D01*
X133192911Y-94949981D01*
G36*
X134202893Y-104480000D02*
X134142943Y-104539950D01*
X134071274Y-104539888D01*
X133832286Y-104638636D01*
X133649278Y-104821324D01*
X133550113Y-105060140D01*
X133549888Y-105318726D01*
X133568240Y-105363143D01*
X132270000Y-105363143D01*
X132136546Y-105389036D01*
X132019253Y-105466086D01*
X131942359Y-105580000D01*
X131860000Y-105580000D01*
X131611256Y-105629478D01*
X131400381Y-105770380D01*
X130967021Y-106203741D01*
X130826118Y-106414615D01*
X130817909Y-106455884D01*
X130776640Y-106663360D01*
X130776640Y-108749935D01*
X130675513Y-108816366D01*
X130596997Y-108932683D01*
X130569403Y-109070280D01*
X130569403Y-109669720D01*
X130595296Y-109803174D01*
X130672346Y-109920467D01*
X130788663Y-109998983D01*
X130797590Y-110000773D01*
X130733730Y-110096347D01*
X130676640Y-110383360D01*
X130676640Y-112065625D01*
X130675513Y-112066366D01*
X130596997Y-112182683D01*
X130569403Y-112320280D01*
X130569403Y-112919720D01*
X130595296Y-113053174D01*
X130672346Y-113170467D01*
X130788663Y-113248983D01*
X130926260Y-113276577D01*
X131014026Y-113276577D01*
X130889670Y-113359670D01*
X130727090Y-113602987D01*
X130670000Y-113890000D01*
X130676640Y-113923381D01*
X130676640Y-114397273D01*
X130658676Y-114379278D01*
X130419860Y-114280113D01*
X130161274Y-114279888D01*
X130113740Y-114299528D01*
X130113740Y-113931894D01*
X130113740Y-113797360D01*
X130038740Y-113722360D01*
X129563550Y-113722360D01*
X129563550Y-114097220D01*
X129638550Y-114172220D01*
X129754066Y-114172220D01*
X129873413Y-114172220D01*
X129983676Y-114126548D01*
X130068068Y-114042157D01*
X130113740Y-113931894D01*
X130113740Y-114299528D01*
X130013930Y-114340769D01*
X129951337Y-114298517D01*
X129813740Y-114270923D01*
X129063170Y-114270923D01*
X128812980Y-114270923D01*
X128679526Y-114296816D01*
X128651523Y-114315211D01*
X128627977Y-114299317D01*
X128490380Y-114271723D01*
X127489620Y-114271723D01*
X127356166Y-114297616D01*
X127240155Y-114373823D01*
X127260430Y-114271896D01*
X127260430Y-113966494D01*
X127319684Y-114025748D01*
X127429947Y-114071420D01*
X127549294Y-114071420D01*
X127664810Y-114071420D01*
X127739810Y-113996420D01*
X127739810Y-113546630D01*
X127620000Y-113546630D01*
X127620000Y-113097050D01*
X127739810Y-113097050D01*
X127739810Y-112951840D01*
X128240190Y-112951840D01*
X128240190Y-113097050D01*
X128360000Y-113097050D01*
X128360000Y-113546630D01*
X128240190Y-113546630D01*
X128240190Y-113996420D01*
X128315190Y-114071420D01*
X128430706Y-114071420D01*
X128550053Y-114071420D01*
X128576825Y-114060330D01*
X128643044Y-114126548D01*
X128753307Y-114172220D01*
X128872654Y-114172220D01*
X128988170Y-114172220D01*
X129063170Y-114097220D01*
X129063170Y-113722360D01*
X128943360Y-113722360D01*
X128943360Y-113422640D01*
X129063170Y-113422640D01*
X129063170Y-113272780D01*
X129563550Y-113272780D01*
X129563550Y-113422640D01*
X130038740Y-113422640D01*
X130113740Y-113347640D01*
X130113740Y-113213106D01*
X130068068Y-113102843D01*
X129983676Y-113018452D01*
X129873413Y-112972780D01*
X129754066Y-112972780D01*
X129663362Y-112972780D01*
X129638550Y-112972780D01*
X129336330Y-112972780D01*
X129500722Y-112808676D01*
X129599887Y-112569860D01*
X129599950Y-112497156D01*
X129666913Y-112430193D01*
X129666914Y-112430193D01*
X129731886Y-112332954D01*
X129737818Y-112324077D01*
X129813740Y-112324077D01*
X129947194Y-112298184D01*
X130064487Y-112221134D01*
X130143003Y-112104817D01*
X130170597Y-111967220D01*
X130170597Y-111367780D01*
X130144704Y-111234326D01*
X130113740Y-111187189D01*
X130113740Y-110681894D01*
X130113740Y-110547360D01*
X130113740Y-110097640D01*
X130113740Y-109963106D01*
X130068068Y-109852843D01*
X129983676Y-109768452D01*
X129873413Y-109722780D01*
X129754066Y-109722780D01*
X129638550Y-109722780D01*
X129563550Y-109797780D01*
X129563550Y-110172640D01*
X130038740Y-110172640D01*
X130113740Y-110097640D01*
X130113740Y-110547360D01*
X130038740Y-110472360D01*
X129563550Y-110472360D01*
X129563550Y-110847220D01*
X129638550Y-110922220D01*
X129754066Y-110922220D01*
X129873413Y-110922220D01*
X129983676Y-110876548D01*
X130068068Y-110792157D01*
X130113740Y-110681894D01*
X130113740Y-111187189D01*
X130067654Y-111117033D01*
X129951337Y-111038517D01*
X129813740Y-111010923D01*
X129063170Y-111010923D01*
X128812980Y-111010923D01*
X128679526Y-111036816D01*
X128651523Y-111055211D01*
X128627977Y-111039317D01*
X128490380Y-111011723D01*
X127739810Y-111011723D01*
X127739810Y-110746420D01*
X127739810Y-110296630D01*
X127264620Y-110296630D01*
X127189620Y-110371630D01*
X127189620Y-110581094D01*
X127235292Y-110691357D01*
X127319684Y-110775748D01*
X127429947Y-110821420D01*
X127549294Y-110821420D01*
X127664810Y-110821420D01*
X127739810Y-110746420D01*
X127739810Y-111011723D01*
X127489620Y-111011723D01*
X127356166Y-111037616D01*
X127238873Y-111114666D01*
X127170493Y-111215965D01*
X127157706Y-111151677D01*
X126865174Y-110713870D01*
X126427367Y-110421338D01*
X125910940Y-110318614D01*
X125394513Y-110421338D01*
X124956706Y-110713870D01*
X124671063Y-111141366D01*
X124482049Y-110962572D01*
X124095669Y-110814964D01*
X123930000Y-110875008D01*
X123930000Y-111510000D01*
X123950000Y-111510000D01*
X123950000Y-112210000D01*
X123930000Y-112210000D01*
X123930000Y-112844992D01*
X124095669Y-112905036D01*
X124482049Y-112757428D01*
X124561450Y-112682320D01*
X124561450Y-112975987D01*
X124256294Y-113281143D01*
X122610000Y-113281143D01*
X122610000Y-112693151D01*
X122677951Y-112757428D01*
X123064331Y-112905036D01*
X123230000Y-112844992D01*
X123230000Y-112210000D01*
X123210000Y-112210000D01*
X123210000Y-111510000D01*
X123230000Y-111510000D01*
X123230000Y-110875008D01*
X123064331Y-110814964D01*
X122677951Y-110962572D01*
X122610000Y-111026848D01*
X122610000Y-107594582D01*
X123834042Y-106370540D01*
X124317378Y-106370540D01*
X124238959Y-106448959D01*
X124054702Y-106724719D01*
X123990000Y-107050000D01*
X124054702Y-107375281D01*
X124238959Y-107651041D01*
X124514719Y-107835298D01*
X124840000Y-107900000D01*
X125165281Y-107835298D01*
X125357910Y-107706586D01*
X125422303Y-107750053D01*
X125559900Y-107777647D01*
X127160100Y-107777647D01*
X127293554Y-107751754D01*
X127410847Y-107674704D01*
X127489363Y-107558387D01*
X127516957Y-107420790D01*
X127516957Y-104918736D01*
X127640140Y-104969887D01*
X127790000Y-104970017D01*
X127790000Y-107761723D01*
X127489620Y-107761723D01*
X127356166Y-107787616D01*
X127238873Y-107864666D01*
X127160357Y-107980983D01*
X127132763Y-108118580D01*
X127132763Y-109017740D01*
X127158656Y-109151194D01*
X127235706Y-109268487D01*
X127352023Y-109347003D01*
X127364278Y-109349460D01*
X127319684Y-109367932D01*
X127235292Y-109452323D01*
X127189620Y-109562586D01*
X127189620Y-109772050D01*
X127264620Y-109847050D01*
X127739810Y-109847050D01*
X127739810Y-109701840D01*
X128240190Y-109701840D01*
X128240190Y-109847050D01*
X128360000Y-109847050D01*
X128360000Y-110296630D01*
X128240190Y-110296630D01*
X128240190Y-110746420D01*
X128315190Y-110821420D01*
X128430706Y-110821420D01*
X128550053Y-110821420D01*
X128576825Y-110810330D01*
X128643044Y-110876548D01*
X128753307Y-110922220D01*
X128872654Y-110922220D01*
X128988170Y-110922220D01*
X129063170Y-110847220D01*
X129063170Y-110472360D01*
X128943360Y-110472360D01*
X128943360Y-110172640D01*
X129063170Y-110172640D01*
X129063170Y-109797780D01*
X128988170Y-109722780D01*
X128872654Y-109722780D01*
X128790380Y-109722780D01*
X128790380Y-109721838D01*
X128790380Y-109562586D01*
X128744708Y-109452323D01*
X128660316Y-109367932D01*
X128617065Y-109350017D01*
X128623834Y-109348704D01*
X128741127Y-109271654D01*
X128819643Y-109155337D01*
X128835939Y-109074077D01*
X129813740Y-109074077D01*
X129947194Y-109048184D01*
X130064487Y-108971134D01*
X130143003Y-108854817D01*
X130170597Y-108717220D01*
X130170597Y-108117780D01*
X130144704Y-107984326D01*
X130067654Y-107867033D01*
X129951337Y-107788517D01*
X129813740Y-107760923D01*
X128812980Y-107760923D01*
X128790000Y-107765381D01*
X128790000Y-104897106D01*
X129207106Y-104480000D01*
X134202893Y-104480000D01*
X134202893Y-104480000D01*
G37*
X134202893Y-104480000D02*
X134142943Y-104539950D01*
X134071274Y-104539888D01*
X133832286Y-104638636D01*
X133649278Y-104821324D01*
X133550113Y-105060140D01*
X133549888Y-105318726D01*
X133568240Y-105363143D01*
X132270000Y-105363143D01*
X132136546Y-105389036D01*
X132019253Y-105466086D01*
X131942359Y-105580000D01*
X131860000Y-105580000D01*
X131611256Y-105629478D01*
X131400381Y-105770380D01*
X130967021Y-106203741D01*
X130826118Y-106414615D01*
X130817909Y-106455884D01*
X130776640Y-106663360D01*
X130776640Y-108749935D01*
X130675513Y-108816366D01*
X130596997Y-108932683D01*
X130569403Y-109070280D01*
X130569403Y-109669720D01*
X130595296Y-109803174D01*
X130672346Y-109920467D01*
X130788663Y-109998983D01*
X130797590Y-110000773D01*
X130733730Y-110096347D01*
X130676640Y-110383360D01*
X130676640Y-112065625D01*
X130675513Y-112066366D01*
X130596997Y-112182683D01*
X130569403Y-112320280D01*
X130569403Y-112919720D01*
X130595296Y-113053174D01*
X130672346Y-113170467D01*
X130788663Y-113248983D01*
X130926260Y-113276577D01*
X131014026Y-113276577D01*
X130889670Y-113359670D01*
X130727090Y-113602987D01*
X130670000Y-113890000D01*
X130676640Y-113923381D01*
X130676640Y-114397273D01*
X130658676Y-114379278D01*
X130419860Y-114280113D01*
X130161274Y-114279888D01*
X130113740Y-114299528D01*
X130113740Y-113931894D01*
X130113740Y-113797360D01*
X130038740Y-113722360D01*
X129563550Y-113722360D01*
X129563550Y-114097220D01*
X129638550Y-114172220D01*
X129754066Y-114172220D01*
X129873413Y-114172220D01*
X129983676Y-114126548D01*
X130068068Y-114042157D01*
X130113740Y-113931894D01*
X130113740Y-114299528D01*
X130013930Y-114340769D01*
X129951337Y-114298517D01*
X129813740Y-114270923D01*
X129063170Y-114270923D01*
X128812980Y-114270923D01*
X128679526Y-114296816D01*
X128651523Y-114315211D01*
X128627977Y-114299317D01*
X128490380Y-114271723D01*
X127489620Y-114271723D01*
X127356166Y-114297616D01*
X127240155Y-114373823D01*
X127260430Y-114271896D01*
X127260430Y-113966494D01*
X127319684Y-114025748D01*
X127429947Y-114071420D01*
X127549294Y-114071420D01*
X127664810Y-114071420D01*
X127739810Y-113996420D01*
X127739810Y-113546630D01*
X127620000Y-113546630D01*
X127620000Y-113097050D01*
X127739810Y-113097050D01*
X127739810Y-112951840D01*
X128240190Y-112951840D01*
X128240190Y-113097050D01*
X128360000Y-113097050D01*
X128360000Y-113546630D01*
X128240190Y-113546630D01*
X128240190Y-113996420D01*
X128315190Y-114071420D01*
X128430706Y-114071420D01*
X128550053Y-114071420D01*
X128576825Y-114060330D01*
X128643044Y-114126548D01*
X128753307Y-114172220D01*
X128872654Y-114172220D01*
X128988170Y-114172220D01*
X129063170Y-114097220D01*
X129063170Y-113722360D01*
X128943360Y-113722360D01*
X128943360Y-113422640D01*
X129063170Y-113422640D01*
X129063170Y-113272780D01*
X129563550Y-113272780D01*
X129563550Y-113422640D01*
X130038740Y-113422640D01*
X130113740Y-113347640D01*
X130113740Y-113213106D01*
X130068068Y-113102843D01*
X129983676Y-113018452D01*
X129873413Y-112972780D01*
X129754066Y-112972780D01*
X129663362Y-112972780D01*
X129638550Y-112972780D01*
X129336330Y-112972780D01*
X129500722Y-112808676D01*
X129599887Y-112569860D01*
X129599950Y-112497156D01*
X129666913Y-112430193D01*
X129666914Y-112430193D01*
X129731886Y-112332954D01*
X129737818Y-112324077D01*
X129813740Y-112324077D01*
X129947194Y-112298184D01*
X130064487Y-112221134D01*
X130143003Y-112104817D01*
X130170597Y-111967220D01*
X130170597Y-111367780D01*
X130144704Y-111234326D01*
X130113740Y-111187189D01*
X130113740Y-110681894D01*
X130113740Y-110547360D01*
X130113740Y-110097640D01*
X130113740Y-109963106D01*
X130068068Y-109852843D01*
X129983676Y-109768452D01*
X129873413Y-109722780D01*
X129754066Y-109722780D01*
X129638550Y-109722780D01*
X129563550Y-109797780D01*
X129563550Y-110172640D01*
X130038740Y-110172640D01*
X130113740Y-110097640D01*
X130113740Y-110547360D01*
X130038740Y-110472360D01*
X129563550Y-110472360D01*
X129563550Y-110847220D01*
X129638550Y-110922220D01*
X129754066Y-110922220D01*
X129873413Y-110922220D01*
X129983676Y-110876548D01*
X130068068Y-110792157D01*
X130113740Y-110681894D01*
X130113740Y-111187189D01*
X130067654Y-111117033D01*
X129951337Y-111038517D01*
X129813740Y-111010923D01*
X129063170Y-111010923D01*
X128812980Y-111010923D01*
X128679526Y-111036816D01*
X128651523Y-111055211D01*
X128627977Y-111039317D01*
X128490380Y-111011723D01*
X127739810Y-111011723D01*
X127739810Y-110746420D01*
X127739810Y-110296630D01*
X127264620Y-110296630D01*
X127189620Y-110371630D01*
X127189620Y-110581094D01*
X127235292Y-110691357D01*
X127319684Y-110775748D01*
X127429947Y-110821420D01*
X127549294Y-110821420D01*
X127664810Y-110821420D01*
X127739810Y-110746420D01*
X127739810Y-111011723D01*
X127489620Y-111011723D01*
X127356166Y-111037616D01*
X127238873Y-111114666D01*
X127170493Y-111215965D01*
X127157706Y-111151677D01*
X126865174Y-110713870D01*
X126427367Y-110421338D01*
X125910940Y-110318614D01*
X125394513Y-110421338D01*
X124956706Y-110713870D01*
X124671063Y-111141366D01*
X124482049Y-110962572D01*
X124095669Y-110814964D01*
X123930000Y-110875008D01*
X123930000Y-111510000D01*
X123950000Y-111510000D01*
X123950000Y-112210000D01*
X123930000Y-112210000D01*
X123930000Y-112844992D01*
X124095669Y-112905036D01*
X124482049Y-112757428D01*
X124561450Y-112682320D01*
X124561450Y-112975987D01*
X124256294Y-113281143D01*
X122610000Y-113281143D01*
X122610000Y-112693151D01*
X122677951Y-112757428D01*
X123064331Y-112905036D01*
X123230000Y-112844992D01*
X123230000Y-112210000D01*
X123210000Y-112210000D01*
X123210000Y-111510000D01*
X123230000Y-111510000D01*
X123230000Y-110875008D01*
X123064331Y-110814964D01*
X122677951Y-110962572D01*
X122610000Y-111026848D01*
X122610000Y-107594582D01*
X123834042Y-106370540D01*
X124317378Y-106370540D01*
X124238959Y-106448959D01*
X124054702Y-106724719D01*
X123990000Y-107050000D01*
X124054702Y-107375281D01*
X124238959Y-107651041D01*
X124514719Y-107835298D01*
X124840000Y-107900000D01*
X125165281Y-107835298D01*
X125357910Y-107706586D01*
X125422303Y-107750053D01*
X125559900Y-107777647D01*
X127160100Y-107777647D01*
X127293554Y-107751754D01*
X127410847Y-107674704D01*
X127489363Y-107558387D01*
X127516957Y-107420790D01*
X127516957Y-104918736D01*
X127640140Y-104969887D01*
X127790000Y-104970017D01*
X127790000Y-107761723D01*
X127489620Y-107761723D01*
X127356166Y-107787616D01*
X127238873Y-107864666D01*
X127160357Y-107980983D01*
X127132763Y-108118580D01*
X127132763Y-109017740D01*
X127158656Y-109151194D01*
X127235706Y-109268487D01*
X127352023Y-109347003D01*
X127364278Y-109349460D01*
X127319684Y-109367932D01*
X127235292Y-109452323D01*
X127189620Y-109562586D01*
X127189620Y-109772050D01*
X127264620Y-109847050D01*
X127739810Y-109847050D01*
X127739810Y-109701840D01*
X128240190Y-109701840D01*
X128240190Y-109847050D01*
X128360000Y-109847050D01*
X128360000Y-110296630D01*
X128240190Y-110296630D01*
X128240190Y-110746420D01*
X128315190Y-110821420D01*
X128430706Y-110821420D01*
X128550053Y-110821420D01*
X128576825Y-110810330D01*
X128643044Y-110876548D01*
X128753307Y-110922220D01*
X128872654Y-110922220D01*
X128988170Y-110922220D01*
X129063170Y-110847220D01*
X129063170Y-110472360D01*
X128943360Y-110472360D01*
X128943360Y-110172640D01*
X129063170Y-110172640D01*
X129063170Y-109797780D01*
X128988170Y-109722780D01*
X128872654Y-109722780D01*
X128790380Y-109722780D01*
X128790380Y-109721838D01*
X128790380Y-109562586D01*
X128744708Y-109452323D01*
X128660316Y-109367932D01*
X128617065Y-109350017D01*
X128623834Y-109348704D01*
X128741127Y-109271654D01*
X128819643Y-109155337D01*
X128835939Y-109074077D01*
X129813740Y-109074077D01*
X129947194Y-109048184D01*
X130064487Y-108971134D01*
X130143003Y-108854817D01*
X130170597Y-108717220D01*
X130170597Y-108117780D01*
X130144704Y-107984326D01*
X130067654Y-107867033D01*
X129951337Y-107788517D01*
X129813740Y-107760923D01*
X128812980Y-107760923D01*
X128790000Y-107765381D01*
X128790000Y-104897106D01*
X129207106Y-104480000D01*
X134202893Y-104480000D01*
G36*
X136510060Y-101182463D02*
X136359820Y-101182463D01*
X136226366Y-101208356D01*
X136179229Y-101239320D01*
X136159230Y-101239320D01*
X136120938Y-101277611D01*
X136109073Y-101285406D01*
X136100617Y-101297932D01*
X136084230Y-101314320D01*
X136084230Y-101322209D01*
X136030557Y-101401723D01*
X136009404Y-101507198D01*
X135989744Y-101405866D01*
X135934370Y-101321570D01*
X135934370Y-101314320D01*
X135920488Y-101300438D01*
X135912694Y-101288573D01*
X135900167Y-101280117D01*
X135859370Y-101239320D01*
X135839728Y-101239320D01*
X135796377Y-101210057D01*
X135658780Y-101182463D01*
X135359060Y-101182463D01*
X135258363Y-101202000D01*
X135160940Y-101182463D01*
X134861220Y-101182463D01*
X134759232Y-101202250D01*
X134660560Y-101182463D01*
X134360840Y-101182463D01*
X134258852Y-101202250D01*
X134160180Y-101182463D01*
X133860460Y-101182463D01*
X133758472Y-101202250D01*
X133659800Y-101182463D01*
X133360080Y-101182463D01*
X133258092Y-101202250D01*
X133159420Y-101182463D01*
X132859700Y-101182463D01*
X132757712Y-101202250D01*
X132659040Y-101182463D01*
X132359320Y-101182463D01*
X132225866Y-101208356D01*
X132108573Y-101285406D01*
X132030057Y-101401723D01*
X132002463Y-101539320D01*
X132002463Y-102839800D01*
X132008706Y-102871981D01*
X131959278Y-102921324D01*
X131860113Y-103160140D01*
X131859888Y-103418726D01*
X131885205Y-103480000D01*
X129000000Y-103480000D01*
X128808658Y-103518060D01*
X128743685Y-103561473D01*
X128646447Y-103626446D01*
X128320986Y-103951907D01*
X128270000Y-103900832D01*
X128270000Y-101057106D01*
X129487426Y-99839680D01*
X130153343Y-99839680D01*
X130153343Y-99989920D01*
X130179236Y-100123374D01*
X130210200Y-100170510D01*
X130210200Y-100190510D01*
X130248491Y-100228801D01*
X130256286Y-100240667D01*
X130268812Y-100249122D01*
X130285200Y-100265510D01*
X130293089Y-100265510D01*
X130372603Y-100319183D01*
X130478078Y-100340335D01*
X130376746Y-100359996D01*
X130356755Y-100373128D01*
X130356754Y-100373128D01*
X130327838Y-100378880D01*
X130210200Y-100457483D01*
X130165626Y-100487267D01*
X130012942Y-100639950D01*
X129941274Y-100639888D01*
X129702286Y-100738636D01*
X129519278Y-100921324D01*
X129420113Y-101160140D01*
X129419888Y-101418726D01*
X129518636Y-101657714D01*
X129701324Y-101840722D01*
X129940140Y-101939887D01*
X130198726Y-101940112D01*
X130437714Y-101841364D01*
X130620722Y-101658676D01*
X130719887Y-101419860D01*
X130719949Y-101347537D01*
X131810680Y-101347537D01*
X131944134Y-101321644D01*
X132061427Y-101244594D01*
X132139943Y-101128277D01*
X132167537Y-100990680D01*
X132167537Y-100690960D01*
X132141644Y-100557506D01*
X132110680Y-100510369D01*
X132110680Y-100490370D01*
X132072388Y-100452078D01*
X132064594Y-100440213D01*
X132052067Y-100431757D01*
X132035680Y-100415370D01*
X132027790Y-100415370D01*
X131948277Y-100361697D01*
X131842801Y-100340544D01*
X131944134Y-100320884D01*
X132028429Y-100265510D01*
X132035680Y-100265510D01*
X132049561Y-100251628D01*
X132061427Y-100243834D01*
X132069882Y-100231307D01*
X132110680Y-100190510D01*
X132110680Y-100181044D01*
X132180140Y-100209887D01*
X132252844Y-100209950D01*
X132536447Y-100493553D01*
X132698658Y-100601940D01*
X132890000Y-100640000D01*
X134210000Y-100640000D01*
X134210000Y-100639999D01*
X134401342Y-100601940D01*
X134563553Y-100493553D01*
X134637104Y-100420002D01*
X136252893Y-100420002D01*
X136510060Y-100677168D01*
X136510060Y-101182463D01*
X136510060Y-101182463D01*
G37*
X136510060Y-101182463D02*
X136359820Y-101182463D01*
X136226366Y-101208356D01*
X136179229Y-101239320D01*
X136159230Y-101239320D01*
X136120938Y-101277611D01*
X136109073Y-101285406D01*
X136100617Y-101297932D01*
X136084230Y-101314320D01*
X136084230Y-101322209D01*
X136030557Y-101401723D01*
X136009404Y-101507198D01*
X135989744Y-101405866D01*
X135934370Y-101321570D01*
X135934370Y-101314320D01*
X135920488Y-101300438D01*
X135912694Y-101288573D01*
X135900167Y-101280117D01*
X135859370Y-101239320D01*
X135839728Y-101239320D01*
X135796377Y-101210057D01*
X135658780Y-101182463D01*
X135359060Y-101182463D01*
X135258363Y-101202000D01*
X135160940Y-101182463D01*
X134861220Y-101182463D01*
X134759232Y-101202250D01*
X134660560Y-101182463D01*
X134360840Y-101182463D01*
X134258852Y-101202250D01*
X134160180Y-101182463D01*
X133860460Y-101182463D01*
X133758472Y-101202250D01*
X133659800Y-101182463D01*
X133360080Y-101182463D01*
X133258092Y-101202250D01*
X133159420Y-101182463D01*
X132859700Y-101182463D01*
X132757712Y-101202250D01*
X132659040Y-101182463D01*
X132359320Y-101182463D01*
X132225866Y-101208356D01*
X132108573Y-101285406D01*
X132030057Y-101401723D01*
X132002463Y-101539320D01*
X132002463Y-102839800D01*
X132008706Y-102871981D01*
X131959278Y-102921324D01*
X131860113Y-103160140D01*
X131859888Y-103418726D01*
X131885205Y-103480000D01*
X129000000Y-103480000D01*
X128808658Y-103518060D01*
X128743685Y-103561473D01*
X128646447Y-103626446D01*
X128320986Y-103951907D01*
X128270000Y-103900832D01*
X128270000Y-101057106D01*
X129487426Y-99839680D01*
X130153343Y-99839680D01*
X130153343Y-99989920D01*
X130179236Y-100123374D01*
X130210200Y-100170510D01*
X130210200Y-100190510D01*
X130248491Y-100228801D01*
X130256286Y-100240667D01*
X130268812Y-100249122D01*
X130285200Y-100265510D01*
X130293089Y-100265510D01*
X130372603Y-100319183D01*
X130478078Y-100340335D01*
X130376746Y-100359996D01*
X130356755Y-100373128D01*
X130356754Y-100373128D01*
X130327838Y-100378880D01*
X130210200Y-100457483D01*
X130165626Y-100487267D01*
X130012942Y-100639950D01*
X129941274Y-100639888D01*
X129702286Y-100738636D01*
X129519278Y-100921324D01*
X129420113Y-101160140D01*
X129419888Y-101418726D01*
X129518636Y-101657714D01*
X129701324Y-101840722D01*
X129940140Y-101939887D01*
X130198726Y-101940112D01*
X130437714Y-101841364D01*
X130620722Y-101658676D01*
X130719887Y-101419860D01*
X130719949Y-101347537D01*
X131810680Y-101347537D01*
X131944134Y-101321644D01*
X132061427Y-101244594D01*
X132139943Y-101128277D01*
X132167537Y-100990680D01*
X132167537Y-100690960D01*
X132141644Y-100557506D01*
X132110680Y-100510369D01*
X132110680Y-100490370D01*
X132072388Y-100452078D01*
X132064594Y-100440213D01*
X132052067Y-100431757D01*
X132035680Y-100415370D01*
X132027790Y-100415370D01*
X131948277Y-100361697D01*
X131842801Y-100340544D01*
X131944134Y-100320884D01*
X132028429Y-100265510D01*
X132035680Y-100265510D01*
X132049561Y-100251628D01*
X132061427Y-100243834D01*
X132069882Y-100231307D01*
X132110680Y-100190510D01*
X132110680Y-100181044D01*
X132180140Y-100209887D01*
X132252844Y-100209950D01*
X132536447Y-100493553D01*
X132698658Y-100601940D01*
X132890000Y-100640000D01*
X134210000Y-100640000D01*
X134210000Y-100639999D01*
X134401342Y-100601940D01*
X134563553Y-100493553D01*
X134637104Y-100420002D01*
X136252893Y-100420002D01*
X136510060Y-100677168D01*
X136510060Y-101182463D01*
G36*
X137645761Y-96904956D02*
X137579278Y-96971324D01*
X137480113Y-97210140D01*
X137479888Y-97468726D01*
X137578636Y-97707714D01*
X137600787Y-97729904D01*
X137549278Y-97781324D01*
X137539828Y-97804080D01*
X137409860Y-97750113D01*
X137151274Y-97749888D01*
X136912286Y-97848636D01*
X136729278Y-98031324D01*
X136722439Y-98047793D01*
X136679860Y-98030113D01*
X136421274Y-98029888D01*
X136182286Y-98128636D01*
X135999278Y-98311324D01*
X135900113Y-98550140D01*
X135899888Y-98808726D01*
X135966525Y-98970000D01*
X134319309Y-98970000D01*
X134268676Y-98919278D01*
X134069994Y-98836778D01*
X134070112Y-98701274D01*
X133971364Y-98462286D01*
X133788676Y-98279278D01*
X133549860Y-98180113D01*
X133291274Y-98179888D01*
X133052286Y-98278636D01*
X132991515Y-98339300D01*
X132167537Y-98339300D01*
X132167537Y-98189060D01*
X132147999Y-98088363D01*
X132167537Y-97990940D01*
X132167537Y-97691220D01*
X132147749Y-97589232D01*
X132167537Y-97490560D01*
X132167537Y-97190840D01*
X132147749Y-97088852D01*
X132167537Y-96990180D01*
X132167537Y-96690460D01*
X132147749Y-96588472D01*
X132167537Y-96489800D01*
X132167537Y-96190080D01*
X132147749Y-96088092D01*
X132154971Y-96052078D01*
X132196447Y-96093554D01*
X132293685Y-96158526D01*
X132358658Y-96201940D01*
X132358659Y-96201940D01*
X132550000Y-96240000D01*
X133110000Y-96240000D01*
X133110000Y-96239999D01*
X133301342Y-96201940D01*
X133463553Y-96093553D01*
X133957108Y-95599998D01*
X135605796Y-95599998D01*
X135512286Y-95638636D01*
X135329278Y-95821324D01*
X135230113Y-96060140D01*
X135229888Y-96318726D01*
X135328636Y-96557714D01*
X135511324Y-96740722D01*
X135750140Y-96839887D01*
X136008726Y-96840112D01*
X136247714Y-96741364D01*
X136319203Y-96670000D01*
X136720690Y-96670000D01*
X136771324Y-96720722D01*
X137010140Y-96819887D01*
X137268726Y-96820112D01*
X137507714Y-96721364D01*
X137523889Y-96705217D01*
X137578636Y-96837714D01*
X137645761Y-96904956D01*
X137645761Y-96904956D01*
G37*
X137645761Y-96904956D02*
X137579278Y-96971324D01*
X137480113Y-97210140D01*
X137479888Y-97468726D01*
X137578636Y-97707714D01*
X137600787Y-97729904D01*
X137549278Y-97781324D01*
X137539828Y-97804080D01*
X137409860Y-97750113D01*
X137151274Y-97749888D01*
X136912286Y-97848636D01*
X136729278Y-98031324D01*
X136722439Y-98047793D01*
X136679860Y-98030113D01*
X136421274Y-98029888D01*
X136182286Y-98128636D01*
X135999278Y-98311324D01*
X135900113Y-98550140D01*
X135899888Y-98808726D01*
X135966525Y-98970000D01*
X134319309Y-98970000D01*
X134268676Y-98919278D01*
X134069994Y-98836778D01*
X134070112Y-98701274D01*
X133971364Y-98462286D01*
X133788676Y-98279278D01*
X133549860Y-98180113D01*
X133291274Y-98179888D01*
X133052286Y-98278636D01*
X132991515Y-98339300D01*
X132167537Y-98339300D01*
X132167537Y-98189060D01*
X132147999Y-98088363D01*
X132167537Y-97990940D01*
X132167537Y-97691220D01*
X132147749Y-97589232D01*
X132167537Y-97490560D01*
X132167537Y-97190840D01*
X132147749Y-97088852D01*
X132167537Y-96990180D01*
X132167537Y-96690460D01*
X132147749Y-96588472D01*
X132167537Y-96489800D01*
X132167537Y-96190080D01*
X132147749Y-96088092D01*
X132154971Y-96052078D01*
X132196447Y-96093554D01*
X132293685Y-96158526D01*
X132358658Y-96201940D01*
X132358659Y-96201940D01*
X132550000Y-96240000D01*
X133110000Y-96240000D01*
X133110000Y-96239999D01*
X133301342Y-96201940D01*
X133463553Y-96093553D01*
X133957108Y-95599998D01*
X135605796Y-95599998D01*
X135512286Y-95638636D01*
X135329278Y-95821324D01*
X135230113Y-96060140D01*
X135229888Y-96318726D01*
X135328636Y-96557714D01*
X135511324Y-96740722D01*
X135750140Y-96839887D01*
X136008726Y-96840112D01*
X136247714Y-96741364D01*
X136319203Y-96670000D01*
X136720690Y-96670000D01*
X136771324Y-96720722D01*
X137010140Y-96819887D01*
X137268726Y-96820112D01*
X137507714Y-96721364D01*
X137523889Y-96705217D01*
X137578636Y-96837714D01*
X137645761Y-96904956D01*
G36*
X137954583Y-95839180D02*
X137762286Y-95918636D01*
X137746110Y-95934782D01*
X137692372Y-95804727D01*
X137865578Y-95839180D01*
X137954583Y-95839180D01*
X137954583Y-95839180D01*
G37*
X137954583Y-95839180D02*
X137762286Y-95918636D01*
X137746110Y-95934782D01*
X137692372Y-95804727D01*
X137865578Y-95839180D01*
X137954583Y-95839180D01*
G36*
X138530000Y-87570000D02*
X138485000Y-87570000D01*
X138485000Y-87590000D01*
X137835000Y-87590000D01*
X137835000Y-87570000D01*
X137790000Y-87570000D01*
X137790000Y-86870000D01*
X137835000Y-86870000D01*
X137835000Y-86850000D01*
X138485000Y-86850000D01*
X138485000Y-86870000D01*
X138530000Y-86870000D01*
X138530000Y-87570000D01*
X138530000Y-87570000D01*
G37*
X138530000Y-87570000D02*
X138485000Y-87570000D01*
X138485000Y-87590000D01*
X137835000Y-87590000D01*
X137835000Y-87570000D01*
X137790000Y-87570000D01*
X137790000Y-86870000D01*
X137835000Y-86870000D01*
X137835000Y-86850000D01*
X138485000Y-86850000D01*
X138485000Y-86870000D01*
X138530000Y-86870000D01*
X138530000Y-87570000D01*
G36*
X138791341Y-114406577D02*
X138377918Y-114820000D01*
X136133360Y-114820000D01*
X136133360Y-114552640D01*
X136253170Y-114552640D01*
X136253170Y-114402780D01*
X136753550Y-114402780D01*
X136753550Y-114552640D01*
X137228740Y-114552640D01*
X137303740Y-114477640D01*
X137303740Y-114343106D01*
X137258068Y-114232843D01*
X137173676Y-114148452D01*
X137063413Y-114102780D01*
X136944066Y-114102780D01*
X136876313Y-114102780D01*
X137050722Y-113928676D01*
X137149887Y-113689860D01*
X137150112Y-113431274D01*
X137146350Y-113422169D01*
X137254487Y-113351134D01*
X137333003Y-113234817D01*
X137360597Y-113097220D01*
X137360597Y-112497780D01*
X137334704Y-112364326D01*
X137303740Y-112317189D01*
X137303740Y-111801894D01*
X137303740Y-111667360D01*
X137228740Y-111592360D01*
X136753550Y-111592360D01*
X136753550Y-111967220D01*
X136828550Y-112042220D01*
X136944066Y-112042220D01*
X137063413Y-112042220D01*
X137173676Y-111996548D01*
X137258068Y-111912157D01*
X137303740Y-111801894D01*
X137303740Y-112317189D01*
X137257654Y-112247033D01*
X137141337Y-112168517D01*
X137003740Y-112140923D01*
X136002980Y-112140923D01*
X135869526Y-112166816D01*
X135752233Y-112243866D01*
X135673717Y-112360183D01*
X135646123Y-112497780D01*
X135646123Y-112983143D01*
X134374755Y-112983143D01*
X134358549Y-112972314D01*
X133995000Y-112900000D01*
X133631451Y-112972314D01*
X133615244Y-112983143D01*
X133343679Y-112983143D01*
X133400000Y-112700000D01*
X133400000Y-112480660D01*
X133703803Y-112176857D01*
X135720000Y-112176857D01*
X135853454Y-112150964D01*
X135970747Y-112073914D01*
X135992141Y-112042220D01*
X136062654Y-112042220D01*
X136178170Y-112042220D01*
X136253170Y-111967220D01*
X136253170Y-111592360D01*
X136133360Y-111592360D01*
X136133360Y-111292640D01*
X136253170Y-111292640D01*
X136253170Y-111142780D01*
X136753550Y-111142780D01*
X136753550Y-111292640D01*
X137228740Y-111292640D01*
X137303740Y-111217640D01*
X137303740Y-111083106D01*
X137258068Y-110972843D01*
X137173676Y-110888452D01*
X137063413Y-110842780D01*
X136944066Y-110842780D01*
X136853362Y-110842780D01*
X136828550Y-110842780D01*
X136786313Y-110842780D01*
X136960722Y-110668676D01*
X137059887Y-110429860D01*
X137060101Y-110183141D01*
X137137194Y-110168184D01*
X137254487Y-110091134D01*
X137333003Y-109974817D01*
X137360597Y-109837220D01*
X137360597Y-109237780D01*
X137334704Y-109104326D01*
X137293740Y-109041966D01*
X137293740Y-108541894D01*
X137293740Y-108407360D01*
X137218740Y-108332360D01*
X136743550Y-108332360D01*
X136743550Y-108707220D01*
X136818550Y-108782220D01*
X136934066Y-108782220D01*
X137053413Y-108782220D01*
X137163676Y-108736548D01*
X137248068Y-108652157D01*
X137293740Y-108541894D01*
X137293740Y-109041966D01*
X137257654Y-108987033D01*
X137141337Y-108908517D01*
X137003740Y-108880923D01*
X136076857Y-108880923D01*
X136076857Y-108782220D01*
X136168170Y-108782220D01*
X136243170Y-108707220D01*
X136243170Y-108332360D01*
X136123360Y-108332360D01*
X136123360Y-108032640D01*
X136243170Y-108032640D01*
X136243170Y-107882780D01*
X136263025Y-107882780D01*
X136280140Y-107889887D01*
X136538726Y-107890112D01*
X136556470Y-107882780D01*
X136743550Y-107882780D01*
X136743550Y-108032640D01*
X137218740Y-108032640D01*
X137275206Y-107976173D01*
X137308060Y-108141342D01*
X137416447Y-108303553D01*
X137939950Y-108827056D01*
X137939888Y-108898726D01*
X138038636Y-109137714D01*
X138221324Y-109320722D01*
X138298142Y-109352619D01*
X138157021Y-109493741D01*
X138016118Y-109704615D01*
X138007909Y-109745884D01*
X137985448Y-109858803D01*
X137982806Y-109859316D01*
X137865513Y-109936366D01*
X137786997Y-110052683D01*
X137759403Y-110190280D01*
X137759403Y-110789720D01*
X137785296Y-110923174D01*
X137862346Y-111040467D01*
X137978663Y-111118983D01*
X138116260Y-111146577D01*
X138404184Y-111146577D01*
X138157021Y-111393741D01*
X138016118Y-111604615D01*
X138007909Y-111645884D01*
X137966640Y-111853360D01*
X137966640Y-113129935D01*
X137865513Y-113196366D01*
X137786997Y-113312683D01*
X137759403Y-113450280D01*
X137759403Y-114049720D01*
X137785296Y-114183174D01*
X137862346Y-114300467D01*
X137978663Y-114378983D01*
X138116260Y-114406577D01*
X138791341Y-114406577D01*
X138791341Y-114406577D01*
G37*
X138791341Y-114406577D02*
X138377918Y-114820000D01*
X136133360Y-114820000D01*
X136133360Y-114552640D01*
X136253170Y-114552640D01*
X136253170Y-114402780D01*
X136753550Y-114402780D01*
X136753550Y-114552640D01*
X137228740Y-114552640D01*
X137303740Y-114477640D01*
X137303740Y-114343106D01*
X137258068Y-114232843D01*
X137173676Y-114148452D01*
X137063413Y-114102780D01*
X136944066Y-114102780D01*
X136876313Y-114102780D01*
X137050722Y-113928676D01*
X137149887Y-113689860D01*
X137150112Y-113431274D01*
X137146350Y-113422169D01*
X137254487Y-113351134D01*
X137333003Y-113234817D01*
X137360597Y-113097220D01*
X137360597Y-112497780D01*
X137334704Y-112364326D01*
X137303740Y-112317189D01*
X137303740Y-111801894D01*
X137303740Y-111667360D01*
X137228740Y-111592360D01*
X136753550Y-111592360D01*
X136753550Y-111967220D01*
X136828550Y-112042220D01*
X136944066Y-112042220D01*
X137063413Y-112042220D01*
X137173676Y-111996548D01*
X137258068Y-111912157D01*
X137303740Y-111801894D01*
X137303740Y-112317189D01*
X137257654Y-112247033D01*
X137141337Y-112168517D01*
X137003740Y-112140923D01*
X136002980Y-112140923D01*
X135869526Y-112166816D01*
X135752233Y-112243866D01*
X135673717Y-112360183D01*
X135646123Y-112497780D01*
X135646123Y-112983143D01*
X134374755Y-112983143D01*
X134358549Y-112972314D01*
X133995000Y-112900000D01*
X133631451Y-112972314D01*
X133615244Y-112983143D01*
X133343679Y-112983143D01*
X133400000Y-112700000D01*
X133400000Y-112480660D01*
X133703803Y-112176857D01*
X135720000Y-112176857D01*
X135853454Y-112150964D01*
X135970747Y-112073914D01*
X135992141Y-112042220D01*
X136062654Y-112042220D01*
X136178170Y-112042220D01*
X136253170Y-111967220D01*
X136253170Y-111592360D01*
X136133360Y-111592360D01*
X136133360Y-111292640D01*
X136253170Y-111292640D01*
X136253170Y-111142780D01*
X136753550Y-111142780D01*
X136753550Y-111292640D01*
X137228740Y-111292640D01*
X137303740Y-111217640D01*
X137303740Y-111083106D01*
X137258068Y-110972843D01*
X137173676Y-110888452D01*
X137063413Y-110842780D01*
X136944066Y-110842780D01*
X136853362Y-110842780D01*
X136828550Y-110842780D01*
X136786313Y-110842780D01*
X136960722Y-110668676D01*
X137059887Y-110429860D01*
X137060101Y-110183141D01*
X137137194Y-110168184D01*
X137254487Y-110091134D01*
X137333003Y-109974817D01*
X137360597Y-109837220D01*
X137360597Y-109237780D01*
X137334704Y-109104326D01*
X137293740Y-109041966D01*
X137293740Y-108541894D01*
X137293740Y-108407360D01*
X137218740Y-108332360D01*
X136743550Y-108332360D01*
X136743550Y-108707220D01*
X136818550Y-108782220D01*
X136934066Y-108782220D01*
X137053413Y-108782220D01*
X137163676Y-108736548D01*
X137248068Y-108652157D01*
X137293740Y-108541894D01*
X137293740Y-109041966D01*
X137257654Y-108987033D01*
X137141337Y-108908517D01*
X137003740Y-108880923D01*
X136076857Y-108880923D01*
X136076857Y-108782220D01*
X136168170Y-108782220D01*
X136243170Y-108707220D01*
X136243170Y-108332360D01*
X136123360Y-108332360D01*
X136123360Y-108032640D01*
X136243170Y-108032640D01*
X136243170Y-107882780D01*
X136263025Y-107882780D01*
X136280140Y-107889887D01*
X136538726Y-107890112D01*
X136556470Y-107882780D01*
X136743550Y-107882780D01*
X136743550Y-108032640D01*
X137218740Y-108032640D01*
X137275206Y-107976173D01*
X137308060Y-108141342D01*
X137416447Y-108303553D01*
X137939950Y-108827056D01*
X137939888Y-108898726D01*
X138038636Y-109137714D01*
X138221324Y-109320722D01*
X138298142Y-109352619D01*
X138157021Y-109493741D01*
X138016118Y-109704615D01*
X138007909Y-109745884D01*
X137985448Y-109858803D01*
X137982806Y-109859316D01*
X137865513Y-109936366D01*
X137786997Y-110052683D01*
X137759403Y-110190280D01*
X137759403Y-110789720D01*
X137785296Y-110923174D01*
X137862346Y-111040467D01*
X137978663Y-111118983D01*
X138116260Y-111146577D01*
X138404184Y-111146577D01*
X138157021Y-111393741D01*
X138016118Y-111604615D01*
X138007909Y-111645884D01*
X137966640Y-111853360D01*
X137966640Y-113129935D01*
X137865513Y-113196366D01*
X137786997Y-113312683D01*
X137759403Y-113450280D01*
X137759403Y-114049720D01*
X137785296Y-114183174D01*
X137862346Y-114300467D01*
X137978663Y-114378983D01*
X138116260Y-114406577D01*
X138791341Y-114406577D01*
G36*
X139370000Y-101915689D02*
X138517537Y-102768152D01*
X138517537Y-101539320D01*
X138491644Y-101405866D01*
X138414594Y-101288573D01*
X138298277Y-101210057D01*
X138160680Y-101182463D01*
X137860960Y-101182463D01*
X137758972Y-101202250D01*
X137660300Y-101182463D01*
X137510060Y-101182463D01*
X137510060Y-100557166D01*
X137646887Y-100693993D01*
X137809098Y-100802380D01*
X138000440Y-100840440D01*
X138352463Y-100840440D01*
X138352463Y-100990680D01*
X138378356Y-101124134D01*
X138455406Y-101241427D01*
X138571723Y-101319943D01*
X138709320Y-101347537D01*
X139370000Y-101347537D01*
X139370000Y-101915689D01*
X139370000Y-101915689D01*
G37*
X139370000Y-101915689D02*
X138517537Y-102768152D01*
X138517537Y-101539320D01*
X138491644Y-101405866D01*
X138414594Y-101288573D01*
X138298277Y-101210057D01*
X138160680Y-101182463D01*
X137860960Y-101182463D01*
X137758972Y-101202250D01*
X137660300Y-101182463D01*
X137510060Y-101182463D01*
X137510060Y-100557166D01*
X137646887Y-100693993D01*
X137809098Y-100802380D01*
X138000440Y-100840440D01*
X138352463Y-100840440D01*
X138352463Y-100990680D01*
X138378356Y-101124134D01*
X138455406Y-101241427D01*
X138571723Y-101319943D01*
X138709320Y-101347537D01*
X139370000Y-101347537D01*
X139370000Y-101915689D01*
G36*
X141363944Y-94970380D02*
X141363423Y-94972980D01*
X141363423Y-95514278D01*
X141218676Y-95369278D01*
X140979860Y-95270113D01*
X140721274Y-95269888D01*
X140482286Y-95368636D01*
X140366657Y-95484062D01*
X140366657Y-95189320D01*
X140342261Y-95063585D01*
X140378609Y-95027237D01*
X140667740Y-95027237D01*
X140801194Y-95001344D01*
X140918487Y-94924294D01*
X140997003Y-94807977D01*
X140999460Y-94795721D01*
X141017932Y-94840316D01*
X141102323Y-94924708D01*
X141212586Y-94970380D01*
X141363944Y-94970380D01*
X141363944Y-94970380D01*
G37*
X141363944Y-94970380D02*
X141363423Y-94972980D01*
X141363423Y-95514278D01*
X141218676Y-95369278D01*
X140979860Y-95270113D01*
X140721274Y-95269888D01*
X140482286Y-95368636D01*
X140366657Y-95484062D01*
X140366657Y-95189320D01*
X140342261Y-95063585D01*
X140378609Y-95027237D01*
X140667740Y-95027237D01*
X140801194Y-95001344D01*
X140918487Y-94924294D01*
X140997003Y-94807977D01*
X140999460Y-94795721D01*
X141017932Y-94840316D01*
X141102323Y-94924708D01*
X141212586Y-94970380D01*
X141363944Y-94970380D01*
G36*
X142091840Y-94420190D02*
X141946630Y-94420190D01*
X141946630Y-94540000D01*
X141497050Y-94540000D01*
X141497050Y-94420190D01*
X141351840Y-94420190D01*
X141351840Y-93919810D01*
X141497050Y-93919810D01*
X141497050Y-93800000D01*
X141946630Y-93800000D01*
X141946630Y-93919810D01*
X142091840Y-93919810D01*
X142091840Y-94420190D01*
X142091840Y-94420190D01*
G37*
X142091840Y-94420190D02*
X141946630Y-94420190D01*
X141946630Y-94540000D01*
X141497050Y-94540000D01*
X141497050Y-94420190D01*
X141351840Y-94420190D01*
X141351840Y-93919810D01*
X141497050Y-93919810D01*
X141497050Y-93800000D01*
X141946630Y-93800000D01*
X141946630Y-93919810D01*
X142091840Y-93919810D01*
X142091840Y-94420190D01*
G36*
X148420000Y-121110000D02*
X148000321Y-121110000D01*
X148000321Y-118833627D01*
X148000321Y-109093627D01*
X147719268Y-108413428D01*
X147199309Y-107892561D01*
X146519602Y-107610321D01*
X145783627Y-107609679D01*
X145103428Y-107890732D01*
X144582561Y-108410691D01*
X144300321Y-109090398D01*
X144299679Y-109826373D01*
X144580732Y-110506572D01*
X145100691Y-111027439D01*
X145780398Y-111309679D01*
X146516373Y-111310321D01*
X147196572Y-111029268D01*
X147717439Y-110509309D01*
X147999679Y-109829602D01*
X148000321Y-109093627D01*
X148000321Y-118833627D01*
X147719268Y-118153428D01*
X147199309Y-117632561D01*
X146519602Y-117350321D01*
X145783627Y-117349679D01*
X145103428Y-117630732D01*
X144582561Y-118150691D01*
X144300321Y-118830398D01*
X144299679Y-119566373D01*
X144580732Y-120246572D01*
X145100691Y-120767439D01*
X145780398Y-121049679D01*
X146516373Y-121050321D01*
X147196572Y-120769268D01*
X147717439Y-120249309D01*
X147999679Y-119569602D01*
X148000321Y-118833627D01*
X148000321Y-121110000D01*
X125342189Y-121110000D01*
X122810120Y-121110000D01*
X122810120Y-119570470D01*
X122810120Y-118620980D01*
X120985957Y-118620980D01*
X120978051Y-118812444D01*
X120992995Y-118942371D01*
X121338709Y-119337613D01*
X121809360Y-119570470D01*
X122810120Y-119570470D01*
X122810120Y-121110000D01*
X119558920Y-121110000D01*
X119558920Y-115144163D01*
X119558920Y-113320000D01*
X119558920Y-112620000D01*
X119558920Y-110795837D01*
X119367456Y-110787931D01*
X119237529Y-110802875D01*
X118842287Y-111148589D01*
X118609430Y-111619240D01*
X118609430Y-112620000D01*
X119558920Y-112620000D01*
X119558920Y-113320000D01*
X118609430Y-113320000D01*
X118609430Y-114320760D01*
X118842287Y-114791411D01*
X119237529Y-115137125D01*
X119367456Y-115152069D01*
X119558920Y-115144163D01*
X119558920Y-121110000D01*
X118300000Y-121110000D01*
X118300000Y-106081870D01*
X118366266Y-106182747D01*
X118482583Y-106261263D01*
X118620180Y-106288857D01*
X120819820Y-106288857D01*
X120953274Y-106262964D01*
X121070567Y-106185914D01*
X121149083Y-106069597D01*
X121176677Y-105932000D01*
X121176677Y-104500179D01*
X122097037Y-105420540D01*
X120988249Y-106529329D01*
X120782314Y-106837530D01*
X120770316Y-106897846D01*
X120710000Y-107201080D01*
X120710000Y-110916312D01*
X120580311Y-110802875D01*
X120450384Y-110787931D01*
X120258920Y-110795837D01*
X120258920Y-112620000D01*
X120278920Y-112620000D01*
X120278920Y-113320000D01*
X120258920Y-113320000D01*
X120258920Y-115144163D01*
X120450384Y-115152069D01*
X120580311Y-115137125D01*
X120710000Y-115023687D01*
X120710000Y-115480000D01*
X120770316Y-115783233D01*
X120782314Y-115843550D01*
X120988249Y-116151751D01*
X121808441Y-116971944D01*
X121338709Y-117204347D01*
X120992995Y-117599589D01*
X120978051Y-117729516D01*
X120985957Y-117920980D01*
X122810120Y-117920980D01*
X122810120Y-117900980D01*
X123510120Y-117900980D01*
X123510120Y-117920980D01*
X123530120Y-117920980D01*
X123530120Y-118620980D01*
X123510120Y-118620980D01*
X123510120Y-119570470D01*
X124510880Y-119570470D01*
X124981531Y-119337613D01*
X125327245Y-118942371D01*
X125342189Y-118812444D01*
X125334283Y-118620982D01*
X125460370Y-118620982D01*
X125460370Y-118303873D01*
X125928249Y-118771752D01*
X126236450Y-118977686D01*
X126236451Y-118977686D01*
X126600000Y-119050000D01*
X131380000Y-119050000D01*
X131380000Y-119049999D01*
X131650176Y-118996258D01*
X131649679Y-119566373D01*
X131930732Y-120246572D01*
X132450691Y-120767439D01*
X133130398Y-121049679D01*
X133866373Y-121050321D01*
X134546572Y-120769268D01*
X135067439Y-120249309D01*
X135349679Y-119569602D01*
X135350321Y-118833627D01*
X135069268Y-118153428D01*
X134549309Y-117632561D01*
X133869602Y-117350321D01*
X133473527Y-117349975D01*
X134666751Y-116156752D01*
X134666751Y-116156751D01*
X134798096Y-115960178D01*
X135108959Y-116271041D01*
X135384719Y-116455298D01*
X135710000Y-116520001D01*
X135710000Y-116520000D01*
X135710005Y-116520000D01*
X138730000Y-116520000D01*
X139055281Y-116455298D01*
X139331041Y-116271041D01*
X140785225Y-114816857D01*
X142910000Y-114816857D01*
X143043454Y-114790964D01*
X143160747Y-114713914D01*
X143239263Y-114597597D01*
X143266857Y-114460000D01*
X143266857Y-113440000D01*
X143240964Y-113306546D01*
X143163914Y-113189253D01*
X143047597Y-113110737D01*
X142910000Y-113083143D01*
X142047494Y-113083143D01*
X142070000Y-112970000D01*
X142005298Y-112644719D01*
X141821040Y-112368960D01*
X141683199Y-112276857D01*
X142910000Y-112276857D01*
X143043454Y-112250964D01*
X143160747Y-112173914D01*
X143239263Y-112057597D01*
X143266857Y-111920000D01*
X143266857Y-110900000D01*
X143240964Y-110766546D01*
X143163914Y-110649253D01*
X143047597Y-110570737D01*
X142910000Y-110543143D01*
X139473877Y-110543143D01*
X139473877Y-110190280D01*
X139447984Y-110056826D01*
X139441810Y-110047427D01*
X139752381Y-109736857D01*
X142910000Y-109736857D01*
X143043454Y-109710964D01*
X143160747Y-109633914D01*
X143239263Y-109517597D01*
X143266857Y-109380000D01*
X143266857Y-108507385D01*
X143280000Y-108510000D01*
X143605281Y-108445298D01*
X143881041Y-108261041D01*
X144905224Y-107236857D01*
X147060000Y-107236857D01*
X147193454Y-107210964D01*
X147310747Y-107133914D01*
X147389263Y-107017597D01*
X147416857Y-106880000D01*
X147416857Y-105860000D01*
X147390964Y-105726546D01*
X147313914Y-105609253D01*
X147197597Y-105530737D01*
X147060000Y-105503143D01*
X143610000Y-105503143D01*
X143476546Y-105529036D01*
X143359253Y-105606086D01*
X143280737Y-105722403D01*
X143264057Y-105805573D01*
X143240964Y-105686546D01*
X143163914Y-105569253D01*
X143047597Y-105490737D01*
X142910000Y-105463143D01*
X141633740Y-105463143D01*
X141633740Y-104371894D01*
X141633740Y-104237360D01*
X141633740Y-103787640D01*
X141633740Y-103653106D01*
X141588068Y-103542843D01*
X141503676Y-103458452D01*
X141393413Y-103412780D01*
X141274066Y-103412780D01*
X141158550Y-103412780D01*
X141083550Y-103487780D01*
X141083550Y-103862640D01*
X141558740Y-103862640D01*
X141633740Y-103787640D01*
X141633740Y-104237360D01*
X141558740Y-104162360D01*
X141083550Y-104162360D01*
X141083550Y-104537220D01*
X141158550Y-104612220D01*
X141274066Y-104612220D01*
X141393413Y-104612220D01*
X141503676Y-104566548D01*
X141588068Y-104482157D01*
X141633740Y-104371894D01*
X141633740Y-105463143D01*
X140583170Y-105463143D01*
X140583170Y-104537220D01*
X140583170Y-104162360D01*
X140583170Y-103862640D01*
X140583170Y-103487780D01*
X140508170Y-103412780D01*
X140392654Y-103412780D01*
X140273307Y-103412780D01*
X140163044Y-103458452D01*
X140078652Y-103542843D01*
X140032980Y-103653106D01*
X140032980Y-103787640D01*
X140107980Y-103862640D01*
X140583170Y-103862640D01*
X140583170Y-104162360D01*
X140107980Y-104162360D01*
X140032980Y-104237360D01*
X140032980Y-104371894D01*
X140078652Y-104482157D01*
X140163044Y-104566548D01*
X140273307Y-104612220D01*
X140392654Y-104612220D01*
X140508170Y-104612220D01*
X140583170Y-104537220D01*
X140583170Y-105463143D01*
X139460000Y-105463143D01*
X139326546Y-105489036D01*
X139209253Y-105566086D01*
X139132359Y-105680000D01*
X139000000Y-105680000D01*
X138792524Y-105721269D01*
X138751255Y-105729478D01*
X138540381Y-105870381D01*
X138270000Y-106140762D01*
X138270000Y-104429902D01*
X140064345Y-102635557D01*
X140079066Y-102657967D01*
X140195383Y-102736483D01*
X140332980Y-102764077D01*
X141333740Y-102764077D01*
X141467194Y-102738184D01*
X141513932Y-102707481D01*
X141640140Y-102759887D01*
X141898726Y-102760112D01*
X142106667Y-102674192D01*
X142089403Y-102760280D01*
X142089403Y-103359720D01*
X142115296Y-103493174D01*
X142192346Y-103610467D01*
X142308663Y-103688983D01*
X142446260Y-103716577D01*
X142683978Y-103716577D01*
X143253143Y-104285741D01*
X143253143Y-104340000D01*
X143279036Y-104473454D01*
X143356086Y-104590747D01*
X143472403Y-104669263D01*
X143610000Y-104696857D01*
X147060000Y-104696857D01*
X147193454Y-104670964D01*
X147310747Y-104593914D01*
X147389263Y-104477597D01*
X147416857Y-104340000D01*
X147416857Y-103320000D01*
X147390964Y-103186546D01*
X147313914Y-103069253D01*
X147197597Y-102990737D01*
X147060000Y-102963143D01*
X143803877Y-102963143D01*
X143803877Y-102760280D01*
X143777984Y-102626826D01*
X143700934Y-102509533D01*
X143584617Y-102431017D01*
X143447020Y-102403423D01*
X142446260Y-102403423D01*
X142343707Y-102423320D01*
X142419887Y-102239860D01*
X142420112Y-101981274D01*
X142321364Y-101742286D01*
X142138676Y-101559278D01*
X141899860Y-101460113D01*
X141641274Y-101459888D01*
X141623740Y-101467132D01*
X141623740Y-101071894D01*
X141623740Y-100937360D01*
X141623740Y-100487640D01*
X141623740Y-100353106D01*
X141578068Y-100242843D01*
X141493676Y-100158452D01*
X141383413Y-100112780D01*
X141264066Y-100112780D01*
X141148550Y-100112780D01*
X141073550Y-100187780D01*
X141073550Y-100562640D01*
X141548740Y-100562640D01*
X141623740Y-100487640D01*
X141623740Y-100937360D01*
X141548740Y-100862360D01*
X141073550Y-100862360D01*
X141073550Y-101237220D01*
X141148550Y-101312220D01*
X141264066Y-101312220D01*
X141383413Y-101312220D01*
X141493676Y-101266548D01*
X141578068Y-101182157D01*
X141623740Y-101071894D01*
X141623740Y-101467132D01*
X141518742Y-101510516D01*
X141471337Y-101478517D01*
X141333740Y-101450923D01*
X140370000Y-101450923D01*
X140370000Y-101312220D01*
X140382654Y-101312220D01*
X140498170Y-101312220D01*
X140573170Y-101237220D01*
X140573170Y-100862360D01*
X140453360Y-100862360D01*
X140453360Y-100562640D01*
X140573170Y-100562640D01*
X140573170Y-100217434D01*
X140701342Y-100191940D01*
X140863554Y-100083554D01*
X140971940Y-99921342D01*
X141010000Y-99730000D01*
X140971940Y-99538658D01*
X140922106Y-99464077D01*
X141144760Y-99464077D01*
X141191324Y-99510722D01*
X141430140Y-99609887D01*
X141688726Y-99610112D01*
X141927714Y-99511364D01*
X142104561Y-99334825D01*
X142079403Y-99460280D01*
X142079403Y-100059720D01*
X142105296Y-100193174D01*
X142182346Y-100310467D01*
X142286640Y-100380867D01*
X142286640Y-101006640D01*
X142327909Y-101214115D01*
X142336118Y-101255385D01*
X142477021Y-101466259D01*
X142760381Y-101749620D01*
X142971256Y-101890522D01*
X143220000Y-101940000D01*
X143283336Y-101940000D01*
X143356086Y-102050747D01*
X143472403Y-102129263D01*
X143610000Y-102156857D01*
X147060000Y-102156857D01*
X147193454Y-102130964D01*
X147310747Y-102053914D01*
X147389263Y-101937597D01*
X147416857Y-101800000D01*
X147416857Y-100780000D01*
X147390964Y-100646546D01*
X147313914Y-100529253D01*
X147197597Y-100450737D01*
X147060000Y-100423143D01*
X143610000Y-100423143D01*
X143586640Y-100427675D01*
X143586640Y-100380064D01*
X143687767Y-100313634D01*
X143766283Y-100197317D01*
X143793877Y-100059720D01*
X143793877Y-99616857D01*
X147060000Y-99616857D01*
X147193454Y-99590964D01*
X147310747Y-99513914D01*
X147389263Y-99397597D01*
X147416857Y-99260000D01*
X147416857Y-98240000D01*
X147390964Y-98106546D01*
X147313914Y-97989253D01*
X147197597Y-97910737D01*
X147060000Y-97883143D01*
X143610000Y-97883143D01*
X143554333Y-97893943D01*
X143497220Y-97836830D01*
X143122360Y-97836830D01*
X143122360Y-97956640D01*
X142822640Y-97956640D01*
X142822640Y-97836830D01*
X142672780Y-97836830D01*
X142672780Y-97336450D01*
X142822640Y-97336450D01*
X142822640Y-96861260D01*
X142747640Y-96786260D01*
X142670000Y-96786260D01*
X142670000Y-96006536D01*
X142676577Y-95973740D01*
X142676577Y-94972980D01*
X142650684Y-94839526D01*
X142573634Y-94722233D01*
X142471420Y-94653236D01*
X142471420Y-94610706D01*
X142471420Y-94587371D01*
X142670140Y-94669887D01*
X142928726Y-94670112D01*
X143167714Y-94571364D01*
X143338748Y-94400628D01*
X143411086Y-94510747D01*
X143527403Y-94589263D01*
X143665000Y-94616857D01*
X144164033Y-94616857D01*
X143999278Y-94781324D01*
X143900113Y-95020140D01*
X143899888Y-95278726D01*
X143959559Y-95423143D01*
X143665000Y-95423143D01*
X143531546Y-95449036D01*
X143414253Y-95526086D01*
X143335737Y-95642403D01*
X143308143Y-95780000D01*
X143308143Y-96786260D01*
X143197360Y-96786260D01*
X143122360Y-96861260D01*
X143122360Y-97336450D01*
X143497220Y-97336450D01*
X143572220Y-97261450D01*
X143572220Y-97145934D01*
X143572220Y-97138250D01*
X143665000Y-97156857D01*
X147115000Y-97156857D01*
X147248454Y-97130964D01*
X147365747Y-97053914D01*
X147444263Y-96937597D01*
X147471857Y-96800000D01*
X147471857Y-95780000D01*
X147445964Y-95646546D01*
X147368914Y-95529253D01*
X147252597Y-95450737D01*
X147115000Y-95423143D01*
X145230249Y-95423143D01*
X145166755Y-95359649D01*
X145199887Y-95279860D01*
X145200112Y-95021274D01*
X145101364Y-94782286D01*
X144936224Y-94616857D01*
X147115000Y-94616857D01*
X147248454Y-94590964D01*
X147365747Y-94513914D01*
X147444263Y-94397597D01*
X147471857Y-94260000D01*
X147471857Y-93240000D01*
X147445964Y-93106546D01*
X147444298Y-93104009D01*
X147444298Y-87714473D01*
X147444298Y-86725527D01*
X147281907Y-86398077D01*
X147006567Y-86157697D01*
X147000644Y-86139153D01*
X146865000Y-86157596D01*
X146865000Y-86870000D01*
X147396409Y-86870000D01*
X147444298Y-86725527D01*
X147444298Y-87714473D01*
X147396409Y-87570000D01*
X146865000Y-87570000D01*
X146865000Y-88282404D01*
X147000644Y-88300847D01*
X147006567Y-88282303D01*
X147281907Y-88041923D01*
X147444298Y-87714473D01*
X147444298Y-93104009D01*
X147415000Y-93059409D01*
X147415000Y-91779674D01*
X147415000Y-91540000D01*
X147415000Y-90880000D01*
X147415000Y-90640326D01*
X147369328Y-90530063D01*
X147284936Y-90445672D01*
X147174673Y-90400000D01*
X147055326Y-90400000D01*
X146215000Y-90400000D01*
X146215000Y-88282404D01*
X146215000Y-87570000D01*
X146215000Y-86870000D01*
X146215000Y-86157596D01*
X146079356Y-86139153D01*
X146073433Y-86157697D01*
X145798093Y-86398077D01*
X145635702Y-86725527D01*
X145683591Y-86870000D01*
X146215000Y-86870000D01*
X146215000Y-87570000D01*
X145683591Y-87570000D01*
X145635702Y-87714473D01*
X145798093Y-88041923D01*
X146073433Y-88282303D01*
X146079356Y-88300847D01*
X146215000Y-88282404D01*
X146215000Y-90400000D01*
X145815000Y-90400000D01*
X145740000Y-90475000D01*
X145740000Y-90955000D01*
X147340000Y-90955000D01*
X147415000Y-90880000D01*
X147415000Y-91540000D01*
X147340000Y-91465000D01*
X145740000Y-91465000D01*
X145740000Y-91945000D01*
X145815000Y-92020000D01*
X147055326Y-92020000D01*
X147174673Y-92020000D01*
X147284936Y-91974328D01*
X147369328Y-91889937D01*
X147415000Y-91779674D01*
X147415000Y-93059409D01*
X147368914Y-92989253D01*
X147252597Y-92910737D01*
X147115000Y-92883143D01*
X145040000Y-92883143D01*
X145040000Y-91945000D01*
X145040000Y-91465000D01*
X145020000Y-91465000D01*
X145020000Y-90955000D01*
X145040000Y-90955000D01*
X145040000Y-90475000D01*
X144965000Y-90400000D01*
X143724674Y-90400000D01*
X143640000Y-90400000D01*
X143640000Y-89580000D01*
X143640000Y-88339674D01*
X143640000Y-88220327D01*
X143594328Y-88110064D01*
X143509937Y-88025672D01*
X143399674Y-87980000D01*
X143160000Y-87980000D01*
X143085000Y-88055000D01*
X143085000Y-89655000D01*
X143565000Y-89655000D01*
X143640000Y-89580000D01*
X143640000Y-90400000D01*
X143610000Y-90400000D01*
X143565000Y-90355000D01*
X143085000Y-90355000D01*
X143085000Y-91955000D01*
X143160000Y-92030000D01*
X143399674Y-92030000D01*
X143509937Y-91984328D01*
X143512651Y-91981613D01*
X143605327Y-92020000D01*
X143724674Y-92020000D01*
X144965000Y-92020000D01*
X145040000Y-91945000D01*
X145040000Y-92883143D01*
X144129892Y-92883143D01*
X144130112Y-92631274D01*
X144031364Y-92392286D01*
X143848676Y-92209278D01*
X143609860Y-92110113D01*
X143351274Y-92109888D01*
X143112286Y-92208636D01*
X142929278Y-92391324D01*
X142903630Y-92453089D01*
X142791342Y-92378060D01*
X142600000Y-92340000D01*
X142528277Y-92340000D01*
X142528277Y-92339620D01*
X142502384Y-92206166D01*
X142425334Y-92088873D01*
X142338116Y-92030000D01*
X142500000Y-92030000D01*
X142575000Y-91955000D01*
X142575000Y-90355000D01*
X142095000Y-90355000D01*
X142020000Y-90430000D01*
X142020000Y-91670326D01*
X142020000Y-91789673D01*
X142065672Y-91899936D01*
X142148498Y-91982763D01*
X141272260Y-91982763D01*
X141138806Y-92008656D01*
X141021513Y-92085706D01*
X140969850Y-92162241D01*
X140921654Y-92088873D01*
X140892173Y-92068973D01*
X140933454Y-92060964D01*
X141050747Y-91983914D01*
X141129263Y-91867597D01*
X141156857Y-91730000D01*
X141156857Y-88418061D01*
X141157317Y-88418369D01*
X141540000Y-88494489D01*
X141922683Y-88418369D01*
X142020000Y-88353343D01*
X142020000Y-89580000D01*
X142095000Y-89655000D01*
X142575000Y-89655000D01*
X142575000Y-88055000D01*
X142500000Y-87980000D01*
X142395172Y-87980000D01*
X142463880Y-87877172D01*
X142540000Y-87494489D01*
X142540000Y-86945511D01*
X142463880Y-86562828D01*
X142247107Y-86238404D01*
X141922683Y-86021631D01*
X141540000Y-85945511D01*
X141157317Y-86021631D01*
X140832893Y-86238404D01*
X140616120Y-86562828D01*
X140540000Y-86945511D01*
X140540000Y-87494489D01*
X140616120Y-87877172D01*
X140646836Y-87923143D01*
X139780000Y-87923143D01*
X139646546Y-87949036D01*
X139620000Y-87966474D01*
X139620000Y-86570000D01*
X139581940Y-86378659D01*
X139581940Y-86378658D01*
X139538526Y-86313685D01*
X139473554Y-86216447D01*
X139187106Y-85930000D01*
X148420000Y-85930000D01*
X148420000Y-121110000D01*
X148420000Y-121110000D01*
G37*
X148420000Y-121110000D02*
X148000321Y-121110000D01*
X148000321Y-118833627D01*
X148000321Y-109093627D01*
X147719268Y-108413428D01*
X147199309Y-107892561D01*
X146519602Y-107610321D01*
X145783627Y-107609679D01*
X145103428Y-107890732D01*
X144582561Y-108410691D01*
X144300321Y-109090398D01*
X144299679Y-109826373D01*
X144580732Y-110506572D01*
X145100691Y-111027439D01*
X145780398Y-111309679D01*
X146516373Y-111310321D01*
X147196572Y-111029268D01*
X147717439Y-110509309D01*
X147999679Y-109829602D01*
X148000321Y-109093627D01*
X148000321Y-118833627D01*
X147719268Y-118153428D01*
X147199309Y-117632561D01*
X146519602Y-117350321D01*
X145783627Y-117349679D01*
X145103428Y-117630732D01*
X144582561Y-118150691D01*
X144300321Y-118830398D01*
X144299679Y-119566373D01*
X144580732Y-120246572D01*
X145100691Y-120767439D01*
X145780398Y-121049679D01*
X146516373Y-121050321D01*
X147196572Y-120769268D01*
X147717439Y-120249309D01*
X147999679Y-119569602D01*
X148000321Y-118833627D01*
X148000321Y-121110000D01*
X125342189Y-121110000D01*
X122810120Y-121110000D01*
X122810120Y-119570470D01*
X122810120Y-118620980D01*
X120985957Y-118620980D01*
X120978051Y-118812444D01*
X120992995Y-118942371D01*
X121338709Y-119337613D01*
X121809360Y-119570470D01*
X122810120Y-119570470D01*
X122810120Y-121110000D01*
X119558920Y-121110000D01*
X119558920Y-115144163D01*
X119558920Y-113320000D01*
X119558920Y-112620000D01*
X119558920Y-110795837D01*
X119367456Y-110787931D01*
X119237529Y-110802875D01*
X118842287Y-111148589D01*
X118609430Y-111619240D01*
X118609430Y-112620000D01*
X119558920Y-112620000D01*
X119558920Y-113320000D01*
X118609430Y-113320000D01*
X118609430Y-114320760D01*
X118842287Y-114791411D01*
X119237529Y-115137125D01*
X119367456Y-115152069D01*
X119558920Y-115144163D01*
X119558920Y-121110000D01*
X118300000Y-121110000D01*
X118300000Y-106081870D01*
X118366266Y-106182747D01*
X118482583Y-106261263D01*
X118620180Y-106288857D01*
X120819820Y-106288857D01*
X120953274Y-106262964D01*
X121070567Y-106185914D01*
X121149083Y-106069597D01*
X121176677Y-105932000D01*
X121176677Y-104500179D01*
X122097037Y-105420540D01*
X120988249Y-106529329D01*
X120782314Y-106837530D01*
X120770316Y-106897846D01*
X120710000Y-107201080D01*
X120710000Y-110916312D01*
X120580311Y-110802875D01*
X120450384Y-110787931D01*
X120258920Y-110795837D01*
X120258920Y-112620000D01*
X120278920Y-112620000D01*
X120278920Y-113320000D01*
X120258920Y-113320000D01*
X120258920Y-115144163D01*
X120450384Y-115152069D01*
X120580311Y-115137125D01*
X120710000Y-115023687D01*
X120710000Y-115480000D01*
X120770316Y-115783233D01*
X120782314Y-115843550D01*
X120988249Y-116151751D01*
X121808441Y-116971944D01*
X121338709Y-117204347D01*
X120992995Y-117599589D01*
X120978051Y-117729516D01*
X120985957Y-117920980D01*
X122810120Y-117920980D01*
X122810120Y-117900980D01*
X123510120Y-117900980D01*
X123510120Y-117920980D01*
X123530120Y-117920980D01*
X123530120Y-118620980D01*
X123510120Y-118620980D01*
X123510120Y-119570470D01*
X124510880Y-119570470D01*
X124981531Y-119337613D01*
X125327245Y-118942371D01*
X125342189Y-118812444D01*
X125334283Y-118620982D01*
X125460370Y-118620982D01*
X125460370Y-118303873D01*
X125928249Y-118771752D01*
X126236450Y-118977686D01*
X126236451Y-118977686D01*
X126600000Y-119050000D01*
X131380000Y-119050000D01*
X131380000Y-119049999D01*
X131650176Y-118996258D01*
X131649679Y-119566373D01*
X131930732Y-120246572D01*
X132450691Y-120767439D01*
X133130398Y-121049679D01*
X133866373Y-121050321D01*
X134546572Y-120769268D01*
X135067439Y-120249309D01*
X135349679Y-119569602D01*
X135350321Y-118833627D01*
X135069268Y-118153428D01*
X134549309Y-117632561D01*
X133869602Y-117350321D01*
X133473527Y-117349975D01*
X134666751Y-116156752D01*
X134666751Y-116156751D01*
X134798096Y-115960178D01*
X135108959Y-116271041D01*
X135384719Y-116455298D01*
X135710000Y-116520001D01*
X135710000Y-116520000D01*
X135710005Y-116520000D01*
X138730000Y-116520000D01*
X139055281Y-116455298D01*
X139331041Y-116271041D01*
X140785225Y-114816857D01*
X142910000Y-114816857D01*
X143043454Y-114790964D01*
X143160747Y-114713914D01*
X143239263Y-114597597D01*
X143266857Y-114460000D01*
X143266857Y-113440000D01*
X143240964Y-113306546D01*
X143163914Y-113189253D01*
X143047597Y-113110737D01*
X142910000Y-113083143D01*
X142047494Y-113083143D01*
X142070000Y-112970000D01*
X142005298Y-112644719D01*
X141821040Y-112368960D01*
X141683199Y-112276857D01*
X142910000Y-112276857D01*
X143043454Y-112250964D01*
X143160747Y-112173914D01*
X143239263Y-112057597D01*
X143266857Y-111920000D01*
X143266857Y-110900000D01*
X143240964Y-110766546D01*
X143163914Y-110649253D01*
X143047597Y-110570737D01*
X142910000Y-110543143D01*
X139473877Y-110543143D01*
X139473877Y-110190280D01*
X139447984Y-110056826D01*
X139441810Y-110047427D01*
X139752381Y-109736857D01*
X142910000Y-109736857D01*
X143043454Y-109710964D01*
X143160747Y-109633914D01*
X143239263Y-109517597D01*
X143266857Y-109380000D01*
X143266857Y-108507385D01*
X143280000Y-108510000D01*
X143605281Y-108445298D01*
X143881041Y-108261041D01*
X144905224Y-107236857D01*
X147060000Y-107236857D01*
X147193454Y-107210964D01*
X147310747Y-107133914D01*
X147389263Y-107017597D01*
X147416857Y-106880000D01*
X147416857Y-105860000D01*
X147390964Y-105726546D01*
X147313914Y-105609253D01*
X147197597Y-105530737D01*
X147060000Y-105503143D01*
X143610000Y-105503143D01*
X143476546Y-105529036D01*
X143359253Y-105606086D01*
X143280737Y-105722403D01*
X143264057Y-105805573D01*
X143240964Y-105686546D01*
X143163914Y-105569253D01*
X143047597Y-105490737D01*
X142910000Y-105463143D01*
X141633740Y-105463143D01*
X141633740Y-104371894D01*
X141633740Y-104237360D01*
X141633740Y-103787640D01*
X141633740Y-103653106D01*
X141588068Y-103542843D01*
X141503676Y-103458452D01*
X141393413Y-103412780D01*
X141274066Y-103412780D01*
X141158550Y-103412780D01*
X141083550Y-103487780D01*
X141083550Y-103862640D01*
X141558740Y-103862640D01*
X141633740Y-103787640D01*
X141633740Y-104237360D01*
X141558740Y-104162360D01*
X141083550Y-104162360D01*
X141083550Y-104537220D01*
X141158550Y-104612220D01*
X141274066Y-104612220D01*
X141393413Y-104612220D01*
X141503676Y-104566548D01*
X141588068Y-104482157D01*
X141633740Y-104371894D01*
X141633740Y-105463143D01*
X140583170Y-105463143D01*
X140583170Y-104537220D01*
X140583170Y-104162360D01*
X140583170Y-103862640D01*
X140583170Y-103487780D01*
X140508170Y-103412780D01*
X140392654Y-103412780D01*
X140273307Y-103412780D01*
X140163044Y-103458452D01*
X140078652Y-103542843D01*
X140032980Y-103653106D01*
X140032980Y-103787640D01*
X140107980Y-103862640D01*
X140583170Y-103862640D01*
X140583170Y-104162360D01*
X140107980Y-104162360D01*
X140032980Y-104237360D01*
X140032980Y-104371894D01*
X140078652Y-104482157D01*
X140163044Y-104566548D01*
X140273307Y-104612220D01*
X140392654Y-104612220D01*
X140508170Y-104612220D01*
X140583170Y-104537220D01*
X140583170Y-105463143D01*
X139460000Y-105463143D01*
X139326546Y-105489036D01*
X139209253Y-105566086D01*
X139132359Y-105680000D01*
X139000000Y-105680000D01*
X138792524Y-105721269D01*
X138751255Y-105729478D01*
X138540381Y-105870381D01*
X138270000Y-106140762D01*
X138270000Y-104429902D01*
X140064345Y-102635557D01*
X140079066Y-102657967D01*
X140195383Y-102736483D01*
X140332980Y-102764077D01*
X141333740Y-102764077D01*
X141467194Y-102738184D01*
X141513932Y-102707481D01*
X141640140Y-102759887D01*
X141898726Y-102760112D01*
X142106667Y-102674192D01*
X142089403Y-102760280D01*
X142089403Y-103359720D01*
X142115296Y-103493174D01*
X142192346Y-103610467D01*
X142308663Y-103688983D01*
X142446260Y-103716577D01*
X142683978Y-103716577D01*
X143253143Y-104285741D01*
X143253143Y-104340000D01*
X143279036Y-104473454D01*
X143356086Y-104590747D01*
X143472403Y-104669263D01*
X143610000Y-104696857D01*
X147060000Y-104696857D01*
X147193454Y-104670964D01*
X147310747Y-104593914D01*
X147389263Y-104477597D01*
X147416857Y-104340000D01*
X147416857Y-103320000D01*
X147390964Y-103186546D01*
X147313914Y-103069253D01*
X147197597Y-102990737D01*
X147060000Y-102963143D01*
X143803877Y-102963143D01*
X143803877Y-102760280D01*
X143777984Y-102626826D01*
X143700934Y-102509533D01*
X143584617Y-102431017D01*
X143447020Y-102403423D01*
X142446260Y-102403423D01*
X142343707Y-102423320D01*
X142419887Y-102239860D01*
X142420112Y-101981274D01*
X142321364Y-101742286D01*
X142138676Y-101559278D01*
X141899860Y-101460113D01*
X141641274Y-101459888D01*
X141623740Y-101467132D01*
X141623740Y-101071894D01*
X141623740Y-100937360D01*
X141623740Y-100487640D01*
X141623740Y-100353106D01*
X141578068Y-100242843D01*
X141493676Y-100158452D01*
X141383413Y-100112780D01*
X141264066Y-100112780D01*
X141148550Y-100112780D01*
X141073550Y-100187780D01*
X141073550Y-100562640D01*
X141548740Y-100562640D01*
X141623740Y-100487640D01*
X141623740Y-100937360D01*
X141548740Y-100862360D01*
X141073550Y-100862360D01*
X141073550Y-101237220D01*
X141148550Y-101312220D01*
X141264066Y-101312220D01*
X141383413Y-101312220D01*
X141493676Y-101266548D01*
X141578068Y-101182157D01*
X141623740Y-101071894D01*
X141623740Y-101467132D01*
X141518742Y-101510516D01*
X141471337Y-101478517D01*
X141333740Y-101450923D01*
X140370000Y-101450923D01*
X140370000Y-101312220D01*
X140382654Y-101312220D01*
X140498170Y-101312220D01*
X140573170Y-101237220D01*
X140573170Y-100862360D01*
X140453360Y-100862360D01*
X140453360Y-100562640D01*
X140573170Y-100562640D01*
X140573170Y-100217434D01*
X140701342Y-100191940D01*
X140863554Y-100083554D01*
X140971940Y-99921342D01*
X141010000Y-99730000D01*
X140971940Y-99538658D01*
X140922106Y-99464077D01*
X141144760Y-99464077D01*
X141191324Y-99510722D01*
X141430140Y-99609887D01*
X141688726Y-99610112D01*
X141927714Y-99511364D01*
X142104561Y-99334825D01*
X142079403Y-99460280D01*
X142079403Y-100059720D01*
X142105296Y-100193174D01*
X142182346Y-100310467D01*
X142286640Y-100380867D01*
X142286640Y-101006640D01*
X142327909Y-101214115D01*
X142336118Y-101255385D01*
X142477021Y-101466259D01*
X142760381Y-101749620D01*
X142971256Y-101890522D01*
X143220000Y-101940000D01*
X143283336Y-101940000D01*
X143356086Y-102050747D01*
X143472403Y-102129263D01*
X143610000Y-102156857D01*
X147060000Y-102156857D01*
X147193454Y-102130964D01*
X147310747Y-102053914D01*
X147389263Y-101937597D01*
X147416857Y-101800000D01*
X147416857Y-100780000D01*
X147390964Y-100646546D01*
X147313914Y-100529253D01*
X147197597Y-100450737D01*
X147060000Y-100423143D01*
X143610000Y-100423143D01*
X143586640Y-100427675D01*
X143586640Y-100380064D01*
X143687767Y-100313634D01*
X143766283Y-100197317D01*
X143793877Y-100059720D01*
X143793877Y-99616857D01*
X147060000Y-99616857D01*
X147193454Y-99590964D01*
X147310747Y-99513914D01*
X147389263Y-99397597D01*
X147416857Y-99260000D01*
X147416857Y-98240000D01*
X147390964Y-98106546D01*
X147313914Y-97989253D01*
X147197597Y-97910737D01*
X147060000Y-97883143D01*
X143610000Y-97883143D01*
X143554333Y-97893943D01*
X143497220Y-97836830D01*
X143122360Y-97836830D01*
X143122360Y-97956640D01*
X142822640Y-97956640D01*
X142822640Y-97836830D01*
X142672780Y-97836830D01*
X142672780Y-97336450D01*
X142822640Y-97336450D01*
X142822640Y-96861260D01*
X142747640Y-96786260D01*
X142670000Y-96786260D01*
X142670000Y-96006536D01*
X142676577Y-95973740D01*
X142676577Y-94972980D01*
X142650684Y-94839526D01*
X142573634Y-94722233D01*
X142471420Y-94653236D01*
X142471420Y-94610706D01*
X142471420Y-94587371D01*
X142670140Y-94669887D01*
X142928726Y-94670112D01*
X143167714Y-94571364D01*
X143338748Y-94400628D01*
X143411086Y-94510747D01*
X143527403Y-94589263D01*
X143665000Y-94616857D01*
X144164033Y-94616857D01*
X143999278Y-94781324D01*
X143900113Y-95020140D01*
X143899888Y-95278726D01*
X143959559Y-95423143D01*
X143665000Y-95423143D01*
X143531546Y-95449036D01*
X143414253Y-95526086D01*
X143335737Y-95642403D01*
X143308143Y-95780000D01*
X143308143Y-96786260D01*
X143197360Y-96786260D01*
X143122360Y-96861260D01*
X143122360Y-97336450D01*
X143497220Y-97336450D01*
X143572220Y-97261450D01*
X143572220Y-97145934D01*
X143572220Y-97138250D01*
X143665000Y-97156857D01*
X147115000Y-97156857D01*
X147248454Y-97130964D01*
X147365747Y-97053914D01*
X147444263Y-96937597D01*
X147471857Y-96800000D01*
X147471857Y-95780000D01*
X147445964Y-95646546D01*
X147368914Y-95529253D01*
X147252597Y-95450737D01*
X147115000Y-95423143D01*
X145230249Y-95423143D01*
X145166755Y-95359649D01*
X145199887Y-95279860D01*
X145200112Y-95021274D01*
X145101364Y-94782286D01*
X144936224Y-94616857D01*
X147115000Y-94616857D01*
X147248454Y-94590964D01*
X147365747Y-94513914D01*
X147444263Y-94397597D01*
X147471857Y-94260000D01*
X147471857Y-93240000D01*
X147445964Y-93106546D01*
X147444298Y-93104009D01*
X147444298Y-87714473D01*
X147444298Y-86725527D01*
X147281907Y-86398077D01*
X147006567Y-86157697D01*
X147000644Y-86139153D01*
X146865000Y-86157596D01*
X146865000Y-86870000D01*
X147396409Y-86870000D01*
X147444298Y-86725527D01*
X147444298Y-87714473D01*
X147396409Y-87570000D01*
X146865000Y-87570000D01*
X146865000Y-88282404D01*
X147000644Y-88300847D01*
X147006567Y-88282303D01*
X147281907Y-88041923D01*
X147444298Y-87714473D01*
X147444298Y-93104009D01*
X147415000Y-93059409D01*
X147415000Y-91779674D01*
X147415000Y-91540000D01*
X147415000Y-90880000D01*
X147415000Y-90640326D01*
X147369328Y-90530063D01*
X147284936Y-90445672D01*
X147174673Y-90400000D01*
X147055326Y-90400000D01*
X146215000Y-90400000D01*
X146215000Y-88282404D01*
X146215000Y-87570000D01*
X146215000Y-86870000D01*
X146215000Y-86157596D01*
X146079356Y-86139153D01*
X146073433Y-86157697D01*
X145798093Y-86398077D01*
X145635702Y-86725527D01*
X145683591Y-86870000D01*
X146215000Y-86870000D01*
X146215000Y-87570000D01*
X145683591Y-87570000D01*
X145635702Y-87714473D01*
X145798093Y-88041923D01*
X146073433Y-88282303D01*
X146079356Y-88300847D01*
X146215000Y-88282404D01*
X146215000Y-90400000D01*
X145815000Y-90400000D01*
X145740000Y-90475000D01*
X145740000Y-90955000D01*
X147340000Y-90955000D01*
X147415000Y-90880000D01*
X147415000Y-91540000D01*
X147340000Y-91465000D01*
X145740000Y-91465000D01*
X145740000Y-91945000D01*
X145815000Y-92020000D01*
X147055326Y-92020000D01*
X147174673Y-92020000D01*
X147284936Y-91974328D01*
X147369328Y-91889937D01*
X147415000Y-91779674D01*
X147415000Y-93059409D01*
X147368914Y-92989253D01*
X147252597Y-92910737D01*
X147115000Y-92883143D01*
X145040000Y-92883143D01*
X145040000Y-91945000D01*
X145040000Y-91465000D01*
X145020000Y-91465000D01*
X145020000Y-90955000D01*
X145040000Y-90955000D01*
X145040000Y-90475000D01*
X144965000Y-90400000D01*
X143724674Y-90400000D01*
X143640000Y-90400000D01*
X143640000Y-89580000D01*
X143640000Y-88339674D01*
X143640000Y-88220327D01*
X143594328Y-88110064D01*
X143509937Y-88025672D01*
X143399674Y-87980000D01*
X143160000Y-87980000D01*
X143085000Y-88055000D01*
X143085000Y-89655000D01*
X143565000Y-89655000D01*
X143640000Y-89580000D01*
X143640000Y-90400000D01*
X143610000Y-90400000D01*
X143565000Y-90355000D01*
X143085000Y-90355000D01*
X143085000Y-91955000D01*
X143160000Y-92030000D01*
X143399674Y-92030000D01*
X143509937Y-91984328D01*
X143512651Y-91981613D01*
X143605327Y-92020000D01*
X143724674Y-92020000D01*
X144965000Y-92020000D01*
X145040000Y-91945000D01*
X145040000Y-92883143D01*
X144129892Y-92883143D01*
X144130112Y-92631274D01*
X144031364Y-92392286D01*
X143848676Y-92209278D01*
X143609860Y-92110113D01*
X143351274Y-92109888D01*
X143112286Y-92208636D01*
X142929278Y-92391324D01*
X142903630Y-92453089D01*
X142791342Y-92378060D01*
X142600000Y-92340000D01*
X142528277Y-92340000D01*
X142528277Y-92339620D01*
X142502384Y-92206166D01*
X142425334Y-92088873D01*
X142338116Y-92030000D01*
X142500000Y-92030000D01*
X142575000Y-91955000D01*
X142575000Y-90355000D01*
X142095000Y-90355000D01*
X142020000Y-90430000D01*
X142020000Y-91670326D01*
X142020000Y-91789673D01*
X142065672Y-91899936D01*
X142148498Y-91982763D01*
X141272260Y-91982763D01*
X141138806Y-92008656D01*
X141021513Y-92085706D01*
X140969850Y-92162241D01*
X140921654Y-92088873D01*
X140892173Y-92068973D01*
X140933454Y-92060964D01*
X141050747Y-91983914D01*
X141129263Y-91867597D01*
X141156857Y-91730000D01*
X141156857Y-88418061D01*
X141157317Y-88418369D01*
X141540000Y-88494489D01*
X141922683Y-88418369D01*
X142020000Y-88353343D01*
X142020000Y-89580000D01*
X142095000Y-89655000D01*
X142575000Y-89655000D01*
X142575000Y-88055000D01*
X142500000Y-87980000D01*
X142395172Y-87980000D01*
X142463880Y-87877172D01*
X142540000Y-87494489D01*
X142540000Y-86945511D01*
X142463880Y-86562828D01*
X142247107Y-86238404D01*
X141922683Y-86021631D01*
X141540000Y-85945511D01*
X141157317Y-86021631D01*
X140832893Y-86238404D01*
X140616120Y-86562828D01*
X140540000Y-86945511D01*
X140540000Y-87494489D01*
X140616120Y-87877172D01*
X140646836Y-87923143D01*
X139780000Y-87923143D01*
X139646546Y-87949036D01*
X139620000Y-87966474D01*
X139620000Y-86570000D01*
X139581940Y-86378659D01*
X139581940Y-86378658D01*
X139538526Y-86313685D01*
X139473554Y-86216447D01*
X139187106Y-85930000D01*
X148420000Y-85930000D01*
X148420000Y-121110000D01*
M02*
