<?xml version="1.0" standalone="no"?>
 <!DOCTYPE svg PUBLIC "-//W3C//DTD SVG 1.1//EN" 
 "http://www.w3.org/Graphics/SVG/1.1/DTD/svg11.dtd"> 
<svg xmlns="http://www.w3.org/2000/svg" version="1.1" 
    width="5.01904cm" height="5.90804cm" viewBox="0 0 19760 23260 ">
<title>SVG Picture created as framePCB-F_Cu.svg date 2015/11/03 11:51:01 </title>
  <desc>Picture generated by PCBNEW </desc>
<g style="fill:#000000; fill-opacity:1;stroke:#000000; stroke-opacity:1;
stroke-linecap:round; stroke-linejoin:round; "
 transform="translate(0 0) scale(1 1)">
</g>
<g style="fill:#000000; fill-opacity:0.0; 
stroke:#000000; stroke-width:39.3701; stroke-opacity:1; 
stroke-linecap:round; stroke-linejoin:round;">
<path d="M4007 5578
L4007 19744
" />
<path d="M16181 5578
L4007 5578
" />
<path d="M16181 19744
L16181 5578
" />
<path d="M4007 19744
L16181 19744
" />
</g>
<g style="fill:#000000; fill-opacity:0.0; 
stroke:#000000; stroke-width:787; stroke-opacity:1; 
stroke-linecap:round; stroke-linejoin:round;">
<path d="M6472 18468
L5684 18468
" />
<path d="M4798 15987
L4798 16775
" />
<path d="M7161 15889
L7161 16874
" />
</g>
<g style="fill:#000000; fill-opacity:0.0; 
stroke:#000000; stroke-width:511.811; stroke-opacity:1; 
stroke-linecap:round; stroke-linejoin:round;">
<path d="M11346 6342
L11346 6145
" />
<path d="M13314 6145
L13314 6342
" />
<path d="M15283 6145
L15283 6342
" />
<path d="M8047 6342
L8047 6145
" />
<path d="M10015 6145
L10015 6342
" />
<path d="M11984 6145
L11984 6342
" />
<path d="M4716 6342
L4716 6145
" />
<path d="M6685 6145
L6685 6342
" />
<path d="M8653 6145
L8653 6342
" />
</g>
<g style="fill:#000000; fill-opacity:0.0; 
stroke:#000000; stroke-width:39.3701; stroke-opacity:1; 
stroke-linecap:round; stroke-linejoin:round;">
</g>
<g style="fill:#000000; fill-opacity:1.0; 
stroke:#000000; stroke-width:39.3701; stroke-opacity:1; 
stroke-linecap:round; stroke-linejoin:round;">
<polyline style="fill-rule:evenodd;"
points="13641,8000
13641,6681
14003,6681
14003,8000
13641,8000
" /> 
<polyline style="fill-rule:evenodd;"
points="9641,8000
9641,6681
10003,6681
10003,8000
9641,8000
" /> 
<polyline style="fill-rule:evenodd;"
points="11641,8000
11641,6681
12003,6681
12003,8000
11641,8000
" /> 
<polyline style="fill-rule:evenodd;"
points="10641,8000
10641,6681
11003,6681
11003,8000
10641,8000
" /> 
<polyline style="fill-rule:evenodd;"
points="12641,8000
12641,6681
13003,6681
13003,8000
12641,8000
" /> 
<polyline style="fill-rule:evenodd;"
points="7043,12641
7633,12641
7633,14177
7043,14177
7043,12641
" /> 
<polyline style="fill-rule:evenodd;"
points="7043,10239
7633,10239
7633,11775
7043,11775
7043,10239
" /> 
<polyline style="fill-rule:evenodd;"
points="12951,8803
12951,9157
12637,9157
12637,8803
12951,8803
" /> 
<polyline style="fill-rule:evenodd;"
points="13543,8803
13543,9157
13229,9157
13229,8803
13543,8803
" /> 
<polyline style="fill-rule:evenodd;"
points="9126,8652
9376,8401
9599,8624
9348,8875
9126,8652
" /> 
<polyline style="fill-rule:evenodd;"
points="8707,8233
8958,7983
9180,8205
8930,8456
8707,8233
" /> 
<polyline style="fill-rule:evenodd;"
points="8324,17054
8678,17054
8678,17250
8324,17250
8324,17054
" /> 
<polyline style="fill-rule:evenodd;"
points="9156,17429
9510,17429
9510,17625
9156,17625
9156,17429
" /> 
<polyline style="fill-rule:evenodd;"
points="8324,17804
8678,17804
8678,18000
8324,18000
8324,17804
" /> 
<polyline style="fill-rule:evenodd;"
points="8324,15770
8678,15770
8678,15967
8324,15967
8324,15770
" /> 
<polyline style="fill-rule:evenodd;"
points="9156,16145
9510,16145
9510,16342
9156,16342
9156,16145
" /> 
<polyline style="fill-rule:evenodd;"
points="8324,16520
8678,16520
8678,16717
8324,16717
8324,16520
" /> 
<polyline style="fill-rule:evenodd;"
points="8324,14491
8678,14491
8678,14687
8324,14687
8324,14491
" /> 
<polyline style="fill-rule:evenodd;"
points="9156,14866
9510,14866
9510,15062
9156,15062
9156,14866
" /> 
<polyline style="fill-rule:evenodd;"
points="8324,15241
8678,15241
8678,15437
8324,15437
8324,15241
" /> 
<polyline style="fill-rule:evenodd;"
points="11154,16215
11509,16215
11509,16412
11154,16412
11154,16215
" /> 
<polyline style="fill-rule:evenodd;"
points="11986,16590
12341,16590
12341,16787
11986,16787
11986,16590
" /> 
<polyline style="fill-rule:evenodd;"
points="11154,16965
11509,16965
11509,17162
11154,17162
11154,16965
" /> 
<polyline style="fill-rule:evenodd;"
points="11154,14932
11509,14932
11509,15128
11154,15128
11154,14932
" /> 
<polyline style="fill-rule:evenodd;"
points="11986,15307
12341,15307
12341,15503
11986,15503
11986,15307
" /> 
<polyline style="fill-rule:evenodd;"
points="11154,15682
11509,15682
11509,15878
11154,15878
11154,15682
" /> 
<polyline style="fill-rule:evenodd;"
points="11150,13648
11505,13648
11505,13845
11150,13845
11150,13648
" /> 
<polyline style="fill-rule:evenodd;"
points="11982,14023
12337,14023
12337,14220
11982,14220
11982,14023
" /> 
<polyline style="fill-rule:evenodd;"
points="11150,14398
11505,14398
11505,14595
11150,14595
11150,14398
" /> 
<polyline style="fill-rule:evenodd;"
points="12859,12007
13214,12007
13214,12203
12859,12203
12859,12007
" /> 
<polyline style="fill-rule:evenodd;"
points="13691,12382
14046,12382
14046,12578
13691,12578
13691,12382
" /> 
<polyline style="fill-rule:evenodd;"
points="12859,12757
13214,12757
13214,12953
12859,12953
12859,12757
" /> 
<polyline style="fill-rule:evenodd;"
points="12855,10707
13210,10707
13210,10904
12855,10904
12855,10707
" /> 
<polyline style="fill-rule:evenodd;"
points="13687,11082
14042,11082
14042,11279
13687,11279
13687,11082
" /> 
<polyline style="fill-rule:evenodd;"
points="12855,11457
13210,11457
13210,11654
12855,11654
12855,11457
" /> 
<polyline style="fill-rule:evenodd;"
points="13030,10502
13030,10148
13227,10148
13227,10502
13030,10502
" /> 
<polyline style="fill-rule:evenodd;"
points="13405,9670
13405,9316
13602,9316
13602,9670
13405,9670
" /> 
<polyline style="fill-rule:evenodd;"
points="13780,10502
13780,10148
13977,10148
13977,10502
13780,10502
" /> 
<polyline style="fill-rule:evenodd;"
points="12951,8279
12951,8634
12637,8634
12637,8279
12951,8279
" /> 
<polyline style="fill-rule:evenodd;"
points="13543,8279
13543,8634
13229,8634
13229,8279
13543,8279
" /> 
<polyline style="fill-rule:evenodd;"
points="4527,8792
4882,8792
4882,9106
4527,9106
4527,8792
" /> 
<polyline style="fill-rule:evenodd;"
points="4527,8200
4882,8200
4882,8514
4527,8514
4527,8200
" /> 
<polyline style="fill-rule:evenodd;"
points="7296,7346
7296,6991
7610,6991
7610,7346
7296,7346
" /> 
<polyline style="fill-rule:evenodd;"
points="6704,7346
6704,6991
7018,6991
7018,7346
6704,7346
" /> 
<polyline style="fill-rule:evenodd;"
points="8339,8854
8339,8499
8654,8499
8654,8854
8339,8854
" /> 
<polyline style="fill-rule:evenodd;"
points="7747,8854
7747,8499
8062,8499
8062,8854
7747,8854
" /> 
<polyline style="fill-rule:evenodd;"
points="8339,9885
8339,9531
8654,9531
8654,9885
8339,9885
" /> 
<polyline style="fill-rule:evenodd;"
points="7747,9885
7747,9531
8062,9531
8062,9885
7747,9885
" /> 
<polyline style="fill-rule:evenodd;"
points="7280,8141
7280,7787
7595,7787
7595,8141
7280,8141
" /> 
<polyline style="fill-rule:evenodd;"
points="6688,8141
6688,7787
7003,7787
7003,8141
6688,8141
" /> 
<polyline style="fill-rule:evenodd;"
points="8339,9370
8339,9015
8654,9015
8654,9370
8339,9370
" /> 
<polyline style="fill-rule:evenodd;"
points="7747,9370
7747,9015
8062,9015
8062,9370
7747,9370
" /> 
<polyline style="fill-rule:evenodd;"
points="8339,10405
8339,10051
8654,10051
8654,10405
8339,10405
" /> 
<polyline style="fill-rule:evenodd;"
points="7747,10405
7747,10051
8062,10051
8062,10405
7747,10405
" /> 
<polyline style="fill-rule:evenodd;"
points="8157,17369
7802,17369
7802,17054
8157,17054
8157,17369
" /> 
<polyline style="fill-rule:evenodd;"
points="8157,17961
7802,17961
7802,17646
8157,17646
8157,17961
" /> 
<polyline style="fill-rule:evenodd;"
points="8157,16085
7802,16085
7802,15771
8157,15771
8157,16085
" /> 
<polyline style="fill-rule:evenodd;"
points="8157,16677
7802,16677
7802,16363
8157,16363
8157,16677
" /> 
<polyline style="fill-rule:evenodd;"
points="8157,14806
7802,14806
7802,14491
8157,14491
8157,14806
" /> 
<polyline style="fill-rule:evenodd;"
points="8157,15398
7802,15398
7802,15083
8157,15083
8157,15398
" /> 
<circle cx="15129.9" cy="15000" r="570.866" /> 
<circle cx="15129.9" cy="18834.6" r="570.866" /> 
<circle cx="10149.6" cy="18834.6" r="570.866" /> 
<polyline style="fill-rule:evenodd;"
points="10311,12373
10311,11901
10389,11901
10389,12373
10311,12373
" /> 
<polyline style="fill-rule:evenodd;"
points="10508,12373
10508,11901
10586,11901
10586,12373
10508,12373
" /> 
<polyline style="fill-rule:evenodd;"
points="10705,12373
10705,11901
10783,11901
10783,12373
10705,12373
" /> 
<polyline style="fill-rule:evenodd;"
points="10901,12373
10901,11901
10979,11901
10979,12373
10901,12373
" /> 
<polyline style="fill-rule:evenodd;"
points="11098,12373
11098,11901
11176,11901
11176,12373
11098,12373
" /> 
<polyline style="fill-rule:evenodd;"
points="9720,12373
9720,11901
9798,11901
9798,12373
9720,12373
" /> 
<polyline style="fill-rule:evenodd;"
points="9917,12373
9917,11901
9995,11901
9995,12373
9917,12373
" /> 
<polyline style="fill-rule:evenodd;"
points="10114,12373
10114,11901
10192,11901
10192,12373
10114,12373
" /> 
<polyline style="fill-rule:evenodd;"
points="12220,11645
12220,11567
12692,11567
12692,11645
12220,11645
" /> 
<polyline style="fill-rule:evenodd;"
points="12220,11448
12220,11370
12692,11370
12692,11448
12220,11448
" /> 
<polyline style="fill-rule:evenodd;"
points="12220,11251
12220,11173
12692,11173
12692,11251
12220,11251
" /> 
<polyline style="fill-rule:evenodd;"
points="12220,11054
12220,10976
12692,10976
12692,11054
12220,11054
" /> 
<polyline style="fill-rule:evenodd;"
points="12220,10857
12220,10779
12692,10779
12692,10857
12220,10857
" /> 
<polyline style="fill-rule:evenodd;"
points="12220,10660
12220,10582
12692,10582
12692,10660
12220,10660
" /> 
<polyline style="fill-rule:evenodd;"
points="12220,10464
12220,10386
12692,10386
12692,10464
12220,10464
" /> 
<polyline style="fill-rule:evenodd;"
points="12220,10267
12220,10189
12692,10189
12692,10267
12220,10267
" /> 
<polyline style="fill-rule:evenodd;"
points="11886,9145
11886,8673
11964,8673
11964,9145
11886,9145
" /> 
<polyline style="fill-rule:evenodd;"
points="11689,9145
11689,8673
11767,8673
11767,9145
11689,9145
" /> 
<polyline style="fill-rule:evenodd;"
points="11492,9145
11492,8673
11570,8673
11570,9145
11492,9145
" /> 
<polyline style="fill-rule:evenodd;"
points="11295,9145
11295,8673
11373,8673
11373,9145
11295,9145
" /> 
<polyline style="fill-rule:evenodd;"
points="11098,9145
11098,8673
11176,8673
11176,9145
11098,9145
" /> 
<polyline style="fill-rule:evenodd;"
points="10901,9145
10901,8673
10979,8673
10979,9145
10901,9145
" /> 
<polyline style="fill-rule:evenodd;"
points="10705,9145
10705,8673
10783,8673
10783,9145
10705,9145
" /> 
<polyline style="fill-rule:evenodd;"
points="10508,9145
10508,8673
10586,8673
10586,9145
10508,9145
" /> 
<polyline style="fill-rule:evenodd;"
points="8992,9479
8992,9401
9464,9401
9464,9479
8992,9479
" /> 
<polyline style="fill-rule:evenodd;"
points="8992,9676
8992,9598
9464,9598
9464,9676
8992,9676
" /> 
<polyline style="fill-rule:evenodd;"
points="8992,9873
8992,9795
9464,9795
9464,9873
8992,9873
" /> 
<polyline style="fill-rule:evenodd;"
points="8992,10070
8992,9992
9464,9992
9464,10070
8992,10070
" /> 
<polyline style="fill-rule:evenodd;"
points="8992,10267
8992,10189
9464,10189
9464,10267
8992,10267
" /> 
<polyline style="fill-rule:evenodd;"
points="8992,10464
8992,10386
9464,10386
9464,10464
8992,10464
" /> 
<polyline style="fill-rule:evenodd;"
points="8992,10660
8992,10582
9464,10582
9464,10660
8992,10660
" /> 
<polyline style="fill-rule:evenodd;"
points="8992,10857
8992,10779
9464,10779
9464,10857
8992,10857
" /> 
<polyline style="fill-rule:evenodd;"
points="11295,12373
11295,11901
11373,11901
11373,12373
11295,12373
" /> 
<polyline style="fill-rule:evenodd;"
points="11492,12373
11492,11901
11570,11901
11570,12373
11492,12373
" /> 
<polyline style="fill-rule:evenodd;"
points="11689,12373
11689,11901
11767,11901
11767,12373
11689,12373
" /> 
<polyline style="fill-rule:evenodd;"
points="11886,12373
11886,11901
11964,11901
11964,12373
11886,12373
" /> 
<polyline style="fill-rule:evenodd;"
points="12220,10070
12220,9992
12692,9992
12692,10070
12220,10070
" /> 
<polyline style="fill-rule:evenodd;"
points="12220,9873
12220,9795
12692,9795
12692,9873
12220,9873
" /> 
<polyline style="fill-rule:evenodd;"
points="12220,9676
12220,9598
12692,9598
12692,9676
12220,9676
" /> 
<polyline style="fill-rule:evenodd;"
points="12220,9479
12220,9401
12692,9401
12692,9479
12220,9479
" /> 
<polyline style="fill-rule:evenodd;"
points="10311,9145
10311,8673
10389,8673
10389,9145
10311,9145
" /> 
<polyline style="fill-rule:evenodd;"
points="10114,9145
10114,8673
10192,8673
10192,9145
10114,9145
" /> 
<polyline style="fill-rule:evenodd;"
points="9917,9145
9917,8673
9995,8673
9995,9145
9917,9145
" /> 
<polyline style="fill-rule:evenodd;"
points="9720,9145
9720,8673
9798,8673
9798,9145
9720,9145
" /> 
<polyline style="fill-rule:evenodd;"
points="8992,11054
8992,10976
9464,10976
9464,11054
8992,11054
" /> 
<polyline style="fill-rule:evenodd;"
points="8992,11251
8992,11173
9464,11173
9464,11251
8992,11251
" /> 
<polyline style="fill-rule:evenodd;"
points="8992,11448
8992,11370
9464,11370
9464,11448
8992,11448
" /> 
<polyline style="fill-rule:evenodd;"
points="8992,11645
8992,11567
9464,11567
9464,11645
8992,11645
" /> 
<polyline style="fill-rule:evenodd;"
points="14171,9633
15490,9633
15490,9996
14171,9996
14171,9633
" /> 
<polyline style="fill-rule:evenodd;"
points="14171,8633
15490,8633
15490,8996
14171,8996
14171,8633
" /> 
<polyline style="fill-rule:evenodd;"
points="14171,7633
15490,7633
15490,7996
14171,7996
14171,7633
" /> 
<polyline style="fill-rule:evenodd;"
points="11003,16909
9685,16909
9685,16547
11003,16547
11003,16909
" /> 
<polyline style="fill-rule:evenodd;"
points="11003,15909
9685,15909
9685,15547
11003,15547
11003,15909
" /> 
<polyline style="fill-rule:evenodd;"
points="11003,14909
9685,14909
9685,14547
11003,14547
11003,14909
" /> 
<polyline style="fill-rule:evenodd;"
points="11003,13909
9685,13909
9685,13547
11003,13547
11003,13909
" /> 
<polyline style="fill-rule:evenodd;"
points="13834,16948
12515,16948
12515,16586
13834,16586
13834,16948
" /> 
<polyline style="fill-rule:evenodd;"
points="13834,15948
12515,15948
12515,15586
13834,15586
13834,15948
" /> 
<polyline style="fill-rule:evenodd;"
points="13834,14948
12515,14948
12515,14586
13834,14586
13834,14948
" /> 
<polyline style="fill-rule:evenodd;"
points="13834,13948
12515,13948
12515,13586
13834,13586
13834,13948
" /> 
<polyline style="fill-rule:evenodd;"
points="15468,13964
14149,13964
14149,13602
15468,13602
15468,13964
" /> 
<polyline style="fill-rule:evenodd;"
points="15468,12964
14149,12964
14149,12602
15468,12602
15468,12964
" /> 
<polyline style="fill-rule:evenodd;"
points="15468,11964
14149,11964
14149,11602
15468,11602
15468,11964
" /> 
<polyline style="fill-rule:evenodd;"
points="15468,10964
14149,10964
14149,10602
15468,10602
15468,10964
" /> 
<polyline style="fill-rule:evenodd;"
points="5137,13591
4311,13591
4311,13030
5137,13030
5137,13591
" /> 
</g>
<g style="fill:#000000; fill-opacity:1.0; 
stroke:#000000; stroke-width:600; stroke-opacity:1; 
stroke-linecap:round; stroke-linejoin:round;">
</g>
<g style="fill:#000000; fill-opacity:0.0; 
stroke:#000000; stroke-width:600; stroke-opacity:1; 
stroke-linecap:round; stroke-linejoin:round;">
<path d="M4591 12311
L4857 12311
" />
<path d="M4591 11311
L4857 11311
" />
</g>
<g style="fill:#000000; fill-opacity:0.0; 
stroke:#000000; stroke-width:39.3701; stroke-opacity:1; 
stroke-linecap:round; stroke-linejoin:round;">
</g>
<g style="fill:#000000; fill-opacity:1.0; 
stroke:#000000; stroke-width:39.3701; stroke-opacity:1; 
stroke-linecap:round; stroke-linejoin:round;">
<circle cx="6740.16" cy="14051.2" r="98.4252" /> 
<circle cx="13189" cy="16381.9" r="98.4252" /> 
<circle cx="14000" cy="14291.3" r="98.4252" /> 
<circle cx="14842.5" cy="9374.02" r="98.4252" /> 
<circle cx="10732.3" cy="9763.78" r="98.4252" /> 
<circle cx="9874.02" cy="9338.58" r="98.4252" /> 
<circle cx="8527.56" cy="14177.2" r="98.4252" /> 
<circle cx="11708.7" cy="17063" r="98.4252" /> 
<circle cx="11649.6" cy="15779.5" r="98.4252" /> 
<circle cx="11704.7" cy="14622" r="98.4252" /> 
<circle cx="8877.95" cy="15338.6" r="98.4252" /> 
<circle cx="8877.95" cy="16622" r="98.4252" /> 
<circle cx="6314.96" cy="9074.8" r="98.4252" /> 
<circle cx="8492.13" cy="8232.28" r="98.4252" /> 
<circle cx="8448.82" cy="11795.3" r="98.4252" /> 
<circle cx="8877.95" cy="17901.6" r="98.4252" /> 
<circle cx="14161.4" cy="9366.14" r="98.4252" /> 
<circle cx="13204.7" cy="9358.27" r="98.4252" /> 
<circle cx="12259.8" cy="12102.4" r="98.4252" /> 
<circle cx="10748" cy="11689" r="98.4252" /> 
<circle cx="9665.35" cy="11685" r="98.4252" /> 
<circle cx="8559.05" cy="12366.1" r="98.4252" /> 
<circle cx="7909.45" cy="11196.9" r="98.4252" /> 
<circle cx="7173.23" cy="10000" r="98.4252" /> 
<circle cx="13413.4" cy="12858.3" r="98.4252" /> 
<circle cx="9759.84" cy="12570.9" r="98.4252" /> 
<circle cx="11334.6" cy="12570.9" r="98.4252" /> 
<circle cx="10240.2" cy="12570.9" r="98.4252" /> 
<circle cx="8799.21" cy="11783.5" r="98.4252" /> 
<circle cx="5582.68" cy="10641.7" r="98.4252" /> 
<circle cx="6862.2" cy="7539.37" r="98.4252" /> 
<circle cx="7543.31" cy="8669.29" r="98.4252" /> 
<circle cx="7547.24" cy="9704.72" r="98.4252" /> 
<circle cx="6874.02" cy="8350.39" r="98.4252" /> 
<circle cx="7547.24" cy="9196.85" r="98.4252" /> 
<circle cx="7559.05" cy="10039.4" r="98.4252" /> 
<circle cx="10118.1" cy="10815" r="98.4252" /> 
<circle cx="10208.7" cy="7590.55" r="98.4252" /> 
<circle cx="11086.6" cy="9775.59" r="98.4252" /> 
<circle cx="11582.7" cy="9767.72" r="98.4252" /> 
<circle cx="11578.7" cy="8188.98" r="98.4252" /> 
<circle cx="10940.9" cy="12578.7" r="98.4252" /> 
<circle cx="12425.2" cy="7366.14" r="98.4252" /> 
<circle cx="10992.1" cy="8468.5" r="98.4252" /> 
<circle cx="9814.96" cy="16275.6" r="98.4252" /> 
<circle cx="9330.71" cy="16744.1" r="98.4252" /> 
<circle cx="9393.7" cy="15303.1" r="98.4252" /> 
<circle cx="10200.8" cy="15303.1" r="98.4252" /> 
<circle cx="10425.2" cy="13318.9" r="98.4252" /> 
<circle cx="11330.7" cy="16614.2" r="98.4252" /> 
<circle cx="12153.5" cy="14728.3" r="98.4252" /> 
<circle cx="11295.3" cy="15330.7" r="98.4252" /> 
<circle cx="11637.8" cy="10645.7" r="98.4252" /> 
<circle cx="11295.3" cy="14126" r="98.4252" /> 
<circle cx="11960.6" cy="10547.2" r="98.4252" /> 
<circle cx="13405.5" cy="12106.3" r="98.4252" /> 
<circle cx="13322.8" cy="10866.1" r="98.4252" /> 
<circle cx="13043.3" cy="9669.29" r="98.4252" /> 
<circle cx="13811" cy="8921.26" r="98.4252" /> 
<circle cx="5090.55" cy="8704.72" r="98.4252" /> 
<circle cx="9681.1" cy="11102.4" r="98.4252" /> 
<circle cx="5972.44" cy="10637.8" r="98.4252" /> 
<circle cx="10307.1" cy="11066.9" r="98.4252" /> 
<circle cx="9716.54" cy="8444.88" r="98.4252" /> 
<circle cx="10401.6" cy="7173.23" r="98.4252" /> 
<circle cx="7803.15" cy="7169.29" r="98.4252" /> 
<circle cx="10074.8" cy="8417.32" r="98.4252" /> 
<circle cx="8897.64" cy="8677.17" r="98.4252" /> 
<circle cx="7807.09" cy="7956.69" r="98.4252" /> 
<circle cx="10204.7" cy="7964.57" r="98.4252" /> 
<circle cx="13192.9" cy="9980.32" r="98.4252" /> 
<circle cx="11972.4" cy="10228.3" r="98.4252" /> 
<circle cx="14500" cy="9366.14" r="98.4252" /> 
<circle cx="11972.4" cy="9885.83" r="98.4252" /> 
<circle cx="14078.7" cy="8425.2" r="98.4252" /> 
<circle cx="7870.08" cy="10633.9" r="98.4252" /> 
<circle cx="6389.76" cy="10622" r="98.4252" /> 
<circle cx="5618.11" cy="12169.3" r="98.4252" /> 
<circle cx="6228.35" cy="14842.5" r="98.4252" /> 
<circle cx="7893.7" cy="12976.4" r="98.4252" /> 
<circle cx="8358.27" cy="16173.2" r="98.4252" /> 
<circle cx="11350.4" cy="10755.9" r="98.4252" /> 
<circle cx="11334.6" cy="7649.61" r="98.4252" /> 
<circle cx="11334.6" cy="7047.24" r="98.4252" /> 
</g>
<g style="fill:#000000; fill-opacity:1.0; 
stroke:#000000; stroke-width:472.441; stroke-opacity:1; 
stroke-linecap:round; stroke-linejoin:round;">
</g>
<g style="fill:#000000; fill-opacity:0.0; 
stroke:#000000; stroke-width:472.441; stroke-opacity:1; 
stroke-linecap:round; stroke-linejoin:round;">
<path d="M10344 16728
L10344 17458
" />
<path d="M5696 13902
L6189 13409
" />
<path d="M5696 17433
L5696 13902
" />
<path d="M4992 18137
L5696 17433
" />
<path d="M4992 18803
L4992 18137
" />
<path d="M5610 19421
L4992 18803
" />
<path d="M8677 19421
L5610 19421
" />
<path d="M9153 18944
L8677 19421
" />
<path d="M9153 18366
L9153 18944
" />
<path d="M9535 17984
L9153 18366
" />
<path d="M9818 17984
L9535 17984
" />
<path d="M10344 17458
L9818 17984
" />
<path d="M7338 13409
L6189 13409
" />
<path d="M6189 13409
L5090 12311
" />
<path d="M5090 12311
L4724 12311
" />
</g>
<g style="fill:#000000; fill-opacity:0.0; 
stroke:#000000; stroke-width:393.701; stroke-opacity:1; 
stroke-linecap:round; stroke-linejoin:round;">
<path d="M7338 13452
L7338 13409
" />
<path d="M6740 14051
L7338 13452
" />
<path d="M12885 16767
L13175 16767
" />
<path d="M10564 16948
L10700 16948
" />
<path d="M10344 16728
L10564 16948
" />
<path d="M10826 17251
L11019 17444
" />
<path d="M10826 17074
L10826 17251
" />
<path d="M10700 16948
L10826 17074
" />
<path d="M11019 17444
L12208 17444
" />
<path d="M12208 17444
L12885 16767
" />
<path d="M14507 13783
L14809 13783
" />
<path d="M13175 16395
L13188 16381
" />
<path d="M13999 14291
L14507 13783
" />
<path d="M13175 16767
L13175 16395
" />
</g>
<g style="fill:#000000; fill-opacity:0.0; 
stroke:#000000; stroke-width:118.11; stroke-opacity:1; 
stroke-linecap:round; stroke-linejoin:round;">
<path d="M14440 7814
L14830 7814
" />
<path d="M14842 9374
L14838 9370
" />
<path d="M12456 9637
L11814 9637
" />
<path d="M10972 9523
L10732 9763
" />
<path d="M11700 9523
L10972 9523
" />
<path d="M11814 9637
L11700 9523
" />
<path d="M9956 9232
L9874 9314
" />
<path d="M9874 9314
L9874 9338
" />
<path d="M9956 8909
L9956 9232
" />
<path d="M8078 15339
L8501 15339
" />
<path d="M7980 15240
L8078 15339
" />
<path d="M8078 16619
L7980 16520
" />
<path d="M8501 16619
L8078 16619
" />
<path d="M8078 17902
L7980 17803
" />
<path d="M8501 17902
L8078 17902
" />
<path d="M11707 17063
L11708 17062
" />
<path d="M11332 17063
L11707 17063
" />
<path d="M11648 15780
L11649 15779
" />
<path d="M11332 15780
L11648 15780
" />
<path d="M11579 14497
L11704 14622
" />
<path d="M11328 14497
L11579 14497
" />
<path d="M8876 15339
L8877 15338
" />
<path d="M8501 15339
L8876 15339
" />
<path d="M8874 16619
L8877 16622
" />
<path d="M8501 16619
L8874 16619
" />
<path d="M8931 8232
L8492 8232
" />
<path d="M8944 8219
L8931 8232
" />
<path d="M8834 11409
L8448 11795
" />
<path d="M9228 11409
L8834 11409
" />
<path d="M8185 17531
L8791 17531
" />
<path d="M8791 17531
L8877 17618
" />
<path d="M8877 17618
L8877 17901
" />
<path d="M8501 17902
L8876 17902
" />
<path d="M8876 17902
L8877 17901
" />
<path d="M7980 17736
L8185 17531
" />
<path d="M7980 17803
L7980 17736
" />
<path d="M13575 9169
L13964 9169
" />
<path d="M13964 9169
L14161 9366
" />
<path d="M13386 8980
L13575 9169
" />
<path d="M13204 9358
L13204 9162
" />
<path d="M13204 9162
L13386 8980
" />
<path d="M11137 11838
L11055 11755
" />
<path d="M11055 11755
L10814 11755
" />
<path d="M10814 11755
L10748 11688
" />
<path d="M11137 12137
L11137 11838
" />
<path d="M9523 11409
L9665 11551
" />
<path d="M9665 11551
L9665 11685
" />
<path d="M9228 11409
L9523 11409
" />
<path d="M7527 11196
L7909 11196
" />
<path d="M7338 11007
L7527 11196
" />
<path d="M7173 10842
L7173 10000
" />
<path d="M7338 11007
L7173 10842
" />
<path d="M13410 12855
L13413 12858
" />
<path d="M13036 12855
L13410 12855
" />
<path d="M9759 12570
L10240 12570
" />
<path d="M9759 12570
L9759 12137
" />
<path d="M9759 12570
L9759 12570
" />
<path d="M11334 12570
L11330 12570
" />
<path d="M11334 12567
L11334 12137
" />
<path d="M11330 12570
L11334 12567
" />
<path d="M8976 11606
L8799 11783
" />
<path d="M9228 11606
L8976 11606
" />
<path d="M12794 9102
L12456 9440
" />
<path d="M12794 8980
L12794 9102
" />
<path d="M6244 5759
L7897 5759
" />
<path d="M5759 6244
L6244 5759
" />
<path d="M7897 5759
L8011 5874
" />
<path d="M8011 5874
L8011 6259
" />
<path d="M4712 6244
L5759 6244
" />
<path d="M8125 5759
L11196 5759
" />
<path d="M11196 5759
L11311 5874
" />
<path d="M11311 5874
L11311 6283
" />
<path d="M8011 5874
L8125 5759
" />
<path d="M12794 8980
L12794 8456
" />
<path d="M5582 8960
L5582 6421
" />
<path d="M5582 10641
L5582 8960
" />
<path d="M5582 6421
L5759 6244
" />
<path d="M4715 8960
L5582 8960
" />
<path d="M4704 8949
L4715 8960
" />
<path d="M9634 8909
L9759 8909
" />
<path d="M9362 8638
L9634 8909
" />
<path d="M9614 9224
L9614 9437
" />
<path d="M9614 9437
L9775 9598
" />
<path d="M9775 9598
L9996 9598
" />
<path d="M9996 9598
L10248 9346
" />
<path d="M10248 9346
L11774 9346
" />
<path d="M11774 9346
L11868 9440
" />
<path d="M11868 9440
L12456 9440
" />
<path d="M9759 9079
L9614 9224
" />
<path d="M9759 8909
L9759 9079
" />
<path d="M11346 5866
L11448 5763
" />
<path d="M11448 5763
L12137 5763
" />
<path d="M12137 5763
L12362 5988
" />
<path d="M12362 5988
L12362 7055
" />
<path d="M12362 7055
L12157 7259
" />
<path d="M12157 7259
L12157 8283
" />
<path d="M12157 8283
L12330 8456
" />
<path d="M12330 8456
L12794 8456
" />
<path d="M11346 6244
L11346 5866
" />
<path d="M6861 7169
L6861 7538
" />
<path d="M6861 7538
L6862 7539
" />
<path d="M7543 8669
L7551 8677
" />
<path d="M7551 8677
L7904 8677
" />
<path d="M7900 9704
L7904 9708
" />
<path d="M7547 9704
L7900 9704
" />
<path d="M6874 8350
L6845 8322
" />
<path d="M6845 8322
L6845 7964
" />
<path d="M7547 9196
L7551 9192
" />
<path d="M7551 9192
L7904 9192
" />
<path d="M7649 10039
L7559 10039
" />
<path d="M7838 10228
L7649 10039
" />
<path d="M7904 10228
L7838 10228
" />
<path d="M9228 10818
L10114 10818
" />
<path d="M10114 10818
L10118 10814
" />
<path d="M10013 7395
L10208 7590
" />
<path d="M9807 7395
L10013 7395
" />
<path d="M11086 9775
L11094 9767
" />
<path d="M11094 9767
L11582 9767
" />
<path d="M11578 8188
L11807 7960
" />
<path d="M11807 7960
L11807 7395
" />
<path d="M10940 12578
L10940 12578
" />
<path d="M10940 12578
L10940 12137
" />
<path d="M10744 8909
L10744 7458
" />
<path d="M10744 7458
L10807 7395
" />
<path d="M10940 8909
L10940 8520
" />
<path d="M12454 7395
L12807 7395
" />
<path d="M12425 7366
L12454 7395
" />
<path d="M10940 8520
L10992 8468
" />
</g>
<g style="fill:#000000; fill-opacity:0.0; 
stroke:#000000; stroke-width:236.22; stroke-opacity:1; 
stroke-linecap:round; stroke-linejoin:round;">
<path d="M9333 13898
L9503 13728
" />
<path d="M9503 13728
L10344 13728
" />
<path d="M9333 14964
L9333 13898
" />
</g>
<g style="fill:#000000; fill-opacity:0.0; 
stroke:#000000; stroke-width:314.961; stroke-opacity:1; 
stroke-linecap:round; stroke-linejoin:round;">
<path d="M9333 17527
L9333 16746
" />
<path d="M9814 16066
L10153 15728
" />
<path d="M9814 16275
L9814 16066
" />
<path d="M9333 16746
L9330 16744
" />
<path d="M10153 15728
L10344 15728
" />
<path d="M10200 15303
L10344 15159
" />
<path d="M9333 15363
L9393 15303
" />
<path d="M9333 16244
L9333 15363
" />
<path d="M10344 15159
L10344 14728
" />
</g>
<g style="fill:#000000; fill-opacity:0.0; 
stroke:#000000; stroke-width:236.22; stroke-opacity:1; 
stroke-linecap:round; stroke-linejoin:round;">
<path d="M12160 13922
L12314 13767
" />
<path d="M12314 13767
L13175 13767
" />
<path d="M12160 14122
L12160 13922
" />
<path d="M12164 15942
L12338 15767
" />
<path d="M12338 15767
L13175 15767
" />
<path d="M12164 16688
L12164 15942
" />
<path d="M12590 14767
L13175 14767
" />
<path d="M12164 15194
L12590 14767
" />
<path d="M12164 15405
L12164 15194
" />
<path d="M13503 10598
L13688 10783
" />
<path d="M13688 10783
L14809 10783
" />
<path d="M13503 9493
L13503 10598
" />
<path d="M14171 12783
L14809 12783
" />
<path d="M13868 12480
L14171 12783
" />
<path d="M13864 11671
L13976 11783
" />
<path d="M13976 11783
L14809 11783
" />
<path d="M13864 11181
L13864 11671
" />
</g>
<g style="fill:#000000; fill-opacity:0.0; 
stroke:#000000; stroke-width:118.11; stroke-opacity:1; 
stroke-linecap:round; stroke-linejoin:round;">
<path d="M8098 14530
L7980 14648
" />
<path d="M11728 12539
L11425 12842
" />
<path d="M11425 12842
L8377 12842
" />
<path d="M8377 12842
L8098 13122
" />
<path d="M8098 13122
L8098 14530
" />
<path d="M11728 12137
L11728 12539
" />
<path d="M8039 14589
L8501 14589
" />
<path d="M7980 14648
L8039 14589
" />
<path d="M11925 12592
L11498 13019
" />
<path d="M11498 13019
L10724 13019
" />
<path d="M10724 13019
L10425 13318
" />
<path d="M11925 12137
L11925 12592
" />
<path d="M11332 16612
L11330 16614
" />
<path d="M11332 16313
L11332 16612
" />
<path d="M11830 14405
L12153 14728
" />
<path d="M11830 12938
L11830 14405
" />
<path d="M12657 12111
L11830 12938
" />
<path d="M12657 11653
L12657 12111
" />
<path d="M12610 11606
L12657 11653
" />
<path d="M12456 11606
L12610 11606
" />
<path d="M11295 15330
L11332 15293
" />
<path d="M11332 15293
L11332 15030
" />
<path d="M12755 11015
L12909 11169
" />
<path d="M12456 11015
L12755 11015
" />
<path d="M12028 11015
L11658 10645
" />
<path d="M11658 10645
L11637 10645
" />
<path d="M11295 14125
L11328 14093
" />
<path d="M11328 14093
L11328 13747
" />
<path d="M12456 11015
L12028 11015
" />
<path d="M12456 10818
L12456 10818
" />
<path d="M12082 10818
L11960 10697
" />
<path d="M11960 10697
L11960 10547
" />
<path d="M12456 10818
L12082 10818
" />
<path d="M13404 12105
L13405 12106
" />
<path d="M13036 12105
L13404 12105
" />
<path d="M12848 10621
L13032 10806
" />
<path d="M12456 10621
L12848 10621
" />
<path d="M13262 10806
L13322 10866
" />
<path d="M13032 10806
L13262 10806
" />
<path d="M12787 10228
L12456 10228
" />
<path d="M12842 10173
L12787 10228
" />
<path d="M12842 9964
L12842 10173
" />
<path d="M13043 9763
L12842 9964
" />
<path d="M13043 9669
L13043 9763
" />
<path d="M13811 8921
L13811 8535
" />
<path d="M13811 8535
L13732 8456
" />
<path d="M13732 8456
L13386 8456
" />
<path d="M5051 8704
L5090 8704
" />
<path d="M4704 8357
L5051 8704
" />
<path d="M11531 11460
L11314 11244
" />
<path d="M11314 11244
L10515 11244
" />
<path d="M10515 11244
L10429 11330
" />
<path d="M10429 11330
L9909 11330
" />
<path d="M9909 11330
L9681 11102
" />
<path d="M5972 10637
L5763 10429
" />
<path d="M5763 10429
L5763 6490
" />
<path d="M5763 6490
L6010 6244
" />
<path d="M6010 6244
L6681 6244
" />
<path d="M11531 12137
L11531 11460
" />
<path d="M11921 11409
L12456 11409
" />
<path d="M11578 11066
L11921 11409
" />
<path d="M10307 11066
L11578 11066
" />
<path d="M9452 8181
L9716 8444
" />
<path d="M9452 6586
L9452 8181
" />
<path d="M9779 6259
L9452 6586
" />
<path d="M9980 6259
L9779 6259
" />
<path d="M10547 8260
L10456 8169
" />
<path d="M10456 8169
L10456 7228
" />
<path d="M10456 7228
L10401 7173
" />
<path d="M7803 7169
L7453 7169
" />
<path d="M10547 8909
L10547 8260
" />
<path d="M8496 8677
L8897 8677
" />
<path d="M10153 8496
L10074 8417
" />
<path d="M10153 8909
L10153 8496
" />
<path d="M8887 9637
L8816 9708
" />
<path d="M8816 9708
L8496 9708
" />
<path d="M9228 9637
L8887 9637
" />
<path d="M7799 7964
L7437 7964
" />
<path d="M7807 7956
L7799 7964
" />
<path d="M10204 8167
L10204 7964
" />
<path d="M10350 8313
L10204 8167
" />
<path d="M10350 8909
L10350 8313
" />
<path d="M8865 9440
L8803 9377
" />
<path d="M8803 9377
L8803 9236
" />
<path d="M8803 9236
L8759 9192
" />
<path d="M8759 9192
L8496 9192
" />
<path d="M9228 9440
L8865 9440
" />
<path d="M8940 9834
L8850 9925
" />
<path d="M8850 9925
L8850 10137
" />
<path d="M8850 10137
L8759 10228
" />
<path d="M8759 10228
L8496 10228
" />
<path d="M9228 9834
L8940 9834
" />
<path d="M13028 10425
L13128 10325
" />
<path d="M12456 10425
L13028 10425
" />
<path d="M13128 10044
L13128 10325
" />
<path d="M13192 9980
L13128 10044
" />
<path d="M12456 10031
L12169 10031
" />
<path d="M12169 10031
L11972 10228
" />
<path d="M14499 9484
L14830 9814
" />
<path d="M14499 9366
L14499 9484
" />
<path d="M12456 9834
L12023 9834
" />
<path d="M12023 9834
L11972 9885
" />
<path d="M14110 8814
L14830 8814
" />
<path d="M14078 8783
L14110 8814
" />
<path d="M14078 8425
L14078 8783
" />
<path d="M7971 17220
L7980 17211
" />
<path d="M8039 17152
L7980 17211
" />
<path d="M8501 17152
L8039 17152
" />
<path d="M7973 17204
L7980 17211
" />
<path d="M9216 10633
L9228 10621
" />
<path d="M9216 10633
L9228 10621
" />
<path d="M7539 17543
L6988 17543
" />
<path d="M6988 17543
L6984 17539
" />
<path d="M5618 11393
L6389 10622
" />
<path d="M5618 12169
L5618 11393
" />
<path d="M7870 10633
L9216 10633
" />
<path d="M7870 17211
L7539 17543
" />
<path d="M7980 17211
L7870 17211
" />
<path d="M6850 17539
L6531 17220
" />
<path d="M6531 17220
L6531 15145
" />
<path d="M6531 15145
L6228 14842
" />
<path d="M6984 17539
L6850 17539
" />
<path d="M8039 15869
L7980 15928
" />
<path d="M8501 15869
L8039 15869
" />
<path d="M8488 11015
L7893 11610
" />
<path d="M7893 11610
L7893 12976
" />
<path d="M8358 16173
L8501 16030
" />
<path d="M8501 16030
L8501 15869
" />
<path d="M9228 11015
L8488 11015
" />
<path d="M12456 11212
L11974 11212
" />
<path d="M11350 10795
L11350 10755
" />
<path d="M11444 10889
L11350 10795
" />
<path d="M11652 10889
L11444 10889
" />
<path d="M11974 11212
L11652 10889
" />
<path d="M11334 7649
L11334 7047
" />
</g>
<g style="fill:#000000; fill-opacity:1.0; 
stroke:#000000; stroke-width:118.11; stroke-opacity:1; 
stroke-linecap:round; stroke-linejoin:round;">
<polyline style="fill-rule:evenodd;"
points="5660,13409
5432,13637
5351,13758
5346,13782
5322,13902
5322,17278
5310,17290
5310,16913
5310,16519
5310,16244
5310,15850
5218,15664
5063,15528
5011,15522
4936,15525
4936,16244
5310,16244
5310,16519
4936,16519
4936,17237
5011,17240
5063,17235
5218,17098
5310,16913
5310,17290
4727,17873
4660,17973
4660,17237
4660,16519
4660,16244
4660,15525
4585,15522
4534,15528
4378,15664
4287,15850
4287,16244
4660,16244
4660,16519
4287,16519
4287,16913
4378,17098
4534,17235
4585,17240
4660,17237
4660,17973
4646,17994
4641,18018
4618,18137
4618,18803
4641,18922
4646,18946
4727,19067
5246,19586
4165,19586
4165,13670
4191,13709
4237,13740
4291,13751
5157,13751
5209,13741
5256,13710
5287,13665
5297,13611
5297,13047
5660,13409
" /> 
<polyline style="fill-rule:evenodd;"
points="9671,5956
9652,5985
9622,6136
9622,6138
9313,6447
9270,6511
9255,6586
9255,8085
9250,8080
9208,8080
9083,8205
9083,7955
9083,7913
9025,7855
9009,7848
9009,6438
8990,6381
8781,6381
8781,6662
8834,6669
8837,6662
8945,6567
9009,6438
9009,7848
8981,7837
8934,7837
8891,7855
8858,7888
8826,7920
8826,7962
8951,8087
9083,7955
9083,8205
9076,8212
9116,8253
8977,8392
8937,8352
8903,8385
8778,8260
8812,8226
8686,8101
8645,8101
8612,8133
8579,8167
8561,8210
8561,8257
8579,8300
8618,8339
8319,8339
8267,8349
8221,8380
8200,8410
8181,8381
8135,8350
8081,8339
8063,8339
8063,7906
8024,7811
7952,7739
7858,7700
7756,7700
7740,7707
7714,7668
7668,7637
7614,7627
7260,7627
7208,7637
7162,7667
7141,7697
7122,7668
7093,7649
7118,7590
7118,7488
7114,7480
7137,7466
7157,7436
7176,7465
7222,7495
7276,7506
7630,7506
7683,7496
7729,7466
7756,7425
7853,7425
7947,7386
8019,7314
8059,7220
8059,7118
8020,7024
7948,6952
7854,6913
7756,6913
7730,6873
7684,6842
7630,6831
7276,6831
7223,6841
7177,6872
7157,6902
7138,6873
7092,6842
7038,6831
6684,6831
6631,6841
6585,6872
6554,6918
6543,6972
6543,7366
6554,7418
6584,7465
6609,7481
6606,7488
6606,7590
6625,7635
6616,7637
6570,7667
6539,7713
6528,7767
6528,8161
6538,8214
6568,8260
6614,8291
6620,8292
6618,8299
6618,8401
6656,8495
6728,8567
6822,8606
6924,8606
7018,8567
7090,8495
7129,8401
7129,8299
7115,8265
7121,8261
7141,8231
7160,8260
7206,8291
7260,8302
7614,8302
7667,8291
7713,8261
7744,8215
7745,8208
7755,8212
7857,8212
7951,8173
8023,8101
8062,8007
8063,7906
8063,8339
7727,8339
7675,8349
7629,8380
7603,8417
7594,8413
7492,8413
7398,8452
7326,8524
7287,8618
7287,8719
7326,8814
7398,8886
7492,8925
7593,8925
7596,8924
7597,8926
7602,8934
7598,8941
7598,8940
7496,8940
7402,8979
7330,9051
7291,9145
7291,9247
7330,9341
7402,9413
7491,9450
7402,9487
7330,9559
7291,9653
7291,9755
7330,9849
7358,9877
7342,9894
7303,9988
7303,10090
7308,10102
7200,10102
7200,10131
7171,10102
7047,10102
7000,10102
6956,10120
6923,10153
6905,10196
6905,10840
6934,10869
7200,10869
7200,10861
7476,10861
7476,10869
7742,10869
7750,10861
7818,10889
7920,10889
8014,10850
8035,10830
8428,10830
8412,10833
8349,10876
7771,11453
7771,11174
7742,11145
7476,11145
7476,11883
7505,11913
7630,11913
7677,11913
7696,11905
7696,12490
7653,12481
7200,12481
7200,11883
7200,11145
6934,11145
6905,11174
6905,11818
6923,11862
6956,11895
7000,11913
7047,11913
7171,11913
7200,11883
7200,12481
7023,12481
6971,12491
6924,12522
6893,12567
6883,12622
6883,13035
6344,13035
5714,12406
5762,12386
5834,12314
5873,12220
5874,12118
5835,12024
5814,12004
5814,11475
6412,10877
6440,10877
6534,10839
6606,10767
6645,10673
6645,10571
6606,10477
6534,10405
6440,10366
6339,10366
6244,10404
6173,10476
6117,10420
6023,10381
5994,10381
5960,10347
5960,6572
6091,6440
6308,6440
6321,6502
6406,6630
6534,6715
6685,6745
6835,6715
6963,6630
7048,6502
7078,6352
7078,6136
7048,5985
7029,5956
7702,5956
7683,5985
7653,6136
7653,6352
7683,6502
7768,6630
7896,6715
8047,6745
8197,6715
8325,6630
8365,6571
8469,6662
8472,6669
8525,6662
8525,6381
8507,6381
8507,6106
8525,6106
8525,6098
8781,6098
8781,6106
8990,6106
9009,6049
8963,5956
9671,5956
" /> 
<polyline style="fill-rule:evenodd;"
points="10028,9287
9914,9401
9857,9401
9811,9355
9811,9306
9818,9306
9871,9295
9889,9283
9897,9283
9912,9268
9917,9265
9920,9260
9927,9254
9927,9251
9948,9219
9956,9178
9964,9218
9986,9251
9986,9254
9991,9259
9994,9264
9999,9267
10015,9283
10023,9283
10028,9287
" /> 
<polyline style="fill-rule:evenodd;"
points="10426,13039
10402,13062
10374,13062
10280,13101
10208,13173
10169,13267
10169,13369
10176,13387
9665,13387
9612,13397
9566,13427
9536,13472
9503,13472
9406,13491
9322,13547
9152,13718
9096,13801
9093,13817
9077,13898
9077,14720
9037,14746
9006,14792
8995,14846
8995,15082
9006,15135
9036,15181
9082,15212
9085,15212
9060,15250
9038,15363
9038,16025
9037,16026
9006,16071
8995,16126
8995,16362
9006,16414
9036,16460
9082,16491
9136,16502
9170,16502
9121,16535
9057,16631
9035,16744
9038,16757
9038,17309
9037,17309
9006,17355
8995,17409
8995,17645
9006,17698
9036,17744
9082,17775
9136,17786
9198,17786
9202,17788
8889,18101
8816,18210
8816,18044
8816,17991
8816,17814
8816,17761
8798,17717
8765,17684
8721,17666
8674,17666
8629,17666
8599,17695
8599,17843
8786,17843
8816,17814
8816,17991
8786,17961
8599,17961
8599,18109
8629,18138
8674,18138
8721,18138
8765,18120
8798,18087
8816,18044
8816,18210
8807,18223
8803,18246
8779,18366
8779,18789
8522,19047
8402,19047
7881,19047
7881,18069
7881,17892
7694,17892
7665,17921
7665,18004
7683,18047
7716,18081
7759,18098
7806,18098
7852,18098
7881,18069
7881,19047
6937,19047
6937,18682
6937,18255
6931,18204
6795,18048
6610,17957
6216,17957
6216,18331
6934,18331
6937,18255
6937,18682
6934,18606
6216,18606
6216,18980
6610,18980
6795,18888
6931,18733
6937,18682
6937,19047
5765,19047
5698,18980
5940,18980
5940,18606
5933,18606
5933,18331
5940,18331
5940,17957
5701,17957
5961,17697
5961,17697
6015,17616
6042,17576
6042,17576
6070,17433
6070,17433
6070,15046
6083,15059
6177,15098
6205,15098
6334,15227
6334,17220
6349,17295
6392,17359
6711,17678
6775,17721
6850,17736
6968,17736
6968,17736
6988,17740
7539,17740
7539,17740
7614,17725
7668,17689
7694,17715
7881,17715
7881,17658
8078,17658
8078,17715
8125,17715
8125,17892
8078,17892
8078,18069
8108,18098
8153,18098
8200,18098
8211,18094
8237,18120
8280,18138
8327,18138
8373,18138
8402,18109
8402,17961
8355,17961
8355,17843
8402,17843
8402,17695
8373,17666
8327,17666
8295,17666
8295,17666
8295,17603
8277,17559
8244,17526
8227,17519
8229,17519
8276,17488
8306,17443
8313,17411
8698,17411
8750,17400
8797,17370
8827,17324
8838,17270
8838,17034
8828,16982
8816,16963
8816,16760
8816,16707
8786,16678
8599,16678
8599,16825
8629,16855
8674,16855
8721,16855
8765,16837
8798,16803
8816,16760
8816,16963
8798,16935
8752,16904
8698,16894
8402,16894
8304,16894
8251,16904
8240,16911
8231,16905
8177,16894
7783,16894
7730,16904
7685,16934
7693,16894
7693,16774
7716,16797
7759,16815
7806,16815
7852,16815
7881,16785
7881,16608
7834,16608
7834,16431
7881,16431
7881,16374
8078,16374
8078,16431
8125,16431
8125,16608
8078,16608
8078,16785
8108,16815
8153,16815
8200,16815
8211,16811
8237,16837
8280,16855
8327,16855
8373,16855
8402,16825
8402,16678
8355,16678
8355,16560
8402,16560
8402,16501
8599,16501
8599,16560
8786,16560
8816,16530
8816,16477
8798,16434
8765,16400
8721,16382
8674,16382
8639,16382
8629,16382
8510,16382
8575,16318
8614,16224
8614,16195
8640,16169
8640,16169
8666,16131
8668,16127
8698,16127
8750,16117
8797,16087
8827,16041
8838,15987
8838,15751
8828,15698
8816,15679
8816,15481
8816,15428
8816,15251
8816,15198
8798,15154
8765,15121
8721,15103
8674,15103
8629,15103
8599,15132
8599,15280
8786,15280
8816,15251
8816,15428
8786,15398
8599,15398
8599,15546
8629,15575
8674,15575
8721,15575
8765,15557
8798,15524
8816,15481
8816,15679
8798,15652
8752,15621
8698,15610
8402,15610
8304,15610
8251,15620
8240,15628
8231,15621
8177,15610
7881,15610
7881,15506
7881,15329
7694,15329
7665,15358
7665,15441
7683,15484
7716,15518
7759,15535
7806,15535
7852,15535
7881,15506
7881,15610
7783,15610
7730,15621
7684,15651
7657,15691
7652,15666
7537,15493
7365,15378
7161,15338
6958,15378
6786,15493
6728,15580
6728,15145
6713,15070
6670,15006
6670,15006
6484,14820
6484,14791
6445,14697
6373,14625
6279,14586
6177,14586
6083,14625
6070,14638
6070,14056
6344,13783
6534,13783
6503,13814
6430,13923
6405,14051
6430,14179
6503,14287
6612,14360
6740,14385
6868,14360
6944,14309
6969,14326
7023,14337
7653,14337
7706,14327
7752,14297
7783,14251
7794,14197
7794,13212
7842,13232
7901,13232
7901,14331
7783,14331
7730,14341
7684,14371
7653,14417
7642,14471
7642,14825
7653,14878
7683,14924
7729,14955
7733,14956
7716,14963
7683,14996
7665,15040
7665,15122
7694,15152
7881,15152
7881,15095
8078,15095
8078,15152
8125,15152
8125,15329
8078,15329
8078,15506
8108,15535
8153,15535
8200,15535
8211,15531
8237,15557
8280,15575
8327,15575
8373,15575
8402,15546
8402,15398
8355,15398
8355,15280
8402,15280
8402,15132
8373,15103
8327,15103
8295,15103
8295,15103
8295,15040
8277,14996
8244,14963
8227,14956
8229,14956
8276,14925
8306,14880
8313,14848
8698,14848
8750,14837
8797,14807
8827,14761
8838,14707
8838,14471
8828,14419
8798,14372
8752,14341
8698,14331
8304,14331
8295,14332
8295,13203
8459,13039
10426,13039
" /> 
<polyline style="fill-rule:evenodd;"
points="11334,11741
11275,11741
11222,11751
11204,11763
11196,11763
11181,11778
11176,11781
11173,11786
11167,11793
11167,11796
11145,11827
11137,11868
11129,11829
11108,11795
11108,11793
11102,11787
11099,11782
11094,11779
11078,11763
11070,11763
11053,11751
10999,11741
10881,11741
10841,11748
10803,11741
10685,11741
10645,11748
10606,11741
10488,11741
10448,11748
10409,11741
10291,11741
10251,11748
10212,11741
10094,11741
10054,11748
10015,11741
9897,11741
9857,11748
9818,11741
9700,11741
9647,11751
9601,11781
9570,11827
9560,11881
9560,12393
9562,12406
9543,12425
9503,12519
9503,12621
9513,12645
8377,12645
8302,12660
8277,12677
8238,12703
8110,12831
8090,12811
8090,11691
8569,11212
8832,11212
8832,11271
8842,11324
8854,11342
8854,11350
8869,11365
8872,11370
8877,11373
8883,11380
8887,11380
8918,11401
8959,11409
8919,11417
8912,11422
8912,11422
8900,11424
8854,11455
8836,11467
8776,11527
8748,11527
8654,11566
8582,11638
8543,11732
8543,11834
8582,11928
8654,12000
8748,12039
8849,12039
8943,12000
9016,11928
9055,11834
9055,11806
9484,11806
9537,11795
9583,11765
9614,11719
9625,11665
9625,11547
9614,11495
9602,11476
9602,11468
9587,11453
9584,11448
9579,11445
9573,11439
9569,11439
9538,11417
9497,11409
9537,11401
9570,11380
9573,11380
9578,11374
9583,11371
9586,11366
9602,11350
9602,11346
9629,11358
9658,11358
9770,11469
9834,11512
9909,11527
10429,11527
10429,11527
10504,11512
10568,11469
10597,11440
11233,11440
11334,11542
11334,11741
" /> 
<polyline style="fill-rule:evenodd;"
points="11781,10057
11755,10083
11716,10177
11716,10279
11755,10373
11764,10381
11743,10402
11740,10411
11688,10389
11587,10389
11493,10428
11420,10500
11418,10507
11401,10500
11299,10499
11205,10538
11133,10610
11094,10704
11094,10806
11120,10870
10472,10870
10452,10850
10374,10817
10374,10764
10335,10670
10263,10598
10169,10559
10067,10559
9973,10597
9949,10621
9625,10621
9625,10562
9617,10522
9625,10484
9625,10366
9617,10326
9625,10287
9625,10169
9617,10129
9625,10090
9625,9972
9617,9932
9625,9893
9625,9775
9617,9735
9620,9721
9636,9737
9674,9763
9700,9780
9700,9780
9775,9795
9996,9795
9996,9795
10071,9780
10135,9737
10329,9543
10978,9543
10941,9558
10869,9630
10830,9724
10830,9826
10869,9920
10941,9992
11035,10031
11137,10031
11231,9992
11259,9964
11417,9964
11437,9984
11531,10023
11633,10023
11727,9984
11733,9978
11755,10030
11781,10057
" /> 
<polyline style="fill-rule:evenodd;"
points="11903,9637
11827,9668
11821,9675
11800,9623
11868,9637
11903,9637
" /> 
<polyline style="fill-rule:evenodd;"
points="12129,6381
12112,6381
12112,6389
11856,6389
11856,6381
11838,6381
11838,6106
11856,6106
11856,6098
12112,6098
12112,6106
12129,6106
12129,6381
" /> 
<polyline style="fill-rule:evenodd;"
points="12232,16947
12070,17110
11186,17110
11186,17004
11233,17004
11233,16945
11430,16945
11430,17004
11617,17004
11647,16975
11647,16922
11629,16879
11595,16845
11552,16827
11505,16827
11478,16827
11547,16759
11586,16665
11586,16563
11585,16559
11627,16531
11658,16486
11669,16431
11669,16195
11659,16143
11647,16124
11647,15922
11647,15869
11617,15839
11430,15839
11430,15987
11460,16016
11505,16016
11552,16016
11595,15998
11629,15965
11647,15922
11647,16124
11628,16097
11583,16066
11529,16055
11135,16055
11082,16065
11036,16096
11005,16141
10994,16195
10994,16387
10493,16387
10487,16382
10344,16354
10201,16382
10194,16387
10088,16387
10110,16275
10110,16189
10229,16069
11023,16069
11076,16059
11122,16029
11130,16016
11158,16016
11204,16016
11233,15987
11233,15839
11186,15839
11186,15721
11233,15721
11233,15662
11430,15662
11430,15721
11617,15721
11647,15691
11647,15639
11629,15595
11595,15562
11552,15544
11505,15544
11469,15544
11460,15544
11443,15544
11512,15475
11551,15381
11551,15284
11581,15278
11627,15248
11658,15202
11669,15148
11669,14912
11659,14859
11643,14835
11643,14638
11643,14585
11613,14556
11426,14556
11426,14703
11456,14733
11501,14733
11548,14733
11591,14715
11625,14681
11643,14638
11643,14835
11628,14813
11583,14782
11529,14772
11164,14772
11164,14733
11200,14733
11229,14703
11229,14556
11182,14556
11182,14438
11229,14438
11229,14379
11237,14379
11244,14381
11345,14381
11352,14379
11426,14379
11426,14438
11613,14438
11635,14415
11648,14480
11691,14544
11897,14750
11897,14779
11936,14873
12008,14945
12038,14957
11983,15013
11927,15096
11924,15112
11915,15157
11914,15157
11868,15187
11837,15233
11826,15287
11826,15523
11836,15576
11867,15622
11912,15653
11967,15664
12080,15664
11983,15761
11927,15844
11924,15860
11908,15942
11908,16444
11868,16471
11837,16516
11826,16570
11826,16806
11836,16859
11867,16905
11912,16936
11967,16947
12232,16947
" /> 
<polyline style="fill-rule:evenodd;"
points="12460,12029
12125,12365
12125,11881
12114,11829
12084,11782
12038,11751
11984,11741
11866,11741
11826,11748
11787,11741
11728,11741
11728,11494
11782,11548
11846,11591
11921,11606
12060,11606
12060,11665
12070,11718
12100,11764
12146,11795
12200,11806
12460,11806
12460,12029
" /> 
<polyline style="fill-rule:evenodd;"
points="13245,9295
13245,9296
13245,9509
13188,9452
13094,9413
12992,9413
12898,9452
12853,9497
12853,9381
12843,9332
12857,9317
12971,9317
13024,9307
13070,9277
13101,9231
13102,9226
13109,9244
13142,9277
13186,9295
13245,9295
" /> 
<polyline style="fill-rule:evenodd;"
points="13532,9078
13475,9078
13475,9125
13298,9125
13298,9078
13240,9078
13240,8881
13298,8881
13298,8834
13475,8834
13475,8881
13532,8881
13532,9078
" /> 
<polyline style="fill-rule:evenodd;"
points="16023,19586
15858,19586
15858,18690
15858,14855
15747,14587
15543,14382
15275,14271
14985,14271
14717,14382
14512,14586
14401,14854
14401,15144
14512,15412
14716,15617
14984,15728
15274,15728
15541,15617
15747,15413
15858,15145
15858,14855
15858,18690
15747,18422
15543,18217
15275,18106
14985,18106
14717,18216
14512,18421
14401,18689
14401,18978
14512,19246
14716,19451
14984,19562
15274,19563
15541,19452
15747,19247
15858,18980
15858,18690
15858,19586
9040,19586
9418,19209
9418,19209
9472,19128
9478,19118
9531,19246
9736,19451
10004,19562
10293,19563
10561,19452
10766,19247
10877,18980
10878,18690
10767,18422
10562,18217
10295,18106
10225,18106
10608,17723
10608,17723
10690,17601
10690,17601
10692,17590
10783,17681
10891,17754
11019,17779
11019,17779
11019,17779
12208,17779
12336,17754
12445,17681
13017,17108
13854,17108
13906,17098
13953,17068
13983,17022
13994,16968
13994,16566
13984,16514
13954,16468
13908,16437
13854,16426
13514,16426
13523,16381
13498,16253
13425,16145
13371,16108
13854,16108
13906,16098
13953,16068
13983,16022
13994,15968
13994,15566
13984,15514
13954,15468
13908,15437
13854,15426
12501,15426
12501,15287
12491,15234
12488,15231
12611,15108
13854,15108
13906,15098
13953,15068
13983,15022
13994,14968
13994,14624
13999,14625
14128,14600
14236,14527
14639,14124
15488,14124
15540,14114
15586,14084
15617,14038
15628,13984
15628,13582
15618,13530
15588,13483
15542,13453
15488,13442
14129,13442
14077,13452
14031,13482
14000,13528
13993,13561
13984,13514
13954,13468
13908,13437
13854,13426
13351,13426
13351,12996
13351,12943
13351,12766
13351,12713
13333,12670
13300,12637
13257,12619
13210,12619
13164,12619
13135,12648
13135,12796
13322,12796
13351,12766
13351,12943
13322,12914
13135,12914
13135,13061
13164,13091
13210,13091
13257,13091
13300,13073
13333,13040
13351,12996
13351,13426
12938,13426
12938,13061
12938,12914
12938,12796
12938,12648
12908,12619
12863,12619
12816,12619
12772,12637
12739,12670
12721,12713
12721,12766
12751,12796
12938,12796
12938,12914
12751,12914
12721,12943
12721,12996
12739,13040
12772,13073
12816,13091
12863,13091
12908,13091
12938,13061
12938,13426
12496,13426
12443,13436
12397,13466
12367,13511
12314,13511
12233,13528
12217,13531
12134,13586
12027,13693
12027,13019
12733,12313
12739,12322
12785,12352
12839,12363
13233,12363
13286,12353
13304,12341
13354,12362
13456,12362
13538,12328
13531,12362
13531,12598
13541,12650
13571,12697
13617,12727
13671,12738
13765,12738
13989,12962
13989,12984
13999,13036
14029,13082
14075,13113
14129,13124
15488,13124
15540,13114
15586,13084
15617,13038
15628,12984
15628,12582
15618,12530
15588,12483
15542,12453
15488,12442
14206,12442
14206,12362
14196,12309
14165,12263
14119,12232
14065,12221
13671,12221
13631,12229
13661,12157
13661,12055
13622,11961
13550,11889
13456,11850
13354,11850
13347,11853
13347,11697
13347,11644
13347,11467
13347,11414
13329,11371
13296,11337
13253,11319
13206,11319
13160,11319
13131,11349
13131,11497
13318,11497
13347,11467
13347,11644
13318,11615
13131,11615
13131,11762
13160,11792
13206,11792
13253,11792
13296,11774
13329,11741
13347,11697
13347,11853
13306,11870
13287,11857
13233,11846
12854,11846
12854,11792
12859,11792
12904,11792
12934,11762
12934,11615
12887,11615
12887,11497
12934,11497
12934,11361
12984,11351
13048,11308
13091,11244
13106,11169
13091,11093
13071,11064
13159,11064
13177,11082
13271,11122
13373,11122
13467,11083
13537,11013
13527,11063
13527,11299
13537,11351
13567,11397
13608,11425
13608,11671
13625,11753
13628,11769
13683,11852
13795,11964
13878,12019
13976,12039
14001,12039
14029,12082
14075,12113
14129,12124
15488,12124
15540,12114
15586,12084
15617,12038
15628,11984
15628,11582
15618,11530
15588,11483
15542,11453
15488,11442
14129,11442
14120,11443
14120,11425
14160,11399
14191,11353
14202,11299
14202,11124
15488,11124
15540,11114
15586,11084
15617,11038
15628,10984
15628,10582
15618,10530
15588,10483
15542,10453
15488,10442
14129,10442
14108,10446
14085,10423
13937,10423
13937,10471
13819,10471
13819,10423
13760,10423
13760,10226
13819,10226
13819,10039
13790,10010
13759,10010
13759,9703
13762,9690
13762,9296
13752,9243
13721,9197
13681,9170
13681,9153
13681,9144
13759,9177
13861,9177
13955,9138
14023,9071
14051,9114
14097,9145
14151,9156
14348,9156
14283,9220
14244,9315
14244,9416
14267,9473
14151,9473
14099,9483
14052,9514
14021,9560
14011,9614
14011,10010
13967,10010
13937,10039
13937,10226
14085,10226
14115,10197
14115,10151
14115,10148
14151,10156
15509,10156
15562,10146
15608,10115
15639,10069
15650,10015
15650,9614
15640,9561
15609,9515
15564,9484
15509,9473
14767,9473
14742,9448
14755,9417
14755,9315
14717,9221
14652,9156
15509,9156
15562,9146
15608,9115
15639,9069
15650,9015
15650,8614
15640,8561
15639,8560
15639,6438
15639,6049
15575,5920
15467,5825
15464,5818
15411,5825
15411,6106
15620,6106
15639,6049
15639,6438
15620,6381
15411,6381
15411,6662
15464,6669
15467,6662
15575,6567
15639,6438
15639,8560
15627,8543
15627,8039
15627,7944
15627,7685
15627,7590
15609,7547
15576,7514
15533,7496
15486,7496
15155,7496
15155,6662
15155,6381
15155,6106
15155,5825
15102,5818
15099,5825
14991,5920
14927,6049
14946,6106
15155,6106
15155,6381
14946,6381
14927,6438
14991,6567
15099,6662
15102,6669
15155,6662
15155,7496
14998,7496
14968,7525
14968,7714
15598,7714
15627,7685
15627,7944
15598,7915
14968,7915
14968,8104
14998,8133
15486,8133
15533,8133
15576,8115
15609,8082
15627,8039
15627,8543
15609,8515
15564,8484
15509,8473
14692,8473
14692,8104
14692,7915
14685,7915
14685,7714
14692,7714
14692,7525
14663,7496
14175,7496
14141,7496
14141,7173
14141,6684
14141,6637
14123,6594
14090,6561
14047,6543
13952,6543
13923,6572
13923,7202
14112,7202
14141,7173
14141,7496
14129,7496
14112,7478
13923,7478
13923,8108
13952,8137
14047,8137
14090,8119
14091,8118
14128,8133
14175,8133
14663,8133
14692,8104
14692,8473
14334,8473
14334,8374
14295,8280
14223,8208
14129,8169
14028,8169
13933,8208
13861,8280
13851,8304
13807,8274
13732,8259
13704,8259
13704,8259
13693,8207
13663,8160
13629,8137
13692,8137
13722,8108
13722,7478
13533,7478
13503,7507
13503,7996
13503,8043
13521,8086
13554,8119
13209,8119
13157,8129
13110,8159
13090,8189
13071,8160
13059,8153
13076,8149
13122,8119
13153,8073
13164,8019
13164,6715
13164,6715
13314,6745
13465,6715
13503,6690
13503,7173
13533,7202
13722,7202
13722,6572
13692,6543
13651,6543
13678,6502
13708,6352
13708,6136
13678,5985
13593,5857
13465,5772
13314,5742
13164,5772
13036,5857
12951,5985
12921,6136
12921,6352
12951,6502
12963,6520
12622,6520
12569,6531
12559,6537
12559,5988
12544,5912
12544,5912
12526,5887
12501,5848
12388,5736
16023,5736
16023,19586
" /> 
</g>
<g style="fill:#FFFFFF; fill-opacity:1.0; 
stroke:#FFFFFF; stroke-width:39.3701; stroke-opacity:1; 
stroke-linecap:round; stroke-linejoin:round;">
<circle cx="6740.16" cy="14051.2" r="59.0551" /> 
<circle cx="13189" cy="16381.9" r="59.0551" /> 
<circle cx="14000" cy="14291.3" r="59.0551" /> 
<circle cx="14842.5" cy="9374.02" r="59.0551" /> 
<circle cx="10732.3" cy="9763.78" r="59.0551" /> 
<circle cx="9874.02" cy="9338.58" r="59.0551" /> 
<circle cx="8527.56" cy="14177.2" r="59.0551" /> 
<circle cx="11708.7" cy="17063" r="59.0551" /> 
<circle cx="11649.6" cy="15779.5" r="59.0551" /> 
<circle cx="11704.7" cy="14622" r="59.0551" /> 
<circle cx="8877.95" cy="15338.6" r="59.0551" /> 
<circle cx="8877.95" cy="16622" r="59.0551" /> 
<circle cx="6314.96" cy="9074.8" r="59.0551" /> 
<circle cx="8492.13" cy="8232.28" r="59.0551" /> 
<circle cx="8448.82" cy="11795.3" r="59.0551" /> 
<circle cx="8877.95" cy="17901.6" r="59.0551" /> 
<circle cx="14161.4" cy="9366.14" r="59.0551" /> 
<circle cx="13204.7" cy="9358.27" r="59.0551" /> 
<circle cx="12259.8" cy="12102.4" r="59.0551" /> 
<circle cx="10748" cy="11689" r="59.0551" /> 
<circle cx="9665.35" cy="11685" r="59.0551" /> 
<circle cx="8559.05" cy="12366.1" r="59.0551" /> 
<circle cx="7909.45" cy="11196.9" r="59.0551" /> 
<circle cx="7173.23" cy="10000" r="59.0551" /> 
<circle cx="13413.4" cy="12858.3" r="59.0551" /> 
<circle cx="9759.84" cy="12570.9" r="59.0551" /> 
<circle cx="11334.6" cy="12570.9" r="59.0551" /> 
<circle cx="10240.2" cy="12570.9" r="59.0551" /> 
<circle cx="8799.21" cy="11783.5" r="59.0551" /> 
<circle cx="5582.68" cy="10641.7" r="59.0551" /> 
<circle cx="6862.2" cy="7539.37" r="59.0551" /> 
<circle cx="7543.31" cy="8669.29" r="59.0551" /> 
<circle cx="7547.24" cy="9704.72" r="59.0551" /> 
<circle cx="6874.02" cy="8350.39" r="59.0551" /> 
<circle cx="7547.24" cy="9196.85" r="59.0551" /> 
<circle cx="7559.05" cy="10039.4" r="59.0551" /> 
<circle cx="10118.1" cy="10815" r="59.0551" /> 
<circle cx="10208.7" cy="7590.55" r="59.0551" /> 
<circle cx="11086.6" cy="9775.59" r="59.0551" /> 
<circle cx="11582.7" cy="9767.72" r="59.0551" /> 
<circle cx="11578.7" cy="8188.98" r="59.0551" /> 
<circle cx="10940.9" cy="12578.7" r="59.0551" /> 
<circle cx="12425.2" cy="7366.14" r="59.0551" /> 
<circle cx="10992.1" cy="8468.5" r="59.0551" /> 
<circle cx="9814.96" cy="16275.6" r="59.0551" /> 
<circle cx="9330.71" cy="16744.1" r="59.0551" /> 
<circle cx="9393.7" cy="15303.1" r="59.0551" /> 
<circle cx="10200.8" cy="15303.1" r="59.0551" /> 
<circle cx="10425.2" cy="13318.9" r="59.0551" /> 
<circle cx="11330.7" cy="16614.2" r="59.0551" /> 
<circle cx="12153.5" cy="14728.3" r="59.0551" /> 
<circle cx="11295.3" cy="15330.7" r="59.0551" /> 
<circle cx="11637.8" cy="10645.7" r="59.0551" /> 
<circle cx="11295.3" cy="14126" r="59.0551" /> 
<circle cx="11960.6" cy="10547.2" r="59.0551" /> 
<circle cx="13405.5" cy="12106.3" r="59.0551" /> 
<circle cx="13322.8" cy="10866.1" r="59.0551" /> 
<circle cx="13043.3" cy="9669.29" r="59.0551" /> 
<circle cx="13811" cy="8921.26" r="59.0551" /> 
<circle cx="5090.55" cy="8704.72" r="59.0551" /> 
<circle cx="9681.1" cy="11102.4" r="59.0551" /> 
<circle cx="5972.44" cy="10637.8" r="59.0551" /> 
<circle cx="10307.1" cy="11066.9" r="59.0551" /> 
<circle cx="9716.54" cy="8444.88" r="59.0551" /> 
<circle cx="10401.6" cy="7173.23" r="59.0551" /> 
<circle cx="7803.15" cy="7169.29" r="59.0551" /> 
<circle cx="10074.8" cy="8417.32" r="59.0551" /> 
<circle cx="8897.64" cy="8677.17" r="59.0551" /> 
<circle cx="7807.09" cy="7956.69" r="59.0551" /> 
<circle cx="10204.7" cy="7964.57" r="59.0551" /> 
<circle cx="13192.9" cy="9980.32" r="59.0551" /> 
<circle cx="11972.4" cy="10228.3" r="59.0551" /> 
<circle cx="14500" cy="9366.14" r="59.0551" /> 
<circle cx="11972.4" cy="9885.83" r="59.0551" /> 
<circle cx="14078.7" cy="8425.2" r="59.0551" /> 
<circle cx="7870.08" cy="10633.9" r="59.0551" /> 
<circle cx="6389.76" cy="10622" r="59.0551" /> 
<circle cx="5618.11" cy="12169.3" r="59.0551" /> 
<circle cx="6228.35" cy="14842.5" r="59.0551" /> 
<circle cx="7893.7" cy="12976.4" r="59.0551" /> 
<circle cx="8358.27" cy="16173.2" r="59.0551" /> 
<circle cx="11350.4" cy="10755.9" r="59.0551" /> 
<circle cx="11334.6" cy="7649.61" r="59.0551" /> 
<circle cx="11334.6" cy="7047.24" r="59.0551" /> 
</g>
<g style="fill:#FFFFFF; fill-opacity:1.0; 
stroke:#FFFFFF; stroke-width:394; stroke-opacity:1; 
stroke-linecap:round; stroke-linejoin:round;">
</g>
<g style="fill:#FFFFFF; fill-opacity:0.0; 
stroke:#FFFFFF; stroke-width:394; stroke-opacity:1; 
stroke-linecap:round; stroke-linejoin:round;">
<path d="M6472 18468
L5685 18468
" />
<path d="M4798 15988
L4798 16775
" />
<path d="M7161 15889
L7161 16873
" />
</g>
<g style="fill:#FFFFFF; fill-opacity:0.0; 
stroke:#FFFFFF; stroke-width:39.3701; stroke-opacity:1; 
stroke-linecap:round; stroke-linejoin:round;">
</g>
<g style="fill:#FFFFFF; fill-opacity:1.0; 
stroke:#FFFFFF; stroke-width:39.3701; stroke-opacity:1; 
stroke-linecap:round; stroke-linejoin:round;">
<circle cx="11346.5" cy="6244.09" r="137.795" /> 
<circle cx="13315" cy="6244.09" r="137.795" /> 
<circle cx="15283.5" cy="6244.09" r="137.795" /> 
<circle cx="8047.24" cy="6244.09" r="137.795" /> 
<circle cx="10015.7" cy="6244.09" r="137.795" /> 
<circle cx="11984.3" cy="6244.09" r="137.795" /> 
<circle cx="4716.54" cy="6244.09" r="137.795" /> 
<circle cx="6685.04" cy="6244.09" r="137.795" /> 
<circle cx="8653.54" cy="6244.09" r="137.795" /> 
<circle cx="15129.9" cy="15000" r="374.016" /> 
<circle cx="15129.9" cy="18834.6" r="374.016" /> 
<circle cx="10149.6" cy="18834.6" r="374.016" /> 
<circle cx="4724.41" cy="13311" r="177.315" /> 
<circle cx="4724.41" cy="12311" r="177.315" /> 
<circle cx="4724.41" cy="11311" r="177.315" /> 
</g> 
</svg>
